<?xml version="1.0" encoding="utf-8"?>
<!-- Generator: Adobe Illustrator 21.1.0, SVG Export Plug-In . SVG Version: 6.00 Build 0)  -->
<svg version="1.1" xmlns="http://www.w3.org/2000/svg" xmlns:xlink="http://www.w3.org/1999/xlink" x="0px" y="0px"
	 viewBox="0 0 171 100" style="enable-background:new 0 0 171 100;" xml:space="preserve">
<style type="text/css">
	.st0{opacity:0.31;}
	.st1{fill:#C4DFE5;}
	.st2{fill:#D7EFF2;}
	.st3{fill:#E4CDB6;}
	.st4{fill:#6B768E;}
	.st5{fill:#FDEAE4;}
	.st6{fill:#FFFFFF;}
	.st7{fill:none;stroke:#6B768E;stroke-width:0.5;stroke-miterlimit:10;}
</style>
<g id="Layer_1">
</g>
<g id="Layer_4">
	<g>
		<g class="st0">
			<g>
				<g>
					<g>
						<g>
							<circle class="st1" cx="105.1" cy="92.5" r="1.2"/>
						</g>
					</g>
				</g>
				<g>
					<g>
						<g>
							<circle class="st1" cx="95.6" cy="92.5" r="1.2"/>
						</g>
					</g>
				</g>
				<g>
					<g>
						<g>
							<circle class="st1" cx="86" cy="92.5" r="1.2"/>
						</g>
					</g>
				</g>
				<g>
					<g>
						<g>
							<circle class="st1" cx="76.5" cy="92.5" r="1.2"/>
						</g>
					</g>
				</g>
				<g>
					<g>
						<g>
							<circle class="st1" cx="67" cy="92.5" r="1.2"/>
						</g>
					</g>
				</g>
				<g>
					<g>
						<g>
							<circle class="st1" cx="57.5" cy="92.5" r="1.2"/>
						</g>
					</g>
				</g>
				<g>
					<g>
						<g>
							<circle class="st1" cx="48" cy="92.5" r="1.2"/>
						</g>
					</g>
				</g>
				<g>
					<g>
						<g>
							<circle class="st1" cx="38.5" cy="92.5" r="1.2"/>
						</g>
					</g>
				</g>
				<g>
					<g>
						<g>
							<circle class="st1" cx="29" cy="92.5" r="1.2"/>
						</g>
					</g>
				</g>
				<g>
					<g>
						<g>
							<circle class="st1" cx="19.5" cy="92.5" r="1.2"/>
						</g>
					</g>
				</g>
				<g>
					<g>
						<g>
							<circle class="st1" cx="10" cy="92.5" r="1.2"/>
						</g>
					</g>
				</g>
			</g>
			<g>
				<g>
					<g>
						<g>
							<circle class="st1" cx="105.1" cy="82.9" r="1.2"/>
						</g>
					</g>
				</g>
				<g>
					<g>
						<g>
							<circle class="st1" cx="95.6" cy="82.9" r="1.2"/>
						</g>
					</g>
				</g>
				<g>
					<g>
						<g>
							<circle class="st1" cx="86" cy="82.9" r="1.2"/>
						</g>
					</g>
				</g>
				<g>
					<g>
						<g>
							<circle class="st1" cx="76.5" cy="82.9" r="1.2"/>
						</g>
					</g>
				</g>
				<g>
					<g>
						<g>
							<circle class="st1" cx="67" cy="82.9" r="1.2"/>
						</g>
					</g>
				</g>
				<g>
					<g>
						<g>
							<circle class="st1" cx="57.5" cy="82.9" r="1.2"/>
						</g>
					</g>
				</g>
				<g>
					<g>
						<g>
							<circle class="st1" cx="48" cy="82.9" r="1.2"/>
						</g>
					</g>
				</g>
				<g>
					<g>
						<g>
							<circle class="st1" cx="38.5" cy="82.9" r="1.2"/>
						</g>
					</g>
				</g>
				<g>
					<g>
						<g>
							<circle class="st1" cx="29" cy="82.9" r="1.2"/>
						</g>
					</g>
				</g>
				<g>
					<g>
						<g>
							<circle class="st1" cx="19.5" cy="82.9" r="1.2"/>
						</g>
					</g>
				</g>
				<g>
					<g>
						<g>
							<circle class="st1" cx="10" cy="82.9" r="1.2"/>
						</g>
					</g>
				</g>
			</g>
			<g>
				<g>
					<g>
						<g>
							<circle class="st1" cx="105.1" cy="73.4" r="1.2"/>
						</g>
					</g>
				</g>
				<g>
					<g>
						<g>
							<circle class="st1" cx="95.6" cy="73.4" r="1.2"/>
						</g>
					</g>
				</g>
				<g>
					<g>
						<g>
							<circle class="st1" cx="86" cy="73.4" r="1.2"/>
						</g>
					</g>
				</g>
				<g>
					<g>
						<g>
							<circle class="st1" cx="76.5" cy="73.4" r="1.2"/>
						</g>
					</g>
				</g>
				<g>
					<g>
						<g>
							<circle class="st1" cx="67" cy="73.4" r="1.2"/>
						</g>
					</g>
				</g>
				<g>
					<g>
						<g>
							<circle class="st1" cx="57.5" cy="73.4" r="1.2"/>
						</g>
					</g>
				</g>
				<g>
					<g>
						<g>
							<circle class="st1" cx="48" cy="73.4" r="1.2"/>
						</g>
					</g>
				</g>
				<g>
					<g>
						<g>
							<circle class="st1" cx="38.5" cy="73.4" r="1.2"/>
						</g>
					</g>
				</g>
				<g>
					<g>
						<g>
							<circle class="st1" cx="29" cy="73.4" r="1.2"/>
						</g>
					</g>
				</g>
				<g>
					<g>
						<g>
							<circle class="st1" cx="19.5" cy="73.4" r="1.2"/>
						</g>
					</g>
				</g>
				<g>
					<g>
						<g>
							<circle class="st1" cx="10" cy="73.4" r="1.2"/>
						</g>
					</g>
				</g>
			</g>
			<g>
				<g>
					<g>
						<g>
							<circle class="st1" cx="105.1" cy="63.9" r="1.2"/>
						</g>
					</g>
				</g>
				<g>
					<g>
						<g>
							<circle class="st1" cx="95.6" cy="63.9" r="1.2"/>
						</g>
					</g>
				</g>
				<g>
					<g>
						<g>
							<circle class="st1" cx="86" cy="63.9" r="1.2"/>
						</g>
					</g>
				</g>
				<g>
					<g>
						<g>
							<circle class="st1" cx="76.5" cy="63.9" r="1.2"/>
						</g>
					</g>
				</g>
				<g>
					<g>
						<g>
							<circle class="st1" cx="67" cy="63.9" r="1.2"/>
						</g>
					</g>
				</g>
				<g>
					<g>
						<g>
							<circle class="st1" cx="57.5" cy="63.9" r="1.2"/>
						</g>
					</g>
				</g>
				<g>
					<g>
						<g>
							<circle class="st1" cx="48" cy="63.9" r="1.2"/>
						</g>
					</g>
				</g>
				<g>
					<g>
						<g>
							<circle class="st1" cx="38.5" cy="63.9" r="1.2"/>
						</g>
					</g>
				</g>
				<g>
					<g>
						<g>
							<circle class="st1" cx="29" cy="63.9" r="1.2"/>
						</g>
					</g>
				</g>
				<g>
					<g>
						<g>
							<circle class="st1" cx="19.5" cy="63.9" r="1.2"/>
						</g>
					</g>
				</g>
				<g>
					<g>
						<g>
							<circle class="st1" cx="10" cy="63.9" r="1.2"/>
						</g>
					</g>
				</g>
			</g>
			<g>
				<g>
					<g>
						<g>
							<circle class="st1" cx="105.1" cy="54.4" r="1.2"/>
						</g>
					</g>
				</g>
				<g>
					<g>
						<g>
							<circle class="st1" cx="95.6" cy="54.4" r="1.2"/>
						</g>
					</g>
				</g>
				<g>
					<g>
						<g>
							<circle class="st1" cx="86" cy="54.4" r="1.2"/>
						</g>
					</g>
				</g>
				<g>
					<g>
						<g>
							<circle class="st1" cx="76.5" cy="54.4" r="1.2"/>
						</g>
					</g>
				</g>
				<g>
					<g>
						<g>
							<circle class="st1" cx="67" cy="54.4" r="1.2"/>
						</g>
					</g>
				</g>
				<g>
					<g>
						<g>
							<circle class="st1" cx="57.5" cy="54.4" r="1.2"/>
						</g>
					</g>
				</g>
				<g>
					<g>
						<g>
							<circle class="st1" cx="48" cy="54.4" r="1.2"/>
						</g>
					</g>
				</g>
				<g>
					<g>
						<g>
							<circle class="st1" cx="38.5" cy="54.4" r="1.2"/>
						</g>
					</g>
				</g>
				<g>
					<g>
						<g>
							<circle class="st1" cx="29" cy="54.4" r="1.2"/>
						</g>
					</g>
				</g>
				<g>
					<g>
						<g>
							<circle class="st1" cx="19.5" cy="54.4" r="1.2"/>
						</g>
					</g>
				</g>
				<g>
					<g>
						<g>
							<circle class="st1" cx="10" cy="54.4" r="1.2"/>
						</g>
					</g>
				</g>
			</g>
			<g>
				<g>
					<g>
						<g>
							<circle class="st1" cx="105.1" cy="44.9" r="1.2"/>
						</g>
					</g>
				</g>
				<g>
					<g>
						<g>
							<circle class="st1" cx="95.6" cy="44.9" r="1.2"/>
						</g>
					</g>
				</g>
				<g>
					<g>
						<g>
							<circle class="st1" cx="86" cy="44.9" r="1.2"/>
						</g>
					</g>
				</g>
				<g>
					<g>
						<g>
							<circle class="st1" cx="76.5" cy="44.9" r="1.2"/>
						</g>
					</g>
				</g>
				<g>
					<g>
						<g>
							<circle class="st1" cx="67" cy="44.9" r="1.2"/>
						</g>
					</g>
				</g>
				<g>
					<g>
						<g>
							<circle class="st1" cx="57.5" cy="44.9" r="1.2"/>
						</g>
					</g>
				</g>
				<g>
					<g>
						<g>
							<circle class="st1" cx="48" cy="44.9" r="1.2"/>
						</g>
					</g>
				</g>
				<g>
					<g>
						<g>
							<circle class="st1" cx="38.5" cy="44.9" r="1.2"/>
						</g>
					</g>
				</g>
				<g>
					<g>
						<g>
							<circle class="st1" cx="29" cy="44.9" r="1.2"/>
						</g>
					</g>
				</g>
				<g>
					<g>
						<g>
							<circle class="st1" cx="19.5" cy="44.9" r="1.2"/>
						</g>
					</g>
				</g>
				<g>
					<g>
						<g>
							<circle class="st1" cx="10" cy="44.9" r="1.2"/>
						</g>
					</g>
				</g>
			</g>
			<g>
				<g>
					<g>
						<g>
							<circle class="st1" cx="105.1" cy="35.4" r="1.2"/>
						</g>
					</g>
				</g>
				<g>
					<g>
						<g>
							<circle class="st1" cx="95.6" cy="35.4" r="1.2"/>
						</g>
					</g>
				</g>
				<g>
					<g>
						<g>
							<circle class="st1" cx="86" cy="35.4" r="1.2"/>
						</g>
					</g>
				</g>
				<g>
					<g>
						<g>
							<circle class="st1" cx="76.5" cy="35.4" r="1.2"/>
						</g>
					</g>
				</g>
				<g>
					<g>
						<g>
							<circle class="st1" cx="67" cy="35.4" r="1.2"/>
						</g>
					</g>
				</g>
				<g>
					<g>
						<g>
							<circle class="st1" cx="57.5" cy="35.4" r="1.2"/>
						</g>
					</g>
				</g>
				<g>
					<g>
						<g>
							<circle class="st1" cx="48" cy="35.4" r="1.2"/>
						</g>
					</g>
				</g>
				<g>
					<g>
						<g>
							<circle class="st1" cx="38.5" cy="35.4" r="1.2"/>
						</g>
					</g>
				</g>
				<g>
					<g>
						<g>
							<circle class="st1" cx="29" cy="35.4" r="1.2"/>
						</g>
					</g>
				</g>
				<g>
					<g>
						<g>
							<circle class="st1" cx="19.5" cy="35.4" r="1.2"/>
						</g>
					</g>
				</g>
				<g>
					<g>
						<g>
							<circle class="st1" cx="10" cy="35.4" r="1.2"/>
						</g>
					</g>
				</g>
			</g>
			<g>
				<g>
					<g>
						<g>
							<circle class="st1" cx="105.1" cy="25.9" r="1.2"/>
						</g>
					</g>
				</g>
				<g>
					<g>
						<g>
							<circle class="st1" cx="95.6" cy="25.9" r="1.2"/>
						</g>
					</g>
				</g>
				<g>
					<g>
						<g>
							<circle class="st1" cx="86" cy="25.9" r="1.2"/>
						</g>
					</g>
				</g>
				<g>
					<g>
						<g>
							<circle class="st1" cx="76.5" cy="25.9" r="1.2"/>
						</g>
					</g>
				</g>
				<g>
					<g>
						<g>
							<circle class="st1" cx="67" cy="25.9" r="1.2"/>
						</g>
					</g>
				</g>
				<g>
					<g>
						<g>
							<circle class="st1" cx="57.5" cy="25.9" r="1.2"/>
						</g>
					</g>
				</g>
				<g>
					<g>
						<g>
							<circle class="st1" cx="48" cy="25.9" r="1.2"/>
						</g>
					</g>
				</g>
				<g>
					<g>
						<g>
							<circle class="st1" cx="38.5" cy="25.9" r="1.2"/>
						</g>
					</g>
				</g>
				<g>
					<g>
						<g>
							<circle class="st1" cx="29" cy="25.9" r="1.2"/>
						</g>
					</g>
				</g>
				<g>
					<g>
						<g>
							<circle class="st1" cx="19.5" cy="25.9" r="1.2"/>
						</g>
					</g>
				</g>
				<g>
					<g>
						<g>
							<circle class="st1" cx="10" cy="25.9" r="1.2"/>
						</g>
					</g>
				</g>
			</g>
			<g>
				<g>
					<g>
						<g>
							<circle class="st1" cx="105.1" cy="16.4" r="1.2"/>
						</g>
					</g>
				</g>
				<g>
					<g>
						<g>
							<circle class="st1" cx="95.6" cy="16.4" r="1.2"/>
						</g>
					</g>
				</g>
				<g>
					<g>
						<g>
							<circle class="st1" cx="86" cy="16.4" r="1.2"/>
						</g>
					</g>
				</g>
				<g>
					<g>
						<g>
							<circle class="st1" cx="76.5" cy="16.4" r="1.2"/>
						</g>
					</g>
				</g>
				<g>
					<g>
						<g>
							<circle class="st1" cx="67" cy="16.4" r="1.2"/>
						</g>
					</g>
				</g>
				<g>
					<g>
						<g>
							<circle class="st1" cx="57.5" cy="16.4" r="1.2"/>
						</g>
					</g>
				</g>
				<g>
					<g>
						<g>
							<circle class="st1" cx="48" cy="16.4" r="1.2"/>
						</g>
					</g>
				</g>
				<g>
					<g>
						<g>
							<circle class="st1" cx="38.5" cy="16.4" r="1.2"/>
						</g>
					</g>
				</g>
				<g>
					<g>
						<g>
							<circle class="st1" cx="29" cy="16.4" r="1.2"/>
						</g>
					</g>
				</g>
				<g>
					<g>
						<g>
							<circle class="st1" cx="19.5" cy="16.4" r="1.2"/>
						</g>
					</g>
				</g>
				<g>
					<g>
						<g>
							<circle class="st1" cx="10" cy="16.4" r="1.2"/>
						</g>
					</g>
				</g>
			</g>
			<g>
				<g>
					<g>
						<g>
							<circle class="st1" cx="105.1" cy="6.9" r="1.2"/>
						</g>
					</g>
				</g>
				<g>
					<g>
						<g>
							<circle class="st1" cx="95.6" cy="6.9" r="1.2"/>
						</g>
					</g>
				</g>
				<g>
					<g>
						<g>
							<circle class="st1" cx="86" cy="6.9" r="1.2"/>
						</g>
					</g>
				</g>
				<g>
					<g>
						<g>
							<circle class="st1" cx="76.5" cy="6.9" r="1.2"/>
						</g>
					</g>
				</g>
				<g>
					<g>
						<g>
							<circle class="st1" cx="67" cy="6.9" r="1.2"/>
						</g>
					</g>
				</g>
				<g>
					<g>
						<g>
							<circle class="st1" cx="57.5" cy="6.9" r="1.2"/>
						</g>
					</g>
				</g>
				<g>
					<g>
						<g>
							<circle class="st1" cx="48" cy="6.9" r="1.2"/>
						</g>
					</g>
				</g>
				<g>
					<g>
						<g>
							<circle class="st1" cx="38.5" cy="6.9" r="1.2"/>
						</g>
					</g>
				</g>
				<g>
					<g>
						<g>
							<circle class="st1" cx="29" cy="6.9" r="1.2"/>
						</g>
					</g>
				</g>
				<g>
					<g>
						<g>
							<circle class="st1" cx="19.5" cy="6.9" r="1.2"/>
						</g>
					</g>
				</g>
				<g>
					<g>
						<g>
							<circle class="st1" cx="10" cy="6.9" r="1.2"/>
						</g>
					</g>
				</g>
			</g>
		</g>
		<g class="st0">
			<g>
				<g>
					<g>
						<g>
							<circle class="st1" cx="162.5" cy="92.5" r="1.2"/>
						</g>
					</g>
				</g>
				<g>
					<g>
						<g>
							<circle class="st1" cx="152.9" cy="92.5" r="1.2"/>
						</g>
					</g>
				</g>
				<g>
					<g>
						<g>
							<circle class="st1" cx="143.4" cy="92.5" r="1.2"/>
						</g>
					</g>
				</g>
				<g>
					<g>
						<g>
							<circle class="st1" cx="133.9" cy="92.5" r="1.2"/>
						</g>
					</g>
				</g>
				<g>
					<g>
						<g>
							<circle class="st1" cx="124.4" cy="92.5" r="1.2"/>
						</g>
					</g>
				</g>
				<g>
					<g>
						<g>
							<circle class="st1" cx="114.9" cy="92.5" r="1.2"/>
						</g>
					</g>
				</g>
			</g>
			<g>
				<g>
					<g>
						<g>
							<circle class="st1" cx="162.5" cy="82.9" r="1.2"/>
						</g>
					</g>
				</g>
				<g>
					<g>
						<g>
							<circle class="st1" cx="152.9" cy="82.9" r="1.2"/>
						</g>
					</g>
				</g>
				<g>
					<g>
						<g>
							<circle class="st1" cx="143.4" cy="82.9" r="1.2"/>
						</g>
					</g>
				</g>
				<g>
					<g>
						<g>
							<circle class="st1" cx="133.9" cy="82.9" r="1.2"/>
						</g>
					</g>
				</g>
				<g>
					<g>
						<g>
							<circle class="st1" cx="124.4" cy="82.9" r="1.2"/>
						</g>
					</g>
				</g>
				<g>
					<g>
						<g>
							<circle class="st1" cx="114.9" cy="82.9" r="1.2"/>
						</g>
					</g>
				</g>
			</g>
			<g>
				<g>
					<g>
						<g>
							<circle class="st1" cx="162.5" cy="73.4" r="1.2"/>
						</g>
					</g>
				</g>
				<g>
					<g>
						<g>
							<circle class="st1" cx="152.9" cy="73.4" r="1.2"/>
						</g>
					</g>
				</g>
				<g>
					<g>
						<g>
							<circle class="st1" cx="143.4" cy="73.4" r="1.2"/>
						</g>
					</g>
				</g>
				<g>
					<g>
						<g>
							<circle class="st1" cx="133.9" cy="73.4" r="1.2"/>
						</g>
					</g>
				</g>
				<g>
					<g>
						<g>
							<circle class="st1" cx="124.4" cy="73.4" r="1.2"/>
						</g>
					</g>
				</g>
				<g>
					<g>
						<g>
							<circle class="st1" cx="114.9" cy="73.4" r="1.2"/>
						</g>
					</g>
				</g>
			</g>
			<g>
				<g>
					<g>
						<g>
							<circle class="st1" cx="162.5" cy="63.9" r="1.2"/>
						</g>
					</g>
				</g>
				<g>
					<g>
						<g>
							<circle class="st1" cx="152.9" cy="63.9" r="1.2"/>
						</g>
					</g>
				</g>
				<g>
					<g>
						<g>
							<circle class="st1" cx="143.4" cy="63.9" r="1.2"/>
						</g>
					</g>
				</g>
				<g>
					<g>
						<g>
							<circle class="st1" cx="133.9" cy="63.9" r="1.2"/>
						</g>
					</g>
				</g>
				<g>
					<g>
						<g>
							<circle class="st1" cx="124.4" cy="63.9" r="1.2"/>
						</g>
					</g>
				</g>
				<g>
					<g>
						<g>
							<circle class="st1" cx="114.9" cy="63.9" r="1.2"/>
						</g>
					</g>
				</g>
			</g>
			<g>
				<g>
					<g>
						<g>
							<circle class="st1" cx="162.5" cy="54.4" r="1.2"/>
						</g>
					</g>
				</g>
				<g>
					<g>
						<g>
							<circle class="st1" cx="152.9" cy="54.4" r="1.2"/>
						</g>
					</g>
				</g>
				<g>
					<g>
						<g>
							<circle class="st1" cx="143.4" cy="54.4" r="1.2"/>
						</g>
					</g>
				</g>
				<g>
					<g>
						<g>
							<circle class="st1" cx="133.9" cy="54.4" r="1.2"/>
						</g>
					</g>
				</g>
				<g>
					<g>
						<g>
							<circle class="st1" cx="124.4" cy="54.4" r="1.2"/>
						</g>
					</g>
				</g>
				<g>
					<g>
						<g>
							<circle class="st1" cx="114.9" cy="54.4" r="1.2"/>
						</g>
					</g>
				</g>
			</g>
			<g>
				<g>
					<g>
						<g>
							<circle class="st1" cx="162.5" cy="44.9" r="1.2"/>
						</g>
					</g>
				</g>
				<g>
					<g>
						<g>
							<circle class="st1" cx="152.9" cy="44.9" r="1.2"/>
						</g>
					</g>
				</g>
				<g>
					<g>
						<g>
							<circle class="st1" cx="143.4" cy="44.9" r="1.2"/>
						</g>
					</g>
				</g>
				<g>
					<g>
						<g>
							<circle class="st1" cx="133.9" cy="44.9" r="1.2"/>
						</g>
					</g>
				</g>
				<g>
					<g>
						<g>
							<circle class="st1" cx="124.4" cy="44.9" r="1.2"/>
						</g>
					</g>
				</g>
				<g>
					<g>
						<g>
							<circle class="st1" cx="114.9" cy="44.9" r="1.2"/>
						</g>
					</g>
				</g>
			</g>
			<g>
				<g>
					<g>
						<g>
							<circle class="st1" cx="162.5" cy="35.4" r="1.2"/>
						</g>
					</g>
				</g>
				<g>
					<g>
						<g>
							<circle class="st1" cx="152.9" cy="35.4" r="1.2"/>
						</g>
					</g>
				</g>
				<g>
					<g>
						<g>
							<circle class="st1" cx="143.4" cy="35.4" r="1.2"/>
						</g>
					</g>
				</g>
				<g>
					<g>
						<g>
							<circle class="st1" cx="133.9" cy="35.4" r="1.2"/>
						</g>
					</g>
				</g>
				<g>
					<g>
						<g>
							<circle class="st1" cx="124.4" cy="35.4" r="1.2"/>
						</g>
					</g>
				</g>
				<g>
					<g>
						<g>
							<circle class="st1" cx="114.9" cy="35.4" r="1.2"/>
						</g>
					</g>
				</g>
			</g>
			<g>
				<g>
					<g>
						<g>
							<circle class="st1" cx="162.5" cy="25.9" r="1.2"/>
						</g>
					</g>
				</g>
				<g>
					<g>
						<g>
							<circle class="st1" cx="152.9" cy="25.9" r="1.2"/>
						</g>
					</g>
				</g>
				<g>
					<g>
						<g>
							<circle class="st1" cx="143.4" cy="25.9" r="1.2"/>
						</g>
					</g>
				</g>
				<g>
					<g>
						<g>
							<circle class="st1" cx="133.9" cy="25.9" r="1.2"/>
						</g>
					</g>
				</g>
				<g>
					<g>
						<g>
							<circle class="st1" cx="124.4" cy="25.9" r="1.2"/>
						</g>
					</g>
				</g>
				<g>
					<g>
						<g>
							<circle class="st1" cx="114.9" cy="25.9" r="1.2"/>
						</g>
					</g>
				</g>
			</g>
			<g>
				<g>
					<g>
						<g>
							<circle class="st1" cx="162.5" cy="16.4" r="1.2"/>
						</g>
					</g>
				</g>
				<g>
					<g>
						<g>
							<circle class="st1" cx="152.9" cy="16.4" r="1.2"/>
						</g>
					</g>
				</g>
				<g>
					<g>
						<g>
							<circle class="st1" cx="143.4" cy="16.4" r="1.2"/>
						</g>
					</g>
				</g>
				<g>
					<g>
						<g>
							<circle class="st1" cx="133.9" cy="16.4" r="1.2"/>
						</g>
					</g>
				</g>
				<g>
					<g>
						<g>
							<circle class="st1" cx="124.4" cy="16.4" r="1.2"/>
						</g>
					</g>
				</g>
				<g>
					<g>
						<g>
							<circle class="st1" cx="114.9" cy="16.4" r="1.2"/>
						</g>
					</g>
				</g>
			</g>
			<g>
				<g>
					<g>
						<g>
							<circle class="st1" cx="162.5" cy="6.9" r="1.2"/>
						</g>
					</g>
				</g>
				<g>
					<g>
						<g>
							<circle class="st1" cx="152.9" cy="6.9" r="1.2"/>
						</g>
					</g>
				</g>
				<g>
					<g>
						<g>
							<circle class="st1" cx="143.4" cy="6.9" r="1.2"/>
						</g>
					</g>
				</g>
				<g>
					<g>
						<g>
							<circle class="st1" cx="133.9" cy="6.9" r="1.2"/>
						</g>
					</g>
				</g>
				<g>
					<g>
						<g>
							<circle class="st1" cx="124.4" cy="6.9" r="1.2"/>
						</g>
					</g>
				</g>
				<g>
					<g>
						<g>
							<circle class="st1" cx="114.9" cy="6.9" r="1.2"/>
						</g>
					</g>
				</g>
			</g>
		</g>
	</g>
	<g>
		<g>
			<path class="st2" d="M152.9,62.6c-1,1-2.3,1.6-3.8,1.6l-20,0c-2,0-3.8,1.3-4.2,3.3c-0.3,1.5,0.2,2.8,1.1,3.8
				c0.8,0.8,1.8,1.2,2.9,1.2h10.5c3.1,0,5.7,2.5,5.6,5.6c-0.1,1.4-0.6,2.6-1.6,3.6c-1,1-2.3,1.6-3.8,1.6H85.2
				c-4.5,0-8.1-3.6-8.1-8.1V71l9.8-9.7h10l7-7.8l45,0c2.6,0,5,1.8,5.4,4.4C154.7,59.7,154,61.4,152.9,62.6z"/>
		</g>
	</g>
	<g>
		<g>
			<path class="st2" d="M113.4,21L113.4,21c0,2.5-2,4.6-4.5,4.6h0c-2.8,0-5.1,2.3-5.1,5.2l-9.4,14.1L42,45c-2.5,0-4.7-2.1-4.6-4.7
				c0-1.2,0.5-2.2,1.3-3c0.8-0.8,1.9-1.3,3.1-1.3h38.4c2.6,0,4.8-2.2,4.8-4.9c0-1.3-0.5-2.6-1.4-3.5c-0.9-0.9-2.1-1.4-3.4-1.4
				l-18.8,0c-2.7,0-5.1-2.3-5-5c0-1.3,0.6-2.4,1.4-3.3c0.9-0.9,2-1.4,3.4-1.4h47.8C111.4,16.4,113.4,18.4,113.4,21z"/>
		</g>
	</g>
	<g>
		<g>
			<circle class="st3" cx="90.4" cy="51.6" r="14.8"/>
		</g>
		<g>
			<path class="st4" d="M90.4,66.9c-8.5,0-15.3-6.9-15.3-15.3c0-8.5,6.9-15.3,15.3-15.3c8.5,0,15.3,6.9,15.3,15.3
				C105.8,60,98.9,66.9,90.4,66.9z M90.4,37.2c-7.9,0-14.3,6.4-14.3,14.3c0,7.9,6.4,14.3,14.3,14.3c7.9,0,14.3-6.4,14.3-14.3
				C104.8,43.7,98.4,37.2,90.4,37.2z"/>
		</g>
	</g>
	<g>
		<g>
			<path class="st5" d="M86.8,65.6c-2.3,5.3-7.5,9.1-13.7,9.1c-8.2,0-14.8-6.6-14.8-14.8S64.9,45,73.1,45c1.3,0,2.6,0.2,3.9,0.5"/>
		</g>
		<g>
			<path class="st4" d="M73.1,75.2c-8.5,0-15.3-6.9-15.3-15.3c0-8.5,6.9-15.3,15.3-15.3c1.4,0,2.7,0.2,4,0.5l-0.3,1
				c-1.2-0.3-2.5-0.5-3.7-0.5c-7.9,0-14.3,6.4-14.3,14.3c0,7.9,6.4,14.3,14.3,14.3c5.8,0,11-3.4,13.2-8.8l0.9,0.4
				C84.9,71.5,79.3,75.2,73.1,75.2z"/>
		</g>
	</g>
	<g>
		<g>
			<polygon class="st6" points="95.1,49 91.6,46.8 91.6,43.5 95,38.8 101.2,42.5 97.9,47.5 			"/>
		</g>
	</g>
	<g>
		<g>
			<polygon class="st5" points="97.9,47.5 91.6,43.5 110.7,15.6 116.9,19.4 			"/>
		</g>
	</g>
	<g>
		<g>
			<polygon class="st2" points="110.7,15.6 116.9,19.4 117.9,17.5 117.9,15.5 116.9,13.8 115.1,12.9 113.3,12.9 112.2,13.7 			"/>
		</g>
	</g>
	<g>
		<g>
			<path class="st4" d="M92.3,50.7c-0.2,0-0.5-0.1-0.7-0.2c-0.4-0.2-0.6-0.7-0.6-1.1l0.3-5.9l0.1-0.1l19.7-29.1
				c0.6-0.9,1.5-1.5,2.6-1.7c1.1-0.2,2.2,0,3.1,0.6c0.9,0.6,1.5,1.5,1.7,2.6c0.2,1.1,0,2.2-0.6,3.1l-19.6,29l-5.4,2.7
				C92.7,50.6,92.5,50.7,92.3,50.7z M92.3,43.8l-0.2,5.6c0,0.1,0.1,0.2,0.1,0.2c0,0,0.1,0.1,0.2,0l5.2-2.6L117,18.2
				c0.5-0.7,0.6-1.5,0.5-2.3c-0.2-0.8-0.6-1.5-1.3-2c-0.7-0.5-1.5-0.6-2.3-0.5c-0.8,0.2-1.5,0.6-2,1.3L92.3,43.8z"/>
		</g>
	</g>
	<g>
		<g>
			<path class="st4" d="M90.6,66.6c-8.3,0-15.1-6.8-15.1-15.1s6.8-15.1,15.1-15.1c1.5,0,2.9,0.2,4.3,0.6l1,0.4l-0.2,0.5l-1-0.4
				c-1.3-0.4-2.8-0.6-4.2-0.6c-8,0-14.6,6.5-14.6,14.6s6.5,14.6,14.6,14.6s14.6-6.5,14.6-14.6c0-3.2-1-6.2-2.9-8.8l-0.7-0.8l0.4-0.3
				l0.7,0.8c2,2.6,3,5.8,3,9.1C105.7,59.8,98.9,66.6,90.6,66.6z"/>
		</g>
	</g>
	<g>
		<g>
			<polygon class="st4" points="91.6,46.8 95.1,49 92.5,50.2 91.7,49.6 			"/>
		</g>
	</g>
	<g>
		<g>
			<rect x="57.7" y="51.4" class="st4" width="0.5" height="16.9"/>
		</g>
	</g>
	<g>
		<g>
			<circle class="st4" cx="58" cy="68.3" r="1"/>
		</g>
	</g>
	<g>
		<g>
			<circle class="st4" cx="58" cy="51.4" r="1"/>
		</g>
	</g>
	<g>
		<g>
			<rect x="64.7" y="74.4" class="st4" width="16.9" height="0.5"/>
		</g>
	</g>
	<g>
		<g>
			<circle class="st4" cx="64.7" cy="74.7" r="1"/>
		</g>
	</g>
	<g>
		<g>
			<circle class="st4" cx="81.6" cy="74.7" r="1"/>
		</g>
	</g>
	<g>
		<g>
			<path class="st7" d="M98.9,46"/>
		</g>
	</g>
	<g>
		<g>
			<path class="st7" d="M92.7,42.2"/>
		</g>
	</g>
	<g>
		<g>
			<polygon class="st4" points="116.7,19.6 110.6,15.8 110.9,15.4 117,19.2 			"/>
		</g>
	</g>
	<g>
		<g>
			
				<rect x="89.9" y="31.4" transform="matrix(0.5664 -0.8242 0.8242 0.5664 19.1967 99.7516)" class="st4" width="29" height="0.5"/>
		</g>
	</g>
	<g>
		<g>
			<path class="st5" d="M77,45.5c6.3,1.7,11,7.5,11,14.3c0,2-0.4,4-1.2,5.8"/>
		</g>
		<g>
			<path class="st4" d="M87.1,65.8l-0.5-0.2c0.8-1.8,1.1-3.7,1.1-5.7c0-6.6-4.4-12.4-10.8-14.1l0.1-0.5c6.6,1.8,11.2,7.8,11.2,14.6
				C88.2,61.9,87.9,63.9,87.1,65.8z"/>
		</g>
	</g>
</g>
</svg>
