<?xml version="1.0" encoding="utf-8"?>
<!-- Generator: Adobe Illustrator 21.1.0, SVG Export Plug-In . SVG Version: 6.00 Build 0)  -->
<svg version="1.1" xmlns="http://www.w3.org/2000/svg" xmlns:xlink="http://www.w3.org/1999/xlink" x="0px" y="0px"
	 viewBox="0 0 171 100" style="enable-background:new 0 0 171 100;" xml:space="preserve">
<style type="text/css">
	.st0{opacity:0.31;}
	.st1{fill:#C4DFE5;}
	.st2{fill:#D7EFF2;}
	.st3{fill:#FDEAE4;}
	.st4{fill:#6B768E;}
	.st5{fill:#FFFFFF;}
	.st6{fill:#E4CDB6;}
</style>
<g id="Layer_1">
	<g id="Layer_1_1_">
	</g>
</g>
<g id="Layer_4">
	<g>
		<g>
			<g class="st0">
				<g>
					<g>
						<g>
							<circle class="st1" cx="103.96" cy="92.775" r="1.189"/>
						</g>
					</g>
					<g>
						<g>
							<circle class="st1" cx="94.452" cy="92.775" r="1.189"/>
						</g>
					</g>
					<g>
						<g>
							<circle class="st1" cx="84.943" cy="92.775" r="1.189"/>
						</g>
					</g>
					<g>
						<g>
							<circle class="st1" cx="75.435" cy="92.775" r="1.189"/>
						</g>
					</g>
					<g>
						<g>
							<circle class="st1" cx="65.926" cy="92.775" r="1.189"/>
						</g>
					</g>
					<g>
						<g>
							<circle class="st1" cx="56.418" cy="92.775" r="1.189"/>
						</g>
					</g>
					<g>
						<g>
							<circle class="st1" cx="46.91" cy="92.775" r="1.189"/>
						</g>
					</g>
					<g>
						<g>
							<circle class="st1" cx="37.401" cy="92.775" r="1.189"/>
						</g>
					</g>
					<g>
						<g>
							<circle class="st1" cx="27.893" cy="92.775" r="1.189"/>
						</g>
					</g>
					<g>
						<g>
							<circle class="st1" cx="18.384" cy="92.775" r="1.189"/>
						</g>
					</g>
					<g>
						<g>
							<circle class="st1" cx="8.876" cy="92.775" r="1.189"/>
						</g>
					</g>
				</g>
				<g>
					<g>
						<g>
							<circle class="st1" cx="103.96" cy="83.266" r="1.189"/>
						</g>
					</g>
					<g>
						<g>
							<circle class="st1" cx="94.452" cy="83.266" r="1.189"/>
						</g>
					</g>
					<g>
						<g>
							<circle class="st1" cx="84.943" cy="83.266" r="1.189"/>
						</g>
					</g>
					<g>
						<g>
							<circle class="st1" cx="75.435" cy="83.266" r="1.189"/>
						</g>
					</g>
					<g>
						<g>
							<circle class="st1" cx="65.926" cy="83.266" r="1.189"/>
						</g>
					</g>
					<g>
						<g>
							<circle class="st1" cx="56.418" cy="83.266" r="1.189"/>
						</g>
					</g>
					<g>
						<g>
							<circle class="st1" cx="46.91" cy="83.266" r="1.189"/>
						</g>
					</g>
					<g>
						<g>
							<circle class="st1" cx="37.401" cy="83.266" r="1.189"/>
						</g>
					</g>
					<g>
						<g>
							<circle class="st1" cx="27.893" cy="83.266" r="1.189"/>
						</g>
					</g>
					<g>
						<g>
							<circle class="st1" cx="18.384" cy="83.266" r="1.189"/>
						</g>
					</g>
					<g>
						<g>
							<circle class="st1" cx="8.876" cy="83.266" r="1.189"/>
						</g>
					</g>
				</g>
				<g>
					<g>
						<g>
							<circle class="st1" cx="103.96" cy="73.758" r="1.189"/>
						</g>
					</g>
					<g>
						<g>
							<circle class="st1" cx="94.452" cy="73.758" r="1.189"/>
						</g>
					</g>
					<g>
						<g>
							<circle class="st1" cx="84.943" cy="73.758" r="1.189"/>
						</g>
					</g>
					<g>
						<g>
							<circle class="st1" cx="75.435" cy="73.758" r="1.189"/>
						</g>
					</g>
					<g>
						<g>
							<circle class="st1" cx="65.926" cy="73.758" r="1.189"/>
						</g>
					</g>
					<g>
						<g>
							<circle class="st1" cx="56.418" cy="73.758" r="1.189"/>
						</g>
					</g>
					<g>
						<g>
							<circle class="st1" cx="46.91" cy="73.758" r="1.189"/>
						</g>
					</g>
					<g>
						<g>
							<circle class="st1" cx="37.401" cy="73.758" r="1.189"/>
						</g>
					</g>
					<g>
						<g>
							<circle class="st1" cx="27.893" cy="73.758" r="1.189"/>
						</g>
					</g>
					<g>
						<g>
							<circle class="st1" cx="18.384" cy="73.758" r="1.189"/>
						</g>
					</g>
					<g>
						<g>
							<circle class="st1" cx="8.876" cy="73.758" r="1.189"/>
						</g>
					</g>
				</g>
				<g>
					<g>
						<g>
							<circle class="st1" cx="103.96" cy="64.25" r="1.189"/>
						</g>
					</g>
					<g>
						<g>
							<circle class="st1" cx="94.452" cy="64.25" r="1.189"/>
						</g>
					</g>
					<g>
						<g>
							<circle class="st1" cx="84.943" cy="64.25" r="1.189"/>
						</g>
					</g>
					<g>
						<g>
							<circle class="st1" cx="75.435" cy="64.25" r="1.189"/>
						</g>
					</g>
					<g>
						<g>
							<circle class="st1" cx="65.926" cy="64.25" r="1.189"/>
						</g>
					</g>
					<g>
						<g>
							<circle class="st1" cx="56.418" cy="64.25" r="1.189"/>
						</g>
					</g>
					<g>
						<g>
							<circle class="st1" cx="46.91" cy="64.25" r="1.189"/>
						</g>
					</g>
					<g>
						<g>
							<circle class="st1" cx="37.401" cy="64.25" r="1.189"/>
						</g>
					</g>
					<g>
						<g>
							<circle class="st1" cx="27.893" cy="64.25" r="1.189"/>
						</g>
					</g>
					<g>
						<g>
							<circle class="st1" cx="18.384" cy="64.25" r="1.189"/>
						</g>
					</g>
					<g>
						<g>
							<circle class="st1" cx="8.876" cy="64.25" r="1.189"/>
						</g>
					</g>
				</g>
				<g>
					<g>
						<g>
							<circle class="st1" cx="103.96" cy="54.741" r="1.189"/>
						</g>
					</g>
					<g>
						<g>
							<circle class="st1" cx="94.452" cy="54.741" r="1.189"/>
						</g>
					</g>
					<g>
						<g>
							<circle class="st1" cx="84.943" cy="54.741" r="1.189"/>
						</g>
					</g>
					<g>
						<g>
							<circle class="st1" cx="75.435" cy="54.741" r="1.189"/>
						</g>
					</g>
					<g>
						<g>
							<circle class="st1" cx="65.926" cy="54.741" r="1.189"/>
						</g>
					</g>
					<g>
						<g>
							<circle class="st1" cx="56.418" cy="54.741" r="1.189"/>
						</g>
					</g>
					<g>
						<g>
							<circle class="st1" cx="46.91" cy="54.741" r="1.189"/>
						</g>
					</g>
					<g>
						<g>
							<circle class="st1" cx="37.401" cy="54.741" r="1.189"/>
						</g>
					</g>
					<g>
						<g>
							<circle class="st1" cx="27.893" cy="54.741" r="1.189"/>
						</g>
					</g>
					<g>
						<g>
							<circle class="st1" cx="18.384" cy="54.741" r="1.189"/>
						</g>
					</g>
					<g>
						<g>
							<circle class="st1" cx="8.876" cy="54.741" r="1.189"/>
						</g>
					</g>
				</g>
				<g>
					<g>
						<g>
							<circle class="st1" cx="103.96" cy="45.233" r="1.189"/>
						</g>
					</g>
					<g>
						<g>
							<circle class="st1" cx="94.452" cy="45.233" r="1.189"/>
						</g>
					</g>
					<g>
						<g>
							<circle class="st1" cx="84.943" cy="45.233" r="1.189"/>
						</g>
					</g>
					<g>
						<g>
							<circle class="st1" cx="75.435" cy="45.233" r="1.189"/>
						</g>
					</g>
					<g>
						<g>
							<circle class="st1" cx="65.926" cy="45.233" r="1.189"/>
						</g>
					</g>
					<g>
						<g>
							<circle class="st1" cx="56.418" cy="45.233" r="1.189"/>
						</g>
					</g>
					<g>
						<g>
							<circle class="st1" cx="46.91" cy="45.233" r="1.189"/>
						</g>
					</g>
					<g>
						<g>
							<circle class="st1" cx="37.401" cy="45.233" r="1.189"/>
						</g>
					</g>
					<g>
						<g>
							<circle class="st1" cx="27.893" cy="45.233" r="1.189"/>
						</g>
					</g>
					<g>
						<g>
							<circle class="st1" cx="18.384" cy="45.233" r="1.189"/>
						</g>
					</g>
					<g>
						<g>
							<circle class="st1" cx="8.876" cy="45.233" r="1.189"/>
						</g>
					</g>
				</g>
				<g>
					<g>
						<g>
							<circle class="st1" cx="103.96" cy="35.724" r="1.189"/>
						</g>
					</g>
					<g>
						<g>
							<circle class="st1" cx="94.452" cy="35.724" r="1.189"/>
						</g>
					</g>
					<g>
						<g>
							<circle class="st1" cx="84.943" cy="35.724" r="1.189"/>
						</g>
					</g>
					<g>
						<g>
							<circle class="st1" cx="75.435" cy="35.724" r="1.189"/>
						</g>
					</g>
					<g>
						<g>
							<circle class="st1" cx="65.926" cy="35.724" r="1.189"/>
						</g>
					</g>
					<g>
						<g>
							<circle class="st1" cx="56.418" cy="35.724" r="1.189"/>
						</g>
					</g>
					<g>
						<g>
							<circle class="st1" cx="46.91" cy="35.724" r="1.189"/>
						</g>
					</g>
					<g>
						<g>
							<circle class="st1" cx="37.401" cy="35.724" r="1.189"/>
						</g>
					</g>
					<g>
						<g>
							<circle class="st1" cx="27.893" cy="35.724" r="1.189"/>
						</g>
					</g>
					<g>
						<g>
							<circle class="st1" cx="18.384" cy="35.724" r="1.189"/>
						</g>
					</g>
					<g>
						<g>
							<circle class="st1" cx="8.876" cy="35.724" r="1.189"/>
						</g>
					</g>
				</g>
				<g>
					<g>
						<g>
							<circle class="st1" cx="103.96" cy="26.216" r="1.189"/>
						</g>
					</g>
					<g>
						<g>
							<circle class="st1" cx="94.452" cy="26.216" r="1.189"/>
						</g>
					</g>
					<g>
						<g>
							<circle class="st1" cx="84.943" cy="26.216" r="1.189"/>
						</g>
					</g>
					<g>
						<g>
							<circle class="st1" cx="75.435" cy="26.216" r="1.189"/>
						</g>
					</g>
					<g>
						<g>
							<circle class="st1" cx="65.926" cy="26.216" r="1.189"/>
						</g>
					</g>
					<g>
						<g>
							<circle class="st1" cx="56.418" cy="26.216" r="1.189"/>
						</g>
					</g>
					<g>
						<g>
							<circle class="st1" cx="46.91" cy="26.216" r="1.189"/>
						</g>
					</g>
					<g>
						<g>
							<circle class="st1" cx="37.401" cy="26.216" r="1.189"/>
						</g>
					</g>
					<g>
						<g>
							<circle class="st1" cx="27.893" cy="26.216" r="1.189"/>
						</g>
					</g>
					<g>
						<g>
							<circle class="st1" cx="18.384" cy="26.216" r="1.189"/>
						</g>
					</g>
					<g>
						<g>
							<circle class="st1" cx="8.876" cy="26.216" r="1.189"/>
						</g>
					</g>
				</g>
				<g>
					<g>
						<g>
							<circle class="st1" cx="103.96" cy="16.708" r="1.189"/>
						</g>
					</g>
					<g>
						<g>
							<circle class="st1" cx="94.452" cy="16.708" r="1.189"/>
						</g>
					</g>
					<g>
						<g>
							<circle class="st1" cx="84.943" cy="16.708" r="1.189"/>
						</g>
					</g>
					<g>
						<g>
							<circle class="st1" cx="75.435" cy="16.708" r="1.189"/>
						</g>
					</g>
					<g>
						<g>
							<circle class="st1" cx="65.926" cy="16.708" r="1.189"/>
						</g>
					</g>
					<g>
						<g>
							<circle class="st1" cx="56.418" cy="16.708" r="1.189"/>
						</g>
					</g>
					<g>
						<g>
							<circle class="st1" cx="46.91" cy="16.708" r="1.189"/>
						</g>
					</g>
					<g>
						<g>
							<circle class="st1" cx="37.401" cy="16.708" r="1.189"/>
						</g>
					</g>
					<g>
						<g>
							<circle class="st1" cx="27.893" cy="16.708" r="1.189"/>
						</g>
					</g>
					<g>
						<g>
							<circle class="st1" cx="18.384" cy="16.708" r="1.189"/>
						</g>
					</g>
					<g>
						<g>
							<circle class="st1" cx="8.876" cy="16.708" r="1.189"/>
						</g>
					</g>
				</g>
				<g>
					<g>
						<g>
							<circle class="st1" cx="103.96" cy="7.199" r="1.189"/>
						</g>
					</g>
					<g>
						<g>
							<circle class="st1" cx="94.452" cy="7.199" r="1.189"/>
						</g>
					</g>
					<g>
						<g>
							<circle class="st1" cx="84.943" cy="7.199" r="1.189"/>
						</g>
					</g>
					<g>
						<g>
							<circle class="st1" cx="75.435" cy="7.199" r="1.189"/>
						</g>
					</g>
					<g>
						<g>
							<circle class="st1" cx="65.926" cy="7.199" r="1.189"/>
						</g>
					</g>
					<g>
						<g>
							<circle class="st1" cx="56.418" cy="7.199" r="1.189"/>
						</g>
					</g>
					<g>
						<g>
							<circle class="st1" cx="46.91" cy="7.199" r="1.189"/>
						</g>
					</g>
					<g>
						<g>
							<circle class="st1" cx="37.401" cy="7.199" r="1.189"/>
						</g>
					</g>
					<g>
						<g>
							<circle class="st1" cx="27.893" cy="7.199" r="1.189"/>
						</g>
					</g>
					<g>
						<g>
							<circle class="st1" cx="18.384" cy="7.199" r="1.189"/>
						</g>
					</g>
					<g>
						<g>
							<circle class="st1" cx="8.876" cy="7.199" r="1.189"/>
						</g>
					</g>
				</g>
			</g>
			<g class="st0">
				<g>
					<g>
						<g>
							<circle class="st1" cx="161.354" cy="92.775" r="1.189"/>
						</g>
					</g>
					<g>
						<g>
							<circle class="st1" cx="151.846" cy="92.775" r="1.189"/>
						</g>
					</g>
					<g>
						<g>
							<circle class="st1" cx="142.337" cy="92.775" r="1.189"/>
						</g>
					</g>
					<g>
						<g>
							<circle class="st1" cx="132.829" cy="92.775" r="1.189"/>
						</g>
					</g>
					<g>
						<g>
							<circle class="st1" cx="123.32" cy="92.775" r="1.189"/>
						</g>
					</g>
					<g>
						<g>
							<circle class="st1" cx="113.812" cy="92.775" r="1.189"/>
						</g>
					</g>
				</g>
				<g>
					<g>
						<g>
							<circle class="st1" cx="161.354" cy="83.266" r="1.189"/>
						</g>
					</g>
					<g>
						<g>
							<circle class="st1" cx="151.846" cy="83.266" r="1.189"/>
						</g>
					</g>
					<g>
						<g>
							<circle class="st1" cx="142.337" cy="83.266" r="1.189"/>
						</g>
					</g>
					<g>
						<g>
							<circle class="st1" cx="132.829" cy="83.266" r="1.189"/>
						</g>
					</g>
					<g>
						<g>
							<circle class="st1" cx="123.32" cy="83.266" r="1.189"/>
						</g>
					</g>
					<g>
						<g>
							<circle class="st1" cx="113.812" cy="83.266" r="1.189"/>
						</g>
					</g>
				</g>
				<g>
					<g>
						<g>
							<circle class="st1" cx="161.354" cy="73.758" r="1.189"/>
						</g>
					</g>
					<g>
						<g>
							<circle class="st1" cx="151.846" cy="73.758" r="1.189"/>
						</g>
					</g>
					<g>
						<g>
							<circle class="st1" cx="142.337" cy="73.758" r="1.189"/>
						</g>
					</g>
					<g>
						<g>
							<circle class="st1" cx="132.829" cy="73.758" r="1.189"/>
						</g>
					</g>
					<g>
						<g>
							<circle class="st1" cx="123.32" cy="73.758" r="1.189"/>
						</g>
					</g>
					<g>
						<g>
							<circle class="st1" cx="113.812" cy="73.758" r="1.189"/>
						</g>
					</g>
				</g>
				<g>
					<g>
						<g>
							<circle class="st1" cx="161.354" cy="64.25" r="1.189"/>
						</g>
					</g>
					<g>
						<g>
							<circle class="st1" cx="151.846" cy="64.25" r="1.189"/>
						</g>
					</g>
					<g>
						<g>
							<circle class="st1" cx="142.337" cy="64.25" r="1.189"/>
						</g>
					</g>
					<g>
						<g>
							<circle class="st1" cx="132.829" cy="64.25" r="1.189"/>
						</g>
					</g>
					<g>
						<g>
							<circle class="st1" cx="123.32" cy="64.25" r="1.189"/>
						</g>
					</g>
					<g>
						<g>
							<circle class="st1" cx="113.812" cy="64.25" r="1.189"/>
						</g>
					</g>
				</g>
				<g>
					<g>
						<g>
							<circle class="st1" cx="161.354" cy="54.741" r="1.189"/>
						</g>
					</g>
					<g>
						<g>
							<circle class="st1" cx="151.846" cy="54.741" r="1.189"/>
						</g>
					</g>
					<g>
						<g>
							<circle class="st1" cx="142.337" cy="54.741" r="1.189"/>
						</g>
					</g>
					<g>
						<g>
							<circle class="st1" cx="132.829" cy="54.741" r="1.189"/>
						</g>
					</g>
					<g>
						<g>
							<circle class="st1" cx="123.32" cy="54.741" r="1.189"/>
						</g>
					</g>
					<g>
						<g>
							<circle class="st1" cx="113.812" cy="54.741" r="1.189"/>
						</g>
					</g>
				</g>
				<g>
					<g>
						<g>
							<circle class="st1" cx="161.354" cy="45.233" r="1.189"/>
						</g>
					</g>
					<g>
						<g>
							<circle class="st1" cx="151.846" cy="45.233" r="1.189"/>
						</g>
					</g>
					<g>
						<g>
							<circle class="st1" cx="142.337" cy="45.233" r="1.189"/>
						</g>
					</g>
					<g>
						<g>
							<circle class="st1" cx="132.829" cy="45.233" r="1.189"/>
						</g>
					</g>
					<g>
						<g>
							<circle class="st1" cx="123.32" cy="45.233" r="1.189"/>
						</g>
					</g>
					<g>
						<g>
							<circle class="st1" cx="113.812" cy="45.233" r="1.189"/>
						</g>
					</g>
				</g>
				<g>
					<g>
						<g>
							<circle class="st1" cx="161.354" cy="35.724" r="1.189"/>
						</g>
					</g>
					<g>
						<g>
							<circle class="st1" cx="151.846" cy="35.724" r="1.189"/>
						</g>
					</g>
					<g>
						<g>
							<circle class="st1" cx="142.337" cy="35.724" r="1.189"/>
						</g>
					</g>
					<g>
						<g>
							<circle class="st1" cx="132.829" cy="35.724" r="1.189"/>
						</g>
					</g>
					<g>
						<g>
							<circle class="st1" cx="123.32" cy="35.724" r="1.189"/>
						</g>
					</g>
					<g>
						<g>
							<circle class="st1" cx="113.812" cy="35.724" r="1.189"/>
						</g>
					</g>
				</g>
				<g>
					<g>
						<g>
							<circle class="st1" cx="161.354" cy="26.216" r="1.189"/>
						</g>
					</g>
					<g>
						<g>
							<circle class="st1" cx="151.846" cy="26.216" r="1.189"/>
						</g>
					</g>
					<g>
						<g>
							<circle class="st1" cx="142.337" cy="26.216" r="1.189"/>
						</g>
					</g>
					<g>
						<g>
							<circle class="st1" cx="132.829" cy="26.216" r="1.189"/>
						</g>
					</g>
					<g>
						<g>
							<circle class="st1" cx="123.32" cy="26.216" r="1.189"/>
						</g>
					</g>
					<g>
						<g>
							<circle class="st1" cx="113.812" cy="26.216" r="1.189"/>
						</g>
					</g>
				</g>
				<g>
					<g>
						<g>
							<circle class="st1" cx="161.354" cy="16.708" r="1.189"/>
						</g>
					</g>
					<g>
						<g>
							<circle class="st1" cx="151.846" cy="16.708" r="1.189"/>
						</g>
					</g>
					<g>
						<g>
							<circle class="st1" cx="142.337" cy="16.708" r="1.189"/>
						</g>
					</g>
					<g>
						<g>
							<circle class="st1" cx="132.829" cy="16.708" r="1.189"/>
						</g>
					</g>
					<g>
						<g>
							<circle class="st1" cx="123.32" cy="16.708" r="1.189"/>
						</g>
					</g>
					<g>
						<g>
							<circle class="st1" cx="113.812" cy="16.708" r="1.189"/>
						</g>
					</g>
				</g>
				<g>
					<g>
						<g>
							<circle class="st1" cx="161.354" cy="7.199" r="1.189"/>
						</g>
					</g>
					<g>
						<g>
							<circle class="st1" cx="151.846" cy="7.199" r="1.189"/>
						</g>
					</g>
					<g>
						<g>
							<circle class="st1" cx="142.337" cy="7.199" r="1.189"/>
						</g>
					</g>
					<g>
						<g>
							<circle class="st1" cx="132.829" cy="7.199" r="1.189"/>
						</g>
					</g>
					<g>
						<g>
							<circle class="st1" cx="123.32" cy="7.199" r="1.189"/>
						</g>
					</g>
					<g>
						<g>
							<circle class="st1" cx="113.812" cy="7.199" r="1.189"/>
						</g>
					</g>
				</g>
			</g>
		</g>
		<g>
			<path class="st2" d="M46.91,73.397v4.705c0,2.878,2.333,5.211,5.211,5.211h23.595h53.84c2.954,0,5.348-2.395,5.348-5.348v0
				c0-2.954-2.395-5.348-5.348-5.348l-16.48,0.103c-4.731,0.029-8.625-3.716-8.779-8.445L103.96,53.93L47.19,66.704L46.91,73.397z"
				/>
		</g>
		<g>
			<path class="st2" d="M78.155,16.416H24.972c-2.626,0-4.754,2.129-4.754,4.754v0c0,2.626,2.129,4.754,4.754,4.754h31.446l0,9.508
				v9.508H39.234H24.972c-2.626,0-4.754,2.129-4.754,4.754v0c0,2.626,2.129,4.754,4.754,4.754h18.876
				c2.703,0,72.345,9.429,74.73,9.429l30.346,0.08c2.626,0,4.754-2.129,4.754-4.754v0c0-2.626-2.129-4.754-4.754-4.754h-9.508
				c-2.626,0-4.754-2.129-4.754-4.754v0c0-2.626,2.129-4.754,4.754-4.754h9.508c2.626,0,4.754-2.129,4.754-4.754v0
				c0-2.626-2.129-4.754-4.754-4.754l-60.558,0.292l-0.883-10.716C87.084,20.153,83.027,16.416,78.155,16.416z"/>
		</g>
		<g>
			<g>
				<polygon class="st3" points="76.343,42.577 62.264,50.515 48.186,42.577 48.186,26.699 62.264,18.761 76.343,26.699 				"/>
			</g>
			<g>
				<g>
					<polygon class="st4" points="74.846,43.994 74.355,43.123 75.843,42.285 75.843,40.577 76.843,40.577 76.843,42.869 					"/>
				</g>
				<g>
					
						<rect x="67.276" y="46.046" transform="matrix(0.8711 -0.4912 0.4912 0.8711 -13.9263 40.043)" class="st4" width="4.054" height="1"/>
				</g>
				<g>
					<polygon class="st4" points="62.264,51.089 60.276,49.969 60.768,49.098 62.264,49.941 63.761,49.098 64.252,49.969 					"/>
				</g>
				<g>
					
						<rect x="54.725" y="44.519" transform="matrix(0.4911 -0.8711 0.8711 0.4911 -12.4429 71.7918)" class="st4" width="1" height="4.054"/>
				</g>
				<g>
					<polygon class="st4" points="49.682,43.994 47.686,42.869 47.686,40.577 48.686,40.577 48.686,42.285 50.173,43.123 					"/>
				</g>
				<g>
					<rect x="47.686" y="32.659" class="st4" width="1" height="3.959"/>
				</g>
				<g>
					<polygon class="st4" points="48.686,28.7 47.686,28.7 47.686,26.408 49.682,25.282 50.173,26.153 48.686,26.992 					"/>
				</g>
				<g>
					
						<rect x="53.198" y="22.23" transform="matrix(0.8711 -0.4912 0.4912 0.8711 -4.0437 30.0569)" class="st4" width="4.054" height="1"/>
				</g>
				<g>
					<polygon class="st4" points="63.761,20.179 62.264,19.335 60.768,20.179 60.276,19.307 62.264,18.186 64.252,19.307 					"/>
				</g>
				<g>
					
						<rect x="68.803" y="20.703" transform="matrix(0.4912 -0.8711 0.8711 0.4912 15.4641 71.9328)" class="st4" width="1" height="4.054"/>
				</g>
				<g>
					<polygon class="st4" points="76.843,28.7 75.843,28.7 75.843,26.992 74.355,26.153 74.846,25.282 76.843,26.408 					"/>
				</g>
				<g>
					<rect x="75.843" y="32.659" class="st4" width="1" height="3.959"/>
				</g>
			</g>
		</g>
		<g>
			<polygon class="st5" points="62.231,66.423 48.153,74.371 34.074,66.423 34.074,50.525 48.153,42.577 62.231,50.525 			"/>
			<path class="st4" d="M48.153,74.946l-14.579-8.231V50.233l14.579-8.231l14.578,8.231v16.481L48.153,74.946z M34.574,66.13
				l13.579,7.667l13.578-7.667V50.817l-13.578-7.667l-13.579,7.667V66.13z"/>
		</g>
		<g>
			<polygon class="st5" points="90.421,66.412 76.343,74.351 62.264,66.412 62.264,50.535 76.343,42.597 90.421,50.535 			"/>
			<path class="st4" d="M76.343,74.925l-14.579-8.221V50.244l14.579-8.221l14.578,8.221v16.461L76.343,74.925z M62.764,66.12
				l13.579,7.656l13.578-7.656V50.827l-13.578-7.657l-13.579,7.657V66.12z"/>
		</g>
		<g>
			<polygon class="st5" points="104.5,42.577 90.421,50.515 76.343,42.577 76.343,26.699 90.421,18.761 104.5,26.699 			"/>
			<path class="st4" d="M90.421,51.089l-14.578-8.221V26.408l14.578-8.221L105,26.408v16.461L90.421,51.089z M76.843,42.285
				l13.578,7.656L104,42.285V26.992l-13.579-7.657l-13.578,7.657V42.285z"/>
		</g>
		<g>
			<polygon class="st6" points="118.578,66.412 104.5,74.351 90.421,66.412 90.421,50.535 104.5,42.597 118.578,50.535 			"/>
			<path class="st4" d="M104.5,74.925l-14.579-8.221V50.244l14.579-8.221l14.578,8.221v16.461L104.5,74.925z M90.921,66.12
				l13.579,7.656l13.578-7.656V50.827L104.5,43.171l-13.579,7.657V66.12z"/>
		</g>
		<g>
			<polygon class="st5" points="132.657,42.577 118.578,50.515 104.5,42.577 104.5,26.699 118.578,18.761 132.657,26.699 			"/>
			<path class="st4" d="M118.578,51.089L104,42.869V26.408l14.578-8.221l14.579,8.221v16.461L118.578,51.089z M105,42.285
				l13.578,7.656l13.579-7.656V26.992l-13.579-7.657L105,26.992V42.285z"/>
		</g>
		<g>
			<path class="st2" d="M82.669,59.578l0.045-2.226l-1.624-0.371l-0.194-0.801l0.626-1.291l-1.714-1.514l-1.177,0.92l-0.775-0.653
				l-0.343-1.351l-2.235-0.104l-0.224,1.455l-1.148,0.653l-1.118-1.054l-1.639,1.484l0.685,1.395l-0.223,0.935l-1.58,0.49
				l0.119,2.137l1.281,0.238l0.492,0.905l-0.715,1.321l1.714,1.484l1.162-0.772l0.76,0.46l0.492,1.455l2.146-0.089l0.149-1.366
				l1.088-0.326l1.341,0.698l1.49-1.573l-0.745-1.113l0.522-1.083L82.669,59.578z M76.35,60.216c-0.969,0-1.758-0.787-1.758-1.737
				c0-0.965,0.79-1.751,1.758-1.751c0.954,0,1.743,0.787,1.743,1.751C78.093,59.43,77.304,60.216,76.35,60.216z"/>
		</g>
		<g>
			<path class="st4" d="M77.167,65.128h-1.647c-0.341,0-0.631-0.254-0.676-0.591l-0.129-1.003l-0.74-0.303
				c-0.01-0.006-0.02-0.011-0.03-0.016l-0.804,0.618c-0.27,0.209-0.656,0.185-0.896-0.058l-1.165-1.161
				c-0.243-0.24-0.268-0.625-0.058-0.896l0.619-0.799l-0.253-0.575c-0.02-0.055-0.039-0.107-0.056-0.162l-0.009-0.028l-1.007-0.13
				c-0.339-0.043-0.594-0.333-0.594-0.674v-1.641c0-0.34,0.255-0.63,0.593-0.675l1.007-0.129c0.03-0.089,0.048-0.141,0.067-0.192
				l0.028-0.073l0.224-0.499l-0.62-0.8c-0.209-0.271-0.184-0.655,0.058-0.896l1.165-1.16c0.24-0.241,0.626-0.266,0.896-0.058
				l0.804,0.617l0.577-0.251c0.053-0.02,0.107-0.038,0.162-0.057l0.031-0.01l0.129-1.002c0.045-0.338,0.335-0.592,0.676-0.592h1.646
				c0.341,0,0.632,0.255,0.676,0.592l0.129,1.002l0.523,0.2l-0.039,0.257l0.102-0.229c0.049,0.022,0.1,0.047,0.15,0.072l0.033,0.018
				l0.805-0.618c0.27-0.209,0.656-0.185,0.897,0.058l1.166,1.16c0.242,0.242,0.267,0.627,0.057,0.896l-0.619,0.8
				c0.043,0.083,0.066,0.132,0.089,0.181l0.23,0.584l1.006,0.129c0.339,0.043,0.594,0.333,0.594,0.674v1.642
				c0,0.341-0.255,0.631-0.594,0.674l-1.006,0.129l-0.229,0.582c-0.025,0.054-0.051,0.106-0.078,0.159l-0.013,0.024l0.62,0.8
				c0.209,0.271,0.184,0.655-0.058,0.896l-1.165,1.16c-0.242,0.241-0.627,0.266-0.897,0.058l-0.803-0.618l-0.472,0.212l-0.164-0.205
				l0.091,0.232l-0.227,0.078l-0.13,1.003C77.798,64.873,77.507,65.128,77.167,65.128z M74.666,62.989l0.502,0.158l0.171,1.325
				c0.012,0.089,0.089,0.156,0.18,0.156h1.647c0.091,0,0.168-0.067,0.179-0.156l0.172-1.327L77.99,63l0.178,0.199l-0.089-0.233
				l0.094-0.037l0.197,0.188l-0.102-0.229l0.188,0.19l-0.105-0.227l0.44-0.229l1.061,0.815c0.071,0.056,0.175,0.048,0.24-0.016
				l1.165-1.16c0.063-0.063,0.07-0.165,0.015-0.235l-0.818-1.056l0.146-0.27c0.04-0.079,0.063-0.126,0.084-0.172l0.186-0.466
				l0.264,0.002l-0.237-0.078l0.076-0.252l0.172-0.057l1.166-0.149c0.09-0.012,0.158-0.088,0.158-0.178V57.71
				c0-0.09-0.068-0.166-0.158-0.178l-1.329-0.17l-0.084-0.285l0.216-0.143l-0.237,0.08l-0.423-0.92l0.819-1.059
				c0.055-0.071,0.049-0.173-0.015-0.236l-1.165-1.16c-0.065-0.063-0.168-0.07-0.24-0.015l-1.061,0.814l-0.265-0.144
				c-0.084-0.041-0.128-0.063-0.171-0.082l0.038-0.258l-0.102,0.229l0.041-0.255l-0.1,0.229l0.038-0.255l-0.146,0.211l-0.605-0.195
				l-0.172-1.328c-0.011-0.089-0.089-0.156-0.18-0.156h-1.646c-0.091,0-0.168,0.067-0.18,0.157l-0.171,1.326l-0.264,0.074
				l-0.144-0.216l0.077,0.238c-0.048,0.015-0.095,0.031-0.142,0.049l-0.162-0.206l0.089,0.233l-0.387,0.169l-0.189-0.186
				l0.112,0.224l-0.263,0.142l-1.061-0.814c-0.071-0.056-0.175-0.047-0.239,0.015l-1.165,1.16c-0.063,0.063-0.07,0.165-0.015,0.236
				l0.818,1.057l-0.351,0.729l-0.261-0.019l0.234,0.088c-0.018,0.048-0.034,0.095-0.051,0.148l-0.1,0.323l-1.326,0.17
				c-0.091,0.012-0.158,0.087-0.158,0.179v1.641c0,0.09,0.068,0.166,0.158,0.178l1.328,0.171l0.15,0.474l-0.199,0.178l0.234-0.089
				l0.338,0.7L72.134,61.1l-0.718,0.927c-0.055,0.07-0.049,0.172,0.015,0.234l1.166,1.162c0.065,0.062,0.167,0.07,0.239,0.015
				l1.061-0.815l0.441,0.229l-0.027,0.262l0.101-0.229l0.106,0.046l-0.004,0.267l0.092-0.232l-0.023,0.259L74.666,62.989z
				 M76.343,60.848c-1.282,0-2.325-1.04-2.325-2.317s1.043-2.316,2.325-2.316c1.282,0,2.325,1.039,2.325,2.316
				S77.625,60.848,76.343,60.848z M76.343,56.714c-1.006,0-1.825,0.814-1.825,1.816s0.818,1.817,1.825,1.817
				s1.825-0.815,1.825-1.817S77.349,56.714,76.343,56.714z"/>
		</g>
		<g>
			<rect x="83.302" y="28.957" class="st2" width="15.258" height="9.451"/>
		</g>
		<g>
			<path class="st4" d="M98.81,38.64H82.779v-9.365c0-0.303,0.246-0.549,0.549-0.549h14.933c0.303,0,0.549,0.246,0.549,0.549V38.64z
				 M83.279,38.14H98.31v-8.865c0-0.027-0.021-0.049-0.049-0.049H83.328c-0.027,0-0.049,0.022-0.049,0.049V38.14z"/>
		</g>
		<g>
			<path class="st5" d="M99.061,40.89H82.263c-0.685,0-1.241-0.556-1.241-1.241v-0.986c0-0.151,0.123-0.274,0.274-0.274h18.918
				c0.1,0,0.181,0.081,0.181,0.181v0.986C100.395,40.293,99.798,40.89,99.061,40.89z"/>
			<path class="st4" d="M99.062,41.14H82.263c-0.822,0-1.491-0.669-1.491-1.491v-0.986c0-0.289,0.235-0.523,0.524-0.523h18.918
				c0.237,0,0.431,0.193,0.431,0.431v0.986C100.645,40.43,99.935,41.14,99.062,41.14z M81.296,38.64l-0.024,1.01
				c0,0.546,0.444,0.991,0.991,0.991h16.799c0.598,0,1.083-0.486,1.083-1.083V38.64H81.296z"/>
		</g>
		<g>
			<path class="st4" d="M91.512,39.89h-1.606c-0.138,0-0.25-0.112-0.25-0.25s0.112-0.25,0.25-0.25h1.606
				c0.138,0,0.25,0.112,0.25,0.25S91.649,39.89,91.512,39.89z"/>
		</g>
		<g>
			<g>
				<ellipse class="st2" cx="48.153" cy="58.841" rx="6.535" ry="6.508"/>
				<path class="st4" d="M48.153,65.599c-3.741,0-6.785-3.031-6.785-6.758s3.043-6.759,6.785-6.759c3.741,0,6.784,3.032,6.784,6.759
					S51.894,65.599,48.153,65.599z M48.153,52.582c-3.465,0-6.285,2.808-6.285,6.259c0,3.45,2.819,6.258,6.285,6.258
					s6.284-2.808,6.284-6.258C54.437,55.39,51.618,52.582,48.153,52.582z"/>
			</g>
			<g>
				<path class="st4" d="M51.489,59.4h-2.979c-0.335,0-0.608-0.272-0.608-0.606v-4.096c0-0.138,0.112-0.25,0.25-0.25
					s0.25,0.112,0.25,0.25v4.096c0,0.059,0.048,0.106,0.108,0.106h2.979c0.138,0,0.25,0.112,0.25,0.25S51.627,59.4,51.489,59.4z"/>
			</g>
		</g>
		<g>
			<path class="st2" d="M122.415,39.49h-7.762c-0.39,0-0.706-0.316-0.706-0.706v-7.726c0-0.39,0.316-0.706,0.706-0.706h7.762
				c0.39,0,0.706,0.316,0.706,0.706v7.726C123.121,39.174,122.805,39.49,122.415,39.49z"/>
			<path class="st4" d="M122.415,39.74h-7.763c-0.527,0-0.956-0.429-0.956-0.956v-7.726c0-0.527,0.429-0.956,0.956-0.956h7.763
				c0.527,0,0.956,0.429,0.956,0.956v7.726C123.371,39.311,122.942,39.74,122.415,39.74z M114.652,30.602
				c-0.252,0-0.456,0.205-0.456,0.456v7.726c0,0.251,0.204,0.456,0.456,0.456h7.763c0.252,0,0.456-0.205,0.456-0.456v-7.726
				c0-0.251-0.204-0.456-0.456-0.456H114.652z"/>
		</g>
		<g>
			<path class="st4" d="M118.021,36.438c-0.117,0-0.233-0.044-0.322-0.133l-1.557-1.549c-0.098-0.098-0.098-0.256,0-0.354
				s0.256-0.099,0.354-0.001l1.524,1.519l2.552-2.541c0.099-0.098,0.257-0.098,0.354,0.001c0.098,0.098,0.098,0.256,0,0.354
				l-2.583,2.572C118.253,36.394,118.137,36.438,118.021,36.438z"/>
		</g>
	</g>
</g>
</svg>
