<?xml version="1.0" encoding="utf-8"?>
<!-- Generator: Adobe Illustrator 21.1.0, SVG Export Plug-In . SVG Version: 6.00 Build 0)  -->
<svg version="1.1" xmlns="http://www.w3.org/2000/svg" xmlns:xlink="http://www.w3.org/1999/xlink" x="0px" y="0px"
	 viewBox="0 0 171 100" style="enable-background:new 0 0 171 100;" xml:space="preserve">
<style type="text/css">
	.st0{opacity:0.31;}
	.st1{fill:#C4DFE5;}
	.st2{fill:#D7EFF2;}
	.st3{fill:#FFFFFF;}
	.st4{fill:#E4CDB6;}
	.st5{fill:#6B768E;}
	.st6{fill:#FDEAE4;}
</style>
<g id="Layer_1">
</g>
<g id="Layer_4">
	<g>
		<g>
			<g class="st0">
				<g>
					<g>
						<g>
							<circle class="st1" cx="104.8" cy="92.5" r="1.2"/>
						</g>
					</g>
					<g>
						<g>
							<circle class="st1" cx="95.2" cy="92.5" r="1.2"/>
						</g>
					</g>
					<g>
						<g>
							<circle class="st1" cx="85.7" cy="92.5" r="1.2"/>
						</g>
					</g>
					<g>
						<g>
							<circle class="st1" cx="76.2" cy="92.5" r="1.2"/>
						</g>
					</g>
					<g>
						<g>
							<circle class="st1" cx="66.7" cy="92.5" r="1.2"/>
						</g>
					</g>
					<g>
						<g>
							<circle class="st1" cx="57.2" cy="92.5" r="1.2"/>
						</g>
					</g>
					<g>
						<g>
							<circle class="st1" cx="47.7" cy="92.5" r="1.2"/>
						</g>
					</g>
					<g>
						<g>
							<circle class="st1" cx="38.2" cy="92.5" r="1.2"/>
						</g>
					</g>
					<g>
						<g>
							<circle class="st1" cx="28.7" cy="92.5" r="1.2"/>
						</g>
					</g>
					<g>
						<g>
							<circle class="st1" cx="19.2" cy="92.5" r="1.2"/>
						</g>
					</g>
					<g>
						<g>
							<circle class="st1" cx="9.7" cy="92.5" r="1.2"/>
						</g>
					</g>
				</g>
				<g>
					<g>
						<g>
							<circle class="st1" cx="104.8" cy="83" r="1.2"/>
						</g>
					</g>
					<g>
						<g>
							<circle class="st1" cx="95.2" cy="83" r="1.2"/>
						</g>
					</g>
					<g>
						<g>
							<circle class="st1" cx="85.7" cy="83" r="1.2"/>
						</g>
					</g>
					<g>
						<g>
							<circle class="st1" cx="76.2" cy="83" r="1.2"/>
						</g>
					</g>
					<g>
						<g>
							<circle class="st1" cx="66.7" cy="83" r="1.2"/>
						</g>
					</g>
					<g>
						<g>
							<circle class="st1" cx="57.2" cy="83" r="1.2"/>
						</g>
					</g>
					<g>
						<g>
							<circle class="st1" cx="47.7" cy="83" r="1.2"/>
						</g>
					</g>
					<g>
						<g>
							<circle class="st1" cx="38.2" cy="83" r="1.2"/>
						</g>
					</g>
					<g>
						<g>
							<circle class="st1" cx="28.7" cy="83" r="1.2"/>
						</g>
					</g>
					<g>
						<g>
							<circle class="st1" cx="19.2" cy="83" r="1.2"/>
						</g>
					</g>
					<g>
						<g>
							<circle class="st1" cx="9.7" cy="83" r="1.2"/>
						</g>
					</g>
				</g>
				<g>
					<g>
						<g>
							<circle class="st1" cx="104.8" cy="73.4" r="1.2"/>
						</g>
					</g>
					<g>
						<g>
							<circle class="st1" cx="95.2" cy="73.4" r="1.2"/>
						</g>
					</g>
					<g>
						<g>
							<circle class="st1" cx="85.7" cy="73.4" r="1.2"/>
						</g>
					</g>
					<g>
						<g>
							<circle class="st1" cx="76.2" cy="73.4" r="1.2"/>
						</g>
					</g>
					<g>
						<g>
							<circle class="st1" cx="66.7" cy="73.4" r="1.2"/>
						</g>
					</g>
					<g>
						<g>
							<circle class="st1" cx="57.2" cy="73.4" r="1.2"/>
						</g>
					</g>
					<g>
						<g>
							<circle class="st1" cx="47.7" cy="73.4" r="1.2"/>
						</g>
					</g>
					<g>
						<g>
							<circle class="st1" cx="38.2" cy="73.4" r="1.2"/>
						</g>
					</g>
					<g>
						<g>
							<circle class="st1" cx="28.7" cy="73.4" r="1.2"/>
						</g>
					</g>
					<g>
						<g>
							<circle class="st1" cx="19.2" cy="73.4" r="1.2"/>
						</g>
					</g>
					<g>
						<g>
							<circle class="st1" cx="9.7" cy="73.4" r="1.2"/>
						</g>
					</g>
				</g>
				<g>
					<g>
						<g>
							<circle class="st1" cx="104.8" cy="63.9" r="1.2"/>
						</g>
					</g>
					<g>
						<g>
							<circle class="st1" cx="95.2" cy="63.9" r="1.2"/>
						</g>
					</g>
					<g>
						<g>
							<circle class="st1" cx="85.7" cy="63.9" r="1.2"/>
						</g>
					</g>
					<g>
						<g>
							<circle class="st1" cx="76.2" cy="63.9" r="1.2"/>
						</g>
					</g>
					<g>
						<g>
							<circle class="st1" cx="66.7" cy="63.9" r="1.2"/>
						</g>
					</g>
					<g>
						<g>
							<circle class="st1" cx="57.2" cy="63.9" r="1.2"/>
						</g>
					</g>
					<g>
						<g>
							<circle class="st1" cx="47.7" cy="63.9" r="1.2"/>
						</g>
					</g>
					<g>
						<g>
							<circle class="st1" cx="38.2" cy="63.9" r="1.2"/>
						</g>
					</g>
					<g>
						<g>
							<circle class="st1" cx="28.7" cy="63.9" r="1.2"/>
						</g>
					</g>
					<g>
						<g>
							<circle class="st1" cx="19.2" cy="63.9" r="1.2"/>
						</g>
					</g>
					<g>
						<g>
							<circle class="st1" cx="9.7" cy="63.9" r="1.2"/>
						</g>
					</g>
				</g>
				<g>
					<g>
						<g>
							<circle class="st1" cx="104.8" cy="54.4" r="1.2"/>
						</g>
					</g>
					<g>
						<g>
							<circle class="st1" cx="95.2" cy="54.4" r="1.2"/>
						</g>
					</g>
					<g>
						<g>
							<circle class="st1" cx="85.7" cy="54.4" r="1.2"/>
						</g>
					</g>
					<g>
						<g>
							<circle class="st1" cx="76.2" cy="54.4" r="1.2"/>
						</g>
					</g>
					<g>
						<g>
							<circle class="st1" cx="66.7" cy="54.4" r="1.2"/>
						</g>
					</g>
					<g>
						<g>
							<circle class="st1" cx="57.2" cy="54.4" r="1.2"/>
						</g>
					</g>
					<g>
						<g>
							<circle class="st1" cx="47.7" cy="54.4" r="1.2"/>
						</g>
					</g>
					<g>
						<g>
							<circle class="st1" cx="38.2" cy="54.4" r="1.2"/>
						</g>
					</g>
					<g>
						<g>
							<circle class="st1" cx="28.7" cy="54.4" r="1.2"/>
						</g>
					</g>
					<g>
						<g>
							<circle class="st1" cx="19.2" cy="54.4" r="1.2"/>
						</g>
					</g>
					<g>
						<g>
							<circle class="st1" cx="9.7" cy="54.4" r="1.2"/>
						</g>
					</g>
				</g>
				<g>
					<g>
						<g>
							<circle class="st1" cx="104.8" cy="44.9" r="1.2"/>
						</g>
					</g>
					<g>
						<g>
							<circle class="st1" cx="95.2" cy="44.9" r="1.2"/>
						</g>
					</g>
					<g>
						<g>
							<circle class="st1" cx="85.7" cy="44.9" r="1.2"/>
						</g>
					</g>
					<g>
						<g>
							<circle class="st1" cx="76.2" cy="44.9" r="1.2"/>
						</g>
					</g>
					<g>
						<g>
							<circle class="st1" cx="66.7" cy="44.9" r="1.2"/>
						</g>
					</g>
					<g>
						<g>
							<circle class="st1" cx="57.2" cy="44.9" r="1.2"/>
						</g>
					</g>
					<g>
						<g>
							<circle class="st1" cx="47.7" cy="44.9" r="1.2"/>
						</g>
					</g>
					<g>
						<g>
							<circle class="st1" cx="38.2" cy="44.9" r="1.2"/>
						</g>
					</g>
					<g>
						<g>
							<circle class="st1" cx="28.7" cy="44.9" r="1.2"/>
						</g>
					</g>
					<g>
						<g>
							<circle class="st1" cx="19.2" cy="44.9" r="1.2"/>
						</g>
					</g>
					<g>
						<g>
							<circle class="st1" cx="9.7" cy="44.9" r="1.2"/>
						</g>
					</g>
				</g>
				<g>
					<g>
						<g>
							<circle class="st1" cx="104.8" cy="35.4" r="1.2"/>
						</g>
					</g>
					<g>
						<g>
							<circle class="st1" cx="95.2" cy="35.4" r="1.2"/>
						</g>
					</g>
					<g>
						<g>
							<circle class="st1" cx="85.7" cy="35.4" r="1.2"/>
						</g>
					</g>
					<g>
						<g>
							<circle class="st1" cx="76.2" cy="35.4" r="1.2"/>
						</g>
					</g>
					<g>
						<g>
							<circle class="st1" cx="66.7" cy="35.4" r="1.2"/>
						</g>
					</g>
					<g>
						<g>
							<circle class="st1" cx="57.2" cy="35.4" r="1.2"/>
						</g>
					</g>
					<g>
						<g>
							<circle class="st1" cx="47.7" cy="35.4" r="1.2"/>
						</g>
					</g>
					<g>
						<g>
							<circle class="st1" cx="38.2" cy="35.4" r="1.2"/>
						</g>
					</g>
					<g>
						<g>
							<circle class="st1" cx="28.7" cy="35.4" r="1.2"/>
						</g>
					</g>
					<g>
						<g>
							<circle class="st1" cx="19.2" cy="35.4" r="1.2"/>
						</g>
					</g>
					<g>
						<g>
							<circle class="st1" cx="9.7" cy="35.4" r="1.2"/>
						</g>
					</g>
				</g>
				<g>
					<g>
						<g>
							<circle class="st1" cx="104.8" cy="25.9" r="1.2"/>
						</g>
					</g>
					<g>
						<g>
							<circle class="st1" cx="95.2" cy="25.9" r="1.2"/>
						</g>
					</g>
					<g>
						<g>
							<circle class="st1" cx="85.7" cy="25.9" r="1.2"/>
						</g>
					</g>
					<g>
						<g>
							<circle class="st1" cx="76.2" cy="25.9" r="1.2"/>
						</g>
					</g>
					<g>
						<g>
							<circle class="st1" cx="66.7" cy="25.9" r="1.2"/>
						</g>
					</g>
					<g>
						<g>
							<circle class="st1" cx="57.2" cy="25.9" r="1.2"/>
						</g>
					</g>
					<g>
						<g>
							<circle class="st1" cx="47.7" cy="25.9" r="1.2"/>
						</g>
					</g>
					<g>
						<g>
							<circle class="st1" cx="38.2" cy="25.9" r="1.2"/>
						</g>
					</g>
					<g>
						<g>
							<circle class="st1" cx="28.7" cy="25.9" r="1.2"/>
						</g>
					</g>
					<g>
						<g>
							<circle class="st1" cx="19.2" cy="25.9" r="1.2"/>
						</g>
					</g>
					<g>
						<g>
							<circle class="st1" cx="9.7" cy="25.9" r="1.2"/>
						</g>
					</g>
				</g>
				<g>
					<g>
						<g>
							<circle class="st1" cx="104.8" cy="16.4" r="1.2"/>
						</g>
					</g>
					<g>
						<g>
							<circle class="st1" cx="95.2" cy="16.4" r="1.2"/>
						</g>
					</g>
					<g>
						<g>
							<circle class="st1" cx="85.7" cy="16.4" r="1.2"/>
						</g>
					</g>
					<g>
						<g>
							<circle class="st1" cx="76.2" cy="16.4" r="1.2"/>
						</g>
					</g>
					<g>
						<g>
							<circle class="st1" cx="66.7" cy="16.4" r="1.2"/>
						</g>
					</g>
					<g>
						<g>
							<circle class="st1" cx="57.2" cy="16.4" r="1.2"/>
						</g>
					</g>
					<g>
						<g>
							<circle class="st1" cx="47.7" cy="16.4" r="1.2"/>
						</g>
					</g>
					<g>
						<g>
							<circle class="st1" cx="38.2" cy="16.4" r="1.2"/>
						</g>
					</g>
					<g>
						<g>
							<circle class="st1" cx="28.7" cy="16.4" r="1.2"/>
						</g>
					</g>
					<g>
						<g>
							<circle class="st1" cx="19.2" cy="16.4" r="1.2"/>
						</g>
					</g>
					<g>
						<g>
							<circle class="st1" cx="9.7" cy="16.4" r="1.2"/>
						</g>
					</g>
				</g>
				<g>
					<g>
						<g>
							<circle class="st1" cx="104.8" cy="6.9" r="1.2"/>
						</g>
					</g>
					<g>
						<g>
							<circle class="st1" cx="95.2" cy="6.9" r="1.2"/>
						</g>
					</g>
					<g>
						<g>
							<circle class="st1" cx="85.7" cy="6.9" r="1.2"/>
						</g>
					</g>
					<g>
						<g>
							<circle class="st1" cx="76.2" cy="6.9" r="1.2"/>
						</g>
					</g>
					<g>
						<g>
							<circle class="st1" cx="66.7" cy="6.9" r="1.2"/>
						</g>
					</g>
					<g>
						<g>
							<circle class="st1" cx="57.2" cy="6.9" r="1.2"/>
						</g>
					</g>
					<g>
						<g>
							<circle class="st1" cx="47.7" cy="6.9" r="1.2"/>
						</g>
					</g>
					<g>
						<g>
							<circle class="st1" cx="38.2" cy="6.9" r="1.2"/>
						</g>
					</g>
					<g>
						<g>
							<circle class="st1" cx="28.7" cy="6.9" r="1.2"/>
						</g>
					</g>
					<g>
						<g>
							<circle class="st1" cx="19.2" cy="6.9" r="1.2"/>
						</g>
					</g>
					<g>
						<g>
							<circle class="st1" cx="9.7" cy="6.9" r="1.2"/>
						</g>
					</g>
				</g>
			</g>
			<g class="st0">
				<g>
					<g>
						<g>
							<circle class="st1" cx="162.2" cy="92.5" r="1.2"/>
						</g>
					</g>
					<g>
						<g>
							<circle class="st1" cx="152.6" cy="92.5" r="1.2"/>
						</g>
					</g>
					<g>
						<g>
							<circle class="st1" cx="143.1" cy="92.5" r="1.2"/>
						</g>
					</g>
					<g>
						<g>
							<circle class="st1" cx="133.6" cy="92.5" r="1.2"/>
						</g>
					</g>
					<g>
						<g>
							<circle class="st1" cx="124.1" cy="92.5" r="1.2"/>
						</g>
					</g>
					<g>
						<g>
							<circle class="st1" cx="114.6" cy="92.5" r="1.2"/>
						</g>
					</g>
				</g>
				<g>
					<g>
						<g>
							<circle class="st1" cx="162.2" cy="83" r="1.2"/>
						</g>
					</g>
					<g>
						<g>
							<circle class="st1" cx="152.6" cy="83" r="1.2"/>
						</g>
					</g>
					<g>
						<g>
							<circle class="st1" cx="143.1" cy="83" r="1.2"/>
						</g>
					</g>
					<g>
						<g>
							<circle class="st1" cx="133.6" cy="83" r="1.2"/>
						</g>
					</g>
					<g>
						<g>
							<circle class="st1" cx="124.1" cy="83" r="1.2"/>
						</g>
					</g>
					<g>
						<g>
							<circle class="st1" cx="114.6" cy="83" r="1.2"/>
						</g>
					</g>
				</g>
				<g>
					<g>
						<g>
							<circle class="st1" cx="162.2" cy="73.4" r="1.2"/>
						</g>
					</g>
					<g>
						<g>
							<circle class="st1" cx="152.6" cy="73.4" r="1.2"/>
						</g>
					</g>
					<g>
						<g>
							<circle class="st1" cx="143.1" cy="73.4" r="1.2"/>
						</g>
					</g>
					<g>
						<g>
							<circle class="st1" cx="133.6" cy="73.4" r="1.2"/>
						</g>
					</g>
					<g>
						<g>
							<circle class="st1" cx="124.1" cy="73.4" r="1.2"/>
						</g>
					</g>
					<g>
						<g>
							<circle class="st1" cx="114.6" cy="73.4" r="1.2"/>
						</g>
					</g>
				</g>
				<g>
					<g>
						<g>
							<circle class="st1" cx="162.2" cy="63.9" r="1.2"/>
						</g>
					</g>
					<g>
						<g>
							<circle class="st1" cx="152.6" cy="63.9" r="1.2"/>
						</g>
					</g>
					<g>
						<g>
							<circle class="st1" cx="143.1" cy="63.9" r="1.2"/>
						</g>
					</g>
					<g>
						<g>
							<circle class="st1" cx="133.6" cy="63.9" r="1.2"/>
						</g>
					</g>
					<g>
						<g>
							<circle class="st1" cx="124.1" cy="63.9" r="1.2"/>
						</g>
					</g>
					<g>
						<g>
							<circle class="st1" cx="114.6" cy="63.9" r="1.2"/>
						</g>
					</g>
				</g>
				<g>
					<g>
						<g>
							<circle class="st1" cx="162.2" cy="54.4" r="1.2"/>
						</g>
					</g>
					<g>
						<g>
							<circle class="st1" cx="152.6" cy="54.4" r="1.2"/>
						</g>
					</g>
					<g>
						<g>
							<circle class="st1" cx="143.1" cy="54.4" r="1.2"/>
						</g>
					</g>
					<g>
						<g>
							<circle class="st1" cx="133.6" cy="54.4" r="1.2"/>
						</g>
					</g>
					<g>
						<g>
							<circle class="st1" cx="124.1" cy="54.4" r="1.2"/>
						</g>
					</g>
					<g>
						<g>
							<circle class="st1" cx="114.6" cy="54.4" r="1.2"/>
						</g>
					</g>
				</g>
				<g>
					<g>
						<g>
							<circle class="st1" cx="162.2" cy="44.9" r="1.2"/>
						</g>
					</g>
					<g>
						<g>
							<circle class="st1" cx="152.6" cy="44.9" r="1.2"/>
						</g>
					</g>
					<g>
						<g>
							<circle class="st1" cx="143.1" cy="44.9" r="1.2"/>
						</g>
					</g>
					<g>
						<g>
							<circle class="st1" cx="133.6" cy="44.9" r="1.2"/>
						</g>
					</g>
					<g>
						<g>
							<circle class="st1" cx="124.1" cy="44.9" r="1.2"/>
						</g>
					</g>
					<g>
						<g>
							<circle class="st1" cx="114.6" cy="44.9" r="1.2"/>
						</g>
					</g>
				</g>
				<g>
					<g>
						<g>
							<circle class="st1" cx="162.2" cy="35.4" r="1.2"/>
						</g>
					</g>
					<g>
						<g>
							<circle class="st1" cx="152.6" cy="35.4" r="1.2"/>
						</g>
					</g>
					<g>
						<g>
							<circle class="st1" cx="143.1" cy="35.4" r="1.2"/>
						</g>
					</g>
					<g>
						<g>
							<circle class="st1" cx="133.6" cy="35.4" r="1.2"/>
						</g>
					</g>
					<g>
						<g>
							<circle class="st1" cx="124.1" cy="35.4" r="1.2"/>
						</g>
					</g>
					<g>
						<g>
							<circle class="st1" cx="114.6" cy="35.4" r="1.2"/>
						</g>
					</g>
				</g>
				<g>
					<g>
						<g>
							<circle class="st1" cx="162.2" cy="25.9" r="1.2"/>
						</g>
					</g>
					<g>
						<g>
							<circle class="st1" cx="152.6" cy="25.9" r="1.2"/>
						</g>
					</g>
					<g>
						<g>
							<circle class="st1" cx="143.1" cy="25.9" r="1.2"/>
						</g>
					</g>
					<g>
						<g>
							<circle class="st1" cx="133.6" cy="25.9" r="1.2"/>
						</g>
					</g>
					<g>
						<g>
							<circle class="st1" cx="124.1" cy="25.9" r="1.2"/>
						</g>
					</g>
					<g>
						<g>
							<circle class="st1" cx="114.6" cy="25.9" r="1.2"/>
						</g>
					</g>
				</g>
				<g>
					<g>
						<g>
							<circle class="st1" cx="162.2" cy="16.4" r="1.2"/>
						</g>
					</g>
					<g>
						<g>
							<circle class="st1" cx="152.6" cy="16.4" r="1.2"/>
						</g>
					</g>
					<g>
						<g>
							<circle class="st1" cx="143.1" cy="16.4" r="1.2"/>
						</g>
					</g>
					<g>
						<g>
							<circle class="st1" cx="133.6" cy="16.4" r="1.2"/>
						</g>
					</g>
					<g>
						<g>
							<circle class="st1" cx="124.1" cy="16.4" r="1.2"/>
						</g>
					</g>
					<g>
						<g>
							<circle class="st1" cx="114.6" cy="16.4" r="1.2"/>
						</g>
					</g>
				</g>
				<g>
					<g>
						<g>
							<circle class="st1" cx="162.2" cy="6.9" r="1.2"/>
						</g>
					</g>
					<g>
						<g>
							<circle class="st1" cx="152.6" cy="6.9" r="1.2"/>
						</g>
					</g>
					<g>
						<g>
							<circle class="st1" cx="143.1" cy="6.9" r="1.2"/>
						</g>
					</g>
					<g>
						<g>
							<circle class="st1" cx="133.6" cy="6.9" r="1.2"/>
						</g>
					</g>
					<g>
						<g>
							<circle class="st1" cx="124.1" cy="6.9" r="1.2"/>
						</g>
					</g>
					<g>
						<g>
							<circle class="st1" cx="114.6" cy="6.9" r="1.2"/>
						</g>
					</g>
				</g>
			</g>
		</g>
		<g>
			<path class="st2" d="M24,33.8h24.9v28.8l-15.8-0.3c-2.4,0-4.3-1.9-4.3-4.2V57c0-2.3,1.9-4.2,4.3-4.2h0.5c1.3,0,2.5-0.5,3.4-1.4
				c0.9-0.9,1.4-2,1.4-3.4c0-2.6-2.2-4.8-4.8-4.8H24c-1.3,0-2.5-0.5-3.4-1.4s-1.4-2.1-1.4-3.4C19.2,35.9,21.4,33.8,24,33.8z"/>
		</g>
		<g>
			<path class="st2" d="M146.7,71.1c0,2.3-1.9,4.2-4.2,4.2h-11.2c-2.2,0-3.9,1.8-3.9,3.9v0.9c0,2.6-2.1,4.6-4.6,4.6H93.9
				c-1.3,0-2.5-0.5-3.4-1.4c-0.9-0.9-1.4-2.1-1.4-3.4c0-2.6,2.2-4.8,4.8-4.8h9.2c2.3,0,4.1-1.8,4.1-4.1l0-4.3v-0.6l35.4,0.5
				c1.1,0,2.2,0.5,2.9,1.2C146.2,68.9,146.7,70,146.7,71.1z"/>
		</g>
		<g>
			<path class="st2" d="M148,15.9H89c-4,0-7.3,2.8-7.3,6.4v0c0,2.3-2.1,4.1-4.7,4.1h-1.3c-3.3,0-6,2.3-6,5.2v0
				c0,2.8,2.6,5.1,5.8,5.1h60.5c3.3,0,6.1-2.4,6.1-5.3v0c0-2.8,2.6-5.1,5.8-5.1h0c3.3,0,5.9-2.3,5.9-5.2v0
				C153.9,18.2,151.3,15.9,148,15.9z"/>
		</g>
		<g>
			<rect x="48" y="32.9" class="st3" width="75.8" height="40.2"/>
		</g>
		<g>
			<rect x="48.2" y="26.3" class="st4" width="76" height="7.5"/>
		</g>
		<g>
			<path class="st5" d="M124.7,73.1h-77V25.8h77V73.1z M48.7,72.1h75V26.8h-75V72.1z"/>
		</g>
		<g>
			<rect x="48.4" y="33.7" class="st5" width="75.6" height="0.5"/>
		</g>
		<g>
			<rect x="75.7" y="40.2" class="st5" width="30" height="0.5"/>
		</g>
		<g>
			<rect x="75.2" y="48" class="st5" width="37.6" height="0.5"/>
		</g>
		<g>
			<rect x="75.6" y="55.5" class="st5" width="37.2" height="0.5"/>
		</g>
		<g>
			<rect x="75.5" y="63.2" class="st5" width="37.4" height="0.5"/>
		</g>
		<g>
			<g>
				<ellipse class="st5" cx="53.3" cy="30" rx="0.7" ry="0.8"/>
			</g>
			<g>
				<ellipse class="st5" cx="58" cy="30" rx="0.7" ry="0.8"/>
			</g>
			<g>
				<ellipse class="st5" cx="62.9" cy="30" rx="0.7" ry="0.8"/>
			</g>
		</g>
		<g>
			<rect x="55.3" y="40.9" class="st6" width="15.2" height="23"/>
		</g>
		<g>
			<polygon class="st5" points="70.8,64.1 55,64.1 55,55.2 55.5,55.2 55.5,63.6 70.3,63.6 70.3,41.1 59.5,41.1 59.5,40.6 70.8,40.6 
							"/>
		</g>
		<g>
			<g>
				<circle class="st2" cx="122.9" cy="63.1" r="14.9"/>
				<path class="st5" d="M122.9,78.5c-8.5,0-15.4-6.9-15.4-15.4s6.9-15.4,15.4-15.4s15.4,6.9,15.4,15.4S131.4,78.5,122.9,78.5z
					 M122.9,48.7c-7.9,0-14.4,6.5-14.4,14.4s6.5,14.4,14.4,14.4s14.4-6.5,14.4-14.4S130.9,48.7,122.9,48.7z"/>
			</g>
			<g>
				<ellipse class="st2" cx="123.1" cy="63.1" rx="8.3" ry="14.9"/>
				<path class="st5" d="M123.1,78.2c-4.7,0-8.6-6.8-8.6-15.1c0-8.3,3.8-15.1,8.6-15.1s8.6,6.8,8.6,15.1
					C131.7,71.4,127.8,78.2,123.1,78.2z M123.1,48.5c-4.5,0-8.1,6.6-8.1,14.6c0,8.1,3.6,14.6,8.1,14.6c4.5,0,8.1-6.6,8.1-14.6
					C131.2,55,127.6,48.5,123.1,48.5z"/>
			</g>
			<g>
				<rect x="122.9" y="48.2" class="st5" width="0.5" height="29.7"/>
			</g>
			<g>
				<rect x="108.3" y="60" class="st5" width="29.3" height="0.5"/>
			</g>
			<g>
				<rect x="108.3" y="66" class="st5" width="29.3" height="0.5"/>
			</g>
		</g>
		<g>
			<path class="st5" d="M66.7,56.5c-0.1,0-0.1,0-0.2-0.1l-7.7-7.9c-0.1-0.1-0.1-0.3,0-0.4c0.1-0.1,0.3-0.1,0.4,0l7.7,7.9
				c0.1,0.1,0.1,0.3,0,0.4C66.9,56.5,66.8,56.5,66.7,56.5z"/>
		</g>
		<g>
			<path class="st5" d="M59.1,56.5c-0.1,0-0.1,0-0.2-0.1c-0.1-0.1-0.1-0.3,0-0.4l7.7-7.9c0.1-0.1,0.3-0.1,0.4,0
				c0.1,0.1,0.1,0.3,0,0.4l-7.7,7.9C59.2,56.5,59.1,56.5,59.1,56.5z"/>
		</g>
	</g>
</g>
</svg>
