<?xml version="1.0" encoding="utf-8"?>
<!-- Generator: Adobe Illustrator 21.1.0, SVG Export Plug-In . SVG Version: 6.00 Build 0)  -->
<svg version="1.1" id="Layer_1" xmlns="http://www.w3.org/2000/svg" xmlns:xlink="http://www.w3.org/1999/xlink" x="0px" y="0px"
	 viewBox="0 0 556 114.167" style="enable-background:new 0 0 556 114.167;" xml:space="preserve">
<style type="text/css">
	.st0{fill:#333333;}
</style>
<g>
	<path class="st0" d="M261.467,110.736l-0.006-1.5c1.99-0.007,3.986-0.026,5.989-0.056l0.022,1.5
		C265.463,110.711,263.461,110.729,261.467,110.736z M255.462,110.726c-2.01-0.014-4.013-0.04-6.008-0.075l0.027-1.5
		c1.989,0.036,3.986,0.061,5.992,0.075L255.462,110.726z M273.476,110.559l-0.038-1.5c1.989-0.051,3.984-0.114,5.986-0.188
		l0.056,1.499C277.472,110.445,275.471,110.507,273.476,110.559z M243.448,110.51c-2.01-0.058-4.012-0.126-6.005-0.205l0.06-1.499
		c1.988,0.079,3.984,0.147,5.989,0.205L243.448,110.51z M285.48,110.115l-0.072-1.498c1.988-0.096,3.981-0.203,5.981-0.321
		l0.089,1.497C289.472,109.912,287.473,110.02,285.48,110.115z M231.44,110.036c-2.008-0.101-4.008-0.212-5.999-0.333l0.091-1.497
		c1.986,0.121,3.98,0.231,5.983,0.332L231.44,110.036z M297.47,109.403l-0.105-1.496c1.985-0.141,3.976-0.292,5.972-0.457
		l0.123,1.495C301.457,109.11,299.461,109.263,297.47,109.403z M219.446,109.307c-2.007-0.143-4.004-0.296-5.991-0.458l0.122-1.495
		c1.982,0.163,3.975,0.315,5.976,0.458L219.446,109.307z M309.442,108.42l-0.14-1.493c1.981-0.186,3.968-0.383,5.959-0.593
		l0.157,1.492C313.422,108.035,311.43,108.234,309.442,108.42z M207.469,108.327c-2.004-0.185-3.998-0.38-5.98-0.583l0.153-1.492
		c1.978,0.203,3.966,0.397,5.965,0.583L207.469,108.327z M321.389,107.163l-0.174-1.49c1.977-0.231,3.958-0.474,5.945-0.729
		l0.19,1.488C325.359,106.687,323.371,106.931,321.389,107.163z M195.515,107.098c-2.001-0.226-3.99-0.461-5.967-0.706l0.184-1.488
		c1.973,0.244,3.957,0.479,5.952,0.704L195.515,107.098z M183.587,105.625c-1.995-0.267-3.979-0.543-5.951-0.827l0.214-1.484
		c1.967,0.283,3.946,0.558,5.936,0.825L183.587,105.625z M333.341,105.598l-0.247-1.479c1.164-0.194,3.171-0.542,5.916-1.06
		l0.278,1.474C336.528,105.053,334.51,105.403,333.341,105.598z M171.694,103.912c-1.991-0.307-3.969-0.623-5.934-0.946l0.244-1.48
		c1.959,0.323,3.932,0.638,5.918,0.944L171.694,103.912z M345.204,103.37l-0.3-1.47c1.798-0.366,3.761-0.777,5.877-1.235
		l0.317,1.466C348.976,102.591,347.007,103.003,345.204,103.37z M159.836,101.959c-1.986-0.347-3.958-0.702-5.914-1.064l0.273-1.475
		c1.952,0.361,3.918,0.715,5.898,1.062L159.836,101.959z M356.976,100.822l-0.334-1.462c1.863-0.426,3.812-0.882,5.844-1.37
		l0.35,1.459C360.8,99.939,358.844,100.396,356.976,100.822z M148.02,99.773c-1.98-0.387-3.944-0.78-5.892-1.181l0.302-1.47
		c1.943,0.399,3.902,0.792,5.877,1.178L148.02,99.773z M368.68,98.015l-0.365-1.455c1.882-0.473,3.821-0.97,5.812-1.492l0.38,1.451
		C372.511,97.042,370.567,97.54,368.68,98.015z M136.248,97.353c-1.973-0.425-3.929-0.857-5.867-1.295l0.331-1.463
		c1.933,0.437,3.884,0.868,5.853,1.292L136.248,97.353z M380.318,94.964l-0.396-1.447c1.888-0.516,3.815-1.053,5.779-1.61
		l0.41,1.443C384.143,93.908,382.211,94.446,380.318,94.964z M124.526,94.706c-1.967-0.464-3.914-0.935-5.842-1.41l0.359-1.456
		c1.923,0.474,3.865,0.943,5.827,1.406L124.526,94.706z M112.857,91.83c-1.96-0.503-3.898-1.012-5.813-1.523l0.388-1.449
		c1.911,0.511,3.844,1.017,5.799,1.52L112.857,91.83z M391.888,91.674l-0.425-1.438c1.886-0.558,3.802-1.134,5.744-1.729
		l0.439,1.434C395.7,90.537,393.779,91.115,391.888,91.674z M101.246,88.727c-1.953-0.542-3.88-1.088-5.783-1.636l0.415-1.441
		c1.898,0.547,3.821,1.091,5.769,1.632L101.246,88.727z M403.387,88.147l-0.455-1.43c1.881-0.599,3.783-1.215,5.706-1.85l0.47,1.425
		C407.18,86.928,405.272,87.547,403.387,88.147z M89.696,85.4c-1.945-0.582-3.862-1.165-5.75-1.749l0.443-1.433
		c1.883,0.583,3.795,1.165,5.736,1.744L89.696,85.4z M414.806,84.378l-0.485-1.419c1.873-0.641,3.761-1.298,5.663-1.972l0.501,1.414
		C418.578,83.077,416.684,83.736,414.806,84.378z M78.214,81.847c-1.939-0.622-3.844-1.242-5.715-1.862l0.472-1.424
		c1.866,0.618,3.767,1.238,5.701,1.857L78.214,81.847z M426.141,80.36l-0.517-1.408c1.861-0.683,3.734-1.383,5.616-2.099
		l0.533,1.402C429.886,78.973,428.008,79.675,426.141,80.36z M66.802,78.066c-1.933-0.662-3.825-1.321-5.676-1.977l0.5-1.414
		c1.847,0.653,3.735,1.312,5.663,1.972L66.802,78.066z M437.382,76.085l-0.55-1.396c1.847-0.728,3.703-1.471,5.564-2.23l0.566,1.389
		C441.096,74.61,439.235,75.356,437.382,76.085z M55.469,74.054c-1.929-0.705-3.808-1.403-5.636-2.094l0.53-1.403
		c1.823,0.688,3.697,1.385,5.621,2.088L55.469,74.054z M448.517,71.542l-0.584-1.382c1.831-0.773,3.667-1.563,5.506-2.368
		l0.602,1.374C452.196,69.974,450.354,70.766,448.517,71.542z M44.22,69.806c-1.93-0.753-3.794-1.493-5.59-2.217l0.561-1.392
		c1.792,0.722,3.65,1.46,5.575,2.211L44.22,69.806z M459.534,66.719l-0.619-1.366c1.812-0.822,3.626-1.659,5.44-2.512l0.639,1.357
		C463.173,65.054,461.352,65.894,459.534,66.719z M33.064,65.308c-1.943-0.81-3.79-1.594-5.539-2.349l0.595-1.377
		c1.743,0.752,3.584,1.534,5.521,2.341L33.064,65.308z M470.417,61.602l-0.657-1.349c1.79-0.873,3.58-1.76,5.367-2.664l0.677,1.339
		C474.01,59.835,472.214,60.726,470.417,61.602z M22.015,60.539c-2.002-0.895-3.831-1.732-5.479-2.5l0.633-1.359
		c1.642,0.765,3.463,1.598,5.458,2.49L22.015,60.539z M481.151,56.174l-0.697-1.328c1.765-0.926,3.526-1.868,5.283-2.825
		l0.718,1.317C484.691,54.299,482.923,55.244,481.151,56.174z M11.095,55.447c-3.507-1.712-5.387-2.722-5.406-2.731l0.71-1.321
		c0.019,0.01,1.877,1.007,5.354,2.705L11.095,55.447z M491.698,50.427l-0.739-1.306c1.731-0.98,3.458-1.975,5.176-2.986l0.761,1.293
		C495.169,48.443,493.436,49.443,491.698,50.427z M502.045,44.338l-0.783-1.279c1.699-1.04,3.391-2.096,5.074-3.169l0.806,1.265
		C505.452,42.232,503.752,43.293,502.045,44.338z M512.182,37.876l-0.83-1.25c1.662-1.104,3.313-2.224,4.955-3.361l0.854,1.233
		C515.513,35.64,513.852,36.766,512.182,37.876z M522.074,31.018l-0.88-1.215c1.618-1.171,3.224-2.359,4.815-3.564l0.905,1.196
		C525.314,28.647,523.7,29.841,522.074,31.018z M531.676,23.748l-0.932-1.176c1.567-1.243,3.131-2.511,4.648-3.771l0.958,1.153
		C534.825,21.222,533.252,22.498,531.676,23.748z"/>
</g>
<g>
	<path class="st0" d="M545.377,18.111c-3.945,0-7.155-3.21-7.155-7.156s3.21-7.156,7.155-7.156c3.946,0,7.156,3.21,7.156,7.156
		S549.324,18.111,545.377,18.111z M545.377,5.299c-3.118,0-5.655,2.537-5.655,5.656s2.537,5.656,5.655,5.656
		c3.119,0,5.656-2.538,5.656-5.656S548.496,5.299,545.377,5.299z"/>
</g>
</svg>
