<?xml version="1.0" encoding="utf-8"?>
<!-- Generator: Adobe Illustrator 21.1.0, SVG Export Plug-In . SVG Version: 6.00 Build 0)  -->
<svg version="1.1" id="Layer_4" xmlns="http://www.w3.org/2000/svg" xmlns:xlink="http://www.w3.org/1999/xlink" x="0px" y="0px"
	 viewBox="0 0 109 116" style="enable-background:new 0 0 109 116;" xml:space="preserve">
<style type="text/css">
	.st0{fill:#E4CDB5;}
	.st1{fill:#1E1E1E;}
	.st2{fill:#FFFFFF;}
	.st3{fill:none;stroke:#1E1E1E;stroke-width:0.5;stroke-miterlimit:10;}
</style>
<g>
	<g>
		<path class="st0" d="M65.976,78.139l0.126,13.206c0.038,4.006,1.389,7.923,3.98,10.978c0.134,0.158,0.27,0.313,0.41,0.467l0,0
			c2.974,3.271,7.047,5.335,11.444,5.798l8.429,0.887c3.493,0.184,6.074-0.685,7.93-1.829c2.693-1.66,3.048-5.442,0.749-7.616v0
			c-1.559-1.474-2.07-3.745-1.295-5.746v0c1.169-3.014,1.769-6.22,1.769-9.453v-0.673c0-3.637-0.759-7.234-2.228-10.561
			l-2.039-4.617c-0.793-1.795-1.366-3.679-1.709-5.611l-0.967-5.455c-0.507-2.859-0.5-5.785,0.019-8.641v0
			c0.118-0.649,0.124-1.313,0.018-1.964l-1.817-11.142c-0.284-1.742-0.965-3.395-1.991-4.831l-0.314-0.44
			c-1.392-1.949-2.141-4.285-2.141-6.68v0c0-2.703-0.953-5.32-2.691-7.391l-0.639-0.761C76.071,7.788,66.003,3.008,55.196,3.008l0,0
			h-1.741c-10.807,0-21.06,4.779-28.009,13.056l-0.639,0.761c-1.738,2.07-2.691,4.687-2.691,7.391v0c0,2.396-0.748,4.731-2.141,6.68
			l-0.314,0.44c-1.026,1.436-1.707,3.089-1.991,4.831L15.853,47.31c-0.106,0.651-0.1,1.315,0.018,1.964l0,0
			c0.519,2.856,0.526,5.783,0.019,8.641l-0.967,5.455c-0.342,1.932-0.916,3.816-1.709,5.611l-2.039,4.617
			c-1.469,3.327-2.228,6.924-2.228,10.561v0.673c0,3.233,0.6,6.438,1.769,9.453l0,0c0.776,2,0.264,4.271-1.295,5.746l0,0
			c-2.298,2.174-1.944,5.956,0.749,7.616c1.856,1.144,4.437,2.013,7.93,1.829l8.429-0.887c4.397-0.463,8.47-2.526,11.444-5.798l0,0
			c0.139-0.153,0.276-0.309,0.41-0.467c2.591-3.055,3.942-6.972,3.98-10.978l0.126-13.206"/>
	</g>
	<g>
		<path class="st1" d="M91.291,109.75c-0.309,0-0.622-0.008-0.939-0.025l-8.442-0.889c-4.463-0.469-8.583-2.557-11.602-5.878
			c-0.142-0.155-0.28-0.313-0.416-0.473c-2.565-3.025-4-6.98-4.04-11.137l-0.125-13.207l0.5-0.005l0.125,13.207
			c0.039,4.041,1.431,7.883,3.92,10.819c0.132,0.155,0.267,0.309,0.405,0.46c2.936,3.23,6.943,5.261,11.285,5.717l8.429,0.888
			c2.959,0.156,5.588-0.447,7.772-1.793c1.205-0.743,1.98-1.981,2.126-3.399c0.148-1.438-0.369-2.831-1.417-3.823
			c-1.64-1.551-2.172-3.914-1.356-6.018c1.162-2.998,1.751-6.147,1.751-9.362v-0.673c0-3.625-0.743-7.145-2.207-10.46l-2.039-4.617
			c-0.8-1.812-1.381-3.719-1.726-5.668l-0.967-5.456c-0.514-2.897-0.507-5.834,0.019-8.729c0.113-0.622,0.119-1.254,0.018-1.879
			l-1.817-11.143c-0.276-1.693-0.95-3.328-1.948-4.726l-0.314-0.44c-1.431-2.003-2.188-4.363-2.188-6.826
			c0-2.64-0.935-5.208-2.633-7.23l-0.639-0.761c-6.919-8.24-16.99-12.966-27.632-12.966h-1.741
			c-10.759,0-20.898,4.726-27.817,12.966l-0.639,0.761c-1.698,2.023-2.633,4.59-2.633,7.23c0,2.462-0.756,4.823-2.188,6.826
			l-0.314,0.439c-0.998,1.397-1.671,3.032-1.948,4.726L16.1,47.35c-0.102,0.625-0.096,1.257,0.018,1.879
			c0.526,2.895,0.533,5.832,0.019,8.729l-0.966,5.456c-0.346,1.952-0.927,3.859-1.727,5.668l-2.039,4.617
			c-1.464,3.316-2.207,6.835-2.207,10.46v0.673c0,3.215,0.589,6.365,1.751,9.362c0.816,2.104,0.284,4.466-1.355,6.018
			c-1.049,0.992-1.565,2.385-1.417,3.823c0.146,1.417,0.921,2.656,2.126,3.399c2.184,1.346,4.802,1.945,7.786,1.792l8.416-0.887
			c4.341-0.457,8.349-2.487,11.285-5.717c0.138-0.151,0.272-0.305,0.405-0.46c2.49-2.936,3.882-6.778,3.92-10.819l0.126-13.207
			l0.5,0.005l-0.126,13.207c-0.04,4.157-1.474,8.112-4.039,11.137c-0.136,0.16-0.274,0.318-0.416,0.474
			c-3.019,3.321-7.139,5.408-11.602,5.877l-8.429,0.888c-3.099,0.166-5.815-0.464-8.088-1.865c-1.338-0.825-2.199-2.201-2.361-3.773
			c-0.164-1.593,0.409-3.138,1.571-4.237c1.492-1.411,1.976-3.56,1.233-5.474c-1.185-3.055-1.786-6.266-1.786-9.543v-0.673
			c0-3.695,0.757-7.283,2.25-10.663l2.039-4.617c0.783-1.772,1.352-3.641,1.691-5.553l0.966-5.456
			c0.503-2.839,0.497-5.717-0.019-8.553c-0.124-0.678-0.13-1.368-0.019-2.049l1.817-11.143c0.289-1.77,0.992-3.477,2.034-4.937
			l0.314-0.439c1.371-1.918,2.095-4.178,2.095-6.536c0-2.757,0.977-5.439,2.75-7.551l0.639-0.761
			c7.014-8.354,17.293-13.145,28.2-13.145h1.741c10.79,0,21,4.791,28.015,13.145l0.639,0.761c1.773,2.112,2.75,4.793,2.75,7.551
			c0,2.357,0.724,4.617,2.095,6.535l0.314,0.44c1.042,1.46,1.746,3.167,2.034,4.936l1.817,11.143
			c0.111,0.681,0.105,1.371-0.019,2.049c-0.516,2.836-0.522,5.713-0.019,8.553l0.967,5.456c0.338,1.91,0.907,3.778,1.691,5.553
			l2.039,4.617c1.493,3.38,2.25,6.967,2.25,10.663v0.673c0,3.277-0.601,6.488-1.786,9.543c-0.742,1.914-0.258,4.062,1.234,5.474
			c1.162,1.1,1.735,2.644,1.571,4.237c-0.162,1.573-1.022,2.948-2.361,3.773C96.387,109.116,93.99,109.75,91.291,109.75z"/>
	</g>
</g>
<g>
	<g>
		<path class="st0" d="M29.289,22.171c-3.426,6.102-1.713,12.097-1.713,12.097l5.266,23.549c0.268,1.2,0.799,2.327,1.555,3.298l0,0
			c0.726,0.933,1.245,2.01,1.522,3.16l0.482,1.997c0.583,2.414,1.559,4.717,2.888,6.815l1.838,2.902
			c1.114,1.759,2.638,3.221,4.448,4.251c3.968,2.259,11.176,4.897,18.11-0.135c1.334-0.968,2.445-2.21,3.327-3.602l2.164-3.416
			c1.329-2.098,2.305-4.401,2.888-6.815l0.482-1.997c0.278-1.149,0.797-2.226,1.522-3.16l0,0c0.755-0.971,1.286-2.097,1.555-3.298
			l5.266-23.549c0,0,1.713-5.995-1.713-12.097"/>
	</g>
	<g>
		<path class="st1" d="M55.052,83.223c-3.917,0-7.379-1.501-9.6-2.765c-1.831-1.042-3.399-2.542-4.536-4.335l-1.838-2.902
			c-1.347-2.125-2.329-4.443-2.92-6.89l-0.482-1.997c-0.271-1.122-0.768-2.153-1.477-3.064c-0.773-0.993-1.327-2.168-1.602-3.396
			l-5.266-23.549c-0.014-0.047-1.698-6.152,1.739-12.274l0.436,0.245c-3.336,5.942-1.707,11.847-1.69,11.906l5.27,23.563
			c0.259,1.157,0.78,2.264,1.508,3.199c0.752,0.967,1.28,2.062,1.568,3.254l0.482,1.997c0.578,2.393,1.539,4.661,2.856,6.74
			l1.838,2.902c1.092,1.725,2.6,3.166,4.36,4.168c3.699,2.106,10.935,4.889,17.839-0.12c1.257-0.912,2.354-2.101,3.262-3.534
			l2.164-3.416c1.317-2.08,2.278-4.347,2.856-6.74l0.482-1.997c0.288-1.192,0.816-2.287,1.568-3.254
			c0.728-0.936,1.249-2.042,1.508-3.199l5.266-23.549c0.021-0.073,1.645-5.986-1.687-11.92l0.436-0.245
			c3.438,6.122,1.753,12.228,1.735,12.289l-5.262,23.535c-0.275,1.229-0.829,2.403-1.602,3.396
			c-0.708,0.911-1.206,1.942-1.477,3.064l-0.482,1.997c-0.591,2.446-1.573,4.764-2.919,6.89l-2.164,3.416
			c-0.942,1.487-2.083,2.722-3.391,3.671C60.865,82.461,57.843,83.223,55.052,83.223z"/>
	</g>
</g>
<g>
	<g>
		<path class="st2" d="M46.852,63.715l2.11-0.849l5.013-5.243h0.515l4.907,4.935c0,0,2.282,1.423,3.364,1.354l-3.549,2.822
			l-9.394,1.258L46.852,63.715z"/>
	</g>
</g>
<g>
	<g>
		<path class="st3" d="M53.269,75.592"/>
	</g>
</g>
<g>
	<g>
		<path class="st2" d="M53.269,38.765h3.862c1.223,0,2.391,0.51,3.223,1.407l0.699,0.754c0.753,0.813,1.172,1.88,1.172,2.988v0
			c0,1.03-0.362,2.028-1.023,2.819l-3.366,4.027c-0.153,0.183-0.316,0.356-0.488,0.518c-0.818,0.77-1.91,1.182-3.033,1.202l0,0
			c-1.313,0.024-2.592-0.496-3.472-1.471c-0.074-0.082-0.147-0.166-0.217-0.25l-3.366-4.027c-0.661-0.791-1.023-1.788-1.023-2.819v0
			c0-1.108,0.419-2.175,1.172-2.988l0.699-0.754c0.832-0.897,2-1.407,3.223-1.407h3.862"/>
	</g>
	<g>
		<path class="st1" d="M54.229,52.732c-1.379,0-2.675-0.563-3.569-1.554c-0.077-0.085-0.151-0.17-0.223-0.256l-3.366-4.028
			c-0.697-0.833-1.081-1.892-1.081-2.979c0-1.175,0.44-2.296,1.239-3.158l0.699-0.754c0.876-0.945,2.118-1.487,3.407-1.487h5.798
			c1.289,0,2.53,0.542,3.406,1.487l0.7,0.754c0.799,0.862,1.239,1.983,1.239,3.158c0,1.087-0.384,2.145-1.081,2.979l-3.366,4.027
			c-0.159,0.19-0.331,0.372-0.509,0.54c-0.847,0.797-1.983,1.248-3.2,1.271C54.29,52.731,54.259,52.732,54.229,52.732z
			 M51.334,39.015c-1.15,0-2.258,0.484-3.04,1.327l-0.699,0.754c-0.713,0.769-1.105,1.77-1.105,2.818
			c0,0.97,0.342,1.915,0.964,2.659l3.366,4.027c0.068,0.082,0.139,0.162,0.211,0.243c0.817,0.905,2.009,1.407,3.281,1.388
			c1.092-0.02,2.11-0.423,2.866-1.135c0.164-0.154,0.322-0.321,0.468-0.496l3.366-4.027c0.622-0.745,0.965-1.689,0.965-2.659
			c0-1.048-0.393-2.049-1.105-2.818l-0.7-0.754c-0.782-0.843-1.89-1.327-3.04-1.327H51.334z"/>
	</g>
</g>
<g>
	<g>
		<path class="st1" d="M59.836,22.171h-0.5v-0.644c0-2.284,1.037-4.399,2.844-5.804c1.749-1.358,3.966-1.828,6.081-1.29
			c0.67,0.17,1.355,0.429,2.036,0.77l-0.224,0.447c-0.649-0.324-1.3-0.571-1.935-0.732c-1.965-0.5-4.025-0.062-5.65,1.201
			c-1.685,1.309-2.651,3.281-2.651,5.409V22.171z"/>
	</g>
</g>
<g>
	<g>
		<path class="st1" d="M69.132,28.943c-0.862,0-2.085-0.119-3.48-0.604c-1.281-0.446-2.141-1.658-2.141-3.016
			c0-0.643,0.188-1.259,0.542-1.782c0.678-0.996,1.812-2.223,3.368-2.416c1.156-0.141,2.343,0.319,3.529,1.374
			c0.322,0.287,0.585,0.663,0.762,1.088l0.461,1.115c0.407,0.983,0.28,2.087-0.338,2.954c-0.549,0.768-1.437,1.248-2.373,1.282
			C69.359,28.94,69.249,28.943,69.132,28.943z M67.83,21.6c-0.116,0-0.232,0.007-0.348,0.021c-1.37,0.169-2.396,1.291-3.016,2.201
			c-0.298,0.439-0.456,0.958-0.456,1.5c0,1.146,0.726,2.167,1.805,2.543c1.512,0.527,2.808,0.603,3.628,0.571
			c0.783-0.028,1.525-0.429,1.984-1.073c0.518-0.725,0.624-1.648,0.283-2.471l-0.461-1.115c-0.147-0.356-0.366-0.669-0.632-0.906
			C69.667,22.027,68.731,21.6,67.83,21.6z"/>
	</g>
</g>
<g>
	<g>
		<path class="st1" d="M57.008,76.913H53.27v-0.5h3.738c4.228,0,7.908-2.693,9.157-6.702c0.666-2.135,1.003-4.505,1.003-7.043h0.5
			c0,2.589-0.345,5.009-1.026,7.192C65.327,74.078,61.456,76.913,57.008,76.913z"/>
	</g>
</g>
<g>
	<g>
		<circle class="st2" cx="67.392" cy="25.021" r="3.321"/>
	</g>
	<g>
		<path class="st1" d="M67.392,28.593c-1.969,0-3.571-1.602-3.571-3.571s1.602-3.571,3.571-3.571s3.571,1.602,3.571,3.571
			S69.361,28.593,67.392,28.593z M67.392,21.95c-1.693,0-3.071,1.378-3.071,3.071s1.378,3.071,3.071,3.071s3.071-1.378,3.071-3.071
			S69.085,21.95,67.392,21.95z"/>
	</g>
</g>
<g>
	<g>
		<path class="st1" d="M59.588,48.737l-2.389-1.513c-0.84-0.532-1.44-1.395-1.646-2.368c-0.084-0.4,0.015-0.812,0.272-1.13
			s0.64-0.5,1.049-0.5c0.745,0,1.351,0.606,1.351,1.351v0.728c0,0.259,0.115,0.501,0.316,0.666l1.96,1.598l-0.316,0.388l-1.96-1.598
			c-0.317-0.26-0.5-0.644-0.5-1.053v-0.728c0-0.469-0.382-0.851-0.851-0.851c-0.258,0-0.499,0.115-0.661,0.315
			c-0.163,0.2-0.225,0.46-0.172,0.712c0.178,0.842,0.697,1.589,1.424,2.049l2.389,1.513L59.588,48.737z"/>
	</g>
</g>
<g>
	<g>
		<path class="st1" d="M88.703,49.495l-0.425-0.263c1.542-2.493,2.039-4.852,1.477-7.011c-0.843-3.244-3.819-4.934-3.849-4.951
			c-1.603-0.868-2.625-2.033-3.035-3.459c-0.67-2.331,0.533-4.499,0.584-4.59l2.672-5.122l0.443,0.231l-2.676,5.129
			c-0.016,0.028-1.155,2.091-0.542,4.217c0.373,1.291,1.313,2.353,2.794,3.155c0.132,0.074,3.195,1.814,4.092,5.263
			C90.836,44.392,90.32,46.882,88.703,49.495z"/>
	</g>
</g>
<g>
	<g>
		<path class="st1" d="M92.041,53.078l-2.258-2.137c-3.436-3.25-6.138-7.306-7.813-11.729l-1.321-4.878l0.482-0.131l1.313,4.855
			c1.642,4.33,4.3,8.322,7.682,11.52l2.258,2.137L92.041,53.078z"/>
	</g>
</g>
<g>
	<g>
		<path class="st1" d="M98.018,99.144l-4.643-3.526c-2.886-2.192-3.877-6.17-2.356-9.46c1.281-2.77,1.297-5.955,0.046-8.738
			c-0.712-1.585-1.043-3.34-0.956-5.076l0.217-4.305c0.174-3.469-0.745-6.835-2.658-9.734l-2.004-3.038
			c-0.158-0.239-0.314-0.481-0.466-0.724c-3.109-4.958-4.823-10.803-4.955-16.904l-0.031-1.45l0.5-0.011l0.031,1.45
			c0.13,6.01,1.816,11.768,4.878,16.649c0.15,0.239,0.303,0.478,0.459,0.714l2.004,3.038c1.973,2.989,2.92,6.459,2.74,10.035
			l-0.217,4.305c-0.083,1.657,0.232,3.333,0.913,4.846c1.311,2.916,1.293,6.251-0.048,9.153c-1.424,3.078-0.497,6.8,2.205,8.852
			l4.643,3.526L98.018,99.144z"/>
	</g>
</g>
<g>
	<g>
		<path class="st1" d="M95.578,97.234l-1.258-3.931c-0.974-3.042-0.959-6.254,0.043-9.289c1.511-4.574,0.684-9.604-2.213-13.454
			l-1.774-2.358l0.399-0.301l1.774,2.358c2.996,3.981,3.851,9.181,2.288,13.912c-0.969,2.933-0.983,6.038-0.042,8.979l1.258,3.931
			L95.578,97.234z"/>
	</g>
</g>
<g>
	<g>
		<path class="st1" d="M97.501,94.32l-0.257-1.783c-0.577-3.999-0.576-8.053,0.004-12.05l0.673-4.646l0.495,0.071l-0.673,4.646
			c-0.573,3.95-0.574,7.956-0.004,11.907l0.257,1.783L97.501,94.32z"/>
	</g>
</g>
<g>
	<g>
		<path class="st1" d="M98.138,107.842l-3.537-2.834c-7.339-5.879-11.395-14.993-10.85-24.381l0.69-11.896
			c0.333-2.738-0.51-5.485-2.312-7.553c-0.972-1.116-1.676-2.401-2.093-3.821l-2.575-8.761l0.479-0.141l2.575,8.761
			c0.397,1.35,1.067,2.573,1.991,3.634c1.894,2.174,2.781,5.063,2.432,7.926L84.25,80.656c-0.535,9.226,3.451,18.184,10.664,23.961
			l3.537,2.834L98.138,107.842z"/>
	</g>
</g>
<g>
	<g>
		<path class="st1" d="M87.827,109.682l-0.696-0.655c-4.399-4.138-6.812-9.975-6.621-16.012c0.086-2.705-0.125-5.423-0.628-8.081
			l-1.164-6.152c-0.843-4.46-0.875-8.989-0.096-13.459l1.408-8.08l0.492,0.086l-1.408,8.08c-0.769,4.411-0.737,8.879,0.095,13.281
			l1.164,6.152c0.509,2.693,0.724,5.449,0.637,8.189c-0.187,5.894,2.168,11.592,6.463,15.632l0.696,0.655L87.827,109.682z"/>
	</g>
</g>
<g>
	<g>
		<path class="st1" d="M74.771,106.448l-3.156-12.555c-0.541-2.153-0.319-4.445,0.623-6.455c1.709-3.644,2.322-7.676,1.772-11.663
			c-0.411-2.976-0.195-5.947,0.642-8.833l4.093-14.117l0.48,0.14l-4.093,14.117c-0.817,2.817-1.028,5.719-0.627,8.625
			c0.563,4.083-0.064,8.212-1.814,11.943c-0.894,1.906-1.104,4.08-0.591,6.121l3.156,12.555L74.771,106.448z"/>
	</g>
</g>
<g>
	<g>
		<path class="st3" d="M53.591,75.592"/>
	</g>
</g>
<g>
	<g>
		<path class="st1" d="M49.13,22.171h-0.5v-0.644c0-2.128-0.966-4.1-2.651-5.409c-1.625-1.264-3.686-1.701-5.651-1.201
			c-0.635,0.162-1.286,0.408-1.935,0.732l-0.224-0.447c0.681-0.34,1.366-0.599,2.036-0.77c2.117-0.539,4.333-0.068,6.081,1.291
			c1.807,1.405,2.844,3.52,2.844,5.804V22.171z"/>
	</g>
</g>
<g>
	<g>
		<path class="st1" d="M39.334,28.943c-0.117,0-0.228-0.002-0.331-0.006c-0.937-0.034-1.824-0.514-2.374-1.282
			c-0.618-0.866-0.745-1.97-0.338-2.954l0.461-1.115c0.176-0.426,0.439-0.802,0.762-1.088c1.186-1.055,2.376-1.515,3.529-1.374
			c1.556,0.193,2.69,1.42,3.368,2.416c0.355,0.523,0.543,1.139,0.543,1.782c0,1.358-0.86,2.57-2.141,3.016
			C41.419,28.824,40.196,28.943,39.334,28.943z M40.636,21.6c-0.901,0-1.837,0.427-2.789,1.272
			c-0.266,0.236-0.484,0.549-0.632,0.906l-0.461,1.115c-0.34,0.823-0.235,1.747,0.283,2.471c0.459,0.644,1.201,1.044,1.985,1.073
			c0.82,0.034,2.117-0.044,3.628-0.571c1.08-0.375,1.805-1.397,1.805-2.543c0-0.542-0.158-1.061-0.457-1.5
			c-0.619-0.91-1.646-2.031-3.015-2.201C40.868,21.607,40.752,21.6,40.636,21.6z"/>
	</g>
</g>
<g>
	<g>
		<path class="st2" d="M45.81,63.896c-0.005,0.071-0.01,0.142-0.014,0.213c-0.19,3.337,1.479,6.327,4.082,8.012
			c1.263,0.818,2.757,1.208,4.262,1.208h0.012c1.739,0,3.455-0.528,4.83-1.592c2.307-1.785,3.858-4.602,3.686-7.627
			c-0.004-0.071-0.009-0.142-0.014-0.213"/>
	</g>
	<g>
		<path class="st1" d="M54.153,73.579c-1.628,0-3.148-0.432-4.41-1.248c-2.774-1.796-4.382-4.952-4.196-8.236l0.014-0.216
			l0.499,0.034l-0.014,0.211c-0.176,3.104,1.344,6.087,3.968,7.786c1.181,0.764,2.607,1.168,4.126,1.168
			c1.745,0,3.406-0.547,4.689-1.541c2.406-1.861,3.748-4.633,3.59-7.415l-0.014-0.21l0.499-0.034l0.014,0.214
			c0.167,2.948-1.247,5.878-3.783,7.84C57.766,72.994,55.996,73.579,54.153,73.579z"/>
	</g>
</g>
<g>
	<g>
		<path class="st1" d="M55.196,76.913h-3.738c-4.448,0-8.319-2.834-9.635-7.054c-0.681-2.183-1.026-4.603-1.026-7.192h0.5
			c0,2.539,0.337,4.908,1.003,7.043c1.25,4.009,4.93,6.702,9.157,6.702h3.738V76.913z"/>
	</g>
</g>
<g>
	<g>
		<circle class="st2" cx="41.074" cy="25.021" r="3.321"/>
	</g>
	<g>
		<path class="st1" d="M41.074,28.593c-1.969,0-3.571-1.602-3.571-3.571s1.602-3.571,3.571-3.571s3.571,1.602,3.571,3.571
			S43.043,28.593,41.074,28.593z M41.074,21.95c-1.693,0-3.071,1.378-3.071,3.071s1.378,3.071,3.071,3.071s3.071-1.378,3.071-3.071
			S42.768,21.95,41.074,21.95z"/>
	</g>
</g>
<g>
	<g>
		<path class="st1" d="M48.877,48.737l-0.268-0.423l2.389-1.513c0.728-0.46,1.247-1.207,1.424-2.049
			c0.053-0.252-0.009-0.511-0.171-0.711c-0.162-0.201-0.403-0.315-0.661-0.315c-0.469,0-0.851,0.382-0.851,0.851v0.728
			c0,0.41-0.182,0.793-0.5,1.053l-1.959,1.599l-0.316-0.388l1.959-1.598c0.201-0.164,0.316-0.407,0.316-0.666v-0.728
			c0-0.745,0.606-1.351,1.351-1.351c0.409,0,0.792,0.183,1.05,0.5s0.357,0.729,0.272,1.13c-0.205,0.973-0.805,1.836-1.646,2.368
			L48.877,48.737z"/>
	</g>
</g>
<g>
	<g>
		<path class="st1" d="M19.763,49.495c-1.617-2.613-2.133-5.103-1.536-7.4c0.896-3.449,3.959-5.189,4.089-5.261
			c1.486-0.805,2.426-1.868,2.798-3.161c0.613-2.131-0.527-4.185-0.539-4.206l-2.68-5.136l0.443-0.231l2.676,5.129
			c0.047,0.084,1.25,2.252,0.58,4.583c-0.41,1.427-1.432,2.591-3.038,3.461c-0.027,0.015-3.008,1.714-3.848,4.954
			c-0.559,2.158-0.062,4.515,1.479,7.006L19.763,49.495z"/>
	</g>
</g>
<g>
	<g>
		<path class="st1" d="M16.425,53.078l-0.344-0.363l2.258-2.137c3.381-3.198,6.04-7.19,7.689-11.543l1.306-4.832l0.482,0.131
			l-1.313,4.855c-1.683,4.446-4.384,8.502-7.82,11.752L16.425,53.078z"/>
	</g>
</g>
<g>
	<g>
		<path class="st1" d="M10.448,99.144l-0.303-0.398l4.643-3.526c2.701-2.051,3.628-5.773,2.205-8.852
			c-1.341-2.901-1.359-6.237-0.049-9.153c0.68-1.513,0.996-3.189,0.913-4.846l-0.216-4.305c-0.18-3.577,0.768-7.047,2.74-10.035
			l2.004-3.038c0.156-0.236,0.309-0.475,0.459-0.714c3.062-4.881,4.749-10.639,4.878-16.649l0.031-1.45l0.5,0.011l-0.031,1.45
			c-0.132,6.101-1.845,11.946-4.955,16.904c-0.152,0.243-0.308,0.485-0.466,0.724l-2.004,3.038
			c-1.913,2.899-2.832,6.265-2.658,9.734l0.216,4.305c0.087,1.736-0.243,3.491-0.956,5.076c-1.251,2.783-1.234,5.968,0.047,8.738
			c1.521,3.29,0.53,7.268-2.356,9.46L10.448,99.144z"/>
	</g>
</g>
<g>
	<g>
		<path class="st1" d="M12.888,97.234l-0.477-0.152l1.258-3.931c0.942-2.941,0.927-6.046-0.042-8.979
			c-1.563-4.73-0.708-9.931,2.288-13.912l1.775-2.358l0.399,0.301l-1.775,2.358c-2.897,3.85-3.724,8.879-2.213,13.454
			c1.002,3.035,1.017,6.247,0.043,9.289L12.888,97.234z"/>
	</g>
</g>
<g>
	<g>
		<path class="st1" d="M10.964,94.32l-0.495-0.071l0.257-1.783c0.571-3.95,0.569-7.956-0.004-11.907l-0.673-4.646l0.495-0.071
			l0.673,4.646c0.58,3.998,0.581,8.052,0.004,12.05L10.964,94.32z"/>
	</g>
</g>
<g>
	<g>
		<path class="st1" d="M10.328,107.842l-0.312-0.391l3.537-2.834c7.212-5.777,11.199-14.735,10.664-23.961l-0.69-11.896
			c-0.347-2.847,0.54-5.736,2.434-7.91c0.924-1.061,1.594-2.284,1.991-3.634l2.575-8.761l0.479,0.141l-2.575,8.761
			c-0.417,1.42-1.122,2.706-2.093,3.821c-1.801,2.068-2.644,4.815-2.313,7.537l0.692,11.912c0.545,9.388-3.511,18.502-10.85,24.381
			L10.328,107.842z"/>
	</g>
</g>
<g>
	<g>
		<path class="st1" d="M20.639,109.682l-0.343-0.364l0.696-0.655c4.295-4.04,6.65-9.738,6.463-15.632
			c-0.087-2.741,0.127-5.496,0.637-8.189l1.164-6.152c0.832-4.401,0.864-8.87,0.095-13.281l-1.408-8.08l0.492-0.086l1.408,8.08
			c0.779,4.47,0.747,8.999-0.096,13.459l-1.164,6.152c-0.502,2.658-0.714,5.376-0.628,8.081c0.191,6.037-2.222,11.874-6.621,16.012
			L20.639,109.682z"/>
	</g>
</g>
<g>
	<g>
		<path class="st1" d="M33.695,106.448l-0.485-0.122l3.156-12.555c0.513-2.041,0.303-4.215-0.591-6.121
			c-1.75-3.731-2.377-7.86-1.814-11.943c0.401-2.905,0.19-5.807-0.627-8.625l-4.094-14.117l0.48-0.14l4.094,14.117
			c0.836,2.886,1.052,5.857,0.642,8.833c-0.55,3.986,0.063,8.019,1.772,11.663c0.942,2.009,1.164,4.302,0.623,6.455L33.695,106.448z
			"/>
	</g>
</g>
<g>
	<g>
		<path class="st1" d="M63.667,64.232c-0.351,0-0.703-0.029-1.054-0.089l-0.911-0.156c-1.378-0.237-2.653-0.939-3.589-1.979
			l-3.618-4.075c-0.136-0.153-0.393-0.154-0.528,0l-3.615,4.073c-0.937,1.041-2.211,1.743-3.59,1.98l-0.911,0.156
			c-1.761,0.302-3.568-0.166-4.961-1.28c-0.754-0.604-1.366-1.385-1.771-2.262c-0.648-1.406-1.101-2.893-1.344-4.42l-1.268-7.956
			c-0.405-2.543,0.104-5.158,1.435-7.363l1.73-2.868l0.428,0.258l-1.73,2.869c-1.27,2.104-1.756,4.599-1.369,7.025l1.268,7.956
			c0.236,1.482,0.675,2.926,1.304,4.289c0.372,0.807,0.936,1.526,1.629,2.081c1.282,1.026,2.948,1.458,4.564,1.178l0.91-0.156
			c1.269-0.217,2.442-0.864,3.302-1.82l3.614-4.072c0.324-0.365,0.953-0.364,1.276,0l3.616,4.073
			c0.86,0.955,2.033,1.602,3.301,1.819l0.911,0.156c1.617,0.28,3.282-0.152,4.564-1.178c0.694-0.555,1.257-1.274,1.629-2.081
			l0.478-1.386c0.67-1.941,1.173-3.953,1.497-5.98l0.778-4.879c0.387-2.426-0.099-4.921-1.369-7.025l-1.731-2.869l0.428-0.259
			l1.731,2.869c1.331,2.205,1.84,4.819,1.435,7.363l-0.778,4.879c-0.328,2.055-0.839,4.095-1.518,6.064l-0.487,1.409
			c-0.414,0.9-1.026,1.682-1.78,2.285C66.459,63.755,65.077,64.232,63.667,64.232z"/>
	</g>
</g>
<g>
	<g>
		
			<rect x="70.156" y="37.873" transform="matrix(0.084 -0.9965 0.9965 0.084 31.9817 111.0373)" class="st1" width="12.463" height="0.5"/>
	</g>
</g>
<g>
	<g>
		
			<rect x="32.117" y="30.364" transform="matrix(0.9922 -0.1243 0.1243 0.9922 -4.3414 4.3099)" class="st1" width="0.5" height="13.163"/>
	</g>
</g>
<g>
	<g>
		<path class="st1" d="M42.562,31.618l-0.425-0.265c3.223-5.173,3.203-6.258,3.201-6.302c0.192-1.587-0.109-2.825-0.895-3.74
			c-1.404-1.635-3.917-1.721-3.942-1.722l0.013-0.5c0.112,0.003,2.754,0.089,4.306,1.893c0.879,1.022,1.221,2.383,1.017,4.045
			C45.851,25.34,45.633,26.688,42.562,31.618z"/>
	</g>
</g>
<g>
	<g>
		<path class="st1" d="M66.093,31.617c-3.071-4.93-3.289-6.278-3.275-6.59c-0.204-1.662,0.138-3.022,1.018-4.045
			c1.552-1.804,4.194-1.89,4.306-1.893l0.013,0.5c-0.025,0-2.538,0.086-3.942,1.722c-0.786,0.916-1.087,2.153-0.896,3.679
			l0.005,0.041l-0.008,0.041c0,0.023-0.019,1.108,3.204,6.281L66.093,31.617z"/>
	</g>
</g>
<g>
	<g>
		<polygon class="st1" points="54.482,65.743 53.982,65.743 53.982,58.364 49.352,62.896 46.34,64.211 46.14,63.753 49.109,62.457 
			54.119,57.527 54.461,57.649 54.482,57.846 		"/>
	</g>
</g>
<g>
	<g>
		<path class="st3" d="M59.396,62.794"/>
	</g>
</g>
</svg>
