<?xml version="1.0" encoding="utf-8"?>
<!-- Generator: Adobe Illustrator 21.1.0, SVG Export Plug-In . SVG Version: 6.00 Build 0)  -->
<svg version="1.1" xmlns="http://www.w3.org/2000/svg" xmlns:xlink="http://www.w3.org/1999/xlink" x="0px" y="0px"
	 viewBox="0 0 665.967 447.513" style="enable-background:new 0 0 665.967 447.513;" xml:space="preserve">
<style type="text/css">
	.st0{fill:#333333;}
	.st1{fill:#F9F5F1;}
	.st2{fill:#E4CDB5;}
	.st3{fill:#1E1E1E;}
	.st4{fill:#FFFFFF;}
	.st5{fill:none;stroke:#1E1E1E;stroke-width:3;stroke-miterlimit:10;}
</style>
<g id="Layer_1">
	<g id="Layer_1_1_">
	</g>
	<g id="Layer_2">
	</g>
	<g>
		<g>
			<g>
				<path class="st0" d="M648.144,440.742H17.339c-6.105,0-11.072-4.967-11.072-11.072V18.63c0-6.105,4.967-11.072,11.072-11.072
					h630.806c6.105,0,11.072,4.967,11.072,11.072v411.04C659.217,435.775,654.25,440.742,648.144,440.742z M17.339,9.057
					c-5.278,0-9.572,4.294-9.572,9.572v411.04c0,5.278,4.294,9.572,9.572,9.572h630.806c5.278,0,9.572-4.294,9.572-9.572V18.63
					c0-5.278-4.294-9.572-9.572-9.572L17.339,9.057L17.339,9.057z"/>
			</g>
		</g>
	</g>
	<g>
		<g>
			<g>
				<rect x="7.016" y="36.99" class="st0" width="651.45" height="1.5"/>
			</g>
		</g>
	</g>
	<g>
		<g>
			<g>
				<rect x="37.431" y="205.999" class="st1" width="128.034" height="100.072"/>
			</g>
		</g>
		<g>
			<g>
				<path class="st0" d="M166.214,306.821H36.68V205.249h129.534L166.214,306.821L166.214,306.821z M38.18,305.321h126.534v-98.572
					H38.18V305.321z"/>
			</g>
		</g>
	</g>
	<g>
		<g>
			<g>
				<rect x="37.431" y="172.642" class="st1" width="128.034" height="21.73"/>
			</g>
		</g>
		<g>
			<g>
				<path class="st0" d="M166.214,195.122H36.68v-23.23h129.534L166.214,195.122L166.214,195.122z M38.18,193.622h126.534v-20.23
					H38.18V193.622z"/>
			</g>
		</g>
	</g>
	<g>
		<g>
			<g>
				<rect x="37.431" y="342.535" class="st1" width="128.034" height="8.155"/>
			</g>
		</g>
		<g>
			<g>
				<path class="st0" d="M166.214,351.441H36.68v-9.655h129.534L166.214,351.441L166.214,351.441z M38.18,349.941h126.534v-6.655
					H38.18V349.941z"/>
			</g>
		</g>
	</g>
	<g>
		<g>
			<g>
				<rect x="37.431" y="362.158" class="st1" width="128.034" height="8.155"/>
			</g>
		</g>
		<g>
			<g>
				<path class="st0" d="M166.214,371.063H36.68v-9.655h129.534L166.214,371.063L166.214,371.063z M38.18,369.563h126.534v-6.655
					H38.18V369.563z"/>
			</g>
		</g>
	</g>
	<g>
		<g>
			<g>
				<rect x="37.431" y="381.78" class="st1" width="128.034" height="8.155"/>
			</g>
		</g>
		<g>
			<g>
				<path class="st0" d="M166.214,390.685H36.68v-9.655h129.534L166.214,390.685L166.214,390.685z M38.18,389.185h126.534v-6.655
					H38.18V389.185z"/>
			</g>
		</g>
	</g>
	<g>
		<g>
			<g>
				<rect x="37.431" y="401.402" class="st1" width="128.034" height="8.155"/>
			</g>
		</g>
		<g>
			<g>
				<path class="st0" d="M166.214,410.307H36.68v-9.655h129.534L166.214,410.307L166.214,410.307z M38.18,408.807h126.534v-6.655
					H38.18V408.807z"/>
			</g>
		</g>
	</g>
	<g>
		<g>
			<g>
				<rect x="253.273" y="105.416" class="st1" width="46.864" height="19.622"/>
			</g>
		</g>
		<g>
			<g>
				<path class="st0" d="M300.887,125.788h-48.364v-21.122h48.364V125.788z M254.023,124.288h45.364v-18.122h-45.364V124.288z"/>
			</g>
		</g>
	</g>
	<g>
		<g>
			<g>
				<rect x="200.62" y="105.416" class="st1" width="46.864" height="19.622"/>
			</g>
		</g>
		<g>
			<g>
				<path class="st0" d="M248.235,125.788H199.87v-21.122h48.364v21.122H248.235z M201.37,124.288h45.364v-18.122H201.37V124.288z"
					/>
			</g>
		</g>
	</g>
	<g>
		<g>
			<g>
				<rect x="358.25" y="105.416" class="st1" width="46.864" height="19.622"/>
			</g>
		</g>
		<g>
			<g>
				<path class="st0" d="M405.865,125.788h-48.364v-21.122h48.364V125.788z M359.001,124.288h45.364v-18.122h-45.364
					L359.001,124.288L359.001,124.288z"/>
			</g>
		</g>
	</g>
	<g>
		<g>
			<g>
				<rect x="305.598" y="105.416" class="st1" width="46.864" height="19.622"/>
			</g>
		</g>
		<g>
			<g>
				<path class="st0" d="M353.212,125.788h-48.363v-21.122h48.363V125.788z M306.348,124.288h45.363v-18.122h-45.363V124.288z"/>
			</g>
		</g>
	</g>
	<g>
		<g>
			<g>
				<rect x="200.62" y="174.017" class="st0" width="94.839" height="1.5"/>
			</g>
		</g>
	</g>
	<g>
		<g>
			<g>
				<rect x="200.62" y="189.388" class="st0" width="94.839" height="1.5"/>
			</g>
		</g>
	</g>
	<g>
		<g>
			<g>
				<rect x="200.065" y="205.249" class="st0" width="94.839" height="1.5"/>
			</g>
		</g>
	</g>
	<g>
		<g>
			<g>
				<rect x="307.887" y="173.772" class="st0" width="94.84" height="1.5"/>
			</g>
		</g>
	</g>
	<g>
		<g>
			<g>
				<rect x="307.887" y="189.143" class="st0" width="94.84" height="1.5"/>
			</g>
		</g>
	</g>
	<g>
		<g>
			<g>
				<rect x="307.332" y="205.004" class="st0" width="94.84" height="1.5"/>
			</g>
		</g>
	</g>
	<g>
		<g>
			<g>
				<rect x="212.165" y="252.833" class="st0" width="189.452" height="1.5"/>
			</g>
		</g>
	</g>
	<g>
		<g>
			<g>
				<rect x="212.165" y="268.203" class="st0" width="189.452" height="1.5"/>
			</g>
		</g>
	</g>
	<g>
		<g>
			<g>
				<rect x="212.165" y="284.064" class="st0" width="189.452" height="1.5"/>
			</g>
		</g>
	</g>
	<g>
		<g>
			<g>
				<rect x="212.165" y="300.906" class="st0" width="189.452" height="1.5"/>
			</g>
		</g>
	</g>
	<g>
		<g>
			<g>
				<rect x="212.165" y="343.421" class="st0" width="189.452" height="1.5"/>
			</g>
		</g>
	</g>
	<g>
		<g>
			<g>
				<rect x="212.165" y="358.792" class="st0" width="189.452" height="1.5"/>
			</g>
		</g>
	</g>
	<g>
		<g>
			<g>
				<rect x="212.165" y="374.652" class="st0" width="189.452" height="1.5"/>
			</g>
		</g>
	</g>
	<g>
		<g>
			<g>
				<rect x="212.165" y="391.495" class="st0" width="189.452" height="1.5"/>
			</g>
		</g>
	</g>
	<g>
		<g>
			<g>
				<circle class="st1" cx="204.054" cy="253.746" r="3.761"/>
			</g>
		</g>
		<g>
			<g>
				<path class="st0" d="M204.054,258.257c-2.487,0-4.511-2.024-4.511-4.511c0-2.487,2.023-4.511,4.511-4.511
					s4.511,2.023,4.511,4.511C208.565,256.233,206.541,258.257,204.054,258.257z M204.054,250.735c-1.66,0-3.011,1.351-3.011,3.011
					s1.351,3.011,3.011,3.011s3.011-1.351,3.011-3.011S205.714,250.735,204.054,250.735z"/>
			</g>
		</g>
	</g>
	<g>
		<g>
			<g>
				<circle class="st1" cx="204.054" cy="268.953" r="3.761"/>
			</g>
		</g>
		<g>
			<g>
				<path class="st0" d="M204.054,273.464c-2.487,0-4.511-2.023-4.511-4.511s2.023-4.511,4.511-4.511s4.511,2.023,4.511,4.511
					S206.541,273.464,204.054,273.464z M204.054,265.942c-1.66,0-3.011,1.351-3.011,3.011s1.351,3.011,3.011,3.011
					s3.011-1.351,3.011-3.011S205.714,265.942,204.054,265.942z"/>
			</g>
		</g>
	</g>
	<g>
		<g>
			<g>
				<circle class="st1" cx="204.054" cy="285.632" r="3.761"/>
			</g>
		</g>
		<g>
			<g>
				<path class="st0" d="M204.054,290.142c-2.487,0-4.511-2.023-4.511-4.511s2.023-4.511,4.511-4.511s4.511,2.023,4.511,4.511
					S206.541,290.142,204.054,290.142z M204.054,282.621c-1.66,0-3.011,1.351-3.011,3.011s1.351,3.011,3.011,3.011
					s3.011-1.351,3.011-3.011S205.714,282.621,204.054,282.621z"/>
			</g>
		</g>
	</g>
	<g>
		<g>
			<g>
				<circle class="st1" cx="204.054" cy="300.839" r="3.761"/>
			</g>
		</g>
		<g>
			<g>
				<path class="st0" d="M204.054,305.349c-2.487,0-4.511-2.023-4.511-4.511s2.023-4.511,4.511-4.511s4.511,2.023,4.511,4.511
					S206.541,305.349,204.054,305.349z M204.054,297.828c-1.66,0-3.011,1.351-3.011,3.011s1.351,3.011,3.011,3.011
					s3.011-1.351,3.011-3.011S205.714,297.828,204.054,297.828z"/>
			</g>
		</g>
	</g>
	<g>
		<g>
			<g>
				<circle class="st1" cx="204.054" cy="344.171" r="3.761"/>
			</g>
		</g>
		<g>
			<g>
				<path class="st0" d="M204.054,348.681c-2.487,0-4.511-2.023-4.511-4.511s2.023-4.511,4.511-4.511s4.511,2.023,4.511,4.511
					S206.541,348.681,204.054,348.681z M204.054,341.16c-1.66,0-3.011,1.351-3.011,3.011s1.351,3.011,3.011,3.011
					s3.011-1.351,3.011-3.011S205.714,341.16,204.054,341.16z"/>
			</g>
		</g>
	</g>
	<g>
		<g>
			<g>
				<circle class="st1" cx="204.054" cy="359.378" r="3.761"/>
			</g>
		</g>
		<g>
			<g>
				<path class="st0" d="M204.054,363.888c-2.487,0-4.511-2.023-4.511-4.511s2.023-4.511,4.511-4.511s4.511,2.023,4.511,4.511
					S206.541,363.888,204.054,363.888z M204.054,356.367c-1.66,0-3.011,1.351-3.011,3.011s1.351,3.011,3.011,3.011
					s3.011-1.351,3.011-3.011S205.714,356.367,204.054,356.367z"/>
			</g>
		</g>
	</g>
	<g>
		<g>
			<g>
				<circle class="st1" cx="204.054" cy="376.056" r="3.761"/>
			</g>
		</g>
		<g>
			<g>
				<path class="st0" d="M204.054,380.567c-2.487,0-4.511-2.023-4.511-4.511s2.023-4.511,4.511-4.511s4.511,2.023,4.511,4.511
					S206.541,380.567,204.054,380.567z M204.054,373.046c-1.66,0-3.011,1.351-3.011,3.011s1.351,3.011,3.011,3.011
					s3.011-1.351,3.011-3.011S205.714,373.046,204.054,373.046z"/>
			</g>
		</g>
	</g>
	<g>
		<g>
			<g>
				<circle class="st1" cx="204.054" cy="391.263" r="3.761"/>
			</g>
		</g>
		<g>
			<g>
				<path class="st0" d="M204.054,395.774c-2.487,0-4.511-2.023-4.511-4.511s2.023-4.511,4.511-4.511s4.511,2.023,4.511,4.511
					S206.541,395.774,204.054,395.774z M204.054,388.253c-1.66,0-3.011,1.351-3.011,3.011s1.351,3.011,3.011,3.011
					s3.011-1.351,3.011-3.011S205.714,388.253,204.054,388.253z"/>
			</g>
		</g>
	</g>
	<g>
		<g>
			<g>
				<circle class="st1" cx="476.473" cy="283.015" r="19.131"/>
			</g>
		</g>
		<g>
			<g>
				<path class="st0" d="M476.473,302.897c-10.963,0-19.882-8.919-19.882-19.882s8.919-19.881,19.882-19.881
					c10.962,0,19.881,8.918,19.881,19.881S487.435,302.897,476.473,302.897z M476.473,264.634c-10.136,0-18.382,8.246-18.382,18.381
					s8.246,18.382,18.382,18.382c10.135,0,18.381-8.246,18.381-18.382S486.608,264.634,476.473,264.634z"/>
			</g>
		</g>
	</g>
	<g>
		<g>
			<g>
				<circle class="st1" cx="522.165" cy="283.015" r="19.131"/>
			</g>
		</g>
		<g>
			<g>
				<path class="st0" d="M522.165,302.897c-10.962,0-19.881-8.919-19.881-19.882s8.919-19.881,19.881-19.881
					c10.963,0,19.882,8.918,19.882,19.881S533.128,302.897,522.165,302.897z M522.165,264.634c-10.135,0-18.381,8.246-18.381,18.381
					s8.246,18.382,18.381,18.382c10.136,0,18.382-8.246,18.382-18.382S532.301,264.634,522.165,264.634z"/>
			</g>
		</g>
	</g>
	<g>
		<g>
			<g>
				<circle class="st1" cx="567.715" cy="283.015" r="19.131"/>
			</g>
		</g>
		<g>
			<g>
				<path class="st0" d="M567.716,302.897c-10.963,0-19.882-8.919-19.882-19.882s8.919-19.881,19.882-19.881
					c10.962,0,19.881,8.918,19.881,19.881S578.678,302.897,567.716,302.897z M567.716,264.634c-10.136,0-18.382,8.246-18.382,18.381
					s8.246,18.382,18.382,18.382c10.135,0,18.381-8.246,18.381-18.382S577.85,264.634,567.716,264.634z"/>
			</g>
		</g>
	</g>
	<g>
		<g>
			<g>
				<rect x="459.794" y="339.756" class="st1" width="177.579" height="8.83"/>
			</g>
		</g>
		<g>
			<g>
				<path class="st0" d="M638.124,349.336H459.045v-10.33h179.079V349.336z M460.545,347.836h176.079v-7.33H460.545V347.836z"/>
			</g>
		</g>
	</g>
	<g>
		<g>
			<g>
				<rect x="459.794" y="362.975" class="st1" width="177.579" height="8.83"/>
			</g>
		</g>
		<g>
			<g>
				<path class="st0" d="M638.124,372.555H459.045v-10.33h179.079V372.555z M460.545,371.055h176.079v-7.33H460.545V371.055z"/>
			</g>
		</g>
	</g>
	<g>
		<g>
			<g>
				<rect x="459.794" y="383.415" class="st1" width="177.579" height="8.83"/>
			</g>
		</g>
		<g>
			<g>
				<path class="st0" d="M638.124,392.995H459.045v-10.33h179.079V392.995z M460.545,391.495h176.079v-7.33H460.545V391.495z"/>
			</g>
		</g>
	</g>
	<g>
		<g>
			<g>
				<rect x="459.304" y="168.605" class="st1" width="177.579" height="8.83"/>
			</g>
		</g>
		<g>
			<g>
				<path class="st0" d="M637.633,178.185h-179.08v-10.33h179.079L637.633,178.185L637.633,178.185z M460.053,176.685h176.079v-7.33
					H460.053V176.685z"/>
			</g>
		</g>
	</g>
	<g>
		<g>
			<g>
				<rect x="459.304" y="191.824" class="st1" width="177.579" height="8.83"/>
			</g>
		</g>
		<g>
			<g>
				<path class="st0" d="M637.633,201.404h-179.08v-10.33h179.079L637.633,201.404L637.633,201.404z M460.053,199.904h176.079v-7.33
					H460.053V199.904z"/>
			</g>
		</g>
	</g>
	<g>
		<g>
			<g>
				<rect x="459.304" y="212.264" class="st1" width="177.579" height="8.83"/>
			</g>
		</g>
		<g>
			<g>
				<path class="st0" d="M637.633,221.844h-179.08v-10.33h179.079L637.633,221.844L637.633,221.844z M460.053,220.344h176.079v-7.33
					H460.053V220.344z"/>
			</g>
		</g>
	</g>
	<g>
		<g>
			<g>
				<rect x="459.304" y="104.568" class="st1" width="177.579" height="8.83"/>
			</g>
		</g>
		<g>
			<g>
				<path class="st0" d="M637.633,114.148h-179.08v-10.33h179.079L637.633,114.148L637.633,114.148z M460.053,112.648h176.079v-7.33
					H460.053V112.648z"/>
			</g>
		</g>
	</g>
	<g>
		<g>
			<g>
				<rect x="459.304" y="127.787" class="st1" width="177.579" height="8.83"/>
			</g>
		</g>
		<g>
			<g>
				<path class="st0" d="M637.633,137.367h-179.08v-10.33h179.079L637.633,137.367L637.633,137.367z M460.053,135.867h176.079v-7.33
					H460.053V135.867z"/>
			</g>
		</g>
	</g>
	<g>
		<g>
			<g>
				<rect x="459.304" y="148.227" class="st1" width="177.579" height="8.83"/>
			</g>
		</g>
		<g>
			<g>
				<path class="st0" d="M637.633,157.806h-179.08v-10.33h179.079L637.633,157.806L637.633,157.806z M460.053,156.306h176.079v-7.33
					H460.053V156.306z"/>
			</g>
		</g>
	</g>
	<g>
		<g>
			<g>
				<circle class="st1" cx="97.318" cy="106.415" r="59.356"/>
			</g>
		</g>
		<g>
			<g>
				<path class="st0" d="M97.318,166.596c-33.184,0-60.182-26.997-60.182-60.182s26.997-60.182,60.182-60.182
					S157.5,73.229,157.5,106.414S130.503,166.596,97.318,166.596z M97.318,47.885c-32.273,0-58.53,26.256-58.53,58.53
					s26.256,58.53,58.53,58.53s58.53-26.256,58.53-58.53S129.591,47.885,97.318,47.885z"/>
			</g>
		</g>
	</g>
</g>
<g id="Layer_3">
	<g>
		<g>
			<g>
				<path class="st2" d="M99.368,144.577l16.957,5.349l18.088-9.289l7.566-34.371l-5.759-14.597l-4.06-9.303l-8.626-3.383
					l-8.148-17.653c-1.233-2.257-3.6-3.66-6.172-3.66l0,0c-2.171,0-4.22,1.002-5.553,2.716l-5.033,8.402
					c-0.394,0.659-1.105,1.061-1.873,1.061H95.88c-0.767,0-1.478-0.403-1.873-1.061l-5.033-8.402
					c-1.333-1.714-3.382-2.716-5.553-2.716l0,0c-2.572,0-4.938,1.403-6.172,3.66l-8.148,17.653l-8.626,3.383l-4.06,9.303
					l-5.759,14.597l7.566,34.371l18.577,9.078l15.449-5.13L99.368,144.577z"/>
			</g>
		</g>
		<g>
			<g>
				<path class="st3" d="M116.371,150.473l-17.081-5.389l-6.958,0.007l-15.568,5.17l-18.983-9.276l-7.653-34.762l5.815-14.741
					l4.15-9.512l8.633-3.385l8.078-17.498c1.323-2.42,3.859-3.924,6.617-3.924c2.344,0,4.514,1.062,5.953,2.911l0.035,0.051
					l5.033,8.402c0.301,0.502,0.851,0.815,1.437,0.815h0.877c0.586,0,1.136-0.312,1.437-0.815l5.068-8.452
					c1.439-1.851,3.609-2.911,5.953-2.911c2.758,0,5.294,1.504,6.617,3.924l0.016,0.031l8.062,17.467l8.633,3.385l4.144,9.496
					l5.82,14.758l-0.033,0.152l-7.618,34.604L116.371,150.473z M99.446,144.07l16.832,5.31l17.689-9.084l7.482-33.987l-5.702-14.453
					l-3.969-9.094l-8.621-3.381l-8.226-17.823c-1.147-2.086-3.338-3.381-5.719-3.381c-2.019,0-3.888,0.909-5.133,2.496l-5.017,8.375
					c-0.483,0.806-1.368,1.308-2.308,1.308h-0.877c-0.94,0-1.824-0.501-2.308-1.308l-5.017-8.375
					c-1.245-1.586-3.114-2.496-5.133-2.496c-2.382,0-4.571,1.295-5.719,3.381l-8.226,17.823l-8.621,3.381l-3.975,9.11l-5.694,14.436
					l7.48,33.981l18.172,8.879l15.33-5.091L99.446,144.07z"/>
			</g>
		</g>
	</g>
	<g>
		<g>
			<g>
				<path class="st4" d="M102.899,107.146c0,0,1.201,2.45,3.785,3.078c2.292,0.557,4.634-0.874,5.198-3.163
					c0.145-0.59,0.235-1.289,0.235-2.113c0,0-1.029-2.977-3.908-3.215c-1.724-0.142-3.405,0.717-4.337,2.174
					C103.379,104.676,102.963,105.734,102.899,107.146z"/>
			</g>
		</g>
		<g>
			<g>
				<path class="st3" d="M107.695,110.514c-0.347,0-0.7-0.041-1.052-0.127c-2.63-0.638-3.846-3.065-3.897-3.168l-0.019-0.039
					l0.002-0.043c0.057-1.256,0.394-2.375,1-3.323c0.968-1.514,2.733-2.395,4.493-2.252c2.956,0.244,4.043,3.298,4.054,3.328
					l0.009,0.055c0,0.783-0.081,1.507-0.24,2.154C111.544,109.141,109.707,110.514,107.695,110.514z M103.07,107.108
					c0.163,0.305,1.352,2.393,3.654,2.951c2.21,0.537,4.45-0.828,4.995-3.039c0.151-0.613,0.228-1.3,0.231-2.043
					c-0.108-0.285-1.158-2.862-3.753-3.077c-1.639-0.138-3.279,0.687-4.18,2.097C103.448,104.883,103.13,105.93,103.07,107.108z"/>
			</g>
		</g>
	</g>
	<g>
		<g>
			<g>
				<path class="st3" d="M97.219,130.065h-1.34v-1.015h1.34c2.683,0,5.254-0.87,7.24-2.449c1.686-1.34,2.541-2.822,2.541-4.404
					v-0.668h1.015v0.668c0,1.907-0.984,3.655-2.924,5.198C102.925,129.117,100.13,130.065,97.219,130.065z"/>
			</g>
		</g>
	</g>
	<g>
		<g>
			<g>
				<path class="st3" d="M107.634,109.773c-2.064,0-3.743-1.679-3.743-3.743s1.679-3.743,3.743-3.743s3.743,1.679,3.743,3.743
					C111.377,108.094,109.698,109.773,107.634,109.773z M107.634,103.302c-1.504,0-2.728,1.223-2.728,2.728
					c0,1.504,1.223,2.728,2.728,2.728c1.504,0,2.728-1.223,2.728-2.728C110.362,104.526,109.139,103.302,107.634,103.302z"/>
			</g>
		</g>
	</g>
	<g>
		<g>
			<g>
				
					<rect x="97.282" y="102.931" transform="matrix(0.1978 -0.9802 0.9802 0.1978 -20.6194 181.3411)" class="st3" width="6.408" height="0.676"/>
			</g>
		</g>
	</g>
	<g>
		<g>
			<g>
				<path class="st3" d="M103.222,101.494l-0.647-0.199c0.031-0.101,0.787-2.489,3.009-3.651c1.407-0.736,3.07-0.806,4.944-0.208
					l-0.206,0.645c-1.695-0.54-3.183-0.485-4.425,0.163C103.924,99.276,103.228,101.472,103.222,101.494z"/>
			</g>
		</g>
	</g>
	<g>
		<g>
			<g>
				
					<rect x="99.02" y="65.957" transform="matrix(0.3111 -0.9504 0.9504 0.3111 8.5816 144.4291)" class="st3" width="9.789" height="0.677"/>
			</g>
		</g>
	</g>
	<g>
		<g>
			<g>
				
					<rect x="100.468" y="65.618" transform="matrix(0.4337 -0.9011 0.9011 0.4337 1.3993 134.1399)" class="st3" width="13.892" height="0.677"/>
			</g>
		</g>
	</g>
	<g>
		<g>
			<g>
				
					<rect x="105.35" y="68.706" transform="matrix(0.4952 -0.8688 0.8688 0.4952 -4.518 130.3136)" class="st3" width="9.053" height="0.677"/>
			</g>
		</g>
	</g>
	<g>
		<g>
			<g>
				
					<rect x="105.771" y="70.778" transform="matrix(0.5646 -0.8254 0.8254 0.5646 -10.1001 123.0869)" class="st3" width="11.682" height="0.677"/>
			</g>
		</g>
	</g>
	<g>
		<g>
			<g>
				
					<rect x="109.022" y="72.703" transform="matrix(0.7093 -0.7049 0.7049 0.7093 -18.3912 101.4871)" class="st3" width="9.658" height="0.677"/>
			</g>
		</g>
	</g>
	<g>
		<g>
			<g>
				<path class="st3" d="M115.058,105.293c-0.112,0-0.178-0.007-0.196-0.01l0.086-0.671c0.029,0.004,2.83,0.265,6.69-4.693
					l0.534,0.416C118.581,104.948,115.806,105.293,115.058,105.293z"/>
			</g>
		</g>
	</g>
	<g>
		<g>
			<g>
				<path class="st3" d="M113.072,101.927c-2.33-2.91-6.254-1.499-6.293-1.484l-0.235-0.635c0.044-0.017,4.425-1.59,7.056,1.696
					L113.072,101.927z"/>
			</g>
		</g>
	</g>
	<g>
		<g>
			<g>
				
					<rect x="118.194" y="85.324" transform="matrix(0.963 -0.2696 0.2696 0.963 -18.5008 36.6148)" class="st3" width="11.714" height="0.677"/>
			</g>
		</g>
	</g>
	<g>
		<g>
			<g>
				<rect x="123.373" y="90.401" class="st3" width="9.021" height="0.677"/>
			</g>
		</g>
	</g>
	<g>
		<g>
			<g>
				<path class="st4" d="M97.279,119.625c-0.666,0.317-1.428,0.313-2.093-0.006c-1.201-0.577-3.024-1.599-3.182-2.554l-0.279-1.69
					c-0.303-1.836,1.028-3.519,2.784-3.519h3.452c1.834,0,3.182,1.825,2.744,3.715l-0.391,1.69
					C100.11,118.141,98.418,119.082,97.279,119.625z"/>
			</g>
		</g>
		<g>
			<g>
				<path class="st3" d="M96.241,120.199c-0.41,0-0.819-0.092-1.201-0.276c-2.094-1.006-3.227-1.949-3.369-2.804l-0.279-1.69
					c-0.167-1.013,0.109-2.033,0.76-2.8c0.599-0.706,1.458-1.111,2.358-1.111h3.452c0.939,0,1.821,0.434,2.424,1.192
					c0.655,0.824,0.892,1.895,0.65,2.938l-0.391,1.69c-0.183,0.79-1.266,1.662-3.219,2.593
					C97.048,120.109,96.645,120.199,96.241,120.199z M94.509,112.195c-0.711,0-1.365,0.31-1.841,0.873
					c-0.522,0.615-0.743,1.436-0.608,2.253l0.279,1.69c0.097,0.59,1.217,1.451,2.994,2.304c0.574,0.276,1.231,0.277,1.801,0.006l0,0
					c1.659-0.79,2.725-1.588,2.851-2.134l0.391-1.69c0.195-0.841,0.005-1.704-0.521-2.365c-0.473-0.595-1.164-0.937-1.895-0.937
					L94.509,112.195L94.509,112.195z"/>
			</g>
		</g>
	</g>
	<g>
		<g>
			<g>
				<path class="st5" d="M96.234,119.546"/>
			</g>
		</g>
	</g>
	<g>
		<g>
			<g>
				<path class="st3" d="M98.244,117.194c-0.087,0-0.174-0.017-0.257-0.051c-0.468-0.192-0.669-0.865-0.456-1.534
					c0.124-0.389,0.374-0.704,0.667-0.841c0.197-0.092,0.398-0.1,0.581-0.025c0.468,0.192,0.669,0.865,0.456,1.534l0,0
					c-0.124,0.389-0.373,0.704-0.667,0.841C98.461,117.168,98.351,117.194,98.244,117.194z M98.523,115.03
					c-0.058,0-0.118,0.015-0.181,0.044c-0.209,0.097-0.391,0.336-0.488,0.637c-0.154,0.485-0.035,0.997,0.261,1.119
					c0.096,0.039,0.2,0.033,0.31-0.018c0.209-0.097,0.391-0.336,0.488-0.637l0,0c0.154-0.485,0.035-0.997-0.261-1.118
					C98.61,115.038,98.567,115.03,98.523,115.03z"/>
			</g>
		</g>
	</g>
	<g>
		<g>
			<g>
				<path class="st3" d="M98.39,117.234c-0.276,0-0.418-0.108-0.451-0.137l0.22-0.257c0.006,0.006,0.657,0.458,2.425-1.384
					l0.244,0.234C99.603,116.964,98.827,117.234,98.39,117.234z"/>
			</g>
		</g>
	</g>
	<g>
		<g>
			<g>
				<path class="st3" d="M94.221,117.232c-0.107,0-0.217-0.026-0.325-0.076c-0.293-0.137-0.543-0.452-0.667-0.841l0,0
					c-0.213-0.669-0.013-1.343,0.456-1.534c0.185-0.075,0.385-0.067,0.581,0.025c0.293,0.137,0.543,0.452,0.667,0.841
					c0.213,0.669,0.013,1.343-0.456,1.534C94.396,117.216,94.309,117.232,94.221,117.232z M93.553,116.213
					c0.096,0.301,0.278,0.54,0.488,0.637c0.11,0.051,0.214,0.057,0.31,0.018c0.296-0.121,0.415-0.634,0.261-1.119
					c-0.096-0.301-0.278-0.54-0.488-0.637c-0.11-0.051-0.215-0.058-0.31-0.018C93.517,115.216,93.397,115.728,93.553,116.213
					L93.553,116.213z"/>
			</g>
		</g>
	</g>
	<g>
		<g>
			<g>
				<path class="st3" d="M94.075,117.281c-0.437,0-1.213-0.27-2.438-1.545l0.244-0.234c1.767,1.842,2.418,1.39,2.425,1.384
					l0.22,0.257C94.493,117.173,94.353,117.281,94.075,117.281z"/>
			</g>
		</g>
	</g>
	<g>
		<g>
			<g>
				<path class="st5" d="M96.063,119.568"/>
			</g>
		</g>
	</g>
	<g>
		<g>
			<g>
				<path class="st3" d="M94.054,117.216c-0.107,0-0.217-0.026-0.324-0.075c-0.293-0.137-0.543-0.452-0.667-0.841l0,0
					c-0.213-0.669-0.013-1.343,0.456-1.534c0.185-0.075,0.386-0.066,0.582,0.025c0.293,0.137,0.543,0.452,0.667,0.841
					c0.213,0.669,0.013,1.343-0.456,1.534C94.228,117.199,94.141,117.216,94.054,117.216z M93.384,116.196
					c0.096,0.301,0.278,0.54,0.488,0.637c0.11,0.051,0.214,0.057,0.31,0.018c0.296-0.121,0.415-0.633,0.261-1.118
					c-0.096-0.301-0.278-0.54-0.488-0.637c-0.11-0.051-0.215-0.058-0.31-0.018C93.35,115.199,93.23,115.711,93.384,116.196
					L93.384,116.196z"/>
			</g>
		</g>
	</g>
	<g>
		<g>
			<g>
				<path class="st3" d="M93.907,117.256c-0.437,0-1.213-0.269-2.437-1.545l0.244-0.234c1.767,1.842,2.418,1.39,2.425,1.384
					l0.22,0.257C94.326,117.148,94.184,117.256,93.907,117.256z"/>
			</g>
		</g>
	</g>
	<g>
		<g>
			<g>
				<path class="st3" d="M98.076,117.254c-0.088,0-0.175-0.017-0.257-0.051c-0.468-0.192-0.668-0.865-0.456-1.534
					c0.124-0.389,0.374-0.704,0.667-0.841c0.196-0.092,0.398-0.1,0.581-0.025c0.468,0.192,0.669,0.865,0.456,1.534l0,0
					c-0.124,0.389-0.374,0.704-0.667,0.841C98.293,117.23,98.183,117.254,98.076,117.254z M98.355,115.092
					c-0.058,0-0.118,0.015-0.181,0.044c-0.209,0.097-0.391,0.336-0.488,0.637c-0.154,0.485-0.035,0.997,0.261,1.118
					c0.096,0.039,0.2,0.033,0.31-0.018c0.209-0.097,0.391-0.336,0.488-0.637c0.154-0.485,0.035-0.997-0.261-1.119
					C98.443,115.1,98.4,115.092,98.355,115.092z"/>
			</g>
		</g>
	</g>
	<g>
		<g>
			<g>
				<path class="st3" d="M98.223,117.303c-0.277,0-0.418-0.108-0.451-0.137l0.22-0.257c0.006,0.005,0.657,0.458,2.425-1.384
					l0.244,0.234C99.436,117.034,98.66,117.303,98.223,117.303z"/>
			</g>
		</g>
	</g>
	<g>
		<g>
			<g>
				<path class="st5" d="M96.234,119.546"/>
			</g>
		</g>
	</g>
	<g>
		<g>
			<g>
				<path class="st3" d="M94.225,117.194c-0.107,0-0.217-0.026-0.325-0.075c-0.293-0.137-0.543-0.452-0.667-0.841l0,0
					c-0.213-0.669-0.013-1.343,0.456-1.534c0.185-0.075,0.386-0.066,0.581,0.025c0.293,0.137,0.543,0.452,0.667,0.841
					c0.213,0.669,0.013,1.343-0.456,1.534C94.398,117.176,94.313,117.194,94.225,117.194z M93.555,116.173
					c0.096,0.301,0.278,0.54,0.488,0.637c0.11,0.051,0.214,0.058,0.31,0.018c0.296-0.121,0.416-0.634,0.261-1.119
					c-0.096-0.301-0.278-0.54-0.488-0.637c-0.11-0.051-0.215-0.058-0.31-0.018C93.52,115.177,93.401,115.689,93.555,116.173
					L93.555,116.173z"/>
			</g>
		</g>
	</g>
	<g>
		<g>
			<g>
				<path class="st3" d="M94.079,117.234c-0.437,0-1.213-0.27-2.437-1.545l0.244-0.234c1.767,1.842,2.418,1.39,2.425,1.384
					l0.22,0.257C94.497,117.126,94.355,117.234,94.079,117.234z"/>
			</g>
		</g>
	</g>
	<g>
		<g>
			<g>
				<path class="st3" d="M98.248,117.232c-0.088,0-0.174-0.017-0.257-0.051c-0.468-0.192-0.669-0.865-0.456-1.534
					c0.124-0.389,0.374-0.704,0.667-0.841c0.196-0.091,0.398-0.1,0.581-0.025c0.468,0.191,0.669,0.865,0.456,1.534
					c-0.124,0.389-0.373,0.704-0.667,0.841C98.464,117.208,98.355,117.232,98.248,117.232z M98.527,115.069
					c-0.058,0-0.118,0.015-0.181,0.044c-0.209,0.097-0.391,0.336-0.488,0.637c-0.154,0.485-0.035,0.997,0.261,1.119
					c0.096,0.039,0.199,0.033,0.31-0.018c0.209-0.098,0.391-0.336,0.488-0.637l0,0c0.154-0.485,0.035-0.997-0.261-1.118
					C98.614,115.078,98.571,115.069,98.527,115.069z"/>
			</g>
		</g>
	</g>
	<g>
		<g>
			<g>
				<path class="st3" d="M98.394,117.281c-0.276,0-0.418-0.108-0.451-0.137l0.22-0.257c0.006,0.005,0.657,0.458,2.425-1.384
					l0.244,0.234C99.607,117.011,98.831,117.281,98.394,117.281z"/>
			</g>
		</g>
	</g>
	<g>
		<g>
			<g>
				<path class="st5" d="M96.406,119.568"/>
			</g>
		</g>
	</g>
	<g>
		<g>
			<g>
				<path class="st3" d="M98.416,117.216c-0.088,0-0.174-0.017-0.257-0.051c-0.468-0.191-0.669-0.865-0.456-1.534
					c0.124-0.389,0.373-0.704,0.667-0.841c0.197-0.092,0.398-0.1,0.581-0.025c0.468,0.192,0.669,0.865,0.456,1.534l0,0
					c-0.124,0.389-0.374,0.704-0.667,0.841C98.632,117.191,98.522,117.216,98.416,117.216z M98.694,115.053
					c-0.058,0-0.118,0.015-0.182,0.044c-0.209,0.098-0.391,0.336-0.488,0.637c-0.154,0.485-0.035,0.997,0.261,1.118
					c0.096,0.039,0.2,0.033,0.31-0.018c0.209-0.097,0.391-0.336,0.488-0.637c0.154-0.485,0.035-0.997-0.262-1.119
					C98.781,115.061,98.739,115.053,98.694,115.053z"/>
			</g>
		</g>
	</g>
	<g>
		<g>
			<g>
				<path class="st3" d="M94.393,117.254c-0.107,0-0.217-0.026-0.325-0.075c-0.293-0.137-0.543-0.452-0.667-0.841l0,0
					c-0.213-0.669-0.013-1.343,0.456-1.534c0.185-0.075,0.386-0.066,0.581,0.025c0.294,0.137,0.543,0.452,0.667,0.841
					c0.213,0.669,0.013,1.343-0.456,1.534C94.567,117.238,94.48,117.254,94.393,117.254z M94.114,115.092
					c-0.044,0-0.087,0.008-0.129,0.026c-0.296,0.121-0.416,0.634-0.261,1.119l0,0c0.096,0.301,0.278,0.54,0.488,0.637
					c0.11,0.051,0.214,0.058,0.31,0.018c0.296-0.121,0.416-0.633,0.261-1.118c-0.096-0.301-0.278-0.54-0.488-0.637
					C94.232,115.106,94.172,115.092,94.114,115.092z"/>
			</g>
		</g>
	</g>
	<g>
		<g>
			<g>
				<path class="st3" d="M110.491,115.892l-0.214-0.642c0.102-0.034,10.267-3.356,19.395-0.848l-0.179,0.652
					C120.56,112.601,110.59,115.859,110.491,115.892z"/>
			</g>
		</g>
	</g>
	<g>
		<g>
			<g>
				
					<rect x="119.138" y="109.138" transform="matrix(0.0283 -0.9996 0.9996 0.0283 -1.9725 234.2019)" class="st3" width="0.677" height="17.955"/>
			</g>
		</g>
	</g>
	<g>
		<g>
			<g>
				<path class="st3" d="M129.241,127.865c-7.276-6.477-18.66-7.657-18.774-7.668l0.066-0.673
					c0.117,0.011,11.719,1.214,19.158,7.836L129.241,127.865z"/>
			</g>
		</g>
	</g>
	<g>
		<g>
			<g>
				
					<rect x="101.963" y="90.227" transform="matrix(0.4883 -0.8727 0.8727 0.4883 -24.9092 138.6507)" class="st3" width="7.623" height="0.677"/>
			</g>
		</g>
	</g>
	<g>
		<g>
			<g>
				<rect x="98.847" y="82.647" transform="matrix(1 -0.0085 0.0085 1 -0.7273 0.8462)" class="st3" width="0.677" height="6.682"/>
			</g>
		</g>
	</g>
	<g>
		<g>
			<g>
				
					<rect x="102.125" y="81.08" transform="matrix(0.271 -0.9626 0.9626 0.271 -1.6486 160.6606)" class="st3" width="6.238" height="0.677"/>
			</g>
		</g>
	</g>
	<g>
		<g>
			<g>
				
					<rect x="106.504" y="131.609" transform="matrix(0.9031 -0.4295 0.4295 0.9031 -48.7189 59.2256)" class="st3" width="0.677" height="11.862"/>
			</g>
		</g>
	</g>
	<g>
		<g>
			<g>
				<path class="st4" d="M89.737,107.146c0,0-1.201,2.45-3.785,3.078c-2.292,0.557-4.634-0.874-5.198-3.163
					c-0.145-0.59-0.235-1.289-0.235-2.113c0,0,1.029-2.977,3.908-3.215c1.724-0.142,3.405,0.717,4.337,2.174
					C89.257,104.676,89.673,105.734,89.737,107.146z"/>
			</g>
		</g>
		<g>
			<g>
				<path class="st3" d="M84.941,110.514c-2.012,0-3.848-1.373-4.352-3.414c-0.159-0.647-0.24-1.371-0.24-2.154l0.009-0.055
					c0.011-0.031,1.098-3.084,4.054-3.328c1.757-0.143,3.525,0.738,4.493,2.252c0.606,0.948,0.943,2.067,1,3.323l0.002,0.043
					l-0.019,0.039c-0.051,0.103-1.267,2.529-3.897,3.168C85.641,110.474,85.288,110.514,84.941,110.514z M80.688,104.977
					c0.002,0.744,0.08,1.431,0.231,2.044c0.545,2.213,2.785,3.576,4.995,3.039c2.303-0.559,3.491-2.646,3.654-2.951
					c-0.061-1.178-0.378-2.225-0.945-3.111c-0.902-1.409-2.543-2.235-4.181-2.097C81.841,102.115,80.796,104.692,80.688,104.977z"/>
			</g>
		</g>
	</g>
	<g>
		<g>
			<g>
				<path class="st3" d="M127.216,138.361c-8.214-6.772-18.315-11.325-18.416-11.37l0.276-0.618
					c0.102,0.046,10.287,4.637,18.57,11.466L127.216,138.361z"/>
			</g>
		</g>
	</g>
	<g>
		<g>
			<g>
				
					<rect x="130.678" y="100.486" transform="matrix(0.2495 -0.9684 0.9684 0.2495 -6.6196 208.2096)" class="st3" width="0.677" height="15.779"/>
			</g>
		</g>
	</g>
	<g>
		<g>
			<g>
				
					<rect x="131.89" y="96.02" transform="matrix(0.1198 -0.9928 0.9928 0.1198 14.6319 221.4915)" class="st3" width="0.677" height="12.948"/>
			</g>
		</g>
	</g>
	<g>
		<g>
			<g>
				<path class="st3" d="M96.757,130.065h-1.34c-2.911,0-5.706-0.948-7.872-2.669c-1.941-1.543-2.924-3.292-2.924-5.198v-1.346
					h1.015v1.346c0,1.582,0.855,3.063,2.541,4.404c1.987,1.579,4.558,2.449,7.24,2.449h1.34
					C96.757,129.05,96.757,130.065,96.757,130.065z"/>
			</g>
		</g>
	</g>
	<g>
		<g>
			<g>
				<path class="st3" d="M85.001,109.773c-2.064,0-3.743-1.679-3.743-3.743s1.679-3.743,3.743-3.743s3.743,1.679,3.743,3.743
					C88.744,108.094,87.065,109.773,85.001,109.773z M85.001,103.302c-1.504,0-2.728,1.223-2.728,2.728
					c0,1.504,1.223,2.728,2.728,2.728c1.504,0,2.728-1.223,2.728-2.728C87.729,104.526,86.505,103.302,85.001,103.302z"/>
			</g>
		</g>
	</g>
	<g>
		<g>
			<g>
				
					<rect x="91.811" y="100.061" transform="matrix(0.9802 -0.198 0.198 0.9802 -18.6221 20.29)" class="st3" width="0.676" height="6.408"/>
			</g>
		</g>
	</g>
	<g>
		<g>
			<g>
				<path class="st3" d="M89.414,101.495c-0.006-0.022-0.711-2.227-2.682-3.253c-1.24-0.647-2.727-0.7-4.42-0.161l-0.206-0.645
					c1.874-0.598,3.537-0.527,4.944,0.208c2.222,1.162,2.978,3.55,3.009,3.651L89.414,101.495z"/>
			</g>
		</g>
	</g>
	<g>
		<g>
			<g>
				
					<rect x="88.384" y="61.404" transform="matrix(0.9504 -0.311 0.311 0.9504 -16.2192 30.8808)" class="st3" width="0.677" height="9.789"/>
			</g>
		</g>
	</g>
	<g>
		<g>
			<g>
				
					<rect x="84.884" y="59.01" transform="matrix(0.901 -0.4338 0.4338 0.901 -20.1755 43.4991)" class="st3" width="0.677" height="13.891"/>
			</g>
		</g>
	</g>
	<g>
		<g>
			<g>
				
					<rect x="82.421" y="64.52" transform="matrix(0.8688 -0.4951 0.4951 0.8688 -23.33 50.0323)" class="st3" width="0.677" height="9.053"/>
			</g>
		</g>
	</g>
	<g>
		<g>
			<g>
				
					<rect x="80.688" y="65.275" transform="matrix(0.8253 -0.5647 0.5647 0.8253 -26.0036 58.1794)" class="st3" width="0.677" height="11.682"/>
			</g>
		</g>
	</g>
	<g>
		<g>
			<g>
				
					<rect x="78.446" y="68.211" transform="matrix(0.7049 -0.7093 0.7093 0.7049 -28.5588 77.4364)" class="st3" width="0.677" height="9.658"/>
			</g>
		</g>
	</g>
	<g>
		<g>
			<g>
				<path class="st3" d="M77.578,105.293c-0.747,0-3.523-0.343-7.115-4.959l0.534-0.416c3.86,4.958,6.662,4.698,6.69,4.693
					l0.086,0.671C77.756,105.285,77.69,105.293,77.578,105.293z"/>
			</g>
		</g>
	</g>
	<g>
		<g>
			<g>
				<path class="st3" d="M79.564,101.927l-0.528-0.422c2.632-3.286,7.012-1.712,7.056-1.696l-0.235,0.635
					c-0.01-0.004-0.991-0.359-2.249-0.359c-0.017,0-0.033,0-0.05,0C81.876,100.097,80.533,100.717,79.564,101.927z"/>
			</g>
		</g>
	</g>
	<g>
		<g>
			<g>
				
					<rect x="68.252" y="79.809" transform="matrix(0.2696 -0.963 0.963 0.2696 -32.3953 128.6215)" class="st3" width="0.677" height="11.714"/>
			</g>
		</g>
	</g>
	<g>
		<g>
			<g>
				<rect x="60.242" y="90.401" class="st3" width="9.021" height="0.677"/>
			</g>
		</g>
	</g>
	<g>
		<g>
			<g>
				<path class="st5" d="M96.402,119.546"/>
			</g>
		</g>
	</g>
	<g>
		<g>
			<g>
				<path class="st3" d="M94.392,117.194c-0.107,0-0.217-0.026-0.324-0.075c-0.293-0.137-0.543-0.452-0.667-0.841l0,0
					c-0.213-0.669-0.013-1.343,0.456-1.534c0.185-0.075,0.386-0.066,0.581,0.025c0.293,0.137,0.543,0.452,0.667,0.841
					c0.213,0.669,0.013,1.343-0.456,1.534C94.566,117.176,94.48,117.194,94.392,117.194z M93.722,116.173
					c0.096,0.301,0.278,0.54,0.488,0.637c0.11,0.051,0.214,0.058,0.31,0.018c0.296-0.121,0.415-0.634,0.261-1.119
					c-0.096-0.301-0.278-0.54-0.488-0.637c-0.11-0.051-0.215-0.058-0.31-0.018C93.688,115.177,93.568,115.689,93.722,116.173
					L93.722,116.173z"/>
			</g>
		</g>
	</g>
	<g>
		<g>
			<g>
				<path class="st3" d="M94.246,117.234c-0.437,0-1.213-0.269-2.437-1.545l0.244-0.234c1.767,1.842,2.418,1.39,2.425,1.384
					l0.22,0.257C94.664,117.126,94.522,117.234,94.246,117.234z"/>
			</g>
		</g>
	</g>
	<g>
		<g>
			<g>
				<path class="st3" d="M98.415,117.232c-0.088,0-0.174-0.017-0.256-0.051c-0.468-0.192-0.669-0.865-0.456-1.534
					c0.124-0.389,0.374-0.704,0.667-0.841c0.196-0.092,0.398-0.1,0.581-0.025c0.468,0.191,0.669,0.865,0.456,1.534
					c-0.124,0.389-0.374,0.704-0.667,0.841C98.632,117.208,98.522,117.232,98.415,117.232z M98.694,115.069
					c-0.058,0-0.118,0.015-0.181,0.044c-0.209,0.097-0.391,0.336-0.488,0.637c-0.154,0.485-0.035,0.997,0.261,1.119
					c0.096,0.039,0.2,0.033,0.31-0.018c0.209-0.098,0.391-0.336,0.488-0.637l0,0c0.154-0.485,0.035-0.997-0.261-1.118
					C98.781,115.078,98.738,115.069,98.694,115.069z"/>
			</g>
		</g>
	</g>
	<g>
		<g>
			<g>
				<path class="st3" d="M98.561,117.281c-0.277,0-0.418-0.108-0.451-0.137l0.22-0.257c0.006,0.005,0.657,0.458,2.425-1.384
					l0.244,0.234C99.774,117.011,98.998,117.281,98.561,117.281z"/>
			</g>
		</g>
	</g>
	<g>
		<g>
			<g>
				<path class="st5" d="M96.573,119.568"/>
			</g>
		</g>
	</g>
	<g>
		<g>
			<g>
				<path class="st3" d="M98.582,117.216c-0.088,0-0.174-0.017-0.257-0.051c-0.468-0.191-0.669-0.865-0.456-1.534
					c0.124-0.389,0.373-0.704,0.667-0.841c0.197-0.092,0.398-0.1,0.581-0.025c0.468,0.192,0.669,0.865,0.456,1.534
					c-0.124,0.389-0.374,0.704-0.667,0.841C98.8,117.191,98.689,117.216,98.582,117.216z M98.861,115.053
					c-0.058,0-0.118,0.015-0.182,0.044c-0.209,0.098-0.391,0.336-0.488,0.637c-0.154,0.485-0.035,0.997,0.261,1.118
					c0.096,0.039,0.2,0.033,0.31-0.018c0.209-0.097,0.391-0.336,0.488-0.637l0,0c0.154-0.485,0.035-0.997-0.261-1.119
					C98.948,115.061,98.906,115.053,98.861,115.053z"/>
			</g>
		</g>
	</g>
	<g>
		<g>
			<g>
				<path class="st3" d="M98.609,117.246c-0.022,0-0.044-0.001-0.065-0.004c-0.202-0.022-0.284-0.139-0.298-0.162l0.144-0.088
					l0.133-0.104c0.005,0.004,0.44,0.255,2.06-1.434l0.244,0.234C99.836,116.723,99.09,117.246,98.609,117.246z"/>
			</g>
		</g>
	</g>
	<g>
		<g>
			<g>
				<path class="st3" d="M94.559,117.254c-0.107,0-0.217-0.026-0.324-0.075c-0.293-0.137-0.543-0.452-0.667-0.841l0,0
					c-0.213-0.669-0.013-1.343,0.456-1.534c0.184-0.075,0.385-0.067,0.581,0.025c0.293,0.137,0.543,0.452,0.667,0.841
					c0.213,0.669,0.013,1.343-0.456,1.534C94.734,117.238,94.647,117.254,94.559,117.254z M93.891,116.235
					c0.096,0.301,0.278,0.54,0.488,0.637c0.11,0.051,0.214,0.058,0.31,0.018c0.296-0.121,0.416-0.633,0.261-1.118
					c-0.096-0.301-0.278-0.54-0.488-0.637c-0.11-0.051-0.215-0.058-0.31-0.018C93.856,115.238,93.736,115.75,93.891,116.235
					L93.891,116.235z"/>
			</g>
		</g>
	</g>
	<g>
		<g>
			<g>
				<path class="st3" d="M94.536,117.232c-0.456,0-1.47-0.215-2.934-1.74l0.244-0.234c1.822,1.899,2.844,1.624,2.855,1.621
					l0.104,0.322C94.793,117.204,94.702,117.232,94.536,117.232z"/>
			</g>
		</g>
	</g>
	<g>
		<g>
			<g>
				<path class="st5" d="M96.402,119.546"/>
			</g>
		</g>
	</g>
	<g>
		<g>
			<g>
				<path class="st3" d="M98.411,117.194c-0.088,0-0.174-0.017-0.257-0.051c-0.468-0.192-0.668-0.865-0.456-1.534
					c0.124-0.389,0.374-0.704,0.667-0.841c0.196-0.092,0.398-0.1,0.581-0.025c0.468,0.192,0.669,0.865,0.456,1.534l0,0
					c-0.124,0.389-0.374,0.704-0.667,0.841C98.628,117.168,98.519,117.194,98.411,117.194z M98.69,115.03
					c-0.058,0-0.118,0.015-0.181,0.044c-0.209,0.097-0.391,0.336-0.488,0.637c-0.154,0.485-0.035,0.997,0.261,1.119
					c0.096,0.039,0.2,0.033,0.31-0.018c0.209-0.097,0.391-0.336,0.488-0.637l0,0c0.154-0.485,0.035-0.997-0.261-1.118
					C98.778,115.038,98.734,115.03,98.69,115.03z"/>
			</g>
		</g>
	</g>
	<g>
		<g>
			<g>
				<path class="st3" d="M94.388,117.232c-0.107,0-0.217-0.026-0.325-0.076c-0.293-0.137-0.543-0.452-0.667-0.841l0,0
					c-0.213-0.669-0.013-1.343,0.456-1.534c0.185-0.075,0.386-0.067,0.581,0.025c0.293,0.137,0.543,0.452,0.667,0.841
					c0.213,0.669,0.013,1.343-0.456,1.534C94.563,117.216,94.477,117.232,94.388,117.232z M94.109,115.069
					c-0.044,0-0.087,0.008-0.129,0.026c-0.296,0.121-0.416,0.633-0.261,1.118l0,0c0.096,0.301,0.278,0.54,0.488,0.637
					c0.11,0.051,0.214,0.057,0.31,0.018c0.296-0.121,0.415-0.634,0.261-1.119c-0.096-0.301-0.278-0.54-0.488-0.637
					C94.229,115.083,94.168,115.069,94.109,115.069z"/>
			</g>
		</g>
	</g>
	<g>
		<g>
			<g>
				<path class="st5" d="M96.23,119.568"/>
			</g>
		</g>
	</g>
	<g>
		<g>
			<g>
				<path class="st3" d="M81.807,115.892c-0.1-0.033-10.075-3.29-19.002-0.838l-0.179-0.652c9.128-2.507,19.293,0.815,19.395,0.848
					L81.807,115.892z"/>
			</g>
		</g>
	</g>
	<g>
		<g>
			<g>
				
					<rect x="63.846" y="117.775" transform="matrix(0.9996 -0.0283 0.0283 0.9996 -3.3134 2.1082)" class="st3" width="17.955" height="0.677"/>
			</g>
		</g>
	</g>
	<g>
		<g>
			<g>
				<path class="st3" d="M63.057,127.865l-0.45-0.505c7.439-6.622,19.041-7.824,19.158-7.836l0.066,0.673
					C81.717,120.208,70.329,121.392,63.057,127.865z"/>
			</g>
		</g>
	</g>
	<g>
		<g>
			<g>
				
					<rect x="86.527" y="86.758" transform="matrix(0.8727 -0.4882 0.4882 0.8727 -33.1597 53.9305)" class="st3" width="0.677" height="7.624"/>
			</g>
		</g>
	</g>
	<g>
		<g>
			<g>
				
					<rect x="90.115" y="85.649" transform="matrix(0.0083 -1 1 0.0083 6.6958 178.7257)" class="st3" width="6.682" height="0.677"/>
			</g>
		</g>
	</g>
	<g>
		<g>
			<g>
				
					<rect x="87.051" y="78.3" transform="matrix(0.9625 -0.2712 0.2712 0.9625 -18.806 26.7521)" class="st3" width="0.677" height="6.238"/>
			</g>
		</g>
	</g>
	<g>
		<g>
			<g>
				
					<rect x="79.626" y="137.685" transform="matrix(0.4297 -0.903 0.903 0.4297 -75.8374 155.9732)" class="st3" width="11.863" height="0.677"/>
			</g>
		</g>
	</g>
	<g>
		<g>
			<g>
				<path class="st3" d="M65.419,138.361l-0.431-0.522c8.284-6.829,18.468-11.42,18.57-11.466l0.276,0.617
					C83.734,127.036,73.63,131.592,65.419,138.361z"/>
			</g>
		</g>
	</g>
	<g>
		<g>
			<g>
				<path class="st4" d="M92.148,124.761c0,0.853,0.541,1.457,1.127,1.861c0.672,0.464,1.419,0.676,2.168,0.676h0.436h0.385h0.93
					c0.749,0,1.495-0.212,2.168-0.676c0.586-0.404,1.127-1.008,1.127-1.861H92.148z"/>
			</g>
		</g>
		<g>
			<g>
				<path class="st3" d="M97.194,127.637h-1.751c-0.846,0-1.662-0.254-2.36-0.736c-0.833-0.575-1.273-1.314-1.273-2.14v-0.338h9.017
					v0.338c0,0.825-0.44,1.565-1.273,2.14C98.856,127.382,98.04,127.637,97.194,127.637z M92.522,125.1
					c0.102,0.464,0.418,0.882,0.944,1.245c0.592,0.409,1.257,0.616,1.976,0.616h1.751c0.718,0,1.383-0.208,1.976-0.616
					c0.525-0.363,0.842-0.78,0.944-1.245H92.522z"/>
			</g>
		</g>
	</g>
	<g>
		<g>
			<g>
				
					<rect x="53.732" y="108.04" transform="matrix(0.9684 -0.2495 0.2495 0.9684 -25.091 18.8014)" class="st3" width="15.778" height="0.677"/>
			</g>
		</g>
	</g>
	<g>
		<g>
			<g>
				
					<rect x="53.935" y="102.153" transform="matrix(0.9928 -0.1196 0.1196 0.9928 -11.8246 7.9607)" class="st3" width="12.948" height="0.677"/>
			</g>
		</g>
	</g>
	<g>
		<g>
			<g>
				<path class="st3" d="M98.601,125.059c-0.631,0-1.173-0.018-1.576-0.039c-0.548-0.028-1.109-0.028-1.663-0.003
					c-1.635,0.074-4.76,0.085-7.317-0.68c-2.645-0.791-4.199-3.606-3.463-6.275l0.903-3.274l0.978,0.27l-0.903,3.274
					c-0.591,2.141,0.655,4.398,2.775,5.033c2.414,0.722,5.411,0.71,6.98,0.638c0.588-0.027,1.18-0.026,1.761,0.003
					c1.671,0.083,5.838,0.142,8.444-1.109c1.426-0.685,2.157-2.393,1.697-3.974l-1.189-4.097l0.974-0.283l1.189,4.097
					c0.596,2.052-0.365,4.275-2.233,5.172C103.792,124.852,100.705,125.059,98.601,125.059z"/>
			</g>
		</g>
	</g>
	<g>
		<g>
			<g>
				<rect x="96.067" y="72.978" class="st3" width="0.677" height="7.274"/>
			</g>
		</g>
	</g>
	<g>
		<g>
			<g>
				
					<rect x="106.536" y="85.664" transform="matrix(0.4579 -0.889 0.889 0.4579 -14.3715 148.4357)" class="st3" width="15.981" height="0.677"/>
			</g>
		</g>
	</g>
	<g>
		<g>
			<g>
				
					<rect x="77.842" y="80.391" transform="matrix(0.8581 -0.5134 0.5134 0.8581 -33.9151 52.5753)" class="st3" width="0.677" height="14.537"/>
			</g>
		</g>
	</g>
	<g>
		<g>
			<g>
				<circle class="st3" cx="87.4" cy="118.112" r="0.422"/>
			</g>
		</g>
	</g>
	<g>
		<g>
			<g>
				<circle class="st3" cx="88.823" cy="121.274" r="0.422"/>
			</g>
		</g>
	</g>
	<g>
		<g>
			<g>
				<circle class="st3" cx="89.246" cy="116.152" r="0.422"/>
			</g>
		</g>
	</g>
	<g>
		<g>
			<g>
				<circle class="st3" cx="90.521" cy="119.169" r="0.422"/>
			</g>
		</g>
	</g>
	<g>
		<g>
			<g>
				<circle class="st3" cx="105.583" cy="118.048" r="0.422"/>
			</g>
		</g>
	</g>
	<g>
		<g>
			<g>
				<circle class="st3" cx="104.159" cy="121.208" r="0.422"/>
			</g>
		</g>
	</g>
	<g>
		<g>
			<g>
				<circle class="st3" cx="103.737" cy="116.087" r="0.422"/>
			</g>
		</g>
	</g>
	<g>
		<g>
			<g>
				<circle class="st3" cx="102.462" cy="119.105" r="0.422"/>
			</g>
		</g>
	</g>
</g>
</svg>
