<?xml version="1.0" encoding="utf-8"?>
<!-- Generator: Adobe Illustrator 21.1.0, SVG Export Plug-In . SVG Version: 6.00 Build 0)  -->
<svg version="1.1" id="Layer_3" xmlns="http://www.w3.org/2000/svg" xmlns:xlink="http://www.w3.org/1999/xlink" x="0px" y="0px"
	 viewBox="0 0 707.072 257.5" style="enable-background:new 0 0 707.072 257.5;" xml:space="preserve">
<style type="text/css">
	.st0{fill:#333333;}
</style>
<g>
	<path class="st0" d="M672.866,224.708H34.134c-1.728,0-3.134-1.406-3.134-3.134V27.134c0-1.728,1.406-3.134,3.134-3.134h638.733
		c1.728,0,3.134,1.406,3.134,3.134v194.44C676,223.303,674.594,224.708,672.866,224.708z M34.134,24.142
		c-1.65,0-2.993,1.342-2.993,2.993v194.44c0,1.65,1.342,2.993,2.993,2.993h638.733c1.65,0,2.993-1.343,2.993-2.993V27.134
		c0-1.65-1.343-2.993-2.993-2.993C672.866,24.142,34.134,24.142,34.134,24.142z"/>
</g>
</svg>
