<?xml version="1.0" encoding="utf-8"?>
<!-- Generator: Adobe Illustrator 21.1.0, SVG Export Plug-In . SVG Version: 6.00 Build 0)  -->
<svg version="1.1" id="Layer_7" xmlns="http://www.w3.org/2000/svg" xmlns:xlink="http://www.w3.org/1999/xlink" x="0px" y="0px"
	 viewBox="0 0 676 515" style="enable-background:new 0 0 676 515;" xml:space="preserve">
<style type="text/css">
	.st0{fill:none;stroke:#333333;stroke-width:3;stroke-miterlimit:10;}
	.st1{fill:#B3D5BB;}
	.st2{fill:#333333;}
	.st3{fill:#FFFFFF;}
</style>
<g>
	<g>
		<path class="st0" d="M210.501,302.167"/>
	</g>
	<g>
		<path class="st0" d="M210.501,248.167"/>
	</g>
	<g>
		<rect x="96.148" y="87.561" class="st1" width="470.097" height="346"/>
		<path class="st2" d="M567.744,435.062H94.648v-349h473.096V435.062z M97.648,432.062h467.096v-343H97.648V432.062z"/>
	</g>
	<g>
		<polyline class="st3" points="128.501,205.5 236.501,133.5 535.501,133.5 535.501,366.75 130.07,366.75 130.07,205.5 		"/>
		<path class="st2" d="M537.001,368.25H128.57V205.603l-0.901-1.351L236.047,132h300.954V368.25z M131.57,365.25h402.431V135
			H236.956l-105.75,70.5h0.365V365.25z"/>
	</g>
	<g>
		<rect x="447.001" y="133.5" class="st2" width="3" height="233.25"/>
	</g>
	<g>
		<rect x="349.001" y="133.5" class="st2" width="3" height="233.25"/>
	</g>
	<g>
		<rect x="254.001" y="133.5" class="st2" width="3" height="233.25"/>
	</g>
	<g>
		<rect x="281.501" y="223.5" class="st2" width="45" height="3"/>
	</g>
	<g>
		<rect x="302.502" y="202.5" class="st2" width="3" height="45"/>
	</g>
	<g>
		<rect x="380.501" y="313.5" class="st2" width="45" height="3"/>
	</g>
	<g>
		<rect x="401.503" y="292.5" class="st2" width="3" height="45"/>
	</g>
	<g>
		<g transform="translate(0,-952.36218)">
			<g>
				<path class="st3" d="M609.721,1308.392c0,16.45-6.51,27.12-12.32,35.33c-5.8,8.21-10.36,13.78-10.36,22.52v20.94
					c0,6.88-5.71,12.21-12.22,12.21h-0.16c-0.86,5.87-5.97,10.47-12.05,10.47c-6.09,0-11.19-4.6-12.05-10.47h-0.16
					c-6.5,0-12.22-5.33-12.22-12.21v-20.94c0-8.74-4.55-14.31-10.36-22.52c-5.8-8.21-12.32-18.88-12.32-35.33
					c0-26.44,23.13-45.1,47.11-45.1C586.601,1263.292,609.721,1281.951,609.721,1308.392z"/>
				<path class="st2" d="M562.611,1411.361c-6.312,0-11.819-4.438-13.293-10.512c-7.061-0.555-12.637-6.473-12.637-13.668v-20.94
					c0-7.523-3.625-12.601-8.644-19.628c-0.47-0.658-0.951-1.333-1.441-2.025c-6.542-9.261-12.596-20.055-12.596-36.196
					c0-12.84,5.347-24.764,15.055-33.576c9.118-8.276,21.349-13.024,33.556-13.024c12.211,0,24.442,4.748,33.56,13.024
					c9.706,8.812,15.051,20.735,15.051,33.576c0,16.168-6.054,26.951-12.596,36.196c-0.501,0.709-0.992,1.398-1.474,2.072
					c-4.999,7.011-8.611,12.075-8.611,19.581v20.94c0,7.195-5.576,13.113-12.637,13.668
					C574.431,1406.923,568.924,1411.361,562.611,1411.361z M562.611,1264.791c-28.172,0-45.61,22.632-45.61,43.601
					c0,15.304,5.789,25.608,12.046,34.465c0.486,0.688,0.965,1.358,1.433,2.014c5.142,7.2,9.202,12.887,9.202,21.371v20.94
					c0,5.905,4.809,10.71,10.72,10.71h1.457l0.188,1.283c0.767,5.237,5.309,9.187,10.565,9.187s9.799-3.949,10.565-9.187
					l0.188-1.283h1.457c5.911,0,10.72-4.805,10.72-10.71v-20.94c0-8.466,4.046-14.14,9.169-21.323
					c0.479-0.67,0.968-1.356,1.466-2.062c6.257-8.842,12.046-19.136,12.046-34.465
					C608.222,1287.423,590.783,1264.791,562.611,1264.791z"/>
			</g>
		</g>
		<g>
			<path class="st3" d="M587.041,418.929v15.89c0,6.88-5.71,12.21-12.22,12.21h-0.16c-0.86,5.87-5.97,10.47-12.05,10.47
				c-6.09,0-11.19-4.6-12.05-10.47h-0.16c-6.5,0-12.22-5.33-12.22-12.21v-15.89H587.041z"/>
			<path class="st2" d="M562.611,458.999c-6.312,0-11.819-4.438-13.293-10.512c-7.061-0.555-12.637-6.473-12.637-13.668v-17.39
				h51.859v17.39c0,7.195-5.576,13.113-12.637,13.668C574.431,454.561,568.924,458.999,562.611,458.999z M539.682,420.43v14.39
				c0,5.905,4.809,10.71,10.72,10.71h1.457l0.188,1.283c0.767,5.237,5.309,9.187,10.565,9.187s9.799-3.949,10.565-9.187l0.188-1.283
				h1.457c5.911,0,10.72-4.805,10.72-10.71v-14.39H539.682z"/>
		</g>
	</g>
	<g transform="translate(0,-952.36218)">
		<g>
			<path class="st2" d="M562.613,1411.362c-6.312,0-11.819-4.438-13.292-10.512c-7.062-0.554-12.641-6.473-12.641-13.668v-20.938
				c0-7.525-3.625-12.602-8.641-19.627c-0.471-0.658-0.951-1.332-1.441-2.024c-6.543-9.262-12.598-20.057-12.598-36.203
				c0-12.838,5.347-24.761,15.054-33.572c9.119-8.278,21.351-13.026,33.559-13.026s24.44,4.748,33.559,13.026
				c9.708,8.812,15.054,20.734,15.054,33.572c0,16.146-6.055,26.941-12.598,36.202c-0.49,0.693-0.971,1.367-1.441,2.025
				c-5.016,7.025-8.641,12.102-8.641,19.627v20.938c0,7.195-5.578,13.114-12.641,13.668
				C574.433,1406.924,568.926,1411.362,562.613,1411.362z M562.613,1264.791c-28.174,0-45.612,22.631-45.612,43.599
				c0,15.31,5.79,25.615,12.047,34.472c0.487,0.688,0.966,1.357,1.434,2.013c5.14,7.198,9.199,12.884,9.199,21.37v20.938
				c0,5.905,4.811,10.71,10.723,10.71h1.458l0.188,1.283c0.766,5.237,5.308,9.187,10.564,9.187s9.799-3.949,10.564-9.187
				l0.188-1.283h1.458c5.912,0,10.723-4.805,10.723-10.71v-20.938c0-8.486,4.06-14.172,9.199-21.37
				c0.468-0.655,0.946-1.325,1.434-2.014c6.257-8.855,12.047-19.161,12.047-34.471
				C608.226,1287.422,590.787,1264.791,562.613,1264.791z"/>
		</g>
	</g>
	<g>
		<rect x="538.636" y="430.1" class="st2" width="48.865" height="3"/>
	</g>
	<g>
		<rect x="547.487" y="445.22" class="st2" width="30.253" height="3"/>
	</g>
	<g>
		<rect x="380.501" y="222" class="st2" width="45" height="3"/>
	</g>
	<g>
		<rect x="281.501" y="318" class="st2" width="45" height="3"/>
	</g>
	<g>
		
			<rect x="609.229" y="304.157" transform="matrix(0.7071 -0.7071 0.7071 0.7071 -32.421 533.0427)" class="st2" width="36" height="3"/>
	</g>
	<g>
		
			<rect x="499.729" y="289.202" transform="matrix(0.7071 -0.7071 0.7071 0.7071 -70.4178 444.3997)" class="st2" width="3" height="36"/>
	</g>
	<g>
		<rect x="470.501" y="381.43" class="st2" width="36" height="3"/>
	</g>
	<g>
		<rect x="623.501" y="381.43" class="st2" width="36" height="3"/>
	</g>
	<g>
		<rect x="236.501" y="182" class="st2" width="299" height="3"/>
	</g>
	<g>
		<rect x="130.07" y="273.625" class="st2" width="405.431" height="3"/>
	</g>
	<g>
		<rect x="245.501" y="132" class="st2" width="292.27" height="3"/>
	</g>
	<g>
		<rect x="15.728" y="52.5" class="st3" width="220.774" height="180"/>
		<path class="st2" d="M238.001,234H14.228V51h223.774V234z M17.228,231h217.774V54H17.228V231z"/>
	</g>
	<g>
		<rect x="43.545" y="169.5" class="st1" width="36" height="63"/>
		<path class="st2" d="M81.045,234h-39v-66h39V234z M45.045,231h33v-60h-33V231z"/>
	</g>
	<g>
		<rect x="106.545" y="115.5" class="st1" width="36" height="117"/>
		<path class="st2" d="M144.045,234h-39V114h39V234z M108.045,231h33V117h-33V231z"/>
	</g>
	<g>
		<rect x="169.545" y="142.5" class="st1" width="36" height="90"/>
		<path class="st2" d="M207.045,234h-39v-93h39V234z M171.045,231h33v-87h-33V231z"/>
	</g>
</g>
</svg>
