<?xml version="1.0" encoding="utf-8"?>
<!-- Generator: Adobe Illustrator 20.0.0, SVG Export Plug-In . SVG Version: 6.00 Build 0)  -->
<svg version="1.1" id="Layer_1" xmlns="http://www.w3.org/2000/svg" xmlns:xlink="http://www.w3.org/1999/xlink" x="0px" y="0px"
	 viewBox="0 0 570 570" style="enable-background:new 0 0 570 570;" xml:space="preserve">
<style type="text/css">
	.st0{fill:#EC1E74;}
	.st1{fill:#E3EFF3;}
</style>
<g>
	<polygon class="st0" points="395.7,187.2 395.6,187.3 395.5,187.2 	"/>
</g>
<path class="st1" d="M444.9,129.4l-0.1-0.1l-0.3-0.5l-33.4-59.4l-0.1-0.2l-90.9-55.3l-91.4,42.2l-35.2,10.1l-43.5,49.5l-0.2,0.2
	L50.7,463.9l125.6,9l0.2,0l1.2,0.1l102,76h95.7L499,455.5v-289L444.9,129.4z M497,213.6l-37.1-21.3l37.1-23.5V213.6z M496.2,167
	l-37.5,23.8l-13.1-58.5L496.2,167z M456.7,191.2l-60.3-5.9l-31.3-33l78.1-21L456.7,191.2z M330.4,180.8l65,6.4l0.3,0l58.8,5.8
	l-102.8,53.2L330.4,180.8z M350,247.1l-5.4,2.8h0L237.2,212l0-0.2l91.1-30.9L350,247.1z M330,178.8l-3.5-64.5l66.9,70.7L330,178.8z
	 M328,179l-90.2,30.6l13.1-57.9l73.5-38.4L328,179z M235.5,210.3l-28.8,9.7l-10.3-53l52.2-14.6L235.5,210.3z M206.8,222.1l28.2-9.5
	l27.7,153.1C250,350,194.4,281,187.9,274L206.8,222.1z M237.3,214.2l105.8,37.3l-78.2,115.2L237.3,214.2z M345.3,251.8l5.2-2.7
	l29.5,90.2l-113.4,28.4L345.3,251.8z M380.3,341.3l-3.2,75.5l-109.6-47.2L380.3,341.3z M352.4,248.1l10.9-5.7l46.3,40.9l-28.1,54.1
	L352.4,248.1z M365.2,241.5l90.4-46.8l-45.1,86.8L365.2,241.5z M442.5,129.4l-78.9,21.2L327,112l82.9-40.8L442.5,129.4z M408.2,69.8
	l-82,40.3l-5.1-93.3L408.2,69.8z M319.1,16.5l5.1,93.3l-93-52.8L319.1,16.5z M228.9,58.1l94.4,53.6l-72.9,38.1l-54.8-82.1
	L228.9,58.1z M151.6,116.8l42.3-48.2l54.5,81.8l-53,14.9l-51.9-19.9L151.6,116.8z M142.9,147.3l48.7,18.7l-56.8,9.7L142.9,147.3z
	 M134.2,177.8l60.3-10.3l10.3,53.1l-90.2,25.9L134.2,177.8z M114,248.8l90.4-26L169,319.9l-58.2-7.2l-7.1-27.6L114,248.8z
	 M102.6,289l6.4,24.7l-17.5,76.5L72.1,396L102.6,289z M53.3,462.1l18.2-63.8l20-6l6.1,72.9L53.3,462.1z M99.6,465.4l-6-71.9
	l81.7,77.3L99.6,465.4z M93.4,390.7l17.3-75.9l57.9,7.1l7.4,146.9L93.4,390.7z M170.7,321.1l16.4-45c7.9,9,56.1,68.7,75.9,93.2
	L178,468L170.7,321.1z M279.3,546.2l-101.1-75.4l86.4-100.3l42.7,18.4L279.3,546.2z M281.2,547l14.7-82.5l76.8,82.5H281.2z
	 M375.1,546.7L296.3,462l12.9-72.2l67.9,29.3l20.5,110.6L375.1,546.7z M399.4,528.3l-20.3-109.2l59.4-14.5l57.8,50.4L399.4,528.3z
	 M497,452.8L441,404l56-13.7V452.8z M497,388.2L379,417l3.3-76.8l28.9-55.7l85.8,56.7V388.2z M497,338.8l-82-54.2l82,9.9V338.8z
	 M497,292.5l-84.6-10.2l46-88.6l38.6,22.2V292.5z"/>
</svg>
