<?xml version="1.0" encoding="utf-8"?>
<!-- Generator: Adobe Illustrator 20.0.0, SVG Export Plug-In . SVG Version: 6.00 Build 0)  -->
<svg version="1.1" id="Layer_1" xmlns="http://www.w3.org/2000/svg" xmlns:xlink="http://www.w3.org/1999/xlink" x="0px" y="0px"
	 viewBox="0 0 100 100" style="enable-background:new 0 0 100 100;" xml:space="preserve">
<style type="text/css">
	.st0{fill:#FFFFFF;}
</style>
<g>
	<g>
		<path class="st0" d="M59.7,61.8H40.2l-0.4-9.9l-4.4-7.1c-2.9-4.7-3.6-10.4-1.7-15.3c1.6-4.3,4.9-7.6,9.5-9.5
			c4.7-1.9,10-1.9,14.6,0.1s7.8,5.8,9.1,10.9c1.1,4.5,0.3,9.5-2.2,13.6l-4.9,7.8L59.7,61.8L59.7,61.8z M42.2,59.8h15.5v-8l5.2-8.3
			c2.3-3.7,3-8,2-12.1c-1.1-4.5-3.8-7.8-7.9-9.6s-8.8-1.8-13-0.1c-4.1,1.7-6.9,4.5-8.4,8.4c-1.6,4.3-1,9.4,1.6,13.5l4.7,7.6
			L42.2,59.8z"/>
	</g>
	<g>
		<rect x="41.4" y="65.7" class="st0" width="17" height="2"/>
	</g>
	<g>
		<rect x="45.4" y="71" class="st0" width="9" height="2"/>
	</g>
</g>
</svg>
