<?xml version="1.0" encoding="utf-8"?>
<!-- Generator: Adobe Illustrator 20.0.0, SVG Export Plug-In . SVG Version: 6.00 Build 0)  -->
<svg version="1.1" id="Layer_1" xmlns="http://www.w3.org/2000/svg" xmlns:xlink="http://www.w3.org/1999/xlink" x="0px" y="0px"
	 viewBox="0 0 100 100" style="enable-background:new 0 0 100 100;" xml:space="preserve">
<style type="text/css">
	.st0{fill:#E0C1A5;}
</style>
<g>
	<path class="st0" d="M29.3,54.2c-0.1,0.3-0.1,0.7-0.2,1c0,0,0,0-0.1,0C29.1,54.8,29.2,54.5,29.3,54.2z"/>
</g>
<g>
	<path class="st0" d="M33.8,59.8L33.8,59.8c-0.1,0-0.1,0-0.2,0L33.8,59.8z"/>
</g>
<g>
	<g>
		<path d="M48.4,38.9c-2.2,0-3.9-1.8-3.9-3.9v-7.3c0-2.2,1.8-3.9,3.9-3.9s3.9,1.8,3.9,3.9V35C52.3,37.2,50.6,38.9,48.4,38.9z
			 M48.4,25.8c-1.1,0-1.9,0.9-1.9,1.9V35c0,1.1,0.9,1.9,1.9,1.9s1.9-0.9,1.9-1.9v-7.3C50.3,26.6,49.5,25.8,48.4,25.8z"/>
	</g>
	<g>
		<path d="M48.4,73.1c-2.2,0-3.9-1.8-3.9-3.9v-7.3c0-2.2,1.8-3.9,3.9-3.9s3.9,1.8,3.9,3.9v7.3C52.3,71.3,50.6,73.1,48.4,73.1z
			 M48.4,59.9c-1.1,0-1.9,0.9-1.9,1.9v7.3c0,1.1,0.9,1.9,1.9,1.9s1.9-0.9,1.9-1.9v-7.3C50.3,60.8,49.5,59.9,48.4,59.9z"/>
	</g>
	<g>
		<path d="M35.1,52.3h-7.3c-2.2,0-3.9-1.8-3.9-3.9s1.8-3.9,3.9-3.9h7.3c2.2,0,3.9,1.8,3.9,3.9S37.3,52.3,35.1,52.3z M27.8,46.5
			c-1.1,0-1.9,0.9-1.9,1.9s0.9,1.9,1.9,1.9h7.3c1.1,0,1.9-0.9,1.9-1.9s-0.9-1.9-1.9-1.9H27.8z"/>
	</g>
	<g>
		<path d="M69.3,52.3H62c-2.2,0-3.9-1.8-3.9-3.9s1.8-3.9,3.9-3.9h7.3c2.2,0,3.9,1.8,3.9,3.9S71.5,52.3,69.3,52.3z M62,46.5
			c-1.1,0-1.9,0.9-1.9,1.9s0.9,1.9,1.9,1.9h7.3c1.1,0,1.9-0.9,1.9-1.9s-0.9-1.9-1.9-1.9H62z"/>
	</g>
	<g>
		<path d="M39.2,43.1C39.1,43.1,39.1,43.1,39.2,43.1c-1.1,0-2.1-0.4-2.8-1.2l-5.1-5.2c-0.7-0.7-1.1-1.7-1.1-2.8s0.4-2,1.2-2.8
			C32,30.4,33,30,34.1,30c1,0,2,0.4,2.8,1.2l5.1,5.2c1.5,1.5,1.5,4-0.1,5.5l0,0C41.2,42.7,40.2,43.1,39.2,43.1z M34,32
			c-0.5,0-1,0.2-1.3,0.5c-0.8,0.7-0.8,2,0,2.7l5.1,5.2c0.4,0.4,0.8,0.6,1.4,0.6c0.5,0,1-0.2,1.4-0.5l0,0c0.8-0.7,0.8-2,0-2.7
			l-5.1-5.2C35,32.2,34.5,32,34,32z"/>
	</g>
	<g>
		<path d="M63.1,67.5C63.1,67.5,63.1,67.5,63.1,67.5c-1.1,0-2.1-0.4-2.8-1.2l-5.1-5.2c-0.7-0.7-1.1-1.7-1.1-2.8c0-1,0.4-2,1.2-2.8
			c1.5-1.5,4-1.5,5.5,0.1l5.1,5.2c0.7,0.7,1.1,1.7,1.1,2.8c0,1-0.4,2-1.2,2.8C65.1,67.1,64.1,67.5,63.1,67.5z M58,56.4
			c-0.5,0-1,0.2-1.3,0.5c-0.4,0.4-0.6,0.8-0.6,1.4c0,0.5,0.2,1,0.5,1.4l5.1,5.2c0.4,0.4,0.8,0.6,1.4,0.6c0.5,0,1-0.2,1.4-0.5l0,0
			c0.4-0.4,0.6-0.8,0.6-1.4s-0.2-1-0.5-1.4L59.3,57C58.9,56.6,58.4,56.4,58,56.4z"/>
	</g>
	<g>
		<path d="M58,43.1c-1,0-2-0.4-2.7-1.1c-0.7-0.7-1.2-1.7-1.2-2.8c0-1,0.4-2,1.1-2.8l5.1-5.2C61,30.4,62,30,63,30c1,0,2,0.4,2.8,1.1
			c1.5,1.5,1.6,4,0.1,5.5l-5.1,5.2C60,42.7,59,43.1,58,43.1C58,43.1,58,43.1,58,43.1z M63.1,32C63.1,32,63.1,32,63.1,32
			c-0.5,0-1,0.2-1.4,0.6l-5.1,5.2c-0.4,0.4-0.6,0.8-0.5,1.4c0,0.5,0.2,1,0.6,1.4v0c0.4,0.4,0.9,0.6,1.4,0.5c0.5,0,1-0.2,1.4-0.6
			l5.1-5.2c0.7-0.8,0.7-2,0-2.7C64.1,32.2,63.6,32,63.1,32z"/>
	</g>
</g>
</svg>
