<?xml version="1.0" encoding="utf-8"?>
<!-- Generator: Adobe Illustrator 20.0.0, SVG Export Plug-In . SVG Version: 6.00 Build 0)  -->
<svg version="1.1" id="Layer_1" xmlns="http://www.w3.org/2000/svg" xmlns:xlink="http://www.w3.org/1999/xlink" x="0px" y="0px"
	 viewBox="0 0 100 100" style="enable-background:new 0 0 100 100;" xml:space="preserve">
<style type="text/css">
	.st0{fill:#E0C1A5;}
</style>
<g>
	<g>
		<path class="st0" d="M69.3,49.2c4.2-4.4,6-8.8,4.4-11.7c-1.7-3.2-6.9-4-13.5-2.5c-1.9-6.5-5-10.7-8.6-10.7s-6.7,4.1-8.6,10.5
			c-1-0.2-2-0.4-2.9-0.5c-5.3-0.6-9,0.5-10.4,3.1c-1.6,3,0.2,7.4,4.5,11.9c-4.4,4.5-6.4,9-4.7,12.1c1.2,2.2,3.9,3.2,7.7,3.2
			c1.8,0,3.7-0.2,5.8-0.7c1.9,6.5,5,10.7,8.6,10.7s6.8-4.2,8.7-10.8c2.2,0.5,4.2,0.7,6,0.7c3.7,0,6.5-1,7.7-3.2
			c0.4-0.7,0.6-1.5,0.6-2.4C74.5,56,72.6,52.6,69.3,49.2z M31.3,60.3c-1.1-2.1,0.5-5.8,4.4-9.7c1.7,1.6,3.6,3.1,5.8,4.6
			c0.2,2.4,0.6,4.7,1.1,6.7C36.7,63.1,32.5,62.5,31.3,60.3z M41.3,52.5c-1.6-1.1-2.9-2.3-4.2-3.4c1.2-1.1,2.6-2.2,4.2-3.4
			c-0.1,1.1-0.1,2.3-0.1,3.5C41.2,50.4,41.2,51.5,41.3,52.5z M41.5,43.2c-2.2,1.5-4.1,3-5.8,4.5c-3.8-3.9-5.3-7.5-4.2-9.5
			c0.8-1.4,2.8-2.2,5.8-2.2c0.8,0,1.7,0.1,2.6,0.2c0.9,0.1,1.7,0.2,2.7,0.5C42.1,38.7,41.7,40.9,41.5,43.2z M59.6,41.6
			c-0.9-0.5-1.8-1.1-2.8-1.6c-0.8-0.4-1.6-0.9-2.4-1.2c1.5-0.6,3-1.1,4.5-1.5C59.2,38.6,59.4,40.1,59.6,41.6z M51.6,26.2
			c2.5,0,5.1,3.4,6.7,9.2c-2.1,0.5-4.2,1.3-6.5,2.2c-2.3-1-4.7-1.8-6.9-2.4C46.7,29.5,49.2,26.2,51.6,26.2z M44.5,37.1
			c1,0.3,2.1,0.6,3.1,1c0.6,0.2,1.2,0.4,1.8,0.7c-0.9,0.4-1.8,0.9-2.7,1.4c-1,0.6-2.1,1.2-3,1.8C43.8,40.2,44.1,38.6,44.5,37.1z
			 M43.6,56.5c1.1,0.7,2.2,1.3,3.3,1.9c0.8,0.5,1.7,0.9,2.5,1.3c-1.7,0.7-3.4,1.2-5,1.7C44.1,59.9,43.8,58.2,43.6,56.5z M51.6,72.4
			c-2.5,0-5-3.4-6.7-9.1c2.2-0.6,4.5-1.4,6.9-2.5c2.2,1,4.4,1.7,6.5,2.3C56.7,69,54.1,72.4,51.6,72.4z M58.9,61.2
			c-1.4-0.4-3-0.9-4.5-1.5c0.7-0.4,1.5-0.7,2.2-1.2c1-0.6,2.1-1.1,3-1.8C59.5,58.4,59.2,59.8,58.9,61.2z M59.9,54.3
			c-1.3,0.8-2.7,1.7-4.2,2.5c-1.3,0.7-2.5,1.3-3.8,1.9c-1.3-0.6-2.7-1.2-4-2c-1.6-0.9-3.1-1.8-4.5-2.7c-0.1-1.5-0.2-3-0.2-4.7
			s0.1-3.4,0.2-4.9c1.3-0.9,2.7-1.7,4.2-2.5s2.9-1.5,4.2-2.1c1.3,0.6,2.7,1.2,4,2c1.4,0.8,2.8,1.6,4,2.4c0.1,1.7,0.2,3.4,0.2,5.2
			C60.1,51,60,52.7,59.9,54.3z M66.1,36.2c3,0,5.1,0.8,5.9,2.2c1.1,2-0.4,5.5-4.1,9.4c-1.8-1.6-3.8-3.2-6.1-4.8
			c-0.2-2.2-0.6-4.3-1-6.2C62.8,36.4,64.6,36.2,66.1,36.2z M62,45.5c1.7,1.2,3.2,2.4,4.5,3.6c-1.3,1.2-2.8,2.5-4.5,3.7
			c0.1-1.1,0.1-2.3,0.1-3.5C62.1,48,62.1,46.8,62,45.5z M72.2,60.2c-1.2,2.2-5.5,2.9-11.4,1.5c0.5-1.9,0.8-4,1-6.3
			c2.3-1.6,4.4-3.2,6.1-4.9C71.8,54.5,73.3,58.1,72.2,60.2z"/>
	</g>
	<g>
		<path class="st0" d="M51.6,44.9c-2.4,0-4.3,1.9-4.3,4.3c0,2.4,1.9,4.3,4.3,4.3c2.4,0,4.3-1.9,4.3-4.3C55.9,46.8,54,44.9,51.6,44.9
			z M51.6,51.5c-1.3,0-2.3-1-2.3-2.3s1-2.3,2.3-2.3s2.3,1,2.3,2.3C53.9,50.5,52.9,51.5,51.6,51.5z"/>
	</g>
</g>
</svg>
