<?xml version="1.0" encoding="utf-8"?>
<!-- Generator: Adobe Illustrator 20.0.0, SVG Export Plug-In . SVG Version: 6.00 Build 0)  -->
<svg version="1.1" id="Layer_1" xmlns="http://www.w3.org/2000/svg" xmlns:xlink="http://www.w3.org/1999/xlink" x="0px" y="0px"
	 viewBox="0 0 100 100" style="enable-background:new 0 0 100 100;" xml:space="preserve">
<g>
	<path d="M29,15.9v68.2h42.5V15.9H29z M69.5,82.1H31V69.1h38.5V82.1z M69.5,67.1H31V28h38.5V67.1z M69.5,26H31v-8.1h38.5V26z"/>
</g>
<g>
	<path d="M50.3,78.9c-2.2,0-4.1-1.8-4.1-4.1s1.8-4.1,4.1-4.1c2.2,0,4.1,1.8,4.1,4.1S52.5,78.9,50.3,78.9z M50.3,72.8
		c-1.1,0-2.1,0.9-2.1,2.1c0,1.1,0.9,2.1,2.1,2.1c1.1,0,2.1-0.9,2.1-2.1C52.3,73.7,51.4,72.8,50.3,72.8z"/>
</g>
<g>
	<circle cx="36.9" cy="21.7" r="2"/>
</g>
<g>
	<rect x="47.3" y="20.7" width="5.5" height="2"/>
</g>
</svg>
