<?xml version="1.0" encoding="utf-8"?>
<!-- Generator: Adobe Illustrator 20.0.0, SVG Export Plug-In . SVG Version: 6.00 Build 0)  -->
<svg version="1.1" id="Layer_1" xmlns="http://www.w3.org/2000/svg" xmlns:xlink="http://www.w3.org/1999/xlink" x="0px" y="0px"
	 viewBox="0 0 274.092 106.106" style="enable-background:new 0 0 274.092 106.106;" xml:space="preserve">
<g>
	<g>
		<path d="M52.84,60.944V45.618H38.888v15.326H27.242V21.311h11.646v15.051H52.84V21.311h11.646v39.633H52.84z"/>
		<path d="M87.251,45.536c0,4.175,2.06,6.454,5.823,6.454s5.823-2.279,5.823-6.454V21.311h11.646v25.516
			c0,9.036-7.004,14.804-17.468,14.804s-17.468-5.768-17.468-14.804V21.311h11.646V45.536z"/>
		<path d="M131.577,49.271c0.33,2.252,3.076,3.735,6.208,3.735c3.488,0,5.63-1.4,5.63-3.323c0-1.841-1.456-2.637-5.713-3.406
			l-5.246-0.934c-7.278-1.264-11.233-5.438-11.233-11.646c0-8.02,6.866-13.074,16.314-13.074c10.547,0,16.452,4.834,16.507,12.525
			h-10.629c-0.083-2.473-2.527-3.928-5.658-3.928c-3.048,0-4.971,1.263-4.971,3.24c0,1.896,1.621,2.885,5.383,3.543l5.438,0.935
			c7.69,1.346,11.288,4.999,11.288,11.426c0,8.103-6.784,13.266-17.331,13.266c-10.629,0-16.974-4.449-17.001-12.359H131.577z"/>
		<path d="M164.916,60.944V21.311h11.646V38.12h0.22l12.25-16.809h12.223l-13.046,17.605l13.65,22.027h-13.541l-8.652-14.557
			l-3.104,4.175v10.382H164.916z"/>
		<path d="M221.849,60.944V48.392l-13.541-27.081h12.442l6.949,16.067h0.22l6.949-16.067h12.167l-13.541,27.081v12.552H221.849z"/>
	</g>
	<g>
		<path d="M31.165,71.658c2.042,0,3.482,1.432,3.482,3.49c0,2.065-1.455,3.505-3.498,3.505h-2.736v3.882h-1.357V71.658H31.165z
			 M28.413,77.447h2.397c1.553,0,2.442-0.852,2.442-2.299c0-1.439-0.882-2.284-2.442-2.284h-2.397V77.447z"/>
		<path d="M36.81,74.409h1.236v1.319h0.03c0.241-0.852,1.018-1.395,1.967-1.395c0.234,0,0.43,0.022,0.543,0.045v1.289
			c-0.105-0.038-0.392-0.075-0.716-0.075c-1.055,0-1.749,0.769-1.749,1.915v5.028H36.81V74.409z"/>
		<path d="M41.7,78.472c0-2.525,1.462-4.138,3.747-4.138c2.284,0,3.746,1.613,3.746,4.138c0,2.518-1.462,4.138-3.746,4.138
			C43.163,82.61,41.7,80.99,41.7,78.472z M47.859,78.472c0-1.869-0.897-2.97-2.412-2.97s-2.412,1.108-2.412,2.97
			s0.904,2.97,2.412,2.97C46.962,81.443,47.859,80.334,47.859,78.472z"/>
		<path d="M50.948,78.472c0-2.48,1.433-4.138,3.453-4.138c1.161,0,2.095,0.505,2.593,1.395h0.03v-4.545h1.312v11.352h-1.251v-1.372
			h-0.023c-0.527,0.935-1.455,1.447-2.63,1.447C52.388,82.61,50.948,80.952,50.948,78.472z M52.29,78.472
			c0,1.802,0.95,2.97,2.375,2.97c1.41,0,2.367-1.199,2.367-2.97c0-1.764-0.957-2.97-2.367-2.97
			C53.24,75.503,52.29,76.678,52.29,78.472z"/>
		<path d="M67.592,82.535h-1.236v-1.342h-0.03c-0.505,0.935-1.342,1.417-2.585,1.417c-1.779,0-2.812-1.146-2.812-2.992v-5.209h1.312
			v4.983c0,1.334,0.625,2.05,1.899,2.05c1.334,0,2.141-0.92,2.141-2.314v-4.719h1.312V82.535z"/>
		<path d="M75.574,77.055c-0.166-0.867-0.89-1.553-2.111-1.553c-1.417,0-2.382,1.176-2.382,2.97c0,1.847,0.98,2.97,2.397,2.97
			c1.131,0,1.884-0.528,2.111-1.508h1.289c-0.218,1.583-1.553,2.676-3.407,2.676c-2.231,0-3.724-1.583-3.724-4.138
			c0-2.495,1.485-4.138,3.709-4.138c2.012,0,3.241,1.296,3.407,2.721H75.574z"/>
		<path d="M80.654,72.578v1.832h1.583v1.085h-1.583v4.877c0,0.747,0.316,1.085,1.01,1.085c0.159,0,0.475-0.022,0.565-0.038v1.108
			c-0.158,0.038-0.535,0.067-0.844,0.067c-1.47,0-2.042-0.61-2.042-2.171v-4.93h-1.131v-1.085h1.131v-1.832H80.654z"/>
		<path d="M89.943,79.543c0.128,1.176,1.244,1.953,2.797,1.953c1.47,0,2.54-0.776,2.54-1.847c0-0.919-0.641-1.485-2.103-1.862
			l-1.395-0.362c-2.005-0.512-2.895-1.395-2.895-2.872c0-1.809,1.583-3.076,3.844-3.076c2.164,0,3.731,1.282,3.792,3.105h-1.357
			c-0.121-1.168-1.062-1.884-2.479-1.884c-1.41,0-2.39,0.731-2.39,1.794c0,0.822,0.603,1.312,2.081,1.696l1.138,0.301
			c2.253,0.565,3.166,1.432,3.166,2.993c0,1.99-1.568,3.234-4.07,3.234c-2.307,0-3.905-1.251-4.033-3.174H89.943z"/>
		<path d="M100.617,72.578v1.832h1.583v1.085h-1.583v4.877c0,0.747,0.316,1.085,1.01,1.085c0.159,0,0.475-0.022,0.565-0.038v1.108
			c-0.158,0.038-0.535,0.067-0.844,0.067c-1.47,0-2.042-0.61-2.042-2.171v-4.93h-1.131v-1.085h1.131v-1.832H100.617z"/>
		<path d="M104.429,74.409h1.236v1.319h0.03c0.241-0.852,1.018-1.395,1.967-1.395c0.234,0,0.43,0.022,0.543,0.045v1.289
			c-0.105-0.038-0.392-0.075-0.716-0.075c-1.055,0-1.749,0.769-1.749,1.915v5.028h-1.312V74.409z"/>
		<path d="M109.575,80.221c0-1.395,1.07-2.216,3.045-2.337l2.276-0.136V77.07c0-1.01-0.663-1.568-1.862-1.568
			c-0.942,0-1.643,0.482-1.802,1.251h-1.259c0.038-1.372,1.372-2.419,3.076-2.419c1.922,0,3.158,1.025,3.158,2.623v5.578h-1.244
			v-1.41h-0.03c-0.459,0.905-1.477,1.485-2.616,1.485C110.668,82.61,109.575,81.661,109.575,80.221z M114.896,79.445v-0.656
			l-2.125,0.135c-1.221,0.076-1.854,0.521-1.854,1.304c0,0.754,0.656,1.244,1.681,1.244
			C113.924,81.472,114.896,80.613,114.896,79.445z"/>
		<path d="M120.467,72.578v1.832h1.583v1.085h-1.583v4.877c0,0.747,0.316,1.085,1.01,1.085c0.158,0,0.475-0.022,0.565-0.038v1.108
			c-0.158,0.038-0.535,0.067-0.844,0.067c-1.47,0-2.042-0.61-2.042-2.171v-4.93h-1.131v-1.085h1.131v-1.832H120.467z"/>
		<path d="M130.746,80.214c-0.226,1.395-1.636,2.397-3.369,2.397c-2.284,0-3.724-1.59-3.724-4.108s1.447-4.168,3.664-4.168
			c2.171,0,3.528,1.53,3.528,3.987v0.513h-5.834v0.076c0,1.545,0.95,2.547,2.397,2.547c1.018,0,1.809-0.482,2.043-1.244H130.746z
			 M125.01,77.786h4.47c-0.03-1.379-0.905-2.299-2.186-2.299C126.02,75.487,125.1,76.415,125.01,77.786z"/>
		<path d="M132.947,83.199h1.364c0.196,0.678,1.002,1.1,2.073,1.1c1.402,0,2.292-0.731,2.292-1.884v-1.274h-0.03
			c-0.512,0.882-1.47,1.395-2.608,1.395c-2.058,0-3.438-1.636-3.438-4.093c0-2.479,1.38-4.108,3.468-4.108
			c1.146,0,2.103,0.505,2.646,1.395h0.023v-1.319h1.251v7.9c0,1.945-1.395,3.128-3.678,3.128
			C134.469,85.437,133.135,84.548,132.947,83.199z M138.675,78.442c0-1.749-0.965-2.939-2.39-2.939
			c-1.417,0-2.344,1.161-2.344,2.939c0,1.771,0.927,2.925,2.344,2.925C137.71,81.367,138.675,80.183,138.675,78.442z"/>
		<path d="M142.663,85.43v-1.108c0.15,0.03,0.362,0.045,0.535,0.045c0.753,0,1.161-0.362,1.492-1.342l0.159-0.482l-3.008-8.133
			h1.395l2.276,6.792h0.03l2.276-6.792h1.379l-3.181,8.624c-0.693,1.884-1.342,2.45-2.781,2.45
			C143.069,85.483,142.821,85.46,142.663,85.43z"/>
		<path d="M162.371,81.443c-0.919,0.814-2.186,1.274-3.475,1.274c-2.148,0-3.648-1.267-3.648-3.076c0-1.274,0.693-2.254,2.133-3.015
			c0.218-0.113,0.354-0.188,0.415-0.211c-0.973-1.033-1.35-1.734-1.35-2.525c0-1.379,1.176-2.412,2.744-2.412
			c1.598,0,2.751,1.018,2.751,2.427c0,1.108-0.671,1.915-2.329,2.789l2.691,2.902c0.354-0.663,0.521-1.553,0.521-2.895v-0.324h1.251
			v0.332c0,1.658-0.301,2.864-0.897,3.799l1.907,2.028h-1.704L162.371,81.443z M156.589,79.55c0,1.213,0.98,2.035,2.427,2.035
			c0.972,0,1.982-0.392,2.562-1.01l-3.06-3.354c-0.098,0.045-0.294,0.15-0.362,0.196C157.034,78.103,156.589,78.714,156.589,79.55z
			 M160.675,73.95c0-0.829-0.596-1.41-1.478-1.41c-0.859,0-1.47,0.595-1.47,1.425c0,0.595,0.316,1.123,1.161,1.967
			C160.192,75.269,160.675,74.726,160.675,73.95z"/>
		<path d="M172.613,78.63c0,1.644,1.078,2.834,2.962,2.834s2.962-1.191,2.962-2.834v-6.972h1.357v7.063
			c0,2.321-1.621,3.995-4.319,3.995s-4.319-1.674-4.319-3.995v-7.063h1.357V78.63z"/>
		<path d="M185.767,77.086v-0.053l-3.656-5.375h1.636l2.902,4.372h0.053l2.939-4.372h1.545l-3.754,5.442v0.045l3.671,5.39h-1.628
			l-2.887-4.334h-0.053l-2.932,4.334h-1.538L185.767,77.086z"/>
		<path d="M201.556,71.658c3.226,0,5.133,2.012,5.133,5.435c0,3.43-1.899,5.442-5.133,5.442h-3.731V71.658H201.556z M199.182,81.314
			h2.284c2.465,0,3.836-1.507,3.836-4.206c0-2.721-1.364-4.229-3.836-4.229h-2.284V81.314z"/>
		<path d="M215.674,80.214c-0.226,1.395-1.636,2.397-3.369,2.397c-2.284,0-3.724-1.59-3.724-4.108s1.447-4.168,3.664-4.168
			c2.171,0,3.528,1.53,3.528,3.987v0.513h-5.834v0.076c0,1.545,0.95,2.547,2.397,2.547c1.018,0,1.809-0.482,2.043-1.244H215.674z
			 M209.938,77.786h4.47c-0.03-1.379-0.905-2.299-2.186-2.299C210.948,75.487,210.028,76.415,209.938,77.786z"/>
		<path d="M220.799,74.341c1.651,0,2.902,0.988,2.955,2.322h-1.259c-0.083-0.761-0.747-1.236-1.741-1.236
			c-1.002,0-1.673,0.475-1.673,1.184c0,0.55,0.437,0.919,1.372,1.153l1.236,0.309c1.643,0.415,2.231,0.987,2.231,2.171
			c0,1.387-1.334,2.367-3.211,2.367c-1.749,0-3.015-0.95-3.143-2.359h1.319c0.136,0.83,0.807,1.274,1.915,1.274
			c1.108,0,1.802-0.459,1.802-1.191c0-0.573-0.339-0.875-1.267-1.116l-1.424-0.369c-1.425-0.369-2.118-1.085-2.118-2.171
			C217.792,75.306,219.036,74.341,220.799,74.341z"/>
		<path d="M226.022,72.269c0-0.46,0.377-0.829,0.829-0.829c0.46,0,0.829,0.369,0.829,0.829c0,0.452-0.369,0.829-0.829,0.829
			C226.399,73.098,226.022,72.721,226.022,72.269z M226.195,74.409h1.312v8.126h-1.312V74.409z"/>
		<path d="M230.082,83.199h1.364c0.196,0.678,1.002,1.1,2.073,1.1c1.402,0,2.292-0.731,2.292-1.884v-1.274h-0.03
			c-0.512,0.882-1.47,1.395-2.608,1.395c-2.058,0-3.438-1.636-3.438-4.093c0-2.479,1.38-4.108,3.468-4.108
			c1.146,0,2.103,0.505,2.646,1.395h0.023v-1.319h1.251v7.9c0,1.945-1.395,3.128-3.678,3.128
			C231.605,85.437,230.27,84.548,230.082,83.199z M235.811,78.442c0-1.749-0.965-2.939-2.39-2.939c-1.417,0-2.344,1.161-2.344,2.939
			c0,1.771,0.927,2.925,2.344,2.925C234.846,81.367,235.811,80.183,235.811,78.442z"/>
		<path d="M239.678,74.409h1.236v1.319h0.03c0.513-0.919,1.319-1.395,2.578-1.395c1.786,0,2.819,1.146,2.819,2.993v5.208h-1.312
			v-4.982c0-1.327-0.618-2.05-1.899-2.05c-1.334,0-2.141,0.919-2.141,2.314v4.719h-1.312V74.409z"/>
	</g>
</g>
</svg>
