<?xml version="1.0" encoding="utf-8"?>
<!-- Generator: Adobe Illustrator 20.0.0, SVG Export Plug-In . SVG Version: 6.00 Build 0)  -->
<svg version="1.1" id="Layer_1" xmlns="http://www.w3.org/2000/svg" xmlns:xlink="http://www.w3.org/1999/xlink" x="0px" y="0px"
	 viewBox="0 0 100 100" style="enable-background:new 0 0 100 100;" xml:space="preserve">
<style type="text/css">
	.st0{fill:#FFFFFF;}
</style>
<g>
	<g>
		<path class="st0" d="M45.8,67.7c-12,0-21.8-9.8-21.8-21.8s9.8-21.8,21.8-21.8S67.6,34,67.6,46S57.8,67.7,45.8,67.7z M45.8,26.2
			C34.9,26.2,26,35.1,26,46s8.9,19.8,19.8,19.8S65.6,56.9,65.6,46S56.7,26.2,45.8,26.2z"/>
	</g>
	<g>
		<path class="st0" d="M50.4,71.8v-2c10.9,0,19.8-8.9,19.8-19.8h2C72.2,62,62.4,71.8,50.4,71.8z"/>
	</g>
	<g>
		<path class="st0" d="M54.2,75.8v-2C65.1,73.8,74,64.9,74,54h2C75.9,66,66.2,75.8,54.2,75.8z"/>
	</g>
	<g>
		<path class="st0" d="M40.1,52.4l0.8-1.1c0.2-0.3,0.5-0.4,0.8-0.2c0.1,0.1,1.7,1.5,3.6,1.8v-6c-2.3-0.9-5.2-2.4-5.2-5.6
			c0-2.9,2.1-4.9,5.2-5.1v-0.9c0-0.3,0.2-0.5,0.5-0.5h0.3c0.3,0,0.5,0.2,0.5,0.5v0.9c2.4,0.2,4.1,1.4,4.4,1.5
			c0.2,0.1,0.4,0.5,0.2,0.9c-0.5,0.7-1,1.7-1.6,1.3c-0.2-0.1-1.6-1-2.9-1.3v5.9c2.8,1.2,5.4,2.6,5.4,5.9c0,2.8-2.2,4.8-5.4,5v2.8
			c0,0.3-0.3,0.5-0.6,0.5s-0.7-0.1-0.7-0.5v-2.8c-2.8-0.2-4.6-1.7-5-2.1C40.1,53,39.9,52.8,40.1,52.4z M45.3,38.5
			c-1.8,0.2-2.6,1.4-2.6,2.3c0,1.4,0.9,2.3,2.6,3.1V38.5z M49.2,50.5c0-1.3-0.9-2.2-2.6-3.1V53C48,52.8,49.2,52,49.2,50.5z"/>
	</g>
</g>
</svg>
