<?xml version="1.0" encoding="utf-8"?>
<!-- Generator: Adobe Illustrator 20.0.0, SVG Export Plug-In . SVG Version: 6.00 Build 0)  -->
<svg version="1.1" id="Layer_2" xmlns="http://www.w3.org/2000/svg" xmlns:xlink="http://www.w3.org/1999/xlink" x="0px" y="0px"
	 viewBox="0 0 449.3 535.1" style="enable-background:new 0 0 449.3 535.1;" xml:space="preserve">
<style type="text/css">
	.st0{fill:#D6B088;}
</style>
<g>
	<path class="st0" d="M394.1,115.5L394.1,115.5l-33.2-59L270.4,1.3l-0.2-0.1l-90.9,42l-35,10l-0.1,0l-43.5,49.5L2,449l125.3,9h0
		l0.7,0.5l101.6,74.9l0.1,0.1h95.4l123.1-93.1V153L394.1,115.5z M447.5,152.8l0.5,0.9l-0.7,0.4v46.8l0.7,0.4l-0.5,0.9l-0.2-0.1v76.7
		l-86.7-11.2l45.4-89.1l41.3,23.6v-1.1l-40.5-23.2l40.5-23.7v-0.6l-0.4-0.3L447.5,152.8z M185.8,196.4l-27.9,9.3l-11-53.3l53.4-15
		l-14.4,58.6l0,0.1L185.8,196.4z M186.9,195.7l14.5-58.7l73.7-36.9l2.4,65.2l-89.2,30.3l-1,0.3l-0.5,0.2L186.9,195.7z M277.6,166.3
		l22.5,68.3l-5.1,2.8l-106.4-40.9L277.6,166.3z M278.7,166.2l125.4,11.9l-103,56L278.7,166.2z M313.4,228.6l45.8,39.5L330.7,324
		l-29.3-88.9L313.4,228.6z M314.3,228.1l90.3-49.1l-45,88.3L314.3,228.1z M446.8,153.2L406.1,177l-11.7-60.1L446.8,153.2z
		 M392.9,115.5L313.2,138l0.8,0.8l79.3-22.4l11.9,60.8l-59.9-5.7l0.1,0.1l-0.7,0.7l-0.9-1l-65.3-6.2l-2.4-64.6l67.6,70.8l1.5,0.1
		l-31.3-32.7l-0.8,0.2l-0.3-1l0.3-0.1l-36.8-38.5l83.9-42L392.9,115.5z M359.5,56.8L276,98.5l-5.3-95.9L359.5,56.8z M269.7,2.5
		l5.3,96l-94.5-54.8L269.7,2.5z M179.3,44.1l95.2,55.2L201.1,136l-55.9-82.1L179.3,44.1z M101.5,103.2l42.9-48.8l55.7,81.9
		l-53.8,15.2l-52.9-20L101.5,103.2z M93.1,132.5l51.3,19.4l-59.6,9.9L93.1,132.5z M84.5,162.8l61.4-10.2l11,53.4l-92.4,26.8
		L84.5,162.8z M64.2,234l92.5-26.9l-20,53.1l-0.2,0.6L119.8,305l-58.9-6.1v0l-7.3-27.7L64.2,234z M53.1,273.1l6.9,26.3l-17.2,75.2
		l-20.3,5.8L53.1,273.1z M3.3,448.1l19-66.6l20.6-5.9l7.2,75.8L3.3,448.1z M51,451.5l-7.1-75.2l82.4,80.6L51,451.5z M43.8,374.8
		l17.1-74.9l58.7,6.1l7.4,150.2L43.8,374.8z M229.7,532.2l-101.4-74.8l85.3-102.7l-0.2-0.1l-0.3,0.1l-0.1-0.4v0l-0.2-0.2L128,456.2
		l-7.4-150.5l16.6-43.9l75.6,92.4l0.1-0.1l-0.3-1.6l-75-91.7l20.3-53.9l28.1-9.4l26.6,155l0.8,1l0.3-0.4L186.9,197l0.3-0.1
		l107.1,41.2l-80.7,114.7l0.1,0.7l0.8-0.2l80.9-115l5-2.7l29.5,89.4l-115.4,28.4l-0.4,0.6l0.8,0.3l115.1-28.3l-2,76.6L215,354.2
		l-1.3,0.3h0l-0.1,0.2l45,19.2L229.7,532.2z M349.6,514.7l-1,0.2l-0.1-0.3l-23.4,17.7l-79-84.7l-0.2,1.2l78,83.7h-93.3l15.3-83.7
		l-0.7-0.7l0.7-0.7l0.2,0.2l13.4-73.4l68.7,29.3l20.4,111l0.9-0.7l-20.2-110.3l57.9-14.5l59.9,51L349.4,514L349.6,514.7z
		 M447.3,439.1l-59-50.3l59-14.7V439.1z M447.5,327.2l-0.2-0.1v46l-118.1,29.5l2-77.2l28.9-56.7l87.3,58.3v-1.2l-85.4-57.1
		l85.4,11.1v46.1l0.8,0.5L447.5,327.2z"/>
</g>
</svg>
