<?xml version="1.0" encoding="utf-8"?>
<!-- Generator: Adobe Illustrator 20.0.0, SVG Export Plug-In . SVG Version: 6.00 Build 0)  -->
<svg version="1.1" id="Layer_1" xmlns="http://www.w3.org/2000/svg" xmlns:xlink="http://www.w3.org/1999/xlink" x="0px" y="0px"
	 viewBox="0 0 100 100" style="enable-background:new 0 0 100 100;" xml:space="preserve">
<style type="text/css">
	.st0{fill:#E0C1A5;}
</style>
<g>
	<path class="st0" d="M33.8,57.8c0.2,0,0.3,0,0.4,0l0,0L33.8,57.8z"/>
	<path class="st0" d="M67.5,29.6c-0.1-0.1-9.3-8.7-21.1-0.5c-4.2-3.4-13.2-7-21.5,1.1c-0.2,0.2-5.1,4.5-5,11.4
		c0,5.6,3.2,11.1,9.5,16.5c1.1,1,2.6,1.5,4,1.7c0.1,0,0.1,0,0.2,0l0.2,0v0c0.6,2.1,2.3,3.8,4.5,4.4c0.5,2.2,2.3,3.9,4.5,4.5l0.2,1.1
		c0.3,1.9,1.9,3.3,3.8,3.4c0.1,0,0.3,0,0.4,0c1.3,0,2.5-0.5,3.5-1.4l17.2-17.2c2.8-2.8,4.6-6.2,5.2-9.8
		C73.8,40.9,73.3,34.9,67.5,29.6z M29.3,54.2c-0.1,0.3-0.1,0.7-0.2,1c0,0,0,0-0.1,0c-4.7-4.5-7.1-9-7.2-13.5c0-6,4.3-9.9,4.4-10
		c3.4-3.3,6.8-4.4,9.8-4.4c4.1,0,7.4,2.1,8.8,3.2L33.8,41.6c-0.8,0.8-1.1,2-0.9,3.1c0.3,1.1,1,1.9,2.1,2.3l0.6,0.2l-4.2,4.1
		l-0.8,0.8C30,52.7,29.5,53.4,29.3,54.2z M71.1,44.6c-0.6,3.2-2.2,6.2-4.7,8.7L49.2,70.5c-0.6,0.6-1.5,0.9-2.3,0.8
		c-1-0.1-1.8-0.8-2-1.8l-0.2-1.2L55,58.1l-1.4-1.4L43.3,66.9c-1.5-0.4-2.7-1.6-3.1-3.2l10.4-10.4l-1.4-1.4L38.8,62.3
		c-1.5-0.4-2.7-1.6-3.1-3.1l10.2-10l-1.4-1.4L34.3,57.9l0,0c-0.1,0-0.3,0-0.4,0c-0.8-0.1-1.8-0.4-2.4-1c-0.4-0.5-0.5-1.2-0.3-2.1
		c0,0,0,0,0,0c0.2-0.4,0.4-0.8,0.8-1.2L47.8,38l-1.4-1.4l-9.2,9.1l-1.5-0.5c-0.4-0.1-0.7-0.5-0.8-0.9c-0.1-0.4,0-0.9,0.3-1.2
		L47,31.1c10.7-7.8,18.8-0.4,19.2,0C70.3,34.9,72,39.4,71.1,44.6z"/>
</g>
<g>
	<path class="st0" d="M29.3,54.2c-0.1,0.3-0.1,0.7-0.2,1c0,0,0,0-0.1,0C29.1,54.8,29.2,54.5,29.3,54.2z"/>
</g>
<g>
	<path class="st0" d="M33.8,59.8L33.8,59.8c-0.1,0-0.1,0-0.2,0L33.8,59.8z"/>
</g>
</svg>
