<?xml version="1.0" encoding="utf-8"?>
<!-- Generator: Adobe Illustrator 20.0.0, SVG Export Plug-In . SVG Version: 6.00 Build 0)  -->
<svg version="1.1" id="Layer_1" xmlns="http://www.w3.org/2000/svg" xmlns:xlink="http://www.w3.org/1999/xlink" x="0px" y="0px"
	 viewBox="0 0 100 100" style="enable-background:new 0 0 100 100;" xml:space="preserve">
<style type="text/css">
	.st0{fill:#E0C1A5;}
</style>
<g>
	<path class="st0" d="M29.3,54.2c-0.1,0.3-0.1,0.7-0.2,1c0,0,0,0-0.1,0C29.1,54.8,29.2,54.5,29.3,54.2z"/>
</g>
<g>
	<g>
		<path d="M41.8,74.4c-1.1,0-2.2-0.4-3.1-1.2L26.2,61.9c-1.9-1.7-2-4.6-0.3-6.5l28.9-32.1c1.7-1.9,4.6-2,6.5-0.3l12.5,11.2
			c1.9,1.7,2,4.6,0.3,6.5L45.2,72.8C44.3,73.8,43,74.4,41.8,74.4z M40,71.7c1.1,1,2.7,0.9,3.7-0.2l28.9-32.1c1-1.1,0.9-2.7-0.2-3.7
			L60,24.5c-1.1-1-2.7-0.9-3.7,0.2L27.4,56.8c-1,1.1-0.9,2.7,0.2,3.7L40,71.7z"/>
	</g>
	<g>
		<ellipse transform="matrix(0.6696 -0.7427 0.7427 0.6696 -6.4869 52.6127)" cx="55.9" cy="33.6" rx="1.4" ry="1.4"/>
	</g>
	<g>
		<ellipse transform="matrix(0.6696 -0.7427 0.7427 0.6696 -7.8589 56.8216)" cx="59.9" cy="37.2" rx="1.4" ry="1.4"/>
	</g>
	<g>
		<ellipse transform="matrix(0.6696 -0.7427 0.7427 0.6696 -10.6405 51.2587)" cx="52.3" cy="37.6" rx="1.4" ry="1.4"/>
	</g>
	<g>
		<ellipse transform="matrix(0.6696 -0.7427 0.7427 0.6696 -12.0125 55.4677)" cx="56.3" cy="41.2" rx="1.4" ry="1.4"/>
	</g>
	<g>
		<ellipse transform="matrix(0.6696 -0.7427 0.7427 0.6696 -14.794 49.9047)" cx="48.7" cy="41.6" rx="1.4" ry="1.4"/>
	</g>
	<g>
		<ellipse transform="matrix(0.6696 -0.7427 0.7427 0.6696 -16.1661 54.1137)" cx="52.7" cy="45.2" rx="1.4" ry="1.4"/>
	</g>
	<g>
		<ellipse transform="matrix(0.6696 -0.7427 0.7427 0.6696 -9.2851 61.1968)" cx="64.1" cy="41" rx="1.4" ry="1.4"/>
	</g>
	<g>
		<ellipse transform="matrix(0.6696 -0.7427 0.7427 0.6696 -13.4387 59.8428)" cx="60.5" cy="45" rx="1.4" ry="1.4"/>
	</g>
	<g>
		<ellipse transform="matrix(0.6696 -0.7427 0.7427 0.6696 -17.5923 58.4888)" cx="56.9" cy="49" rx="1.4" ry="1.4"/>
	</g>
	<g>
		<path d="M44.6,61.8c-1.9,0-3.7-0.7-5.1-2c-3.1-2.8-3.4-7.7-0.6-10.9l0,0c2.8-3.1,7.7-3.4,10.9-0.6c1.5,1.4,2.4,3.3,2.5,5.3
			c0.1,2-0.6,4-2,5.5c-1.4,1.5-3.3,2.4-5.3,2.5C44.9,61.8,44.7,61.8,44.6,61.8z M40.4,50.3c-1,1.1-1.5,2.6-1.5,4.1
			c0.1,1.5,0.7,2.9,1.9,3.9c2.3,2.1,5.9,1.9,8-0.4c1-1.1,1.5-2.6,1.5-4.1c-0.1-1.5-0.7-2.9-1.9-3.9C46.1,47.8,42.5,48,40.4,50.3
			L40.4,50.3z"/>
	</g>
	<g>
		<path d="M44.7,57.6c-0.9,0-1.7-0.3-2.4-0.9c-1.5-1.3-1.6-3.6-0.3-5.1l0,0c1.3-1.5,3.6-1.6,5.1-0.3c0.7,0.6,1.1,1.5,1.2,2.5
			c0,1-0.3,1.9-0.9,2.6c-0.6,0.7-1.5,1.1-2.5,1.2C44.8,57.6,44.8,57.6,44.7,57.6z M43.5,52.9c-0.6,0.7-0.5,1.7,0.1,2.3
			c0.3,0.3,0.7,0.4,1.2,0.4c0.4,0,0.8-0.2,1.1-0.5c0.3-0.3,0.4-0.7,0.4-1.2s-0.2-0.8-0.5-1.1C45.1,52.2,44.1,52.2,43.5,52.9
			L43.5,52.9z"/>
	</g>
</g>
</svg>
