<?xml version="1.0" encoding="utf-8"?>
<!-- Generator: Adobe Illustrator 21.1.0, SVG Export Plug-In . SVG Version: 6.00 Build 0)  -->
<svg version="1.1" id="Layer_3" xmlns="http://www.w3.org/2000/svg" xmlns:xlink="http://www.w3.org/1999/xlink" x="0px" y="0px"
	 viewBox="0 0 109 116" style="enable-background:new 0 0 109 116;" xml:space="preserve">
<style type="text/css">
	.st0{fill:#E4CDB5;}
	.st1{fill:#1E1E1E;}
	.st2{fill:#FFFFFF;}
	.st3{fill:none;stroke:#1E1E1E;stroke-width:3;stroke-miterlimit:10;}
</style>
<g>
	<g>
		<path class="st0" d="M57.03,103.179l18.463,5.824l19.694-10.114l8.238-37.423l-6.27-15.893l-4.42-10.129l-9.392-3.683
			l-8.871-19.22c-1.343-2.457-3.92-3.985-6.72-3.985h0c-2.364,0-4.595,1.091-6.046,2.957l-5.48,9.148
			c-0.429,0.717-1.203,1.155-2.039,1.155h-0.955c-0.835,0-1.609-0.439-2.039-1.155l-5.48-9.148
			c-1.451-1.866-3.682-2.957-6.046-2.957h0c-2.8,0-5.377,1.528-6.72,3.985l-8.871,19.22l-9.392,3.683l-4.42,10.129l-6.27,15.893
			l8.238,37.423l20.227,9.884l16.821-5.586L57.03,103.179z"/>
	</g>
	<g>
		<path class="st1" d="M75.543,109.598l-18.598-5.867l-7.576,0.008l-16.95,5.629l-20.669-10.1L3.418,61.42l6.331-16.05l4.519-10.357
			l9.399-3.686l8.795-19.052c1.441-2.635,4.202-4.272,7.205-4.272c2.552,0,4.915,1.156,6.482,3.17l0.038,0.055l5.48,9.148
			c0.328,0.547,0.927,0.887,1.565,0.887h0.955c0.638,0,1.237-0.34,1.565-0.887l5.518-9.203c1.567-2.015,3.929-3.17,6.482-3.17
			c3.003,0,5.764,1.637,7.205,4.272l0.017,0.034l8.778,19.018l9.399,3.686l4.512,10.339L104,61.42l-0.036,0.165L95.67,99.262
			L75.543,109.598z M57.115,102.626l18.327,5.782l19.26-9.891l8.146-37.005l-6.208-15.736l-4.321-9.901l-9.386-3.681l-8.956-19.405
			c-1.249-2.271-3.634-3.681-6.227-3.681c-2.198,0-4.233,0.99-5.589,2.718l-5.462,9.119c-0.526,0.878-1.489,1.424-2.513,1.424
			h-0.955c-1.024,0-1.986-0.545-2.513-1.424l-5.462-9.119c-1.356-1.727-3.391-2.718-5.589-2.718c-2.593,0-4.977,1.41-6.227,3.681
			l-8.956,19.405l-9.386,3.681l-4.328,9.919l-6.2,15.718l8.144,36.998l19.785,9.667l16.691-5.543L57.115,102.626z"/>
	</g>
</g>
<g>
	<g>
		<path class="st2" d="M60.874,62.424c0,0,1.308,2.668,4.121,3.351c2.495,0.606,5.046-0.952,5.66-3.444
			c0.158-0.642,0.256-1.403,0.256-2.301c0,0-1.12-3.241-4.255-3.501c-1.877-0.155-3.707,0.781-4.722,2.367
			C61.397,59.735,60.944,60.887,60.874,62.424z"/>
	</g>
	<g>
		<path class="st1" d="M66.096,66.091c-0.378,0-0.762-0.045-1.145-0.138c-2.864-0.695-4.188-3.337-4.243-3.449l-0.021-0.042
			l0.002-0.047c0.062-1.368,0.429-2.586,1.089-3.618c1.054-1.648,2.976-2.608,4.892-2.452c3.218,0.266,4.402,3.591,4.414,3.624
			l0.01,0.06c0,0.852-0.088,1.641-0.261,2.345C70.287,64.596,68.287,66.091,66.096,66.091z M61.06,62.383
			c0.177,0.332,1.472,2.605,3.978,3.213c2.406,0.585,4.845-0.901,5.438-3.309c0.164-0.667,0.248-1.415,0.251-2.224
			c-0.118-0.31-1.261-3.116-4.086-3.35c-1.784-0.15-3.57,0.748-4.551,2.283C61.472,59.96,61.126,61.1,61.06,62.383z"/>
	</g>
</g>
<g>
	<g>
		<path class="st1" d="M54.69,87.378h-1.459v-1.105h1.459c2.921,0,5.72-0.947,7.883-2.666c1.836-1.459,2.767-3.073,2.767-4.795
			v-0.727h1.105v0.727c0,2.076-1.071,3.98-3.184,5.66C60.903,86.346,57.859,87.378,54.69,87.378z"/>
	</g>
</g>
<g>
	<g>
		<path class="st1" d="M66.03,65.284c-2.247,0-4.075-1.828-4.075-4.075c0-2.247,1.828-4.075,4.075-4.075
			c2.247,0,4.075,1.828,4.075,4.075C70.105,63.456,68.277,65.284,66.03,65.284z M66.03,58.239c-1.638,0-2.97,1.332-2.97,2.97
			s1.332,2.97,2.97,2.97c1.638,0,2.97-1.332,2.97-2.97S67.668,58.239,66.03,58.239z"/>
	</g>
</g>
<g>
	<g>
		
			<rect x="54.761" y="57.832" transform="matrix(0.1978 -0.9802 0.9802 0.1978 -10.3229 103.7864)" class="st1" width="6.977" height="0.736"/>
	</g>
</g>
<g>
	<g>
		<path class="st1" d="M61.226,56.27l-0.704-0.217c0.034-0.11,0.857-2.71,3.276-3.975c1.532-0.801,3.343-0.878,5.383-0.227
			l-0.224,0.702c-1.845-0.588-3.466-0.528-4.818,0.178C61.99,53.855,61.233,56.246,61.226,56.27z"/>
	</g>
</g>
<g>
	<g>
		
			<rect x="56.65" y="17.579" transform="matrix(0.3111 -0.9504 0.9504 0.3111 25.6407 71.2674)" class="st1" width="10.658" height="0.737"/>
	</g>
</g>
<g>
	<g>
		
			<rect x="58.226" y="17.211" transform="matrix(0.4337 -0.9011 0.9011 0.4337 21.4174 69.2353)" class="st1" width="15.125" height="0.737"/>
	</g>
</g>
<g>
	<g>
		
			<rect x="63.542" y="20.572" transform="matrix(0.4952 -0.8688 0.8688 0.4952 16.3721 70.057)" class="st1" width="9.857" height="0.737"/>
	</g>
</g>
<g>
	<g>
		
			<rect x="63.999" y="22.828" transform="matrix(0.5646 -0.8254 0.8254 0.5646 11.4899 68.1724)" class="st1" width="12.719" height="0.737"/>
	</g>
</g>
<g>
	<g>
		
			<rect x="67.541" y="24.923" transform="matrix(0.7093 -0.7049 0.7049 0.7093 3.3347 58.6683)" class="st1" width="10.516" height="0.737"/>
	</g>
</g>
<g>
	<g>
		<path class="st1" d="M74.113,60.406c-0.122,0-0.194-0.008-0.213-0.011l0.094-0.731c0.032,0.004,3.081,0.289,7.284-5.11
			l0.581,0.453C77.949,60.031,74.927,60.406,74.113,60.406z"/>
	</g>
</g>
<g>
	<g>
		<path class="st1" d="M71.951,56.742c-2.537-3.168-6.809-1.632-6.852-1.616l-0.256-0.691c0.048-0.018,4.818-1.731,7.683,1.847
			L71.951,56.742z"/>
	</g>
</g>
<g>
	<g>
		
			<rect x="77.524" y="38.667" transform="matrix(0.963 -0.2696 0.2696 0.963 -7.4166 24.061)" class="st1" width="12.754" height="0.737"/>
	</g>
</g>
<g>
	<g>
		<rect x="83.166" y="44.192" class="st1" width="9.822" height="0.737"/>
	</g>
</g>
<g>
	<g>
		<path class="st2" d="M54.755,76.011c-0.725,0.345-1.555,0.341-2.279-0.007c-1.308-0.628-3.292-1.741-3.464-2.781l-0.304-1.84
			c-0.33-1.999,1.119-3.831,3.031-3.831h3.758c1.997,0,3.465,1.987,2.988,4.045l-0.426,1.84
			C57.838,74.395,55.996,75.42,54.755,76.011z"/>
	</g>
	<g>
		<path class="st1" d="M53.625,76.636c-0.446,0-0.892-0.1-1.308-0.3c-2.28-1.095-3.514-2.122-3.668-3.053l-0.304-1.84
			c-0.182-1.103,0.119-2.214,0.827-3.049c0.652-0.769,1.588-1.21,2.567-1.21h3.758c1.022,0,1.983,0.473,2.639,1.298
			c0.713,0.897,0.971,2.063,0.708,3.199l-0.426,1.84c-0.199,0.86-1.378,1.81-3.505,2.823C54.504,76.538,54.065,76.636,53.625,76.636
			z M51.739,67.921c-0.774,0-1.486,0.337-2.005,0.95c-0.568,0.67-0.809,1.563-0.662,2.453l0.304,1.84
			c0.106,0.642,1.325,1.58,3.26,2.509c0.625,0.3,1.34,0.302,1.961,0.006l0,0c1.806-0.86,2.967-1.729,3.104-2.324l0.426-1.84
			c0.212-0.916,0.005-1.855-0.567-2.575c-0.515-0.648-1.267-1.02-2.063-1.02H51.739z"/>
	</g>
</g>
<g>
	<g>
		<path class="st3" d="M53.618,75.925"/>
	</g>
</g>
<g>
	<g>
		<path class="st1" d="M55.806,73.364c-0.095,0-0.189-0.018-0.28-0.055c-0.51-0.209-0.728-0.942-0.496-1.67
			c0.135-0.424,0.407-0.767,0.726-0.916c0.214-0.1,0.433-0.109,0.633-0.027c0.51,0.209,0.728,0.942,0.496,1.67l0,0
			c-0.135,0.424-0.406,0.767-0.726,0.916C56.042,73.336,55.923,73.364,55.806,73.364z M56.11,71.008
			c-0.063,0-0.129,0.016-0.197,0.048c-0.228,0.106-0.426,0.366-0.531,0.694c-0.168,0.528-0.038,1.086,0.284,1.218
			c0.104,0.043,0.218,0.036,0.338-0.02c0.228-0.106,0.426-0.366,0.531-0.694l0,0c0.168-0.528,0.038-1.086-0.284-1.217
			C56.205,71.017,56.158,71.008,56.11,71.008z"/>
	</g>
</g>
<g>
	<g>
		<path class="st1" d="M55.965,73.408c-0.301,0-0.455-0.118-0.491-0.149l0.239-0.28c0.007,0.006,0.715,0.499,2.64-1.507l0.266,0.255
			C57.286,73.114,56.441,73.408,55.965,73.408z"/>
	</g>
</g>
<g>
	<g>
		<path class="st1" d="M51.426,73.406c-0.117,0-0.236-0.028-0.354-0.083c-0.319-0.149-0.591-0.492-0.726-0.916l0,0
			c-0.232-0.728-0.014-1.462,0.496-1.67c0.201-0.082,0.419-0.073,0.633,0.027c0.319,0.149,0.591,0.492,0.726,0.916
			c0.232,0.728,0.014,1.462-0.496,1.67C51.616,73.388,51.522,73.406,51.426,73.406z M50.698,72.296
			c0.104,0.328,0.303,0.588,0.531,0.694c0.12,0.056,0.233,0.062,0.338,0.02c0.322-0.132,0.452-0.69,0.284-1.218
			c-0.104-0.328-0.303-0.588-0.531-0.694c-0.12-0.056-0.234-0.063-0.338-0.02C50.659,71.21,50.529,71.768,50.698,72.296
			L50.698,72.296z"/>
	</g>
</g>
<g>
	<g>
		<path class="st1" d="M51.267,73.459c-0.476,0-1.321-0.294-2.654-1.682l0.266-0.255c1.924,2.006,2.633,1.513,2.64,1.507l0.239,0.28
			C51.722,73.341,51.569,73.459,51.267,73.459z"/>
	</g>
</g>
<g>
	<g>
		<path class="st3" d="M53.431,75.949"/>
	</g>
</g>
<g>
	<g>
		<path class="st1" d="M51.244,73.388c-0.117,0-0.236-0.028-0.353-0.082c-0.319-0.149-0.591-0.492-0.726-0.916l0,0
			c-0.232-0.728-0.014-1.462,0.496-1.67c0.201-0.082,0.42-0.072,0.634,0.027c0.319,0.149,0.591,0.492,0.726,0.916
			c0.232,0.728,0.014,1.462-0.496,1.67C51.433,73.37,51.339,73.388,51.244,73.388z M50.515,72.278
			c0.104,0.328,0.303,0.588,0.531,0.694c0.12,0.056,0.233,0.062,0.338,0.02c0.322-0.132,0.452-0.689,0.284-1.217
			c-0.104-0.328-0.303-0.588-0.531-0.694c-0.12-0.056-0.234-0.063-0.338-0.02C50.477,71.192,50.347,71.75,50.515,72.278
			L50.515,72.278z"/>
	</g>
</g>
<g>
	<g>
		<path class="st1" d="M51.084,73.432c-0.476,0-1.321-0.293-2.653-1.682l0.266-0.255c1.924,2.006,2.633,1.513,2.64,1.507l0.239,0.28
			C51.54,73.314,51.386,73.432,51.084,73.432z"/>
	</g>
</g>
<g>
	<g>
		<path class="st1" d="M55.623,73.43c-0.096,0-0.19-0.018-0.28-0.055c-0.51-0.209-0.727-0.942-0.496-1.67
			c0.135-0.424,0.407-0.767,0.726-0.916c0.213-0.1,0.433-0.109,0.633-0.027c0.51,0.209,0.728,0.942,0.496,1.67l0,0
			c-0.135,0.424-0.407,0.767-0.726,0.916C55.859,73.403,55.74,73.43,55.623,73.43z M55.927,71.075c-0.063,0-0.129,0.016-0.197,0.048
			c-0.228,0.106-0.426,0.366-0.531,0.694c-0.168,0.528-0.038,1.086,0.284,1.217c0.104,0.043,0.218,0.036,0.338-0.02
			c0.228-0.106,0.426-0.366,0.531-0.694c0.168-0.528,0.038-1.086-0.284-1.218C56.023,71.084,55.976,71.075,55.927,71.075z"/>
	</g>
</g>
<g>
	<g>
		<path class="st1" d="M55.783,73.483c-0.302,0-0.455-0.118-0.491-0.149l0.239-0.28c0.007,0.005,0.715,0.499,2.64-1.507l0.266,0.255
			C57.104,73.19,56.259,73.483,55.783,73.483z"/>
	</g>
</g>
<g>
	<g>
		<path class="st3" d="M53.618,75.925"/>
	</g>
</g>
<g>
	<g>
		<path class="st1" d="M51.43,73.364c-0.117,0-0.236-0.028-0.354-0.082c-0.319-0.149-0.591-0.492-0.726-0.916l0,0
			c-0.232-0.728-0.014-1.462,0.496-1.67c0.201-0.082,0.42-0.072,0.633,0.027c0.319,0.149,0.591,0.492,0.726,0.916
			c0.232,0.728,0.014,1.462-0.496,1.67C51.619,73.345,51.526,73.364,51.43,73.364z M50.701,72.253
			c0.104,0.328,0.303,0.588,0.531,0.694c0.12,0.056,0.233,0.063,0.338,0.02c0.322-0.132,0.453-0.69,0.284-1.218
			c-0.104-0.328-0.303-0.588-0.531-0.694c-0.12-0.056-0.234-0.063-0.338-0.02C50.663,71.168,50.533,71.725,50.701,72.253
			L50.701,72.253z"/>
	</g>
</g>
<g>
	<g>
		<path class="st1" d="M51.271,73.408c-0.476,0-1.321-0.294-2.653-1.682l0.266-0.255c1.924,2.006,2.633,1.513,2.64,1.507l0.239,0.28
			C51.726,73.29,51.572,73.408,51.271,73.408z"/>
	</g>
</g>
<g>
	<g>
		<path class="st1" d="M55.81,73.406c-0.096,0-0.189-0.018-0.28-0.055c-0.51-0.209-0.728-0.942-0.496-1.67
			c0.135-0.424,0.407-0.767,0.726-0.916c0.213-0.099,0.433-0.109,0.633-0.027c0.51,0.208,0.728,0.942,0.496,1.67
			c-0.135,0.424-0.406,0.767-0.726,0.916C56.046,73.379,55.927,73.406,55.81,73.406z M56.114,71.051
			c-0.063,0-0.129,0.016-0.197,0.048c-0.228,0.106-0.426,0.366-0.531,0.694c-0.168,0.528-0.038,1.086,0.284,1.218
			c0.104,0.042,0.217,0.036,0.338-0.02c0.228-0.107,0.426-0.366,0.531-0.694l0,0c0.168-0.528,0.038-1.086-0.284-1.217
			C56.209,71.06,56.162,71.051,56.114,71.051z"/>
	</g>
</g>
<g>
	<g>
		<path class="st1" d="M55.969,73.459c-0.301,0-0.455-0.118-0.491-0.149l0.239-0.28c0.007,0.005,0.715,0.499,2.64-1.507l0.266,0.255
			C57.29,73.165,56.445,73.459,55.969,73.459z"/>
	</g>
</g>
<g>
	<g>
		<path class="st3" d="M53.805,75.949"/>
	</g>
</g>
<g>
	<g>
		<path class="st1" d="M55.993,73.388c-0.096,0-0.19-0.018-0.28-0.055c-0.51-0.208-0.728-0.942-0.496-1.67
			c0.135-0.424,0.406-0.767,0.726-0.916c0.214-0.1,0.433-0.109,0.633-0.027c0.51,0.209,0.728,0.942,0.496,1.67l0,0
			c-0.135,0.424-0.407,0.767-0.726,0.916C56.229,73.361,56.109,73.388,55.993,73.388z M56.296,71.033
			c-0.063,0-0.129,0.016-0.198,0.048c-0.228,0.107-0.426,0.366-0.531,0.694c-0.168,0.528-0.038,1.086,0.284,1.217
			c0.105,0.042,0.218,0.036,0.338-0.02c0.228-0.106,0.426-0.366,0.531-0.694c0.168-0.528,0.038-1.086-0.285-1.218
			C56.391,71.042,56.345,71.033,56.296,71.033z"/>
	</g>
</g>
<g>
	<g>
		<path class="st1" d="M51.613,73.43c-0.117,0-0.236-0.028-0.354-0.082c-0.319-0.149-0.591-0.492-0.726-0.916l0,0
			c-0.232-0.728-0.014-1.462,0.496-1.67c0.201-0.082,0.42-0.072,0.633,0.027c0.32,0.149,0.591,0.492,0.726,0.916
			c0.232,0.728,0.014,1.462-0.496,1.67C51.802,73.412,51.708,73.43,51.613,73.43z M51.309,71.075c-0.048,0-0.095,0.009-0.14,0.028
			c-0.322,0.132-0.453,0.69-0.284,1.218l0,0c0.104,0.328,0.303,0.588,0.531,0.694c0.12,0.056,0.233,0.063,0.338,0.02
			c0.322-0.132,0.453-0.689,0.284-1.217c-0.104-0.328-0.303-0.588-0.531-0.694C51.438,71.091,51.372,71.075,51.309,71.075z"/>
	</g>
</g>
<g>
	<g>
		<path class="st1" d="M69.14,71.947l-0.233-0.699c0.111-0.037,11.179-3.654,21.117-0.923l-0.195,0.71
			C80.104,68.363,69.248,71.911,69.14,71.947z"/>
	</g>
</g>
<g>
	<g>
		
			<rect x="78.552" y="64.59" transform="matrix(0.0283 -0.9996 0.9996 0.0283 2.356 151.1519)" class="st1" width="0.737" height="19.549"/>
	</g>
</g>
<g>
	<g>
		<path class="st1" d="M89.555,84.983c-7.922-7.052-20.317-8.337-20.441-8.349l0.072-0.733c0.127,0.012,12.76,1.322,20.859,8.532
			L89.555,84.983z"/>
	</g>
</g>
<g>
	<g>
		
			<rect x="59.855" y="44.008" transform="matrix(0.4883 -0.8727 0.8727 0.4883 -5.976 78.5596)" class="st1" width="8.3" height="0.737"/>
	</g>
</g>
<g>
	<g>
		<rect x="56.459" y="35.751" transform="matrix(1 -0.0085 0.0085 1 -0.331 0.4819)" class="st1" width="0.737" height="7.275"/>
	</g>
</g>
<g>
	<g>
		
			<rect x="60.033" y="34.047" transform="matrix(0.271 -0.9626 0.9626 0.271 13.11 86.1425)" class="st1" width="6.792" height="0.737"/>
	</g>
</g>
<g>
	<g>
		
			<rect x="64.807" y="89.06" transform="matrix(0.903 -0.4295 0.4295 0.903 -34.7101 37.2564)" class="st1" width="0.737" height="12.916"/>
	</g>
</g>
<g>
	<g>
		<path class="st2" d="M46.544,62.424c0,0-1.308,2.668-4.121,3.351c-2.495,0.606-5.046-0.952-5.66-3.444
			c-0.158-0.642-0.256-1.403-0.256-2.301c0,0,1.12-3.241,4.255-3.501c1.877-0.155,3.707,0.781,4.722,2.367
			C46.021,59.735,46.474,60.887,46.544,62.424z"/>
	</g>
	<g>
		<path class="st1" d="M41.322,66.091c-2.191,0-4.19-1.495-4.738-3.717c-0.173-0.704-0.261-1.493-0.261-2.345l0.01-0.06
			c0.012-0.034,1.196-3.358,4.414-3.624c1.913-0.156,3.838,0.804,4.892,2.452c0.66,1.032,1.027,2.25,1.089,3.618l0.002,0.047
			l-0.021,0.042c-0.055,0.112-1.379,2.754-4.243,3.449C42.084,66.047,41.7,66.091,41.322,66.091z M36.691,60.062
			c0.002,0.81,0.087,1.558,0.251,2.225c0.593,2.409,3.032,3.893,5.438,3.309c2.507-0.609,3.801-2.881,3.978-3.213
			c-0.066-1.283-0.412-2.423-1.029-3.387c-0.982-1.534-2.769-2.433-4.552-2.283C37.947,56.946,36.809,59.752,36.691,60.062z"/>
	</g>
</g>
<g>
	<g>
		<path class="st1" d="M87.351,96.411C78.408,89.038,67.41,84.08,67.3,84.031l0.301-0.673c0.111,0.05,11.2,5.049,20.219,12.484
			L87.351,96.411z"/>
	</g>
</g>
<g>
	<g>
		
			<rect x="91.116" y="55.173" transform="matrix(0.2495 -0.9684 0.9684 0.2495 6.9148 136.4473)" class="st1" width="0.737" height="17.18"/>
	</g>
</g>
<g>
	<g>
		
			<rect x="92.436" y="50.307" transform="matrix(0.1198 -0.9928 0.9928 0.1198 24.7472 142.6239)" class="st1" width="0.737" height="14.098"/>
	</g>
</g>
<g>
	<g>
		<path class="st1" d="M54.187,87.378h-1.459c-3.169,0-6.213-1.032-8.571-2.906c-2.113-1.68-3.184-3.584-3.184-5.66v-1.465h1.105
			v1.465c0,1.722,0.931,3.335,2.767,4.795c2.163,1.719,4.963,2.666,7.883,2.666h1.459V87.378z"/>
	</g>
</g>
<g>
	<g>
		<path class="st1" d="M41.387,65.284c-2.247,0-4.075-1.828-4.075-4.075c0-2.247,1.828-4.075,4.075-4.075
			c2.247,0,4.075,1.828,4.075,4.075C45.462,63.456,43.634,65.284,41.387,65.284z M41.387,58.239c-1.638,0-2.97,1.332-2.97,2.97
			s1.332,2.97,2.97,2.97s2.97-1.332,2.97-2.97S43.025,58.239,41.387,58.239z"/>
	</g>
</g>
<g>
	<g>
		
			<rect x="48.8" y="54.712" transform="matrix(0.9802 -0.198 0.198 0.9802 -10.5485 10.8855)" class="st1" width="0.736" height="6.977"/>
	</g>
</g>
<g>
	<g>
		<path class="st1" d="M46.192,56.271c-0.007-0.024-0.774-2.425-2.92-3.542c-1.35-0.704-2.969-0.762-4.812-0.175l-0.224-0.702
			c2.04-0.651,3.851-0.574,5.383,0.227c2.419,1.265,3.242,3.865,3.276,3.975L46.192,56.271z"/>
	</g>
</g>
<g>
	<g>
		
			<rect x="45.071" y="12.619" transform="matrix(0.9504 -0.311 0.311 0.9504 -3.3284 15.0236)" class="st1" width="0.737" height="10.658"/>
	</g>
</g>
<g>
	<g>
		
			<rect x="41.261" y="10.016" transform="matrix(0.901 -0.4338 0.4338 0.901 -3.505 19.7974)" class="st1" width="0.737" height="15.125"/>
	</g>
</g>
<g>
	<g>
		
			<rect x="38.579" y="16.012" transform="matrix(0.8688 -0.4951 0.4951 0.8688 -5.2589 22.031)" class="st1" width="0.737" height="9.857"/>
	</g>
</g>
<g>
	<g>
		
			<rect x="36.691" y="16.836" transform="matrix(0.8253 -0.5647 0.5647 0.8253 -6.6245 24.9791)" class="st1" width="0.737" height="12.719"/>
	</g>
</g>
<g>
	<g>
		
			<rect x="34.251" y="20.033" transform="matrix(0.7049 -0.7093 0.7093 0.7049 -7.7231 32.0183)" class="st1" width="0.737" height="10.516"/>
	</g>
</g>
<g>
	<g>
		<path class="st1" d="M33.305,60.406c-0.813,0-3.836-0.374-7.747-5.399l0.581-0.453c4.203,5.398,7.254,5.115,7.284,5.11
			l0.094,0.731C33.499,60.398,33.427,60.406,33.305,60.406z"/>
	</g>
</g>
<g>
	<g>
		<path class="st1" d="M35.467,56.742l-0.575-0.46c2.866-3.578,7.635-1.864,7.683-1.847l-0.256,0.691
			c-0.011-0.004-1.079-0.391-2.449-0.391c-0.018,0-0.036,0-0.054,0C37.985,54.749,36.522,55.424,35.467,56.742z"/>
	</g>
</g>
<g>
	<g>
		
			<rect x="23.149" y="32.658" transform="matrix(0.2696 -0.963 0.963 0.2696 -20.4119 51.1601)" class="st1" width="0.737" height="12.754"/>
	</g>
</g>
<g>
	<g>
		<rect x="14.43" y="44.192" class="st1" width="9.822" height="0.737"/>
	</g>
</g>
<g>
	<g>
		<path class="st3" d="M53.8,75.925"/>
	</g>
</g>
<g>
	<g>
		<path class="st1" d="M51.612,73.364c-0.117,0-0.236-0.028-0.353-0.082c-0.319-0.149-0.591-0.492-0.726-0.916l0,0
			c-0.232-0.728-0.014-1.462,0.496-1.67c0.201-0.082,0.42-0.072,0.633,0.027c0.319,0.149,0.591,0.492,0.726,0.916
			c0.232,0.728,0.014,1.462-0.496,1.67C51.801,73.345,51.708,73.364,51.612,73.364z M50.883,72.253
			c0.104,0.328,0.303,0.588,0.531,0.694c0.12,0.056,0.233,0.063,0.338,0.02c0.322-0.132,0.452-0.69,0.284-1.218
			c-0.104-0.328-0.303-0.588-0.531-0.694c-0.12-0.056-0.234-0.063-0.338-0.02C50.845,71.168,50.715,71.725,50.883,72.253
			L50.883,72.253z"/>
	</g>
</g>
<g>
	<g>
		<path class="st1" d="M51.453,73.408c-0.476,0-1.321-0.293-2.653-1.682l0.266-0.255c1.924,2.006,2.633,1.513,2.64,1.507l0.239,0.28
			C51.908,73.29,51.754,73.408,51.453,73.408z"/>
	</g>
</g>
<g>
	<g>
		<path class="st1" d="M55.992,73.406c-0.096,0-0.189-0.018-0.279-0.055c-0.51-0.209-0.728-0.942-0.496-1.67
			c0.135-0.424,0.407-0.767,0.726-0.916c0.213-0.1,0.433-0.109,0.633-0.027c0.51,0.208,0.728,0.942,0.496,1.67
			c-0.135,0.424-0.407,0.767-0.726,0.916C56.228,73.379,56.109,73.406,55.992,73.406z M56.296,71.051
			c-0.063,0-0.129,0.016-0.197,0.048c-0.228,0.106-0.426,0.366-0.531,0.694c-0.168,0.528-0.038,1.086,0.284,1.218
			c0.104,0.042,0.218,0.036,0.338-0.02c0.228-0.107,0.426-0.366,0.531-0.694l0,0c0.168-0.528,0.038-1.086-0.284-1.217
			C56.391,71.06,56.344,71.051,56.296,71.051z"/>
	</g>
</g>
<g>
	<g>
		<path class="st1" d="M56.151,73.459c-0.302,0-0.455-0.118-0.491-0.149l0.239-0.28c0.007,0.005,0.715,0.499,2.64-1.507l0.266,0.255
			C57.472,73.165,56.627,73.459,56.151,73.459z"/>
	</g>
</g>
<g>
	<g>
		<path class="st3" d="M53.987,75.949"/>
	</g>
</g>
<g>
	<g>
		<path class="st1" d="M56.174,73.388c-0.096,0-0.189-0.018-0.28-0.055c-0.51-0.208-0.728-0.942-0.496-1.67
			c0.135-0.424,0.406-0.767,0.726-0.916c0.214-0.1,0.433-0.109,0.633-0.027c0.51,0.209,0.728,0.942,0.496,1.67
			c-0.135,0.424-0.407,0.767-0.726,0.916C56.411,73.361,56.291,73.388,56.174,73.388z M56.478,71.033
			c-0.063,0-0.129,0.016-0.198,0.048c-0.228,0.107-0.426,0.366-0.531,0.694c-0.168,0.528-0.038,1.086,0.284,1.217
			c0.104,0.042,0.218,0.036,0.338-0.02c0.228-0.106,0.426-0.366,0.531-0.694l0,0c0.168-0.528,0.038-1.086-0.284-1.218
			C56.573,71.042,56.527,71.033,56.478,71.033z"/>
	</g>
</g>
<g>
	<g>
		<path class="st1" d="M56.203,73.421c-0.024,0-0.048-0.001-0.071-0.004c-0.22-0.024-0.309-0.151-0.324-0.176l0.157-0.096
			l0.145-0.113c0.005,0.004,0.479,0.278,2.243-1.561l0.266,0.255C57.539,72.851,56.727,73.421,56.203,73.421z"/>
	</g>
</g>
<g>
	<g>
		<path class="st1" d="M51.794,73.43c-0.117,0-0.236-0.028-0.353-0.082c-0.319-0.149-0.591-0.492-0.726-0.916l0,0
			c-0.232-0.728-0.014-1.462,0.496-1.67c0.2-0.082,0.419-0.073,0.633,0.027c0.319,0.149,0.591,0.492,0.726,0.916
			c0.232,0.728,0.014,1.462-0.496,1.67C51.984,73.412,51.89,73.43,51.794,73.43z M51.066,72.32c0.104,0.328,0.303,0.588,0.531,0.694
			c0.12,0.056,0.233,0.063,0.338,0.02c0.322-0.132,0.453-0.689,0.284-1.217c-0.104-0.328-0.303-0.588-0.531-0.694
			c-0.12-0.056-0.234-0.063-0.338-0.02C51.028,71.234,50.898,71.792,51.066,72.32L51.066,72.32z"/>
	</g>
</g>
<g>
	<g>
		<path class="st1" d="M51.769,73.406c-0.496,0-1.6-0.234-3.194-1.895l0.266-0.255c1.984,2.068,3.097,1.768,3.108,1.765l0.113,0.351
			C52.049,73.375,51.949,73.406,51.769,73.406z"/>
	</g>
</g>
<g>
	<g>
		<path class="st3" d="M53.8,75.925"/>
	</g>
</g>
<g>
	<g>
		<path class="st1" d="M55.988,73.364c-0.096,0-0.19-0.018-0.28-0.055c-0.51-0.209-0.727-0.942-0.496-1.67
			c0.135-0.424,0.407-0.767,0.726-0.916c0.213-0.1,0.433-0.109,0.633-0.027c0.51,0.209,0.728,0.942,0.496,1.67l0,0
			c-0.135,0.424-0.407,0.767-0.726,0.916C56.224,73.336,56.105,73.364,55.988,73.364z M56.292,71.008
			c-0.063,0-0.129,0.016-0.197,0.048c-0.228,0.106-0.426,0.366-0.531,0.694c-0.168,0.528-0.038,1.086,0.284,1.218
			c0.104,0.043,0.218,0.036,0.338-0.02c0.228-0.106,0.426-0.366,0.531-0.694l0,0c0.168-0.528,0.038-1.086-0.284-1.217
			C56.387,71.017,56.34,71.008,56.292,71.008z"/>
	</g>
</g>
<g>
	<g>
		<path class="st1" d="M51.608,73.406c-0.117,0-0.236-0.028-0.354-0.083c-0.319-0.149-0.591-0.492-0.726-0.916l0,0
			c-0.232-0.728-0.014-1.462,0.496-1.67c0.201-0.082,0.42-0.073,0.633,0.027c0.319,0.149,0.591,0.492,0.726,0.916
			c0.232,0.728,0.014,1.462-0.496,1.67C51.798,73.388,51.704,73.406,51.608,73.406z M51.304,71.051c-0.048,0-0.095,0.009-0.14,0.028
			c-0.322,0.132-0.453,0.689-0.284,1.217l0,0c0.104,0.328,0.303,0.588,0.531,0.694c0.12,0.056,0.233,0.062,0.338,0.02
			c0.322-0.132,0.452-0.69,0.284-1.218c-0.104-0.328-0.303-0.588-0.531-0.694C51.434,71.066,51.368,71.051,51.304,71.051z"/>
	</g>
</g>
<g>
	<g>
		<path class="st3" d="M53.613,75.949"/>
	</g>
</g>
<g>
	<g>
		<path class="st1" d="M37.91,71.947c-0.109-0.036-10.97-3.582-20.689-0.912l-0.195-0.71c9.938-2.73,21.006,0.887,21.117,0.923
			L37.91,71.947z"/>
	</g>
</g>
<g>
	<g>
		
			<rect x="18.355" y="73.996" transform="matrix(0.9996 -0.0283 0.0283 0.9996 -2.0949 0.8265)" class="st1" width="19.549" height="0.737"/>
	</g>
</g>
<g>
	<g>
		<path class="st1" d="M17.495,84.983l-0.49-0.55c8.099-7.21,20.732-8.519,20.859-8.532l0.072,0.733
			C37.812,76.646,25.412,77.935,17.495,84.983z"/>
	</g>
</g>
<g>
	<g>
		
			<rect x="43.045" y="40.226" transform="matrix(0.8728 -0.4882 0.4882 0.8728 -16.1383 26.839)" class="st1" width="0.737" height="8.3"/>
	</g>
</g>
<g>
	<g>
		<rect x="46.953" y="39.02" transform="matrix(0.0083 -1 1 0.0083 10.784 89.6499)" class="st1" width="7.275" height="0.737"/>
	</g>
</g>
<g>
	<g>
		
			<rect x="43.62" y="31.019" transform="matrix(0.9625 -0.2712 0.2712 0.9625 -7.6841 13.2175)" class="st1" width="0.737" height="6.792"/>
	</g>
</g>
<g>
	<g>
		
			<rect x="35.532" y="95.681" transform="matrix(0.4297 -0.903 0.903 0.4297 -62.7822 92.6877)" class="st1" width="12.916" height="0.737"/>
	</g>
</g>
<g>
	<g>
		<path class="st1" d="M20.066,96.411l-0.469-0.568c9.02-7.435,20.108-12.434,20.219-12.484l0.301,0.672
			C40.008,84.08,29.007,89.041,20.066,96.411z"/>
	</g>
</g>
<g>
	<g>
		<path class="st2" d="M49.169,81.603c0,0.929,0.589,1.586,1.227,2.026c0.732,0.505,1.545,0.736,2.36,0.736h0.475h0.419h1.013
			c0.816,0,1.628-0.231,2.36-0.736c0.638-0.44,1.227-1.098,1.227-2.026H49.169z"/>
	</g>
	<g>
		<path class="st1" d="M54.663,84.734h-1.907c-0.921,0-1.81-0.277-2.57-0.801c-0.907-0.626-1.386-1.431-1.386-2.33v-0.368h9.818
			v0.368c0,0.898-0.479,1.704-1.386,2.33C56.472,84.457,55.584,84.734,54.663,84.734z M49.576,81.972
			c0.111,0.505,0.455,0.96,1.028,1.355c0.645,0.445,1.369,0.671,2.151,0.671h1.907c0.782,0,1.506-0.226,2.151-0.671
			c0.572-0.395,0.917-0.849,1.028-1.355H49.576z"/>
	</g>
</g>
<g>
	<g>
		
			<rect x="7.344" y="63.394" transform="matrix(0.9684 -0.2495 0.2495 0.9684 -15.4072 5.9933)" class="st1" width="17.179" height="0.737"/>
	</g>
</g>
<g>
	<g>
		
			<rect x="7.565" y="56.988" transform="matrix(0.9928 -0.1196 0.1196 0.9928 -6.7575 2.1605)" class="st1" width="14.098" height="0.737"/>
	</g>
</g>
<g>
	<g>
		<path class="st1" d="M56.195,81.927c-0.687,0-1.277-0.02-1.716-0.042c-0.597-0.03-1.207-0.031-1.811-0.003
			c-1.78,0.081-5.183,0.093-7.967-0.74c-2.88-0.861-4.572-3.926-3.77-6.832l0.983-3.565l1.065,0.294l-0.983,3.565
			c-0.643,2.331,0.713,4.789,3.021,5.48c2.628,0.786,5.891,0.773,7.6,0.695c0.64-0.029,1.285-0.028,1.917,0.003
			c1.819,0.09,6.356,0.155,9.194-1.207c1.553-0.746,2.348-2.606,1.848-4.327l-1.295-4.461l1.061-0.308l1.295,4.461
			c0.649,2.234-0.397,4.655-2.431,5.631C61.847,81.702,58.486,81.927,56.195,81.927z"/>
	</g>
</g>
<g>
	<g>
		<rect x="53.436" y="25.222" class="st1" width="0.737" height="7.92"/>
	</g>
</g>
<g>
	<g>
		
			<rect x="64.835" y="39.035" transform="matrix(0.4579 -0.889 0.889 0.4579 4.8326 86.7323)" class="st1" width="17.4" height="0.737"/>
	</g>
</g>
<g>
	<g>
		
			<rect x="33.595" y="33.293" transform="matrix(0.8581 -0.5134 0.5134 0.8581 -16.3385 23.2839)" class="st1" width="0.737" height="15.828"/>
	</g>
</g>
<g>
	<g>
		<circle class="st1" cx="43.999" cy="74.364" r="0.459"/>
	</g>
</g>
<g>
	<g>
		<circle class="st1" cx="45.549" cy="77.806" r="0.459"/>
	</g>
</g>
<g>
	<g>
		<circle class="st1" cx="46.009" cy="72.23" r="0.459"/>
	</g>
</g>
<g>
	<g>
		<circle class="st1" cx="47.397" cy="75.515" r="0.459"/>
	</g>
</g>
<g>
	<g>
		<circle class="st1" cx="63.797" cy="74.294" r="0.459"/>
	</g>
</g>
<g>
	<g>
		<circle class="st1" cx="62.246" cy="77.735" r="0.459"/>
	</g>
</g>
<g>
	<g>
		<circle class="st1" cx="61.787" cy="72.159" r="0.459"/>
	</g>
</g>
<g>
	<g>
		<circle class="st1" cx="60.398" cy="75.445" r="0.459"/>
	</g>
</g>
</svg>
