<?xml version="1.0" encoding="utf-8"?>
<!-- Generator: Adobe Illustrator 21.1.0, SVG Export Plug-In . SVG Version: 6.00 Build 0)  -->
<svg version="1.1" xmlns="http://www.w3.org/2000/svg" xmlns:xlink="http://www.w3.org/1999/xlink" x="0px" y="0px"
	 viewBox="0 0 109 116" style="enable-background:new 0 0 109 116;" xml:space="preserve">
<style type="text/css">
	.st0{fill:#1E1E1E;}
	.st1{fill:#E4CDB5;}
	.st2{fill:#FFFFFF;}
	.st3{fill:none;stroke:#1E1E1E;stroke-width:3;stroke-miterlimit:10;}
	.st4{fill:none;stroke:#1E1E1E;stroke-width:2;stroke-miterlimit:10;}
</style>
<g id="Layer_3">
</g>
<g id="Layer_4">
	<g>
		<g>
			<path class="st0" d="M42.089,55.277c0-0.219,0.177-0.396,0.396-0.396s0.396,0.177,0.396,0.396s-0.177,0.396-0.396,0.396
				S42.089,55.496,42.089,55.277"/>
		</g>
		<g>
			<circle class="st0" cx="43.823" cy="58.246" r="0.396"/>
		</g>
		<g>
			<circle class="st0" cx="44.219" cy="53.435" r="0.396"/>
		</g>
		<g>
			<circle class="st0" cx="45.417" cy="56.27" r="0.396"/>
		</g>
		<g>
			<path class="st0" d="M46.774,58.643c0-0.219,0.177-0.396,0.396-0.396c0.219,0,0.396,0.177,0.396,0.396s-0.177,0.396-0.396,0.396
				C46.951,59.04,46.774,58.862,46.774,58.643"/>
		</g>
		<g>
			<circle class="st0" cx="48.508" cy="61.613" r="0.396"/>
		</g>
		<g>
			<circle class="st0" cx="48.904" cy="56.802" r="0.396"/>
		</g>
		<g>
			<circle class="st0" cx="50.102" cy="59.637" r="0.396"/>
		</g>
		<g>
			<path class="st0" d="M68.654,55.288c0-0.219-0.177-0.396-0.396-0.396s-0.396,0.177-0.396,0.396s0.177,0.396,0.396,0.396
				S68.654,55.507,68.654,55.288"/>
		</g>
		<g>
			<circle class="st0" cx="66.92" cy="58.257" r="0.396"/>
		</g>
		<g>
			<circle class="st0" cx="66.524" cy="53.446" r="0.396"/>
		</g>
		<g>
			<circle class="st0" cx="65.326" cy="56.281" r="0.396"/>
		</g>
		<g>
			<path class="st0" d="M63.969,58.654c0-0.219-0.177-0.396-0.396-0.396s-0.396,0.177-0.396,0.396s0.177,0.396,0.396,0.396
				S63.969,58.873,63.969,58.654"/>
		</g>
		<g>
			<circle class="st0" cx="62.235" cy="61.624" r="0.396"/>
		</g>
		<g>
			<circle class="st0" cx="61.839" cy="56.813" r="0.396"/>
		</g>
		<g>
			<circle class="st0" cx="60.641" cy="59.647" r="0.396"/>
		</g>
		<g>
			<path class="st0" d="M42.615,30.156c-1.6,0-2.902-1.302-2.902-2.902c0-1.6,1.302-2.902,2.902-2.902
				c1.6,0,2.902,1.302,2.902,2.902C45.518,28.854,44.216,30.156,42.615,30.156z M42.615,24.669c-1.425,0-2.584,1.159-2.584,2.584
				c0,1.425,1.159,2.584,2.584,2.584c1.425,0,2.584-1.159,2.584-2.584C45.2,25.829,44.041,24.669,42.615,24.669z"/>
		</g>
		<g>
			<path class="st0" d="M67.634,30.156c-1.6,0-2.902-1.302-2.902-2.902c0-1.6,1.302-2.902,2.902-2.902s2.902,1.302,2.902,2.902
				C70.536,28.854,69.234,30.156,67.634,30.156z M67.634,24.669c-1.425,0-2.584,1.159-2.584,2.584c0,1.425,1.159,2.584,2.584,2.584
				s2.584-1.159,2.584-2.584C70.218,25.829,69.059,24.669,67.634,24.669z"/>
		</g>
		<g>
			<path class="st1" d="M66.755,79.841l0.124,13.067c0.038,3.964,1.375,7.839,3.938,10.863c0.132,0.156,0.268,0.31,0.406,0.462l0,0
				c2.943,3.237,6.973,5.279,11.323,5.737l8.34,0.878c3.456,0.182,6.01-0.677,7.847-1.81c2.665-1.643,3.015-5.385,0.741-7.536l0,0
				c-1.542-1.459-2.049-3.706-1.281-5.685v0c1.157-2.983,1.75-6.154,1.75-9.353v-0.666c0-3.599-0.751-7.158-2.205-10.45
				l-2.017-4.569c-0.784-1.776-1.352-3.64-1.691-5.552l-0.957-5.398c-0.501-2.829-0.495-5.724,0.019-8.551l0,0
				c0.117-0.642,0.123-1.299,0.018-1.943L91.314,38.31c-0.281-1.724-0.955-3.359-1.97-4.78l-0.311-0.435
				c-1.378-1.929-2.118-4.24-2.118-6.61v0c0-2.675-0.943-5.264-2.663-7.313l-0.632-0.753C76.744,10.229,66.782,5.5,56.089,5.5l0,0
				h-1.723c-10.693,0-20.838,4.729-27.714,12.918l-0.632,0.753c-1.72,2.049-2.663,4.638-2.663,7.313v0
				c0,2.37-0.741,4.681-2.118,6.61l-0.311,0.435c-1.015,1.421-1.689,3.057-1.97,4.78l-1.798,11.025
				c-0.105,0.644-0.099,1.301,0.018,1.943l0,0c0.514,2.826,0.52,5.722,0.019,8.551l-0.957,5.398
				c-0.339,1.912-0.906,3.776-1.691,5.552l-2.017,4.569c-1.454,3.292-2.205,6.851-2.205,10.45v0.666c0,3.199,0.593,6.37,1.75,9.353
				l0,0c0.768,1.979,0.261,4.226-1.281,5.685h0c-2.274,2.151-1.923,5.893,0.741,7.536c1.837,1.132,4.391,1.992,7.847,1.81
				l8.34-0.878c4.35-0.458,8.381-2.5,11.323-5.737l0,0c0.138-0.152,0.273-0.306,0.406-0.462c2.564-3.023,3.901-6.899,3.938-10.863
				l0.124-13.067"/>
			<path class="st0" d="M91.805,111.349c-0.311,0-0.625-0.008-0.943-0.025l-8.365-0.88c-4.472-0.471-8.601-2.563-11.626-5.89
				c-0.142-0.156-0.281-0.314-0.416-0.474c-2.573-3.034-4.012-7-4.052-11.166l-0.124-13.068l0.953-0.009l0.124,13.068
				c0.038,3.944,1.396,7.695,3.826,10.559c0.129,0.152,0.26,0.302,0.394,0.449c2.867,3.154,6.781,5.137,11.021,5.583l8.34,0.878
				c2.881,0.152,5.427-0.434,7.547-1.741c1.132-0.698,1.859-1.861,1.996-3.191c0.139-1.351-0.346-2.661-1.332-3.593
				c-1.691-1.599-2.239-4.034-1.398-6.204c1.14-2.94,1.718-6.028,1.718-9.181v-0.666c0-3.555-0.728-7.007-2.164-10.258l-2.017-4.569
				c-0.799-1.809-1.379-3.714-1.724-5.661l-0.957-5.398c-0.513-2.894-0.506-5.827,0.02-8.719c0.107-0.59,0.113-1.189,0.016-1.781
				l-1.798-11.025c-0.268-1.642-0.92-3.226-1.887-4.58l-0.311-0.436c-1.444-2.021-2.207-4.403-2.207-6.887
				c0-2.559-0.906-5.047-2.551-7.006l-0.632-0.753C76.452,10.624,66.551,5.977,56.089,5.977h-1.723
				c-10.578,0-20.547,4.647-27.349,12.748l-0.632,0.753c-1.645,1.959-2.551,4.448-2.551,7.006c0,2.484-0.763,4.866-2.207,6.887
				l-0.311,0.435c-0.967,1.354-1.62,2.938-1.888,4.58L17.63,49.412c-0.097,0.592-0.091,1.191,0.016,1.781
				c0.526,2.892,0.532,5.826,0.019,8.719l-0.956,5.398c-0.345,1.947-0.925,3.852-1.724,5.661l-2.017,4.569
				c-1.436,3.252-2.164,6.703-2.164,10.258v0.666c0,3.152,0.578,6.241,1.718,9.181c0.841,2.17,0.293,4.605-1.398,6.204
				c-0.985,0.932-1.471,2.242-1.332,3.593c0.137,1.33,0.864,2.494,1.996,3.191c2.12,1.307,4.668,1.892,7.572,1.74l8.315-0.876
				c4.239-0.446,8.153-2.429,11.021-5.583c0.134-0.148,0.266-0.298,0.395-0.449c2.429-2.865,3.788-6.615,3.825-10.559l0.124-13.068
				l0.953,0.009l-0.124,13.068c-0.04,4.167-1.478,8.132-4.052,11.166c-0.136,0.16-0.275,0.318-0.416,0.474
				c-3.025,3.327-7.154,5.419-11.626,5.89l-8.34,0.878c-3.125,0.165-5.859-0.468-8.147-1.879c-1.386-0.854-2.276-2.277-2.444-3.905
				c-0.17-1.648,0.423-3.246,1.625-4.383c1.408-1.332,1.865-3.36,1.164-5.167c-1.183-3.05-1.782-6.255-1.782-9.525v-0.666
				c0-3.688,0.755-7.269,2.245-10.643l2.017-4.569c0.768-1.739,1.325-3.57,1.657-5.442l0.956-5.398
				c0.493-2.782,0.487-5.602-0.018-8.382c-0.127-0.697-0.133-1.405-0.019-2.105l1.798-11.025c0.291-1.786,1.001-3.508,2.053-4.981
				l0.311-0.435c1.328-1.859,2.03-4.049,2.03-6.333c0-2.783,0.985-5.489,2.774-7.619l0.632-0.753
				C33.271,9.794,43.505,5.024,54.366,5.024h1.723c10.744,0,20.911,4.771,27.895,13.088l0.632,0.753
				c1.789,2.131,2.775,4.837,2.775,7.619c0,2.284,0.702,4.475,2.03,6.333l0.311,0.436c1.052,1.472,1.761,3.194,2.053,4.981
				l1.798,11.025c0.114,0.7,0.107,1.408-0.019,2.105c-0.506,2.78-0.512,5.6-0.019,8.382l0.957,5.398
				c0.332,1.872,0.889,3.703,1.657,5.442l2.017,4.569c1.49,3.373,2.245,6.954,2.245,10.643v0.666c0,3.271-0.6,6.476-1.782,9.525
				c-0.7,1.807-0.244,3.835,1.164,5.167c1.202,1.137,1.795,2.735,1.625,4.383c-0.168,1.628-1.058,3.051-2.444,3.905
				C96.93,110.71,94.519,111.349,91.805,111.349z"/>
		</g>
		<g>
			<path class="st1" d="M30.454,24.462c-3.39,6.038-1.695,11.97-1.695,11.97l5.211,23.301c0.266,1.188,0.791,2.302,1.538,3.263v0
				c0.718,0.923,1.232,1.989,1.506,3.126l0.477,1.976c0.577,2.389,1.542,4.667,2.858,6.743l1.819,2.872
				c1.103,1.741,2.61,3.187,4.401,4.207c3.926,2.235,11.058,4.845,17.919-0.134c1.32-0.958,2.419-2.187,3.292-3.564l2.141-3.38
				c1.315-2.076,2.281-4.354,2.858-6.743l0.477-1.976c0.275-1.137,0.788-2.203,1.506-3.126v0c0.747-0.961,1.273-2.075,1.538-3.263
				l5.211-23.301c0,0,1.695-5.932-1.695-11.97"/>
			<path class="st0" d="M55.949,85.103c-3.925,0-7.391-1.502-9.615-2.768c-1.844-1.05-3.424-2.56-4.568-4.366l-1.819-2.872
				c-1.346-2.125-2.328-4.441-2.918-6.886l-0.477-1.976c-0.261-1.079-0.738-2.07-1.419-2.945c-0.785-1.01-1.348-2.203-1.627-3.452
				l-5.211-23.301c-0.065-0.223-1.703-6.167,1.744-12.307l0.831,0.467c-3.255,5.798-1.669,11.548-1.652,11.606l5.218,23.328
				c0.249,1.112,0.75,2.175,1.449,3.075c0.765,0.983,1.301,2.096,1.593,3.307l0.477,1.976c0.566,2.343,1.507,4.564,2.797,6.6
				l1.819,2.872c1.061,1.675,2.525,3.075,4.234,4.047c8.415,4.791,14.516,1.99,17.404-0.105c1.221-0.886,2.287-2.041,3.169-3.434
				l2.141-3.38c1.29-2.036,2.231-4.257,2.797-6.6l0.477-1.976c0.293-1.212,0.829-2.324,1.594-3.307
				c0.699-0.899,1.2-1.962,1.449-3.075l5.211-23.301c0.023-0.084,1.601-5.85-1.645-11.633l0.831-0.467
				c3.447,6.141,1.809,12.084,1.738,12.334l-5.204,23.274c-0.279,1.249-0.842,2.442-1.627,3.452
				c-0.681,0.875-1.159,1.866-1.42,2.945l-0.477,1.976c-0.59,2.444-1.572,4.761-2.918,6.886l-2.141,3.38
				c-0.947,1.495-2.095,2.738-3.414,3.695C61.786,84.337,58.751,85.103,55.949,85.103z"/>
		</g>
		<g>
			<path class="st2" d="M47.832,65.568l2.088-0.84l4.961-5.187h0.509l4.855,4.883c0,0,2.258,1.408,3.328,1.339l-3.512,2.792
				L50.766,69.8L47.832,65.568z"/>
		</g>
		<g>
			<path class="st3" d="M54.182,77.321"/>
		</g>
		<g>
			<path class="st2" d="M54.182,40.881h3.822c1.211,0,2.366,0.505,3.189,1.392l0.692,0.747c0.745,0.804,1.16,1.86,1.16,2.957v0
				c0,1.02-0.358,2.007-1.012,2.789l-3.33,3.985c-0.152,0.181-0.313,0.352-0.483,0.512c-0.809,0.762-1.89,1.17-3.001,1.19h0
				c-1.3,0.024-2.564-0.49-3.435-1.455c-0.073-0.081-0.145-0.164-0.214-0.247l-3.33-3.985c-0.654-0.782-1.012-1.769-1.012-2.789v0
				c0-1.097,0.414-2.153,1.16-2.957l0.692-0.747c0.823-0.888,1.979-1.392,3.189-1.392h3.822"/>
			<path class="st0" d="M55.132,54.93c-1.429,0-2.774-0.585-3.703-1.613c-0.077-0.086-0.153-0.173-0.226-0.261l-3.33-3.985
				c-0.724-0.866-1.123-1.965-1.123-3.095c0-1.221,0.457-2.386,1.287-3.281l0.692-0.746c0.91-0.982,2.2-1.545,3.539-1.545h5.737
				c1.339,0,2.629,0.563,3.539,1.545l0.692,0.747c0.83,0.895,1.287,2.06,1.287,3.281c0,1.129-0.399,2.228-1.123,3.095l-3.33,3.985
				c-0.163,0.195-0.339,0.381-0.522,0.554c-0.88,0.828-2.058,1.296-3.319,1.319C55.195,54.93,55.163,54.93,55.132,54.93z
				 M52.267,41.358c-1.074,0-2.109,0.452-2.84,1.24l-0.692,0.747c-0.666,0.718-1.033,1.653-1.033,2.632
				c0,0.906,0.32,1.788,0.901,2.483l3.33,3.985c0.065,0.078,0.133,0.156,0.202,0.233c0.764,0.847,1.883,1.327,3.073,1.298
				c1.024-0.018,1.976-0.395,2.683-1.06c0.156-0.147,0.306-0.306,0.444-0.471l3.33-3.985c0.581-0.695,0.901-1.577,0.901-2.483
				c0-0.979-0.367-1.914-1.033-2.632l-0.692-0.747c-0.731-0.788-1.766-1.24-2.84-1.24H52.267z"/>
		</g>
		<g>
			<path class="st0" d="M60.75,24.462h-0.636v-0.637c0-2.282,1.036-4.395,2.841-5.799c1.746-1.358,3.961-1.828,6.077-1.289
				c0.668,0.17,1.351,0.428,2.028,0.767l-0.284,0.569c-0.637-0.319-1.277-0.561-1.901-0.72c-1.923-0.49-3.939-0.062-5.53,1.175
				c-1.649,1.282-2.596,3.213-2.596,5.297V24.462z"/>
		</g>
		<g>
			<path class="st0" d="M69.879,31.391c-0.873,0-2.11-0.12-3.52-0.611c-1.359-0.473-2.272-1.759-2.272-3.2
				c0-0.683,0.199-1.337,0.577-1.892c0.697-1.024,1.869-2.288,3.493-2.489c1.212-0.15,2.448,0.326,3.673,1.415
				c0.344,0.306,0.626,0.707,0.813,1.161l0.456,1.103c0.433,1.046,0.299,2.222-0.36,3.143c-0.584,0.818-1.529,1.328-2.526,1.364
				C70.109,31.389,69.997,31.391,69.879,31.391z M68.589,24.126c-0.106,0-0.21,0.006-0.315,0.019
				c-1.338,0.166-2.343,1.374-2.823,2.079c-0.269,0.396-0.412,0.864-0.412,1.355c0,1.036,0.656,1.96,1.632,2.3
				c1.462,0.509,2.715,0.581,3.506,0.553c0.715-0.026,1.366-0.378,1.785-0.966c0.466-0.652,0.561-1.484,0.255-2.225l-0.456-1.103
				c-0.133-0.321-0.328-0.602-0.566-0.812C70.299,24.529,69.423,24.126,68.589,24.126z"/>
		</g>
		<g>
			<path class="st0" d="M57.881,78.857h-3.699v-0.953h3.699c4.082,0,7.635-2.6,8.843-6.471c0.652-2.091,0.982-4.412,0.982-6.901
				h0.953c0,2.585-0.345,5.002-1.026,7.185C66.302,75.987,62.382,78.857,57.881,78.857z"/>
		</g>
		<g>
			<circle class="st2" cx="68.156" cy="27.282" r="3.286"/>
			<path class="st0" d="M68.156,30.727c-1.9,0-3.445-1.545-3.445-3.445c0-1.9,1.546-3.445,3.445-3.445s3.445,1.545,3.445,3.445
				C71.601,29.182,70.056,30.727,68.156,30.727z M68.156,24.155c-1.724,0-3.127,1.403-3.127,3.127c0,1.725,1.403,3.127,3.127,3.127
				s3.127-1.403,3.127-3.127C71.283,25.557,69.88,24.155,68.156,24.155z"/>
		</g>
		<g>
			<path class="st0" d="M60.312,50.941l-2.364-1.496c-0.884-0.559-1.514-1.467-1.73-2.49c-0.098-0.464,0.017-0.942,0.316-1.31
				c0.299-0.368,0.742-0.58,1.217-0.58c0.863,0,1.566,0.703,1.566,1.566v0.72c0,0.187,0.083,0.362,0.228,0.48l1.939,1.582
				l-0.603,0.739l-1.939-1.582c-0.368-0.3-0.579-0.744-0.579-1.219v-0.72c0-0.338-0.275-0.613-0.613-0.613
				c-0.186,0-0.359,0.083-0.476,0.227c-0.117,0.144-0.162,0.331-0.124,0.513c0.163,0.773,0.639,1.459,1.307,1.881l2.364,1.496
				L60.312,50.941z"/>
		</g>
		<g>
			<path class="st0" d="M89.304,51.535l-0.541-0.334c1.513-2.447,2.003-4.76,1.455-6.876c-0.823-3.177-3.747-4.845-3.776-4.861
				c-1.602-0.868-2.625-2.034-3.036-3.465c-0.671-2.334,0.533-4.505,0.584-4.596l2.643-5.065l0.564,0.294l-2.648,5.075
				c-0.016,0.029-1.13,2.047-0.53,4.122c0.363,1.258,1.282,2.294,2.73,3.078c0.133,0.074,3.189,1.81,4.083,5.252
				C91.427,46.45,90.913,48.932,89.304,51.535z"/>
		</g>
		<g>
			<path class="st0" d="M92.497,55.095l-2.234-2.114c-3.407-3.223-6.086-7.246-7.748-11.632l-1.309-4.833l0.613-0.166l1.299,4.804
				c1.619,4.268,4.244,8.209,7.581,11.366l2.234,2.114L92.497,55.095z"/>
		</g>
		<g>
			<path class="st0" d="M98.418,100.681l-4.595-3.489c-2.882-2.189-3.872-6.161-2.353-9.446c1.258-2.722,1.275-5.852,0.046-8.587
				c-0.709-1.578-1.039-3.327-0.952-5.055l0.214-4.26c0.172-3.417-0.733-6.733-2.618-9.59l-1.984-3.006
				c-0.157-0.238-0.311-0.477-0.462-0.718c-3.084-4.917-4.783-10.713-4.913-16.762l-0.031-1.434l0.636-0.014l0.031,1.434
				c0.128,5.934,1.793,11.618,4.816,16.438c0.149,0.237,0.3,0.472,0.454,0.706l1.984,3.006c1.959,2.97,2.901,6.418,2.722,9.971
				l-0.214,4.26c-0.082,1.629,0.228,3.276,0.897,4.763c1.305,2.903,1.287,6.225-0.049,9.115c-1.394,3.016-0.486,6.663,2.16,8.673
				l4.595,3.489L98.418,100.681z"/>
		</g>
		<g>
			<path class="st0" d="M95.979,98.757l-1.245-3.89c-0.968-3.025-0.953-6.218,0.043-9.235c1.488-4.505,0.673-9.457-2.179-13.248
				l-1.756-2.334l0.508-0.382l1.756,2.334c2.978,3.957,3.828,9.127,2.274,13.829c-0.954,2.888-0.968,5.945-0.041,8.842l1.245,3.89
				L95.979,98.757z"/>
		</g>
		<g>
			<path class="st0" d="M97.879,95.862l-0.254-1.764c-0.572-3.962-0.571-7.98,0.004-11.944l0.667-4.596l0.629,0.091l-0.667,4.596
				c-0.566,3.903-0.567,7.86-0.004,11.762l0.255,1.764L97.879,95.862z"/>
		</g>
		<g>
			<path class="st0" d="M98.535,109.286l-3.5-2.804c-7.279-5.831-11.302-14.872-10.762-24.183l0.683-11.772
				c0.327-2.693-0.501-5.392-2.27-7.424c-0.955-1.096-1.676-2.412-2.086-3.807l-2.548-8.669l0.61-0.179l2.548,8.669
				c0.385,1.307,1.061,2.542,1.955,3.569c1.887,2.167,2.771,5.046,2.423,7.898l-0.682,11.751
				c-0.528,9.106,3.406,17.947,10.525,23.65l3.5,2.804L98.535,109.286z"/>
		</g>
		<g>
			<path class="st0" d="M88.328,111.103l-0.689-0.648c-4.367-4.109-6.763-9.903-6.573-15.897c0.085-2.67-0.124-5.356-0.62-7.981
				l-1.151-6.087c-0.836-4.421-0.868-8.91-0.096-13.343l1.393-7.994l0.626,0.109l-1.393,7.994c-0.76,4.358-0.728,8.771,0.094,13.116
				l1.151,6.087c0.505,2.671,0.717,5.402,0.631,8.119c-0.184,5.812,2.139,11.43,6.373,15.414l0.689,0.648L88.328,111.103z"/>
		</g>
		<g>
			<path class="st0" d="M75.389,107.869l-3.122-12.423c-0.539-2.146-0.319-4.431,0.621-6.434c1.685-3.593,2.29-7.569,1.748-11.5
				c-0.408-2.954-0.193-5.904,0.637-8.768l4.051-13.968l0.61,0.177l-4.051,13.968c-0.805,2.778-1.013,5.639-0.618,8.505
				c0.559,4.053-0.064,8.153-1.802,11.857c-0.878,1.871-1.084,4.005-0.58,6.009l3.122,12.423L75.389,107.869z"/>
		</g>
		<g>
			<path class="st3" d="M54.5,77.321"/>
		</g>
		<g>
			<path class="st0" d="M50.157,24.462h-0.636v-0.637c0-2.084-0.946-4.015-2.596-5.297c-1.591-1.237-3.606-1.665-5.53-1.175
				c-0.624,0.159-1.264,0.401-1.901,0.72l-0.284-0.569c0.678-0.339,1.36-0.597,2.029-0.767c2.115-0.538,4.33-0.069,6.077,1.289
				c1.806,1.404,2.841,3.517,2.841,5.799V24.462z"/>
		</g>
		<g>
			<path class="st0" d="M40.392,31.391c-0.118,0-0.23-0.002-0.334-0.006c-0.998-0.036-1.942-0.546-2.527-1.364
				c-0.658-0.922-0.793-2.097-0.36-3.143l0.456-1.103c0.188-0.453,0.469-0.855,0.813-1.161c1.226-1.089,2.462-1.566,3.674-1.415
				c1.625,0.202,2.796,1.465,3.493,2.489c0.377,0.555,0.577,1.209,0.577,1.892c0,1.441-0.913,2.727-2.272,3.2
				C42.502,31.271,41.265,31.391,40.392,31.391z M41.682,24.126c-0.834,0-1.71,0.403-2.608,1.201
				c-0.237,0.211-0.433,0.492-0.566,0.813l-0.456,1.103c-0.307,0.741-0.211,1.572,0.254,2.225c0.414,0.579,1.081,0.94,1.785,0.966
				c0.792,0.028,2.045-0.044,3.506-0.553c0.976-0.34,1.632-1.264,1.632-2.3c0-0.491-0.142-0.959-0.412-1.355
				c-0.48-0.705-1.484-1.913-2.822-2.079C41.893,24.132,41.788,24.126,41.682,24.126z"/>
		</g>
		<g>
			<path class="st2" d="M46.801,65.747c-0.005,0.071-0.009,0.141-0.013,0.211c-0.188,3.302,1.463,6.26,4.039,7.928
				c1.25,0.809,2.728,1.195,4.217,1.195h0.012c1.721,0,3.419-0.523,4.779-1.576c2.282-1.766,3.817-4.553,3.647-7.547
				c-0.004-0.07-0.008-0.14-0.013-0.211"/>
			<path class="st0" d="M55.056,75.399c-1.625,0-3.143-0.431-4.402-1.246c-2.767-1.791-4.37-4.938-4.184-8.213l0.014-0.215
				l0.634,0.045l-0.013,0.206c-0.173,3.047,1.319,5.976,3.894,7.643c1.156,0.749,2.555,1.144,4.045,1.144
				c1.711,0,3.339-0.536,4.597-1.51c2.362-1.828,3.68-4.548,3.525-7.278l-0.013-0.206l0.634-0.045L63.8,65.94
				c0.167,2.938-1.242,5.86-3.77,7.817C58.662,74.816,56.896,75.399,55.056,75.399z"/>
		</g>
		<g>
			<path class="st0" d="M56.089,78.857H52.39c-4.501,0-8.421-2.869-9.753-7.141c-0.68-2.182-1.026-4.599-1.026-7.185h0.953
				c0,2.489,0.331,4.811,0.982,6.901c1.207,3.871,4.76,6.471,8.842,6.471h3.699V78.857z"/>
		</g>
		<g>
			<circle class="st2" cx="42.115" cy="27.282" r="3.286"/>
			<path class="st0" d="M42.115,30.727c-1.9,0-3.445-1.545-3.445-3.445c0-1.9,1.546-3.445,3.445-3.445
				c1.9,0,3.445,1.545,3.445,3.445C45.56,29.182,44.015,30.727,42.115,30.727z M42.115,24.155c-1.724,0-3.127,1.403-3.127,3.127
				c0,1.725,1.403,3.127,3.127,3.127c1.724,0,3.127-1.403,3.127-3.127C45.243,25.557,43.84,24.155,42.115,24.155z"/>
		</g>
		<g>
			<path class="st0" d="M49.959,50.941l-0.51-0.806l2.364-1.496c0.667-0.423,1.144-1.108,1.307-1.881
				c0.038-0.182-0.007-0.369-0.124-0.513c-0.117-0.144-0.29-0.227-0.476-0.227c-0.338,0-0.613,0.275-0.613,0.613v0.72
				c0,0.475-0.211,0.919-0.579,1.219l-1.939,1.582l-0.603-0.739l1.939-1.582c0.145-0.118,0.228-0.293,0.228-0.481v-0.72
				c0-0.864,0.703-1.566,1.566-1.566c0.474,0,0.918,0.211,1.217,0.58c0.299,0.369,0.414,0.846,0.316,1.31
				c-0.216,1.023-0.847,1.93-1.73,2.49L49.959,50.941z"/>
		</g>
		<g>
			<path class="st0" d="M20.968,51.535c-1.61-2.603-2.124-5.085-1.528-7.377c0.895-3.442,3.95-5.178,4.08-5.25
				c1.452-0.786,2.37-1.822,2.734-3.08c0.599-2.075-0.514-4.093-0.525-4.113l-2.653-5.083l0.564-0.294l2.648,5.075
				c0.046,0.082,1.25,2.252,0.579,4.587c-0.411,1.431-1.434,2.597-3.04,3.467c-0.026,0.014-2.95,1.683-3.773,4.859
				c-0.548,2.115-0.058,4.429,1.455,6.876L20.968,51.535z"/>
		</g>
		<g>
			<path class="st0" d="M17.774,55.095l-0.437-0.462l2.234-2.114c3.338-3.158,5.963-7.099,7.591-11.396l1.29-4.774l0.614,0.166
				l-1.3,4.804c-1.671,4.416-4.35,8.438-7.758,11.662L17.774,55.095z"/>
		</g>
		<g>
			<path class="st0" d="M11.854,100.681l-0.385-0.506l4.594-3.489c2.646-2.01,3.555-5.657,2.16-8.673
				c-1.336-2.889-1.354-6.211-0.049-9.115c0.668-1.487,0.979-3.134,0.897-4.763l-0.214-4.26c-0.179-3.553,0.763-7.001,2.723-9.971
				l1.984-3.006c0.154-0.234,0.306-0.469,0.454-0.706c3.023-4.82,4.688-10.504,4.816-16.438l0.031-1.434l0.636,0.014l-0.031,1.434
				c-0.13,6.048-1.829,11.845-4.913,16.762c-0.151,0.241-0.305,0.48-0.462,0.718l-1.984,3.006c-1.885,2.856-2.79,6.172-2.618,9.59
				l0.214,4.26c0.087,1.729-0.242,3.477-0.952,5.055c-1.229,2.735-1.213,5.865,0.046,8.587c1.519,3.285,0.529,7.257-2.353,9.446
				L11.854,100.681z"/>
		</g>
		<g>
			<path class="st0" d="M14.293,98.757l-0.605-0.194l1.245-3.89c0.927-2.897,0.913-5.954-0.041-8.842
				c-1.553-4.702-0.703-9.872,2.275-13.829l1.756-2.334l0.508,0.382l-1.756,2.334c-2.852,3.791-3.667,8.743-2.179,13.248
				c0.996,3.016,1.011,6.209,0.043,9.235L14.293,98.757z"/>
		</g>
		<g>
			<path class="st0" d="M12.392,95.862l-0.629-0.091l0.255-1.764c0.563-3.903,0.562-7.86-0.004-11.762l-0.666-4.596l0.629-0.091
				l0.666,4.596c0.575,3.962,0.576,7.981,0.004,11.944L12.392,95.862z"/>
		</g>
		<g>
			<path class="st0" d="M11.736,109.286l-0.397-0.496l3.5-2.804c7.119-5.703,11.053-14.544,10.525-23.65L24.68,70.564
				c-0.345-2.832,0.538-5.711,2.425-7.877c0.895-1.028,1.571-2.261,1.955-3.569l2.548-8.669l0.61,0.179l-2.548,8.669
				c-0.41,1.395-1.131,2.711-2.086,3.807c-1.769,2.031-2.597,4.73-2.272,7.403l0.685,11.792c0.54,9.311-3.483,18.351-10.762,24.183
				L11.736,109.286z"/>
		</g>
		<g>
			<path class="st0" d="M21.943,111.103l-0.435-0.463l0.689-0.648c4.235-3.984,6.558-9.602,6.373-15.414
				c-0.086-2.716,0.126-5.448,0.631-8.119l1.151-6.087c0.822-4.346,0.853-8.759,0.094-13.116l-1.393-7.994l0.626-0.109l1.393,7.994
				c0.773,4.433,0.74,8.922-0.096,13.343l-1.151,6.087c-0.496,2.626-0.705,5.311-0.62,7.98c0.19,5.994-2.205,11.788-6.573,15.897
				L21.943,111.103z"/>
		</g>
		<g>
			<path class="st0" d="M34.882,107.869l-0.616-0.155l3.122-12.423c0.504-2.004,0.298-4.138-0.58-6.009
				c-1.738-3.704-2.361-7.804-1.802-11.857c0.395-2.865,0.187-5.726-0.618-8.505l-4.05-13.968l0.61-0.177l4.05,13.968
				c0.831,2.864,1.045,5.814,0.638,8.768c-0.542,3.931,0.062,7.908,1.747,11.5c0.94,2.003,1.16,4.288,0.621,6.434L34.882,107.869z"
				/>
		</g>
		<g>
			<path class="st0" d="M64.472,66.309c-0.36,0-0.722-0.03-1.082-0.092l-0.901-0.155c-1.415-0.242-2.723-0.963-3.683-2.03L55.224,60
				c-0.03-0.034-0.065-0.04-0.09-0.04l0,0c-0.025,0-0.06,0.007-0.09,0.04l-3.576,4.03c-0.963,1.069-2.271,1.79-3.685,2.033
				l-0.901,0.155c-1.805,0.309-3.661-0.169-5.091-1.314c-0.774-0.619-1.402-1.421-1.817-2.321c-0.65-1.409-1.104-2.9-1.348-4.433
				l-1.255-7.872c-0.409-2.57,0.105-5.212,1.45-7.44l1.713-2.838l0.816,0.493l-1.713,2.838c-1.228,2.035-1.699,4.449-1.324,6.797
				l1.255,7.872c0.231,1.447,0.659,2.855,1.272,4.184c0.353,0.766,0.889,1.449,1.547,1.976c1.218,0.975,2.798,1.382,4.335,1.118
				l0.901-0.155c1.204-0.206,2.318-0.82,3.136-1.728l3.574-4.028c0.204-0.23,0.496-0.361,0.803-0.361c0,0,0,0,0,0
				c0.306,0,0.599,0.132,0.802,0.361l3.578,4.03c0.816,0.906,1.929,1.519,3.134,1.726l0.901,0.155
				c1.537,0.264,3.117-0.144,4.334-1.118c0.653-0.522,1.184-1.198,1.537-1.955l0.474-1.371c0.659-1.907,1.154-3.885,1.471-5.878
				l0.77-4.828c0.374-2.347-0.096-4.761-1.324-6.797L69.1,40.492l0.816-0.493l1.713,2.838c1.344,2.228,1.859,4.87,1.45,7.44
				l-0.77,4.828c-0.326,2.048-0.835,4.079-1.512,6.039l-0.499,1.439c-0.415,0.899-1.044,1.702-1.817,2.321
				C67.335,65.82,65.917,66.309,64.472,66.309z"/>
		</g>
		<g>
			
				<rect x="70.891" y="39.928" transform="matrix(0.085 -0.9964 0.9964 0.085 30.4085 113.6034)" class="st0" width="12.333" height="0.635"/>
		</g>
		<g>
			
				<rect x="33.182" y="32.568" transform="matrix(0.9922 -0.1243 0.1243 0.9922 -4.5978 4.467)" class="st0" width="0.636" height="13.024"/>
		</g>
		<g>
			<path class="st0" d="M43.647,33.846l-0.539-0.336c3.033-4.868,3.152-6.063,3.156-6.186l-0.006-0.029l0.007-0.052
				c0.187-1.491-0.106-2.698-0.871-3.588c-1.373-1.597-3.822-1.676-3.847-1.677l0.016-0.635c0.112,0.003,2.757,0.089,4.313,1.898
				c0.884,1.027,1.228,2.392,1.023,4.057C46.901,27.651,46.633,29.053,43.647,33.846z"/>
		</g>
		<g>
			<path class="st0" d="M66.811,33.845c-2.986-4.793-3.254-6.195-3.251-6.549c-0.205-1.665,0.14-3.03,1.023-4.057
				c1.555-1.808,4.201-1.895,4.313-1.898l0.016,0.635c-0.025,0.001-2.481,0.086-3.849,1.68c-0.764,0.89-1.056,2.096-0.869,3.585
				l0.007,0.052l-0.006,0.029c0.003,0.123,0.123,1.318,3.156,6.186L66.811,33.845z"/>
		</g>
		<g>
			<path class="st0" d="M55.453,67.575h-0.636v-7.134l-4.43,4.358l-3.034,1.325l-0.254-0.582l2.927-1.278l4.831-4.752
				c0.101-0.099,0.25-0.128,0.381-0.074c0.131,0.055,0.215,0.182,0.215,0.323V67.575z"/>
		</g>
		<g>
			<path class="st4" d="M60.245,64.658"/>
		</g>
	</g>
</g>
<g id="Layer_1">
</g>
</svg>
