<?xml version="1.0" encoding="utf-8"?>
<!-- Generator: Adobe Illustrator 21.1.0, SVG Export Plug-In . SVG Version: 6.00 Build 0)  -->
<svg version="1.1" id="Layer_1" xmlns="http://www.w3.org/2000/svg" xmlns:xlink="http://www.w3.org/1999/xlink" x="0px" y="0px"
	 viewBox="0 0 35.75 37.312" style="enable-background:new 0 0 35.75 37.312;" xml:space="preserve">
<style type="text/css">
	.st0{fill:#424242;}
</style>
<g id="Layer_1_1_">
</g>
<g>
	<path class="st0" d="M17.419,35.637c-9.566,0-17.35-7.783-17.35-17.35s7.783-17.35,17.35-17.35c9.567,0,17.35,7.783,17.35,17.35
		S26.986,35.637,17.419,35.637z M17.419,2.438c-8.739,0-15.85,7.11-15.85,15.85s7.11,15.85,15.85,15.85
		c8.74,0,15.85-7.11,15.85-15.85S26.159,2.438,17.419,2.438z"/>
</g>
<g>
	<path class="st0" d="M9.575,29.084l2.997-9.221l-7.844-5.699h9.695l2.996-9.221l2.997,9.221h9.696l-7.845,5.699l2.996,9.22
		l-7.844-5.698L9.575,29.084z M17.419,21.531l4.991,3.626l-1.906-5.868l4.991-3.626h-6.169l-1.907-5.868l-1.906,5.868H9.344
		l4.991,3.626l-1.907,5.867L17.419,21.531z"/>
</g>
</svg>
