<?xml version="1.0" encoding="utf-8"?>
<!-- Generator: Adobe Illustrator 21.1.0, SVG Export Plug-In . SVG Version: 6.00 Build 0)  -->
<svg version="1.1" xmlns="http://www.w3.org/2000/svg" xmlns:xlink="http://www.w3.org/1999/xlink" x="0px" y="0px"
	 viewBox="0 0 109 116" style="enable-background:new 0 0 109 116;" xml:space="preserve">
<style type="text/css">
	.st0{fill:#E4CDB5;}
	.st1{fill:#1E1E1E;}
	.st2{fill:#FFFFFF;}
	.st3{fill:#050505;}
</style>
<g id="Layer_3">
</g>
<g id="Layer_2">
	<g>
		<path class="st0" d="M77.309,99.498c6.285-2.281,11.373-7.093,13.802-13.321c0.113-0.291,0.223-0.582,0.33-0.874
			c3.426-9.36,3.549-19.61,0.62-29.137l-1.307-4.252l-4.114-13.217l-2.488-13.118c-1.168-6.161-3.604-12.011-7.153-17.18
			l-2.12-3.087c-0.879-1.281-2.334-2.046-3.887-2.046l0,0c-2.266,0-4.212,1.612-4.633,3.839l-2.738,14.472
			c-0.349,1.845-1.961,3.181-3.839,3.181l-12.238-0.109c-1.878,0-3.49-1.336-3.839-3.181L40.965,6.994
			c-0.421-2.227-2.367-3.839-4.633-3.839h0c-1.554,0-3.008,0.765-3.887,2.046l-2.12,3.087c-3.549,5.169-5.985,11.02-7.153,17.18
			l-2.488,13.118l-4.114,13.217l-1.307,4.252c-2.929,9.527-2.806,19.777,0.62,29.137c0.107,0.292,0.217,0.583,0.33,0.874
			c2.429,6.229,7.517,11.041,13.802,13.321c6.817,2.474,23.648,11.935,23.648,11.935S70.455,101.985,77.309,99.498z"/>
		<path class="st1" d="M53.66,111.896l-0.243-0.137c-0.168-0.094-16.873-9.469-23.574-11.901
			c-6.506-2.361-11.644-7.321-14.097-13.609c-0.115-0.294-0.226-0.588-0.334-0.883c-3.394-9.273-3.617-19.734-0.628-29.455
			l1.308-4.252l4.106-13.191l2.483-13.09c1.189-6.267,3.622-12.111,7.232-17.37l2.12-3.087c0.973-1.417,2.58-2.263,4.299-2.263
			c2.504,0,4.659,1.786,5.124,4.246l2.738,14.472c0.304,1.608,1.712,2.774,3.348,2.774l12.242,0.109c1.632,0,3.04-1.167,3.344-2.774
			l2.738-14.472c0.465-2.46,2.62-4.246,5.124-4.246c1.719,0,3.326,0.846,4.299,2.263l2.12,3.088
			c3.61,5.259,6.044,11.103,7.232,17.37l2.483,13.09l4.106,13.19l1.308,4.254c2.989,9.722,2.766,20.182-0.628,29.455
			c-0.108,0.295-0.219,0.59-0.334,0.884c-2.452,6.288-7.59,11.248-14.096,13.609l-0.17-0.47l0.17,0.47
			c-6.738,2.445-23.408,11.7-23.576,11.793L53.66,111.896z M36.332,3.655c-1.39,0-2.689,0.684-3.476,1.83l-2.12,3.087
			c-3.532,5.144-5.912,10.861-7.075,16.991L21.16,38.736l-4.114,13.217l-1.307,4.251c-2.925,9.514-2.708,19.749,0.611,28.818
			c0.106,0.288,0.214,0.576,0.326,0.864c2.348,6.02,7.271,10.77,13.507,13.033c6.412,2.327,21.309,10.618,23.479,11.833
			c2.1-1.161,17.115-9.415,23.476-11.724l0,0c6.236-2.263,11.159-7.013,13.507-13.033c0.112-0.287,0.221-0.576,0.326-0.864
			c3.32-9.069,3.537-19.304,0.611-28.818l-1.308-4.252L86.148,38.79L83.66,25.672c-1.163-6.13-3.543-11.847-7.075-16.991
			l-2.12-3.088c-0.787-1.146-2.086-1.83-3.475-1.83c-2.024,0-3.766,1.444-4.143,3.432L64.11,21.668
			c-0.393,2.079-2.214,3.587-4.33,3.587l-12.242-0.109c-2.111,0-3.932-1.509-4.325-3.588L40.475,7.087
			C40.098,5.098,38.356,3.655,36.332,3.655z"/>
	</g>
	<g>
		<path class="st2" d="M69.637,94.947c3.058-1.116,5.941-2.686,8.448-4.762c15.197-12.582,7.199-32.443,7.199-32.443l0,0
			c-6.788-2.291-13.161-5.664-18.873-9.989l0,0c-1.613-1.221-2.738-2.978-3.174-4.954l-0.678-3.077
			c-0.732-3.321-2.087-6.226-4.351-8.51c-1.169-1.179-2.764-1.838-4.424-1.838h0c-1.655,0-3.244,0.657-4.414,1.828
			c-2.294,2.296-3.902,5.212-4.609,8.419l-0.676,3.067c-0.435,1.976-1.561,3.732-3.174,4.954l0,0
			c-5.712,4.325-12.085,7.698-18.873,9.989h0c0,0-7.998,19.861,7.199,32.443c2.507,2.076,5.486,3.412,8.448,4.762
			c4.325,1.971,16.268,8.354,16.268,8.354S65.787,96.352,69.637,94.947z"/>
		<path class="st1" d="M53.96,103.573l-0.163-0.087c-0.119-0.064-11.983-6.4-16.249-8.345l-0.199-0.091
			c-2.87-1.308-5.839-2.661-8.324-4.718c-7.952-6.584-9.511-15.163-9.419-21.201c0.1-6.524,2.103-11.572,2.124-11.622l0.057-0.142
			l0.145-0.049c6.767-2.284,13.085-5.627,18.778-9.939c1.548-1.173,2.631-2.863,3.049-4.76l0.676-3.067
			c0.717-3.256,2.342-6.224,4.698-8.583c1.223-1.224,2.917-1.926,4.649-1.926c1.742,0,3.441,0.706,4.66,1.936
			c2.188,2.207,3.64,5.044,4.44,8.673l0.678,3.077c0.418,1.897,1.501,3.587,3.049,4.76c5.694,4.312,12.012,7.655,18.778,9.939
			l0.145,0.049l0.057,0.142c0.02,0.05,2.024,5.098,2.124,11.622c0.092,6.038-1.467,14.618-9.419,21.201
			c-2.435,2.016-5.311,3.638-8.546,4.818l0,0c-3.779,1.379-15.513,8.152-15.631,8.22L53.96,103.573z M22.294,57.898
			c-0.318,0.851-1.937,5.461-2.022,11.265c-0.086,5.885,1.436,14.247,9.178,20.656c2.417,2.001,5.344,3.335,8.175,4.625l0.199,0.091
			c4.01,1.828,14.673,7.503,16.123,8.277c1.484-0.855,11.941-6.85,15.576-8.177l0,0c3.164-1.155,5.973-2.738,8.35-4.706
			c7.749-6.415,9.268-14.786,9.178-20.678c-0.089-5.799-1.704-10.393-2.022-11.243c-6.778-2.305-13.109-5.665-18.819-9.988
			c-1.675-1.268-2.846-3.096-3.298-5.147l-0.678-3.077c-0.772-3.502-2.166-6.232-4.262-8.347c-1.096-1.105-2.622-1.739-4.187-1.739
			c-1.557,0-3.08,0.631-4.178,1.73c-2.266,2.269-3.829,5.124-4.519,8.256l-0.676,3.067c-0.452,2.051-1.623,3.879-3.298,5.148
			C35.404,52.232,29.073,55.592,22.294,57.898z"/>
	</g>
	<g>
		<path class="st0" d="M52.303,85.746h2.526c1.701,0,3.237-0.85,3.9-2.159l1.113-2.199c1.31-2.588-0.732-5.597-4.089-5.796
			c-0.121-0.007-0.244-0.011-0.367-0.011h-3.639c-0.124,0-0.246,0.004-0.367,0.011c-3.356,0.199-5.399,3.208-4.089,5.796
			l1.113,2.199C49.066,84.896,50.602,85.746,52.303,85.746z"/>
		<path class="st1" d="M54.829,86.246h-2.526c-1.892,0-3.597-0.955-4.345-2.433l-1.113-2.199c-0.644-1.272-0.601-2.719,0.117-3.969
			c0.853-1.485,2.494-2.439,4.388-2.551c0.131-0.008,0.263-0.012,0.397-0.012h3.639c0.134,0,0.266,0.004,0.397,0.012
			c1.893,0.112,3.534,1.066,4.387,2.551c0.718,1.25,0.761,2.697,0.117,3.969l-1.113,2.199C58.426,85.291,56.72,86.246,54.829,86.246
			z M51.747,76.081c-0.113,0-0.226,0.003-0.337,0.01c-1.557,0.092-2.896,0.859-3.581,2.052c-0.548,0.953-0.581,2.054-0.092,3.02
			l1.113,2.199c0.58,1.145,1.935,1.885,3.454,1.885h2.526c1.519,0,2.874-0.74,3.454-1.885l1.113-2.199
			c0.489-0.966,0.456-2.067-0.092-3.02c-0.685-1.192-2.024-1.96-3.581-2.052c-0.112-0.007-0.224-0.01-0.338-0.01H51.747z"/>
	</g>
	<g>
		<path class="st3" d="M23.29,41.103l-0.179-0.642c3.579-0.999,6.899-2.876,9.6-5.428l4.954-4.681
			c2.95-2.788,4.137-6.957,3.096-10.881L38.055,9.275c-0.309-1.165-1.367-1.979-2.572-1.979c-0.949,0-1.832,0.511-2.306,1.333
			l-6.72,11.666l-0.577-0.332l6.72-11.666c0.592-1.028,1.697-1.667,2.883-1.667c1.507,0,2.829,1.017,3.216,2.474L41.404,19.3
			c1.103,4.16-0.154,8.58-3.282,11.536l-4.954,4.681C30.389,38.143,26.973,40.075,23.29,41.103z"/>
	</g>
	<g>
		<path class="st3" d="M28.018,30.683l-0.148-0.649c0.041-0.009,4.131-0.99,6.579-4.996c2.064-3.378,2.405-7.879,1.014-13.378
			l0.645-0.163c1.439,5.686,1.069,10.362-1.098,13.9C32.41,29.642,28.196,30.643,28.018,30.683z"/>
	</g>
	<g>
		<path class="st3" d="M55.019,86.136h-2.526c-1.892,0-3.597-0.955-4.345-2.433l-1.113-2.199c-0.644-1.272-0.601-2.719,0.117-3.969
			c0.853-1.485,2.494-2.439,4.388-2.551c0.131-0.008,0.263-0.012,0.397-0.012h3.639c0.133,0,0.266,0.004,0.397,0.012
			c1.894,0.113,3.534,1.066,4.388,2.551c0.718,1.25,0.761,2.697,0.117,3.969l-1.113,2.199
			C58.616,85.181,56.911,86.136,55.019,86.136z M51.937,75.971c-0.114,0-0.226,0.003-0.338,0.01
			c-1.557,0.092-2.895,0.859-3.58,2.052c-0.548,0.953-0.581,2.054-0.092,3.02l1.113,2.199c0.579,1.145,1.935,1.885,3.454,1.885
			h2.526c1.518,0,2.874-0.74,3.454-1.885l1.113-2.199c0.489-0.966,0.456-2.067-0.092-3.02c-0.685-1.192-2.024-1.959-3.581-2.052
			c-0.111-0.007-0.224-0.01-0.338-0.01H51.937z"/>
	</g>
	<g>
		<path class="st3" d="M42.221,67.139l-0.351-0.566c7.886-4.882,8.102-12.33,8.103-12.405l0.666,0.011
			C50.639,54.258,50.413,62.068,42.221,67.139z"/>
	</g>
	<g>
		<path class="st3" d="M52.613,93.395c-3.685,0-7.069-1.935-9.302-5.326c-0.112-0.171-0.222-0.344-0.329-0.52
			c-1.675-2.766-2.597-6.194-2.597-9.652v-2.425h0.999v2.425c0,3.278,0.871,6.522,2.452,9.134c0.1,0.166,0.203,0.328,0.308,0.488
			c2.069,3.141,5.208,4.919,8.588,4.876l2.568-0.032c3.118-0.039,6.055-1.66,8.058-4.447c0.226-0.315,0.444-0.645,0.648-0.982
			c1.581-2.613,2.452-5.857,2.452-9.134v-2.425h0.999V77.8c0,3.458-0.922,6.885-2.597,9.652c-0.218,0.359-0.45,0.712-0.692,1.048
			c-2.19,3.047-5.419,4.819-8.857,4.863l-2.568,0.032C52.701,93.395,52.657,93.395,52.613,93.395z"/>
	</g>
	<g>
		<path class="st3" d="M41.44,61.277c-1.355,0-3.152-0.416-4.444-2.262c-0.313-0.448-0.948-1.163-1.382-1.596l-1.347-1.347
			l7.313-2.277c0.259-0.081,0.528-0.121,0.799-0.121c1.076,0,2.046,0.639,2.47,1.628c0.613,1.431,0.924,2.947,0.924,4.504v1.208
			h-0.983c-0.711,0-1.478,0.062-2.345,0.189C42.156,61.246,41.815,61.277,41.44,61.277z M36.143,56.535l0.178,0.178
			c0.457,0.457,1.136,1.218,1.494,1.73c1.343,1.918,3.387,1.933,4.484,1.772c0.909-0.133,1.719-0.199,2.475-0.2v-0.209
			c0-1.421-0.284-2.804-0.844-4.11c-0.266-0.621-0.875-1.023-1.551-1.023c-0.17,0-0.339,0.026-0.502,0.076L36.143,56.535z"/>
	</g>
	<g>
		<circle class="st0" cx="41.373" cy="57.632" r="2.038"/>
		<path class="st1" d="M41.373,59.837c-1.215,0-2.204-0.989-2.204-2.204c0-1.215,0.989-2.204,2.204-2.204
			c1.215,0,2.204,0.989,2.204,2.204C43.577,58.848,42.588,59.837,41.373,59.837z M41.373,55.761c-1.032,0-1.871,0.839-1.871,1.871
			c0,1.032,0.839,1.871,1.871,1.871s1.871-0.839,1.871-1.871C43.244,56.601,42.405,55.761,41.373,55.761z"/>
	</g>
	<g>
		<path class="st1" d="M34.989,66.537c-5.319-4.522-3.996-10.841-3.982-10.905l0.65,0.143c-0.013,0.06-1.243,5.998,3.763,10.254
			L34.989,66.537z"/>
	</g>
	<g>
		<path class="st1" d="M72.333,66.321l-0.432-0.507c5.006-4.257,3.776-10.195,3.763-10.254l0.65-0.143
			C76.329,55.479,77.652,61.799,72.333,66.321z"/>
	</g>
</g>
<g id="Layer_4">
	<g>
		<path class="st2" d="M58.069,83.599l-2.063-1.306c-0.681-0.431-1.159-1.119-1.325-1.907l0,0c-0.125-0.591,0.326-1.147,0.93-1.147
			h0c0.525,0,0.951,0.426,0.951,0.951v0.628c0,0.288,0.129,0.56,0.352,0.742l1.692,1.38"/>
		<path class="st3" d="M57.98,83.739l-2.063-1.306c-0.714-0.452-1.224-1.186-1.399-2.013c-0.07-0.331,0.012-0.672,0.225-0.935
			c0.213-0.263,0.53-0.414,0.868-0.414c0.616,0,1.117,0.501,1.117,1.117v0.629c0,0.239,0.106,0.462,0.291,0.613l1.692,1.381
			l-0.21,0.258l-1.692-1.38c-0.263-0.214-0.413-0.532-0.413-0.871v-0.629c0-0.432-0.352-0.784-0.784-0.784
			c-0.238,0-0.46,0.106-0.609,0.29c-0.15,0.185-0.207,0.424-0.158,0.656c0.156,0.74,0.612,1.397,1.252,1.801l2.063,1.306
			L57.98,83.739z"/>
	</g>
	<g>
		<path class="st2" d="M49.164,83.599l2.063-1.306c0.681-0.431,1.159-1.119,1.325-1.907l0,0c0.125-0.591-0.326-1.147-0.93-1.147h0
			c-0.525,0-0.951,0.426-0.951,0.951v0.628c0,0.288-0.129,0.56-0.352,0.742l-1.462,1.193"/>
		<path class="st3" d="M49.253,83.739l-0.178-0.281l2.063-1.306c0.639-0.405,1.095-1.061,1.252-1.801
			c0.049-0.232-0.009-0.472-0.158-0.656c-0.15-0.184-0.372-0.29-0.609-0.29c-0.432,0-0.784,0.352-0.784,0.784v0.629
			c0,0.339-0.151,0.657-0.413,0.871l-1.462,1.193l-0.21-0.258l1.462-1.193c0.185-0.151,0.291-0.374,0.291-0.613v-0.629
			c0-0.616,0.501-1.117,1.117-1.117c0.338,0,0.655,0.151,0.868,0.413c0.213,0.263,0.295,0.604,0.226,0.935
			c-0.175,0.827-0.685,1.561-1.399,2.014L49.253,83.739z"/>
	</g>
	<g>
		<path class="st3" d="M84.032,41.212c-3.683-1.028-7.099-2.959-9.878-5.585L69.2,30.945c-3.128-2.956-4.385-7.376-3.282-11.536
			l2.705-10.196c0.386-1.456,1.709-2.474,3.216-2.474c1.186,0,2.291,0.638,2.883,1.666l6.72,11.666l-0.577,0.332l-6.72-11.666
			c-0.473-0.822-1.357-1.333-2.306-1.333c-1.205,0-2.263,0.814-2.572,1.979L66.562,19.58c-1.041,3.924,0.145,8.093,3.096,10.881
			l4.954,4.681c2.701,2.552,6.02,4.429,9.6,5.428L84.032,41.212z"/>
	</g>
	<g>
		<path class="st3" d="M79.304,30.793c-0.178-0.04-4.392-1.042-6.993-5.288c-2.167-3.538-2.536-8.214-1.098-13.9l0.645,0.163
			c-1.393,5.505-1.05,10.01,1.02,13.389c2.456,4.009,6.532,4.977,6.573,4.986L79.304,30.793z"/>
	</g>
	<g>
		<path class="st3" d="M65.101,67.248c-4.276-2.647-6.337-6.021-7.313-8.385c-1.061-2.57-1.105-4.494-1.106-4.575l0.666-0.012
			c0.001,0.075,0.232,7.532,8.104,12.405L65.101,67.248z"/>
	</g>
	<g>
		<path class="st3" d="M65.882,61.387c-0.375,0-0.716-0.032-1.004-0.074c-0.868-0.127-1.635-0.189-2.345-0.189H61.55v-1.208
			c0-1.557,0.311-3.072,0.924-4.504c0.424-0.989,1.393-1.628,2.47-1.628c0.271,0,0.54,0.041,0.799,0.121l7.313,2.277l-1.347,1.347
			c-0.433,0.433-1.069,1.149-1.382,1.596C69.034,60.971,67.238,61.387,65.882,61.387z M62.549,60.125
			c0.755,0.001,1.564,0.066,2.475,0.199c1.099,0.162,3.142,0.145,4.485-1.772c0.357-0.51,1.036-1.272,1.494-1.729l0.178-0.178
			l-5.734-1.785c-0.163-0.051-0.332-0.076-0.502-0.076c-0.676,0-1.285,0.402-1.551,1.023c-0.56,1.306-0.844,2.689-0.844,4.11V60.125
			z"/>
	</g>
	<g>
		<path class="st3" d="M65.949,59.946c-1.215,0-2.204-0.989-2.204-2.204s0.989-2.204,2.204-2.204s2.204,0.989,2.204,2.204
			S67.164,59.946,65.949,59.946z M65.949,55.871c-1.032,0-1.871,0.839-1.871,1.871s0.839,1.871,1.871,1.871
			c1.032,0,1.871-0.839,1.871-1.871S66.981,55.871,65.949,55.871z"/>
	</g>
	<g>
		<path class="st3" d="M65.948,58.662c-0.137,0-0.277-0.031-0.408-0.096c-0.454-0.226-0.64-0.78-0.415-1.234
			c0.11-0.22,0.298-0.385,0.531-0.463c0.233-0.078,0.483-0.061,0.703,0.048c0.22,0.109,0.385,0.298,0.463,0.531
			c0.078,0.233,0.061,0.483-0.048,0.703l0,0C66.613,58.475,66.286,58.662,65.948,58.662z M65.95,57.154
			c-0.216,0-0.425,0.12-0.527,0.326c-0.144,0.29-0.026,0.644,0.265,0.788c0.14,0.07,0.3,0.081,0.449,0.031
			c0.149-0.05,0.269-0.155,0.339-0.296l0,0c0.07-0.141,0.081-0.3,0.031-0.449c-0.05-0.149-0.155-0.269-0.295-0.339
			C66.127,57.174,66.038,57.154,65.95,57.154z"/>
	</g>
	<g>
		<path class="st3" d="M49.526,90.544c-0.641,0-1.304-0.065-1.984-0.196c-1.823-0.351-3.115-1.042-3.17-1.071l0.316-0.586
			c0.049,0.026,4.875,2.569,8.735,0.113v-3.057h0.666v3.414l-0.147,0.099C52.68,90.111,51.178,90.544,49.526,90.544z"/>
	</g>
	<g>
		<path class="st1" d="M58.183,90.435c-1.652,0-3.154-0.433-4.416-1.284l-0.147-0.099v-3.414h0.666v3.057
			c3.86,2.456,8.686-0.087,8.735-0.113l0.316,0.586c-0.054,0.029-1.347,0.72-3.17,1.071C59.487,90.37,58.824,90.435,58.183,90.435z"
			/>
	</g>
</g>
</svg>
