<?xml version="1.0" encoding="utf-8"?>
<!-- Generator: Adobe Illustrator 21.1.0, SVG Export Plug-In . SVG Version: 6.00 Build 0)  -->
<svg version="1.1" id="Layer_3" xmlns="http://www.w3.org/2000/svg" xmlns:xlink="http://www.w3.org/1999/xlink" x="0px" y="0px"
	 viewBox="0 0 109 116" style="enable-background:new 0 0 109 116;" xml:space="preserve">
<style type="text/css">
	.st0{fill:#E4CDB5;}
	.st1{fill:#1E1E1E;}
	.st2{fill:#FFFFFF;}
</style>
<g>
	<path class="st0" d="M72.435,20.144L72.435,20.144c1.872-0.624,3.892-0.648,5.779-0.069l2.068,0.635h0
		c4.095,0,8.136,0.924,11.824,2.703l2.846,1.373c3.828,1.846,6.802,5.089,8.313,9.061l0,0c1.434,3.771,1.447,7.936,0.037,11.716
		l-5.272,14.13c-0.667,1.788-0.888,3.711-0.644,5.603v0c0.188,1.46-0.446,2.905-1.649,3.755l-2.778,1.961
		c-0.67,0.473-1.471,0.727-2.291,0.727h0c-1.683,0-3.183-1.06-3.745-2.646l-4.81-13.579l-0.946-2.924
		c-0.159-0.49-0.879-0.396-0.902,0.119c-0.198,4.338-1.423,12.643-7.431,19.416c-1.656,1.867-2.792,4.137-3.299,6.58l-2.35,11.327
		c-0.654,3.15-2.573,5.893-5.308,7.586l0,0c-1.854,1.148-3.991,1.755-6.171,1.755l-3.984-0.035c-2.18,0-4.317-0.608-6.171-1.755h0
		c-2.735-1.693-4.655-4.436-5.308-7.586l-2.35-11.327c-0.507-2.443-1.643-4.713-3.299-6.58c-6.008-6.773-7.233-15.078-7.431-19.416
		c-0.023-0.514-0.744-0.609-0.902-0.119l-0.946,2.924l-4.81,13.579c-0.562,1.586-2.062,2.646-3.745,2.646h0
		c-0.821,0-1.621-0.254-2.291-0.727l-2.778-1.961c-1.203-0.849-1.838-2.294-1.649-3.755l0,0c0.244-1.892,0.023-3.816-0.644-5.603
		l-5.272-14.13c-1.411-3.78-1.398-7.945,0.037-11.716l0,0c1.51-3.972,4.485-7.214,8.313-9.061l2.846-1.373
		c3.688-1.779,7.73-2.703,11.824-2.703h0l2.068-0.635c1.886-0.579,3.907-0.555,5.779,0.069l0,0c0.452,0.151,0.667,2.261,1.143,2.262
		l15.203-1.956c1.579-0.203,3.177-0.203,4.756,0l15.203,1.956C71.768,22.37,71.983,20.294,72.435,20.144z"/>
	<path class="st1" d="M55.703,99.881l-3.989-0.035c-2.272,0-4.498-0.633-6.434-1.832c-2.841-1.759-4.86-4.644-5.539-7.916
		l-2.35-11.327c-0.489-2.356-1.589-4.55-3.181-6.345c-5.993-6.756-7.309-15.001-7.546-19.477l-0.869,2.686l-4.815,13.592
		c-0.633,1.786-2.33,2.985-4.225,2.985c-0.931,0-1.825-0.284-2.585-0.821l-2.778-1.961c-1.361-0.961-2.073-2.583-1.86-4.235
		c0.233-1.803,0.02-3.657-0.616-5.36l-5.273-14.13C2.19,41.807,2.204,37.519,3.682,33.63c1.563-4.111,4.606-7.427,8.567-9.338
		l2.846-1.373c3.711-1.79,7.848-2.741,11.968-2.753l1.995-0.613c1.999-0.614,4.104-0.589,6.089,0.073
		c0.465,0.155,0.642,0.728,0.867,1.453c0.07,0.226,0.178,0.575,0.266,0.759l14.987-1.928c1.621-0.208,3.265-0.208,4.886,0
		l14.989,1.928c0.087-0.18,0.195-0.522,0.265-0.744c0.225-0.715,0.403-1.279,0.866-1.433l0,0c1.984-0.662,4.09-0.687,6.089-0.073
		l1.995,0.613c4.121,0.012,8.257,0.963,11.968,2.753l2.846,1.373c3.961,1.911,7.004,5.227,8.567,9.338
		c1.479,3.889,1.492,8.177,0.038,12.075l-5.273,14.13c-0.636,1.704-0.849,3.557-0.616,5.36c0.213,1.652-0.5,3.275-1.86,4.235
		l-2.778,1.961c-0.76,0.537-1.654,0.82-2.585,0.82c-1.894,0-3.592-1.2-4.225-2.985l-4.81-13.579l-0.873-2.699
		c-0.238,4.479-1.554,12.722-7.546,19.477c-1.592,1.795-2.693,3.989-3.182,6.345l-2.35,11.327c-0.679,3.272-2.697,6.157-5.539,7.916
		C60.206,99.247,57.98,99.881,55.703,99.881z M26.693,51.724c0.045,0,0.09,0.003,0.136,0.009c0.472,0.064,0.817,0.44,0.839,0.917
		c0.195,4.279,1.403,12.45,7.303,19.101c1.71,1.928,2.891,4.284,3.416,6.814l2.35,11.327c0.622,3,2.473,5.645,5.078,7.257
		c1.775,1.099,3.816,1.679,5.903,1.679l3.989,0.035c2.083,0,4.124-0.581,5.898-1.679c2.605-1.613,4.456-4.258,5.078-7.257
		l2.35-11.327c0.525-2.53,1.706-4.886,3.417-6.814c5.9-6.651,7.108-14.823,7.303-19.101c0.022-0.476,0.367-0.853,0.839-0.917
		c0.476-0.063,0.908,0.209,1.056,0.665l0.946,2.924L87.4,68.922c0.489,1.38,1.801,2.308,3.266,2.308c0.719,0,1.41-0.219,1.998-0.634
		l2.778-1.961c1.052-0.742,1.603-1.997,1.438-3.274c-0.254-1.967-0.022-3.988,0.672-5.846l5.272-14.13
		c1.368-3.666,1.355-7.7-0.036-11.357c-1.47-3.867-4.332-6.986-8.059-8.783l-2.846-1.373c-3.597-1.735-7.609-2.652-11.603-2.652
		h-0.076l-2.141-0.657c-1.769-0.543-3.632-0.53-5.39,0.039c-0.09,0.147-0.217,0.55-0.296,0.799c-0.239,0.76-0.466,1.479-1.086,1.479
		c0,0,0,0-0.001,0l-0.064-0.004l-15.203-1.956c-1.535-0.198-3.091-0.198-4.626,0l-15.268,1.96c-0.622-0.001-0.837-0.695-1.086-1.499
		c-0.079-0.255-0.206-0.666-0.297-0.815c-1.759-0.569-3.62-0.582-5.389-0.039l-2.141,0.657h-0.076
		c-3.994,0-8.006,0.917-11.603,2.652l-2.846,1.373c-3.726,1.797-6.588,4.916-8.059,8.783c-1.391,3.658-1.404,7.691-0.036,11.357
		l5.273,14.13c0.693,1.858,0.926,3.88,0.672,5.846c-0.165,1.277,0.386,2.532,1.438,3.274l2.778,1.961
		c0.588,0.415,1.278,0.634,1.998,0.634c1.465,0,2.777-0.927,3.266-2.308l4.81-13.579l0.941-2.91
		C25.907,51.987,26.274,51.724,26.693,51.724z M34.722,20.529L34.722,20.529L34.722,20.529z"/>
</g>
<g>
	<path class="st2" d="M34.596,46.895c0,0,1.469,6.781,8.703,4.86C43.298,51.755,42.846,42.94,34.596,46.895z"/>
	<path class="st1" d="M40.86,52.438c-1.271,0-2.41-0.304-3.404-0.913c-2.512-1.537-3.165-4.435-3.192-4.558l-0.057-0.262
		l0.242-0.116c2.592-1.243,4.724-1.388,6.335-0.431c2.617,1.555,2.844,5.415,2.853,5.579l0.014,0.274l-0.266,0.071
		C42.495,52.319,41.652,52.438,40.86,52.438z M34.997,47.082c0.215,0.715,0.967,2.739,2.818,3.868
		c1.385,0.845,3.106,1.029,5.118,0.548c-0.101-0.877-0.567-3.611-2.499-4.757C39.083,45.938,37.254,46.053,34.997,47.082z"/>
</g>
<g>
	<path class="st1" d="M27.252,52.504l-1.009-0.127c0.821-6.496,2.74-19.924,2.8-20.128l0.397-1.348
		c0.57-1.934,1.719-3.603,3.322-4.827c0.366-0.279,0.888-0.687,1.446-1.125c0.68-0.535,1.097-1.304,1.173-2.166
		c0.076-0.861-0.199-1.691-0.774-2.336l0.759-0.677c0.764,0.857,1.129,1.959,1.028,3.102c-0.101,1.145-0.655,2.166-1.558,2.876
		c-0.562,0.442-1.088,0.852-1.457,1.134c-1.43,1.091-2.455,2.58-2.963,4.306l-0.388,1.317
		C29.925,33.178,28.134,45.525,27.252,52.504z"/>
</g>
<g>
	<path class="st1" d="M17.984,45.351c-0.947-8.288,1.553-13.468,3.818-16.353c2.464-3.141,5.126-4.294,5.238-4.341l0.265,0.624
		c-0.104,0.044-10.404,4.625-8.647,19.993L17.984,45.351z"/>
</g>
<g>
	<path class="st1" d="M12.121,61.373l-0.485-0.474c0.052-0.053,5.173-5.383,3.978-11.851l0.667-0.123
		C17.541,55.744,12.343,61.146,12.121,61.373z"/>
</g>
<g>
	<path class="st1" d="M39.859,55.397c-6.957-1.015-7.834-7.49-7.842-7.556l0.673-0.083c0.031,0.246,0.831,6.029,7.267,6.968
		L39.859,55.397z"/>
</g>
<g>
	<path class="st1" d="M34.314,72.283c-1.982-2.825-2.318-6.716-2.251-9.483c0.072-2.978,0.598-5.262,0.62-5.358l0.661,0.154
		c-0.021,0.091-2.077,9.163,1.525,14.298L34.314,72.283z"/>
</g>
<g>
	<path class="st1" d="M46.574,54.505L45.9,54.43c0.87-7.718-3.633-10.494-3.679-10.521l0.347-0.583
		C42.769,43.446,47.492,46.357,46.574,54.505z"/>
</g>
<g>
	<path class="st1" d="M51.105,45.949c-1.948-8.661-10.814-8.554-11.189-8.547l-0.016-0.678c0.093-0.005,9.796-0.133,11.867,9.076
		L51.105,45.949z"/>
</g>
<g>
	<path class="st1" d="M47.974,84.88l-0.536-0.416c3.116-4.019,3.654-23.145,3.659-23.338l0.678,0.018
		C51.754,61.941,51.226,80.687,47.974,84.88z"/>
</g>
<g>
	<path class="st1" d="M53.681,96.603c-2.252-0.089-2.991-0.707-3.773-1.362c-0.102-0.086-0.208-0.174-0.319-0.263l0.635-0.795
		c0.118,0.094,0.229,0.187,0.337,0.277c0.729,0.61,1.255,1.05,3.16,1.126L53.681,96.603z"/>
</g>
<g>
	<path class="st2" d="M72.827,46.931c0,0-1.469,6.781-8.703,4.86C64.124,51.791,64.576,42.975,72.827,46.931z"/>
	<path class="st1" d="M66.562,52.473c-0.792,0-1.634-0.118-2.525-0.355l-0.266-0.071l0.014-0.274
		c0.008-0.164,0.235-4.024,2.853-5.579c1.611-0.958,3.742-0.813,6.335,0.431l0.242,0.116l-0.057,0.262
		c-0.027,0.123-0.68,3.021-3.192,4.558C68.972,52.168,67.833,52.473,66.562,52.473z M64.488,51.533
		c2.015,0.481,3.738,0.297,5.124-0.551c1.854-1.134,2.6-3.151,2.813-3.865c-2.258-1.03-4.088-1.144-5.441-0.34
		C65.05,47.927,64.588,50.657,64.488,51.533z"/>
</g>
<g>
	<path class="st1" d="M89.439,45.387l-0.674-0.077c0.919-8.038-1.48-13.044-3.654-15.828c-2.356-3.017-4.967-4.154-4.993-4.165
		l0.265-0.624C80.491,24.739,91.255,29.496,89.439,45.387z"/>
</g>
<g>
	<path class="st1" d="M95.302,61.409c-0.222-0.227-5.421-5.629-4.16-12.449l0.667,0.123c-1.197,6.477,3.926,11.798,3.978,11.851
		L95.302,61.409z"/>
</g>
<g>
	<path class="st1" d="M67.564,55.432l-0.098-0.671c6.436-0.938,7.236-6.722,7.267-6.968l0.673,0.083
		C75.398,47.942,74.52,54.417,67.564,55.432z"/>
</g>
<g>
	<path class="st1" d="M73.109,72.319l-0.555-0.389c3.605-5.139,1.547-14.207,1.525-14.298l0.661-0.154
		c0.022,0.096,0.548,2.38,0.62,5.358C75.426,65.602,75.091,69.494,73.109,72.319z"/>
</g>
<g>
	<path class="st1" d="M60.849,54.541c-0.918-8.148,3.805-11.059,4.006-11.179l0.347,0.583l-0.174-0.291l0.174,0.291
		c-0.046,0.027-4.547,2.83-3.68,10.521L60.849,54.541z"/>
</g>
<g>
	<path class="st1" d="M56.317,45.984l-0.662-0.149c2.071-9.21,11.773-9.083,11.867-9.076l-0.016,0.678
		C67.131,37.43,58.266,37.323,56.317,45.984z"/>
</g>
<g>
	<path class="st2" d="M53.869,96.095c0.571,0,1.099-0.361,1.254-0.91c0.189-0.672,0.619-1.136,1.056-1.449
		c0.472-0.338,1.035-0.523,1.609-0.605c2.244-0.324,2.776-3.534,2.776-3.534v-0.501c0-1.393-1.129-2.522-2.522-2.522l-8.662-0.035
		c-1.393,0-2.522,1.129-2.522,2.522v0.501c0,0,0.532,3.21,2.776,3.534c0.575,0.083,1.137,0.267,1.609,0.605
		c0.437,0.313,0.866,0.777,1.056,1.449c0.155,0.55,0.727,0.946,1.298,0.946L53.869,96.095"/>
	<path class="st1" d="M53.869,96.434h-0.272c-0.734,0-1.433-0.513-1.624-1.193c-0.141-0.5-0.453-0.926-0.926-1.265
		c-0.388-0.278-0.88-0.462-1.461-0.546c-2.462-0.355-3.039-3.673-3.062-3.814l-0.005-0.055v-0.501c0-1.578,1.283-2.861,2.861-2.861
		l8.663,0.035c1.576,0,2.86,1.283,2.86,2.861l-0.005,0.557c-0.023,0.141-0.6,3.459-3.062,3.814c-0.58,0.084-1.072,0.267-1.46,0.546
		c-0.474,0.339-0.786,0.765-0.927,1.265C55.257,95.958,54.608,96.434,53.869,96.434z M47.197,89.53
		c0.055,0.289,0.613,2.959,2.486,3.229c0.69,0.1,1.281,0.323,1.759,0.665c0.602,0.431,1.001,0.981,1.184,1.633
		c0.11,0.392,0.537,0.698,0.971,0.698h0.272c0.436,0,0.818-0.273,0.928-0.663c0.184-0.652,0.582-1.202,1.185-1.633
		c0.478-0.342,1.069-0.566,1.758-0.665c1.878-0.271,2.431-2.94,2.486-3.229v-0.471c0-1.204-0.979-2.183-2.183-2.183l-8.663-0.035
		c-1.202,0-2.182,0.979-2.182,2.183V89.53z"/>
</g>
<g>
	<path class="st1" d="M53.889,96.603l-0.04-1.017c1.836-0.072,2.277-0.452,2.944-1.028c0.127-0.11,0.259-0.223,0.406-0.34
		l0.635,0.795c-0.136,0.108-0.258,0.214-0.376,0.316C56.718,95.966,56.079,96.516,53.889,96.603z"/>
</g>
<g>
	<path class="st1" d="M80.213,52.504c-0.881-6.979-2.673-19.327-2.776-19.999l-0.388-1.317c-0.509-1.725-1.533-3.214-2.963-4.306
		c-0.369-0.282-0.895-0.692-1.457-1.134c-0.903-0.71-1.457-1.731-1.558-2.876c-0.101-1.144,0.264-2.246,1.028-3.102l0.759,0.677
		c-0.575,0.645-0.85,1.474-0.774,2.336c0.076,0.862,0.493,1.631,1.173,2.166c0.558,0.438,1.08,0.846,1.446,1.125
		c1.603,1.223,2.752,2.892,3.322,4.827l0.397,1.348c0.06,0.204,1.98,13.633,2.8,20.129L80.213,52.504z"/>
</g>
<g>
	<path class="st1" d="M39.113,29.446l-0.333-0.591c3.253-1.835,4.177-3.308,4.378-4.221c0.158-0.714-0.121-1.114-0.133-1.131
		l0.542-0.407c0.019,0.025,0.47,0.631,0.262,1.643C43.513,26.276,41.927,27.859,39.113,29.446z"/>
</g>
<g>
	<path class="st1" d="M44.899,28.543l-0.484-0.475c0.106-0.109,2.584-2.688,0.969-5.264l0.574-0.36
		C47.859,25.477,44.929,28.513,44.899,28.543z"/>
</g>
<g>
	<path class="st1" d="M44.154,32.491l-0.357-0.577c0.056-0.034,5.533-3.506,4.088-9.207l0.657-0.167
		C50.112,28.729,44.214,32.454,44.154,32.491z"/>
</g>
<g>
	<path class="st1" d="M46.511,36.573l-0.32-0.598c0.193-0.104,4.716-2.612,4.313-8.539l0.676-0.046
		C51.614,33.765,46.562,36.546,46.511,36.573z"/>
</g>
<g>
	<path class="st1" d="M66.224,29.446c-2.813-1.587-4.4-3.171-4.716-4.706c-0.208-1.012,0.242-1.618,0.262-1.643l0.539,0.411
		l-0.27-0.205l0.273,0.202c-0.012,0.017-0.291,0.417-0.133,1.131c0.202,0.912,1.125,2.386,4.378,4.221L66.224,29.446z"/>
</g>
<g>
	<path class="st1" d="M60.438,28.543c-0.03-0.03-2.96-3.067-1.06-6.099l0.574,0.36c-1.614,2.576,0.863,5.156,0.969,5.264
		L60.438,28.543z"/>
</g>
<g>
	<path class="st1" d="M61.183,32.491c-0.06-0.037-5.958-3.762-4.389-9.95l0.657,0.167c-1.445,5.701,4.032,9.173,4.088,9.207
		L61.183,32.491z"/>
</g>
<g>
	<path class="st1" d="M58.826,36.573c-0.051-0.027-5.103-2.808-4.669-9.183l0.676,0.046c-0.403,5.928,4.121,8.435,4.313,8.539
		L58.826,36.573z"/>
</g>
<g>
	<path class="st1" d="M7.281,37.423l-0.186-0.652c7.536-2.151,9.929-7.695,9.952-7.751l0.626,0.26
		C17.574,29.521,15.147,35.179,7.281,37.423z"/>
</g>
<g>
	<path class="st1" d="M100.537,37.423c-7.865-2.245-10.293-7.903-10.392-8.142l0.626-0.26c0.023,0.056,2.416,5.6,9.952,7.751
		L100.537,37.423z"/>
</g>
<g>
	<path class="st1" d="M59.113,84.88c-3.252-4.193-3.78-22.939-3.801-23.735l0.678-0.018c0.005,0.193,0.542,19.319,3.659,23.338
		L59.113,84.88z"/>
</g>
</svg>
