<?xml version="1.0" encoding="utf-8"?>
<!-- Generator: Adobe Illustrator 21.1.0, SVG Export Plug-In . SVG Version: 6.00 Build 0)  -->
<svg version="1.1" xmlns="http://www.w3.org/2000/svg" xmlns:xlink="http://www.w3.org/1999/xlink" x="0px" y="0px"
	 viewBox="0 0 171 100" style="enable-background:new 0 0 171 100;" xml:space="preserve">
<style type="text/css">
	.st0{opacity:0.31;}
	.st1{fill:#C4DFE5;}
	.st2{fill:#D7EFF2;}
	.st3{fill:#FFFFFF;}
	.st4{fill:#6B768E;}
	.st5{fill:#E4CDB6;}
	.st6{fill:#FDEAE4;}
</style>
<g id="Layer_1">
	<g id="Layer_1_2_">
		<g id="Layer_1_1_">
		</g>
	</g>
</g>
<g id="Layer_4">
	<g>
		<g class="st0">
			<g>
				<g>
					<g>
						<circle class="st1" cx="104.017" cy="93.291" r="1.189"/>
					</g>
				</g>
				<g>
					<g>
						<circle class="st1" cx="94.508" cy="93.291" r="1.189"/>
					</g>
				</g>
				<g>
					<g>
						<circle class="st1" cx="85" cy="93.291" r="1.189"/>
					</g>
				</g>
				<g>
					<g>
						<circle class="st1" cx="75.492" cy="93.291" r="1.189"/>
					</g>
				</g>
				<g>
					<g>
						<circle class="st1" cx="65.983" cy="93.291" r="1.189"/>
					</g>
				</g>
				<g>
					<g>
						<circle class="st1" cx="56.475" cy="93.291" r="1.189"/>
					</g>
				</g>
				<g>
					<g>
						<circle class="st1" cx="46.966" cy="93.291" r="1.189"/>
					</g>
				</g>
				<g>
					<g>
						<circle class="st1" cx="37.458" cy="93.291" r="1.189"/>
					</g>
				</g>
				<g>
					<g>
						<circle class="st1" cx="27.95" cy="93.291" r="1.189"/>
					</g>
				</g>
				<g>
					<g>
						<circle class="st1" cx="18.441" cy="93.291" r="1.189"/>
					</g>
				</g>
				<g>
					<g>
						<circle class="st1" cx="8.933" cy="93.291" r="1.189"/>
					</g>
				</g>
			</g>
			<g>
				<g>
					<g>
						<circle class="st1" cx="104.017" cy="83.783" r="1.189"/>
					</g>
				</g>
				<g>
					<g>
						<circle class="st1" cx="94.508" cy="83.783" r="1.189"/>
					</g>
				</g>
				<g>
					<g>
						<circle class="st1" cx="85" cy="83.783" r="1.189"/>
					</g>
				</g>
				<g>
					<g>
						<circle class="st1" cx="75.492" cy="83.783" r="1.189"/>
					</g>
				</g>
				<g>
					<g>
						<circle class="st1" cx="65.983" cy="83.783" r="1.189"/>
					</g>
				</g>
				<g>
					<g>
						<circle class="st1" cx="56.475" cy="83.783" r="1.189"/>
					</g>
				</g>
				<g>
					<g>
						<circle class="st1" cx="46.966" cy="83.783" r="1.189"/>
					</g>
				</g>
				<g>
					<g>
						<circle class="st1" cx="37.458" cy="83.783" r="1.189"/>
					</g>
				</g>
				<g>
					<g>
						<circle class="st1" cx="27.95" cy="83.783" r="1.189"/>
					</g>
				</g>
				<g>
					<g>
						<circle class="st1" cx="18.441" cy="83.783" r="1.189"/>
					</g>
				</g>
				<g>
					<g>
						<circle class="st1" cx="8.933" cy="83.783" r="1.189"/>
					</g>
				</g>
			</g>
			<g>
				<g>
					<g>
						<circle class="st1" cx="104.017" cy="74.274" r="1.189"/>
					</g>
				</g>
				<g>
					<g>
						<circle class="st1" cx="94.508" cy="74.274" r="1.189"/>
					</g>
				</g>
				<g>
					<g>
						<circle class="st1" cx="85" cy="74.274" r="1.189"/>
					</g>
				</g>
				<g>
					<g>
						<circle class="st1" cx="75.492" cy="74.274" r="1.189"/>
					</g>
				</g>
				<g>
					<g>
						<circle class="st1" cx="65.983" cy="74.274" r="1.189"/>
					</g>
				</g>
				<g>
					<g>
						<circle class="st1" cx="56.475" cy="74.274" r="1.189"/>
					</g>
				</g>
				<g>
					<g>
						<circle class="st1" cx="46.966" cy="74.274" r="1.189"/>
					</g>
				</g>
				<g>
					<g>
						<circle class="st1" cx="37.458" cy="74.274" r="1.189"/>
					</g>
				</g>
				<g>
					<g>
						<circle class="st1" cx="27.95" cy="74.274" r="1.189"/>
					</g>
				</g>
				<g>
					<g>
						<circle class="st1" cx="18.441" cy="74.274" r="1.189"/>
					</g>
				</g>
				<g>
					<g>
						<circle class="st1" cx="8.933" cy="74.274" r="1.189"/>
					</g>
				</g>
			</g>
			<g>
				<g>
					<g>
						<circle class="st1" cx="104.017" cy="64.766" r="1.189"/>
					</g>
				</g>
				<g>
					<g>
						<circle class="st1" cx="94.508" cy="64.766" r="1.189"/>
					</g>
				</g>
				<g>
					<g>
						<circle class="st1" cx="85" cy="64.766" r="1.189"/>
					</g>
				</g>
				<g>
					<g>
						<circle class="st1" cx="75.492" cy="64.766" r="1.189"/>
					</g>
				</g>
				<g>
					<g>
						<circle class="st1" cx="65.983" cy="64.766" r="1.189"/>
					</g>
				</g>
				<g>
					<g>
						<circle class="st1" cx="56.475" cy="64.766" r="1.189"/>
					</g>
				</g>
				<g>
					<g>
						<circle class="st1" cx="46.966" cy="64.766" r="1.189"/>
					</g>
				</g>
				<g>
					<g>
						<circle class="st1" cx="37.458" cy="64.766" r="1.189"/>
					</g>
				</g>
				<g>
					<g>
						<circle class="st1" cx="27.95" cy="64.766" r="1.189"/>
					</g>
				</g>
				<g>
					<g>
						<circle class="st1" cx="18.441" cy="64.766" r="1.189"/>
					</g>
				</g>
				<g>
					<g>
						<circle class="st1" cx="8.933" cy="64.766" r="1.189"/>
					</g>
				</g>
			</g>
			<g>
				<g>
					<g>
						<circle class="st1" cx="104.017" cy="55.257" r="1.189"/>
					</g>
				</g>
				<g>
					<g>
						<circle class="st1" cx="94.508" cy="55.257" r="1.189"/>
					</g>
				</g>
				<g>
					<g>
						<circle class="st1" cx="85" cy="55.257" r="1.189"/>
					</g>
				</g>
				<g>
					<g>
						<circle class="st1" cx="75.492" cy="55.257" r="1.189"/>
					</g>
				</g>
				<g>
					<g>
						<circle class="st1" cx="65.983" cy="55.257" r="1.189"/>
					</g>
				</g>
				<g>
					<g>
						<circle class="st1" cx="56.475" cy="55.257" r="1.189"/>
					</g>
				</g>
				<g>
					<g>
						<circle class="st1" cx="46.966" cy="55.257" r="1.189"/>
					</g>
				</g>
				<g>
					<g>
						<circle class="st1" cx="37.458" cy="55.257" r="1.189"/>
					</g>
				</g>
				<g>
					<g>
						<circle class="st1" cx="27.95" cy="55.257" r="1.189"/>
					</g>
				</g>
				<g>
					<g>
						<circle class="st1" cx="18.441" cy="55.257" r="1.189"/>
					</g>
				</g>
				<g>
					<g>
						<circle class="st1" cx="8.933" cy="55.257" r="1.189"/>
					</g>
				</g>
			</g>
			<g>
				<g>
					<g>
						<circle class="st1" cx="104.017" cy="45.749" r="1.189"/>
					</g>
				</g>
				<g>
					<g>
						<circle class="st1" cx="94.508" cy="45.749" r="1.189"/>
					</g>
				</g>
				<g>
					<g>
						<circle class="st1" cx="85" cy="45.749" r="1.189"/>
					</g>
				</g>
				<g>
					<g>
						<circle class="st1" cx="75.492" cy="45.749" r="1.189"/>
					</g>
				</g>
				<g>
					<g>
						<circle class="st1" cx="65.983" cy="45.749" r="1.189"/>
					</g>
				</g>
				<g>
					<g>
						<circle class="st1" cx="56.475" cy="45.749" r="1.189"/>
					</g>
				</g>
				<g>
					<g>
						<circle class="st1" cx="46.966" cy="45.749" r="1.189"/>
					</g>
				</g>
				<g>
					<g>
						<circle class="st1" cx="37.458" cy="45.749" r="1.189"/>
					</g>
				</g>
				<g>
					<g>
						<circle class="st1" cx="27.95" cy="45.749" r="1.189"/>
					</g>
				</g>
				<g>
					<g>
						<circle class="st1" cx="18.441" cy="45.749" r="1.189"/>
					</g>
				</g>
				<g>
					<g>
						<circle class="st1" cx="8.933" cy="45.749" r="1.189"/>
					</g>
				</g>
			</g>
			<g>
				<g>
					<g>
						<circle class="st1" cx="104.017" cy="36.241" r="1.189"/>
					</g>
				</g>
				<g>
					<g>
						<circle class="st1" cx="94.508" cy="36.241" r="1.189"/>
					</g>
				</g>
				<g>
					<g>
						<circle class="st1" cx="85" cy="36.241" r="1.189"/>
					</g>
				</g>
				<g>
					<g>
						<circle class="st1" cx="75.492" cy="36.241" r="1.189"/>
					</g>
				</g>
				<g>
					<g>
						<circle class="st1" cx="65.983" cy="36.241" r="1.189"/>
					</g>
				</g>
				<g>
					<g>
						<circle class="st1" cx="56.475" cy="36.241" r="1.189"/>
					</g>
				</g>
				<g>
					<g>
						<circle class="st1" cx="46.966" cy="36.241" r="1.189"/>
					</g>
				</g>
				<g>
					<g>
						<circle class="st1" cx="37.458" cy="36.241" r="1.189"/>
					</g>
				</g>
				<g>
					<g>
						<circle class="st1" cx="27.95" cy="36.241" r="1.189"/>
					</g>
				</g>
				<g>
					<g>
						<circle class="st1" cx="18.441" cy="36.241" r="1.189"/>
					</g>
				</g>
				<g>
					<g>
						<circle class="st1" cx="8.933" cy="36.241" r="1.189"/>
					</g>
				</g>
			</g>
			<g>
				<g>
					<g>
						<circle class="st1" cx="104.017" cy="26.732" r="1.189"/>
					</g>
				</g>
				<g>
					<g>
						<circle class="st1" cx="94.508" cy="26.732" r="1.189"/>
					</g>
				</g>
				<g>
					<g>
						<circle class="st1" cx="85" cy="26.732" r="1.189"/>
					</g>
				</g>
				<g>
					<g>
						<circle class="st1" cx="75.492" cy="26.732" r="1.189"/>
					</g>
				</g>
				<g>
					<g>
						<circle class="st1" cx="65.983" cy="26.732" r="1.189"/>
					</g>
				</g>
				<g>
					<g>
						<circle class="st1" cx="56.475" cy="26.732" r="1.189"/>
					</g>
				</g>
				<g>
					<g>
						<circle class="st1" cx="46.966" cy="26.732" r="1.189"/>
					</g>
				</g>
				<g>
					<g>
						<circle class="st1" cx="37.458" cy="26.732" r="1.189"/>
					</g>
				</g>
				<g>
					<g>
						<circle class="st1" cx="27.95" cy="26.732" r="1.189"/>
					</g>
				</g>
				<g>
					<g>
						<circle class="st1" cx="18.441" cy="26.732" r="1.189"/>
					</g>
				</g>
				<g>
					<g>
						<circle class="st1" cx="8.933" cy="26.732" r="1.189"/>
					</g>
				</g>
			</g>
			<g>
				<g>
					<g>
						<circle class="st1" cx="104.017" cy="17.224" r="1.189"/>
					</g>
				</g>
				<g>
					<g>
						<circle class="st1" cx="94.508" cy="17.224" r="1.189"/>
					</g>
				</g>
				<g>
					<g>
						<circle class="st1" cx="85" cy="17.224" r="1.189"/>
					</g>
				</g>
				<g>
					<g>
						<circle class="st1" cx="75.492" cy="17.224" r="1.189"/>
					</g>
				</g>
				<g>
					<g>
						<circle class="st1" cx="65.983" cy="17.224" r="1.189"/>
					</g>
				</g>
				<g>
					<g>
						<circle class="st1" cx="56.475" cy="17.224" r="1.189"/>
					</g>
				</g>
				<g>
					<g>
						<circle class="st1" cx="46.966" cy="17.224" r="1.189"/>
					</g>
				</g>
				<g>
					<g>
						<circle class="st1" cx="37.458" cy="17.224" r="1.189"/>
					</g>
				</g>
				<g>
					<g>
						<circle class="st1" cx="27.95" cy="17.224" r="1.189"/>
					</g>
				</g>
				<g>
					<g>
						<circle class="st1" cx="18.441" cy="17.224" r="1.189"/>
					</g>
				</g>
				<g>
					<g>
						<circle class="st1" cx="8.933" cy="17.224" r="1.189"/>
					</g>
				</g>
			</g>
			<g>
				<g>
					<g>
						<circle class="st1" cx="104.017" cy="7.715" r="1.189"/>
					</g>
				</g>
				<g>
					<g>
						<circle class="st1" cx="94.508" cy="7.715" r="1.189"/>
					</g>
				</g>
				<g>
					<g>
						<circle class="st1" cx="85" cy="7.715" r="1.189"/>
					</g>
				</g>
				<g>
					<g>
						<circle class="st1" cx="75.492" cy="7.715" r="1.189"/>
					</g>
				</g>
				<g>
					<g>
						<circle class="st1" cx="65.983" cy="7.715" r="1.189"/>
					</g>
				</g>
				<g>
					<g>
						<circle class="st1" cx="56.475" cy="7.715" r="1.189"/>
					</g>
				</g>
				<g>
					<g>
						<circle class="st1" cx="46.966" cy="7.715" r="1.189"/>
					</g>
				</g>
				<g>
					<g>
						<circle class="st1" cx="37.458" cy="7.715" r="1.189"/>
					</g>
				</g>
				<g>
					<g>
						<circle class="st1" cx="27.95" cy="7.715" r="1.189"/>
					</g>
				</g>
				<g>
					<g>
						<circle class="st1" cx="18.441" cy="7.715" r="1.189"/>
					</g>
				</g>
				<g>
					<g>
						<circle class="st1" cx="8.933" cy="7.715" r="1.189"/>
					</g>
				</g>
			</g>
		</g>
		<g class="st0">
			<g>
				<g>
					<g>
						<circle class="st1" cx="161.411" cy="93.291" r="1.189"/>
					</g>
				</g>
				<g>
					<g>
						<circle class="st1" cx="151.903" cy="93.291" r="1.189"/>
					</g>
				</g>
				<g>
					<g>
						<circle class="st1" cx="142.394" cy="93.291" r="1.189"/>
					</g>
				</g>
				<g>
					<g>
						<circle class="st1" cx="132.886" cy="93.291" r="1.189"/>
					</g>
				</g>
				<g>
					<g>
						<circle class="st1" cx="123.377" cy="93.291" r="1.189"/>
					</g>
				</g>
				<g>
					<g>
						<circle class="st1" cx="113.869" cy="93.291" r="1.189"/>
					</g>
				</g>
			</g>
			<g>
				<g>
					<g>
						<circle class="st1" cx="161.411" cy="83.783" r="1.189"/>
					</g>
				</g>
				<g>
					<g>
						<circle class="st1" cx="151.903" cy="83.783" r="1.189"/>
					</g>
				</g>
				<g>
					<g>
						<circle class="st1" cx="142.394" cy="83.783" r="1.189"/>
					</g>
				</g>
				<g>
					<g>
						<circle class="st1" cx="132.886" cy="83.783" r="1.189"/>
					</g>
				</g>
				<g>
					<g>
						<circle class="st1" cx="123.377" cy="83.783" r="1.189"/>
					</g>
				</g>
				<g>
					<g>
						<circle class="st1" cx="113.869" cy="83.783" r="1.189"/>
					</g>
				</g>
			</g>
			<g>
				<g>
					<g>
						<circle class="st1" cx="161.411" cy="74.274" r="1.189"/>
					</g>
				</g>
				<g>
					<g>
						<circle class="st1" cx="151.903" cy="74.274" r="1.189"/>
					</g>
				</g>
				<g>
					<g>
						<circle class="st1" cx="142.394" cy="74.274" r="1.189"/>
					</g>
				</g>
				<g>
					<g>
						<circle class="st1" cx="132.886" cy="74.274" r="1.189"/>
					</g>
				</g>
				<g>
					<g>
						<circle class="st1" cx="123.377" cy="74.274" r="1.189"/>
					</g>
				</g>
				<g>
					<g>
						<circle class="st1" cx="113.869" cy="74.274" r="1.189"/>
					</g>
				</g>
			</g>
			<g>
				<g>
					<g>
						<circle class="st1" cx="161.411" cy="64.766" r="1.189"/>
					</g>
				</g>
				<g>
					<g>
						<circle class="st1" cx="151.903" cy="64.766" r="1.189"/>
					</g>
				</g>
				<g>
					<g>
						<circle class="st1" cx="142.394" cy="64.766" r="1.189"/>
					</g>
				</g>
				<g>
					<g>
						<circle class="st1" cx="132.886" cy="64.766" r="1.189"/>
					</g>
				</g>
				<g>
					<g>
						<circle class="st1" cx="123.377" cy="64.766" r="1.189"/>
					</g>
				</g>
				<g>
					<g>
						<circle class="st1" cx="113.869" cy="64.766" r="1.189"/>
					</g>
				</g>
			</g>
			<g>
				<g>
					<g>
						<circle class="st1" cx="161.411" cy="55.257" r="1.189"/>
					</g>
				</g>
				<g>
					<g>
						<circle class="st1" cx="151.903" cy="55.257" r="1.189"/>
					</g>
				</g>
				<g>
					<g>
						<circle class="st1" cx="142.394" cy="55.257" r="1.189"/>
					</g>
				</g>
				<g>
					<g>
						<circle class="st1" cx="132.886" cy="55.257" r="1.189"/>
					</g>
				</g>
				<g>
					<g>
						<circle class="st1" cx="123.377" cy="55.257" r="1.189"/>
					</g>
				</g>
				<g>
					<g>
						<circle class="st1" cx="113.869" cy="55.257" r="1.189"/>
					</g>
				</g>
			</g>
			<g>
				<g>
					<g>
						<circle class="st1" cx="161.411" cy="45.749" r="1.189"/>
					</g>
				</g>
				<g>
					<g>
						<circle class="st1" cx="151.903" cy="45.749" r="1.189"/>
					</g>
				</g>
				<g>
					<g>
						<circle class="st1" cx="142.394" cy="45.749" r="1.189"/>
					</g>
				</g>
				<g>
					<g>
						<circle class="st1" cx="132.886" cy="45.749" r="1.189"/>
					</g>
				</g>
				<g>
					<g>
						<circle class="st1" cx="123.377" cy="45.749" r="1.189"/>
					</g>
				</g>
				<g>
					<g>
						<circle class="st1" cx="113.869" cy="45.749" r="1.189"/>
					</g>
				</g>
			</g>
			<g>
				<g>
					<g>
						<circle class="st1" cx="161.411" cy="36.241" r="1.189"/>
					</g>
				</g>
				<g>
					<g>
						<circle class="st1" cx="151.903" cy="36.241" r="1.189"/>
					</g>
				</g>
				<g>
					<g>
						<circle class="st1" cx="142.394" cy="36.241" r="1.189"/>
					</g>
				</g>
				<g>
					<g>
						<circle class="st1" cx="132.886" cy="36.241" r="1.189"/>
					</g>
				</g>
				<g>
					<g>
						<circle class="st1" cx="123.377" cy="36.241" r="1.189"/>
					</g>
				</g>
				<g>
					<g>
						<circle class="st1" cx="113.869" cy="36.241" r="1.189"/>
					</g>
				</g>
			</g>
			<g>
				<g>
					<g>
						<circle class="st1" cx="161.411" cy="26.732" r="1.189"/>
					</g>
				</g>
				<g>
					<g>
						<circle class="st1" cx="151.903" cy="26.732" r="1.189"/>
					</g>
				</g>
				<g>
					<g>
						<circle class="st1" cx="142.394" cy="26.732" r="1.189"/>
					</g>
				</g>
				<g>
					<g>
						<circle class="st1" cx="132.886" cy="26.732" r="1.189"/>
					</g>
				</g>
				<g>
					<g>
						<circle class="st1" cx="123.377" cy="26.732" r="1.189"/>
					</g>
				</g>
				<g>
					<g>
						<circle class="st1" cx="113.869" cy="26.732" r="1.189"/>
					</g>
				</g>
			</g>
			<g>
				<g>
					<g>
						<circle class="st1" cx="161.411" cy="17.224" r="1.189"/>
					</g>
				</g>
				<g>
					<g>
						<circle class="st1" cx="151.903" cy="17.224" r="1.189"/>
					</g>
				</g>
				<g>
					<g>
						<circle class="st1" cx="142.394" cy="17.224" r="1.189"/>
					</g>
				</g>
				<g>
					<g>
						<circle class="st1" cx="132.886" cy="17.224" r="1.189"/>
					</g>
				</g>
				<g>
					<g>
						<circle class="st1" cx="123.377" cy="17.224" r="1.189"/>
					</g>
				</g>
				<g>
					<g>
						<circle class="st1" cx="113.869" cy="17.224" r="1.189"/>
					</g>
				</g>
			</g>
			<g>
				<g>
					<g>
						<circle class="st1" cx="161.411" cy="7.715" r="1.189"/>
					</g>
				</g>
				<g>
					<g>
						<circle class="st1" cx="151.903" cy="7.715" r="1.189"/>
					</g>
				</g>
				<g>
					<g>
						<circle class="st1" cx="142.394" cy="7.715" r="1.189"/>
					</g>
				</g>
				<g>
					<g>
						<circle class="st1" cx="132.886" cy="7.715" r="1.189"/>
					</g>
				</g>
				<g>
					<g>
						<circle class="st1" cx="123.377" cy="7.715" r="1.189"/>
					</g>
				</g>
				<g>
					<g>
						<circle class="st1" cx="113.869" cy="7.715" r="1.189"/>
					</g>
				</g>
			</g>
		</g>
	</g>
	<g>
		<path class="st2" d="M44.589,21.767L44.589,21.767c0,2.626,2.129,4.754,4.754,4.754h0c2.626,0,4.754,2.129,4.754,4.754v0
			c0,2.626-2.129,4.754-4.754,4.754H29.138c-2.626,0-4.754,2.129-4.754,4.754v0c0,2.626,2.129,4.754,4.754,4.754h52.673V25.605
			c0-4.746-3.847-8.593-8.593-8.593H49.344C46.718,17.013,44.589,19.141,44.589,21.767z"/>
	</g>
	<g>
		<path class="st2" d="M83.917,64.092l-0.105,9.767c-0.057,5.254,4.197,9.537,9.452,9.517l14.254-0.055l19.69-0.42
			c1.32,0,2.5-0.53,3.37-1.39c0.86-0.87,1.39-2.05,1.39-3.37c0-1.31-0.53-2.5-1.39-3.36c-0.87-0.86-2.05-1.39-3.37-1.39
			c-1.31,0-2.5-0.53-3.36-1.39s-1.39-2.06-1.39-3.37c0-2.13,1.41-3.93,3.34-4.54h19.85c0.47,0,0.94-0.07,1.37-0.21
			c1.9-0.58,3.34-2.33,3.26-4.39c-0.04-1.15-0.53-2.18-1.29-2.94c-0.8-0.8-1.9-1.3-3.12-1.3l-36.167,0l-2-10.147
			C99.085,45.623,83.917,64.092,83.917,64.092z"/>
	</g>
	<g>
		<rect x="48.95" y="35.838" class="st3" width="47.542" height="38.437"/>
		<path class="st4" d="M96.991,74.774H48.45V35.338h48.542V74.774z M49.45,73.774h46.542V36.338H49.45V73.774z"/>
	</g>
	<g>
		<path class="st5" d="M100.969,58.062c-10.281,1.195-19.595-6.178-20.79-16.459c-1.196-10.291,6.178-19.595,16.459-20.79
			c3.904-0.454,7.669,0.326,10.908,2.034l-8.324,16.552c-0.008,0.021,0.006,0.05,0.036,0.046l18.178-2.113
			C118.597,47.587,111.239,56.868,100.969,58.062z"/>
		<path class="st4" d="M98.789,58.69c-9.63,0.001-17.968-7.236-19.107-17.029c-1.226-10.543,6.355-20.119,16.898-21.344
			c3.875-0.452,7.751,0.271,11.199,2.088l0.434,0.229l-8.155,16.215l17.817-2.071l0.057,0.499
			c1.191,10.513-6.393,20.061-16.905,21.284l0,0C100.275,58.647,99.527,58.69,98.789,58.69z M98.826,21.186
			c-0.708,0-1.419,0.041-2.131,0.124c-9.995,1.162-17.182,10.24-16.02,20.236c1.163,9.995,10.227,17.187,20.236,16.02l0,0
			c9.8-1.14,16.915-9.91,16.076-19.678l-17.951,2.087l-0.375-0.452l0.092-0.297l8.123-16.158
			C104.358,21.824,101.616,21.186,98.826,21.186z"/>
	</g>
	<g>
		<path class="st6" d="M113.396,18.865l-8.392,16.707c-0.01,0.02,0.006,0.043,0.028,0.04l18.573-2.159
			C123.605,33.453,123.563,24.425,113.396,18.865z"/>
		<path class="st4" d="M104.794,36.143l-0.366-0.497l0.127-0.294l8.627-17.174l0.455,0.249
			c10.305,5.636,10.469,14.931,10.469,15.024l0.002,0.447L104.794,36.143z M113.608,19.557l-7.765,15.458l17.231-2.003
			C122.899,31.193,121.7,24.21,113.608,19.557z"/>
	</g>
	<g>
		<rect x="68.966" y="50.626" class="st3" width="7.521" height="23.194"/>
		<path class="st4" d="M76.737,74.07h-8.021V50.376h8.021V74.07z M69.216,73.57h7.021V50.876h-7.021V73.57z"/>
	</g>
	<g>
		<rect x="55.563" y="44.56" class="st2" width="7.521" height="29.259"/>
		<path class="st4" d="M63.334,74.07h-8.021V44.31h8.021V74.07z M55.813,73.57h7.021V44.81h-7.021V73.57z"/>
	</g>
	<g>
		<rect x="82.605" y="60.267" class="st6" width="7.521" height="13.552"/>
		<path class="st4" d="M90.376,74.07h-8.021V60.017h8.021V74.07z M82.855,73.57h7.021V60.517h-7.021V73.57z"/>
	</g>
	<g>
		<polygon class="st4" points="69.229,59.339 68.912,58.952 76.297,52.876 76.615,53.263 		"/>
	</g>
	<g>
		<polygon class="st4" points="69.229,63.499 68.912,63.113 76.297,57.036 76.615,57.422 		"/>
	</g>
	<g>
		<polygon class="st4" points="69.229,67.84 68.912,67.453 76.297,61.377 76.615,61.764 		"/>
	</g>
	<g>
		<polygon class="st4" points="69.193,72.326 68.875,71.939 76.261,65.863 76.578,66.249 		"/>
	</g>
	<g>
		<polygon class="st4" points="71.794,74.528 71.477,74.141 76.261,70.203 76.578,70.59 		"/>
	</g>
	<g>
		
			<rect x="68.399" y="52.413" transform="matrix(0.773 -0.6344 0.6344 0.773 -17.1622 57.3621)" class="st4" width="6.352" height="0.5"/>
	</g>
</g>
</svg>
