<?xml version="1.0" encoding="utf-8"?>
<!-- Generator: Adobe Illustrator 21.1.0, SVG Export Plug-In . SVG Version: 6.00 Build 0)  -->
<svg version="1.1" xmlns="http://www.w3.org/2000/svg" xmlns:xlink="http://www.w3.org/1999/xlink" x="0px" y="0px"
	 viewBox="0 0 171 100" style="enable-background:new 0 0 171 100;" xml:space="preserve">
<style type="text/css">
	.st0{opacity:0.31;}
	.st1{fill:#C4DFE5;}
	.st2{fill:#D7EFF2;}
	.st3{fill:#FFFFFF;}
	.st4{fill:#6B768E;}
	.st5{fill:#FDEAE4;}
	.st6{fill:#E4CDB6;}
</style>
<g id="Layer_1">
	<g id="Layer_1_1_">
	</g>
</g>
<g id="Layer_4">
	<g>
		<g class="st0">
			<g>
				<g>
					<g>
						<circle class="st1" cx="103.987" cy="92.766" r="1.189"/>
					</g>
				</g>
				<g>
					<g>
						<circle class="st1" cx="94.478" cy="92.766" r="1.189"/>
					</g>
				</g>
				<g>
					<g>
						<circle class="st1" cx="84.97" cy="92.766" r="1.189"/>
					</g>
				</g>
				<g>
					<g>
						<circle class="st1" cx="75.461" cy="92.766" r="1.189"/>
					</g>
				</g>
				<g>
					<g>
						<circle class="st1" cx="65.953" cy="92.766" r="1.189"/>
					</g>
				</g>
				<g>
					<g>
						<circle class="st1" cx="56.445" cy="92.766" r="1.189"/>
					</g>
				</g>
				<g>
					<g>
						<circle class="st1" cx="46.936" cy="92.766" r="1.189"/>
					</g>
				</g>
				<g>
					<g>
						<circle class="st1" cx="37.428" cy="92.766" r="1.189"/>
					</g>
				</g>
				<g>
					<g>
						<circle class="st1" cx="27.919" cy="92.766" r="1.189"/>
					</g>
				</g>
				<g>
					<g>
						<circle class="st1" cx="18.411" cy="92.766" r="1.189"/>
					</g>
				</g>
				<g>
					<g>
						<circle class="st1" cx="8.903" cy="92.766" r="1.189"/>
					</g>
				</g>
			</g>
			<g>
				<g>
					<g>
						<circle class="st1" cx="103.987" cy="83.258" r="1.189"/>
					</g>
				</g>
				<g>
					<g>
						<circle class="st1" cx="94.478" cy="83.258" r="1.189"/>
					</g>
				</g>
				<g>
					<g>
						<circle class="st1" cx="84.97" cy="83.258" r="1.189"/>
					</g>
				</g>
				<g>
					<g>
						<circle class="st1" cx="75.461" cy="83.258" r="1.189"/>
					</g>
				</g>
				<g>
					<g>
						<circle class="st1" cx="65.953" cy="83.258" r="1.189"/>
					</g>
				</g>
				<g>
					<g>
						<circle class="st1" cx="56.445" cy="83.258" r="1.189"/>
					</g>
				</g>
				<g>
					<g>
						<circle class="st1" cx="46.936" cy="83.258" r="1.189"/>
					</g>
				</g>
				<g>
					<g>
						<circle class="st1" cx="37.428" cy="83.258" r="1.189"/>
					</g>
				</g>
				<g>
					<g>
						<circle class="st1" cx="27.919" cy="83.258" r="1.189"/>
					</g>
				</g>
				<g>
					<g>
						<circle class="st1" cx="18.411" cy="83.258" r="1.189"/>
					</g>
				</g>
				<g>
					<g>
						<circle class="st1" cx="8.903" cy="83.258" r="1.189"/>
					</g>
				</g>
			</g>
			<g>
				<g>
					<g>
						<circle class="st1" cx="103.987" cy="73.749" r="1.189"/>
					</g>
				</g>
				<g>
					<g>
						<circle class="st1" cx="94.478" cy="73.749" r="1.189"/>
					</g>
				</g>
				<g>
					<g>
						<circle class="st1" cx="84.97" cy="73.749" r="1.189"/>
					</g>
				</g>
				<g>
					<g>
						<circle class="st1" cx="75.461" cy="73.749" r="1.189"/>
					</g>
				</g>
				<g>
					<g>
						<circle class="st1" cx="65.953" cy="73.749" r="1.189"/>
					</g>
				</g>
				<g>
					<g>
						<circle class="st1" cx="56.445" cy="73.749" r="1.189"/>
					</g>
				</g>
				<g>
					<g>
						<circle class="st1" cx="46.936" cy="73.749" r="1.189"/>
					</g>
				</g>
				<g>
					<g>
						<circle class="st1" cx="37.428" cy="73.749" r="1.189"/>
					</g>
				</g>
				<g>
					<g>
						<circle class="st1" cx="27.919" cy="73.749" r="1.189"/>
					</g>
				</g>
				<g>
					<g>
						<circle class="st1" cx="18.411" cy="73.749" r="1.189"/>
					</g>
				</g>
				<g>
					<g>
						<circle class="st1" cx="8.903" cy="73.749" r="1.189"/>
					</g>
				</g>
			</g>
			<g>
				<g>
					<g>
						<circle class="st1" cx="103.987" cy="64.241" r="1.189"/>
					</g>
				</g>
				<g>
					<g>
						<circle class="st1" cx="94.478" cy="64.241" r="1.189"/>
					</g>
				</g>
				<g>
					<g>
						<circle class="st1" cx="84.97" cy="64.241" r="1.189"/>
					</g>
				</g>
				<g>
					<g>
						<circle class="st1" cx="75.461" cy="64.241" r="1.189"/>
					</g>
				</g>
				<g>
					<g>
						<circle class="st1" cx="65.953" cy="64.241" r="1.189"/>
					</g>
				</g>
				<g>
					<g>
						<circle class="st1" cx="56.445" cy="64.241" r="1.189"/>
					</g>
				</g>
				<g>
					<g>
						<circle class="st1" cx="46.936" cy="64.241" r="1.189"/>
					</g>
				</g>
				<g>
					<g>
						<circle class="st1" cx="37.428" cy="64.241" r="1.189"/>
					</g>
				</g>
				<g>
					<g>
						<circle class="st1" cx="27.919" cy="64.241" r="1.189"/>
					</g>
				</g>
				<g>
					<g>
						<circle class="st1" cx="18.411" cy="64.241" r="1.189"/>
					</g>
				</g>
				<g>
					<g>
						<circle class="st1" cx="8.903" cy="64.241" r="1.189"/>
					</g>
				</g>
			</g>
			<g>
				<g>
					<g>
						<circle class="st1" cx="103.987" cy="54.733" r="1.189"/>
					</g>
				</g>
				<g>
					<g>
						<circle class="st1" cx="94.478" cy="54.733" r="1.189"/>
					</g>
				</g>
				<g>
					<g>
						<circle class="st1" cx="84.97" cy="54.733" r="1.189"/>
					</g>
				</g>
				<g>
					<g>
						<circle class="st1" cx="75.461" cy="54.733" r="1.189"/>
					</g>
				</g>
				<g>
					<g>
						<circle class="st1" cx="65.953" cy="54.733" r="1.189"/>
					</g>
				</g>
				<g>
					<g>
						<circle class="st1" cx="56.445" cy="54.733" r="1.189"/>
					</g>
				</g>
				<g>
					<g>
						<circle class="st1" cx="46.936" cy="54.733" r="1.189"/>
					</g>
				</g>
				<g>
					<g>
						<circle class="st1" cx="37.428" cy="54.733" r="1.189"/>
					</g>
				</g>
				<g>
					<g>
						<circle class="st1" cx="27.919" cy="54.733" r="1.189"/>
					</g>
				</g>
				<g>
					<g>
						<circle class="st1" cx="18.411" cy="54.733" r="1.189"/>
					</g>
				</g>
				<g>
					<g>
						<circle class="st1" cx="8.903" cy="54.733" r="1.189"/>
					</g>
				</g>
			</g>
			<g>
				<g>
					<g>
						<circle class="st1" cx="103.987" cy="45.224" r="1.189"/>
					</g>
				</g>
				<g>
					<g>
						<circle class="st1" cx="94.478" cy="45.224" r="1.189"/>
					</g>
				</g>
				<g>
					<g>
						<circle class="st1" cx="84.97" cy="45.224" r="1.189"/>
					</g>
				</g>
				<g>
					<g>
						<circle class="st1" cx="75.461" cy="45.224" r="1.189"/>
					</g>
				</g>
				<g>
					<g>
						<circle class="st1" cx="65.953" cy="45.224" r="1.189"/>
					</g>
				</g>
				<g>
					<g>
						<circle class="st1" cx="56.445" cy="45.224" r="1.189"/>
					</g>
				</g>
				<g>
					<g>
						<circle class="st1" cx="46.936" cy="45.224" r="1.189"/>
					</g>
				</g>
				<g>
					<g>
						<circle class="st1" cx="37.428" cy="45.224" r="1.189"/>
					</g>
				</g>
				<g>
					<g>
						<circle class="st1" cx="27.919" cy="45.224" r="1.189"/>
					</g>
				</g>
				<g>
					<g>
						<circle class="st1" cx="18.411" cy="45.224" r="1.189"/>
					</g>
				</g>
				<g>
					<g>
						<circle class="st1" cx="8.903" cy="45.224" r="1.189"/>
					</g>
				</g>
			</g>
			<g>
				<g>
					<g>
						<circle class="st1" cx="103.987" cy="35.716" r="1.189"/>
					</g>
				</g>
				<g>
					<g>
						<circle class="st1" cx="94.478" cy="35.716" r="1.189"/>
					</g>
				</g>
				<g>
					<g>
						<circle class="st1" cx="84.97" cy="35.716" r="1.189"/>
					</g>
				</g>
				<g>
					<g>
						<circle class="st1" cx="75.461" cy="35.716" r="1.189"/>
					</g>
				</g>
				<g>
					<g>
						<circle class="st1" cx="65.953" cy="35.716" r="1.189"/>
					</g>
				</g>
				<g>
					<g>
						<circle class="st1" cx="56.445" cy="35.716" r="1.189"/>
					</g>
				</g>
				<g>
					<g>
						<circle class="st1" cx="46.936" cy="35.716" r="1.189"/>
					</g>
				</g>
				<g>
					<g>
						<circle class="st1" cx="37.428" cy="35.716" r="1.189"/>
					</g>
				</g>
				<g>
					<g>
						<circle class="st1" cx="27.919" cy="35.716" r="1.189"/>
					</g>
				</g>
				<g>
					<g>
						<circle class="st1" cx="18.411" cy="35.716" r="1.189"/>
					</g>
				</g>
				<g>
					<g>
						<circle class="st1" cx="8.903" cy="35.716" r="1.189"/>
					</g>
				</g>
			</g>
			<g>
				<g>
					<g>
						<circle class="st1" cx="103.987" cy="26.207" r="1.189"/>
					</g>
				</g>
				<g>
					<g>
						<circle class="st1" cx="94.478" cy="26.207" r="1.189"/>
					</g>
				</g>
				<g>
					<g>
						<circle class="st1" cx="84.97" cy="26.207" r="1.189"/>
					</g>
				</g>
				<g>
					<g>
						<circle class="st1" cx="75.461" cy="26.207" r="1.189"/>
					</g>
				</g>
				<g>
					<g>
						<circle class="st1" cx="65.953" cy="26.207" r="1.189"/>
					</g>
				</g>
				<g>
					<g>
						<circle class="st1" cx="56.445" cy="26.207" r="1.189"/>
					</g>
				</g>
				<g>
					<g>
						<circle class="st1" cx="46.936" cy="26.207" r="1.189"/>
					</g>
				</g>
				<g>
					<g>
						<circle class="st1" cx="37.428" cy="26.207" r="1.189"/>
					</g>
				</g>
				<g>
					<g>
						<circle class="st1" cx="27.919" cy="26.207" r="1.189"/>
					</g>
				</g>
				<g>
					<g>
						<circle class="st1" cx="18.411" cy="26.207" r="1.189"/>
					</g>
				</g>
				<g>
					<g>
						<circle class="st1" cx="8.903" cy="26.207" r="1.189"/>
					</g>
				</g>
			</g>
			<g>
				<g>
					<g>
						<circle class="st1" cx="103.987" cy="16.699" r="1.189"/>
					</g>
				</g>
				<g>
					<g>
						<circle class="st1" cx="94.478" cy="16.699" r="1.189"/>
					</g>
				</g>
				<g>
					<g>
						<circle class="st1" cx="84.97" cy="16.699" r="1.189"/>
					</g>
				</g>
				<g>
					<g>
						<circle class="st1" cx="75.461" cy="16.699" r="1.189"/>
					</g>
				</g>
				<g>
					<g>
						<circle class="st1" cx="65.953" cy="16.699" r="1.189"/>
					</g>
				</g>
				<g>
					<g>
						<circle class="st1" cx="56.445" cy="16.699" r="1.189"/>
					</g>
				</g>
				<g>
					<g>
						<circle class="st1" cx="46.936" cy="16.699" r="1.189"/>
					</g>
				</g>
				<g>
					<g>
						<circle class="st1" cx="37.428" cy="16.699" r="1.189"/>
					</g>
				</g>
				<g>
					<g>
						<circle class="st1" cx="27.919" cy="16.699" r="1.189"/>
					</g>
				</g>
				<g>
					<g>
						<circle class="st1" cx="18.411" cy="16.699" r="1.189"/>
					</g>
				</g>
				<g>
					<g>
						<circle class="st1" cx="8.903" cy="16.699" r="1.189"/>
					</g>
				</g>
			</g>
			<g>
				<g>
					<g>
						<circle class="st1" cx="103.987" cy="7.191" r="1.189"/>
					</g>
				</g>
				<g>
					<g>
						<circle class="st1" cx="94.478" cy="7.191" r="1.189"/>
					</g>
				</g>
				<g>
					<g>
						<circle class="st1" cx="84.97" cy="7.191" r="1.189"/>
					</g>
				</g>
				<g>
					<g>
						<circle class="st1" cx="75.461" cy="7.191" r="1.189"/>
					</g>
				</g>
				<g>
					<g>
						<circle class="st1" cx="65.953" cy="7.191" r="1.189"/>
					</g>
				</g>
				<g>
					<g>
						<circle class="st1" cx="56.445" cy="7.191" r="1.189"/>
					</g>
				</g>
				<g>
					<g>
						<circle class="st1" cx="46.936" cy="7.191" r="1.189"/>
					</g>
				</g>
				<g>
					<g>
						<circle class="st1" cx="37.428" cy="7.191" r="1.189"/>
					</g>
				</g>
				<g>
					<g>
						<circle class="st1" cx="27.919" cy="7.191" r="1.189"/>
					</g>
				</g>
				<g>
					<g>
						<circle class="st1" cx="18.411" cy="7.191" r="1.189"/>
					</g>
				</g>
				<g>
					<g>
						<circle class="st1" cx="8.903" cy="7.191" r="1.189"/>
					</g>
				</g>
			</g>
		</g>
		<g class="st0">
			<g>
				<g>
					<g>
						<circle class="st1" cx="161.381" cy="92.766" r="1.189"/>
					</g>
				</g>
				<g>
					<g>
						<circle class="st1" cx="151.872" cy="92.766" r="1.189"/>
					</g>
				</g>
				<g>
					<g>
						<circle class="st1" cx="142.364" cy="92.766" r="1.189"/>
					</g>
				</g>
				<g>
					<g>
						<circle class="st1" cx="132.855" cy="92.766" r="1.189"/>
					</g>
				</g>
				<g>
					<g>
						<circle class="st1" cx="123.347" cy="92.766" r="1.189"/>
					</g>
				</g>
				<g>
					<g>
						<circle class="st1" cx="113.839" cy="92.766" r="1.189"/>
					</g>
				</g>
			</g>
			<g>
				<g>
					<g>
						<circle class="st1" cx="161.381" cy="83.258" r="1.189"/>
					</g>
				</g>
				<g>
					<g>
						<circle class="st1" cx="151.872" cy="83.258" r="1.189"/>
					</g>
				</g>
				<g>
					<g>
						<circle class="st1" cx="142.364" cy="83.258" r="1.189"/>
					</g>
				</g>
				<g>
					<g>
						<circle class="st1" cx="132.855" cy="83.258" r="1.189"/>
					</g>
				</g>
				<g>
					<g>
						<circle class="st1" cx="123.347" cy="83.258" r="1.189"/>
					</g>
				</g>
				<g>
					<g>
						<circle class="st1" cx="113.839" cy="83.258" r="1.189"/>
					</g>
				</g>
			</g>
			<g>
				<g>
					<g>
						<circle class="st1" cx="161.381" cy="73.749" r="1.189"/>
					</g>
				</g>
				<g>
					<g>
						<circle class="st1" cx="151.872" cy="73.749" r="1.189"/>
					</g>
				</g>
				<g>
					<g>
						<circle class="st1" cx="142.364" cy="73.749" r="1.189"/>
					</g>
				</g>
				<g>
					<g>
						<circle class="st1" cx="132.855" cy="73.749" r="1.189"/>
					</g>
				</g>
				<g>
					<g>
						<circle class="st1" cx="123.347" cy="73.749" r="1.189"/>
					</g>
				</g>
				<g>
					<g>
						<circle class="st1" cx="113.839" cy="73.749" r="1.189"/>
					</g>
				</g>
			</g>
			<g>
				<g>
					<g>
						<circle class="st1" cx="161.381" cy="64.241" r="1.189"/>
					</g>
				</g>
				<g>
					<g>
						<circle class="st1" cx="151.872" cy="64.241" r="1.189"/>
					</g>
				</g>
				<g>
					<g>
						<circle class="st1" cx="142.364" cy="64.241" r="1.189"/>
					</g>
				</g>
				<g>
					<g>
						<circle class="st1" cx="132.855" cy="64.241" r="1.189"/>
					</g>
				</g>
				<g>
					<g>
						<circle class="st1" cx="123.347" cy="64.241" r="1.189"/>
					</g>
				</g>
				<g>
					<g>
						<circle class="st1" cx="113.839" cy="64.241" r="1.189"/>
					</g>
				</g>
			</g>
			<g>
				<g>
					<g>
						<circle class="st1" cx="161.381" cy="54.733" r="1.189"/>
					</g>
				</g>
				<g>
					<g>
						<circle class="st1" cx="151.872" cy="54.733" r="1.189"/>
					</g>
				</g>
				<g>
					<g>
						<circle class="st1" cx="142.364" cy="54.733" r="1.189"/>
					</g>
				</g>
				<g>
					<g>
						<circle class="st1" cx="132.855" cy="54.733" r="1.189"/>
					</g>
				</g>
				<g>
					<g>
						<circle class="st1" cx="123.347" cy="54.733" r="1.189"/>
					</g>
				</g>
				<g>
					<g>
						<circle class="st1" cx="113.839" cy="54.733" r="1.189"/>
					</g>
				</g>
			</g>
			<g>
				<g>
					<g>
						<circle class="st1" cx="161.381" cy="45.224" r="1.189"/>
					</g>
				</g>
				<g>
					<g>
						<circle class="st1" cx="151.872" cy="45.224" r="1.189"/>
					</g>
				</g>
				<g>
					<g>
						<circle class="st1" cx="142.364" cy="45.224" r="1.189"/>
					</g>
				</g>
				<g>
					<g>
						<circle class="st1" cx="132.855" cy="45.224" r="1.189"/>
					</g>
				</g>
				<g>
					<g>
						<circle class="st1" cx="123.347" cy="45.224" r="1.189"/>
					</g>
				</g>
				<g>
					<g>
						<circle class="st1" cx="113.839" cy="45.224" r="1.189"/>
					</g>
				</g>
			</g>
			<g>
				<g>
					<g>
						<circle class="st1" cx="161.381" cy="35.716" r="1.189"/>
					</g>
				</g>
				<g>
					<g>
						<circle class="st1" cx="151.872" cy="35.716" r="1.189"/>
					</g>
				</g>
				<g>
					<g>
						<circle class="st1" cx="142.364" cy="35.716" r="1.189"/>
					</g>
				</g>
				<g>
					<g>
						<circle class="st1" cx="132.855" cy="35.716" r="1.189"/>
					</g>
				</g>
				<g>
					<g>
						<circle class="st1" cx="123.347" cy="35.716" r="1.189"/>
					</g>
				</g>
				<g>
					<g>
						<circle class="st1" cx="113.839" cy="35.716" r="1.189"/>
					</g>
				</g>
			</g>
			<g>
				<g>
					<g>
						<circle class="st1" cx="161.381" cy="26.207" r="1.189"/>
					</g>
				</g>
				<g>
					<g>
						<circle class="st1" cx="151.872" cy="26.207" r="1.189"/>
					</g>
				</g>
				<g>
					<g>
						<circle class="st1" cx="142.364" cy="26.207" r="1.189"/>
					</g>
				</g>
				<g>
					<g>
						<circle class="st1" cx="132.855" cy="26.207" r="1.189"/>
					</g>
				</g>
				<g>
					<g>
						<circle class="st1" cx="123.347" cy="26.207" r="1.189"/>
					</g>
				</g>
				<g>
					<g>
						<circle class="st1" cx="113.839" cy="26.207" r="1.189"/>
					</g>
				</g>
			</g>
			<g>
				<g>
					<g>
						<circle class="st1" cx="161.381" cy="16.699" r="1.189"/>
					</g>
				</g>
				<g>
					<g>
						<circle class="st1" cx="151.872" cy="16.699" r="1.189"/>
					</g>
				</g>
				<g>
					<g>
						<circle class="st1" cx="142.364" cy="16.699" r="1.189"/>
					</g>
				</g>
				<g>
					<g>
						<circle class="st1" cx="132.855" cy="16.699" r="1.189"/>
					</g>
				</g>
				<g>
					<g>
						<circle class="st1" cx="123.347" cy="16.699" r="1.189"/>
					</g>
				</g>
				<g>
					<g>
						<circle class="st1" cx="113.839" cy="16.699" r="1.189"/>
					</g>
				</g>
			</g>
			<g>
				<g>
					<g>
						<circle class="st1" cx="161.381" cy="7.191" r="1.189"/>
					</g>
				</g>
				<g>
					<g>
						<circle class="st1" cx="151.872" cy="7.191" r="1.189"/>
					</g>
				</g>
				<g>
					<g>
						<circle class="st1" cx="142.364" cy="7.191" r="1.189"/>
					</g>
				</g>
				<g>
					<g>
						<circle class="st1" cx="132.855" cy="7.191" r="1.189"/>
					</g>
				</g>
				<g>
					<g>
						<circle class="st1" cx="123.347" cy="7.191" r="1.189"/>
					</g>
				</g>
				<g>
					<g>
						<circle class="st1" cx="113.839" cy="7.191" r="1.189"/>
					</g>
				</g>
			</g>
		</g>
	</g>
	<g>
		<path class="st2" d="M49.471,67.814H48.99c-2.408,0-4.361,1.952-4.361,4.361v0c0,2.408,1.952,4.361,4.361,4.361h51.029
			c4.816,0,8.721-3.905,8.721-8.721v0c0-4.816,3.905-8.721,8.721-8.721h18.991c2.709,0,4.906-2.196,4.906-4.906v0
			c0-2.709-2.196-4.906-4.906-4.906H119.01c-2.107,0-3.815-1.708-3.815-3.815v0c0-2.107,1.708-3.815,3.815-3.815h9.266
			c2.408,0,4.361-1.952,4.361-4.361v0c0-2.408-1.952-4.361-4.361-4.361h-20.712H40.75c-2.408,0-4.361,1.952-4.361,4.361v0
			c0,2.408,1.952,4.361,4.361,4.361h8.721c2.408,0,4.361,1.952,4.361,4.361v0c0,2.408-1.952,4.361-4.361,4.361H23.308
			c-2.408,0-4.361,1.952-4.361,4.361v0c0,2.408,1.952,4.361,4.361,4.361h26.163c2.408,0,4.361,1.952,4.361,4.361v0
			C53.832,65.862,51.88,67.814,49.471,67.814z"/>
	</g>
	<g>
		<path class="st3" d="M84.784,16.699H96.56c3.983,0,7.212,3.229,7.212,7.212v52.183c0,3.855-3.125,6.981-6.981,6.981H84.784"/>
		<path class="st4" d="M96.791,83.575H84.784v-1h12.007c3.574,0,6.481-2.907,6.481-6.481V23.911c0-3.701-3.011-6.711-6.712-6.711
			H84.784v-1h11.776c4.252,0,7.712,3.459,7.712,7.711v52.183C104.272,80.218,100.916,83.575,96.791,83.575z"/>
	</g>
	<g>
		<polyline class="st3" points="84.955,83.074 65.967,83.074 65.967,16.699 84.955,16.699 		"/>
		<polygon class="st4" points="84.955,83.575 65.467,83.575 65.467,16.199 84.955,16.199 84.955,17.199 66.467,17.199 
			66.467,82.575 84.955,82.575 		"/>
	</g>
	<g>
		<rect x="65.895" y="26.773" class="st4" width="38.091" height="0.5"/>
	</g>
	<g>
		<line class="st5" x1="65.929" y1="73.749" x2="103.987" y2="73.749"/>
		<rect x="65.929" y="73.499" class="st4" width="38.057" height="0.5"/>
	</g>
	<g>
		<circle class="st6" cx="84.958" cy="78.391" r="2.287"/>
		<path class="st4" d="M84.958,80.928c-1.399,0-2.537-1.138-2.537-2.537s1.138-2.537,2.537-2.537c1.399,0,2.537,1.138,2.537,2.537
			S86.357,80.928,84.958,80.928z M84.958,76.354c-1.123,0-2.037,0.914-2.037,2.037s0.914,2.037,2.037,2.037s2.037-0.914,2.037-2.037
			S86.081,76.354,84.958,76.354z"/>
	</g>
	<g>
		<circle class="st3" cx="84.97" cy="19.604" r="1.037"/>
		<path class="st4" d="M84.97,20.891c-0.709,0-1.287-0.577-1.287-1.287c0-0.71,0.577-1.287,1.287-1.287s1.287,0.577,1.287,1.287
			C86.257,20.314,85.679,20.891,84.97,20.891z M84.97,18.817c-0.434,0-0.787,0.353-0.787,0.787c0,0.434,0.353,0.787,0.787,0.787
			c0.434,0,0.787-0.353,0.787-0.787C85.757,19.17,85.404,18.817,84.97,18.817z"/>
	</g>
	<g>
		<rect x="80.153" y="22.428" class="st4" width="9.634" height="0.5"/>
	</g>
	<g>
		<rect x="68.912" y="29.365" class="st2" width="31.375" height="41.5"/>
	</g>
	<g>
		<rect x="68.912" y="29.365" class="st6" width="16.058" height="41.5"/>
	</g>
	<g>
		<g>
			<path class="st4" d="M84.97,9.441c-0.138,0-0.25-0.112-0.25-0.25v-2c0-0.138,0.112-0.25,0.25-0.25s0.25,0.112,0.25,0.25v2
				C85.22,9.329,85.108,9.441,84.97,9.441z"/>
		</g>
		<g>
			<path class="st4" d="M84.97,87.131c-0.138,0-0.25-0.112-0.25-0.25v-3.884c0-0.138,0.112-0.25,0.25-0.25s0.25,0.112,0.25,0.25
				v3.884C85.22,87.019,85.108,87.131,84.97,87.131z M84.97,79.363c-0.138,0-0.25-0.112-0.25-0.25v-3.885
				c0-0.138,0.112-0.25,0.25-0.25s0.25,0.112,0.25,0.25v3.885C85.22,79.25,85.108,79.363,84.97,79.363z M84.97,71.593
				c-0.138,0-0.25-0.112-0.25-0.25v-3.885c0-0.138,0.112-0.25,0.25-0.25s0.25,0.112,0.25,0.25v3.885
				C85.22,71.481,85.108,71.593,84.97,71.593z M84.97,63.825c-0.138,0-0.25-0.112-0.25-0.25V59.69c0-0.138,0.112-0.25,0.25-0.25
				s0.25,0.112,0.25,0.25v3.885C85.22,63.712,85.108,63.825,84.97,63.825z M84.97,56.055c-0.138,0-0.25-0.112-0.25-0.25V51.92
				c0-0.138,0.112-0.25,0.25-0.25s0.25,0.112,0.25,0.25v3.885C85.22,55.943,85.108,56.055,84.97,56.055z M84.97,48.286
				c-0.138,0-0.25-0.112-0.25-0.25v-3.885c0-0.138,0.112-0.25,0.25-0.25s0.25,0.112,0.25,0.25v3.885
				C85.22,48.174,85.108,48.286,84.97,48.286z M84.97,40.517c-0.138,0-0.25-0.112-0.25-0.25v-3.885c0-0.138,0.112-0.25,0.25-0.25
				s0.25,0.112,0.25,0.25v3.885C85.22,40.405,85.108,40.517,84.97,40.517z M84.97,32.748c-0.138,0-0.25-0.112-0.25-0.25v-3.885
				c0-0.138,0.112-0.25,0.25-0.25s0.25,0.112,0.25,0.25v3.885C85.22,32.636,85.108,32.748,84.97,32.748z M84.97,24.979
				c-0.138,0-0.25-0.112-0.25-0.25v-3.885c0-0.138,0.112-0.25,0.25-0.25s0.25,0.112,0.25,0.25v3.885
				C85.22,24.867,85.108,24.979,84.97,24.979z M84.97,17.21c-0.138,0-0.25-0.112-0.25-0.25v-3.885c0-0.138,0.112-0.25,0.25-0.25
				s0.25,0.112,0.25,0.25v3.885C85.22,17.098,85.108,17.21,84.97,17.21z"/>
		</g>
		<g>
			<path class="st4" d="M84.97,93.016c-0.138,0-0.25-0.112-0.25-0.25v-2c0-0.138,0.112-0.25,0.25-0.25s0.25,0.112,0.25,0.25v2
				C85.22,92.904,85.108,93.016,84.97,93.016z"/>
		</g>
	</g>
	<g>
		<circle class="st5" cx="131.667" cy="64.954" r="14.976"/>
	</g>
	<g>
		<g>
			<path class="st6" d="M136.232,64.771c-0.021-2.14,1.745-3.166,1.824-3.217c-0.993-1.453-2.539-1.652-3.09-1.675
				c-1.316-0.133-2.568,0.775-3.236,0.775c-0.666,0-1.697-0.755-2.788-0.735c-1.434,0.021-2.757,0.834-3.495,2.119
				c-1.49,2.586-0.382,6.417,1.071,8.514c0.71,1.027,1.556,2.18,2.667,2.138c1.07-0.043,1.475-0.692,2.768-0.692
				c1.294,0,1.657,0.692,2.79,0.671c1.151-0.021,1.881-1.046,2.586-2.076c0.815-1.191,1.151-2.344,1.17-2.403
				C138.474,68.177,136.255,67.327,136.232,64.771z M134.105,58.49c0.59-0.716,0.988-1.708,0.879-2.699
				c-0.85,0.035-1.879,0.566-2.489,1.28c-0.547,0.633-1.026,1.644-0.897,2.615C132.546,59.76,133.514,59.204,134.105,58.49z"/>
			<path class="st4" d="M129.128,72.94c-1.263,0-2.195-1.349-2.815-2.246c-1.625-2.347-2.557-6.223-1.082-8.782
				c0.782-1.361,2.203-2.221,3.708-2.243c0.698-0.003,1.291,0.234,1.839,0.452c0.367,0.146,0.713,0.283,0.954,0.283
				c0.212,0,0.556-0.136,0.92-0.279c0.657-0.259,1.471-0.579,2.341-0.495c0.625,0.026,2.227,0.255,3.271,1.783l0.146,0.212
				l-0.217,0.139c-0.301,0.187-1.728,1.161-1.709,3.005v0.001c0.02,2.267,1.894,3.099,2.107,3.187l0.214,0.088l-0.066,0.223
				c-0.123,0.399-0.48,1.414-1.202,2.468c-0.692,1.013-1.478,2.16-2.786,2.185c-0.019,0-0.036,0-0.054,0
				c-0.578,0-0.975-0.171-1.358-0.337c-0.397-0.172-0.772-0.335-1.383-0.335c-0.643,0-1.037,0.168-1.455,0.347
				c-0.374,0.159-0.761,0.324-1.304,0.346C129.173,72.94,129.15,72.94,129.128,72.94z M128.986,60.168c-0.014,0-0.026,0-0.039,0
				c-1.33,0.02-2.588,0.783-3.283,1.993c-1.373,2.382-0.479,6.026,1.06,8.247c0.74,1.071,1.481,2.031,2.402,2.031
				c0.017,0,0.033,0,0.05-0.001c0.451-0.018,0.765-0.151,1.128-0.306c0.425-0.182,0.906-0.387,1.65-0.387
				c0.714,0,1.175,0.2,1.582,0.376c0.377,0.163,0.719,0.297,1.203,0.296c1.051-0.02,1.759-1.055,2.384-1.968
				c0.588-0.859,0.925-1.708,1.07-2.129c-0.599-0.304-2.191-1.321-2.211-3.548l0,0c-0.019-1.809,1.171-2.884,1.719-3.282
				c-0.914-1.159-2.21-1.341-2.745-1.363c-0.757-0.083-1.515,0.222-2.121,0.461c-0.428,0.169-0.797,0.314-1.104,0.314
				c-0.337,0-0.708-0.147-1.139-0.318C130.1,60.389,129.542,60.168,128.986,60.168z M131.764,59.943
				c-0.062,0-0.124-0.003-0.186-0.008l-0.202-0.016l-0.026-0.201c-0.144-1.09,0.4-2.166,0.956-2.81
				c0.654-0.767,1.752-1.329,2.667-1.367l0.233-0.01l0.025,0.232c0.107,0.967-0.242,2.046-0.934,2.886h-0.001
				C133.637,59.45,132.66,59.943,131.764,59.943z M134.751,56.066c-0.727,0.111-1.561,0.576-2.065,1.168
				c-0.43,0.497-0.887,1.35-0.857,2.208c0.733-0.022,1.531-0.442,2.084-1.11C134.46,57.665,134.765,56.835,134.751,56.066z"/>
		</g>
	</g>
	<g>
		<circle class="st6" cx="42.673" cy="35.716" r="14.96"/>
	</g>
	<g>
		<path class="st5" d="M35.302,32.367c-0.328,0-0.606,0.114-0.834,0.343c-0.229,0.229-0.343,0.503-0.343,0.823v4.914
			c0,0.328,0.114,0.606,0.343,0.834c0.229,0.229,0.507,0.343,0.834,0.343c0.327,0,0.604-0.114,0.829-0.343
			c0.225-0.229,0.337-0.506,0.337-0.834v-4.914c0-0.32-0.114-0.594-0.343-0.823C35.896,32.481,35.622,32.367,35.302,32.367z"/>
		<path class="st4" d="M35.302,39.874c-0.395,0-0.735-0.14-1.011-0.417c-0.276-0.276-0.416-0.616-0.416-1.011v-4.915
			c0-0.387,0.14-0.724,0.416-1c0.546-0.546,1.453-0.558,2.011,0c0.276,0.276,0.416,0.612,0.416,1v4.915
			c0,0.394-0.138,0.733-0.409,1.009C36.037,39.734,35.698,39.874,35.302,39.874z M35.302,32.617c-0.261,0-0.477,0.088-0.658,0.27
			c-0.181,0.182-0.27,0.393-0.27,0.646v4.915c0,0.261,0.088,0.476,0.27,0.657c0.363,0.363,0.952,0.364,1.308,0.001
			c0.178-0.182,0.265-0.397,0.265-0.659v-4.915c0-0.253-0.088-0.464-0.27-0.646C35.767,32.705,35.556,32.617,35.302,32.617z"/>
	</g>
	<g>
		<path class="st5" d="M45.1,27.531l0.811-1.497c0.053-0.099,0.034-0.175-0.057-0.229c-0.099-0.046-0.175-0.023-0.229,0.068
			l-0.823,1.509c-0.724-0.32-1.49-0.48-2.297-0.48c-0.808,0-1.573,0.16-2.297,0.48l-0.823-1.509
			c-0.053-0.091-0.13-0.114-0.229-0.068c-0.092,0.054-0.11,0.129-0.057,0.229l0.811,1.497c-0.823,0.42-1.478,1.004-1.966,1.754
			c-0.488,0.751-0.731,1.571-0.731,2.463h10.571c0-0.891-0.244-1.712-0.731-2.463C46.566,28.535,45.915,27.951,45.1,27.531z
			 M40.408,29.708c-0.088,0.088-0.193,0.132-0.314,0.132c-0.122,0-0.225-0.044-0.309-0.132c-0.084-0.088-0.126-0.192-0.126-0.314
			c0-0.122,0.042-0.226,0.126-0.314c0.084-0.088,0.187-0.131,0.309-0.131s0.227,0.044,0.314,0.131
			c0.088,0.088,0.132,0.192,0.132,0.314C40.54,29.516,40.496,29.621,40.408,29.708z M45.225,29.708
			c-0.084,0.088-0.187,0.132-0.308,0.132c-0.122,0-0.227-0.044-0.314-0.132c-0.088-0.088-0.131-0.192-0.131-0.314
			c0-0.122,0.044-0.226,0.131-0.314c0.088-0.088,0.192-0.131,0.314-0.131c0.122,0,0.224,0.044,0.308,0.131
			c0.084,0.088,0.126,0.192,0.126,0.314C45.351,29.516,45.309,29.621,45.225,29.708z"/>
		<path class="st4" d="M48.035,31.998H36.964v-0.25c0-0.936,0.26-1.811,0.772-2.599c0.463-0.713,1.08-1.291,1.836-1.719
			l-0.692-1.276c-0.117-0.216-0.057-0.442,0.15-0.563c0.236-0.113,0.451-0.045,0.57,0.157l0.719,1.318
			c1.382-0.548,2.989-0.548,4.372,0l0.714-1.311c0.123-0.209,0.339-0.275,0.554-0.175c0.227,0.131,0.288,0.357,0.171,0.573
			l-0.693,1.278c0.749,0.429,1.362,1.006,1.825,1.719c0.512,0.789,0.772,1.663,0.772,2.599V31.998z M37.471,31.498h10.057
			c-0.042-0.744-0.271-1.441-0.684-2.077c-0.461-0.709-1.086-1.27-1.859-1.668l-0.283-0.142c-1.378-0.609-3.015-0.609-4.392,0
			l-0.284,0.142c-0.781,0.398-1.41,0.96-1.87,1.668C37.743,30.057,37.513,30.754,37.471,31.498z M44.917,30.09
			c-0.187,0-0.357-0.071-0.491-0.205c-0.134-0.134-0.205-0.304-0.205-0.491s0.071-0.356,0.204-0.491
			c0.272-0.27,0.72-0.268,0.98,0.003c0.128,0.134,0.195,0.302,0.195,0.488s-0.067,0.354-0.195,0.487l0,0
			C45.275,30.018,45.106,30.09,44.917,30.09z M44.917,29.199c-0.056,0-0.097,0.018-0.138,0.059c-0.04,0.041-0.058,0.082-0.058,0.137
			s0.018,0.097,0.058,0.137c0.082,0.082,0.191,0.083,0.266,0.004l0,0c0.039-0.041,0.056-0.083,0.056-0.141s-0.017-0.101-0.056-0.142
			C45.008,29.214,44.97,29.199,44.917,29.199z M40.094,30.09c-0.189,0-0.358-0.072-0.489-0.209
			c-0.127-0.133-0.195-0.302-0.195-0.487c0-0.185,0.067-0.353,0.194-0.487c0.263-0.272,0.711-0.272,0.98-0.005
			c0.134,0.135,0.205,0.305,0.205,0.492s-0.071,0.357-0.205,0.491C40.451,30.019,40.281,30.09,40.094,30.09z M40.094,29.199
			c-0.053,0-0.092,0.016-0.128,0.055c-0.039,0.041-0.056,0.083-0.056,0.141s0.017,0.1,0.056,0.141
			c0.076,0.08,0.185,0.077,0.266-0.004c0.041-0.041,0.058-0.082,0.058-0.137s-0.018-0.097-0.059-0.138
			C40.19,29.216,40.149,29.199,40.094,29.199z"/>
	</g>
	<g>
		<path class="st5" d="M37.254,40.195c0,0.351,0.122,0.648,0.366,0.891c0.244,0.244,0.541,0.366,0.891,0.366h0.846l0.012,2.595
			c0,0.328,0.114,0.606,0.343,0.834c0.229,0.229,0.503,0.343,0.823,0.343c0.327,0,0.606-0.114,0.834-0.343
			c0.229-0.229,0.343-0.507,0.343-0.834v-2.594h1.577v2.594c0,0.328,0.114,0.606,0.343,0.834s0.506,0.343,0.834,0.343
			c0.327,0,0.606-0.114,0.834-0.343c0.229-0.229,0.343-0.507,0.343-0.834v-2.594h0.857c0.343,0,0.636-0.122,0.88-0.366
			c0.244-0.244,0.366-0.541,0.366-0.891v-7.612H37.254V40.195z"/>
		<path class="st4" d="M44.465,45.474c-0.395,0-0.735-0.14-1.011-0.416c-0.276-0.276-0.417-0.616-0.417-1.011v-2.344h-1.077v2.344
			c0,0.395-0.14,0.735-0.416,1.011c-0.547,0.547-1.454,0.558-2.011,0c-0.276-0.276-0.416-0.616-0.416-1.011l-0.011-2.344h-0.597
			c-0.417,0-0.777-0.147-1.068-0.439c-0.292-0.291-0.439-0.65-0.439-1.068v-7.861h10.991v7.861c0,0.417-0.147,0.777-0.439,1.068
			s-0.647,0.438-1.057,0.438h-0.607v2.344c0,0.395-0.14,0.735-0.416,1.011S44.86,45.474,44.465,45.474z M41.461,41.202h2.077v2.844
			c0,0.261,0.088,0.476,0.27,0.658c0.362,0.362,0.951,0.362,1.314,0c0.181-0.182,0.27-0.396,0.27-0.658v-2.844H46.5
			c0.276,0,0.506-0.096,0.703-0.292c0.197-0.197,0.292-0.431,0.292-0.715v-7.361h-9.991v7.361c0,0.284,0.096,0.518,0.292,0.714
			s0.431,0.292,0.714,0.292h1.095l0.013,2.843c0,0.262,0.088,0.477,0.27,0.659c0.367,0.367,0.946,0.357,1.304,0
			c0.181-0.182,0.27-0.396,0.27-0.658V41.202z"/>
	</g>
	<g>
		<path class="st5" d="M49.667,32.367c-0.32,0-0.594,0.113-0.823,0.337c-0.229,0.225-0.343,0.501-0.343,0.828v4.914
			c0,0.328,0.114,0.606,0.343,0.834c0.229,0.229,0.503,0.343,0.823,0.343c0.327,0,0.606-0.114,0.834-0.343
			c0.229-0.229,0.343-0.506,0.343-0.834v-4.914c0-0.327-0.114-0.604-0.343-0.828C50.272,32.48,49.994,32.367,49.667,32.367z"/>
		<path class="st4" d="M49.667,39.874c-0.388,0-0.724-0.14-1-0.417c-0.276-0.276-0.416-0.616-0.416-1.011v-4.915
			c0-0.396,0.141-0.734,0.417-1.006c0.559-0.548,1.46-0.538,2.008,0c0.277,0.272,0.417,0.611,0.417,1.006v4.915
			c0,0.395-0.14,0.735-0.416,1.011C50.402,39.734,50.062,39.874,49.667,39.874z M49.667,32.617c-0.254,0-0.466,0.087-0.648,0.266
			c-0.18,0.177-0.268,0.39-0.268,0.65v4.915c0,0.261,0.088,0.476,0.27,0.657c0.368,0.368,0.945,0.358,1.304,0
			c0.181-0.182,0.27-0.396,0.27-0.657v-4.915c0-0.26-0.088-0.473-0.268-0.65C50.144,32.704,49.928,32.617,49.667,32.617z"/>
	</g>
</g>
</svg>
