<?xml version="1.0" encoding="utf-8"?>
<!-- Generator: Adobe Illustrator 21.1.0, SVG Export Plug-In . SVG Version: 6.00 Build 0)  -->
<svg version="1.1" xmlns="http://www.w3.org/2000/svg" xmlns:xlink="http://www.w3.org/1999/xlink" x="0px" y="0px"
	 viewBox="0 0 171 100" style="enable-background:new 0 0 171 100;" xml:space="preserve">
<style type="text/css">
	.st0{opacity:0.31;}
	.st1{fill:#C4DFE5;}
	.st2{fill:#D7EFF2;}
	.st3{fill:#FFFFFF;}
	.st4{fill:#6B768E;}
	.st5{fill:#FDEAE4;}
	.st6{fill:#E4CDB6;}
	.st7{fill:none;stroke:#6B768E;stroke-width:0.5;stroke-miterlimit:10;}
</style>
<g id="Layer_1">
	<g id="Layer_1_1_">
	</g>
</g>
<g id="Layer_4">
	<g>
		<g>
			<g class="st0">
				<g>
					<g>
						<g>
							<g>
								<circle class="st1" cx="105.709" cy="92.001" r="1.189"/>
							</g>
						</g>
					</g>
					<g>
						<g>
							<g>
								<circle class="st1" cx="96.201" cy="92.001" r="1.189"/>
							</g>
						</g>
					</g>
					<g>
						<g>
							<g>
								<circle class="st1" cx="86.692" cy="92.001" r="1.189"/>
							</g>
						</g>
					</g>
					<g>
						<g>
							<g>
								<circle class="st1" cx="77.184" cy="92.001" r="1.189"/>
							</g>
						</g>
					</g>
					<g>
						<g>
							<g>
								<circle class="st1" cx="67.676" cy="92.001" r="1.189"/>
							</g>
						</g>
					</g>
					<g>
						<g>
							<g>
								<circle class="st1" cx="58.167" cy="92.001" r="1.189"/>
							</g>
						</g>
					</g>
					<g>
						<g>
							<g>
								<circle class="st1" cx="48.659" cy="92.001" r="1.189"/>
							</g>
						</g>
					</g>
					<g>
						<g>
							<g>
								<circle class="st1" cx="39.15" cy="92.001" r="1.189"/>
							</g>
						</g>
					</g>
					<g>
						<g>
							<g>
								<circle class="st1" cx="29.642" cy="92.001" r="1.189"/>
							</g>
						</g>
					</g>
					<g>
						<g>
							<g>
								<circle class="st1" cx="20.134" cy="92.001" r="1.189"/>
							</g>
						</g>
					</g>
					<g>
						<g>
							<g>
								<circle class="st1" cx="10.625" cy="92.001" r="1.189"/>
							</g>
						</g>
					</g>
				</g>
				<g>
					<g>
						<g>
							<g>
								<circle class="st1" cx="105.709" cy="82.492" r="1.189"/>
							</g>
						</g>
					</g>
					<g>
						<g>
							<g>
								<circle class="st1" cx="96.201" cy="82.492" r="1.189"/>
							</g>
						</g>
					</g>
					<g>
						<g>
							<g>
								<circle class="st1" cx="86.692" cy="82.492" r="1.189"/>
							</g>
						</g>
					</g>
					<g>
						<g>
							<g>
								<circle class="st1" cx="77.184" cy="82.492" r="1.189"/>
							</g>
						</g>
					</g>
					<g>
						<g>
							<g>
								<circle class="st1" cx="67.676" cy="82.492" r="1.189"/>
							</g>
						</g>
					</g>
					<g>
						<g>
							<g>
								<circle class="st1" cx="58.167" cy="82.492" r="1.189"/>
							</g>
						</g>
					</g>
					<g>
						<g>
							<g>
								<circle class="st1" cx="48.659" cy="82.492" r="1.189"/>
							</g>
						</g>
					</g>
					<g>
						<g>
							<g>
								<circle class="st1" cx="39.15" cy="82.492" r="1.189"/>
							</g>
						</g>
					</g>
					<g>
						<g>
							<g>
								<circle class="st1" cx="29.642" cy="82.492" r="1.189"/>
							</g>
						</g>
					</g>
					<g>
						<g>
							<g>
								<circle class="st1" cx="20.134" cy="82.492" r="1.189"/>
							</g>
						</g>
					</g>
					<g>
						<g>
							<g>
								<circle class="st1" cx="10.625" cy="82.492" r="1.189"/>
							</g>
						</g>
					</g>
				</g>
				<g>
					<g>
						<g>
							<g>
								<circle class="st1" cx="105.709" cy="72.984" r="1.189"/>
							</g>
						</g>
					</g>
					<g>
						<g>
							<g>
								<circle class="st1" cx="96.201" cy="72.984" r="1.189"/>
							</g>
						</g>
					</g>
					<g>
						<g>
							<g>
								<circle class="st1" cx="86.692" cy="72.984" r="1.189"/>
							</g>
						</g>
					</g>
					<g>
						<g>
							<g>
								<circle class="st1" cx="77.184" cy="72.984" r="1.189"/>
							</g>
						</g>
					</g>
					<g>
						<g>
							<g>
								<circle class="st1" cx="67.676" cy="72.984" r="1.189"/>
							</g>
						</g>
					</g>
					<g>
						<g>
							<g>
								<circle class="st1" cx="58.167" cy="72.984" r="1.189"/>
							</g>
						</g>
					</g>
					<g>
						<g>
							<g>
								<circle class="st1" cx="48.659" cy="72.984" r="1.189"/>
							</g>
						</g>
					</g>
					<g>
						<g>
							<g>
								<circle class="st1" cx="39.15" cy="72.984" r="1.189"/>
							</g>
						</g>
					</g>
					<g>
						<g>
							<g>
								<circle class="st1" cx="29.642" cy="72.984" r="1.189"/>
							</g>
						</g>
					</g>
					<g>
						<g>
							<g>
								<circle class="st1" cx="20.134" cy="72.984" r="1.189"/>
							</g>
						</g>
					</g>
					<g>
						<g>
							<g>
								<circle class="st1" cx="10.625" cy="72.984" r="1.189"/>
							</g>
						</g>
					</g>
				</g>
				<g>
					<g>
						<g>
							<g>
								<circle class="st1" cx="105.709" cy="63.475" r="1.189"/>
							</g>
						</g>
					</g>
					<g>
						<g>
							<g>
								<circle class="st1" cx="96.201" cy="63.475" r="1.189"/>
							</g>
						</g>
					</g>
					<g>
						<g>
							<g>
								<circle class="st1" cx="86.692" cy="63.475" r="1.189"/>
							</g>
						</g>
					</g>
					<g>
						<g>
							<g>
								<circle class="st1" cx="77.184" cy="63.475" r="1.189"/>
							</g>
						</g>
					</g>
					<g>
						<g>
							<g>
								<circle class="st1" cx="67.676" cy="63.475" r="1.189"/>
							</g>
						</g>
					</g>
					<g>
						<g>
							<g>
								<circle class="st1" cx="58.167" cy="63.475" r="1.189"/>
							</g>
						</g>
					</g>
					<g>
						<g>
							<g>
								<circle class="st1" cx="48.659" cy="63.475" r="1.189"/>
							</g>
						</g>
					</g>
					<g>
						<g>
							<g>
								<circle class="st1" cx="39.15" cy="63.475" r="1.189"/>
							</g>
						</g>
					</g>
					<g>
						<g>
							<g>
								<circle class="st1" cx="29.642" cy="63.475" r="1.189"/>
							</g>
						</g>
					</g>
					<g>
						<g>
							<g>
								<circle class="st1" cx="20.134" cy="63.475" r="1.189"/>
							</g>
						</g>
					</g>
					<g>
						<g>
							<g>
								<circle class="st1" cx="10.625" cy="63.475" r="1.189"/>
							</g>
						</g>
					</g>
				</g>
				<g>
					<g>
						<g>
							<g>
								<circle class="st1" cx="105.709" cy="53.967" r="1.189"/>
							</g>
						</g>
					</g>
					<g>
						<g>
							<g>
								<circle class="st1" cx="96.201" cy="53.967" r="1.189"/>
							</g>
						</g>
					</g>
					<g>
						<g>
							<g>
								<circle class="st1" cx="86.692" cy="53.967" r="1.189"/>
							</g>
						</g>
					</g>
					<g>
						<g>
							<g>
								<circle class="st1" cx="77.184" cy="53.967" r="1.189"/>
							</g>
						</g>
					</g>
					<g>
						<g>
							<g>
								<circle class="st1" cx="67.676" cy="53.967" r="1.189"/>
							</g>
						</g>
					</g>
					<g>
						<g>
							<g>
								<circle class="st1" cx="58.167" cy="53.967" r="1.189"/>
							</g>
						</g>
					</g>
					<g>
						<g>
							<g>
								<circle class="st1" cx="48.659" cy="53.967" r="1.189"/>
							</g>
						</g>
					</g>
					<g>
						<g>
							<g>
								<circle class="st1" cx="39.15" cy="53.967" r="1.189"/>
							</g>
						</g>
					</g>
					<g>
						<g>
							<g>
								<circle class="st1" cx="29.642" cy="53.967" r="1.189"/>
							</g>
						</g>
					</g>
					<g>
						<g>
							<g>
								<circle class="st1" cx="20.134" cy="53.967" r="1.189"/>
							</g>
						</g>
					</g>
					<g>
						<g>
							<g>
								<circle class="st1" cx="10.625" cy="53.967" r="1.189"/>
							</g>
						</g>
					</g>
				</g>
				<g>
					<g>
						<g>
							<g>
								<circle class="st1" cx="105.709" cy="44.459" r="1.189"/>
							</g>
						</g>
					</g>
					<g>
						<g>
							<g>
								<circle class="st1" cx="96.201" cy="44.459" r="1.189"/>
							</g>
						</g>
					</g>
					<g>
						<g>
							<g>
								<circle class="st1" cx="86.692" cy="44.459" r="1.189"/>
							</g>
						</g>
					</g>
					<g>
						<g>
							<g>
								<circle class="st1" cx="77.184" cy="44.459" r="1.189"/>
							</g>
						</g>
					</g>
					<g>
						<g>
							<g>
								<circle class="st1" cx="67.676" cy="44.459" r="1.189"/>
							</g>
						</g>
					</g>
					<g>
						<g>
							<g>
								<circle class="st1" cx="58.167" cy="44.459" r="1.189"/>
							</g>
						</g>
					</g>
					<g>
						<g>
							<g>
								<circle class="st1" cx="48.659" cy="44.459" r="1.189"/>
							</g>
						</g>
					</g>
					<g>
						<g>
							<g>
								<circle class="st1" cx="39.15" cy="44.459" r="1.189"/>
							</g>
						</g>
					</g>
					<g>
						<g>
							<g>
								<circle class="st1" cx="29.642" cy="44.459" r="1.189"/>
							</g>
						</g>
					</g>
					<g>
						<g>
							<g>
								<circle class="st1" cx="20.134" cy="44.459" r="1.189"/>
							</g>
						</g>
					</g>
					<g>
						<g>
							<g>
								<circle class="st1" cx="10.625" cy="44.459" r="1.189"/>
							</g>
						</g>
					</g>
				</g>
				<g>
					<g>
						<g>
							<g>
								<circle class="st1" cx="105.709" cy="34.95" r="1.189"/>
							</g>
						</g>
					</g>
					<g>
						<g>
							<g>
								<circle class="st1" cx="96.201" cy="34.95" r="1.189"/>
							</g>
						</g>
					</g>
					<g>
						<g>
							<g>
								<circle class="st1" cx="86.692" cy="34.95" r="1.189"/>
							</g>
						</g>
					</g>
					<g>
						<g>
							<g>
								<circle class="st1" cx="77.184" cy="34.95" r="1.189"/>
							</g>
						</g>
					</g>
					<g>
						<g>
							<g>
								<circle class="st1" cx="67.676" cy="34.95" r="1.189"/>
							</g>
						</g>
					</g>
					<g>
						<g>
							<g>
								<circle class="st1" cx="58.167" cy="34.95" r="1.189"/>
							</g>
						</g>
					</g>
					<g>
						<g>
							<g>
								<circle class="st1" cx="48.659" cy="34.95" r="1.189"/>
							</g>
						</g>
					</g>
					<g>
						<g>
							<g>
								<circle class="st1" cx="39.15" cy="34.95" r="1.189"/>
							</g>
						</g>
					</g>
					<g>
						<g>
							<g>
								<circle class="st1" cx="29.642" cy="34.95" r="1.189"/>
							</g>
						</g>
					</g>
					<g>
						<g>
							<g>
								<circle class="st1" cx="20.134" cy="34.95" r="1.189"/>
							</g>
						</g>
					</g>
					<g>
						<g>
							<g>
								<circle class="st1" cx="10.625" cy="34.95" r="1.189"/>
							</g>
						</g>
					</g>
				</g>
				<g>
					<g>
						<g>
							<g>
								<circle class="st1" cx="105.709" cy="25.442" r="1.189"/>
							</g>
						</g>
					</g>
					<g>
						<g>
							<g>
								<circle class="st1" cx="96.201" cy="25.442" r="1.189"/>
							</g>
						</g>
					</g>
					<g>
						<g>
							<g>
								<circle class="st1" cx="86.692" cy="25.442" r="1.189"/>
							</g>
						</g>
					</g>
					<g>
						<g>
							<g>
								<circle class="st1" cx="77.184" cy="25.442" r="1.189"/>
							</g>
						</g>
					</g>
					<g>
						<g>
							<g>
								<circle class="st1" cx="67.676" cy="25.442" r="1.189"/>
							</g>
						</g>
					</g>
					<g>
						<g>
							<g>
								<circle class="st1" cx="58.167" cy="25.442" r="1.189"/>
							</g>
						</g>
					</g>
					<g>
						<g>
							<g>
								<circle class="st1" cx="48.659" cy="25.442" r="1.189"/>
							</g>
						</g>
					</g>
					<g>
						<g>
							<g>
								<circle class="st1" cx="39.15" cy="25.442" r="1.189"/>
							</g>
						</g>
					</g>
					<g>
						<g>
							<g>
								<circle class="st1" cx="29.642" cy="25.442" r="1.189"/>
							</g>
						</g>
					</g>
					<g>
						<g>
							<g>
								<circle class="st1" cx="20.134" cy="25.442" r="1.189"/>
							</g>
						</g>
					</g>
					<g>
						<g>
							<g>
								<circle class="st1" cx="10.625" cy="25.442" r="1.189"/>
							</g>
						</g>
					</g>
				</g>
				<g>
					<g>
						<g>
							<g>
								<circle class="st1" cx="105.709" cy="15.933" r="1.189"/>
							</g>
						</g>
					</g>
					<g>
						<g>
							<g>
								<circle class="st1" cx="96.201" cy="15.933" r="1.189"/>
							</g>
						</g>
					</g>
					<g>
						<g>
							<g>
								<circle class="st1" cx="86.692" cy="15.933" r="1.189"/>
							</g>
						</g>
					</g>
					<g>
						<g>
							<g>
								<circle class="st1" cx="77.184" cy="15.933" r="1.189"/>
							</g>
						</g>
					</g>
					<g>
						<g>
							<g>
								<circle class="st1" cx="67.676" cy="15.933" r="1.189"/>
							</g>
						</g>
					</g>
					<g>
						<g>
							<g>
								<circle class="st1" cx="58.167" cy="15.933" r="1.189"/>
							</g>
						</g>
					</g>
					<g>
						<g>
							<g>
								<circle class="st1" cx="48.659" cy="15.933" r="1.189"/>
							</g>
						</g>
					</g>
					<g>
						<g>
							<g>
								<circle class="st1" cx="39.15" cy="15.933" r="1.189"/>
							</g>
						</g>
					</g>
					<g>
						<g>
							<g>
								<circle class="st1" cx="29.642" cy="15.933" r="1.189"/>
							</g>
						</g>
					</g>
					<g>
						<g>
							<g>
								<circle class="st1" cx="20.134" cy="15.933" r="1.189"/>
							</g>
						</g>
					</g>
					<g>
						<g>
							<g>
								<circle class="st1" cx="10.625" cy="15.933" r="1.189"/>
							</g>
						</g>
					</g>
				</g>
				<g>
					<g>
						<g>
							<g>
								<circle class="st1" cx="105.709" cy="6.425" r="1.189"/>
							</g>
						</g>
					</g>
					<g>
						<g>
							<g>
								<circle class="st1" cx="96.201" cy="6.425" r="1.189"/>
							</g>
						</g>
					</g>
					<g>
						<g>
							<g>
								<circle class="st1" cx="86.692" cy="6.425" r="1.189"/>
							</g>
						</g>
					</g>
					<g>
						<g>
							<g>
								<circle class="st1" cx="77.184" cy="6.425" r="1.189"/>
							</g>
						</g>
					</g>
					<g>
						<g>
							<g>
								<circle class="st1" cx="67.676" cy="6.425" r="1.189"/>
							</g>
						</g>
					</g>
					<g>
						<g>
							<g>
								<circle class="st1" cx="58.167" cy="6.425" r="1.189"/>
							</g>
						</g>
					</g>
					<g>
						<g>
							<g>
								<circle class="st1" cx="48.659" cy="6.425" r="1.189"/>
							</g>
						</g>
					</g>
					<g>
						<g>
							<g>
								<circle class="st1" cx="39.15" cy="6.425" r="1.189"/>
							</g>
						</g>
					</g>
					<g>
						<g>
							<g>
								<circle class="st1" cx="29.642" cy="6.425" r="1.189"/>
							</g>
						</g>
					</g>
					<g>
						<g>
							<g>
								<circle class="st1" cx="20.134" cy="6.425" r="1.189"/>
							</g>
						</g>
					</g>
					<g>
						<g>
							<g>
								<circle class="st1" cx="10.625" cy="6.425" r="1.189"/>
							</g>
						</g>
					</g>
				</g>
			</g>
			<g class="st0">
				<g>
					<g>
						<g>
							<g>
								<circle class="st1" cx="163.103" cy="92.001" r="1.189"/>
							</g>
						</g>
					</g>
					<g>
						<g>
							<g>
								<circle class="st1" cx="153.595" cy="92.001" r="1.189"/>
							</g>
						</g>
					</g>
					<g>
						<g>
							<g>
								<circle class="st1" cx="144.087" cy="92.001" r="1.189"/>
							</g>
						</g>
					</g>
					<g>
						<g>
							<g>
								<circle class="st1" cx="134.578" cy="92.001" r="1.189"/>
							</g>
						</g>
					</g>
					<g>
						<g>
							<g>
								<circle class="st1" cx="125.07" cy="92.001" r="1.189"/>
							</g>
						</g>
					</g>
					<g>
						<g>
							<g>
								<circle class="st1" cx="115.561" cy="92.001" r="1.189"/>
							</g>
						</g>
					</g>
				</g>
				<g>
					<g>
						<g>
							<g>
								<circle class="st1" cx="163.103" cy="82.492" r="1.189"/>
							</g>
						</g>
					</g>
					<g>
						<g>
							<g>
								<circle class="st1" cx="153.595" cy="82.492" r="1.189"/>
							</g>
						</g>
					</g>
					<g>
						<g>
							<g>
								<circle class="st1" cx="144.087" cy="82.492" r="1.189"/>
							</g>
						</g>
					</g>
					<g>
						<g>
							<g>
								<circle class="st1" cx="134.578" cy="82.492" r="1.189"/>
							</g>
						</g>
					</g>
					<g>
						<g>
							<g>
								<circle class="st1" cx="125.07" cy="82.492" r="1.189"/>
							</g>
						</g>
					</g>
					<g>
						<g>
							<g>
								<circle class="st1" cx="115.561" cy="82.492" r="1.189"/>
							</g>
						</g>
					</g>
				</g>
				<g>
					<g>
						<g>
							<g>
								<circle class="st1" cx="163.103" cy="72.984" r="1.189"/>
							</g>
						</g>
					</g>
					<g>
						<g>
							<g>
								<circle class="st1" cx="153.595" cy="72.984" r="1.189"/>
							</g>
						</g>
					</g>
					<g>
						<g>
							<g>
								<circle class="st1" cx="144.087" cy="72.984" r="1.189"/>
							</g>
						</g>
					</g>
					<g>
						<g>
							<g>
								<circle class="st1" cx="134.578" cy="72.984" r="1.189"/>
							</g>
						</g>
					</g>
					<g>
						<g>
							<g>
								<circle class="st1" cx="125.07" cy="72.984" r="1.189"/>
							</g>
						</g>
					</g>
					<g>
						<g>
							<g>
								<circle class="st1" cx="115.561" cy="72.984" r="1.189"/>
							</g>
						</g>
					</g>
				</g>
				<g>
					<g>
						<g>
							<g>
								<circle class="st1" cx="163.103" cy="63.475" r="1.189"/>
							</g>
						</g>
					</g>
					<g>
						<g>
							<g>
								<circle class="st1" cx="153.595" cy="63.475" r="1.189"/>
							</g>
						</g>
					</g>
					<g>
						<g>
							<g>
								<circle class="st1" cx="144.087" cy="63.475" r="1.189"/>
							</g>
						</g>
					</g>
					<g>
						<g>
							<g>
								<circle class="st1" cx="134.578" cy="63.475" r="1.189"/>
							</g>
						</g>
					</g>
					<g>
						<g>
							<g>
								<circle class="st1" cx="125.07" cy="63.475" r="1.189"/>
							</g>
						</g>
					</g>
					<g>
						<g>
							<g>
								<circle class="st1" cx="115.561" cy="63.475" r="1.189"/>
							</g>
						</g>
					</g>
				</g>
				<g>
					<g>
						<g>
							<g>
								<circle class="st1" cx="163.103" cy="53.967" r="1.189"/>
							</g>
						</g>
					</g>
					<g>
						<g>
							<g>
								<circle class="st1" cx="153.595" cy="53.967" r="1.189"/>
							</g>
						</g>
					</g>
					<g>
						<g>
							<g>
								<circle class="st1" cx="144.087" cy="53.967" r="1.189"/>
							</g>
						</g>
					</g>
					<g>
						<g>
							<g>
								<circle class="st1" cx="134.578" cy="53.967" r="1.189"/>
							</g>
						</g>
					</g>
					<g>
						<g>
							<g>
								<circle class="st1" cx="125.07" cy="53.967" r="1.189"/>
							</g>
						</g>
					</g>
					<g>
						<g>
							<g>
								<circle class="st1" cx="115.561" cy="53.967" r="1.189"/>
							</g>
						</g>
					</g>
				</g>
				<g>
					<g>
						<g>
							<g>
								<circle class="st1" cx="163.103" cy="44.459" r="1.189"/>
							</g>
						</g>
					</g>
					<g>
						<g>
							<g>
								<circle class="st1" cx="153.595" cy="44.459" r="1.189"/>
							</g>
						</g>
					</g>
					<g>
						<g>
							<g>
								<circle class="st1" cx="144.087" cy="44.459" r="1.189"/>
							</g>
						</g>
					</g>
					<g>
						<g>
							<g>
								<circle class="st1" cx="134.578" cy="44.459" r="1.189"/>
							</g>
						</g>
					</g>
					<g>
						<g>
							<g>
								<circle class="st1" cx="125.07" cy="44.459" r="1.189"/>
							</g>
						</g>
					</g>
					<g>
						<g>
							<g>
								<circle class="st1" cx="115.561" cy="44.459" r="1.189"/>
							</g>
						</g>
					</g>
				</g>
				<g>
					<g>
						<g>
							<g>
								<circle class="st1" cx="163.103" cy="34.95" r="1.189"/>
							</g>
						</g>
					</g>
					<g>
						<g>
							<g>
								<circle class="st1" cx="153.595" cy="34.95" r="1.189"/>
							</g>
						</g>
					</g>
					<g>
						<g>
							<g>
								<circle class="st1" cx="144.087" cy="34.95" r="1.189"/>
							</g>
						</g>
					</g>
					<g>
						<g>
							<g>
								<circle class="st1" cx="134.578" cy="34.95" r="1.189"/>
							</g>
						</g>
					</g>
					<g>
						<g>
							<g>
								<circle class="st1" cx="125.07" cy="34.95" r="1.189"/>
							</g>
						</g>
					</g>
					<g>
						<g>
							<g>
								<circle class="st1" cx="115.561" cy="34.95" r="1.189"/>
							</g>
						</g>
					</g>
				</g>
				<g>
					<g>
						<g>
							<g>
								<circle class="st1" cx="163.103" cy="25.442" r="1.189"/>
							</g>
						</g>
					</g>
					<g>
						<g>
							<g>
								<circle class="st1" cx="153.595" cy="25.442" r="1.189"/>
							</g>
						</g>
					</g>
					<g>
						<g>
							<g>
								<circle class="st1" cx="144.087" cy="25.442" r="1.189"/>
							</g>
						</g>
					</g>
					<g>
						<g>
							<g>
								<circle class="st1" cx="134.578" cy="25.442" r="1.189"/>
							</g>
						</g>
					</g>
					<g>
						<g>
							<g>
								<circle class="st1" cx="125.07" cy="25.442" r="1.189"/>
							</g>
						</g>
					</g>
					<g>
						<g>
							<g>
								<circle class="st1" cx="115.561" cy="25.442" r="1.189"/>
							</g>
						</g>
					</g>
				</g>
				<g>
					<g>
						<g>
							<g>
								<circle class="st1" cx="163.103" cy="15.933" r="1.189"/>
							</g>
						</g>
					</g>
					<g>
						<g>
							<g>
								<circle class="st1" cx="153.595" cy="15.933" r="1.189"/>
							</g>
						</g>
					</g>
					<g>
						<g>
							<g>
								<circle class="st1" cx="144.087" cy="15.933" r="1.189"/>
							</g>
						</g>
					</g>
					<g>
						<g>
							<g>
								<circle class="st1" cx="134.578" cy="15.933" r="1.189"/>
							</g>
						</g>
					</g>
					<g>
						<g>
							<g>
								<circle class="st1" cx="125.07" cy="15.933" r="1.189"/>
							</g>
						</g>
					</g>
					<g>
						<g>
							<g>
								<circle class="st1" cx="115.561" cy="15.933" r="1.189"/>
							</g>
						</g>
					</g>
				</g>
				<g>
					<g>
						<g>
							<g>
								<circle class="st1" cx="163.103" cy="6.425" r="1.189"/>
							</g>
						</g>
					</g>
					<g>
						<g>
							<g>
								<circle class="st1" cx="153.595" cy="6.425" r="1.189"/>
							</g>
						</g>
					</g>
					<g>
						<g>
							<g>
								<circle class="st1" cx="144.087" cy="6.425" r="1.189"/>
							</g>
						</g>
					</g>
					<g>
						<g>
							<g>
								<circle class="st1" cx="134.578" cy="6.425" r="1.189"/>
							</g>
						</g>
					</g>
					<g>
						<g>
							<g>
								<circle class="st1" cx="125.07" cy="6.425" r="1.189"/>
							</g>
						</g>
					</g>
					<g>
						<g>
							<g>
								<circle class="st1" cx="115.561" cy="6.425" r="1.189"/>
							</g>
						</g>
					</g>
				</g>
			</g>
		</g>
		<g>
			<g>
				<path class="st2" d="M157.729,29.209c0.34,1.873-0.293,3.63-1.478,4.828c-0.97,0.98-2.3,1.587-3.78,1.587h-35.065
					c-2.289,0-4.145,1.875-4.145,4.189v0c0,2.313,1.856,4.189,4.145,4.189l25.301,0c3.066,0,5.726,2.538,5.599,5.634
					c-0.058,1.404-0.645,2.662-1.565,3.592c-0.97,0.98-3.022,2.042-4.492,2.042L94.74,55.025l-7.023-30.212l64.569-0.002
					C154.894,24.811,157.258,26.617,157.729,29.209z"/>
			</g>
		</g>
		<g>
			<g>
				<path class="st2" d="M75.787,71.933l0.105,9.767c0.057,5.254-4.197,9.537-9.452,9.517l-14.254-0.055l-19.69-0.42
					c-1.32,0-2.5-0.53-3.37-1.39c-0.86-0.87-1.39-2.05-1.39-3.37c0-1.31,0.53-2.5,1.39-3.36c0.87-0.86,2.05-1.39,3.37-1.39
					c1.31,0,2.5-0.53,3.36-1.39s1.39-2.06,1.39-3.37c0-2.13-1.41-3.93-3.34-4.54h-19.85c-0.47,0-0.94-0.07-1.37-0.21
					c-1.9-0.58-3.34-2.33-3.26-4.39c0.04-1.15,0.53-2.18,1.29-2.94c0.8-0.8,1.9-1.3,3.12-1.3l38.131,0
					C54.67,63.093,75.787,71.933,75.787,71.933z"/>
			</g>
		</g>
		<g>
			<g>
				<path class="st3" d="M57.75,82.492h62.64c7.877,0,14.263-6.386,14.263-14.263v0c0-7.877-6.386-14.263-14.263-14.263h-5.098
					v-0.843c0-4.814-3.851-8.743-8.663-8.84l-0.845-0.017v-8.809c0-10.503-8.514-19.017-19.017-19.017h0
					c-10.503,0-19.017,8.514-19.017,19.017v9h-10c-10.503,0-19.017,8.514-19.017,19.017v0C38.733,73.978,47.247,82.492,57.75,82.492
					z"/>
			</g>
			<g>
				<path class="st4" d="M120.39,82.993H57.75c-10.762,0-19.517-8.755-19.517-19.517s8.755-19.517,19.517-19.517h9.5v-8.5
					c0-10.762,8.755-19.517,19.517-19.517s19.517,8.755,19.517,19.517v8.319l0.354,0.007c5.048,0.102,9.154,4.291,9.154,9.339v0.344
					h4.598c8.141,0,14.763,6.622,14.763,14.763S128.53,82.993,120.39,82.993z M57.75,44.959c-10.21,0-18.517,8.306-18.517,18.516
					c0,10.211,8.307,18.518,18.517,18.518h62.64c7.589,0,13.763-6.174,13.763-13.763s-6.174-13.763-13.763-13.763h-5.598v-1.344
					c0-4.508-3.667-8.249-8.174-8.339l-1.335-0.027v-9.298c0-10.21-8.307-18.517-18.517-18.517c-10.21,0-18.517,8.307-18.517,18.517
					v9.5H57.75z"/>
			</g>
		</g>
		<g>
			<g>
				<circle class="st5" cx="85.504" cy="32.866" r="9.508"/>
			</g>
			<g>
				<path class="st4" d="M85.503,42.625c-5.381,0-9.758-4.378-9.758-9.759s4.377-9.758,9.758-9.758c5.38,0,9.758,4.377,9.758,9.758
					S90.884,42.625,85.503,42.625z M85.503,23.608c-5.105,0-9.258,4.153-9.258,9.258c0,5.105,4.153,9.259,9.258,9.259
					s9.258-4.153,9.258-9.259C94.762,27.761,90.608,23.608,85.503,23.608z"/>
			</g>
		</g>
		<g>
			<g>
				<circle class="st6" cx="119.4" cy="70.541" r="6.858"/>
			</g>
			<g>
				<path class="st4" d="M119.4,77.649c-3.92,0-7.108-3.188-7.108-7.107c0-3.92,3.188-7.108,7.108-7.108s7.108,3.188,7.108,7.108
					C126.509,74.46,123.32,77.649,119.4,77.649z M119.4,63.933c-3.644,0-6.608,2.965-6.608,6.608s2.965,6.607,6.608,6.607
					s6.608-2.964,6.608-6.607S123.044,63.933,119.4,63.933z"/>
			</g>
		</g>
		<g>
			<g>
				<path class="st3" d="M89.818,35.903h-8.294c-0.154,0-0.278-0.125-0.278-0.278v-5.529c0-0.154,0.125-0.278,0.278-0.278h8.294
					c0.154,0,0.278,0.125,0.278,0.278v5.529C90.097,35.778,89.972,35.903,89.818,35.903z"/>
			</g>
			<g>
				<path class="st4" d="M89.818,36.153h-8.294c-0.291,0-0.528-0.237-0.528-0.528v-5.529c0-0.292,0.237-0.528,0.528-0.528h8.294
					c0.291,0,0.528,0.237,0.528,0.528v5.529C90.347,35.916,90.109,36.153,89.818,36.153z M81.524,30.067l-0.028,5.558l8.322,0.028
					c0.016,0,0.028-0.013,0.028-0.028v-5.529L81.524,30.067z"/>
			</g>
		</g>
		<g>
			<g>
				<path class="st4" d="M85.671,33.837c-0.138,0-0.277-0.047-0.392-0.142l-4.191-3.434l0.317-0.387l4.191,3.434
					c0.047,0.04,0.104,0.039,0.151,0l4.191-3.434l0.316,0.387l-4.191,3.434C85.948,33.79,85.81,33.837,85.671,33.837z"/>
			</g>
		</g>
		<g>
			<g>
				<path class="st7" d="M8.195,16.931"/>
			</g>
		</g>
		<g>
			<g>
				<path class="st7" d="M8.24,19.317"/>
			</g>
		</g>
		<g>
			<g>
				<path class="st3" d="M123.449,68.799v5.006c0,0.252-0.264,0.417-0.491,0.307l-2.657-1.296h-4.055
					c-0.494,0-0.895-0.401-0.895-0.895v-3.122c0-0.496,0.405-0.901,0.901-0.901h6.295C123.043,67.898,123.449,68.304,123.449,68.799
					z"/>
			</g>
			<g>
				<path class="st4" d="M123.107,74.398c-0.088,0-0.177-0.021-0.259-0.061l-2.604-1.271h-3.998c-0.631,0-1.145-0.514-1.145-1.145
					v-3.122c0-0.635,0.517-1.151,1.151-1.151h6.295c0.635,0,1.151,0.517,1.151,1.151v5.006c0,0.205-0.104,0.394-0.278,0.502
					C123.325,74.368,123.217,74.398,123.107,74.398z M116.253,68.148c-0.359,0-0.651,0.292-0.651,0.651v3.122
					c0,0.355,0.289,0.645,0.645,0.645l4.165,0.025l2.656,1.297c0.041,0.02,0.072,0.006,0.089-0.005
					c0.016-0.01,0.043-0.034,0.043-0.078v-5.006c0-0.359-0.292-0.651-0.651-0.651H116.253z"/>
			</g>
		</g>
		<g>
			<g>
				<circle class="st5" cx="100.633" cy="57.755" r="9.508"/>
			</g>
			<g>
				<path class="st4" d="M100.634,67.513c-5.381,0-9.759-4.378-9.759-9.759s4.378-9.758,9.759-9.758s9.758,4.377,9.758,9.758
					S106.015,67.513,100.634,67.513z M100.634,48.496c-5.105,0-9.259,4.153-9.259,9.258s4.153,9.259,9.259,9.259
					c5.104,0,9.258-4.153,9.258-9.259S105.738,48.496,100.634,48.496z"/>
			</g>
		</g>
		<g>
			<g>
				<polygon class="st4" points="98.438,61.09 98.438,55.957 98.938,55.957 98.938,60.487 105.494,59.253 105.586,59.745 				"/>
			</g>
		</g>
		<g>
			<g>
				<circle class="st3" cx="98.688" cy="54.213" r="1.745"/>
			</g>
			<g>
				<path class="st4" d="M98.688,56.207c-1.1,0-1.994-0.895-1.994-1.994c0-1.101,0.895-1.995,1.994-1.995
					c1.101,0,1.995,0.895,1.995,1.995C100.683,55.313,99.788,56.207,98.688,56.207z M98.688,52.718
					c-0.824,0-1.494,0.671-1.494,1.495s0.67,1.494,1.494,1.494s1.495-0.67,1.495-1.494S99.512,52.718,98.688,52.718z"/>
			</g>
		</g>
		<g>
			<g>
				<circle class="st3" cx="98.688" cy="60.788" r="1.745"/>
			</g>
			<g>
				<path class="st4" d="M98.688,62.783c-1.1,0-1.994-0.895-1.994-1.994c0-1.101,0.895-1.995,1.994-1.995
					c1.101,0,1.995,0.895,1.995,1.995C100.683,61.888,99.788,62.783,98.688,62.783z M98.688,59.293
					c-0.824,0-1.494,0.671-1.494,1.495s0.67,1.494,1.494,1.494s1.495-0.67,1.495-1.494S99.512,59.293,98.688,59.293z"/>
			</g>
		</g>
		<g>
			<g>
				<circle class="st3" cx="104.908" cy="59.499" r="1.745"/>
			</g>
			<g>
				<path class="st4" d="M104.907,61.494c-1.1,0-1.994-0.895-1.994-1.994c0-1.101,0.895-1.995,1.994-1.995
					c1.101,0,1.995,0.895,1.995,1.995C106.902,60.599,106.008,61.494,104.907,61.494z M104.907,58.004
					c-0.824,0-1.494,0.671-1.494,1.495s0.67,1.494,1.494,1.494s1.495-0.67,1.495-1.494S105.731,58.004,104.907,58.004z"/>
			</g>
		</g>
		<g>
			<g>
				<circle class="st5" cx="84.253" cy="70.981" r="6.858"/>
			</g>
			<g>
				<path class="st4" d="M84.253,78.089c-3.919,0-7.108-3.188-7.108-7.108c0-3.919,3.188-7.107,7.108-7.107
					c3.92,0,7.108,3.188,7.108,7.107C91.361,74.901,88.173,78.089,84.253,78.089z M84.253,64.373c-3.644,0-6.608,2.964-6.608,6.607
					s2.964,6.608,6.608,6.608s6.608-2.965,6.608-6.608S87.896,64.373,84.253,64.373z"/>
			</g>
		</g>
		<g>
			<g>
				<circle class="st6" cx="56.034" cy="65.781" r="9.453"/>
			</g>
			<g>
				<path class="st4" d="M56.034,75.484c-5.35,0-9.703-4.353-9.703-9.703c0-5.35,4.353-9.702,9.703-9.702s9.703,4.353,9.703,9.702
					C65.736,71.131,61.384,75.484,56.034,75.484z M56.034,56.578c-5.074,0-9.203,4.128-9.203,9.202s4.128,9.203,9.203,9.203
					s9.203-4.129,9.203-9.203S61.108,56.578,56.034,56.578z"/>
			</g>
		</g>
		<g>
			<g>
				<circle class="st3" cx="57.944" cy="68.145" r="1.485"/>
			</g>
			<g>
				<path class="st4" d="M57.944,69.879c-0.957,0-1.735-0.778-1.735-1.734s0.778-1.734,1.735-1.734s1.734,0.778,1.734,1.734
					S58.901,69.879,57.944,69.879z M57.944,66.911c-0.681,0-1.235,0.554-1.235,1.234s0.554,1.234,1.235,1.234
					c0.681,0,1.234-0.554,1.234-1.234S58.625,66.911,57.944,66.911z"/>
			</g>
		</g>
		<g>
			<g>
				<polygon class="st4" points="59.679,68.454 59.179,68.454 59.179,61.81 54.237,61.81 54.237,68.145 53.737,68.145 53.737,61.31 
					59.679,61.31 				"/>
			</g>
		</g>
		<g>
			<g>
				<circle class="st3" cx="52.503" cy="68.145" r="1.485"/>
			</g>
			<g>
				<path class="st4" d="M52.503,69.879c-0.957,0-1.735-0.778-1.735-1.734s0.778-1.734,1.735-1.734s1.734,0.778,1.734,1.734
					S53.459,69.879,52.503,69.879z M52.503,66.911c-0.681,0-1.235,0.554-1.235,1.234s0.554,1.234,1.235,1.234
					c0.681,0,1.234-0.554,1.234-1.234S53.184,66.911,52.503,66.911z"/>
			</g>
		</g>
		<g>
			<g>
				<path class="st3" d="M87.458,70.511c0,1.205-1.486,3.612-2.435,5.024c-0.369,0.55-1.171,0.55-1.54,0
					c-0.948-1.413-2.435-3.819-2.435-5.024c0-1.77,1.435-3.205,3.205-3.205C86.023,67.307,87.458,68.742,87.458,70.511z"/>
			</g>
			<g>
				<path class="st4" d="M84.253,76.198c-0.392,0-0.758-0.195-0.978-0.522c-1.13-1.683-2.477-3.945-2.477-5.164
					c0-1.904,1.55-3.454,3.455-3.454c1.905,0,3.455,1.55,3.455,3.454c0,1.219-1.347,3.481-2.477,5.164
					C85.011,76.002,84.646,76.198,84.253,76.198z M84.253,67.557c-1.629,0-2.955,1.325-2.955,2.954c0,0.841,0.872,2.621,2.392,4.885
					c0.258,0.385,0.867,0.384,1.125,0c1.52-2.264,2.392-4.044,2.392-4.885C87.208,68.882,85.882,67.557,84.253,67.557z"/>
			</g>
		</g>
		<g>
			<g>
				<path class="st4" d="M84.253,71.877c-0.737,0-1.336-0.6-1.336-1.336c0-0.737,0.6-1.337,1.336-1.337
					c0.737,0,1.337,0.6,1.337,1.337C85.59,71.278,84.99,71.877,84.253,71.877z M84.253,69.704c-0.461,0-0.836,0.375-0.836,0.837
					c0,0.461,0.375,0.836,0.836,0.836s0.837-0.375,0.837-0.836C85.09,70.079,84.714,69.704,84.253,69.704z"/>
			</g>
		</g>
		<g>
			<g>
				<circle class="st2" cx="75.893" cy="52.778" r="6.858"/>
			</g>
			<g>
				<path class="st4" d="M75.893,59.886c-3.919,0-7.108-3.188-7.108-7.107c0-3.919,3.188-7.108,7.108-7.108s7.108,3.189,7.108,7.108
					C83.001,56.698,79.812,59.886,75.893,59.886z M75.893,46.17c-3.644,0-6.608,2.964-6.608,6.608c0,3.644,2.964,6.607,6.608,6.607
					s6.608-2.964,6.608-6.607C82.501,49.135,79.537,46.17,75.893,46.17z"/>
			</g>
		</g>
		<g>
			<g>
				<path class="st3" d="M80.044,50.981v5.006c0,0.252-0.264,0.417-0.491,0.307l-2.657-1.296h-4.055
					c-0.494,0-0.895-0.401-0.895-0.895v-3.122c0-0.496,0.405-0.901,0.901-0.901h6.295C79.639,50.08,80.044,50.485,80.044,50.981z"/>
			</g>
			<g>
				<path class="st4" d="M79.703,56.578c-0.088,0-0.177-0.021-0.26-0.061l-2.604-1.271h-3.997c-0.631,0-1.145-0.514-1.145-1.145
					v-3.122c0-0.635,0.517-1.151,1.151-1.151h6.295c0.635,0,1.151,0.517,1.151,1.151v5.006c0,0.206-0.104,0.394-0.279,0.502
					C79.919,56.548,79.812,56.578,79.703,56.578z M72.848,50.329c-0.359,0-0.651,0.292-0.651,0.651v3.122
					c0,0.355,0.29,0.645,0.645,0.645l4.164,0.025l2.657,1.296c0.04,0.019,0.072,0.006,0.088-0.004
					c0.016-0.011,0.043-0.034,0.043-0.078v-5.006c0-0.359-0.292-0.651-0.651-0.651H72.848z"/>
			</g>
		</g>
	</g>
</g>
</svg>
