<?xml version="1.0" encoding="utf-8"?>
<!-- Generator: Adobe Illustrator 21.1.0, SVG Export Plug-In . SVG Version: 6.00 Build 0)  -->
<svg version="1.1" id="Layer_4" xmlns="http://www.w3.org/2000/svg" xmlns:xlink="http://www.w3.org/1999/xlink" x="0px" y="0px"
	 viewBox="0 0 105 100" style="enable-background:new 0 0 105 100;" xml:space="preserve">
<style type="text/css">
	.st0{opacity:0.31;}
	.st1{fill:#C4DFE5;}
	.st2{fill:#D7EFF2;}
	.st3{fill:#FDEAE4;}
	.st4{fill:#E4CDB6;}
	.st5{fill:#6B768E;}
	.st6{fill:#FFFFFF;}
</style>
<g>
	<g class="st0">
		<g>
			<g>
				<g>
					<circle class="st1" cx="95.323" cy="92.328" r="1.189"/>
				</g>
			</g>
			<g>
				<g>
					<circle class="st1" cx="85.815" cy="92.328" r="1.189"/>
				</g>
			</g>
			<g>
				<g>
					<circle class="st1" cx="76.306" cy="92.328" r="1.189"/>
				</g>
			</g>
			<g>
				<g>
					<circle class="st1" cx="66.798" cy="92.328" r="1.189"/>
				</g>
			</g>
			<g>
				<g>
					<circle class="st1" cx="57.29" cy="92.328" r="1.189"/>
				</g>
			</g>
			<g>
				<g>
					<circle class="st1" cx="47.781" cy="92.328" r="1.189"/>
				</g>
			</g>
			<g>
				<g>
					<circle class="st1" cx="38.273" cy="92.328" r="1.189"/>
				</g>
			</g>
			<g>
				<g>
					<circle class="st1" cx="28.764" cy="92.328" r="1.189"/>
				</g>
			</g>
			<g>
				<g>
					<circle class="st1" cx="19.256" cy="92.328" r="1.189"/>
				</g>
			</g>
			<g>
				<g>
					<circle class="st1" cx="9.748" cy="92.328" r="1.189"/>
				</g>
			</g>
		</g>
		<g>
			<g>
				<g>
					<circle class="st1" cx="95.323" cy="82.819" r="1.189"/>
				</g>
			</g>
			<g>
				<g>
					<circle class="st1" cx="85.815" cy="82.819" r="1.189"/>
				</g>
			</g>
			<g>
				<g>
					<circle class="st1" cx="76.306" cy="82.819" r="1.189"/>
				</g>
			</g>
			<g>
				<g>
					<circle class="st1" cx="66.798" cy="82.819" r="1.189"/>
				</g>
			</g>
			<g>
				<g>
					<circle class="st1" cx="57.29" cy="82.819" r="1.189"/>
				</g>
			</g>
			<g>
				<g>
					<circle class="st1" cx="47.781" cy="82.819" r="1.189"/>
				</g>
			</g>
			<g>
				<g>
					<circle class="st1" cx="38.273" cy="82.819" r="1.189"/>
				</g>
			</g>
			<g>
				<g>
					<circle class="st1" cx="28.764" cy="82.819" r="1.189"/>
				</g>
			</g>
			<g>
				<g>
					<circle class="st1" cx="19.256" cy="82.819" r="1.189"/>
				</g>
			</g>
			<g>
				<g>
					<circle class="st1" cx="9.748" cy="82.819" r="1.189"/>
				</g>
			</g>
		</g>
		<g>
			<g>
				<g>
					<circle class="st1" cx="95.323" cy="73.311" r="1.189"/>
				</g>
			</g>
			<g>
				<g>
					<circle class="st1" cx="85.815" cy="73.311" r="1.189"/>
				</g>
			</g>
			<g>
				<g>
					<circle class="st1" cx="76.306" cy="73.311" r="1.189"/>
				</g>
			</g>
			<g>
				<g>
					<circle class="st1" cx="66.798" cy="73.311" r="1.189"/>
				</g>
			</g>
			<g>
				<g>
					<circle class="st1" cx="57.29" cy="73.311" r="1.189"/>
				</g>
			</g>
			<g>
				<g>
					<circle class="st1" cx="47.781" cy="73.311" r="1.189"/>
				</g>
			</g>
			<g>
				<g>
					<circle class="st1" cx="38.273" cy="73.311" r="1.189"/>
				</g>
			</g>
			<g>
				<g>
					<circle class="st1" cx="28.764" cy="73.311" r="1.189"/>
				</g>
			</g>
			<g>
				<g>
					<circle class="st1" cx="19.256" cy="73.311" r="1.189"/>
				</g>
			</g>
			<g>
				<g>
					<circle class="st1" cx="9.748" cy="73.311" r="1.189"/>
				</g>
			</g>
		</g>
		<g>
			<g>
				<g>
					<circle class="st1" cx="95.323" cy="63.803" r="1.189"/>
				</g>
			</g>
			<g>
				<g>
					<circle class="st1" cx="85.815" cy="63.803" r="1.189"/>
				</g>
			</g>
			<g>
				<g>
					<circle class="st1" cx="76.306" cy="63.803" r="1.189"/>
				</g>
			</g>
			<g>
				<g>
					<circle class="st1" cx="66.798" cy="63.803" r="1.189"/>
				</g>
			</g>
			<g>
				<g>
					<circle class="st1" cx="57.29" cy="63.803" r="1.189"/>
				</g>
			</g>
			<g>
				<g>
					<circle class="st1" cx="47.781" cy="63.803" r="1.189"/>
				</g>
			</g>
			<g>
				<g>
					<circle class="st1" cx="38.273" cy="63.803" r="1.189"/>
				</g>
			</g>
			<g>
				<g>
					<circle class="st1" cx="28.764" cy="63.803" r="1.189"/>
				</g>
			</g>
			<g>
				<g>
					<circle class="st1" cx="19.256" cy="63.803" r="1.189"/>
				</g>
			</g>
			<g>
				<g>
					<circle class="st1" cx="9.748" cy="63.803" r="1.189"/>
				</g>
			</g>
		</g>
		<g>
			<g>
				<g>
					<circle class="st1" cx="95.323" cy="54.294" r="1.189"/>
				</g>
			</g>
			<g>
				<g>
					<circle class="st1" cx="85.815" cy="54.294" r="1.189"/>
				</g>
			</g>
			<g>
				<g>
					<circle class="st1" cx="76.306" cy="54.294" r="1.189"/>
				</g>
			</g>
			<g>
				<g>
					<circle class="st1" cx="66.798" cy="54.294" r="1.189"/>
				</g>
			</g>
			<g>
				<g>
					<circle class="st1" cx="57.29" cy="54.294" r="1.189"/>
				</g>
			</g>
			<g>
				<g>
					<circle class="st1" cx="47.781" cy="54.294" r="1.189"/>
				</g>
			</g>
			<g>
				<g>
					<circle class="st1" cx="38.273" cy="54.294" r="1.189"/>
				</g>
			</g>
			<g>
				<g>
					<circle class="st1" cx="28.764" cy="54.294" r="1.189"/>
				</g>
			</g>
			<g>
				<g>
					<circle class="st1" cx="19.256" cy="54.294" r="1.189"/>
				</g>
			</g>
			<g>
				<g>
					<circle class="st1" cx="9.748" cy="54.294" r="1.189"/>
				</g>
			</g>
		</g>
		<g>
			<g>
				<g>
					<circle class="st1" cx="95.323" cy="44.786" r="1.189"/>
				</g>
			</g>
			<g>
				<g>
					<circle class="st1" cx="85.815" cy="44.786" r="1.189"/>
				</g>
			</g>
			<g>
				<g>
					<circle class="st1" cx="76.306" cy="44.786" r="1.189"/>
				</g>
			</g>
			<g>
				<g>
					<circle class="st1" cx="66.798" cy="44.786" r="1.189"/>
				</g>
			</g>
			<g>
				<g>
					<circle class="st1" cx="57.29" cy="44.786" r="1.189"/>
				</g>
			</g>
			<g>
				<g>
					<circle class="st1" cx="47.781" cy="44.786" r="1.189"/>
				</g>
			</g>
			<g>
				<g>
					<circle class="st1" cx="38.273" cy="44.786" r="1.189"/>
				</g>
			</g>
			<g>
				<g>
					<circle class="st1" cx="28.764" cy="44.786" r="1.189"/>
				</g>
			</g>
			<g>
				<g>
					<circle class="st1" cx="19.256" cy="44.786" r="1.189"/>
				</g>
			</g>
			<g>
				<g>
					<circle class="st1" cx="9.748" cy="44.786" r="1.189"/>
				</g>
			</g>
		</g>
		<g>
			<g>
				<g>
					<circle class="st1" cx="95.323" cy="35.277" r="1.189"/>
				</g>
			</g>
			<g>
				<g>
					<circle class="st1" cx="85.815" cy="35.277" r="1.189"/>
				</g>
			</g>
			<g>
				<g>
					<circle class="st1" cx="76.306" cy="35.277" r="1.189"/>
				</g>
			</g>
			<g>
				<g>
					<circle class="st1" cx="66.798" cy="35.277" r="1.189"/>
				</g>
			</g>
			<g>
				<g>
					<circle class="st1" cx="57.29" cy="35.277" r="1.189"/>
				</g>
			</g>
			<g>
				<g>
					<circle class="st1" cx="47.781" cy="35.277" r="1.189"/>
				</g>
			</g>
			<g>
				<g>
					<circle class="st1" cx="38.273" cy="35.277" r="1.189"/>
				</g>
			</g>
			<g>
				<g>
					<circle class="st1" cx="28.764" cy="35.277" r="1.189"/>
				</g>
			</g>
			<g>
				<g>
					<circle class="st1" cx="19.256" cy="35.277" r="1.189"/>
				</g>
			</g>
			<g>
				<g>
					<circle class="st1" cx="9.748" cy="35.277" r="1.189"/>
				</g>
			</g>
		</g>
		<g>
			<g>
				<g>
					<circle class="st1" cx="95.323" cy="25.769" r="1.189"/>
				</g>
			</g>
			<g>
				<g>
					<circle class="st1" cx="85.815" cy="25.769" r="1.189"/>
				</g>
			</g>
			<g>
				<g>
					<circle class="st1" cx="76.306" cy="25.769" r="1.189"/>
				</g>
			</g>
			<g>
				<g>
					<circle class="st1" cx="66.798" cy="25.769" r="1.189"/>
				</g>
			</g>
			<g>
				<g>
					<circle class="st1" cx="57.29" cy="25.769" r="1.189"/>
				</g>
			</g>
			<g>
				<g>
					<circle class="st1" cx="47.781" cy="25.769" r="1.189"/>
				</g>
			</g>
			<g>
				<g>
					<circle class="st1" cx="38.273" cy="25.769" r="1.189"/>
				</g>
			</g>
			<g>
				<g>
					<circle class="st1" cx="28.764" cy="25.769" r="1.189"/>
				</g>
			</g>
			<g>
				<g>
					<circle class="st1" cx="19.256" cy="25.769" r="1.189"/>
				</g>
			</g>
			<g>
				<g>
					<circle class="st1" cx="9.748" cy="25.769" r="1.189"/>
				</g>
			</g>
		</g>
		<g>
			<g>
				<g>
					<circle class="st1" cx="95.323" cy="16.261" r="1.189"/>
				</g>
			</g>
			<g>
				<g>
					<circle class="st1" cx="85.815" cy="16.261" r="1.189"/>
				</g>
			</g>
			<g>
				<g>
					<circle class="st1" cx="76.306" cy="16.261" r="1.189"/>
				</g>
			</g>
			<g>
				<g>
					<circle class="st1" cx="66.798" cy="16.261" r="1.189"/>
				</g>
			</g>
			<g>
				<g>
					<circle class="st1" cx="57.29" cy="16.261" r="1.189"/>
				</g>
			</g>
			<g>
				<g>
					<circle class="st1" cx="47.781" cy="16.261" r="1.189"/>
				</g>
			</g>
			<g>
				<g>
					<circle class="st1" cx="38.273" cy="16.261" r="1.189"/>
				</g>
			</g>
			<g>
				<g>
					<circle class="st1" cx="28.764" cy="16.261" r="1.189"/>
				</g>
			</g>
			<g>
				<g>
					<circle class="st1" cx="19.256" cy="16.261" r="1.189"/>
				</g>
			</g>
			<g>
				<g>
					<circle class="st1" cx="9.748" cy="16.261" r="1.189"/>
				</g>
			</g>
		</g>
		<g>
			<g>
				<g>
					<circle class="st1" cx="95.323" cy="6.752" r="1.189"/>
				</g>
			</g>
			<g>
				<g>
					<circle class="st1" cx="85.815" cy="6.752" r="1.189"/>
				</g>
			</g>
			<g>
				<g>
					<circle class="st1" cx="76.306" cy="6.752" r="1.189"/>
				</g>
			</g>
			<g>
				<g>
					<circle class="st1" cx="66.798" cy="6.752" r="1.189"/>
				</g>
			</g>
			<g>
				<g>
					<circle class="st1" cx="57.29" cy="6.752" r="1.189"/>
				</g>
			</g>
			<g>
				<g>
					<circle class="st1" cx="47.781" cy="6.752" r="1.189"/>
				</g>
			</g>
			<g>
				<g>
					<circle class="st1" cx="38.273" cy="6.752" r="1.189"/>
				</g>
			</g>
			<g>
				<g>
					<circle class="st1" cx="28.764" cy="6.752" r="1.189"/>
				</g>
			</g>
			<g>
				<g>
					<circle class="st1" cx="19.256" cy="6.752" r="1.189"/>
				</g>
			</g>
			<g>
				<g>
					<circle class="st1" cx="9.748" cy="6.752" r="1.189"/>
				</g>
			</g>
		</g>
	</g>
</g>
<g>
	<path class="st2" d="M28.764,21.015L28.764,21.015c0,2.626,2.129,4.754,4.754,4.754h9.508c2.626,0,4.754,2.129,4.754,4.754v0
		c0,2.626-2.129,4.754-4.754,4.754H24.01c-2.626,0-4.754,2.129-4.754,4.754v0c0,2.626,2.129,4.754,4.754,4.754h47.542
		c2.626,0,4.754-2.129,4.754-4.754v0c0-2.626-2.129-4.754-4.754-4.754h-9.508c-2.626,0-4.754-2.129-4.754-4.754v0
		c0-2.626,2.129-4.754,4.754-4.754h19.017c2.626,0,4.754-2.129,4.754-4.754v0c0-2.626-2.129-4.754-4.754-4.754H33.519
		C30.893,16.261,28.764,18.389,28.764,21.015z"/>
</g>
<g>
	<path class="st2" d="M81.061,82.819H24.01c-2.626,0-4.754-2.129-4.754-4.754v0c0-2.626,2.129-4.754,4.754-4.754h0
		c2.626,0,4.754-2.129,4.754-4.754v0c0-2.626-2.129-4.754-4.754-4.754h0c-2.626,0-4.754-2.129-4.754-4.754v0
		c0-2.626,2.129-4.754,4.754-4.754h28.525c2.626,0,4.754,2.129,4.754,4.754v0c0,2.626-2.129,4.754-4.754,4.754h-3.054
		c-2.626,0-4.754,2.129-4.754,4.754v0c0,2.626,2.129,4.754,4.754,4.754h31.58c2.626,0,4.754,2.129,4.754,4.754v0
		C85.815,80.691,83.686,82.819,81.061,82.819z"/>
</g>
<g>
	<circle class="st3" cx="52.535" cy="48.534" r="12.374"/>
</g>
<g>
	<circle class="st4" cx="52.46" cy="48.494" r="5.867"/>
</g>
<g>
	<path class="st5" d="M52.715,51.248c-0.655,0-1.282-0.229-1.788-0.657c-0.566-0.479-0.912-1.15-0.973-1.889
		c-0.012-0.137,0.091-0.258,0.229-0.27c0.121-0.009,0.258,0.09,0.27,0.229c0.05,0.605,0.333,1.155,0.797,1.548
		c0.464,0.393,1.053,0.58,1.659,0.531c0.606-0.05,1.156-0.333,1.549-0.797c0.393-0.464,0.581-1.053,0.531-1.659
		c-0.05-0.605-0.333-1.155-0.797-1.548c-0.464-0.392-1.053-0.58-1.659-0.531c-0.128,0.002-0.258-0.091-0.27-0.229
		c-0.012-0.137,0.091-0.258,0.229-0.27c0.731-0.069,1.457,0.168,2.023,0.647c0.566,0.479,0.912,1.149,0.973,1.889
		c0.062,0.739-0.168,1.457-0.647,2.023s-1.149,0.911-1.889,0.973C52.872,51.245,52.793,51.248,52.715,51.248z"/>
</g>
<g>
	<g>
		<path class="st6" d="M63.882,50.156c0,0.04-0.01,0.08-0.02,0.12l-0.1-0.02c-0.38,3.26-2.12,6.36-5.05,8.33
			c-1.75,1.18-3.71,1.83-5.68,1.97c-0.23,0.02-0.47,0.03-0.71,0.03h-0.13c-2.99,0-5.94-1.14-8.15-3.3l0.09-0.05l2.461-1.697
			l-9.941-4.113L36.623,62.81l2.539-1.954c3.084,3.383,7.299,5.317,11.664,5.659c0.46,0.039,0.922,0.068,1.386,0.071h0.24
			c0.2,0,0.39-0.01,0.59-0.02c0.15-0.01,0.3-0.02,0.45-0.03c0.21,0,0.42-0.02,0.63-0.05c2.77-0.31,5.5-1.26,7.96-2.93
			c4.37-2.96,6.99-7.55,7.6-12.42c0.02-0.04,0.02-0.08,0.02-0.13L63.882,50.156z"/>
		<path class="st5" d="M52.452,67.086h-0.24c-0.48-0.003-0.956-0.032-1.429-0.073c-4.484-0.351-8.614-2.294-11.675-5.484
			l-2.986,2.299l0.033-13.148l11.48,4.75l-2.787,1.921c2.024,1.77,4.608,2.736,7.345,2.736h0.13c0.225,0,0.45-0.009,0.666-0.028
			c1.938-0.138,3.817-0.789,5.445-1.887c2.691-1.809,4.453-4.715,4.833-7.973l0.063-0.539l0.048,0.01v-0.09l6.826,0.995v0.432
			c0,0.059,0,0.146-0.031,0.249c-0.664,5.17-3.507,9.802-7.809,12.715c-2.455,1.666-5.208,2.68-8.185,3.013
			c-0.218,0.031-0.452,0.054-0.686,0.054l-0.417,0.028C52.86,67.077,52.661,67.086,52.452,67.086z M39.222,60.179l0.31,0.34
			c2.918,3.201,6.943,5.154,11.333,5.498c0.451,0.039,0.899,0.066,1.35,0.069h0.237c0.19,0,0.373-0.01,0.563-0.02l0.444-0.029
			c0.219-0.001,0.405-0.02,0.591-0.047c2.829-0.316,5.431-1.273,7.75-2.849c3.98-2.695,6.639-6.949,7.336-11.713l-4.869-0.711
			l-0.035,0.143l-0.05-0.01c-0.537,3.331-2.409,6.279-5.194,8.151c-1.771,1.194-3.82,1.904-5.923,2.054
			c-0.235,0.021-0.49,0.031-0.745,0.031h-0.13c-3.209,0-6.228-1.223-8.5-3.442l-0.476-0.465l0.669-0.379l1.667-1.15l-8.402-3.477
			l-0.024,9.619L39.222,60.179z"/>
	</g>
</g>
<g>
	<path class="st5" d="M73.456,32.997c-0.161,0-0.319-0.078-0.416-0.221c-3.516-5.237-9.109-8.759-15.348-9.662
		c-0.273-0.04-0.462-0.293-0.423-0.566c0.039-0.273,0.289-0.467,0.566-0.423c6.517,0.943,12.361,4.622,16.034,10.093
		c0.154,0.229,0.093,0.54-0.136,0.694C73.648,32.97,73.551,32.997,73.456,32.997z"/>
</g>
<g>
	<path class="st5" d="M35.951,69.41c-0.101,0-0.203-0.03-0.292-0.095c-4.34-3.124-7.496-7.693-8.888-12.866
		c-0.072-0.267,0.086-0.541,0.353-0.612c0.266-0.072,0.541,0.085,0.613,0.353c1.332,4.951,4.353,9.324,8.506,12.314
		c0.224,0.162,0.275,0.475,0.114,0.698C36.259,69.337,36.106,69.41,35.951,69.41z"/>
</g>
<g>
	<path class="st5" d="M69.832,51.026c-0.01,0.04-0.01,0.09-0.02,0.13l-0.13-0.02l-5.82-0.86c0.01-0.04,0.02-0.08,0.02-0.12
		l5.82,0.85L69.832,51.026z"/>
</g>
<g>
	<g>
		<path class="st6" d="M40.165,48.534c-0.005-0.04-0.001-0.081,0.004-0.122l0.102,0.007c-0.051-3.282,1.267-6.583,3.913-8.921
			c1.58-1.399,3.438-2.301,5.372-2.698c0.225-0.05,0.462-0.091,0.7-0.123l0.129-0.017c2.964-0.392,6.038,0.351,8.513,2.202
			l-0.083,0.061l-2.39,1.923l10.568,2.855L65.61,32.329l-2.343,2.353c-3.502-2.949-7.933-4.313-12.306-4.079
			c-0.461,0.021-0.923,0.054-1.383,0.112l-0.238,0.031c-0.198,0.026-0.385,0.061-0.582,0.097c-0.147,0.03-0.295,0.059-0.442,0.089
			c-0.208,0.028-0.414,0.075-0.618,0.132c-2.705,0.671-5.287,1.971-7.507,3.949c-3.944,3.508-5.939,8.402-5.904,13.31
			c-0.014,0.042-0.009,0.082-0.003,0.131L40.165,48.534z"/>
		<path class="st5" d="M40.744,49.04l-6.901-0.091l-0.055-0.431c-0.007-0.059-0.019-0.145-0.001-0.249
			c-0.02-5.212,2.191-10.177,6.072-13.629c2.214-1.974,4.811-3.34,7.719-4.062c0.212-0.06,0.442-0.112,0.673-0.142l0.409-0.083
			c0.242-0.044,0.423-0.078,0.614-0.103l0.239-0.031c0.476-0.06,0.951-0.094,1.425-0.116c4.492-0.24,8.841,1.144,12.295,3.905
			l2.75-2.762l1.597,13.131l-12.233-3.305l2.718-2.187c-2.232-1.475-4.909-2.087-7.613-1.73l-0.129,0.017
			c-0.223,0.03-0.445,0.069-0.657,0.116c-1.902,0.391-3.68,1.284-5.148,2.584c-2.431,2.147-3.796,5.26-3.745,8.539l0.008,0.543
			l-0.047-0.003L40.744,49.04z M34.787,47.962l4.92,0.065l0.015-0.141l0.052,0.003c0.093-3.373,1.562-6.543,4.079-8.766
			c1.599-1.416,3.536-2.389,5.603-2.813c0.232-0.051,0.482-0.095,0.734-0.129l0.13-0.017c3.182-0.42,6.334,0.395,8.877,2.297
			l0.538,0.403l-0.623,0.46l-1.609,1.295l8.903,2.405l-1.169-9.614l-1.941,1.95l-0.352-0.296c-3.313-2.79-7.556-4.198-11.957-3.962
			c-0.452,0.021-0.9,0.052-1.348,0.108l-0.235,0.031c-0.174,0.023-0.339,0.054-0.512,0.085l-0.479,0.096
			c-0.219,0.03-0.401,0.072-0.583,0.123c-2.763,0.686-5.217,1.977-7.309,3.841C36.931,38.582,34.853,43.147,34.787,47.962z"/>
	</g>
</g>
<g>
	<circle class="st5" cx="38.273" cy="70.652" r="0.84"/>
</g>
<g>
	<path class="st5" d="M52.536,54.613c-3.352,0-6.079-2.728-6.079-6.079s2.727-6.079,6.079-6.079c3.352,0,6.079,2.727,6.079,6.079
		c0,0.138-0.112,0.25-0.25,0.25s-0.25-0.112-0.25-0.25c0-3.076-2.502-5.579-5.579-5.579s-5.579,2.502-5.579,5.579
		s2.503,5.579,5.579,5.579c0.138,0,0.25,0.112,0.25,0.25S52.674,54.613,52.536,54.613z"/>
</g>
<g>
	<circle class="st5" cx="54.844" cy="22.526" r="0.84"/>
</g>
</svg>
