<?xml version="1.0" encoding="utf-8"?>
<!-- Generator: Adobe Illustrator 21.1.0, SVG Export Plug-In . SVG Version: 6.00 Build 0)  -->
<svg version="1.1" id="Layer_4" xmlns="http://www.w3.org/2000/svg" xmlns:xlink="http://www.w3.org/1999/xlink" x="0px" y="0px"
	 viewBox="0 0 97.25 100" style="enable-background:new 0 0 97.25 100;" xml:space="preserve">
<style type="text/css">
	.st0{opacity:0.31;}
	.st1{fill:#C4DFE5;}
	.st2{fill:#D7EFF2;}
	.st3{fill:#FDEAE4;stroke:#6B768E;stroke-miterlimit:10;}
	.st4{fill:#6B768E;}
	.st5{fill:#FFFFFF;stroke:#6B768E;stroke-miterlimit:10;}
	.st6{fill:#D7EFF2;stroke:#6B768E;stroke-width:0.5;stroke-miterlimit:10;}
	.st7{font-family:'HouschkaAltPro-Bold';}
	.st8{font-size:17.899px;}
</style>
<g>
	<g class="st0">
		<g>
			<g>
				<circle class="st1" cx="91.47" cy="92.788" r="1.189"/>
			</g>
			<g>
				<circle class="st1" cx="81.962" cy="92.788" r="1.189"/>
			</g>
			<g>
				<circle class="st1" cx="72.453" cy="92.788" r="1.189"/>
			</g>
			<g>
				<circle class="st1" cx="62.945" cy="92.788" r="1.189"/>
			</g>
			<g>
				<circle class="st1" cx="53.436" cy="92.788" r="1.189"/>
			</g>
			<g>
				<circle class="st1" cx="43.928" cy="92.788" r="1.189"/>
			</g>
			<g>
				<circle class="st1" cx="34.42" cy="92.788" r="1.189"/>
			</g>
			<g>
				<circle class="st1" cx="24.911" cy="92.788" r="1.189"/>
			</g>
			<g>
				<circle class="st1" cx="15.403" cy="92.788" r="1.189"/>
			</g>
			<g>
				<circle class="st1" cx="5.894" cy="92.788" r="1.189"/>
			</g>
		</g>
		<g>
			<g>
				<circle class="st1" cx="91.47" cy="83.279" r="1.189"/>
			</g>
			<g>
				<circle class="st1" cx="81.962" cy="83.279" r="1.189"/>
			</g>
			<g>
				<circle class="st1" cx="72.453" cy="83.279" r="1.189"/>
			</g>
			<g>
				<circle class="st1" cx="62.945" cy="83.279" r="1.189"/>
			</g>
			<g>
				<circle class="st1" cx="53.436" cy="83.279" r="1.189"/>
			</g>
			<g>
				<circle class="st1" cx="43.928" cy="83.279" r="1.189"/>
			</g>
			<g>
				<circle class="st1" cx="34.42" cy="83.279" r="1.189"/>
			</g>
			<g>
				<circle class="st1" cx="24.911" cy="83.279" r="1.189"/>
			</g>
			<g>
				<circle class="st1" cx="15.403" cy="83.279" r="1.189"/>
			</g>
			<g>
				<circle class="st1" cx="5.894" cy="83.279" r="1.189"/>
			</g>
		</g>
		<g>
			<g>
				<circle class="st1" cx="91.47" cy="73.771" r="1.189"/>
			</g>
			<g>
				<circle class="st1" cx="81.962" cy="73.771" r="1.189"/>
			</g>
			<g>
				<circle class="st1" cx="72.453" cy="73.771" r="1.189"/>
			</g>
			<g>
				<circle class="st1" cx="62.945" cy="73.771" r="1.189"/>
			</g>
			<g>
				<circle class="st1" cx="53.436" cy="73.771" r="1.189"/>
			</g>
			<g>
				<circle class="st1" cx="43.928" cy="73.771" r="1.189"/>
			</g>
			<g>
				<circle class="st1" cx="34.42" cy="73.771" r="1.189"/>
			</g>
			<g>
				<circle class="st1" cx="24.911" cy="73.771" r="1.189"/>
			</g>
			<g>
				<circle class="st1" cx="15.403" cy="73.771" r="1.189"/>
			</g>
			<g>
				<circle class="st1" cx="5.894" cy="73.771" r="1.189"/>
			</g>
		</g>
		<g>
			<g>
				<circle class="st1" cx="91.47" cy="64.263" r="1.189"/>
			</g>
			<g>
				<circle class="st1" cx="81.962" cy="64.263" r="1.189"/>
			</g>
			<g>
				<circle class="st1" cx="72.453" cy="64.263" r="1.189"/>
			</g>
			<g>
				<circle class="st1" cx="62.945" cy="64.263" r="1.189"/>
			</g>
			<g>
				<circle class="st1" cx="53.436" cy="64.263" r="1.189"/>
			</g>
			<g>
				<circle class="st1" cx="43.928" cy="64.263" r="1.189"/>
			</g>
			<g>
				<circle class="st1" cx="34.42" cy="64.263" r="1.189"/>
			</g>
			<g>
				<circle class="st1" cx="24.911" cy="64.263" r="1.189"/>
			</g>
			<g>
				<circle class="st1" cx="15.403" cy="64.263" r="1.189"/>
			</g>
			<g>
				<circle class="st1" cx="5.894" cy="64.263" r="1.189"/>
			</g>
		</g>
		<g>
			<g>
				<circle class="st1" cx="91.47" cy="54.754" r="1.189"/>
			</g>
			<g>
				<circle class="st1" cx="81.962" cy="54.754" r="1.189"/>
			</g>
			<g>
				<circle class="st1" cx="72.453" cy="54.754" r="1.189"/>
			</g>
			<g>
				<circle class="st1" cx="62.945" cy="54.754" r="1.189"/>
			</g>
			<g>
				<circle class="st1" cx="53.436" cy="54.754" r="1.189"/>
			</g>
			<g>
				<circle class="st1" cx="43.928" cy="54.754" r="1.189"/>
			</g>
			<g>
				<circle class="st1" cx="34.42" cy="54.754" r="1.189"/>
			</g>
			<g>
				<circle class="st1" cx="24.911" cy="54.754" r="1.189"/>
			</g>
			<g>
				<circle class="st1" cx="15.403" cy="54.754" r="1.189"/>
			</g>
			<g>
				<circle class="st1" cx="5.894" cy="54.754" r="1.189"/>
			</g>
		</g>
		<g>
			<g>
				<circle class="st1" cx="91.47" cy="45.246" r="1.189"/>
			</g>
			<g>
				<circle class="st1" cx="81.962" cy="45.246" r="1.189"/>
			</g>
			<g>
				<circle class="st1" cx="72.453" cy="45.246" r="1.189"/>
			</g>
			<g>
				<circle class="st1" cx="62.945" cy="45.246" r="1.189"/>
			</g>
			<g>
				<circle class="st1" cx="53.436" cy="45.246" r="1.189"/>
			</g>
			<g>
				<circle class="st1" cx="43.928" cy="45.246" r="1.189"/>
			</g>
			<g>
				<circle class="st1" cx="34.42" cy="45.246" r="1.189"/>
			</g>
			<g>
				<circle class="st1" cx="24.911" cy="45.246" r="1.189"/>
			</g>
			<g>
				<circle class="st1" cx="15.403" cy="45.246" r="1.189"/>
			</g>
			<g>
				<circle class="st1" cx="5.894" cy="45.246" r="1.189"/>
			</g>
		</g>
		<g>
			<g>
				<circle class="st1" cx="91.47" cy="35.737" r="1.189"/>
			</g>
			<g>
				<circle class="st1" cx="81.962" cy="35.737" r="1.189"/>
			</g>
			<g>
				<circle class="st1" cx="72.453" cy="35.737" r="1.189"/>
			</g>
			<g>
				<circle class="st1" cx="62.945" cy="35.737" r="1.189"/>
			</g>
			<g>
				<circle class="st1" cx="53.436" cy="35.737" r="1.189"/>
			</g>
			<g>
				<circle class="st1" cx="43.928" cy="35.737" r="1.189"/>
			</g>
			<g>
				<circle class="st1" cx="34.42" cy="35.737" r="1.189"/>
			</g>
			<g>
				<circle class="st1" cx="24.911" cy="35.737" r="1.189"/>
			</g>
			<g>
				<circle class="st1" cx="15.403" cy="35.737" r="1.189"/>
			</g>
			<g>
				<circle class="st1" cx="5.894" cy="35.737" r="1.189"/>
			</g>
		</g>
		<g>
			<g>
				<circle class="st1" cx="91.47" cy="26.229" r="1.189"/>
			</g>
			<g>
				<circle class="st1" cx="81.962" cy="26.229" r="1.189"/>
			</g>
			<g>
				<circle class="st1" cx="72.453" cy="26.229" r="1.189"/>
			</g>
			<g>
				<circle class="st1" cx="62.945" cy="26.229" r="1.189"/>
			</g>
			<g>
				<circle class="st1" cx="53.436" cy="26.229" r="1.189"/>
			</g>
			<g>
				<circle class="st1" cx="43.928" cy="26.229" r="1.189"/>
			</g>
			<g>
				<circle class="st1" cx="34.42" cy="26.229" r="1.189"/>
			</g>
			<g>
				<circle class="st1" cx="24.911" cy="26.229" r="1.189"/>
			</g>
			<g>
				<circle class="st1" cx="15.403" cy="26.229" r="1.189"/>
			</g>
			<g>
				<circle class="st1" cx="5.894" cy="26.229" r="1.189"/>
			</g>
		</g>
		<g>
			<g>
				<circle class="st1" cx="91.47" cy="16.721" r="1.189"/>
			</g>
			<g>
				<circle class="st1" cx="81.962" cy="16.721" r="1.189"/>
			</g>
			<g>
				<circle class="st1" cx="72.453" cy="16.721" r="1.189"/>
			</g>
			<g>
				<circle class="st1" cx="62.945" cy="16.721" r="1.189"/>
			</g>
			<g>
				<circle class="st1" cx="53.436" cy="16.721" r="1.189"/>
			</g>
			<g>
				<circle class="st1" cx="43.928" cy="16.721" r="1.189"/>
			</g>
			<g>
				<circle class="st1" cx="34.42" cy="16.721" r="1.189"/>
			</g>
			<g>
				<circle class="st1" cx="24.911" cy="16.721" r="1.189"/>
			</g>
			<g>
				<circle class="st1" cx="15.403" cy="16.721" r="1.189"/>
			</g>
			<g>
				<circle class="st1" cx="5.894" cy="16.721" r="1.189"/>
			</g>
		</g>
		<g>
			<g>
				<circle class="st1" cx="91.47" cy="7.212" r="1.189"/>
			</g>
			<g>
				<circle class="st1" cx="81.962" cy="7.212" r="1.189"/>
			</g>
			<g>
				<circle class="st1" cx="72.453" cy="7.212" r="1.189"/>
			</g>
			<g>
				<circle class="st1" cx="62.945" cy="7.212" r="1.189"/>
			</g>
			<g>
				<circle class="st1" cx="53.436" cy="7.212" r="1.189"/>
			</g>
			<g>
				<circle class="st1" cx="43.928" cy="7.212" r="1.189"/>
			</g>
			<g>
				<circle class="st1" cx="34.42" cy="7.212" r="1.189"/>
			</g>
			<g>
				<circle class="st1" cx="24.911" cy="7.212" r="1.189"/>
			</g>
			<g>
				<circle class="st1" cx="15.403" cy="7.212" r="1.189"/>
			</g>
			<g>
				<circle class="st1" cx="5.894" cy="7.212" r="1.189"/>
			</g>
		</g>
	</g>
</g>
<path class="st2" d="M83.619,42.996c-0.242,2.596-2.567,4.508-5.175,4.508l-21.213,0L55.45,52.47c0-1.382-1.871-2.123-4.294-2.517
	c-6.513-1.06-12.22-4.947-15.332-10.765l-0.232-0.434v-0.56h-14.01c-2.756,0-4.99-2.234-4.99-4.99v0c0-2.756,2.234-4.99,4.99-4.99
	h14.01v-2.05c0-4.313,3.497-7.81,7.81-7.81l25.5,0c2.842,0,5.327,2.328,5.227,5.168c-0.046,1.309-0.596,2.491-1.457,3.352
	c-0.9,0.9-2.15,1.46-3.53,1.46c-1.24,0-2.37,0.5-3.18,1.32c-0.82,0.81-1.32,1.94-1.32,3.18v0.19c0,2.485,2.015,4.5,4.5,4.5h9.51
	C81.571,37.523,83.897,40.018,83.619,42.996z"/>
<path class="st2" d="M81.848,78.944L81.848,78.944c0,2.756-2.234,4.99-4.99,4.99h-38.07c-2.756,0-4.99-2.234-4.99-4.99v0
	c0-2.756-2.234-4.99-4.99-4.99h-9.325c-2.759,0-4.995-2.236-4.995-4.995v0c0-2.759,2.236-4.995,4.995-4.995h0.22
	c2.543,0,4.605-2.062,4.605-4.605v0c0-2.543,2.062-4.605,4.605-4.605h43.445v9.98h-5.22c-2.546,0-4.61,2.064-4.61,4.61v0
	c0,2.546,2.064,4.61,4.61,4.61h9.72C79.614,73.954,81.848,76.188,81.848,78.944z"/>
<path class="st3" d="M55.2,31.559v18.966c0,0.956-1.001,1.581-1.86,1.162l-10.064-4.91H27.914c-1.872,0-3.39-1.518-3.39-3.39V31.559
	c0-1.878,1.536-3.414,3.414-3.414h23.848C53.664,28.146,55.2,29.682,55.2,31.559z"/>
<circle class="st4" cx="33.655" cy="37.421" r="1.23"/>
<circle class="st4" cx="39.456" cy="37.421" r="1.23"/>
<circle class="st4" cx="45.067" cy="37.421" r="1.23"/>
<path class="st5" d="M34.531,45.997v21.908c0,1.104,1.156,1.827,2.149,1.342l11.625-5.672h17.745c2.163,0,3.916-1.753,3.916-3.916
	V45.997c0-2.169-1.774-3.943-3.943-3.943H38.474C36.305,42.054,34.531,43.829,34.531,45.997z"/>
<circle class="st4" cx="60.619" cy="53.367" r="1.613"/>
<circle class="st4" cx="53.01" cy="53.367" r="1.613"/>
<circle class="st4" cx="45.649" cy="53.367" r="1.613"/>
<circle class="st5" cx="68.088" cy="67.56" r="10.508"/>
<text transform="matrix(1 0 0 1 63.5137 73.4988)" class="st6 st7 st8">?</text>
</svg>
