<?xml version="1.0" encoding="utf-8"?>
<!-- Generator: Adobe Illustrator 21.1.0, SVG Export Plug-In . SVG Version: 6.00 Build 0)  -->
<svg version="1.1" id="Layer_1" xmlns="http://www.w3.org/2000/svg" xmlns:xlink="http://www.w3.org/1999/xlink" x="0px" y="0px"
	 viewBox="0 0 94.5 95.39" style="enable-background:new 0 0 94.5 95.39;" xml:space="preserve">
<style type="text/css">
	.st0{opacity:0.31;}
	.st1{fill:#C4DFE5;}
	.st2{fill:#D7EFF2;}
	.st3{fill:#FDEAE4;}
	.st4{fill:#FFFFFF;}
	.st5{fill:#E4CDB6;}
	.st6{fill:#6B768E;}
</style>
<g id="Layer_1_1_">
</g>
<g id="Layer_4">
	<g>
		<g class="st0">
			<g>
				<g>
					<g>
						<circle class="st1" cx="90.25" cy="91" r="1.2"/>
					</g>
				</g>
				<g>
					<g>
						<circle class="st1" cx="80.75" cy="91" r="1.2"/>
					</g>
				</g>
				<g>
					<g>
						<circle class="st1" cx="71.25" cy="91" r="1.2"/>
					</g>
				</g>
				<g>
					<g>
						<circle class="st1" cx="61.75" cy="91" r="1.2"/>
					</g>
				</g>
				<g>
					<g>
						<circle class="st1" cx="52.25" cy="91" r="1.2"/>
					</g>
				</g>
				<g>
					<g>
						<circle class="st1" cx="42.75" cy="91" r="1.2"/>
					</g>
				</g>
				<g>
					<g>
						<circle class="st1" cx="33.25" cy="91" r="1.2"/>
					</g>
				</g>
				<g>
					<g>
						<circle class="st1" cx="23.75" cy="91" r="1.2"/>
					</g>
				</g>
				<g>
					<g>
						<circle class="st1" cx="14.15" cy="91" r="1.2"/>
					</g>
				</g>
				<g>
					<g>
						<circle class="st1" cx="4.65" cy="91" r="1.2"/>
					</g>
				</g>
			</g>
			<g>
				<g>
					<g>
						<circle class="st1" cx="90.25" cy="81.5" r="1.2"/>
					</g>
				</g>
				<g>
					<g>
						<circle class="st1" cx="80.75" cy="81.5" r="1.2"/>
					</g>
				</g>
				<g>
					<g>
						<circle class="st1" cx="71.25" cy="81.5" r="1.2"/>
					</g>
				</g>
				<g>
					<g>
						<circle class="st1" cx="61.75" cy="81.5" r="1.2"/>
					</g>
				</g>
				<g>
					<g>
						<circle class="st1" cx="52.25" cy="81.5" r="1.2"/>
					</g>
				</g>
				<g>
					<g>
						<circle class="st1" cx="42.75" cy="81.5" r="1.2"/>
					</g>
				</g>
				<g>
					<g>
						<circle class="st1" cx="33.25" cy="81.5" r="1.2"/>
					</g>
				</g>
				<g>
					<g>
						<circle class="st1" cx="23.75" cy="81.5" r="1.2"/>
					</g>
				</g>
				<g>
					<g>
						<circle class="st1" cx="14.15" cy="81.5" r="1.2"/>
					</g>
				</g>
				<g>
					<g>
						<circle class="st1" cx="4.65" cy="81.5" r="1.2"/>
					</g>
				</g>
			</g>
			<g>
				<g>
					<g>
						<circle class="st1" cx="90.25" cy="72" r="1.2"/>
					</g>
				</g>
				<g>
					<g>
						<circle class="st1" cx="80.75" cy="72" r="1.2"/>
					</g>
				</g>
				<g>
					<g>
						<circle class="st1" cx="71.25" cy="72" r="1.2"/>
					</g>
				</g>
				<g>
					<g>
						<circle class="st1" cx="61.75" cy="72" r="1.2"/>
					</g>
				</g>
				<g>
					<g>
						<circle class="st1" cx="52.25" cy="72" r="1.2"/>
					</g>
				</g>
				<g>
					<g>
						<circle class="st1" cx="42.75" cy="72" r="1.2"/>
					</g>
				</g>
				<g>
					<g>
						<circle class="st1" cx="33.25" cy="72" r="1.2"/>
					</g>
				</g>
				<g>
					<g>
						<circle class="st1" cx="23.75" cy="72" r="1.2"/>
					</g>
				</g>
				<g>
					<g>
						<circle class="st1" cx="14.15" cy="72" r="1.2"/>
					</g>
				</g>
				<g>
					<g>
						<circle class="st1" cx="4.65" cy="72" r="1.2"/>
					</g>
				</g>
			</g>
			<g>
				<g>
					<g>
						<circle class="st1" cx="90.25" cy="62.5" r="1.2"/>
					</g>
				</g>
				<g>
					<g>
						<circle class="st1" cx="80.75" cy="62.5" r="1.2"/>
					</g>
				</g>
				<g>
					<g>
						<circle class="st1" cx="71.25" cy="62.5" r="1.2"/>
					</g>
				</g>
				<g>
					<g>
						<circle class="st1" cx="61.75" cy="62.5" r="1.2"/>
					</g>
				</g>
				<g>
					<g>
						<circle class="st1" cx="52.25" cy="62.5" r="1.2"/>
					</g>
				</g>
				<g>
					<g>
						<circle class="st1" cx="42.75" cy="62.5" r="1.2"/>
					</g>
				</g>
				<g>
					<g>
						<circle class="st1" cx="33.25" cy="62.5" r="1.2"/>
					</g>
				</g>
				<g>
					<g>
						<circle class="st1" cx="23.75" cy="62.5" r="1.2"/>
					</g>
				</g>
				<g>
					<g>
						<circle class="st1" cx="14.15" cy="62.5" r="1.2"/>
					</g>
				</g>
				<g>
					<g>
						<circle class="st1" cx="4.65" cy="62.5" r="1.2"/>
					</g>
				</g>
			</g>
			<g>
				<g>
					<g>
						<circle class="st1" cx="90.25" cy="53" r="1.2"/>
					</g>
				</g>
				<g>
					<g>
						<circle class="st1" cx="80.75" cy="53" r="1.2"/>
					</g>
				</g>
				<g>
					<g>
						<circle class="st1" cx="71.25" cy="53" r="1.2"/>
					</g>
				</g>
				<g>
					<g>
						<circle class="st1" cx="61.75" cy="53" r="1.2"/>
					</g>
				</g>
				<g>
					<g>
						<circle class="st1" cx="52.25" cy="53" r="1.2"/>
					</g>
				</g>
				<g>
					<g>
						<circle class="st1" cx="42.75" cy="53" r="1.2"/>
					</g>
				</g>
				<g>
					<g>
						<circle class="st1" cx="33.25" cy="53" r="1.2"/>
					</g>
				</g>
				<g>
					<g>
						<circle class="st1" cx="23.75" cy="53" r="1.2"/>
					</g>
				</g>
				<g>
					<g>
						<circle class="st1" cx="14.15" cy="53" r="1.2"/>
					</g>
				</g>
				<g>
					<g>
						<circle class="st1" cx="4.65" cy="53" r="1.2"/>
					</g>
				</g>
			</g>
			<g>
				<g>
					<g>
						<circle class="st1" cx="90.25" cy="43.5" r="1.2"/>
					</g>
				</g>
				<g>
					<g>
						<circle class="st1" cx="80.75" cy="43.5" r="1.2"/>
					</g>
				</g>
				<g>
					<g>
						<circle class="st1" cx="71.25" cy="43.5" r="1.2"/>
					</g>
				</g>
				<g>
					<g>
						<circle class="st1" cx="61.75" cy="43.5" r="1.2"/>
					</g>
				</g>
				<g>
					<g>
						<circle class="st1" cx="52.25" cy="43.5" r="1.2"/>
					</g>
				</g>
				<g>
					<g>
						<circle class="st1" cx="42.75" cy="43.5" r="1.2"/>
					</g>
				</g>
				<g>
					<g>
						<circle class="st1" cx="33.25" cy="43.5" r="1.2"/>
					</g>
				</g>
				<g>
					<g>
						<circle class="st1" cx="23.75" cy="43.5" r="1.2"/>
					</g>
				</g>
				<g>
					<g>
						<circle class="st1" cx="14.15" cy="43.5" r="1.2"/>
					</g>
				</g>
				<g>
					<g>
						<circle class="st1" cx="4.65" cy="43.5" r="1.2"/>
					</g>
				</g>
			</g>
			<g>
				<g>
					<g>
						<circle class="st1" cx="90.25" cy="34" r="1.2"/>
					</g>
				</g>
				<g>
					<g>
						<circle class="st1" cx="80.75" cy="34" r="1.2"/>
					</g>
				</g>
				<g>
					<g>
						<path class="st1" d="M72.45,34c0,0.66-0.54,1.2-1.2,1.2s-1.2-0.54-1.2-1.2c0-0.03,0-0.07,0.01-0.1
							c0.05-0.61,0.56-1.1,1.19-1.1s1.14,0.49,1.19,1.1C72.45,33.93,72.45,33.97,72.45,34z"/>
					</g>
				</g>
				<g>
					<g>
						<circle class="st1" cx="61.75" cy="34" r="1.2"/>
					</g>
				</g>
				<g>
					<g>
						<circle class="st1" cx="52.25" cy="34" r="1.2"/>
					</g>
				</g>
				<g>
					<g>
						<circle class="st1" cx="42.75" cy="34" r="1.2"/>
					</g>
				</g>
				<g>
					<g>
						<circle class="st1" cx="33.25" cy="34" r="1.2"/>
					</g>
				</g>
				<g>
					<g>
						<circle class="st1" cx="23.75" cy="34" r="1.2"/>
					</g>
				</g>
				<g>
					<g>
						<circle class="st1" cx="14.15" cy="34" r="1.2"/>
					</g>
				</g>
				<g>
					<g>
						<circle class="st1" cx="4.65" cy="34" r="1.2"/>
					</g>
				</g>
			</g>
			<g>
				<g>
					<g>
						<circle class="st1" cx="90.25" cy="24.5" r="1.2"/>
					</g>
				</g>
				<g>
					<g>
						<circle class="st1" cx="80.75" cy="24.5" r="1.2"/>
					</g>
				</g>
				<g>
					<g>
						<path class="st1" d="M72.45,24.5c0,0.07-0.01,0.14-0.02,0.2c-0.09,0.57-0.59,1-1.18,1s-1.09-0.43-1.18-1
							c-0.01-0.06-0.02-0.13-0.02-0.2c0-0.66,0.54-1.2,1.2-1.2S72.45,23.84,72.45,24.5z"/>
					</g>
				</g>
				<g>
					<g>
						<circle class="st1" cx="52.25" cy="24.5" r="1.2"/>
					</g>
				</g>
				<g>
					<g>
						<path class="st1" d="M43.95,24.5c0,0.11-0.01,0.21-0.04,0.31c-0.04,0.16-0.12,0.31-0.23,0.43c-0.1,0.14-0.23,0.25-0.39,0.33
							c-0.16,0.08-0.35,0.13-0.54,0.13c-0.63,0-1.14-0.49-1.19-1.1c-0.01-0.03-0.01-0.07-0.01-0.1c0-0.14,0.03-0.28,0.07-0.41
							c0.06-0.16,0.15-0.3,0.26-0.42c0.22-0.23,0.53-0.37,0.87-0.37C43.41,23.3,43.95,23.84,43.95,24.5z"/>
					</g>
				</g>
				<g>
					<g>
						<path class="st1" d="M34.45,24.5c0,0.14-0.02,0.27-0.07,0.4c-0.16,0.46-0.61,0.8-1.13,0.8s-0.97-0.34-1.13-0.8
							c-0.05-0.13-0.07-0.26-0.07-0.4c0-0.66,0.54-1.2,1.2-1.2S34.45,23.84,34.45,24.5z"/>
					</g>
				</g>
				<g>
					<g>
						<path class="st1" d="M24.95,24.5c0,0.14-0.02,0.27-0.07,0.4c-0.16,0.46-0.61,0.8-1.13,0.8s-0.97-0.34-1.13-0.8
							c-0.05-0.13-0.07-0.26-0.07-0.4c0-0.66,0.54-1.2,1.2-1.2S24.95,23.84,24.95,24.5z"/>
					</g>
				</g>
				<g>
					<g>
						<path class="st1" d="M15.35,24.5c0,0.14-0.02,0.27-0.07,0.39c-0.16,0.47-0.61,0.81-1.13,0.81c-0.66,0-1.2-0.54-1.2-1.2
							c0-0.1,0.01-0.19,0.03-0.28c0.13-0.53,0.61-0.92,1.17-0.92C14.81,23.3,15.35,23.84,15.35,24.5z"/>
					</g>
				</g>
				<g>
					<g>
						<circle class="st1" cx="4.65" cy="24.5" r="1.2"/>
					</g>
				</g>
			</g>
			<g>
				<g>
					<g>
						<circle class="st1" cx="90.25" cy="15" r="1.2"/>
					</g>
				</g>
				<g>
					<g>
						<circle class="st1" cx="80.75" cy="15" r="1.2"/>
					</g>
				</g>
				<g>
					<g>
						<circle class="st1" cx="71.25" cy="15" r="1.2"/>
					</g>
				</g>
				<g>
					<g>
						<path class="st1" d="M62.95,15c0,0.57-0.41,1.06-0.95,1.18c-0.4-0.29-0.85-0.52-1.33-0.67c-0.01,0-0.01,0-0.01,0
							c-0.07-0.16-0.11-0.33-0.11-0.51c0-0.66,0.54-1.2,1.2-1.2S62.95,14.34,62.95,15z"/>
					</g>
				</g>
				<g>
					<g>
						<path class="st1" d="M53.45,15c0,0.1-0.01,0.21-0.04,0.3c-0.13,0.52-0.6,0.9-1.16,0.9s-1.03-0.38-1.16-0.9
							c-0.03-0.09-0.04-0.2-0.04-0.3c0-0.66,0.54-1.2,1.2-1.2S53.45,14.34,53.45,15z"/>
					</g>
				</g>
				<g>
					<g>
						<path class="st1" d="M43.95,15c0,0.1-0.01,0.21-0.04,0.3c-0.13,0.52-0.6,0.9-1.16,0.9s-1.03-0.38-1.16-0.9
							c-0.03-0.09-0.04-0.2-0.04-0.3c0-0.66,0.54-1.2,1.2-1.2S43.95,14.34,43.95,15z"/>
					</g>
				</g>
				<g>
					<g>
						<path class="st1" d="M34.45,15c0,0.1-0.01,0.21-0.04,0.3c-0.13,0.52-0.6,0.9-1.16,0.9s-1.03-0.38-1.16-0.9
							c-0.03-0.09-0.04-0.2-0.04-0.3c0-0.66,0.54-1.2,1.2-1.2S34.45,14.34,34.45,15z"/>
					</g>
				</g>
				<g>
					<g>
						<path class="st1" d="M24.95,15c0,0.1-0.01,0.21-0.04,0.3c-0.13,0.52-0.6,0.9-1.16,0.9s-1.03-0.38-1.16-0.9
							c-0.03-0.09-0.04-0.2-0.04-0.3c0-0.66,0.54-1.2,1.2-1.2S24.95,14.34,24.95,15z"/>
					</g>
				</g>
				<g>
					<g>
						<path class="st1" d="M15.35,15c0,0.11-0.01,0.21-0.04,0.31c-0.14,0.51-0.61,0.89-1.16,0.89c-0.34,0-0.65-0.15-0.87-0.38
							c-0.21-0.22-0.33-0.5-0.33-0.82c0-0.66,0.54-1.2,1.2-1.2C14.81,13.8,15.35,14.34,15.35,15z"/>
					</g>
				</g>
				<g>
					<g>
						<circle class="st1" cx="4.65" cy="15" r="1.2"/>
					</g>
				</g>
			</g>
			<g>
				<g>
					<g>
						<circle class="st1" cx="90.25" cy="5.4" r="1.2"/>
					</g>
				</g>
				<g>
					<g>
						<circle class="st1" cx="80.75" cy="5.4" r="1.2"/>
					</g>
				</g>
				<g>
					<g>
						<circle class="st1" cx="71.25" cy="5.4" r="1.2"/>
					</g>
				</g>
				<g>
					<g>
						<circle class="st1" cx="61.75" cy="5.4" r="1.2"/>
					</g>
				</g>
				<g>
					<g>
						<circle class="st1" cx="52.25" cy="5.4" r="1.2"/>
					</g>
				</g>
				<g>
					<g>
						<circle class="st1" cx="42.75" cy="5.4" r="1.2"/>
					</g>
				</g>
				<g>
					<g>
						<circle class="st1" cx="33.25" cy="5.4" r="1.2"/>
					</g>
				</g>
				<g>
					<g>
						<circle class="st1" cx="23.75" cy="5.4" r="1.2"/>
					</g>
				</g>
				<g>
					<g>
						<circle class="st1" cx="14.15" cy="5.4" r="1.2"/>
					</g>
				</g>
				<g>
					<g>
						<circle class="st1" cx="4.65" cy="5.4" r="1.2"/>
					</g>
				</g>
			</g>
		</g>
	</g>
	<g>
		<path class="st2" d="M80.75,67.7c0,2.6-2.1,4.8-4.8,4.8H64.824c-1.753,0-3.174,1.421-3.174,3.174V76.3c0,3.2-2.6,5.7-5.7,5.7
			h-37.3c-1.2,0-2.3-0.5-3.1-1.3c-0.9-0.9-1.4-2.1-1.3-3.4c0.1-2.4,2.3-4.2,4.6-4.2h0.1c2.485,0,4.5-2.015,4.5-4.5v-1.1
			c0-2.5-2-4.5-4.5-4.5l0,0c-1.3,0-2.5-0.5-3.4-1.4c-0.8-0.8-1.4-2-1.4-3.2c-0.1-2.7,2.3-4.9,5-4.9h1.035
			c2.028,0,3.975-0.798,5.42-2.221L43.15,34h15.7l0.18,26.262c0.011,1.568,1.29,2.831,2.858,2.821L76.05,63c1.3,0,2.5,0.5,3.4,1.4
			C80.25,65.2,80.75,66.4,80.75,67.7z"/>
	</g>
	<g>
		<path class="st2" d="M76.25,24.7h-3.82c-0.09,0.57-0.59,1-1.18,1s-1.09-0.43-1.18-1h-6.42c-1.48,0-1.05-1.31-1.05-1.31
			c0.09-0.12,0.18-0.24,0.27-0.37c0.01-0.01,0.01-0.02,0.02-0.03c0.67-0.81,1.08-1.85,1.08-2.99c0-1.58-0.78-2.98-1.97-3.82
			c-0.4-0.29-0.85-0.52-1.33-0.67c-0.01,0-0.01,0-0.01,0c-0.44-0.14-0.91-0.21-1.39-0.21c-0.06,0-0.11,0-0.17,0.01
			c-0.02-0.01-0.03-0.01-0.04,0c-0.11-0.01-0.22-0.01-0.31-0.01h-5.34c-0.13,0.52-0.6,0.9-1.16,0.9s-1.03-0.38-1.16-0.9h-7.18
			c-0.13,0.52-0.6,0.9-1.16,0.9s-1.03-0.38-1.16-0.9h-7.18c-0.13,0.52-0.6,0.9-1.16,0.9s-1.03-0.38-1.16-0.9h-7.18
			c-0.13,0.52-0.6,0.9-1.16,0.9s-1.03-0.38-1.16-0.9h-7.14c-0.05,0-0.09,0-0.14,0.01c-0.14,0.51-0.61,0.89-1.16,0.89
			c-0.34,0-0.65-0.15-0.87-0.38c-1.58,0.8-2.63,2.44-2.63,4.28c0,1.4,0.5,2.5,1.4,3.4c0.28,0.28,0.59,0.52,0.93,0.72
			c0.13-0.53,0.61-0.92,1.17-0.92c0.66,0,1.2,0.54,1.2,1.2c0,0.14-0.02,0.27-0.07,0.39c0.06,0.01,0.11,0.01,0.17,0.01h7.17
			c-0.05-0.13-0.07-0.26-0.07-0.4c0-0.66,0.54-1.2,1.2-1.2s1.2,0.54,1.2,1.2c0,0.14-0.02,0.27-0.07,0.4h7.24
			c-0.05-0.13-0.07-0.26-0.07-0.4c0-0.66,0.54-1.2,1.2-1.2s1.2,0.54,1.2,1.2c0,0.14-0.02,0.27-0.07,0.4h1.1
			c1.16-0.99,2.65-1.6,4.27-1.6c0.74,0,1.46,0.13,2.13,0.37c0.22-0.23,0.53-0.37,0.87-0.37c0.66,0,1.2,0.54,1.2,1.2
			c0,0.11-0.01,0.21-0.04,0.31c1.48,1.21,2.44,3.06,2.44,5.09c0,0.2-0.01,0.4-0.03,0.6l9.67,1.72c0.58-1.63,2.14-2.82,3.96-2.82
			c2.3,0,4.2,1.9,4.2,4.2c0,0.1,0,0.2-0.01,0.3h5.92c0.05-0.61,0.56-1.1,1.19-1.1s1.14,0.49,1.19,1.1h3.81c1.2,0,2.4-0.5,3.2-1.3
			c0.8-0.8,1.3-2,1.3-3.2C80.75,26.9,78.75,24.9,76.25,24.7z M52.25,25.7c-0.66,0-1.2-0.54-1.2-1.2s0.54-1.2,1.2-1.2
			s1.2,0.54,1.2,1.2S52.91,25.7,52.25,25.7z"/>
		<path class="st2" d="M14.15,16.2c-0.34,0-0.65-0.15-0.87-0.38c0.61-0.31,1.29-0.5,2.03-0.51C15.17,15.82,14.7,16.2,14.15,16.2z"/>
		<path class="st2" d="M15.35,24.5c0,0.14-0.02,0.27-0.07,0.39c-0.83-0.02-1.62-0.25-2.3-0.67c0.13-0.53,0.61-0.92,1.17-0.92
			C14.81,23.3,15.35,23.84,15.35,24.5z"/>
		<path class="st2" d="M22.59,15.3h2.32c-0.13,0.52-0.6,0.9-1.16,0.9S22.72,15.82,22.59,15.3z"/>
		<path class="st2" d="M24.95,24.5c0,0.14-0.02,0.27-0.07,0.4h-2.26c-0.05-0.13-0.07-0.26-0.07-0.4c0-0.66,0.54-1.2,1.2-1.2
			C24.41,23.3,24.95,23.84,24.95,24.5z"/>
		<path class="st2" d="M32.09,15.3h2.32c-0.13,0.52-0.6,0.9-1.16,0.9S32.22,15.82,32.09,15.3z"/>
		<path class="st2" d="M34.45,24.5c0,0.14-0.02,0.27-0.07,0.4h-2.26c-0.05-0.13-0.07-0.26-0.07-0.4c0-0.66,0.54-1.2,1.2-1.2
			S34.45,23.84,34.45,24.5z"/>
		<path class="st2" d="M41.59,15.3h2.32c-0.13,0.52-0.6,0.9-1.16,0.9S41.72,15.82,41.59,15.3z"/>
		<circle class="st2" cx="52.25" cy="24.5" r="1.2"/>
		<path class="st2" d="M51.09,15.3h2.32c-0.13,0.52-0.6,0.9-1.16,0.9S51.22,15.82,51.09,15.3z"/>
		<path class="st2" d="M64.15,33.6c0,0.1,0,0.2-0.01,0.3H39.25v-9h-3.77c1.16-0.99,2.65-1.6,4.27-1.6c0.74,0,1.46,0.13,2.13,0.37
			c0.22-0.23,0.53-0.37,0.87-0.37c0.66,0,1.2,0.54,1.2,1.2c0,0.11-0.01,0.21-0.04,0.31c1.48,1.21,2.44,3.06,2.44,5.09
			c0,0.2-0.01,0.4-0.03,0.6l9.67,1.72c0.58-1.63,2.14-2.82,3.96-2.82C62.25,29.4,64.15,31.3,64.15,33.6z"/>
		<path class="st2" d="M70.07,24.7h2.36c-0.09,0.57-0.59,1-1.18,1S70.16,25.27,70.07,24.7z"/>
		<path class="st2" d="M72.44,33.9h-2.38c0.05-0.61,0.56-1.1,1.19-1.1S72.39,33.29,72.44,33.9z"/>
	</g>
	<g>
		<path class="st2" d="M59.45,15.5c-0.2,0-0.5-0.1-0.7-0.1L59.45,15.5L59.45,15.5z"/>
	</g>
	<g id="Layer_7">
		<g>
			<polygon class="st3" points="23.65,44.9 36.75,67.5 37.65,63.7 45.85,48.7 			"/>
		</g>
		<g>
			<polygon class="st4" points="47.45,46.4 57.65,36.5 59.95,37.3 57.55,57.5 55.65,57.5 46.95,51 			"/>
		</g>
	</g>
	<g>
		<polygon class="st5" points="38.15,62.8 43.85,52.9 46.95,53 48.65,51.8 54.55,56.6 53.85,58.6 54.25,60.1 40.05,64.7 		"/>
	</g>
	<g>
		<polygon class="st2" points="23.65,44.9 39.75,29.9 59.95,33.6 45.65,49.6 		"/>
	</g>
	<g>
		<path class="st6" d="M56.98,32.4l-0.49-0.09l-0.5-0.09l-9.67-1.72l-0.49-0.09l-0.5-0.08l-5.78-1.03l-0.3,0.28l-3.98,3.67
			l-0.37,0.34l-0.35,0.33l-0.1,0.09l-1.28,1.18l-6.13,5.66l-0.36,0.34l-0.35,0.32l-1.53,1.41l-1.71,1.58L22.55,45l2.5,3.97
			l0.26,0.42l0.28,0.44l0.57,0.9l6.7,10.64l1.09,1.73l0.15,0.25l0.11,0.17l0.26,0.41l1.68,2.67l0.07-0.02l0.81-0.27l2.8-0.94
			l0.48-0.16l0.47-0.15l11-3.67l0.23-0.07l1.91-0.64l0.47-0.16l0.48-0.16l3.18-1.06l0.42-3.77l0.05-0.5l0.06-0.49l0.39-3.52
			l1.46-13.25l0.12-1.02l0.22-2.06l0.09-0.79l0.09-0.79V33.1L56.98,32.4z M54.46,59.46l-0.35,0.12L54,59.61l-0.48,0.16l-9.66,3.2
			v0.01l-1.7,0.56l-1.77,0.59l-0.48,0.16l-0.21,0.06l-0.29,0.1l-1.94,0.64l-0.16,0.06l-0.76,0.25l-0.23-0.36l-1.06-1.69L35,62.94
			l-0.26-0.42l-7.86-12.5l-0.39-0.63l-0.28-0.44l-0.26-0.41l-1.72-2.73l-0.38-0.61l0.23-0.21l0.01-0.01l0.21-0.2l2.77-2.56l0.33-0.3
			l0.36-0.34l7.47-6.91l0.36-0.32l0.36-0.34l3.3-3.05l0.6-0.56l5.31,0.96l0.49,0.08l0.48,0.09l9.64,1.73l0.49,0.09l0.5,0.09
			l2.53,0.46l0.09,0.02l0.25,0.04L59.85,34l-0.11,0.99l-0.21,1.78l-0.04,0.37l-0.01,0.13l-0.06,0.49l-0.51,4.53L57.53,54.4
			l-0.06,0.5l-0.06,0.51l-0.23,2.09l-0.06,0.51l-0.07,0.59l-0.57,0.19L54.46,59.46z"/>
	</g>
	<g>
		<polygon class="st6" points="36.85,66.2 35.95,65.7 44.85,49.8 23.15,45.6 23.35,44.6 46.45,49.1 		"/>
	</g>
	<g>
		<polygon class="st6" points="57.25,59.4 44.85,49.5 60.05,33.2 60.75,33.9 46.35,49.4 57.85,58.6 		"/>
	</g>
	<g>
		<circle class="st4" cx="39.75" cy="29.9" r="6.1"/>
		<path class="st6" d="M43.91,24.81c-0.6-0.5-1.29-0.89-2.03-1.14c-0.67-0.24-1.39-0.37-2.13-0.37c-1.62,0-3.11,0.61-4.27,1.6
			c-1.42,1.22-2.33,3.02-2.33,5c0,1.13,0.3,2.21,0.82,3.15c0.13,0.25,0.29,0.49,0.46,0.71c0.04,0.06,0.08,0.11,0.12,0.16
			c0.12,0.16,0.25,0.32,0.39,0.46c0.09,0.1,0.19,0.2,0.29,0.29c1.18,1.13,2.78,1.83,4.52,1.83c0.32,0,0.63-0.02,0.94-0.08
			c1.68-0.24,3.17-1.14,4.2-2.42c0.03-0.03,0.05-0.06,0.07-0.1c0.55-0.69,0.95-1.5,1.17-2.37c0.05-0.15,0.08-0.29,0.1-0.44
			c0.05-0.2,0.07-0.39,0.09-0.59s0.03-0.4,0.03-0.6C46.35,27.87,45.39,26.02,43.91,24.81z M45.33,30.33
			c-0.01,0.2-0.04,0.39-0.07,0.58c-0.03,0.15-0.06,0.3-0.1,0.45c-0.23,0.87-0.66,1.65-1.26,2.29c-0.06,0.09-0.14,0.17-0.23,0.25
			c-0.04,0.04-0.08,0.08-0.12,0.1c-0.39,0.38-0.84,0.69-1.33,0.92c-0.05,0.03-0.09,0.05-0.14,0.07c-0.71,0.33-1.5,0.51-2.33,0.51
			c-1.47,0-2.8-0.57-3.8-1.49c-0.11-0.09-0.21-0.19-0.29-0.3c-0.15-0.15-0.28-0.3-0.39-0.46c-0.71-0.93-1.12-2.09-1.12-3.35
			c0-2.2,1.26-4.09,3.09-5c0.75-0.39,1.61-0.6,2.51-0.6c0.63,0,1.24,0.11,1.81,0.3c0.64,0.22,1.22,0.55,1.73,0.97
			c1.26,1.02,2.06,2.58,2.06,4.33C45.35,30.05,45.34,30.19,45.33,30.33z"/>
	</g>
	<g>
		<circle class="st4" cx="23.65" cy="44.9" r="4.8"/>
		<path class="st6" d="M23.65,50.2c-2.9,0-5.3-2.4-5.3-5.3s2.4-5.3,5.3-5.3c2.9,0,5.3,2.4,5.3,5.3S26.65,50.2,23.65,50.2z
			 M23.65,40.6c-2.4,0-4.3,1.9-4.3,4.3c0,2.4,1.9,4.3,4.3,4.3c2.4,0,4.3-1.9,4.3-4.3C28.05,42.5,26.05,40.6,23.65,40.6z"/>
	</g>
	<g>
		<circle class="st4" cx="59.95" cy="33.6" r="3.7"/>
		<path class="st6" d="M59.95,29.4c-1.82,0-3.38,1.19-3.96,2.82c-0.07,0.2-0.13,0.41-0.16,0.62c-0.04,0.14-0.05,0.28-0.06,0.42
			c-0.02,0.11-0.02,0.23-0.02,0.34c0,0.1,0,0.2,0.01,0.3c0,0.03,0.01,0.06,0.01,0.1c0.09,0.97,0.53,1.85,1.18,2.52
			c0.07,0.07,0.13,0.14,0.21,0.2c0.04,0.04,0.09,0.08,0.14,0.12c0.13,0.12,0.28,0.22,0.43,0.31c0.35,0.23,0.74,0.4,1.15,0.5
			c0.17,0.06,0.36,0.09,0.54,0.11c0.16,0.03,0.31,0.04,0.47,0.04h0.06c0.16,0,0.32-0.01,0.48-0.03c1.98-0.23,3.56-1.87,3.71-3.87
			c0.01-0.1,0.01-0.2,0.01-0.3C64.15,31.3,62.25,29.4,59.95,29.4z M63.13,33.9c-0.12,1.45-1.17,2.59-2.58,2.85
			c-0.19,0.03-0.39,0.05-0.6,0.05c-0.14,0-0.29-0.01-0.42-0.03c-0.23-0.03-0.45-0.08-0.66-0.15c-0.16-0.06-0.32-0.12-0.46-0.2
			c-0.22-0.12-0.42-0.26-0.6-0.42c-0.07-0.06-0.13-0.12-0.19-0.19c-0.46-0.48-0.76-1.1-0.84-1.81c-0.01-0.03-0.01-0.06-0.01-0.1
			c-0.02-0.1-0.02-0.2-0.02-0.3c0-0.05,0-0.11,0.01-0.16c0-0.15,0.02-0.29,0.04-0.42c0.04-0.22,0.1-0.43,0.18-0.62
			c0.46-1.19,1.6-2,2.97-2c1.8,0,3.2,1.4,3.2,3.2C63.15,33.7,63.15,33.8,63.13,33.9z"/>
	</g>
	<g>
		<circle class="st4" cx="57.55" cy="58.6" r="3.7"/>
		<path class="st6" d="M57.55,62.8c-2.3,0-4.2-1.9-4.2-4.2s1.9-4.2,4.2-4.2c2.3,0,4.2,1.9,4.2,4.2C61.75,60.9,59.95,62.8,57.55,62.8
			z M57.55,55.4c-1.8,0-3.2,1.4-3.2,3.2s1.4,3.2,3.2,3.2s3.2-1.4,3.2-3.2S59.35,55.4,57.55,55.4z"/>
	</g>
	<g>
		<circle class="st4" cx="45.65" cy="49.6" r="3.7"/>
		<path class="st6" d="M45.65,53.8c-2.3,0-4.2-1.9-4.2-4.2s1.9-4.2,4.2-4.2c2.3,0,4.2,1.9,4.2,4.2C49.85,51.9,47.95,53.8,45.65,53.8
			z M45.65,46.4c-1.8,0-3.2,1.4-3.2,3.2s1.4,3.2,3.2,3.2s3.2-1.4,3.2-3.2S47.35,46.4,45.65,46.4z"/>
	</g>
	<g>
		<circle class="st4" cx="36.75" cy="66.2" r="3.7"/>
		<path class="st6" d="M36.75,70.4c-2.3,0-4.2-1.9-4.2-4.2c0-2.3,1.9-4.2,4.2-4.2s4.2,1.9,4.2,4.2C40.95,68.5,39.05,70.4,36.75,70.4
			z M36.75,63c-1.8,0-3.2,1.4-3.2,3.2s1.4,3.2,3.2,3.2s3.2-1.4,3.2-3.2S38.45,63,36.75,63z"/>
	</g>
	<g>
		<path class="st5" d="M24.85,45.4L24.85,45.4z"/>
	</g>
</g>
</svg>
