<?xml version="1.0" encoding="utf-8"?>
<!-- Generator: Adobe Illustrator 21.1.0, SVG Export Plug-In . SVG Version: 6.00 Build 0)  -->
<svg version="1.1" xmlns="http://www.w3.org/2000/svg" xmlns:xlink="http://www.w3.org/1999/xlink" x="0px" y="0px"
	 viewBox="0 0 100.5 100" style="enable-background:new 0 0 100.5 100;" xml:space="preserve">
<style type="text/css">
	.st0{opacity:0.31;}
	.st1{fill:#C4DFE5;}
	.st2{fill:#D7EFF2;}
	.st3{fill:#FFFFFF;}
	.st4{fill:#6B768E;}
	.st5{fill:#FDEAE4;}
</style>
<g id="Layer_1">
	<g id="Layer_1_1_">
	</g>
</g>
<g id="Layer_4">
	<g>
		<g>
			<g class="st0">
				<g>
					<g>
						<g>
							<circle class="st1" cx="93.145" cy="92.508" r="1.189"/>
						</g>
					</g>
					<g>
						<g>
							<circle class="st1" cx="83.637" cy="92.508" r="1.189"/>
						</g>
					</g>
					<g>
						<g>
							<circle class="st1" cx="74.128" cy="92.508" r="1.189"/>
						</g>
					</g>
					<g>
						<g>
							<circle class="st1" cx="64.62" cy="92.508" r="1.189"/>
						</g>
					</g>
					<g>
						<g>
							<circle class="st1" cx="55.112" cy="92.508" r="1.189"/>
						</g>
					</g>
					<g>
						<g>
							<circle class="st1" cx="45.603" cy="92.508" r="1.189"/>
						</g>
					</g>
					<g>
						<g>
							<circle class="st1" cx="36.095" cy="92.508" r="1.189"/>
						</g>
					</g>
					<g>
						<g>
							<circle class="st1" cx="26.586" cy="92.508" r="1.189"/>
						</g>
					</g>
					<g>
						<g>
							<circle class="st1" cx="17.078" cy="92.508" r="1.189"/>
						</g>
					</g>
					<g>
						<g>
							<circle class="st1" cx="7.57" cy="92.508" r="1.189"/>
						</g>
					</g>
				</g>
				<g>
					<g>
						<g>
							<circle class="st1" cx="93.145" cy="83" r="1.189"/>
						</g>
					</g>
					<g>
						<g>
							<circle class="st1" cx="83.637" cy="83" r="1.189"/>
						</g>
					</g>
					<g>
						<g>
							<circle class="st1" cx="74.128" cy="83" r="1.189"/>
						</g>
					</g>
					<g>
						<g>
							<circle class="st1" cx="64.62" cy="83" r="1.189"/>
						</g>
					</g>
					<g>
						<g>
							<circle class="st1" cx="55.112" cy="83" r="1.189"/>
						</g>
					</g>
					<g>
						<g>
							<circle class="st1" cx="45.603" cy="83" r="1.189"/>
						</g>
					</g>
					<g>
						<g>
							<circle class="st1" cx="36.095" cy="83" r="1.189"/>
						</g>
					</g>
					<g>
						<g>
							<circle class="st1" cx="26.586" cy="83" r="1.189"/>
						</g>
					</g>
					<g>
						<g>
							<circle class="st1" cx="17.078" cy="83" r="1.189"/>
						</g>
					</g>
					<g>
						<g>
							<circle class="st1" cx="7.57" cy="83" r="1.189"/>
						</g>
					</g>
				</g>
				<g>
					<g>
						<g>
							<circle class="st1" cx="93.145" cy="73.491" r="1.189"/>
						</g>
					</g>
					<g>
						<g>
							<circle class="st1" cx="83.637" cy="73.491" r="1.189"/>
						</g>
					</g>
					<g>
						<g>
							<circle class="st1" cx="74.128" cy="73.491" r="1.189"/>
						</g>
					</g>
					<g>
						<g>
							<circle class="st1" cx="64.62" cy="73.491" r="1.189"/>
						</g>
					</g>
					<g>
						<g>
							<circle class="st1" cx="55.112" cy="73.491" r="1.189"/>
						</g>
					</g>
					<g>
						<g>
							<circle class="st1" cx="45.603" cy="73.491" r="1.189"/>
						</g>
					</g>
					<g>
						<g>
							<circle class="st1" cx="36.095" cy="73.491" r="1.189"/>
						</g>
					</g>
					<g>
						<g>
							<circle class="st1" cx="26.586" cy="73.491" r="1.189"/>
						</g>
					</g>
					<g>
						<g>
							<circle class="st1" cx="17.078" cy="73.491" r="1.189"/>
						</g>
					</g>
					<g>
						<g>
							<circle class="st1" cx="7.57" cy="73.491" r="1.189"/>
						</g>
					</g>
				</g>
				<g>
					<g>
						<g>
							<circle class="st1" cx="93.145" cy="63.983" r="1.189"/>
						</g>
					</g>
					<g>
						<g>
							<circle class="st1" cx="83.637" cy="63.983" r="1.189"/>
						</g>
					</g>
					<g>
						<g>
							<circle class="st1" cx="74.128" cy="63.983" r="1.189"/>
						</g>
					</g>
					<g>
						<g>
							<circle class="st1" cx="64.62" cy="63.983" r="1.189"/>
						</g>
					</g>
					<g>
						<g>
							<circle class="st1" cx="55.112" cy="63.983" r="1.189"/>
						</g>
					</g>
					<g>
						<g>
							<circle class="st1" cx="45.603" cy="63.983" r="1.189"/>
						</g>
					</g>
					<g>
						<g>
							<circle class="st1" cx="36.095" cy="63.983" r="1.189"/>
						</g>
					</g>
					<g>
						<g>
							<circle class="st1" cx="26.586" cy="63.983" r="1.189"/>
						</g>
					</g>
					<g>
						<g>
							<circle class="st1" cx="17.078" cy="63.983" r="1.189"/>
						</g>
					</g>
					<g>
						<g>
							<circle class="st1" cx="7.57" cy="63.983" r="1.189"/>
						</g>
					</g>
				</g>
				<g>
					<g>
						<g>
							<circle class="st1" cx="93.145" cy="54.474" r="1.189"/>
						</g>
					</g>
					<g>
						<g>
							<circle class="st1" cx="83.637" cy="54.474" r="1.189"/>
						</g>
					</g>
					<g>
						<g>
							<circle class="st1" cx="74.128" cy="54.474" r="1.189"/>
						</g>
					</g>
					<g>
						<g>
							<circle class="st1" cx="64.62" cy="54.474" r="1.189"/>
						</g>
					</g>
					<g>
						<g>
							<circle class="st1" cx="55.112" cy="54.474" r="1.189"/>
						</g>
					</g>
					<g>
						<g>
							<circle class="st1" cx="45.603" cy="54.474" r="1.189"/>
						</g>
					</g>
					<g>
						<g>
							<circle class="st1" cx="36.095" cy="54.474" r="1.189"/>
						</g>
					</g>
					<g>
						<g>
							<circle class="st1" cx="26.586" cy="54.474" r="1.189"/>
						</g>
					</g>
					<g>
						<g>
							<circle class="st1" cx="17.078" cy="54.474" r="1.189"/>
						</g>
					</g>
					<g>
						<g>
							<circle class="st1" cx="7.57" cy="54.474" r="1.189"/>
						</g>
					</g>
				</g>
				<g>
					<g>
						<g>
							<circle class="st1" cx="93.145" cy="44.966" r="1.189"/>
						</g>
					</g>
					<g>
						<g>
							<circle class="st1" cx="83.637" cy="44.966" r="1.189"/>
						</g>
					</g>
					<g>
						<g>
							<circle class="st1" cx="74.128" cy="44.966" r="1.189"/>
						</g>
					</g>
					<g>
						<g>
							<circle class="st1" cx="64.62" cy="44.966" r="1.189"/>
						</g>
					</g>
					<g>
						<g>
							<circle class="st1" cx="55.112" cy="44.966" r="1.189"/>
						</g>
					</g>
					<g>
						<g>
							<circle class="st1" cx="45.603" cy="44.966" r="1.189"/>
						</g>
					</g>
					<g>
						<g>
							<circle class="st1" cx="36.095" cy="44.966" r="1.189"/>
						</g>
					</g>
					<g>
						<g>
							<circle class="st1" cx="26.586" cy="44.966" r="1.189"/>
						</g>
					</g>
					<g>
						<g>
							<circle class="st1" cx="17.078" cy="44.966" r="1.189"/>
						</g>
					</g>
					<g>
						<g>
							<circle class="st1" cx="7.57" cy="44.966" r="1.189"/>
						</g>
					</g>
				</g>
				<g>
					<g>
						<g>
							<circle class="st1" cx="93.145" cy="35.458" r="1.189"/>
						</g>
					</g>
					<g>
						<g>
							<circle class="st1" cx="83.637" cy="35.458" r="1.189"/>
						</g>
					</g>
					<g>
						<g>
							<circle class="st1" cx="74.128" cy="35.458" r="1.189"/>
						</g>
					</g>
					<g>
						<g>
							<circle class="st1" cx="64.62" cy="35.458" r="1.189"/>
						</g>
					</g>
					<g>
						<g>
							<circle class="st1" cx="55.112" cy="35.458" r="1.189"/>
						</g>
					</g>
					<g>
						<g>
							<circle class="st1" cx="45.603" cy="35.458" r="1.189"/>
						</g>
					</g>
					<g>
						<g>
							<circle class="st1" cx="36.095" cy="35.458" r="1.189"/>
						</g>
					</g>
					<g>
						<g>
							<circle class="st1" cx="26.586" cy="35.458" r="1.189"/>
						</g>
					</g>
					<g>
						<g>
							<circle class="st1" cx="17.078" cy="35.458" r="1.189"/>
						</g>
					</g>
					<g>
						<g>
							<circle class="st1" cx="7.57" cy="35.458" r="1.189"/>
						</g>
					</g>
				</g>
				<g>
					<g>
						<g>
							<circle class="st1" cx="93.145" cy="25.949" r="1.189"/>
						</g>
					</g>
					<g>
						<g>
							<circle class="st1" cx="83.637" cy="25.949" r="1.189"/>
						</g>
					</g>
					<g>
						<g>
							<circle class="st1" cx="74.128" cy="25.949" r="1.189"/>
						</g>
					</g>
					<g>
						<g>
							<circle class="st1" cx="64.62" cy="25.949" r="1.189"/>
						</g>
					</g>
					<g>
						<g>
							<circle class="st1" cx="55.112" cy="25.949" r="1.189"/>
						</g>
					</g>
					<g>
						<g>
							<circle class="st1" cx="45.603" cy="25.949" r="1.189"/>
						</g>
					</g>
					<g>
						<g>
							<circle class="st1" cx="36.095" cy="25.949" r="1.189"/>
						</g>
					</g>
					<g>
						<g>
							<circle class="st1" cx="26.586" cy="25.949" r="1.189"/>
						</g>
					</g>
					<g>
						<g>
							<circle class="st1" cx="17.078" cy="25.949" r="1.189"/>
						</g>
					</g>
					<g>
						<g>
							<circle class="st1" cx="7.57" cy="25.949" r="1.189"/>
						</g>
					</g>
				</g>
				<g>
					<g>
						<g>
							<circle class="st1" cx="93.145" cy="16.441" r="1.189"/>
						</g>
					</g>
					<g>
						<g>
							<circle class="st1" cx="83.637" cy="16.441" r="1.189"/>
						</g>
					</g>
					<g>
						<g>
							<circle class="st1" cx="74.128" cy="16.441" r="1.189"/>
						</g>
					</g>
					<g>
						<g>
							<circle class="st1" cx="64.62" cy="16.441" r="1.189"/>
						</g>
					</g>
					<g>
						<g>
							<circle class="st1" cx="55.112" cy="16.441" r="1.189"/>
						</g>
					</g>
					<g>
						<g>
							<circle class="st1" cx="45.603" cy="16.441" r="1.189"/>
						</g>
					</g>
					<g>
						<g>
							<circle class="st1" cx="36.095" cy="16.441" r="1.189"/>
						</g>
					</g>
					<g>
						<g>
							<circle class="st1" cx="26.586" cy="16.441" r="1.189"/>
						</g>
					</g>
					<g>
						<g>
							<circle class="st1" cx="17.078" cy="16.441" r="1.189"/>
						</g>
					</g>
					<g>
						<g>
							<circle class="st1" cx="7.57" cy="16.441" r="1.189"/>
						</g>
					</g>
				</g>
				<g>
					<g>
						<g>
							<circle class="st1" cx="93.145" cy="6.933" r="1.189"/>
						</g>
					</g>
					<g>
						<g>
							<circle class="st1" cx="83.637" cy="6.933" r="1.189"/>
						</g>
					</g>
					<g>
						<g>
							<circle class="st1" cx="74.128" cy="6.933" r="1.189"/>
						</g>
					</g>
					<g>
						<g>
							<circle class="st1" cx="64.62" cy="6.933" r="1.189"/>
						</g>
					</g>
					<g>
						<g>
							<circle class="st1" cx="55.112" cy="6.933" r="1.189"/>
						</g>
					</g>
					<g>
						<g>
							<circle class="st1" cx="45.603" cy="6.933" r="1.189"/>
						</g>
					</g>
					<g>
						<g>
							<circle class="st1" cx="36.095" cy="6.933" r="1.189"/>
						</g>
					</g>
					<g>
						<g>
							<circle class="st1" cx="26.586" cy="6.933" r="1.189"/>
						</g>
					</g>
					<g>
						<g>
							<circle class="st1" cx="17.078" cy="6.933" r="1.189"/>
						</g>
					</g>
					<g>
						<g>
							<circle class="st1" cx="7.57" cy="6.933" r="1.189"/>
						</g>
					</g>
				</g>
			</g>
		</g>
		<g>
			<path class="st2" d="M40.011,54.033h38.864c2.63,0,4.762,2.129,4.762,4.754v0c0,2.626-2.132,4.754-4.762,4.754h-9.524
				c-2.63,0-4.762,2.129-4.762,4.754v0c0,2.626,2.132,4.754,4.762,4.754h0c2.63,0,4.762,2.129,4.762,4.754v0
				c0,2.626-2.132,4.754-4.762,4.754H21.73c-2.63,0-4.762-2.129-4.762-4.754v0c0-2.626,2.132-4.754,4.762-4.754h10.292
				c2.206,0,3.995-1.786,3.995-3.988V58.021C36.016,55.819,37.804,54.033,40.011,54.033z"/>
		</g>
		<g>
			<path class="st2" d="M84.715,35.371c0,1.25-0.51,2.38-1.33,3.2s-1.96,1.33-3.21,1.33h-36.92v-9.03h-23.8
				c-1.31,0-2.51-0.53-3.37-1.39c-0.86-0.86-1.39-2.05-1.39-3.36c0-2.63,2.13-4.76,4.76-4.76h43.27c0.24,0,0.48,0.02,0.71,0.06
				c1.09,0.15,2.07,0.66,2.82,1.4c0.9,0.91,1.46,2.16,1.46,3.54s-0.56,2.63-1.46,3.53c-0.39,0.38-0.83,0.7-1.32,0.94h15.24
				C82.685,30.831,84.715,32.861,84.715,35.371z"/>
		</g>
		<g>
			<path class="st3" d="M66.82,65.598H33.478c-0.78,0-1.417-0.638-1.417-1.417v-42.4c0-0.78,0.638-1.417,1.417-1.417H66.82
				c0.78,0,1.417,0.638,1.417,1.417v42.4C68.237,64.96,67.599,65.598,66.82,65.598z"/>
			<path class="st4" d="M66.819,66.098H33.478c-1.057,0-1.917-0.86-1.917-1.918v-42.4c0-1.057,0.86-1.917,1.917-1.917h33.341
				c1.057,0,1.917,0.86,1.917,1.917v42.4C68.737,65.238,67.876,66.098,66.819,66.098z M33.478,20.863
				c-0.506,0-0.917,0.412-0.917,0.917v42.4c0,0.506,0.411,0.918,0.917,0.918h33.341c0.506,0,0.917-0.412,0.917-0.918v-42.4
				c0-0.506-0.412-0.917-0.917-0.917H33.478z"/>
		</g>
		<g>
			<path class="st2" d="M63.256,38.98H51.778c-0.39,0-0.706-0.316-0.706-0.706V26.796c0-0.39,0.316-0.706,0.706-0.706h11.478
				c0.39,0,0.706,0.316,0.706,0.706v11.478C63.961,38.664,63.645,38.98,63.256,38.98z"/>
			<path class="st4" d="M63.255,39.23H51.778c-0.527,0-0.956-0.429-0.956-0.956V26.796c0-0.527,0.429-0.956,0.956-0.956h11.478
				c0.527,0,0.956,0.429,0.956,0.956v11.478C64.211,38.801,63.783,39.23,63.255,39.23z M51.778,26.34
				c-0.251,0-0.456,0.205-0.456,0.456v11.478c0,0.251,0.205,0.456,0.456,0.456h11.478c0.251,0,0.456-0.205,0.456-0.456V26.796
				c0-0.251-0.205-0.456-0.456-0.456H51.778z"/>
		</g>
		<g>
			<path class="st4" d="M56.718,34.822c-0.211,0-0.409-0.082-0.558-0.231l-2.186-2.186c-0.195-0.195-0.195-0.512,0-0.707
				s0.512-0.195,0.707,0l2.037,2.037l3.479-3.479c0.195-0.195,0.512-0.195,0.707,0s0.195,0.512,0,0.707l-3.629,3.629
				C57.127,34.74,56.929,34.822,56.718,34.822z"/>
		</g>
		<g>
			<path class="st2" d="M63.178,57.063H51.7c-0.39,0-0.706-0.316-0.706-0.706V44.879c0-0.39,0.316-0.706,0.706-0.706h11.478
				c0.39,0,0.706,0.316,0.706,0.706v11.478C63.884,56.747,63.568,57.063,63.178,57.063z"/>
			<path class="st4" d="M63.178,57.313H51.701c-0.527,0-0.956-0.429-0.956-0.956V44.879c0-0.527,0.429-0.956,0.956-0.956h11.478
				c0.527,0,0.956,0.429,0.956,0.956v11.478C64.134,56.884,63.706,57.313,63.178,57.313z M51.701,44.424
				c-0.251,0-0.456,0.205-0.456,0.456v11.478c0,0.252,0.205,0.456,0.456,0.456h11.478c0.251,0,0.456-0.204,0.456-0.456V44.879
				c0-0.251-0.205-0.456-0.456-0.456H51.701z"/>
		</g>
		<g>
			<path class="st4" d="M56.641,52.906c-0.211,0-0.409-0.082-0.559-0.232l-2.186-2.185c-0.195-0.195-0.195-0.512,0-0.707
				s0.512-0.195,0.707,0l2.037,2.037l3.479-3.479c0.195-0.195,0.512-0.195,0.707,0s0.195,0.512,0,0.707l-3.629,3.628
				C57.051,52.823,56.853,52.906,56.641,52.906C56.642,52.906,56.641,52.906,56.641,52.906z M56.491,51.967
				c0,0.001,0,0.001-0.001,0.002L56.491,51.967z"/>
		</g>
		<g>
			<path class="st4" d="M37.421,22.781c-0.276,0-0.5-0.224-0.5-0.5v-4.651c0-0.276,0.224-0.5,0.5-0.5s0.5,0.224,0.5,0.5v4.651
				C37.921,22.557,37.697,22.781,37.421,22.781z"/>
		</g>
		<g>
			<path class="st4" d="M43.8,22.781c-0.276,0-0.5-0.224-0.5-0.5v-4.651c0-0.276,0.224-0.5,0.5-0.5s0.5,0.224,0.5,0.5v4.651
				C44.3,22.557,44.076,22.781,43.8,22.781z"/>
		</g>
		<g>
			<path class="st4" d="M50.149,22.781c-0.276,0-0.5-0.224-0.5-0.5v-4.651c0-0.276,0.224-0.5,0.5-0.5s0.5,0.224,0.5,0.5v4.651
				C50.649,22.557,50.425,22.781,50.149,22.781z"/>
		</g>
		<g>
			<path class="st4" d="M56.209,22.781c-0.276,0-0.5-0.224-0.5-0.5v-4.651c0-0.276,0.224-0.5,0.5-0.5s0.5,0.224,0.5,0.5v4.651
				C56.709,22.557,56.486,22.781,56.209,22.781z"/>
		</g>
		<g>
			<path class="st4" d="M63.924,22.781c-0.276,0-0.5-0.224-0.5-0.5v-4.651c0-0.276,0.224-0.5,0.5-0.5s0.5,0.224,0.5,0.5v4.651
				C64.424,22.557,64.2,22.781,63.924,22.781z"/>
		</g>
		<g>
			<circle class="st3" cx="36.09" cy="62.794" r="13.26"/>
			<path class="st4" d="M36.09,76.554c-7.587,0-13.76-6.173-13.76-13.76s6.172-13.76,13.76-13.76s13.76,6.173,13.76,13.76
				S43.678,76.554,36.09,76.554z M36.09,50.035c-7.036,0-12.76,5.724-12.76,12.76s5.724,12.76,12.76,12.76s12.76-5.724,12.76-12.76
				S43.126,50.035,36.09,50.035z"/>
		</g>
		<g>
			<path class="st5" d="M43.817,64.378l0.055-2.73l-1.984-0.455l-0.236-0.983l0.764-1.584l-2.093-1.857l-1.438,1.129l-0.947-0.801
				l-0.419-1.656l-2.73-0.127l-0.273,1.784l-1.402,0.801l-1.365-1.292l-2.002,1.82l0.837,1.711l-0.273,1.147l-1.93,0.601
				l0.146,2.621l1.565,0.291l0.601,1.11l-0.874,1.62l2.093,1.82l1.42-0.947l0.928,0.564l0.601,1.784l2.621-0.109l0.182-1.675
				l1.329-0.4l1.638,0.855l1.82-1.929l-0.91-1.365l0.637-1.329L43.817,64.378z M36.099,65.161c-1.183,0-2.148-0.965-2.148-2.13
				c0-1.183,0.965-2.148,2.148-2.148c1.165,0,2.13,0.965,2.13,2.148C38.229,64.196,37.264,65.161,36.099,65.161z"/>
		</g>
		<g>
			<path class="st4" d="M37.096,71.065h-2.012c-0.389,0-0.72-0.291-0.771-0.677l-0.163-1.265c-0.007-0.002-0.015-0.005-0.022-0.007
				l-0.656-0.252l0.038-0.258l-0.104,0.228c-0.061-0.027-0.122-0.058-0.184-0.088l-0.068-0.036l-1.01,0.779
				c-0.309,0.237-0.749,0.209-1.024-0.066L29.699,68c-0.275-0.275-0.304-0.715-0.066-1.023l0.779-1.009
				c-0.003-0.007-0.006-0.014-0.01-0.021l-0.3-0.679c-0.036-0.096-0.058-0.16-0.079-0.226L30,64.971l-1.265-0.163
				c-0.387-0.051-0.678-0.382-0.678-0.771v-2.013c0-0.389,0.291-0.721,0.677-0.771l1.27-0.183c0.04-0.117,0.062-0.183,0.086-0.248
				l0.195-0.473c0.031-0.065,0.059-0.125,0.089-0.183l0.037-0.071l-0.779-1.012c-0.238-0.308-0.21-0.748,0.066-1.022l1.422-1.424
				c0.276-0.277,0.715-0.302,1.024-0.065l1.008,0.778l0.7-0.31c0.094-0.035,0.16-0.058,0.225-0.079l0.072-0.022l0.163-1.266
				c0.05-0.386,0.381-0.677,0.771-0.677h2.011c0.39,0,0.721,0.291,0.771,0.677l0.163,1.264c0.007,0.003,0.014,0.005,0.021,0.008
				l0.082,0.027c0.055,0.018,0.11,0.036,0.165,0.058l0.364,0.146c0.057,0.024,0.088,0.039,0.119,0.054
				c0.053,0.023,0.114,0.054,0.175,0.085l0.072,0.035l1.008-0.778c0.307-0.238,0.747-0.212,1.023,0.065l1.423,1.424
				c0.276,0.274,0.305,0.715,0.066,1.023l-0.779,1.009l0.322,0.731c0.022,0.058,0.043,0.12,0.064,0.183l0.027,0.082l1.264,0.163
				c0.386,0.051,0.677,0.382,0.677,0.771v2.013c0,0.39-0.292,0.721-0.678,0.77l-1.269,0.183l-0.282,0.722
				c-0.029,0.064-0.061,0.128-0.093,0.192c-0.012,0.023-0.022,0.045-0.032,0.063l0.779,1.01c0.237,0.309,0.208,0.749-0.066,1.023
				l-1.423,1.423c-0.275,0.275-0.715,0.305-1.023,0.065l-1.009-0.777c-0.006,0.003-0.013,0.006-0.019,0.01l-0.301,0.144
				c-0.083,0.037-0.127,0.057-0.172,0.075l-0.504,0.183l-0.163,1.266C37.816,70.774,37.485,71.065,37.096,71.065z M33.757,68.443
				l0.477,0.182c0.106,0.035,0.159,0.051,0.213,0.066l0.158,0.045l0.205,1.588c0.018,0.138,0.136,0.241,0.274,0.241h2.012
				c0.139,0,0.257-0.104,0.274-0.241l0.205-1.587l0.963-0.345l0.536-0.275l1.267,0.977c0.11,0.087,0.266,0.075,0.364-0.023
				l1.423-1.423c0.098-0.099,0.108-0.255,0.024-0.365l-0.978-1.267l0.08-0.144c0.028-0.051,0.055-0.102,0.082-0.153
				c0.048-0.096,0.077-0.153,0.103-0.211l0.357-0.99l1.586-0.206c0.138-0.018,0.242-0.135,0.242-0.273v-2.013
				c0-0.139-0.104-0.257-0.241-0.274l-1.586-0.204l-0.115-0.378c-0.019-0.06-0.038-0.114-0.057-0.166l-0.252-0.586l0.185-0.189
				l-0.222,0.115l-0.161-0.294l0.979-1.268c0.084-0.11,0.075-0.267-0.023-0.364l-1.424-1.424c-0.098-0.099-0.255-0.106-0.364-0.023
				l-1.267,0.978l-0.293-0.159c-0.106-0.053-0.161-0.079-0.213-0.104l-0.593-0.236l-0.001-0.264l-0.078,0.237
				c-0.054-0.018-0.107-0.034-0.163-0.05l-0.158-0.045L37.37,55.74c-0.018-0.138-0.136-0.241-0.274-0.241h-2.011
				c-0.139,0-0.257,0.104-0.274,0.241l-0.205,1.586l-0.319,0.096c-0.111,0.036-0.17,0.057-0.228,0.078l-0.152-0.21l0.091,0.232
				l-0.891,0.426l-1.267-0.978c-0.11-0.087-0.267-0.075-0.365,0.022l-1.423,1.424c-0.098,0.098-0.108,0.254-0.023,0.363l0.977,1.268
				l-0.415,0.867l-0.267-0.003l0.234,0.088c-0.022,0.06-0.042,0.119-0.064,0.185l-0.109,0.361l-1.587,0.205
				c-0.137,0.018-0.241,0.136-0.241,0.274v2.013c0,0.139,0.104,0.257,0.242,0.274l1.585,0.204l0.097,0.323
				c0.036,0.107,0.055,0.166,0.077,0.224l-0.208,0.155l0.232-0.092l0.239,0.544c0.052,0.103,0.078,0.151,0.105,0.201l0.08,0.144
				l-0.978,1.267c-0.084,0.11-0.074,0.268,0.024,0.365l1.423,1.423c0.098,0.099,0.254,0.107,0.365,0.023l1.265-0.976l0.293,0.156
				c0.105,0.054,0.161,0.08,0.216,0.105l-0.035,0.259l0.101-0.229l-0.022,0.263L33.757,68.443z M36.09,65.815
				c-1.535,0-2.784-1.249-2.784-2.784s1.249-2.784,2.784-2.784c1.536,0,2.785,1.249,2.785,2.784S37.626,65.815,36.09,65.815z
				 M36.09,60.746c-1.259,0-2.284,1.024-2.284,2.284s1.025,2.284,2.284,2.284c1.26,0,2.285-1.024,2.285-2.284
				S37.35,60.746,36.09,60.746z"/>
		</g>
		<g>
			<g>
				<g>
					<path class="st4" d="M47.139,31.965H37.126c-0.276,0-0.5-0.224-0.5-0.5s0.224-0.5,0.5-0.5h10.012c0.276,0,0.5,0.224,0.5,0.5
						S47.415,31.965,47.139,31.965z"/>
				</g>
				<g>
					<path class="st4" d="M47.139,31.965H37.126c-0.276,0-0.5-0.224-0.5-0.5s0.224-0.5,0.5-0.5h10.012c0.276,0,0.5,0.224,0.5,0.5
						S47.415,31.965,47.139,31.965z"/>
				</g>
			</g>
		</g>
		<g>
			<g>
				<g>
					<path class="st4" d="M47.139,41.878H37.126c-0.276,0-0.5-0.224-0.5-0.5s0.224-0.5,0.5-0.5h10.012c0.276,0,0.5,0.224,0.5,0.5
						S47.415,41.878,47.139,41.878z"/>
				</g>
				<g>
					<path class="st4" d="M47.139,41.878H37.126c-0.276,0-0.5-0.224-0.5-0.5s0.224-0.5,0.5-0.5h10.012c0.276,0,0.5,0.224,0.5,0.5
						S47.415,41.878,47.139,41.878z"/>
				</g>
			</g>
		</g>
		<g>
			<g>
				<g>
					<path class="st4" d="M47.139,51.906h-4.257c-0.276,0-0.5-0.224-0.5-0.5s0.224-0.5,0.5-0.5h4.257c0.276,0,0.5,0.224,0.5,0.5
						S47.415,51.906,47.139,51.906z"/>
				</g>
				<g>
					<path class="st4" d="M47.139,51.906h-4.257c-0.276,0-0.5-0.224-0.5-0.5s0.224-0.5,0.5-0.5h4.257c0.276,0,0.5,0.224,0.5,0.5
						S47.415,51.906,47.139,51.906z"/>
				</g>
			</g>
		</g>
	</g>
</g>
</svg>
