<?xml version="1.0" encoding="utf-8"?>
<!-- Generator: Adobe Illustrator 21.1.0, SVG Export Plug-In . SVG Version: 6.00 Build 0)  -->
<svg version="1.1" id="Layer_3" xmlns="http://www.w3.org/2000/svg" xmlns:xlink="http://www.w3.org/1999/xlink" x="0px" y="0px"
	 viewBox="0 0 2361.236 774.077" style="enable-background:new 0 0 2361.236 774.077;" xml:space="preserve">
<style type="text/css">
	.st0{fill:#E4CDB5;}
	.st1{fill:#333333;}
</style>
<g>
	<polygon class="st0" points="156.235,587.545 153.585,598.603 154.653,602.371 161.668,607.992 171.633,611.058 221.965,609.168 
		225.31,607.361 225.31,600.361 222.835,597.43 214.177,594.833 200.634,589.664 193.992,583.087 	"/>
</g>
<g>
	<polygon class="st0" points="209.04,374.183 215.466,339.083 221.337,263.784 224.25,246.34 231.155,234.437 242.987,221.328 
		249.236,216.911 277.568,240.436 286.704,270.507 288.785,287.668 287.768,324.877 275.853,330.371 272.491,326.286 
		270.055,291.928 240.817,295.011 241.303,296.919 254.334,346.203 257.868,350.638 264.401,354.042 270.583,354.509 
		285.464,352.264 282.887,374.18 	"/>
</g>
<g>
	<polygon class="st0" points="327.121,584.017 359.236,564.806 367.552,565.865 386.908,564.566 395.008,565.174 399.011,569.475 
		398.04,572.808 357.463,600.084 348.197,600.084 337.349,599.705 332.86,596.958 	"/>
</g>
<g>
	<path class="st1" d="M175.373,612.561c-0.898,0-1.573-0.01-1.976-0.03c-5.517-0.276-21.402-6.13-21.312-13.945
		c0.031-2.543,0.935-6.127,2.688-10.66c-1.761-4.874,3.887-22.021,5.05-25.447l28.211-71.355c0.194-0.602,22.423-68.9,19.391-94.374
		c-2.781-23.274,5.887-55.179,6.258-56.526c1.656-6.625,2.711-24.325,3.828-43.063c1.395-23.394,2.711-45.49,5.371-51.433
		c8.275-18.533,23.037-28.479,25.302-29.925c2.966-4.247,7.123-10.778,7.481-12.618c0.007-0.063,0.018-0.122,0.031-0.177
		c-0.608-3.518-0.466-9,0.425-16.309c0.464-3.875,1.102-9.187,3.411-13.944c0.271-0.563,0.543-1.149,0.82-1.746
		c1.946-4.194,4.151-8.949,8.705-11.729c0.306-0.187,0.645-0.399,1.014-0.629c4.612-2.884,13.189-8.253,21.765-6.826
		c8.667,1.456,20.962,6.409,27.103,15.579c3.285,4.877,4.307,8.008,3.311,10.148c-0.443,0.952-1.241,1.611-2.379,1.969
		c-0.315,4.852-2.723,12.647-6.956,16.302c-0.248,0.215-0.444,0.921-0.579,2.095c-0.021,0.248-0.054,0.473-0.089,0.682
		c0.002,0.262,0.009,0.656,0.019,1.15l0.018,0.981c0.232,10.764-0.063,14.238-1.378,16.154c-1.611,2.328-4.262,3.362-7.558,2.976
		c-3.405,6.198-8.908,15.555-16.996,12.046c-0.606-0.269-1.365-0.663-2.244-1.119l-0.499-0.258
		c-1.536-0.831-2.882-1.502-3.926-1.963c-0.459,3.655-0.577,8.744-0.607,11.385c0.53,1.152,11.401,25.204,11.401,54.463
		c0,6.294-0.383,16.167-1.14,29.366c1.02-0.142,2.04-0.279,3.059-0.417l0.681-0.092c8.027-1.091,15.609-2.122,20.031-3.105
		c1.597-0.367,3.285-0.941,5.071-1.549l0.476-0.162c2.811-0.988,6.329-2.223,9.89-2.542c7.471-0.676,8.98-1.217,13.062-2.989
		c4.016-1.734,7.17-0.651,8.912,1.414l16.231-8.18l3.873,6.829l-9.459,4.819c0.738,1.182,1.386,2.732,1.546,4.649
		c0.333,4.338-1.996,8.729-6.92,13.059c-6.222,5.5-19.477,7.209-23.601,7.209c-0.563,0-2.261,0-10.651-2.571
		c-3.552,0.744-13.459,4.744-20.757,7.689c-4.498,1.812-9.261,3.724-13.929,5.501l-2.447,20.802
		c0.464,2.833,5.505,33.524,7.594,43.466c1.985,9.378,8.814,21.929,12.096,27.96c7.179,13.237,16.566,31.339,24.5,47.242
		c1.366,2.746,2.802,5.671,4.357,8.836c6.284,12.795,14.891,30.317,28.632,55.829c1.113,2.085,1.046,4.29-0.212,6.705
		c2.573,0.896,5.981,0.402,9.046-0.04c1.09-0.157,2.119-0.306,3.093-0.393c3.416-0.31,20.604-1.73,23.229,0.682l0.286,0.261
		c1.885,1.717,3.665,3.338,3.602,5.671c-0.049,1.834-1.277,3.672-3.863,5.785l-0.002,0.002c-5.249,4.27-22.495,16.447-38.575,25.248
		l-0.269,0.147l-0.305,0.03c-5.682,0.555-24.366,1.896-26.186-4.189c-1.634-5.429-5.575-12.573-5.614-12.645l-0.047-0.093
		c0-0.001-6.16-13.213-13.67-29.186c-9.778-20.805-21.774-47.343-22.854-49.731l-40.255-50.438
		c-6.121,12.894-27.657,65.138-32.409,82.363c-4.947,17.936-17.362,44.729-17.487,44.997l-0.203,0.438l-0.42,0.237
		c-0.35,0.197-0.881,0.415-1.585,0.649c2.017,3.735,14.229,7.537,19.08,9.047c0.646,0.201,1.249,0.39,1.798,0.563
		c6.945,2.21,9.415,4.237,9.436,11.222c0.022,5.211-3.047,5.591-4.522,5.772c-0.159,0.02-0.313,0.038-0.462,0.063
		C216.223,611.584,184.432,612.56,175.373,612.561z M157.525,586.693c0.041,0.043,0.082,0.09,0.122,0.143l0.516,0.675l-0.314,0.79
		c-1.806,4.539-2.736,8.011-2.764,10.321c-0.056,4.866,12.775,10.629,18.462,10.913c4.283,0.214,41.98-0.877,48.186-1.849
		c0.175-0.028,0.371-0.053,0.57-0.078c1.306-0.161,1.901-0.234,1.891-2.783c-0.016-5.196-1.045-6.37-7.344-8.374
		c-0.543-0.173-1.142-0.359-1.781-0.559c-10.865-3.382-21.473-7.166-21.473-12.935v-1.136l1.093-0.308
		c0.891-0.252,1.52-0.465,1.908-0.618c1.716-3.74,12.575-27.68,17.087-44.033c5.111-18.529,29.516-77.311,33.685-85.052l1.077-2
		l43.451,54.517c0.126,0.279,12.726,28.188,22.912,49.861c7.255,15.428,13.249,28.281,13.653,29.147
		c0.381,0.692,4.164,7.627,5.838,13.189c0.743,2.484,12.283,3.082,22.716,2.095c15.114-8.303,32.382-20.347,37.851-24.796
		c2.253-1.84,2.745-2.941,2.761-3.54c0.026-0.96-1.202-2.078-2.623-3.373l-0.293-0.267c-1.485-0.908-12.241-0.691-20.934,0.095
		c-0.894,0.079-1.884,0.223-2.932,0.374c-3.938,0.57-8.841,1.277-12.424-1.05l-1.296-0.842l0.881-1.271
		c1.818-2.623,1.454-4.079,0.933-5.056c-13.766-25.556-22.386-43.107-28.681-55.924c-1.552-3.159-2.987-6.08-4.35-8.82
		c-7.799-15.633-17.396-34.141-24.451-47.148c-5.102-9.377-10.565-20.13-12.395-28.772c-2.194-10.442-7.6-43.477-7.654-43.809
		l-0.034-0.208l2.708-23.031l0.853-0.322c4.91-1.857,9.964-3.884,14.721-5.801c10.296-4.156,18.433-7.379,21.717-7.93l0.35-0.059
		l0.34,0.104c7.461,2.299,9.565,2.547,10.123,2.547c4.211,0,16.412-1.859,21.617-6.46c4.181-3.677,6.169-7.232,5.914-10.57
		c-0.172-2.059-1.149-3.535-1.939-4.41l-1.312-1.453l9.998-5.094l-0.916-1.615l-16.208,8.168l-0.673-1.346
		c-0.721-1.443-2.691-2.64-5.868-1.268c-4.234,1.839-6.101,2.511-13.985,3.225c-3.189,0.285-6.372,1.403-9.18,2.389l-0.489,0.167
		c-1.861,0.633-3.619,1.23-5.375,1.635c-4.556,1.013-12.198,2.051-20.289,3.151l-0.665,0.09c-1.634,0.22-3.25,0.438-4.866,0.674
		l-1.822,0.266l0.107-1.838c0.823-14.062,1.241-24.5,1.241-31.022c0-27.45-9.757-50.154-11.006-52.943l-0.406-0.347l0.006-0.698
		c0.024-2.934,0.165-10.189,0.941-14.201l0.309-1.597l1.566,0.437c1.575,0.439,4.199,1.772,6.123,2.812l0.479,0.248
		c0.835,0.434,1.557,0.808,2.067,1.035c5.439,2.358,9.511-4.069,13.546-11.448l0.65-1.193l1.087,0.223
		c2.623,0.537,4.506,0.012,5.594-1.56c0.939-1.37,1.023-6.316,0.849-14.395l-0.018-0.983c-0.011-0.608-0.02-1.071-0.02-1.333
		l0.024-0.269c0.028-0.155,0.058-0.324,0.072-0.506l0.013-0.122c0.118-1.023,0.337-2.926,1.595-4.019
		c3.735-3.226,6.021-11.18,5.954-15.239l-0.022-1.37l1.362-0.146c0.411-0.044,1.125-0.17,1.285-0.514
		c0.121-0.26,0.541-1.831-3.082-7.21c-5.251-7.843-16.393-12.829-25.106-14.292c-7.446-1.24-15.405,3.738-19.681,6.411
		c-0.378,0.236-0.725,0.454-1.039,0.646c-3.779,2.308-5.695,6.438-7.548,10.432c-0.283,0.61-0.561,1.209-0.84,1.789
		c-2.092,4.31-2.694,9.332-3.134,13c-0.876,7.186-1.008,12.641-0.384,15.778l0.059,0.296l-0.061,0.296
		c-0.028,0.139-0.07,0.258-0.108,0.347c-0.684,3.266-6.887,12.214-8.14,13.999l-0.179,0.254l-0.266,0.163
		c-0.159,0.097-16.005,9.958-24.4,28.76c-2.436,5.444-3.859,29.321-5.115,50.387c-1.125,18.881-2.188,36.716-3.921,43.646
		c-0.098,0.358-8.891,32.724-6.181,55.409c3.111,26.131-18.622,92.918-19.549,95.748l-28.216,71.371
		C159.969,571.378,156.687,583.568,157.525,586.693z M157.603,586.927c0.003,0.01,0.007,0.019,0.011,0.027
		C157.61,586.946,157.606,586.936,157.603,586.927z"/>
</g>
<g>
	
		<rect x="261.903" y="210.261" transform="matrix(0.6388 -0.7694 0.7694 0.6388 -80.7957 285.2434)" class="st1" width="2.999" height="36.825"/>
</g>
<g>
	<rect x="209.04" y="372.681" class="st1" width="73.847" height="3"/>
</g>
<g>
	
		<rect x="156.1" y="583.752" transform="matrix(0.9931 -0.1172 0.1172 0.9931 -67.3916 24.626)" class="st1" width="39.13" height="2.999"/>
</g>
<g>
	
		<rect x="324.468" y="572.912" transform="matrix(0.8582 -0.5134 0.5134 0.8582 -246.2206 257.6646)" class="st1" width="37.423" height="3"/>
</g>
<g>
	
		<rect x="235.115" y="409.228" transform="matrix(0.8557 -0.5175 0.5175 0.8557 -189.6899 184.8546)" class="st1" width="3" height="46.661"/>
</g>
<g>
	<path class="st1" d="M268.155,356.01c-7.825,0-14.682-5.247-16.65-12.972l-12.57-49.337l32.506-3.427l2.546,35.907
		c0.05,0.701,0.412,1.329,0.992,1.725c0.58,0.395,1.298,0.501,1.968,0.291l15.213-4.781l0.899,2.862l-15.213,4.781
		c-1.55,0.489-3.211,0.242-4.556-0.673c-1.344-0.915-2.181-2.371-2.296-3.993l-2.326-32.81l-25.97,2.739l11.714,45.977
		c1.735,6.813,8.075,11.289,15.079,10.651l7.872-0.721l7.83-1.439l0.543,2.95l-8.031,1.471l-7.94,0.727
		C269.225,355.986,268.688,356.01,268.155,356.01z"/>
</g>
<g>
	
		<rect x="235.216" y="279.257" transform="matrix(0.8731 -0.4875 0.4875 0.8731 -110.2098 151.9124)" class="st1" width="3" height="16.822"/>
</g>
<g>
	<rect x="268.555" y="255.398" class="st1" width="3" height="36.53"/>
</g>
<g>
	<path class="st1" d="M1986.193,464.648l-2.139-2.104l8.416-8.554l2.139,2.104L1986.193,464.648z M2003.026,447.54l-2.139-2.104
		l8.416-8.554l2.139,2.104L2003.026,447.54z M2019.858,430.433l-2.139-2.104l8.417-8.554l2.139,2.104L2019.858,430.433z
		 M2036.691,413.325l-2.139-2.104l8.416-8.554l2.139,2.104L2036.691,413.325z M2053.524,396.218l-2.139-2.104l8.416-8.553
		l2.139,2.104L2053.524,396.218z M2070.356,379.112l-2.139-2.104l8.417-8.554l2.139,2.104L2070.356,379.112z M2087.189,362.005
		l-2.139-2.104l8.417-8.554l2.139,2.104L2087.189,362.005z M2104.022,344.897l-2.139-2.104l8.416-8.554l2.139,2.104
		L2104.022,344.897z M2120.855,327.79l-2.139-2.104l8.416-8.554l2.139,2.104L2120.855,327.79z M2137.687,310.682l-2.139-2.104
		l8.417-8.554l2.139,2.104L2137.687,310.682z"/>
</g>
<g>
	<path class="st1" d="M1925.693,460.94l-8.416-8.554l2.139-2.104l8.416,8.554L1925.693,460.94z M1908.861,443.832l-8.417-8.554
		l2.139-2.104l8.417,8.554L1908.861,443.832z M1892.028,426.725l-8.416-8.554l2.139-2.104l8.416,8.554L1892.028,426.725z
		 M1875.195,409.617l-8.416-8.554l2.139-2.104l8.416,8.554L1875.195,409.617z M1858.363,392.51l-8.417-8.554l2.139-2.104
		l8.417,8.554L1858.363,392.51z M1841.53,375.403l-8.416-8.554l2.139-2.104l8.416,8.554L1841.53,375.403z M1824.697,358.296
		l-8.416-8.554l2.139-2.104l8.416,8.554L1824.697,358.296z M1807.865,341.189l-8.417-8.554l2.139-2.104l8.417,8.554
		L1807.865,341.189z M1791.032,324.081l-8.416-8.554l2.139-2.104l8.416,8.554L1791.032,324.081z M1774.199,306.974l-8.416-8.554
		l2.139-2.104l8.416,8.554L1774.199,306.974z"/>
</g>
<g>
	<path class="st1" d="M1549.044,466.247l-2.139-2.104l8.416-8.554l2.139,2.104L1549.044,466.247z M1565.876,449.14l-2.139-2.104
		l8.417-8.554l2.139,2.104L1565.876,449.14z M1582.709,432.033l-2.139-2.104l8.416-8.555l2.139,2.104L1582.709,432.033z
		 M1599.541,414.924l-2.139-2.104l8.416-8.554l2.139,2.104L1599.541,414.924z M1616.373,397.817l-2.139-2.104l8.417-8.554
		l2.139,2.104L1616.373,397.817z M1633.206,380.71l-2.139-2.104l8.416-8.554l2.139,2.104L1633.206,380.71z M1650.038,363.602
		l-2.139-2.104l8.416-8.554l2.139,2.104L1650.038,363.602z M1666.871,346.494l-2.139-2.104l8.416-8.554l2.139,2.104
		L1666.871,346.494z M1683.703,329.387l-2.139-2.104l8.416-8.554l2.139,2.104L1683.703,329.387z M1700.535,312.279l-2.139-2.104
		l8.416-8.554l2.139,2.104L1700.535,312.279z"/>
</g>
<g>
	<path class="st1" d="M1490.306,461.127l-8.416-8.554l2.139-2.104l8.416,8.554L1490.306,461.127z M1473.474,444.019l-8.416-8.554
		l2.139-2.104l8.416,8.554L1473.474,444.019z M1456.642,426.911l-8.416-8.554l2.139-2.104l8.416,8.554L1456.642,426.911z
		 M1439.81,409.803l-8.416-8.554l2.139-2.104l8.416,8.554L1439.81,409.803z M1422.978,392.696l-8.416-8.554l2.139-2.104l8.416,8.554
		L1422.978,392.696z M1406.146,375.588l-8.416-8.554l2.139-2.104l8.416,8.554L1406.146,375.588z M1389.314,358.48l-8.416-8.554
		l2.139-2.104l8.416,8.554L1389.314,358.48z M1372.482,341.372l-8.416-8.554l2.139-2.104l8.416,8.554L1372.482,341.372z
		 M1355.65,324.264l-8.416-8.554l2.139-2.104l8.416,8.554L1355.65,324.264z M1338.818,307.156l-8.416-8.554l2.139-2.104l8.416,8.554
		L1338.818,307.156z"/>
</g>
<g>
	<path class="st1" d="M1114.217,465.507l-2.139-2.104l8.416-8.554l2.139,2.104L1114.217,465.507z M1131.049,448.4l-2.139-2.104
		l8.417-8.555l2.139,2.104L1131.049,448.4z M1147.881,431.291l-2.139-2.104l8.416-8.554l2.139,2.104L1147.881,431.291z
		 M1164.714,414.184l-2.139-2.104l8.416-8.554l2.139,2.104L1164.714,414.184z M1181.546,397.076l-2.139-2.104l8.416-8.555
		l2.139,2.104L1181.546,397.076z M1198.379,379.969l-2.139-2.104l8.416-8.554l2.139,2.104L1198.379,379.969z M1215.211,362.861
		l-2.139-2.104l8.416-8.554l2.139,2.104L1215.211,362.861z M1232.043,345.753l-2.139-2.104l8.416-8.554l2.139,2.104
		L1232.043,345.753z M1248.875,328.645l-2.139-2.104l8.416-8.554l2.139,2.104L1248.875,328.645z M1265.707,311.537l-2.139-2.104
		l8.417-8.554l2.139,2.104L1265.707,311.537z"/>
</g>
<g>
	<path class="st1" d="M1054.922,461.3l-8.416-8.554l2.139-2.104l8.416,8.554L1054.922,461.3z M1038.09,444.192l-8.416-8.554
		l2.139-2.104l8.416,8.554L1038.09,444.192z M1021.258,427.084l-8.416-8.554l2.139-2.104l8.416,8.554L1021.258,427.084z
		 M1004.426,409.976l-8.417-8.554l2.139-2.104l8.417,8.554L1004.426,409.976z M987.594,392.868l-8.416-8.554l2.139-2.104
		l8.416,8.554L987.594,392.868z M970.762,375.761l-8.416-8.554l2.139-2.104l8.416,8.554L970.762,375.761z M953.93,358.653
		l-8.416-8.554l2.139-2.104l8.416,8.554L953.93,358.653z M937.098,341.545l-8.417-8.554l2.139-2.104l8.417,8.554L937.098,341.545z
		 M920.265,324.437l-8.416-8.554l2.139-2.104l8.416,8.554L920.265,324.437z M903.433,307.329l-8.416-8.554l2.139-2.104l8.416,8.554
		L903.433,307.329z"/>
</g>
<g>
	<path class="st1" d="M679.379,464.779l-2.139-2.104l8.416-8.554l2.139,2.104L679.379,464.779z M696.211,447.671l-2.139-2.104
		l8.417-8.555l2.139,2.104L696.211,447.671z M713.044,430.563l-2.139-2.104l8.416-8.554l2.139,2.104L713.044,430.563z
		 M729.876,413.455l-2.139-2.104l8.416-8.554l2.139,2.104L729.876,413.455z M746.708,396.347l-2.139-2.104l8.417-8.554l2.139,2.104
		L746.708,396.347z M763.54,379.24l-2.139-2.104l8.416-8.554l2.139,2.104L763.54,379.24z M780.372,362.132l-2.139-2.104l8.416-8.554
		l2.139,2.104L780.372,362.132z M797.204,345.024l-2.139-2.104l8.417-8.554l2.139,2.104L797.204,345.024z M814.037,327.916
		l-2.139-2.104l8.416-8.554l2.139,2.104L814.037,327.916z M830.869,310.809l-2.139-2.104l8.416-8.554l2.139,2.104L830.869,310.809z"
		/>
</g>
<g>
	<circle class="st0" cx="868.863" cy="270.054" r="38.821"/>
	<path class="st1" d="M868.863,310.375c-22.233,0-40.321-18.088-40.321-40.321c0-22.233,18.088-40.321,40.321-40.321
		c22.233,0,40.321,18.088,40.321,40.321C909.184,292.287,891.096,310.375,868.863,310.375z M868.863,232.733
		c-20.579,0-37.321,16.742-37.321,37.321c0,20.579,16.742,37.321,37.321,37.321c20.579,0,37.321-16.742,37.321-37.321
		C906.184,249.475,889.442,232.733,868.863,232.733z"/>
</g>
<g>
	<path class="st1" d="M651.084,531.719c-22.233,0-40.321-18.088-40.321-40.321c0-22.232,18.088-40.32,40.321-40.32
		c22.233,0,40.321,18.088,40.321,40.32C691.405,513.631,673.317,531.719,651.084,531.719z M651.084,454.077
		c-20.579,0-37.321,16.742-37.321,37.32c0,20.579,16.742,37.321,37.321,37.321c20.579,0,37.321-16.742,37.321-37.321
		C688.405,470.82,671.663,454.077,651.084,454.077z"/>
</g>
<g>
	<path class="st1" d="M1085.208,531.719c-22.233,0-40.321-18.088-40.321-40.321c0-22.232,18.088-40.32,40.321-40.32
		c22.233,0,40.321,18.088,40.321,40.32C1125.529,513.631,1107.441,531.719,1085.208,531.719z M1085.208,454.077
		c-20.579,0-37.321,16.742-37.321,37.32c0,20.579,16.742,37.321,37.321,37.321c20.579,0,37.321-16.742,37.321-37.321
		C1122.529,470.82,1105.787,454.077,1085.208,454.077z"/>
</g>
<g>
	<circle class="st0" cx="1304.068" cy="270.054" r="38.821"/>
	<path class="st1" d="M1304.068,310.375c-22.233,0-40.321-18.088-40.321-40.321c0-22.233,18.088-40.321,40.321-40.321
		s40.321,18.088,40.321,40.321C1344.389,292.287,1326.301,310.375,1304.068,310.375z M1304.068,232.733
		c-20.579,0-37.321,16.742-37.321,37.321c0,20.579,16.742,37.321,37.321,37.321s37.321-16.742,37.321-37.321
		C1341.389,249.475,1324.647,232.733,1304.068,232.733z"/>
</g>
<g>
	<circle class="st0" cx="1519.332" cy="491.398" r="38.821"/>
	<path class="st1" d="M1519.332,531.719c-22.233,0-40.321-18.088-40.321-40.321c0-22.232,18.088-40.32,40.321-40.32
		s40.321,18.088,40.321,40.32C1559.653,513.631,1541.565,531.719,1519.332,531.719z M1519.332,454.077
		c-20.579,0-37.321,16.742-37.321,37.32c0,20.579,16.742,37.321,37.321,37.321s37.321-16.742,37.321-37.321
		C1556.653,470.82,1539.911,454.077,1519.332,454.077z"/>
</g>
<g>
	<path class="st1" d="M1739.273,310.375c-22.233,0-40.321-18.088-40.321-40.321c0-22.233,18.088-40.321,40.321-40.321
		s40.321,18.088,40.321,40.321C1779.594,292.287,1761.506,310.375,1739.273,310.375z M1739.273,232.733
		c-20.579,0-37.321,16.742-37.321,37.321c0,20.579,16.742,37.321,37.321,37.321s37.321-16.742,37.321-37.321
		C1776.594,249.475,1759.852,232.733,1739.273,232.733z"/>
</g>
<g>
	<circle class="st0" cx="1958.042" cy="491.398" r="38.821"/>
	<path class="st1" d="M1958.042,531.719c-22.232,0-40.32-18.088-40.32-40.321c0-22.232,18.088-40.32,40.32-40.32
		c22.233,0,40.321,18.088,40.321,40.32C1998.363,513.631,1980.275,531.719,1958.042,531.719z M1958.042,454.077
		c-20.578,0-37.32,16.742-37.32,37.32c0,20.579,16.742,37.321,37.32,37.321c20.579,0,37.321-16.742,37.321-37.321
		C1995.363,470.82,1978.621,454.077,1958.042,454.077z"/>
</g>
<g>
	<circle class="st0" cx="2174.478" cy="270.054" r="38.821"/>
	<path class="st1" d="M2174.478,310.375c-22.232,0-40.32-18.088-40.32-40.321c0-22.233,18.088-40.321,40.32-40.321
		c22.233,0,40.321,18.088,40.321,40.321C2214.799,292.287,2196.711,310.375,2174.478,310.375z M2174.478,232.733
		c-20.578,0-37.32,16.742-37.32,37.321c0,20.579,16.742,37.321,37.32,37.321c20.579,0,37.321-16.742,37.321-37.321
		C2211.799,249.475,2195.057,232.733,2174.478,232.733z"/>
</g>
<g>
	<polygon class="st1" points="369.924,312.931 352.005,322.13 349.382,317.579 357.218,312.626 366.122,308.139 368.185,311.777 	
		"/>
</g>
<g>
	<g>
		<path class="st1" d="M1970.39,508.411c-0.828,0-1.5-0.672-1.5-1.5c0-5.399-4.394-9.793-9.793-9.793s-9.793,4.394-9.793,9.793
			c0,0.828-0.672,1.5-1.5,1.5s-1.5-0.672-1.5-1.5c0-7.054,5.739-12.793,12.793-12.793s12.793,5.739,12.793,12.793
			C1971.89,507.74,1971.218,508.411,1970.39,508.411z"/>
	</g>
	<g>
		<circle class="st1" cx="1944.136" cy="481.614" r="3.413"/>
	</g>
	<g>
		<circle class="st1" cx="1970.597" cy="481.614" r="3.413"/>
	</g>
</g>
<g>
	<g>
		<circle class="st1" cx="855.105" cy="261.358" r="3.413"/>
	</g>
	<g>
		<g>
			<circle class="st1" cx="882.621" cy="261.358" r="3.413"/>
		</g>
		<g>
			<rect x="855.105" y="280.662" class="st1" width="27.516" height="3"/>
		</g>
	</g>
</g>
<g>
	<g>
		<path class="st1" d="M651.084,510.259c-7.614,0-13.809-6.194-13.809-13.809c0-0.828,0.671-1.5,1.5-1.5s1.5,0.672,1.5,1.5
			c0,5.96,4.849,10.809,10.809,10.809c5.959,0,10.808-4.849,10.808-10.809c0-0.828,0.671-1.5,1.5-1.5s1.5,0.672,1.5,1.5
			C664.892,504.065,658.698,510.259,651.084,510.259z"/>
	</g>
	<g>
		<path class="st1" d="M642.857,490.075c-0.829,0-1.5-0.672-1.5-1.5c0-3.362-2.735-6.098-6.098-6.098s-6.098,2.735-6.098,6.098
			c0,0.828-0.671,1.5-1.5,1.5s-1.5-0.672-1.5-1.5c0-5.017,4.081-9.098,9.098-9.098s9.098,4.081,9.098,9.098
			C644.357,489.404,643.685,490.075,642.857,490.075z"/>
	</g>
	<g>
		<path class="st1" d="M674.506,490.075c-0.829,0-1.5-0.672-1.5-1.5c0-3.362-2.735-6.098-6.098-6.098s-6.098,2.735-6.098,6.098
			c0,0.828-0.671,1.5-1.5,1.5s-1.5-0.672-1.5-1.5c0-5.017,4.081-9.098,9.098-9.098s9.098,4.081,9.098,9.098
			C676.006,489.404,675.335,490.075,674.506,490.075z"/>
	</g>
</g>
<g>
	<g>
		<path class="st1" d="M1739.273,288.915c-7.614,0-13.809-6.194-13.809-13.808c0-0.829,0.672-1.5,1.5-1.5s1.5,0.671,1.5,1.5
			c0,5.959,4.849,10.808,10.809,10.808s10.809-4.849,10.809-10.808c0-0.829,0.672-1.5,1.5-1.5s1.5,0.671,1.5,1.5
			C1753.082,282.72,1746.887,288.915,1739.273,288.915z"/>
	</g>
	<g>
		<path class="st1" d="M1731.046,268.731c-0.828,0-1.5-0.671-1.5-1.5c0-3.362-2.735-6.098-6.098-6.098s-6.098,2.735-6.098,6.098
			c0,0.829-0.672,1.5-1.5,1.5s-1.5-0.671-1.5-1.5c0-5.017,4.081-9.098,9.098-9.098s9.098,4.081,9.098,9.098
			C1732.546,268.059,1731.874,268.731,1731.046,268.731z"/>
	</g>
	<g>
		<path class="st1" d="M1762.696,268.731c-0.828,0-1.5-0.671-1.5-1.5c0-3.362-2.735-6.098-6.098-6.098s-6.098,2.735-6.098,6.098
			c0,0.829-0.672,1.5-1.5,1.5s-1.5-0.671-1.5-1.5c0-5.017,4.081-9.098,9.098-9.098s9.098,4.081,9.098,9.098
			C1764.196,268.059,1763.524,268.731,1762.696,268.731z"/>
	</g>
</g>
<g>
	<g>
		<path class="st1" d="M1085.208,510.259c-7.614,0-13.808-6.194-13.808-13.809c0-0.828,0.671-1.5,1.5-1.5s1.5,0.672,1.5,1.5
			c0,5.96,4.849,10.809,10.808,10.809c5.96,0,10.809-4.849,10.809-10.809c0-0.828,0.671-1.5,1.5-1.5s1.5,0.672,1.5,1.5
			C1099.016,504.065,1092.822,510.259,1085.208,510.259z"/>
	</g>
	<g>
		<path class="st1" d="M1076.981,490.075c-0.829,0-1.5-0.672-1.5-1.5c0-3.362-2.735-6.098-6.098-6.098s-6.098,2.735-6.098,6.098
			c0,0.828-0.671,1.5-1.5,1.5s-1.5-0.672-1.5-1.5c0-5.017,4.081-9.098,9.098-9.098s9.098,4.081,9.098,9.098
			C1078.481,489.404,1077.809,490.075,1076.981,490.075z"/>
	</g>
	<g>
		<path class="st1" d="M1108.63,490.075c-0.829,0-1.5-0.672-1.5-1.5c0-3.362-2.735-6.098-6.098-6.098s-6.098,2.735-6.098,6.098
			c0,0.828-0.671,1.5-1.5,1.5s-1.5-0.672-1.5-1.5c0-5.017,4.081-9.098,9.098-9.098s9.098,4.081,9.098,9.098
			C1110.13,489.404,1109.459,490.075,1108.63,490.075z"/>
	</g>
</g>
<g>
	<g>
		<path class="st1" d="M1315.361,286.012c-0.828,0-1.5-0.671-1.5-1.5c0-5.4-4.394-9.793-9.793-9.793s-9.793,4.393-9.793,9.793
			c0,0.829-0.672,1.5-1.5,1.5s-1.5-0.671-1.5-1.5c0-7.054,5.739-12.793,12.793-12.793s12.793,5.739,12.793,12.793
			C1316.861,285.34,1316.189,286.012,1315.361,286.012z"/>
	</g>
	<g>
		<circle class="st1" cx="1289.107" cy="259.215" r="3.413"/>
	</g>
	<g>
		<circle class="st1" cx="1315.568" cy="259.215" r="3.413"/>
	</g>
</g>
<g>
	<g>
		<circle class="st1" cx="1505.573" cy="482.703" r="3.413"/>
	</g>
	<g>
		<g>
			<circle class="st1" cx="1533.089" cy="482.703" r="3.413"/>
		</g>
		<g>
			<rect x="1505.574" y="502.006" class="st1" width="27.516" height="3"/>
		</g>
	</g>
</g>
<g>
	<g>
		<circle class="st1" cx="2160.72" cy="261.358" r="3.413"/>
	</g>
	<g>
		<g>
			<circle class="st1" cx="2188.236" cy="261.358" r="3.413"/>
		</g>
		<g>
			<rect x="2160.72" y="280.662" class="st1" width="27.516" height="3"/>
		</g>
	</g>
</g>
<g>
	<g>
		<path class="st1" d="M786.776,176.743c0.849,1.114,1.273,2.508,1.273,4.18c0,2.306-0.792,4.098-2.375,5.377
			c-1.584,1.279-3.794,1.919-6.631,1.919h-9.69c-0.607,0-1.083-0.171-1.425-0.513c-0.342-0.343-0.513-0.805-0.513-1.388v-22.989
			c0-0.583,0.171-1.045,0.513-1.388c0.342-0.342,0.817-0.513,1.425-0.513h9.272c2.761,0,4.921,0.614,6.479,1.843
			c1.559,1.229,2.337,2.945,2.337,5.149c0,1.419-0.374,2.647-1.12,3.686c-0.748,1.039-1.793,1.812-3.136,2.318
			C784.73,174.856,785.927,175.628,786.776,176.743z M771.254,173.019h6.764c3.749,0,5.624-1.418,5.624-4.256
			c0-1.418-0.462-2.47-1.387-3.154c-0.925-0.684-2.337-1.025-4.237-1.025h-6.764V173.019z M782.92,184.001
			c0.912-0.709,1.368-1.812,1.368-3.307c0-1.52-0.463-2.653-1.388-3.4s-2.35-1.121-4.274-1.121h-7.372v8.892h7.372
			C780.576,185.065,782.007,184.71,782.92,184.001z"/>
	</g>
	<g>
		<path class="st1" d="M795.972,187.307c-1.381-0.785-2.445-1.906-3.192-3.363c-0.747-1.456-1.121-3.147-1.121-5.072
			c0-1.951,0.374-3.654,1.121-5.111c0.747-1.456,1.812-2.577,3.192-3.363c1.38-0.785,2.982-1.178,4.807-1.178
			s3.426,0.393,4.808,1.178c1.38,0.786,2.444,1.907,3.191,3.363c0.747,1.457,1.121,3.16,1.121,5.111
			c0,1.925-0.374,3.616-1.121,5.072c-0.747,1.457-1.812,2.578-3.191,3.363c-1.382,0.785-2.983,1.178-4.808,1.178
			S797.352,188.092,795.972,187.307z M804.674,183.773c0.898-1.114,1.349-2.748,1.349-4.901c0-2.128-0.456-3.756-1.368-4.884
			c-0.912-1.127-2.204-1.69-3.876-1.69s-2.964,0.563-3.876,1.69c-0.912,1.128-1.368,2.756-1.368,4.884
			c0,2.153,0.45,3.787,1.35,4.901c0.898,1.115,2.197,1.672,3.895,1.672S803.775,184.888,804.674,183.773z"/>
	</g>
	<g>
		<path class="st1" d="M817.404,187.307c-1.381-0.785-2.445-1.906-3.192-3.363c-0.747-1.456-1.121-3.147-1.121-5.072
			c0-1.951,0.374-3.654,1.121-5.111c0.747-1.456,1.812-2.577,3.192-3.363c1.38-0.785,2.982-1.178,4.807-1.178
			s3.426,0.393,4.808,1.178c1.38,0.786,2.444,1.907,3.191,3.363c0.747,1.457,1.121,3.16,1.121,5.111
			c0,1.925-0.374,3.616-1.121,5.072c-0.747,1.457-1.812,2.578-3.191,3.363c-1.382,0.785-2.983,1.178-4.808,1.178
			S818.784,188.092,817.404,187.307z M826.106,183.773c0.898-1.114,1.349-2.748,1.349-4.901c0-2.128-0.456-3.756-1.368-4.884
			c-0.912-1.127-2.204-1.69-3.876-1.69s-2.964,0.563-3.876,1.69c-0.912,1.128-1.368,2.756-1.368,4.884
			c0,2.153,0.45,3.787,1.35,4.901c0.898,1.115,2.197,1.672,3.895,1.672S825.207,184.888,826.106,183.773z"/>
	</g>
	<g>
		<path class="st1" d="M851.85,186.623c0,0.481-0.165,0.899-0.494,1.254s-0.722,0.532-1.178,0.532c-0.481,0-0.912-0.178-1.292-0.532
			l-9.462-8.36v7.03c0,0.607-0.178,1.07-0.532,1.387s-0.811,0.476-1.368,0.476s-1.02-0.159-1.387-0.476s-0.551-0.779-0.551-1.387
			v-23.446c0-0.607,0.184-1.069,0.551-1.387c0.367-0.316,0.829-0.476,1.387-0.476s1.014,0.159,1.368,0.476
			c0.354,0.317,0.532,0.779,0.532,1.387v14.896l8.664-8.095c0.431-0.38,0.849-0.569,1.254-0.569c0.48,0,0.898,0.178,1.254,0.532
			c0.354,0.354,0.532,0.772,0.532,1.254s-0.216,0.925-0.646,1.33l-6.764,6.193l7.448,6.574
			C851.623,185.597,851.85,186.066,851.85,186.623z"/>
	</g>
	<g>
		<path class="st1" d="M878.546,171.081c1.202,1.241,1.805,3.129,1.805,5.662v9.842c0,0.583-0.165,1.032-0.494,1.349
			s-0.785,0.476-1.368,0.476c-0.558,0-1.001-0.165-1.33-0.494s-0.494-0.772-0.494-1.33v-1.406c-0.481,1.064-1.196,1.881-2.146,2.451
			s-2.059,0.854-3.325,0.854c-1.216,0-2.331-0.247-3.344-0.74c-1.014-0.494-1.805-1.185-2.375-2.071s-0.855-1.875-0.855-2.964
			c0-1.343,0.349-2.4,1.045-3.173c0.697-0.772,1.85-1.324,3.458-1.653s3.819-0.494,6.632-0.494h0.874v-1.102
			c0-1.419-0.292-2.445-0.874-3.078c-0.584-0.633-1.521-0.95-2.812-0.95c-0.887,0-1.723,0.114-2.508,0.342
			c-0.786,0.229-1.647,0.558-2.584,0.988c-0.685,0.38-1.166,0.57-1.444,0.57c-0.38,0-0.69-0.14-0.931-0.418
			c-0.241-0.279-0.361-0.634-0.361-1.064c0-0.38,0.107-0.716,0.323-1.007c0.215-0.291,0.563-0.576,1.045-0.855
			c0.887-0.48,1.925-0.867,3.116-1.159c1.19-0.29,2.343-0.437,3.458-0.437C875.511,169.219,877.341,169.84,878.546,171.081z
			 M875.297,184.21c0.886-0.95,1.33-2.172,1.33-3.667v-0.988h-0.685c-1.976,0-3.496,0.089-4.56,0.266
			c-1.064,0.178-1.824,0.476-2.28,0.894s-0.684,1.02-0.684,1.805c0,0.912,0.328,1.66,0.987,2.242
			c0.659,0.583,1.482,0.874,2.471,0.874C873.269,185.635,874.409,185.16,875.297,184.21z"/>
	</g>
	<g>
		<path class="st1" d="M901.553,165.552c-0.607,0.697-0.912,1.717-0.912,3.059v1.064h3.763c0.531,0,0.943,0.133,1.234,0.399
			c0.291,0.266,0.438,0.627,0.438,1.083c0,0.455-0.146,0.816-0.438,1.083c-0.291,0.266-0.703,0.398-1.234,0.398h-3.763v13.908
			c0,0.607-0.184,1.07-0.551,1.387s-0.83,0.476-1.387,0.476c-0.558,0-1.014-0.159-1.368-0.476c-0.355-0.316-0.532-0.779-0.532-1.387
			v-13.908h-2.28c-0.531,0-0.943-0.133-1.234-0.398c-0.292-0.267-0.438-0.628-0.438-1.083c0-0.456,0.146-0.817,0.438-1.083
			c0.291-0.267,0.703-0.399,1.234-0.399h2.28v-0.494c0-2.33,0.595-4.161,1.786-5.491c1.19-1.33,2.875-2.07,5.054-2.223l0.988-0.076
			c0.811-0.051,1.399,0.038,1.767,0.267c0.367,0.228,0.552,0.595,0.552,1.102c0,0.887-0.532,1.394-1.597,1.52l-0.987,0.076
			C903.098,164.456,902.162,164.856,901.553,165.552z M909.172,187.953c-0.367-0.305-0.551-0.761-0.551-1.368v-23.484
			c0-0.607,0.184-1.069,0.551-1.387c0.367-0.316,0.829-0.476,1.387-0.476s1.014,0.159,1.368,0.476
			c0.354,0.317,0.532,0.779,0.532,1.387v23.484c0,0.607-0.178,1.063-0.532,1.368c-0.354,0.304-0.811,0.456-1.368,0.456
			S909.54,188.257,909.172,187.953z"/>
	</g>
	<g>
		<path class="st1" d="M918.007,164.963c-0.431-0.405-0.646-0.938-0.646-1.596c0-0.659,0.215-1.185,0.646-1.577
			s1.014-0.589,1.748-0.589c0.709,0,1.286,0.196,1.729,0.589c0.442,0.393,0.665,0.918,0.665,1.577c0,0.658-0.216,1.19-0.646,1.596
			s-1.014,0.607-1.748,0.607S918.438,165.368,918.007,164.963z M918.369,187.953c-0.367-0.305-0.551-0.761-0.551-1.368v-15.428
			c0-0.608,0.184-1.07,0.551-1.388c0.367-0.316,0.829-0.475,1.387-0.475s1.014,0.158,1.368,0.475
			c0.354,0.317,0.532,0.779,0.532,1.388v15.428c0,0.607-0.178,1.063-0.532,1.368c-0.354,0.304-0.811,0.456-1.368,0.456
			S918.736,188.257,918.369,187.953z"/>
	</g>
	<g>
		<path class="st1" d="M943.753,169.808c0.342,0.342,0.513,0.792,0.513,1.35v15.579c0,2.837-0.754,4.979-2.261,6.423
			c-1.508,1.443-3.73,2.166-6.669,2.166c-2.736,0-5.017-0.52-6.841-1.559c-0.938-0.532-1.405-1.165-1.405-1.899
			c0-0.432,0.119-0.786,0.36-1.064c0.241-0.279,0.538-0.418,0.894-0.418c0.329,0,0.849,0.19,1.558,0.57
			c0.912,0.43,1.761,0.766,2.546,1.007c0.785,0.24,1.723,0.36,2.812,0.36c3.496,0,5.244-1.761,5.244-5.281v-2.926
			c-0.532,1.114-1.344,1.982-2.433,2.603c-1.089,0.621-2.355,0.931-3.8,0.931c-1.621,0-3.065-0.38-4.332-1.14
			s-2.248-1.837-2.945-3.23c-0.696-1.393-1.045-3.002-1.045-4.825c0-1.824,0.354-3.433,1.064-4.826
			c0.709-1.394,1.69-2.477,2.945-3.249c1.254-0.772,2.691-1.159,4.312-1.159c1.419,0,2.666,0.304,3.743,0.912
			c1.076,0.607,1.894,1.47,2.451,2.584v-1.596c0-0.558,0.171-1.001,0.513-1.33s0.804-0.494,1.387-0.494
			S943.41,169.466,943.753,169.808z M939.059,182.975c0.937-1.089,1.406-2.597,1.406-4.521c0-1.9-0.463-3.401-1.388-4.503
			c-0.925-1.103-2.223-1.653-3.895-1.653s-2.983,0.545-3.933,1.634c-0.95,1.09-1.426,2.597-1.426,4.522
			c0,1.925,0.481,3.433,1.444,4.521c0.963,1.09,2.267,1.634,3.914,1.634C936.83,184.609,938.122,184.065,939.059,182.975z"/>
	</g>
	<g>
		<path class="st1" d="M966.266,176.705v9.88c0,0.558-0.177,1.001-0.531,1.33c-0.355,0.329-0.824,0.494-1.406,0.494
			c-0.583,0-1.045-0.165-1.388-0.494c-0.342-0.329-0.513-0.772-0.513-1.33v-9.842c0-1.521-0.311-2.635-0.931-3.345
			c-0.621-0.709-1.59-1.063-2.907-1.063c-1.546,0-2.787,0.481-3.724,1.443c-0.938,0.964-1.406,2.256-1.406,3.876v8.931
			c0,0.558-0.171,1.001-0.513,1.33c-0.343,0.329-0.805,0.494-1.388,0.494s-1.051-0.165-1.405-0.494
			c-0.355-0.329-0.532-0.772-0.532-1.33v-23.522c0-0.557,0.184-1,0.551-1.33c0.367-0.328,0.842-0.494,1.425-0.494
			c0.558,0,1.007,0.159,1.35,0.476c0.342,0.317,0.513,0.741,0.513,1.272v9.5c0.633-1.063,1.482-1.874,2.546-2.432
			c1.064-0.557,2.28-0.836,3.648-0.836C964.062,169.219,966.266,171.714,966.266,176.705z"/>
	</g>
	<g>
		<path class="st1" d="M981.79,185.92c0.24,0.241,0.36,0.576,0.36,1.007c0,0.507-0.196,0.893-0.589,1.159
			c-0.393,0.266-0.969,0.373-1.729,0.323l-1.026-0.076c-2.052-0.152-3.585-0.779-4.598-1.881c-1.014-1.103-1.521-2.729-1.521-4.884
			v-8.93h-2.28c-1.114,0-1.672-0.494-1.672-1.481c0-0.456,0.146-0.817,0.438-1.083c0.291-0.267,0.703-0.399,1.234-0.399h2.28v-3.914
			c0-0.582,0.171-1.038,0.513-1.368c0.343-0.329,0.805-0.494,1.388-0.494c0.582,0,1.051,0.165,1.405,0.494
			c0.354,0.33,0.532,0.786,0.532,1.368v3.914h3.763c0.531,0,0.943,0.133,1.234,0.399c0.291,0.266,0.438,0.627,0.438,1.083
			c0,0.481-0.146,0.849-0.438,1.102c-0.291,0.254-0.703,0.38-1.234,0.38h-3.763v9.196c0,1.19,0.247,2.064,0.741,2.622
			s1.247,0.874,2.261,0.95l1.064,0.075C981.149,185.534,981.548,185.68,981.79,185.92z"/>
	</g>
</g>
<g>
	<g>
		<path class="st1" d="M545.658,609.851c0,0.456-0.185,0.843-0.552,1.159s-0.792,0.475-1.272,0.475c-0.71,0-1.279-0.316-1.71-0.949
			l-5.092-7.904c-0.583-0.912-1.204-1.552-1.862-1.919c-0.659-0.367-1.521-0.551-2.584-0.551h-4.294v9.271
			c0,0.608-0.171,1.09-0.514,1.444c-0.342,0.354-0.816,0.532-1.425,0.532c-0.583,0-1.051-0.178-1.405-0.532
			c-0.355-0.354-0.532-0.836-0.532-1.444v-23.104c0-0.583,0.171-1.045,0.513-1.388c0.342-0.342,0.817-0.513,1.425-0.513h9.462
			c2.965,0,5.226,0.659,6.783,1.976c1.559,1.318,2.337,3.243,2.337,5.776c0,2.104-0.596,3.807-1.786,5.111s-2.888,2.135-5.092,2.488
			c0.658,0.178,1.254,0.494,1.786,0.95s1.051,1.09,1.558,1.9l3.914,6.156C545.544,609.116,545.658,609.471,545.658,609.851z
			 M535.359,597.007c1.977,0,3.439-0.386,4.39-1.159c0.95-0.772,1.425-1.97,1.425-3.591s-0.469-2.806-1.406-3.553
			s-2.407-1.121-4.408-1.121h-7.105v9.424H535.359z"/>
	</g>
	<g>
		<path class="st1" d="M565.569,606.963c0.229,0.279,0.342,0.634,0.342,1.063c0,0.735-0.456,1.355-1.367,1.862
			c-0.888,0.507-1.856,0.899-2.907,1.178c-1.052,0.279-2.059,0.418-3.021,0.418c-2.938,0-5.257-0.854-6.954-2.564
			s-2.546-4.047-2.546-7.011c0-1.9,0.374-3.585,1.121-5.055c0.747-1.469,1.799-2.608,3.154-3.42
			c1.354-0.811,2.894-1.216,4.617-1.216c2.482,0,4.445,0.798,5.89,2.394c1.444,1.597,2.166,3.75,2.166,6.46
			c0,1.014-0.456,1.521-1.368,1.521h-11.742c0.253,3.927,2.141,5.89,5.662,5.89c0.938,0,1.748-0.126,2.433-0.38
			c0.684-0.253,1.405-0.582,2.166-0.987c0.075-0.051,0.284-0.158,0.627-0.323c0.342-0.165,0.627-0.247,0.854-0.247
			C565.049,606.545,565.341,606.685,565.569,606.963z M554.549,596.437c-0.888,0.938-1.419,2.255-1.597,3.952h9.805
			c-0.076-1.723-0.514-3.046-1.312-3.971s-1.919-1.388-3.362-1.388C556.614,595.031,555.435,595.5,554.549,596.437z"/>
	</g>
	<g>
		<path class="st1" d="M570.395,609.889c-0.456-0.278-0.779-0.57-0.97-0.874c-0.189-0.304-0.285-0.646-0.285-1.026
			c0-0.404,0.114-0.746,0.343-1.025c0.228-0.278,0.519-0.418,0.874-0.418c0.328,0,0.848,0.203,1.558,0.607
			c0.76,0.406,1.501,0.735,2.223,0.988c0.723,0.254,1.628,0.38,2.718,0.38c1.216,0,2.166-0.215,2.85-0.646s1.026-1.039,1.026-1.824
			c0-0.507-0.134-0.912-0.399-1.216c-0.266-0.305-0.729-0.576-1.387-0.817c-0.659-0.24-1.634-0.5-2.926-0.779
			c-2.229-0.48-3.832-1.133-4.808-1.956s-1.463-1.944-1.463-3.363c0-1.089,0.316-2.071,0.95-2.945
			c0.633-0.874,1.507-1.552,2.622-2.033c1.114-0.48,2.381-0.722,3.8-0.722c1.013,0,2.001,0.133,2.964,0.399
			c0.963,0.266,1.812,0.652,2.546,1.158c0.836,0.558,1.254,1.204,1.254,1.938c0,0.405-0.12,0.747-0.36,1.026
			c-0.241,0.278-0.526,0.418-0.855,0.418c-0.228,0-0.456-0.051-0.684-0.152c-0.229-0.101-0.532-0.266-0.912-0.494
			c-0.685-0.405-1.324-0.722-1.919-0.95c-0.596-0.228-1.337-0.342-2.224-0.342c-1.063,0-1.919,0.229-2.564,0.684
			c-0.646,0.456-0.969,1.077-0.969,1.862c0,0.71,0.297,1.261,0.893,1.653c0.595,0.393,1.716,0.767,3.363,1.121
			c1.696,0.354,3.026,0.76,3.99,1.216c0.962,0.456,1.652,1.02,2.07,1.69c0.418,0.672,0.627,1.527,0.627,2.565
			c0,1.647-0.69,2.971-2.07,3.971c-1.382,1.001-3.225,1.501-5.529,1.501C574.157,611.485,572.042,610.953,570.395,609.889z"/>
	</g>
	<g>
		<path class="st1" d="M603.986,606.963c0.229,0.279,0.342,0.634,0.342,1.063c0,0.735-0.456,1.355-1.367,1.862
			c-0.888,0.507-1.856,0.899-2.907,1.178c-1.052,0.279-2.059,0.418-3.021,0.418c-2.938,0-5.257-0.854-6.954-2.564
			s-2.546-4.047-2.546-7.011c0-1.9,0.374-3.585,1.121-5.055c0.747-1.469,1.799-2.608,3.154-3.42
			c1.354-0.811,2.894-1.216,4.617-1.216c2.482,0,4.445,0.798,5.89,2.394c1.444,1.597,2.166,3.75,2.166,6.46
			c0,1.014-0.456,1.521-1.368,1.521H591.37c0.253,3.927,2.141,5.89,5.662,5.89c0.938,0,1.748-0.126,2.433-0.38
			c0.684-0.253,1.405-0.582,2.166-0.987c0.075-0.051,0.284-0.158,0.627-0.323c0.342-0.165,0.627-0.247,0.854-0.247
			C603.466,606.545,603.758,606.685,603.986,606.963z M592.966,596.437c-0.888,0.938-1.419,2.255-1.597,3.952h9.805
			c-0.076-1.723-0.514-3.046-1.312-3.971s-1.919-1.388-3.362-1.388C595.031,595.031,593.852,595.5,592.966,596.437z"/>
	</g>
	<g>
		<path class="st1" d="M621.979,594.081c1.202,1.241,1.805,3.129,1.805,5.662v9.842c0,0.583-0.165,1.032-0.494,1.349
			s-0.785,0.476-1.368,0.476c-0.558,0-1.001-0.165-1.33-0.494s-0.494-0.772-0.494-1.33v-1.406c-0.481,1.064-1.196,1.881-2.146,2.451
			s-2.059,0.854-3.325,0.854c-1.216,0-2.331-0.247-3.344-0.74c-1.014-0.494-1.805-1.185-2.375-2.071s-0.855-1.875-0.855-2.964
			c0-1.343,0.349-2.4,1.045-3.173c0.697-0.772,1.85-1.324,3.458-1.653s3.819-0.494,6.632-0.494h0.874v-1.102
			c0-1.419-0.292-2.445-0.874-3.078c-0.584-0.633-1.521-0.95-2.812-0.95c-0.887,0-1.723,0.114-2.508,0.342
			c-0.786,0.229-1.647,0.558-2.584,0.988c-0.685,0.38-1.166,0.57-1.444,0.57c-0.38,0-0.69-0.14-0.931-0.418
			c-0.241-0.279-0.361-0.634-0.361-1.064c0-0.38,0.107-0.716,0.323-1.007c0.215-0.291,0.563-0.576,1.045-0.855
			c0.887-0.48,1.925-0.867,3.116-1.159c1.19-0.29,2.343-0.437,3.458-0.437C618.945,592.219,620.775,592.84,621.979,594.081z
			 M618.73,607.21c0.886-0.95,1.33-2.172,1.33-3.667v-0.988h-0.685c-1.976,0-3.496,0.089-4.56,0.266
			c-1.064,0.178-1.824,0.476-2.28,0.894s-0.684,1.02-0.684,1.805c0,0.912,0.328,1.66,0.987,2.242
			c0.659,0.583,1.482,0.874,2.471,0.874C616.703,608.635,617.842,608.16,618.73,607.21z"/>
	</g>
	<g>
		<path class="st1" d="M640.58,593.853c0,0.558-0.14,0.976-0.418,1.254c-0.279,0.279-0.76,0.443-1.444,0.494l-1.14,0.114
			c-1.596,0.152-2.78,0.709-3.553,1.672c-0.773,0.963-1.159,2.128-1.159,3.496v8.702c0,0.607-0.178,1.063-0.532,1.368
			c-0.354,0.304-0.811,0.456-1.368,0.456s-1.02-0.152-1.387-0.456c-0.367-0.305-0.551-0.761-0.551-1.368v-15.466
			c0-0.583,0.184-1.032,0.551-1.35c0.367-0.316,0.829-0.475,1.387-0.475c0.507,0,0.932,0.158,1.273,0.475
			c0.342,0.317,0.513,0.754,0.513,1.312v1.823c0.507-1.114,1.241-1.963,2.204-2.546c0.963-0.582,2.052-0.924,3.269-1.025
			l0.531-0.038C639.971,592.219,640.58,592.739,640.58,593.853z"/>
	</g>
	<g>
		<path class="st1" d="M645.767,610.307c-1.355-0.785-2.407-1.899-3.154-3.344s-1.121-3.116-1.121-5.017
			c0-1.925,0.387-3.622,1.159-5.092c0.772-1.469,1.855-2.608,3.249-3.42c1.393-0.811,2.989-1.216,4.788-1.216
			c0.963,0,1.932,0.14,2.907,0.418c0.975,0.279,1.843,0.659,2.603,1.14c0.811,0.558,1.216,1.204,1.216,1.938
			c0,0.431-0.113,0.792-0.342,1.083c-0.228,0.291-0.52,0.437-0.874,0.437c-0.228,0-0.456-0.057-0.684-0.171
			c-0.229-0.113-0.52-0.285-0.874-0.513c-0.634-0.405-1.223-0.716-1.768-0.931s-1.196-0.323-1.957-0.323
			c-1.723,0-3.059,0.583-4.009,1.748s-1.425,2.787-1.425,4.864s0.469,3.68,1.406,4.807c0.937,1.128,2.267,1.691,3.99,1.691
			c0.76,0,1.431-0.114,2.014-0.343c0.582-0.228,1.178-0.531,1.786-0.912c0.278-0.177,0.557-0.328,0.836-0.456
			c0.278-0.126,0.532-0.189,0.76-0.189c0.354,0,0.646,0.146,0.874,0.437c0.229,0.292,0.342,0.653,0.342,1.083
			c0,0.355-0.095,0.679-0.285,0.97c-0.189,0.291-0.513,0.589-0.969,0.893c-0.76,0.507-1.646,0.899-2.66,1.178
			c-1.014,0.279-2.039,0.418-3.078,0.418C648.699,611.485,647.122,611.092,645.767,610.307z"/>
	</g>
	<g>
		<path class="st1" d="M677.553,599.705v9.88c0,0.558-0.177,1.001-0.531,1.33c-0.355,0.329-0.824,0.494-1.406,0.494
			c-0.583,0-1.045-0.165-1.388-0.494c-0.342-0.329-0.513-0.772-0.513-1.33v-9.842c0-1.521-0.311-2.635-0.931-3.345
			c-0.621-0.709-1.59-1.063-2.907-1.063c-1.546,0-2.787,0.481-3.724,1.443c-0.938,0.964-1.406,2.256-1.406,3.876v8.931
			c0,0.558-0.171,1.001-0.513,1.33c-0.343,0.329-0.805,0.494-1.388,0.494s-1.051-0.165-1.405-0.494
			c-0.355-0.329-0.532-0.772-0.532-1.33v-23.522c0-0.557,0.184-1,0.551-1.33c0.367-0.328,0.842-0.494,1.425-0.494
			c0.558,0,1.007,0.159,1.35,0.476c0.342,0.317,0.513,0.741,0.513,1.272v9.5c0.633-1.063,1.482-1.874,2.546-2.432
			c1.064-0.557,2.28-0.836,3.648-0.836C675.349,592.219,677.553,594.714,677.553,599.705z"/>
	</g>
	<g>
		<path class="st1" d="M698.756,588.552c-0.607,0.697-0.912,1.717-0.912,3.059v1.064h3.763c0.531,0,0.943,0.133,1.234,0.399
			c0.291,0.266,0.438,0.627,0.438,1.083c0,0.455-0.146,0.816-0.438,1.083c-0.291,0.266-0.703,0.398-1.234,0.398h-3.763v13.908
			c0,0.607-0.184,1.07-0.551,1.387s-0.83,0.476-1.387,0.476c-0.558,0-1.014-0.159-1.368-0.476c-0.355-0.316-0.532-0.779-0.532-1.387
			v-13.908h-2.28c-0.531,0-0.943-0.133-1.234-0.398c-0.292-0.267-0.438-0.628-0.438-1.083c0-0.456,0.146-0.817,0.438-1.083
			c0.291-0.267,0.703-0.399,1.234-0.399h2.28v-0.494c0-2.33,0.595-4.161,1.786-5.491c1.19-1.33,2.875-2.07,5.054-2.223l0.988-0.076
			c0.811-0.051,1.399,0.038,1.767,0.267c0.367,0.228,0.552,0.595,0.552,1.102c0,0.887-0.532,1.394-1.597,1.52l-0.987,0.076
			C700.301,587.456,699.365,587.856,698.756,588.552z M706.376,610.953c-0.367-0.305-0.551-0.761-0.551-1.368v-23.484
			c0-0.607,0.184-1.069,0.551-1.387c0.367-0.316,0.829-0.476,1.387-0.476s1.014,0.159,1.368,0.476
			c0.354,0.317,0.532,0.779,0.532,1.387v23.484c0,0.607-0.178,1.063-0.532,1.368c-0.354,0.304-0.811,0.456-1.368,0.456
			S706.743,611.257,706.376,610.953z"/>
	</g>
	<g>
		<path class="st1" d="M715.211,587.963c-0.431-0.405-0.646-0.938-0.646-1.596c0-0.659,0.215-1.185,0.646-1.577
			s1.014-0.589,1.748-0.589c0.709,0,1.286,0.196,1.729,0.589c0.442,0.393,0.665,0.918,0.665,1.577c0,0.658-0.216,1.19-0.646,1.596
			s-1.014,0.607-1.748,0.607S715.641,588.368,715.211,587.963z M715.572,610.953c-0.367-0.305-0.551-0.761-0.551-1.368v-15.428
			c0-0.608,0.184-1.07,0.551-1.388c0.367-0.316,0.829-0.475,1.387-0.475s1.014,0.158,1.368,0.475
			c0.354,0.317,0.532,0.779,0.532,1.388v15.428c0,0.607-0.178,1.063-0.532,1.368c-0.354,0.304-0.811,0.456-1.368,0.456
			S715.939,611.257,715.572,610.953z"/>
	</g>
	<g>
		<path class="st1" d="M740.956,592.808c0.342,0.342,0.513,0.792,0.513,1.35v15.579c0,2.837-0.754,4.979-2.261,6.423
			c-1.508,1.443-3.73,2.166-6.669,2.166c-2.736,0-5.017-0.52-6.841-1.559c-0.938-0.532-1.405-1.165-1.405-1.899
			c0-0.432,0.119-0.786,0.36-1.064c0.241-0.279,0.538-0.418,0.894-0.418c0.329,0,0.849,0.19,1.558,0.57
			c0.912,0.43,1.761,0.766,2.546,1.007c0.785,0.24,1.723,0.36,2.812,0.36c3.496,0,5.244-1.761,5.244-5.281v-2.926
			c-0.532,1.114-1.344,1.982-2.433,2.603c-1.089,0.621-2.355,0.931-3.8,0.931c-1.621,0-3.065-0.38-4.332-1.14
			s-2.248-1.837-2.945-3.23c-0.696-1.393-1.045-3.002-1.045-4.825c0-1.824,0.354-3.433,1.064-4.826
			c0.709-1.394,1.69-2.477,2.945-3.249c1.254-0.772,2.691-1.159,4.312-1.159c1.419,0,2.666,0.304,3.743,0.912
			c1.076,0.607,1.894,1.47,2.451,2.584v-1.596c0-0.558,0.171-1.001,0.513-1.33s0.804-0.494,1.387-0.494
			S740.613,592.466,740.956,592.808z M736.262,605.975c0.937-1.089,1.406-2.597,1.406-4.521c0-1.9-0.463-3.401-1.388-4.503
			c-0.925-1.103-2.223-1.653-3.895-1.653s-2.983,0.545-3.933,1.634c-0.95,1.09-1.426,2.597-1.426,4.522
			c0,1.925,0.481,3.433,1.444,4.521c0.963,1.09,2.267,1.634,3.914,1.634C734.033,607.609,735.325,607.065,736.262,605.975z"/>
	</g>
	<g>
		<path class="st1" d="M763.469,599.705v9.88c0,0.558-0.177,1.001-0.531,1.33c-0.355,0.329-0.824,0.494-1.406,0.494
			c-0.583,0-1.045-0.165-1.388-0.494c-0.342-0.329-0.513-0.772-0.513-1.33v-9.842c0-1.521-0.311-2.635-0.931-3.345
			c-0.621-0.709-1.59-1.063-2.907-1.063c-1.546,0-2.787,0.481-3.724,1.443c-0.938,0.964-1.406,2.256-1.406,3.876v8.931
			c0,0.558-0.171,1.001-0.513,1.33c-0.343,0.329-0.805,0.494-1.388,0.494s-1.051-0.165-1.405-0.494
			c-0.355-0.329-0.532-0.772-0.532-1.33v-23.522c0-0.557,0.184-1,0.551-1.33c0.367-0.328,0.842-0.494,1.425-0.494
			c0.558,0,1.007,0.159,1.35,0.476c0.342,0.317,0.513,0.741,0.513,1.272v9.5c0.633-1.063,1.482-1.874,2.546-2.432
			c1.064-0.557,2.28-0.836,3.648-0.836C761.265,592.219,763.469,594.714,763.469,599.705z"/>
	</g>
	<g>
		<path class="st1" d="M778.993,608.92c0.24,0.241,0.36,0.576,0.36,1.007c0,0.507-0.196,0.893-0.589,1.159
			c-0.393,0.266-0.969,0.373-1.729,0.323l-1.026-0.076c-2.052-0.152-3.585-0.779-4.598-1.881c-1.014-1.103-1.521-2.729-1.521-4.884
			v-8.93h-2.28c-1.114,0-1.672-0.494-1.672-1.481c0-0.456,0.146-0.817,0.438-1.083c0.291-0.267,0.703-0.399,1.234-0.399h2.28v-3.914
			c0-0.582,0.171-1.038,0.513-1.368c0.343-0.329,0.805-0.494,1.388-0.494c0.582,0,1.051,0.165,1.405,0.494
			c0.354,0.33,0.532,0.786,0.532,1.368v3.914h3.763c0.531,0,0.943,0.133,1.234,0.399c0.291,0.266,0.438,0.627,0.438,1.083
			c0,0.481-0.146,0.849-0.438,1.102c-0.291,0.254-0.703,0.38-1.234,0.38h-3.763v9.196c0,1.19,0.247,2.064,0.741,2.622
			s1.247,0.874,2.261,0.95l1.064,0.075C778.352,608.534,778.752,608.68,778.993,608.92z"/>
	</g>
</g>
<g>
	<g>
		<path class="st1" d="M935.242,609.699c0,0.481-0.197,0.887-0.59,1.216s-0.83,0.494-1.311,0.494c-0.329,0-0.64-0.096-0.931-0.285
			c-0.292-0.19-0.514-0.462-0.665-0.817l-2.508-5.7H915.33l-2.508,5.7c-0.152,0.355-0.381,0.627-0.685,0.817
			c-0.304,0.189-0.621,0.285-0.95,0.285c-0.507,0-0.956-0.165-1.349-0.494c-0.394-0.329-0.589-0.734-0.589-1.216
			c0-0.203,0.062-0.456,0.189-0.761l10.717-23.445c0.177-0.405,0.462-0.723,0.854-0.95c0.393-0.229,0.804-0.342,1.235-0.342
			c0.431,0,0.842,0.113,1.234,0.342c0.393,0.228,0.678,0.545,0.855,0.95l10.716,23.445
			C935.178,609.243,935.242,609.496,935.242,609.699z M916.735,601.491h11.135l-5.586-12.578L916.735,601.491z"/>
	</g>
	<g>
		<path class="st1" d="M950.403,593.853c0,0.558-0.14,0.976-0.418,1.254c-0.279,0.279-0.76,0.443-1.444,0.494l-1.14,0.114
			c-1.596,0.152-2.78,0.709-3.553,1.672c-0.773,0.963-1.159,2.128-1.159,3.496v8.702c0,0.607-0.178,1.063-0.532,1.368
			c-0.354,0.304-0.811,0.456-1.368,0.456s-1.02-0.152-1.387-0.456c-0.367-0.305-0.551-0.761-0.551-1.368v-15.466
			c0-0.583,0.184-1.032,0.551-1.35c0.367-0.316,0.829-0.475,1.387-0.475c0.507,0,0.932,0.158,1.273,0.475
			c0.342,0.317,0.513,0.754,0.513,1.312v1.823c0.507-1.114,1.241-1.963,2.204-2.546c0.963-0.582,2.052-0.924,3.269-1.025
			l0.531-0.038C949.795,592.219,950.403,592.739,950.403,593.853z"/>
	</g>
	<g>
		<path class="st1" d="M964.311,593.853c0,0.558-0.14,0.976-0.418,1.254c-0.279,0.279-0.76,0.443-1.444,0.494l-1.14,0.114
			c-1.596,0.152-2.78,0.709-3.553,1.672c-0.773,0.963-1.159,2.128-1.159,3.496v8.702c0,0.607-0.178,1.063-0.532,1.368
			c-0.354,0.304-0.811,0.456-1.368,0.456s-1.02-0.152-1.387-0.456c-0.367-0.305-0.551-0.761-0.551-1.368v-15.466
			c0-0.583,0.184-1.032,0.551-1.35c0.367-0.316,0.829-0.475,1.387-0.475c0.507,0,0.932,0.158,1.273,0.475
			c0.342,0.317,0.513,0.754,0.513,1.312v1.823c0.507-1.114,1.241-1.963,2.204-2.546c0.963-0.582,2.052-0.924,3.269-1.025
			l0.531-0.038C963.703,592.219,964.311,592.739,964.311,593.853z"/>
	</g>
	<g>
		<path class="st1" d="M966.857,587.963c-0.431-0.405-0.646-0.938-0.646-1.596c0-0.659,0.215-1.185,0.646-1.577
			s1.014-0.589,1.748-0.589c0.709,0,1.286,0.196,1.729,0.589c0.442,0.393,0.665,0.918,0.665,1.577c0,0.658-0.216,1.19-0.646,1.596
			s-1.014,0.607-1.748,0.607S967.288,588.368,966.857,587.963z M967.218,610.953c-0.367-0.305-0.551-0.761-0.551-1.368v-15.428
			c0-0.608,0.184-1.07,0.551-1.388c0.367-0.316,0.829-0.475,1.387-0.475s1.014,0.158,1.368,0.475
			c0.354,0.317,0.532,0.779,0.532,1.388v15.428c0,0.607-0.178,1.063-0.532,1.368c-0.354,0.304-0.811,0.456-1.368,0.456
			S967.586,611.257,967.218,610.953z"/>
	</g>
	<g>
		<path class="st1" d="M989.714,592.599c0.291-0.177,0.602-0.266,0.932-0.266c0.48,0,0.905,0.165,1.272,0.494
			s0.551,0.722,0.551,1.178c0,0.253-0.051,0.494-0.151,0.722l-7.258,15.391c-0.178,0.405-0.45,0.716-0.817,0.931
			s-0.754,0.323-1.159,0.323s-0.792-0.108-1.159-0.323s-0.64-0.525-0.816-0.931l-7.258-15.391c-0.102-0.202-0.152-0.442-0.152-0.722
			c0-0.456,0.202-0.849,0.607-1.178s0.861-0.494,1.368-0.494c0.734,0,1.279,0.354,1.634,1.063l5.891,13.072l5.852-13.034
			C989.201,593.055,989.422,592.777,989.714,592.599z"/>
	</g>
	<g>
		<path class="st1" d="M1010.747,606.963c0.229,0.279,0.342,0.634,0.342,1.063c0,0.735-0.456,1.355-1.367,1.862
			c-0.888,0.507-1.856,0.899-2.907,1.178c-1.052,0.279-2.059,0.418-3.021,0.418c-2.938,0-5.257-0.854-6.954-2.564
			s-2.546-4.047-2.546-7.011c0-1.9,0.374-3.585,1.121-5.055c0.747-1.469,1.799-2.608,3.154-3.42
			c1.354-0.811,2.894-1.216,4.617-1.216c2.482,0,4.445,0.798,5.89,2.394c1.444,1.597,2.166,3.75,2.166,6.46
			c0,1.014-0.456,1.521-1.368,1.521H998.13c0.253,3.927,2.141,5.89,5.662,5.89c0.938,0,1.748-0.126,2.433-0.38
			c0.684-0.253,1.405-0.582,2.166-0.987c0.075-0.051,0.284-0.158,0.627-0.323c0.342-0.165,0.627-0.247,0.854-0.247
			C1010.227,606.545,1010.519,606.685,1010.747,606.963z M999.727,596.437c-0.888,0.938-1.419,2.255-1.597,3.952h9.805
			c-0.076-1.723-0.514-3.046-1.312-3.971s-1.919-1.388-3.362-1.388C1001.792,595.031,1000.613,595.5,999.727,596.437z"/>
	</g>
	<g>
		<path class="st1" d="M1038.771,594.081c1.202,1.241,1.805,3.129,1.805,5.662v9.842c0,0.583-0.165,1.032-0.494,1.349
			s-0.785,0.476-1.368,0.476c-0.558,0-1.001-0.165-1.33-0.494s-0.494-0.772-0.494-1.33v-1.406c-0.481,1.064-1.196,1.881-2.146,2.451
			s-2.059,0.854-3.325,0.854c-1.216,0-2.331-0.247-3.344-0.74c-1.014-0.494-1.805-1.185-2.375-2.071s-0.855-1.875-0.855-2.964
			c0-1.343,0.349-2.4,1.045-3.173c0.697-0.772,1.85-1.324,3.458-1.653s3.819-0.494,6.632-0.494h0.874v-1.102
			c0-1.419-0.292-2.445-0.874-3.078c-0.584-0.633-1.521-0.95-2.812-0.95c-0.887,0-1.723,0.114-2.508,0.342
			c-0.786,0.229-1.647,0.558-2.584,0.988c-0.685,0.38-1.166,0.57-1.444,0.57c-0.38,0-0.69-0.14-0.931-0.418
			c-0.241-0.279-0.361-0.634-0.361-1.064c0-0.38,0.107-0.716,0.323-1.007c0.215-0.291,0.563-0.576,1.045-0.855
			c0.887-0.48,1.925-0.867,3.116-1.159c1.19-0.29,2.343-0.437,3.458-0.437C1035.737,592.219,1037.567,592.84,1038.771,594.081z
			 M1035.522,607.21c0.886-0.95,1.33-2.172,1.33-3.667v-0.988h-0.685c-1.976,0-3.496,0.089-4.56,0.266
			c-1.064,0.178-1.824,0.476-2.28,0.894s-0.684,1.02-0.684,1.805c0,0.912,0.328,1.66,0.987,2.242
			c0.659,0.583,1.482,0.874,2.471,0.874C1033.495,608.635,1034.634,608.16,1035.522,607.21z"/>
	</g>
	<g>
		<path class="st1" d="M1056.099,608.92c0.24,0.241,0.36,0.576,0.36,1.007c0,0.507-0.196,0.893-0.589,1.159
			c-0.393,0.266-0.969,0.373-1.729,0.323l-1.026-0.076c-2.052-0.152-3.585-0.779-4.598-1.881c-1.014-1.103-1.521-2.729-1.521-4.884
			v-8.93h-2.28c-1.114,0-1.672-0.494-1.672-1.481c0-0.456,0.146-0.817,0.438-1.083c0.291-0.267,0.703-0.399,1.234-0.399h2.28v-3.914
			c0-0.582,0.171-1.038,0.513-1.368c0.343-0.329,0.805-0.494,1.388-0.494c0.582,0,1.051,0.165,1.405,0.494
			c0.354,0.33,0.532,0.786,0.532,1.368v3.914h3.763c0.531,0,0.943,0.133,1.234,0.399c0.291,0.266,0.438,0.627,0.438,1.083
			c0,0.481-0.146,0.849-0.438,1.102c-0.291,0.254-0.703,0.38-1.234,0.38h-3.763v9.196c0,1.19,0.247,2.064,0.741,2.622
			s1.247,0.874,2.261,0.95l1.064,0.075C1055.459,608.534,1055.858,608.68,1056.099,608.92z"/>
	</g>
	<g>
		<path class="st1" d="M1079.545,608.92c0.24,0.241,0.36,0.576,0.36,1.007c0,0.507-0.196,0.893-0.589,1.159
			c-0.393,0.266-0.969,0.373-1.729,0.323l-1.026-0.076c-2.052-0.152-3.585-0.779-4.598-1.881c-1.014-1.103-1.521-2.729-1.521-4.884
			v-8.93h-2.28c-1.114,0-1.672-0.494-1.672-1.481c0-0.456,0.146-0.817,0.438-1.083c0.291-0.267,0.703-0.399,1.234-0.399h2.28v-3.914
			c0-0.582,0.171-1.038,0.513-1.368c0.343-0.329,0.805-0.494,1.388-0.494c0.582,0,1.051,0.165,1.405,0.494
			c0.354,0.33,0.532,0.786,0.532,1.368v3.914h3.763c0.531,0,0.943,0.133,1.234,0.399c0.291,0.266,0.438,0.627,0.438,1.083
			c0,0.481-0.146,0.849-0.438,1.102c-0.291,0.254-0.703,0.38-1.234,0.38h-3.763v9.196c0,1.19,0.247,2.064,0.741,2.622
			s1.247,0.874,2.261,0.95l1.064,0.075C1078.904,608.534,1079.303,608.68,1079.545,608.92z"/>
	</g>
	<g>
		<path class="st1" d="M1099.323,599.705v9.88c0,0.558-0.177,1.001-0.531,1.33c-0.355,0.329-0.824,0.494-1.406,0.494
			c-0.583,0-1.045-0.165-1.388-0.494c-0.342-0.329-0.513-0.772-0.513-1.33v-9.842c0-1.521-0.311-2.635-0.931-3.345
			c-0.621-0.709-1.59-1.063-2.907-1.063c-1.546,0-2.787,0.481-3.724,1.443c-0.938,0.964-1.406,2.256-1.406,3.876v8.931
			c0,0.558-0.171,1.001-0.513,1.33c-0.343,0.329-0.805,0.494-1.388,0.494s-1.051-0.165-1.405-0.494
			c-0.355-0.329-0.532-0.772-0.532-1.33v-23.522c0-0.557,0.184-1,0.551-1.33c0.367-0.328,0.842-0.494,1.425-0.494
			c0.558,0,1.007,0.159,1.35,0.476c0.342,0.317,0.513,0.741,0.513,1.272v9.5c0.633-1.063,1.482-1.874,2.546-2.432
			c1.064-0.557,2.28-0.836,3.648-0.836C1097.119,592.219,1099.323,594.714,1099.323,599.705z"/>
	</g>
	<g>
		<path class="st1" d="M1119.957,606.963c0.229,0.279,0.342,0.634,0.342,1.063c0,0.735-0.456,1.355-1.367,1.862
			c-0.888,0.507-1.856,0.899-2.907,1.178c-1.052,0.279-2.059,0.418-3.021,0.418c-2.938,0-5.257-0.854-6.954-2.564
			s-2.546-4.047-2.546-7.011c0-1.9,0.374-3.585,1.121-5.055c0.747-1.469,1.799-2.608,3.154-3.42
			c1.354-0.811,2.894-1.216,4.617-1.216c2.482,0,4.445,0.798,5.89,2.394c1.444,1.597,2.166,3.75,2.166,6.46
			c0,1.014-0.456,1.521-1.368,1.521h-11.742c0.253,3.927,2.141,5.89,5.662,5.89c0.938,0,1.748-0.126,2.433-0.38
			c0.684-0.253,1.405-0.582,2.166-0.987c0.075-0.051,0.284-0.158,0.627-0.323c0.342-0.165,0.627-0.247,0.854-0.247
			C1119.437,606.545,1119.729,606.685,1119.957,606.963z M1108.937,596.437c-0.888,0.938-1.419,2.255-1.597,3.952h9.805
			c-0.076-1.723-0.514-3.046-1.312-3.971s-1.919-1.388-3.362-1.388C1111.002,595.031,1109.823,595.5,1108.937,596.437z"/>
	</g>
	<g>
		<path class="st1" d="M1147.981,594.081c1.202,1.241,1.805,3.129,1.805,5.662v9.842c0,0.583-0.165,1.032-0.494,1.349
			s-0.785,0.476-1.368,0.476c-0.558,0-1.001-0.165-1.33-0.494s-0.494-0.772-0.494-1.33v-1.406c-0.481,1.064-1.196,1.881-2.146,2.451
			s-2.059,0.854-3.325,0.854c-1.216,0-2.331-0.247-3.344-0.74c-1.014-0.494-1.805-1.185-2.375-2.071s-0.855-1.875-0.855-2.964
			c0-1.343,0.349-2.4,1.045-3.173c0.697-0.772,1.85-1.324,3.458-1.653s3.819-0.494,6.632-0.494h0.874v-1.102
			c0-1.419-0.292-2.445-0.874-3.078c-0.584-0.633-1.521-0.95-2.812-0.95c-0.887,0-1.723,0.114-2.508,0.342
			c-0.786,0.229-1.647,0.558-2.584,0.988c-0.685,0.38-1.166,0.57-1.444,0.57c-0.38,0-0.69-0.14-0.931-0.418
			c-0.241-0.279-0.361-0.634-0.361-1.064c0-0.38,0.107-0.716,0.323-1.007c0.215-0.291,0.563-0.576,1.045-0.855
			c0.887-0.48,1.925-0.867,3.116-1.159c1.19-0.29,2.343-0.437,3.458-0.437C1144.947,592.219,1146.777,592.84,1147.981,594.081z
			 M1144.732,607.21c0.886-0.95,1.33-2.172,1.33-3.667v-0.988h-0.685c-1.976,0-3.496,0.089-4.56,0.266
			c-1.064,0.178-1.824,0.476-2.28,0.894s-0.684,1.02-0.684,1.805c0,0.912,0.328,1.66,0.987,2.242
			c0.659,0.583,1.482,0.874,2.471,0.874C1142.705,608.635,1143.844,608.16,1144.732,607.21z"/>
	</g>
	<g>
		<path class="st1" d="M1155.219,587.963c-0.431-0.405-0.646-0.938-0.646-1.596c0-0.659,0.215-1.185,0.646-1.577
			s1.014-0.589,1.748-0.589c0.709,0,1.286,0.196,1.729,0.589c0.442,0.393,0.665,0.918,0.665,1.577c0,0.658-0.216,1.19-0.646,1.596
			s-1.014,0.607-1.748,0.607S1155.65,588.368,1155.219,587.963z M1155.581,610.953c-0.367-0.305-0.551-0.761-0.551-1.368v-15.428
			c0-0.608,0.184-1.07,0.551-1.388c0.367-0.316,0.829-0.475,1.387-0.475s1.014,0.158,1.368,0.475
			c0.354,0.317,0.532,0.779,0.532,1.388v15.428c0,0.607-0.178,1.063-0.532,1.368c-0.354,0.304-0.811,0.456-1.368,0.456
			S1155.948,611.257,1155.581,610.953z"/>
	</g>
	<g>
		<path class="st1" d="M1175.777,593.853c0,0.558-0.14,0.976-0.418,1.254c-0.279,0.279-0.76,0.443-1.444,0.494l-1.14,0.114
			c-1.596,0.152-2.78,0.709-3.553,1.672c-0.773,0.963-1.159,2.128-1.159,3.496v8.702c0,0.607-0.178,1.063-0.532,1.368
			c-0.354,0.304-0.811,0.456-1.368,0.456s-1.02-0.152-1.387-0.456c-0.367-0.305-0.551-0.761-0.551-1.368v-15.466
			c0-0.583,0.184-1.032,0.551-1.35c0.367-0.316,0.829-0.475,1.387-0.475c0.507,0,0.932,0.158,1.273,0.475
			c0.342,0.317,0.513,0.754,0.513,1.312v1.823c0.507-1.114,1.241-1.963,2.204-2.546c0.963-0.582,2.052-0.924,3.269-1.025
			l0.531-0.038C1175.169,592.219,1175.777,592.739,1175.777,593.853z"/>
	</g>
	<g>
		<path class="st1" d="M1192.364,593.435c1.254,0.812,2.229,1.951,2.927,3.42c0.696,1.47,1.045,3.167,1.045,5.092
			c0,1.9-0.343,3.572-1.026,5.017s-1.653,2.559-2.907,3.344s-2.691,1.178-4.312,1.178c-1.394,0-2.622-0.297-3.687-0.893
			c-1.063-0.595-1.875-1.45-2.432-2.565v8.475c0,0.532-0.171,0.956-0.513,1.272c-0.343,0.316-0.792,0.476-1.35,0.476
			c-0.583,0-1.058-0.165-1.425-0.494c-0.367-0.33-0.551-0.773-0.551-1.33v-22.268c0-0.558,0.177-1.008,0.532-1.35
			c0.354-0.342,0.822-0.513,1.405-0.513c0.558,0,1.014,0.171,1.368,0.513s0.532,0.792,0.532,1.35v1.558
			c0.557-1.114,1.368-1.977,2.432-2.584c1.064-0.608,2.293-0.912,3.687-0.912C1189.685,592.219,1191.11,592.624,1192.364,593.435z
			 M1191.053,606.754c0.912-1.127,1.368-2.729,1.368-4.808c0-2.102-0.463-3.736-1.388-4.901s-2.21-1.748-3.856-1.748
			c-1.672,0-2.958,0.57-3.857,1.71s-1.349,2.762-1.349,4.864s0.449,3.724,1.349,4.863c0.899,1.141,2.186,1.71,3.857,1.71
			S1190.141,607.881,1191.053,606.754z"/>
	</g>
	<g>
		<path class="st1" d="M1203.839,610.307c-1.381-0.785-2.445-1.906-3.192-3.363c-0.747-1.456-1.121-3.147-1.121-5.072
			c0-1.951,0.374-3.654,1.121-5.111c0.747-1.456,1.812-2.577,3.192-3.363c1.38-0.785,2.982-1.178,4.807-1.178
			s3.426,0.393,4.808,1.178c1.38,0.786,2.444,1.907,3.191,3.363c0.747,1.457,1.121,3.16,1.121,5.111
			c0,1.925-0.374,3.616-1.121,5.072c-0.747,1.457-1.812,2.578-3.191,3.363c-1.382,0.785-2.983,1.178-4.808,1.178
			S1205.219,611.092,1203.839,610.307z M1212.542,606.773c0.898-1.114,1.349-2.748,1.349-4.901c0-2.128-0.456-3.756-1.368-4.884
			c-0.912-1.127-2.204-1.69-3.876-1.69s-2.964,0.563-3.876,1.69c-0.912,1.128-1.368,2.756-1.368,4.884
			c0,2.153,0.45,3.787,1.35,4.901c0.898,1.115,2.197,1.672,3.895,1.672S1211.642,607.888,1212.542,606.773z"/>
	</g>
	<g>
		<path class="st1" d="M1233.574,593.853c0,0.558-0.14,0.976-0.418,1.254c-0.279,0.279-0.76,0.443-1.444,0.494l-1.14,0.114
			c-1.596,0.152-2.78,0.709-3.553,1.672c-0.773,0.963-1.159,2.128-1.159,3.496v8.702c0,0.607-0.178,1.063-0.532,1.368
			c-0.354,0.304-0.811,0.456-1.368,0.456s-1.02-0.152-1.387-0.456c-0.367-0.305-0.551-0.761-0.551-1.368v-15.466
			c0-0.583,0.184-1.032,0.551-1.35c0.367-0.316,0.829-0.475,1.387-0.475c0.507,0,0.932,0.158,1.273,0.475
			c0.342,0.317,0.513,0.754,0.513,1.312v1.823c0.507-1.114,1.241-1.963,2.204-2.546c0.963-0.582,2.052-0.924,3.269-1.025
			l0.531-0.038C1232.965,592.219,1233.574,592.739,1233.574,593.853z"/>
	</g>
	<g>
		<path class="st1" d="M1247.805,608.92c0.24,0.241,0.36,0.576,0.36,1.007c0,0.507-0.196,0.893-0.589,1.159
			c-0.393,0.266-0.969,0.373-1.729,0.323l-1.026-0.076c-2.052-0.152-3.585-0.779-4.598-1.881c-1.014-1.103-1.521-2.729-1.521-4.884
			v-8.93h-2.28c-1.114,0-1.672-0.494-1.672-1.481c0-0.456,0.146-0.817,0.438-1.083c0.291-0.267,0.703-0.399,1.234-0.399h2.28v-3.914
			c0-0.582,0.171-1.038,0.513-1.368c0.343-0.329,0.805-0.494,1.388-0.494c0.582,0,1.051,0.165,1.405,0.494
			c0.354,0.33,0.532,0.786,0.532,1.368v3.914h3.763c0.531,0,0.943,0.133,1.234,0.399c0.291,0.266,0.438,0.627,0.438,1.083
			c0,0.481-0.146,0.849-0.438,1.102c-0.291,0.254-0.703,0.38-1.234,0.38h-3.763v9.196c0,1.19,0.247,2.064,0.741,2.622
			s1.247,0.874,2.261,0.95l1.064,0.075C1247.165,608.534,1247.564,608.68,1247.805,608.92z"/>
	</g>
</g>
<g>
	<g>
		<path class="st1" d="M1240.393,186.87c-1.899-1.103-3.356-2.686-4.37-4.75c-1.013-2.064-1.52-4.503-1.52-7.315
			c0-2.786,0.507-5.212,1.52-7.277c1.014-2.064,2.471-3.647,4.37-4.75c1.9-1.102,4.129-1.652,6.688-1.652
			c1.672,0,3.255,0.26,4.75,0.778c1.494,0.52,2.799,1.273,3.914,2.262c0.48,0.38,0.722,0.887,0.722,1.52
			c0,0.456-0.127,0.843-0.38,1.159c-0.254,0.317-0.558,0.475-0.912,0.475c-0.431,0-0.849-0.164-1.254-0.493
			c-1.216-0.912-2.324-1.552-3.325-1.92c-1.001-0.366-2.135-0.551-3.4-0.551c-2.787,0-4.928,0.899-6.423,2.698
			s-2.241,4.383-2.241,7.752c0,3.396,0.746,5.991,2.241,7.79s3.636,2.698,6.423,2.698c1.216,0,2.323-0.19,3.324-0.57
			s2.134-1.013,3.401-1.9c0.507-0.328,0.925-0.493,1.254-0.493c0.354,0,0.658,0.158,0.912,0.475c0.253,0.317,0.38,0.703,0.38,1.159
			c0,0.634-0.241,1.14-0.722,1.52c-1.115,0.988-2.42,1.742-3.914,2.262c-1.495,0.519-3.078,0.778-4.75,0.778
			C1244.522,188.523,1242.294,187.972,1240.393,186.87z"/>
	</g>
	<g>
		<path class="st1" d="M1277.329,176.705v9.88c0,0.558-0.177,1.001-0.531,1.33c-0.355,0.329-0.824,0.494-1.406,0.494
			c-0.583,0-1.045-0.165-1.388-0.494c-0.342-0.329-0.513-0.772-0.513-1.33v-9.842c0-1.521-0.311-2.635-0.931-3.345
			c-0.621-0.709-1.59-1.063-2.907-1.063c-1.546,0-2.787,0.481-3.724,1.443c-0.938,0.964-1.406,2.256-1.406,3.876v8.931
			c0,0.558-0.171,1.001-0.513,1.33c-0.343,0.329-0.805,0.494-1.388,0.494s-1.051-0.165-1.405-0.494
			c-0.355-0.329-0.532-0.772-0.532-1.33v-23.522c0-0.557,0.184-1,0.551-1.33c0.367-0.328,0.842-0.494,1.425-0.494
			c0.558,0,1.007,0.159,1.35,0.476c0.342,0.317,0.513,0.741,0.513,1.272v9.5c0.633-1.063,1.482-1.874,2.546-2.432
			c1.064-0.557,2.28-0.836,3.648-0.836C1275.125,169.219,1277.329,171.714,1277.329,176.705z"/>
	</g>
	<g>
		<path class="st1" d="M1297.963,183.963c0.229,0.279,0.342,0.634,0.342,1.063c0,0.735-0.456,1.355-1.367,1.862
			c-0.888,0.507-1.856,0.899-2.907,1.178c-1.052,0.279-2.059,0.418-3.021,0.418c-2.938,0-5.257-0.854-6.954-2.564
			s-2.546-4.047-2.546-7.011c0-1.9,0.374-3.585,1.121-5.055c0.747-1.469,1.799-2.608,3.154-3.42
			c1.354-0.811,2.894-1.216,4.617-1.216c2.482,0,4.445,0.798,5.89,2.394c1.444,1.597,2.166,3.75,2.166,6.46
			c0,1.014-0.456,1.521-1.368,1.521h-11.742c0.253,3.927,2.141,5.89,5.662,5.89c0.938,0,1.748-0.126,2.433-0.38
			c0.684-0.253,1.405-0.582,2.166-0.987c0.075-0.051,0.284-0.158,0.627-0.323c0.342-0.165,0.627-0.247,0.854-0.247
			C1297.443,183.545,1297.735,183.685,1297.963,183.963z M1286.943,173.437c-0.888,0.938-1.419,2.255-1.597,3.952h9.805
			c-0.076-1.723-0.514-3.046-1.312-3.971s-1.919-1.388-3.362-1.388C1289.007,172.031,1287.829,172.5,1286.943,173.437z"/>
	</g>
	<g>
		<path class="st1" d="M1305.885,187.307c-1.355-0.785-2.407-1.899-3.154-3.344s-1.121-3.116-1.121-5.017
			c0-1.925,0.387-3.622,1.159-5.092c0.772-1.469,1.855-2.608,3.249-3.42c1.393-0.811,2.989-1.216,4.788-1.216
			c0.963,0,1.932,0.14,2.907,0.418c0.975,0.279,1.843,0.659,2.603,1.14c0.811,0.558,1.216,1.204,1.216,1.938
			c0,0.431-0.113,0.792-0.342,1.083c-0.228,0.291-0.52,0.437-0.874,0.437c-0.228,0-0.456-0.057-0.684-0.171
			c-0.229-0.113-0.52-0.285-0.874-0.513c-0.634-0.405-1.223-0.716-1.768-0.931s-1.196-0.323-1.957-0.323
			c-1.723,0-3.059,0.583-4.009,1.748s-1.425,2.787-1.425,4.864s0.469,3.68,1.406,4.807c0.937,1.128,2.267,1.691,3.99,1.691
			c0.76,0,1.431-0.114,2.014-0.343c0.582-0.228,1.178-0.531,1.786-0.912c0.278-0.177,0.557-0.328,0.836-0.456
			c0.278-0.126,0.532-0.189,0.76-0.189c0.354,0,0.646,0.146,0.874,0.437c0.229,0.292,0.342,0.653,0.342,1.083
			c0,0.355-0.095,0.679-0.285,0.97c-0.189,0.291-0.513,0.589-0.969,0.893c-0.76,0.507-1.646,0.899-2.66,1.178
			c-1.014,0.279-2.039,0.418-3.078,0.418C1308.817,188.485,1307.24,188.092,1305.885,187.307z"/>
	</g>
	<g>
		<path class="st1" d="M1337.292,186.623c0,0.481-0.165,0.899-0.494,1.254s-0.722,0.532-1.178,0.532
			c-0.481,0-0.912-0.178-1.292-0.532l-9.462-8.36v7.03c0,0.607-0.178,1.07-0.532,1.387s-0.811,0.476-1.368,0.476
			s-1.02-0.159-1.387-0.476s-0.551-0.779-0.551-1.387v-23.446c0-0.607,0.184-1.069,0.551-1.387c0.367-0.316,0.829-0.476,1.387-0.476
			s1.014,0.159,1.368,0.476c0.354,0.317,0.532,0.779,0.532,1.387v14.896l8.664-8.095c0.431-0.38,0.849-0.569,1.254-0.569
			c0.48,0,0.898,0.178,1.254,0.532c0.354,0.354,0.532,0.772,0.532,1.254s-0.216,0.925-0.646,1.33l-6.764,6.193l7.448,6.574
			C1337.064,185.597,1337.292,186.066,1337.292,186.623z"/>
	</g>
	<g>
		<path class="st1" d="M1350.895,164.963c-0.431-0.405-0.646-0.938-0.646-1.596c0-0.659,0.215-1.185,0.646-1.577
			s1.014-0.589,1.748-0.589c0.709,0,1.286,0.196,1.729,0.589c0.442,0.393,0.665,0.918,0.665,1.577c0,0.658-0.216,1.19-0.646,1.596
			s-1.014,0.607-1.748,0.607S1351.326,165.368,1350.895,164.963z M1351.256,187.953c-0.367-0.305-0.551-0.761-0.551-1.368v-15.428
			c0-0.608,0.184-1.07,0.551-1.388c0.367-0.316,0.829-0.475,1.387-0.475s1.014,0.158,1.368,0.475
			c0.354,0.317,0.532,0.779,0.532,1.388v15.428c0,0.607-0.178,1.063-0.532,1.368c-0.354,0.304-0.811,0.456-1.368,0.456
			S1351.624,188.257,1351.256,187.953z"/>
	</g>
	<g>
		<path class="st1" d="M1376.545,176.705v9.88c0,0.583-0.171,1.032-0.513,1.349s-0.817,0.476-1.425,0.476
			c-0.583,0-1.045-0.165-1.388-0.494c-0.342-0.329-0.513-0.772-0.513-1.33v-9.69c0-1.57-0.311-2.723-0.931-3.458
			c-0.621-0.734-1.59-1.102-2.907-1.102c-1.546,0-2.787,0.481-3.724,1.443c-0.938,0.964-1.406,2.256-1.406,3.876v8.931
			c0,0.558-0.171,1.001-0.513,1.33c-0.343,0.329-0.805,0.494-1.388,0.494s-1.051-0.165-1.405-0.494
			c-0.355-0.329-0.532-0.772-0.532-1.33v-15.466c0-0.532,0.184-0.97,0.551-1.312s0.829-0.513,1.387-0.513s1.001,0.165,1.33,0.494
			s0.494,0.76,0.494,1.292v1.558c0.608-1.114,1.457-1.963,2.546-2.546c1.089-0.582,2.318-0.874,3.687-0.874
			C1374.328,169.219,1376.545,171.714,1376.545,176.705z"/>
	</g>
</g>
<g>
	<g>
		<path class="st1" d="M1677.776,176.743c0.849,1.114,1.273,2.508,1.273,4.18c0,2.306-0.792,4.098-2.375,5.377
			c-1.584,1.279-3.794,1.919-6.631,1.919h-9.69c-0.607,0-1.083-0.171-1.425-0.513c-0.342-0.343-0.513-0.805-0.513-1.388v-22.989
			c0-0.583,0.171-1.045,0.513-1.388c0.342-0.342,0.817-0.513,1.425-0.513h9.272c2.761,0,4.921,0.614,6.479,1.843
			c1.559,1.229,2.337,2.945,2.337,5.149c0,1.419-0.374,2.647-1.12,3.686c-0.748,1.039-1.793,1.812-3.136,2.318
			C1675.73,174.856,1676.927,175.628,1677.776,176.743z M1662.254,173.019h6.764c3.749,0,5.624-1.418,5.624-4.256
			c0-1.418-0.462-2.47-1.387-3.154c-0.925-0.684-2.337-1.025-4.237-1.025h-6.764V173.019z M1673.92,184.001
			c0.912-0.709,1.368-1.812,1.368-3.307c0-1.52-0.463-2.653-1.388-3.4s-2.35-1.121-4.274-1.121h-7.372v8.892h7.372
			C1671.576,185.065,1673.007,184.71,1673.92,184.001z"/>
	</g>
	<g>
		<path class="st1" d="M1686.972,187.307c-1.381-0.785-2.445-1.906-3.192-3.363c-0.747-1.456-1.121-3.147-1.121-5.072
			c0-1.951,0.374-3.654,1.121-5.111c0.747-1.456,1.812-2.577,3.192-3.363c1.38-0.785,2.982-1.178,4.807-1.178
			s3.426,0.393,4.808,1.178c1.38,0.786,2.444,1.907,3.191,3.363c0.747,1.457,1.121,3.16,1.121,5.111
			c0,1.925-0.374,3.616-1.121,5.072c-0.747,1.457-1.812,2.578-3.191,3.363c-1.382,0.785-2.983,1.178-4.808,1.178
			S1688.352,188.092,1686.972,187.307z M1695.674,183.773c0.898-1.114,1.349-2.748,1.349-4.901c0-2.128-0.456-3.756-1.368-4.884
			c-0.912-1.127-2.204-1.69-3.876-1.69s-2.964,0.563-3.876,1.69c-0.912,1.128-1.368,2.756-1.368,4.884
			c0,2.153,0.45,3.787,1.35,4.901c0.898,1.115,2.197,1.672,3.895,1.672S1694.775,184.888,1695.674,183.773z"/>
	</g>
	<g>
		<path class="st1" d="M1718.436,171.081c1.202,1.241,1.805,3.129,1.805,5.662v9.842c0,0.583-0.165,1.032-0.494,1.349
			s-0.785,0.476-1.368,0.476c-0.558,0-1.001-0.165-1.33-0.494s-0.494-0.772-0.494-1.33v-1.406c-0.481,1.064-1.196,1.881-2.146,2.451
			s-2.059,0.854-3.325,0.854c-1.216,0-2.331-0.247-3.344-0.74c-1.014-0.494-1.805-1.185-2.375-2.071s-0.855-1.875-0.855-2.964
			c0-1.343,0.349-2.4,1.045-3.173c0.697-0.772,1.85-1.324,3.458-1.653s3.819-0.494,6.632-0.494h0.874v-1.102
			c0-1.419-0.292-2.445-0.874-3.078c-0.584-0.633-1.521-0.95-2.812-0.95c-0.887,0-1.723,0.114-2.508,0.342
			c-0.786,0.229-1.647,0.558-2.584,0.988c-0.685,0.38-1.166,0.57-1.444,0.57c-0.38,0-0.69-0.14-0.931-0.418
			c-0.241-0.279-0.361-0.634-0.361-1.064c0-0.38,0.107-0.716,0.323-1.007c0.215-0.291,0.563-0.576,1.045-0.855
			c0.887-0.48,1.925-0.867,3.116-1.159c1.19-0.29,2.343-0.437,3.458-0.437C1715.402,169.219,1717.232,169.84,1718.436,171.081z
			 M1715.187,184.21c0.886-0.95,1.33-2.172,1.33-3.667v-0.988h-0.685c-1.976,0-3.496,0.089-4.56,0.266
			c-1.064,0.178-1.824,0.476-2.28,0.894s-0.684,1.02-0.684,1.805c0,0.912,0.328,1.66,0.987,2.242
			c0.659,0.583,1.482,0.874,2.471,0.874C1713.16,185.635,1714.299,185.16,1715.187,184.21z"/>
	</g>
	<g>
		<path class="st1" d="M1737.037,170.853c0,0.558-0.14,0.976-0.418,1.254c-0.279,0.279-0.76,0.443-1.444,0.494l-1.14,0.114
			c-1.596,0.152-2.78,0.709-3.553,1.672c-0.773,0.963-1.159,2.128-1.159,3.496v8.702c0,0.607-0.178,1.063-0.532,1.368
			c-0.354,0.304-0.811,0.456-1.368,0.456s-1.02-0.152-1.387-0.456c-0.367-0.305-0.551-0.761-0.551-1.368v-15.466
			c0-0.583,0.184-1.032,0.551-1.35c0.367-0.316,0.829-0.475,1.387-0.475c0.507,0,0.932,0.158,1.273,0.475
			c0.342,0.317,0.513,0.754,0.513,1.312v1.823c0.507-1.114,1.241-1.963,2.204-2.546c0.963-0.582,2.052-0.924,3.269-1.025
			l0.531-0.038C1736.428,169.219,1737.037,169.739,1737.037,170.853z"/>
	</g>
	<g>
		<path class="st1" d="M1755.581,161.733c0.354,0.33,0.532,0.773,0.532,1.33v23.484c0,0.583-0.171,1.039-0.513,1.368
			s-0.805,0.494-1.387,0.494c-0.583,0-1.045-0.165-1.388-0.494c-0.342-0.329-0.513-0.785-0.513-1.368v-1.521
			c-0.558,1.115-1.368,1.971-2.432,2.565c-1.064,0.596-2.293,0.893-3.687,0.893c-1.596,0-3.021-0.404-4.274-1.216
			c-1.254-0.811-2.229-1.95-2.927-3.42c-0.696-1.469-1.045-3.154-1.045-5.054c0-1.925,0.349-3.61,1.045-5.054
			c0.697-1.444,1.666-2.559,2.907-3.345c1.241-0.785,2.673-1.178,4.294-1.178c1.394,0,2.615,0.298,3.667,0.893
			c1.051,0.596,1.855,1.438,2.413,2.527v-9.652c0-0.531,0.171-0.955,0.513-1.272c0.343-0.316,0.805-0.476,1.388-0.476
			C1754.757,161.239,1755.226,161.405,1755.581,161.733z M1750.945,183.735c0.912-1.14,1.368-2.761,1.368-4.863
			s-0.45-3.725-1.349-4.864c-0.899-1.14-2.186-1.71-3.857-1.71s-2.971,0.563-3.895,1.69c-0.926,1.128-1.388,2.73-1.388,4.808
			s0.469,3.705,1.406,4.883c0.937,1.178,2.229,1.767,3.876,1.767S1750.033,184.875,1750.945,183.735z"/>
	</g>
	<g>
		<path class="st1" d="M1761.66,164.963c-0.431-0.405-0.646-0.938-0.646-1.596c0-0.659,0.215-1.185,0.646-1.577
			s1.014-0.589,1.748-0.589c0.709,0,1.286,0.196,1.729,0.589c0.442,0.393,0.665,0.918,0.665,1.577c0,0.658-0.216,1.19-0.646,1.596
			s-1.014,0.607-1.748,0.607S1762.09,165.368,1761.66,164.963z M1762.021,187.953c-0.367-0.305-0.551-0.761-0.551-1.368v-15.428
			c0-0.608,0.184-1.07,0.551-1.388c0.367-0.316,0.829-0.475,1.387-0.475s1.014,0.158,1.368,0.475
			c0.354,0.317,0.532,0.779,0.532,1.388v15.428c0,0.607-0.178,1.063-0.532,1.368c-0.354,0.304-0.811,0.456-1.368,0.456
			S1762.388,188.257,1762.021,187.953z"/>
	</g>
	<g>
		<path class="st1" d="M1787.309,176.705v9.88c0,0.583-0.171,1.032-0.513,1.349s-0.817,0.476-1.425,0.476
			c-0.583,0-1.045-0.165-1.388-0.494c-0.342-0.329-0.513-0.772-0.513-1.33v-9.69c0-1.57-0.311-2.723-0.931-3.458
			c-0.621-0.734-1.59-1.102-2.907-1.102c-1.546,0-2.787,0.481-3.724,1.443c-0.938,0.964-1.406,2.256-1.406,3.876v8.931
			c0,0.558-0.171,1.001-0.513,1.33c-0.343,0.329-0.805,0.494-1.388,0.494s-1.051-0.165-1.405-0.494
			c-0.355-0.329-0.532-0.772-0.532-1.33v-15.466c0-0.532,0.184-0.97,0.551-1.312s0.829-0.513,1.387-0.513s1.001,0.165,1.33,0.494
			s0.494,0.76,0.494,1.292v1.558c0.608-1.114,1.457-1.963,2.546-2.546c1.089-0.582,2.318-0.874,3.687-0.874
			C1785.092,169.219,1787.309,171.714,1787.309,176.705z"/>
	</g>
	<g>
		<path class="st1" d="M1809.293,169.808c0.342,0.342,0.513,0.792,0.513,1.35v15.579c0,2.837-0.754,4.979-2.261,6.423
			c-1.508,1.443-3.73,2.166-6.669,2.166c-2.736,0-5.017-0.52-6.841-1.559c-0.938-0.532-1.405-1.165-1.405-1.899
			c0-0.432,0.119-0.786,0.36-1.064c0.241-0.279,0.538-0.418,0.894-0.418c0.329,0,0.849,0.19,1.558,0.57
			c0.912,0.43,1.761,0.766,2.546,1.007c0.785,0.24,1.723,0.36,2.812,0.36c3.496,0,5.244-1.761,5.244-5.281v-2.926
			c-0.532,1.114-1.344,1.982-2.433,2.603c-1.089,0.621-2.355,0.931-3.8,0.931c-1.621,0-3.065-0.38-4.332-1.14
			s-2.248-1.837-2.945-3.23c-0.696-1.393-1.045-3.002-1.045-4.825c0-1.824,0.354-3.433,1.064-4.826
			c0.709-1.394,1.69-2.477,2.945-3.249c1.254-0.772,2.691-1.159,4.312-1.159c1.419,0,2.666,0.304,3.743,0.912
			c1.076,0.607,1.894,1.47,2.451,2.584v-1.596c0-0.558,0.171-1.001,0.513-1.33s0.804-0.494,1.387-0.494
			S1808.95,169.466,1809.293,169.808z M1804.599,182.975c0.937-1.089,1.406-2.597,1.406-4.521c0-1.9-0.463-3.401-1.388-4.503
			c-0.925-1.103-2.223-1.653-3.895-1.653s-2.983,0.545-3.933,1.634c-0.95,1.09-1.426,2.597-1.426,4.522
			c0,1.925,0.481,3.433,1.444,4.521c0.963,1.09,2.267,1.634,3.914,1.634C1802.37,184.609,1803.662,184.065,1804.599,182.975z"/>
	</g>
</g>
<g>
	<g>
		<path class="st1" d="M1364,608.749c-1.85-1.85-2.774-4.572-2.774-8.17v-14.364c0-0.608,0.177-1.089,0.532-1.444
			c0.354-0.354,0.823-0.532,1.406-0.532c0.582,0,1.051,0.178,1.405,0.532c0.354,0.355,0.532,0.836,0.532,1.444v14.63
			c0,2.458,0.589,4.319,1.768,5.586c1.178,1.268,2.932,1.9,5.263,1.9c2.305,0,4.053-0.633,5.244-1.9
			c1.19-1.267,1.786-3.128,1.786-5.586v-14.63c0-0.583,0.177-1.058,0.531-1.425s0.823-0.552,1.406-0.552s1.051,0.178,1.406,0.532
			c0.354,0.355,0.532,0.836,0.532,1.444v14.364c0,3.571-0.932,6.289-2.793,8.15c-1.862,1.862-4.566,2.793-8.113,2.793
			C1368.559,611.523,1365.848,610.599,1364,608.749z"/>
	</g>
	<g>
		<path class="st1" d="M1388.738,609.889c-0.456-0.278-0.779-0.57-0.97-0.874c-0.189-0.304-0.285-0.646-0.285-1.026
			c0-0.404,0.114-0.746,0.343-1.025c0.228-0.278,0.519-0.418,0.874-0.418c0.328,0,0.848,0.203,1.558,0.607
			c0.76,0.406,1.501,0.735,2.223,0.988c0.723,0.254,1.628,0.38,2.718,0.38c1.216,0,2.166-0.215,2.85-0.646s1.026-1.039,1.026-1.824
			c0-0.507-0.134-0.912-0.399-1.216c-0.266-0.305-0.729-0.576-1.387-0.817c-0.659-0.24-1.634-0.5-2.926-0.779
			c-2.229-0.48-3.832-1.133-4.808-1.956s-1.463-1.944-1.463-3.363c0-1.089,0.316-2.071,0.95-2.945
			c0.633-0.874,1.507-1.552,2.622-2.033c1.114-0.48,2.381-0.722,3.8-0.722c1.013,0,2.001,0.133,2.964,0.399
			c0.963,0.266,1.812,0.652,2.546,1.158c0.836,0.558,1.254,1.204,1.254,1.938c0,0.405-0.12,0.747-0.36,1.026
			c-0.241,0.278-0.526,0.418-0.855,0.418c-0.228,0-0.456-0.051-0.684-0.152c-0.229-0.101-0.532-0.266-0.912-0.494
			c-0.685-0.405-1.324-0.722-1.919-0.95c-0.596-0.228-1.337-0.342-2.224-0.342c-1.063,0-1.919,0.229-2.564,0.684
			c-0.646,0.456-0.969,1.077-0.969,1.862c0,0.71,0.297,1.261,0.893,1.653c0.595,0.393,1.716,0.767,3.363,1.121
			c1.696,0.354,3.026,0.76,3.99,1.216c0.962,0.456,1.652,1.02,2.07,1.69c0.418,0.672,0.627,1.527,0.627,2.565
			c0,1.647-0.69,2.971-2.07,3.971c-1.382,1.001-3.225,1.501-5.529,1.501C1392.5,611.485,1390.384,610.953,1388.738,609.889z"/>
	</g>
	<g>
		<path class="st1" d="M1422.329,606.963c0.229,0.279,0.342,0.634,0.342,1.063c0,0.735-0.456,1.355-1.367,1.862
			c-0.888,0.507-1.856,0.899-2.907,1.178c-1.052,0.279-2.059,0.418-3.021,0.418c-2.938,0-5.257-0.854-6.954-2.564
			s-2.546-4.047-2.546-7.011c0-1.9,0.374-3.585,1.121-5.055c0.747-1.469,1.799-2.608,3.154-3.42
			c1.354-0.811,2.894-1.216,4.617-1.216c2.482,0,4.445,0.798,5.89,2.394c1.444,1.597,2.166,3.75,2.166,6.46
			c0,1.014-0.456,1.521-1.368,1.521h-11.742c0.253,3.927,2.141,5.89,5.662,5.89c0.938,0,1.748-0.126,2.433-0.38
			c0.684-0.253,1.405-0.582,2.166-0.987c0.075-0.051,0.284-0.158,0.627-0.323c0.342-0.165,0.627-0.247,0.854-0.247
			C1421.809,606.545,1422.101,606.685,1422.329,606.963z M1411.309,596.437c-0.888,0.938-1.419,2.255-1.597,3.952h9.805
			c-0.076-1.723-0.514-3.046-1.312-3.971s-1.919-1.388-3.362-1.388C1413.374,595.031,1412.195,595.5,1411.309,596.437z"/>
	</g>
	<g>
		<path class="st1" d="M1451.323,593.397c1.241,0.786,2.21,1.9,2.907,3.345c0.696,1.443,1.045,3.129,1.045,5.054
			c0,1.899-0.349,3.585-1.045,5.054c-0.697,1.47-1.673,2.609-2.927,3.42c-1.254,0.812-2.679,1.216-4.274,1.216
			c-1.394,0-2.622-0.297-3.687-0.893c-1.063-0.595-1.875-1.45-2.432-2.565v1.521c0,0.558-0.171,1.007-0.513,1.349
			c-0.343,0.342-0.805,0.514-1.388,0.514s-1.051-0.172-1.405-0.514c-0.355-0.342-0.532-0.791-0.532-1.349v-23.484
			c0-0.557,0.184-1,0.551-1.33c0.367-0.328,0.842-0.494,1.425-0.494c0.558,0,1.007,0.159,1.35,0.476
			c0.342,0.317,0.513,0.741,0.513,1.272v9.729c0.557-1.114,1.368-1.977,2.432-2.584c1.064-0.608,2.293-0.912,3.687-0.912
			C1448.65,592.219,1450.082,592.612,1451.323,593.397z M1449.973,606.697c0.925-1.164,1.388-2.799,1.388-4.901
			c0-2.077-0.456-3.68-1.368-4.808c-0.912-1.127-2.204-1.69-3.876-1.69s-2.958,0.57-3.857,1.71s-1.349,2.762-1.349,4.864
			s0.449,3.724,1.349,4.863c0.899,1.141,2.186,1.71,3.857,1.71C1447.763,608.445,1449.048,607.863,1449.973,606.697z"/>
	</g>
	<g>
		<path class="st1" d="M1475.281,592.789c0.342,0.329,0.513,0.785,0.513,1.368v15.466c0,0.531-0.178,0.963-0.532,1.292
			s-0.823,0.494-1.405,0.494c-0.532,0-0.964-0.159-1.292-0.476c-0.33-0.316-0.494-0.741-0.494-1.272v-1.444
			c-0.583,1.063-1.387,1.875-2.413,2.432c-1.026,0.558-2.173,0.836-3.439,0.836c-4.509,0-6.764-2.482-6.764-7.447v-9.88
			c0-0.583,0.171-1.039,0.513-1.368c0.343-0.329,0.817-0.494,1.426-0.494c0.582,0,1.045,0.165,1.387,0.494s0.513,0.785,0.513,1.368
			v9.842c0,1.495,0.304,2.597,0.912,3.306c0.608,0.71,1.545,1.064,2.812,1.064c1.494,0,2.691-0.481,3.591-1.444
			c0.898-0.963,1.349-2.242,1.349-3.838v-8.93c0-0.558,0.177-1.008,0.532-1.35c0.354-0.342,0.823-0.513,1.406-0.513
			C1474.476,592.295,1474.939,592.46,1475.281,592.789z"/>
	</g>
	<g>
		<path class="st1" d="M1481.266,609.889c-0.456-0.278-0.779-0.57-0.97-0.874c-0.189-0.304-0.285-0.646-0.285-1.026
			c0-0.404,0.114-0.746,0.343-1.025c0.228-0.278,0.519-0.418,0.874-0.418c0.328,0,0.848,0.203,1.558,0.607
			c0.76,0.406,1.501,0.735,2.223,0.988c0.723,0.254,1.628,0.38,2.718,0.38c1.216,0,2.166-0.215,2.85-0.646s1.026-1.039,1.026-1.824
			c0-0.507-0.134-0.912-0.399-1.216c-0.266-0.305-0.729-0.576-1.387-0.817c-0.659-0.24-1.634-0.5-2.926-0.779
			c-2.229-0.48-3.832-1.133-4.808-1.956s-1.463-1.944-1.463-3.363c0-1.089,0.316-2.071,0.95-2.945
			c0.633-0.874,1.507-1.552,2.622-2.033c1.114-0.48,2.381-0.722,3.8-0.722c1.013,0,2.001,0.133,2.964,0.399
			c0.963,0.266,1.812,0.652,2.546,1.158c0.836,0.558,1.254,1.204,1.254,1.938c0,0.405-0.12,0.747-0.36,1.026
			c-0.241,0.278-0.526,0.418-0.855,0.418c-0.228,0-0.456-0.051-0.684-0.152c-0.229-0.101-0.532-0.266-0.912-0.494
			c-0.685-0.405-1.324-0.722-1.919-0.95c-0.596-0.228-1.337-0.342-2.224-0.342c-1.063,0-1.919,0.229-2.564,0.684
			c-0.646,0.456-0.969,1.077-0.969,1.862c0,0.71,0.297,1.261,0.893,1.653c0.595,0.393,1.716,0.767,3.363,1.121
			c1.696,0.354,3.026,0.76,3.99,1.216c0.962,0.456,1.652,1.02,2.07,1.69c0.418,0.672,0.627,1.527,0.627,2.565
			c0,1.647-0.69,2.971-2.07,3.971c-1.382,1.001-3.225,1.501-5.529,1.501C1485.028,611.485,1482.913,610.953,1481.266,609.889z"/>
	</g>
	<g>
		<path class="st1" d="M1499.657,587.963c-0.431-0.405-0.646-0.938-0.646-1.596c0-0.659,0.215-1.185,0.646-1.577
			s1.014-0.589,1.748-0.589c0.709,0,1.286,0.196,1.729,0.589c0.442,0.393,0.665,0.918,0.665,1.577c0,0.658-0.216,1.19-0.646,1.596
			s-1.014,0.607-1.748,0.607S1500.088,588.368,1499.657,587.963z M1500.018,610.953c-0.367-0.305-0.551-0.761-0.551-1.368v-15.428
			c0-0.608,0.184-1.07,0.551-1.388c0.367-0.316,0.829-0.475,1.387-0.475s1.014,0.158,1.368,0.475
			c0.354,0.317,0.532,0.779,0.532,1.388v15.428c0,0.607-0.178,1.063-0.532,1.368c-0.354,0.304-0.811,0.456-1.368,0.456
			S1500.385,611.257,1500.018,610.953z"/>
	</g>
	<g>
		<path class="st1" d="M1525.306,599.705v9.88c0,0.583-0.171,1.032-0.513,1.349s-0.817,0.476-1.425,0.476
			c-0.583,0-1.045-0.165-1.388-0.494c-0.342-0.329-0.513-0.772-0.513-1.33v-9.69c0-1.57-0.311-2.723-0.931-3.458
			c-0.621-0.734-1.59-1.102-2.907-1.102c-1.546,0-2.787,0.481-3.724,1.443c-0.938,0.964-1.406,2.256-1.406,3.876v8.931
			c0,0.558-0.171,1.001-0.513,1.33c-0.343,0.329-0.805,0.494-1.388,0.494s-1.051-0.165-1.405-0.494
			c-0.355-0.329-0.532-0.772-0.532-1.33v-15.466c0-0.532,0.184-0.97,0.551-1.312s0.829-0.513,1.387-0.513s1.001,0.165,1.33,0.494
			s0.494,0.76,0.494,1.292v1.558c0.608-1.114,1.457-1.963,2.546-2.546c1.089-0.582,2.318-0.874,3.687-0.874
			C1523.089,592.219,1525.306,594.714,1525.306,599.705z"/>
	</g>
	<g>
		<path class="st1" d="M1545.94,606.963c0.229,0.279,0.342,0.634,0.342,1.063c0,0.735-0.456,1.355-1.367,1.862
			c-0.888,0.507-1.856,0.899-2.907,1.178c-1.052,0.279-2.059,0.418-3.021,0.418c-2.938,0-5.257-0.854-6.954-2.564
			s-2.546-4.047-2.546-7.011c0-1.9,0.374-3.585,1.121-5.055c0.747-1.469,1.799-2.608,3.154-3.42
			c1.354-0.811,2.894-1.216,4.617-1.216c2.482,0,4.445,0.798,5.89,2.394c1.444,1.597,2.166,3.75,2.166,6.46
			c0,1.014-0.456,1.521-1.368,1.521h-11.742c0.253,3.927,2.141,5.89,5.662,5.89c0.938,0,1.748-0.126,2.433-0.38
			c0.684-0.253,1.405-0.582,2.166-0.987c0.075-0.051,0.284-0.158,0.627-0.323c0.342-0.165,0.627-0.247,0.854-0.247
			C1545.421,606.545,1545.713,606.685,1545.94,606.963z M1534.921,596.437c-0.888,0.938-1.419,2.255-1.597,3.952h9.805
			c-0.076-1.723-0.514-3.046-1.312-3.971s-1.919-1.388-3.362-1.388C1536.985,595.031,1535.806,595.5,1534.921,596.437z"/>
	</g>
	<g>
		<path class="st1" d="M1550.766,609.889c-0.456-0.278-0.779-0.57-0.97-0.874c-0.189-0.304-0.285-0.646-0.285-1.026
			c0-0.404,0.114-0.746,0.343-1.025c0.228-0.278,0.519-0.418,0.874-0.418c0.328,0,0.848,0.203,1.558,0.607
			c0.76,0.406,1.501,0.735,2.223,0.988c0.723,0.254,1.628,0.38,2.718,0.38c1.216,0,2.166-0.215,2.85-0.646s1.026-1.039,1.026-1.824
			c0-0.507-0.134-0.912-0.399-1.216c-0.266-0.305-0.729-0.576-1.387-0.817c-0.659-0.24-1.634-0.5-2.926-0.779
			c-2.229-0.48-3.832-1.133-4.808-1.956s-1.463-1.944-1.463-3.363c0-1.089,0.316-2.071,0.95-2.945
			c0.633-0.874,1.507-1.552,2.622-2.033c1.114-0.48,2.381-0.722,3.8-0.722c1.013,0,2.001,0.133,2.964,0.399
			c0.963,0.266,1.812,0.652,2.546,1.158c0.836,0.558,1.254,1.204,1.254,1.938c0,0.405-0.12,0.747-0.36,1.026
			c-0.241,0.278-0.526,0.418-0.855,0.418c-0.228,0-0.456-0.051-0.684-0.152c-0.229-0.101-0.532-0.266-0.912-0.494
			c-0.685-0.405-1.324-0.722-1.919-0.95c-0.596-0.228-1.337-0.342-2.224-0.342c-1.063,0-1.919,0.229-2.564,0.684
			c-0.646,0.456-0.969,1.077-0.969,1.862c0,0.71,0.297,1.261,0.893,1.653c0.595,0.393,1.716,0.767,3.363,1.121
			c1.696,0.354,3.026,0.76,3.99,1.216c0.962,0.456,1.652,1.02,2.07,1.69c0.418,0.672,0.627,1.527,0.627,2.565
			c0,1.647-0.69,2.971-2.07,3.971c-1.382,1.001-3.225,1.501-5.529,1.501C1554.528,611.485,1552.413,610.953,1550.766,609.889z"/>
	</g>
	<g>
		<path class="st1" d="M1569.083,609.889c-0.456-0.278-0.779-0.57-0.97-0.874c-0.189-0.304-0.285-0.646-0.285-1.026
			c0-0.404,0.114-0.746,0.343-1.025c0.228-0.278,0.519-0.418,0.874-0.418c0.328,0,0.848,0.203,1.558,0.607
			c0.76,0.406,1.501,0.735,2.223,0.988c0.723,0.254,1.628,0.38,2.718,0.38c1.216,0,2.166-0.215,2.85-0.646s1.026-1.039,1.026-1.824
			c0-0.507-0.134-0.912-0.399-1.216c-0.266-0.305-0.729-0.576-1.387-0.817c-0.659-0.24-1.634-0.5-2.926-0.779
			c-2.229-0.48-3.832-1.133-4.808-1.956s-1.463-1.944-1.463-3.363c0-1.089,0.316-2.071,0.95-2.945
			c0.633-0.874,1.507-1.552,2.622-2.033c1.114-0.48,2.381-0.722,3.8-0.722c1.013,0,2.001,0.133,2.964,0.399
			c0.963,0.266,1.812,0.652,2.546,1.158c0.836,0.558,1.254,1.204,1.254,1.938c0,0.405-0.12,0.747-0.36,1.026
			c-0.241,0.278-0.526,0.418-0.855,0.418c-0.228,0-0.456-0.051-0.684-0.152c-0.229-0.101-0.532-0.266-0.912-0.494
			c-0.685-0.405-1.324-0.722-1.919-0.95c-0.596-0.228-1.337-0.342-2.224-0.342c-1.063,0-1.919,0.229-2.564,0.684
			c-0.646,0.456-0.969,1.077-0.969,1.862c0,0.71,0.297,1.261,0.893,1.653c0.595,0.393,1.716,0.767,3.363,1.121
			c1.696,0.354,3.026,0.76,3.99,1.216c0.962,0.456,1.652,1.02,2.07,1.69c0.418,0.672,0.627,1.527,0.627,2.565
			c0,1.647-0.69,2.971-2.07,3.971c-1.382,1.001-3.225,1.501-5.529,1.501C1572.844,611.485,1570.729,610.953,1569.083,609.889z"/>
	</g>
	<g>
		<path class="st1" d="M1597.867,610.953c-0.367-0.305-0.551-0.761-0.551-1.368v-23.484c0-0.607,0.184-1.069,0.551-1.387
			c0.367-0.316,0.829-0.476,1.387-0.476s1.014,0.159,1.368,0.476c0.354,0.317,0.532,0.779,0.532,1.387v23.484
			c0,0.607-0.178,1.063-0.532,1.368c-0.354,0.304-0.811,0.456-1.368,0.456S1598.234,611.257,1597.867,610.953z"/>
	</g>
	<g>
		<path class="st1" d="M1609.76,610.307c-1.381-0.785-2.445-1.906-3.192-3.363c-0.747-1.456-1.121-3.147-1.121-5.072
			c0-1.951,0.374-3.654,1.121-5.111c0.747-1.456,1.812-2.577,3.192-3.363c1.38-0.785,2.982-1.178,4.807-1.178
			s3.426,0.393,4.808,1.178c1.38,0.786,2.444,1.907,3.191,3.363c0.747,1.457,1.121,3.16,1.121,5.111
			c0,1.925-0.374,3.616-1.121,5.072c-0.747,1.457-1.812,2.578-3.191,3.363c-1.382,0.785-2.983,1.178-4.808,1.178
			S1611.14,611.092,1609.76,610.307z M1618.463,606.773c0.898-1.114,1.349-2.748,1.349-4.901c0-2.128-0.456-3.756-1.368-4.884
			c-0.912-1.127-2.204-1.69-3.876-1.69s-2.964,0.563-3.876,1.69c-0.912,1.128-1.368,2.756-1.368,4.884
			c0,2.153,0.45,3.787,1.35,4.901c0.898,1.115,2.197,1.672,3.895,1.672S1617.563,607.888,1618.463,606.773z"/>
	</g>
	<g>
		<path class="st1" d="M1643.694,592.789c0.342,0.329,0.513,0.785,0.513,1.368v15.466c0,0.531-0.178,0.963-0.532,1.292
			s-0.823,0.494-1.405,0.494c-0.532,0-0.964-0.159-1.292-0.476c-0.33-0.316-0.494-0.741-0.494-1.272v-1.444
			c-0.583,1.063-1.387,1.875-2.413,2.432c-1.026,0.558-2.173,0.836-3.439,0.836c-4.509,0-6.764-2.482-6.764-7.447v-9.88
			c0-0.583,0.171-1.039,0.513-1.368c0.343-0.329,0.817-0.494,1.426-0.494c0.582,0,1.045,0.165,1.387,0.494s0.513,0.785,0.513,1.368
			v9.842c0,1.495,0.304,2.597,0.912,3.306c0.608,0.71,1.545,1.064,2.812,1.064c1.494,0,2.691-0.481,3.591-1.444
			c0.898-0.963,1.349-2.242,1.349-3.838v-8.93c0-0.558,0.177-1.008,0.532-1.35c0.354-0.342,0.823-0.513,1.406-0.513
			C1642.889,592.295,1643.352,592.46,1643.694,592.789z"/>
	</g>
	<g>
		<path class="st1" d="M1666.208,599.705v9.88c0,0.583-0.171,1.032-0.513,1.349s-0.817,0.476-1.425,0.476
			c-0.583,0-1.045-0.165-1.388-0.494c-0.342-0.329-0.513-0.772-0.513-1.33v-9.69c0-1.57-0.311-2.723-0.931-3.458
			c-0.621-0.734-1.59-1.102-2.907-1.102c-1.546,0-2.787,0.481-3.724,1.443c-0.938,0.964-1.406,2.256-1.406,3.876v8.931
			c0,0.558-0.171,1.001-0.513,1.33c-0.343,0.329-0.805,0.494-1.388,0.494s-1.051-0.165-1.405-0.494
			c-0.355-0.329-0.532-0.772-0.532-1.33v-15.466c0-0.532,0.184-0.97,0.551-1.312s0.829-0.513,1.387-0.513s1.001,0.165,1.33,0.494
			s0.494,0.76,0.494,1.292v1.558c0.608-1.114,1.457-1.963,2.546-2.546c1.089-0.582,2.318-0.874,3.687-0.874
			C1663.991,592.219,1666.208,594.714,1666.208,599.705z"/>
	</g>
	<g>
		<path class="st1" d="M1688.191,592.808c0.342,0.342,0.513,0.792,0.513,1.35v15.579c0,2.837-0.754,4.979-2.261,6.423
			c-1.508,1.443-3.73,2.166-6.669,2.166c-2.736,0-5.017-0.52-6.841-1.559c-0.938-0.532-1.405-1.165-1.405-1.899
			c0-0.432,0.119-0.786,0.36-1.064c0.241-0.279,0.538-0.418,0.894-0.418c0.329,0,0.849,0.19,1.558,0.57
			c0.912,0.43,1.761,0.766,2.546,1.007c0.785,0.24,1.723,0.36,2.812,0.36c3.496,0,5.244-1.761,5.244-5.281v-2.926
			c-0.532,1.114-1.344,1.982-2.433,2.603c-1.089,0.621-2.355,0.931-3.8,0.931c-1.621,0-3.065-0.38-4.332-1.14
			s-2.248-1.837-2.945-3.23c-0.696-1.393-1.045-3.002-1.045-4.825c0-1.824,0.354-3.433,1.064-4.826
			c0.709-1.394,1.69-2.477,2.945-3.249c1.254-0.772,2.691-1.159,4.312-1.159c1.419,0,2.666,0.304,3.743,0.912
			c1.076,0.607,1.894,1.47,2.451,2.584v-1.596c0-0.558,0.171-1.001,0.513-1.33s0.804-0.494,1.387-0.494
			S1687.848,592.466,1688.191,592.808z M1683.498,605.975c0.937-1.089,1.406-2.597,1.406-4.521c0-1.9-0.463-3.401-1.388-4.503
			c-0.925-1.103-2.223-1.653-3.895-1.653s-2.983,0.545-3.933,1.634c-0.95,1.09-1.426,2.597-1.426,4.522
			c0,1.925,0.481,3.433,1.444,4.521c0.963,1.09,2.267,1.634,3.914,1.634C1681.268,607.609,1682.56,607.065,1683.498,605.975z"/>
	</g>
	<g>
		<path class="st1" d="M1709.451,606.963c0.229,0.279,0.342,0.634,0.342,1.063c0,0.735-0.456,1.355-1.367,1.862
			c-0.888,0.507-1.856,0.899-2.907,1.178c-1.052,0.279-2.059,0.418-3.021,0.418c-2.938,0-5.257-0.854-6.954-2.564
			s-2.546-4.047-2.546-7.011c0-1.9,0.374-3.585,1.121-5.055c0.747-1.469,1.799-2.608,3.154-3.42
			c1.354-0.811,2.894-1.216,4.617-1.216c2.482,0,4.445,0.798,5.89,2.394c1.444,1.597,2.166,3.75,2.166,6.46
			c0,1.014-0.456,1.521-1.368,1.521h-11.742c0.253,3.927,2.141,5.89,5.662,5.89c0.938,0,1.748-0.126,2.433-0.38
			c0.684-0.253,1.405-0.582,2.166-0.987c0.075-0.051,0.284-0.158,0.627-0.323c0.342-0.165,0.627-0.247,0.854-0.247
			C1708.931,606.545,1709.223,606.685,1709.451,606.963z M1698.431,596.437c-0.888,0.938-1.419,2.255-1.597,3.952h9.805
			c-0.076-1.723-0.514-3.046-1.312-3.971s-1.919-1.388-3.362-1.388C1700.496,595.031,1699.317,595.5,1698.431,596.437z"/>
	</g>
</g>
<g>
	<g>
		<path class="st1" d="M1910.948,610.858c-0.355-0.366-0.532-0.842-0.532-1.425v-23.104c0-0.583,0.171-1.045,0.513-1.388
			c0.342-0.342,0.817-0.513,1.425-0.513h13.604c1.216,0,1.824,0.532,1.824,1.596c0,1.064-0.608,1.597-1.824,1.597h-11.666v8.397
			h10.906c1.216,0,1.823,0.532,1.823,1.597c0,1.063-0.607,1.596-1.823,1.596h-10.906v10.222c0,0.608-0.171,1.09-0.514,1.444
			c-0.342,0.354-0.816,0.532-1.425,0.532C1911.77,611.409,1911.302,611.225,1910.948,610.858z"/>
	</g>
	<g>
		<path class="st1" d="M1931.828,610.953c-0.367-0.305-0.551-0.761-0.551-1.368v-23.484c0-0.607,0.184-1.069,0.551-1.387
			c0.367-0.316,0.829-0.476,1.387-0.476s1.014,0.159,1.368,0.476c0.354,0.317,0.532,0.779,0.532,1.387v23.484
			c0,0.607-0.178,1.063-0.532,1.368c-0.354,0.304-0.811,0.456-1.368,0.456S1932.195,611.257,1931.828,610.953z"/>
	</g>
	<g>
		<path class="st1" d="M1940.662,587.963c-0.431-0.405-0.646-0.938-0.646-1.596c0-0.659,0.215-1.185,0.646-1.577
			s1.014-0.589,1.748-0.589c0.709,0,1.286,0.196,1.729,0.589c0.442,0.393,0.665,0.918,0.665,1.577c0,0.658-0.216,1.19-0.646,1.596
			s-1.014,0.607-1.748,0.607S1941.092,588.368,1940.662,587.963z M1941.023,610.953c-0.367-0.305-0.551-0.761-0.551-1.368v-15.428
			c0-0.608,0.184-1.07,0.551-1.388c0.367-0.316,0.829-0.475,1.387-0.475s1.014,0.158,1.368,0.475
			c0.354,0.317,0.532,0.779,0.532,1.388v15.428c0,0.607-0.178,1.063-0.532,1.368c-0.354,0.304-0.811,0.456-1.368,0.456
			S1941.39,611.257,1941.023,610.953z"/>
	</g>
	<g>
		<path class="st1" d="M1966.408,592.808c0.342,0.342,0.513,0.792,0.513,1.35v15.579c0,2.837-0.754,4.979-2.261,6.423
			c-1.508,1.443-3.73,2.166-6.669,2.166c-2.736,0-5.017-0.52-6.841-1.559c-0.938-0.532-1.405-1.165-1.405-1.899
			c0-0.432,0.119-0.786,0.36-1.064c0.241-0.279,0.538-0.418,0.894-0.418c0.329,0,0.849,0.19,1.558,0.57
			c0.912,0.43,1.761,0.766,2.546,1.007c0.785,0.24,1.723,0.36,2.812,0.36c3.496,0,5.244-1.761,5.244-5.281v-2.926
			c-0.532,1.114-1.344,1.982-2.433,2.603c-1.089,0.621-2.355,0.931-3.8,0.931c-1.621,0-3.065-0.38-4.332-1.14
			s-2.248-1.837-2.945-3.23c-0.696-1.393-1.045-3.002-1.045-4.825c0-1.824,0.354-3.433,1.064-4.826
			c0.709-1.394,1.69-2.477,2.945-3.249c1.254-0.772,2.691-1.159,4.312-1.159c1.419,0,2.666,0.304,3.743,0.912
			c1.076,0.607,1.894,1.47,2.451,2.584v-1.596c0-0.558,0.171-1.001,0.513-1.33s0.804-0.494,1.387-0.494
			S1966.065,592.466,1966.408,592.808z M1961.714,605.975c0.937-1.089,1.406-2.597,1.406-4.521c0-1.9-0.463-3.401-1.388-4.503
			c-0.925-1.103-2.223-1.653-3.895-1.653s-2.983,0.545-3.933,1.634c-0.95,1.09-1.426,2.597-1.426,4.522
			c0,1.925,0.481,3.433,1.444,4.521c0.963,1.09,2.267,1.634,3.914,1.634C1959.485,607.609,1960.777,607.065,1961.714,605.975z"/>
	</g>
	<g>
		<path class="st1" d="M1988.922,599.705v9.88c0,0.558-0.177,1.001-0.531,1.33c-0.355,0.329-0.824,0.494-1.406,0.494
			c-0.583,0-1.045-0.165-1.388-0.494c-0.342-0.329-0.513-0.772-0.513-1.33v-9.842c0-1.521-0.311-2.635-0.931-3.345
			c-0.621-0.709-1.59-1.063-2.907-1.063c-1.546,0-2.787,0.481-3.724,1.443c-0.938,0.964-1.406,2.256-1.406,3.876v8.931
			c0,0.558-0.171,1.001-0.513,1.33c-0.343,0.329-0.805,0.494-1.388,0.494s-1.051-0.165-1.405-0.494
			c-0.355-0.329-0.532-0.772-0.532-1.33v-23.522c0-0.557,0.184-1,0.551-1.33c0.367-0.328,0.842-0.494,1.425-0.494
			c0.558,0,1.007,0.159,1.35,0.476c0.342,0.317,0.513,0.741,0.513,1.272v9.5c0.633-1.063,1.482-1.874,2.546-2.432
			c1.064-0.557,2.28-0.836,3.648-0.836C1986.717,592.219,1988.922,594.714,1988.922,599.705z"/>
	</g>
	<g>
		<path class="st1" d="M2004.445,608.92c0.24,0.241,0.36,0.576,0.36,1.007c0,0.507-0.196,0.893-0.589,1.159
			c-0.393,0.266-0.969,0.373-1.729,0.323l-1.026-0.076c-2.052-0.152-3.585-0.779-4.598-1.881c-1.014-1.103-1.521-2.729-1.521-4.884
			v-8.93h-2.28c-1.114,0-1.672-0.494-1.672-1.481c0-0.456,0.146-0.817,0.438-1.083c0.291-0.267,0.703-0.399,1.234-0.399h2.28v-3.914
			c0-0.582,0.171-1.038,0.513-1.368c0.343-0.329,0.805-0.494,1.388-0.494c0.582,0,1.051,0.165,1.405,0.494
			c0.354,0.33,0.532,0.786,0.532,1.368v3.914h3.763c0.531,0,0.943,0.133,1.234,0.399c0.291,0.266,0.438,0.627,0.438,1.083
			c0,0.481-0.146,0.849-0.438,1.102c-0.291,0.254-0.703,0.38-1.234,0.38h-3.763v9.196c0,1.19,0.247,2.064,0.741,2.622
			s1.247,0.874,2.261,0.95l1.064,0.075C2003.804,608.534,2004.204,608.68,2004.445,608.92z"/>
	</g>
</g>
<g>
	<g>
		<path class="st1" d="M2108.928,187.706c-0.342-0.343-0.513-0.805-0.513-1.388v-22.989c0-0.583,0.171-1.045,0.513-1.388
			c0.342-0.342,0.817-0.513,1.425-0.513h7.448c4.332,0,7.688,1.166,10.07,3.496c2.381,2.331,3.571,5.624,3.571,9.88
			s-1.19,7.556-3.571,9.899c-2.382,2.343-5.738,3.515-10.07,3.515h-7.448C2109.746,188.219,2109.27,188.048,2108.928,187.706z
			 M2117.574,184.951c6.586,0,9.88-3.383,9.88-10.146c0-6.738-3.294-10.108-9.88-10.108h-5.244v20.255H2117.574z"/>
	</g>
	<g>
		<path class="st1" d="M2151.697,183.963c0.229,0.279,0.342,0.634,0.342,1.063c0,0.735-0.456,1.355-1.367,1.862
			c-0.888,0.507-1.856,0.899-2.907,1.178c-1.052,0.279-2.059,0.418-3.021,0.418c-2.938,0-5.257-0.854-6.954-2.564
			s-2.546-4.047-2.546-7.011c0-1.9,0.374-3.585,1.121-5.055c0.747-1.469,1.799-2.608,3.154-3.42
			c1.354-0.811,2.894-1.216,4.617-1.216c2.482,0,4.445,0.798,5.89,2.394c1.444,1.597,2.166,3.75,2.166,6.46
			c0,1.014-0.456,1.521-1.368,1.521h-11.742c0.253,3.927,2.141,5.89,5.662,5.89c0.938,0,1.748-0.126,2.433-0.38
			c0.684-0.253,1.405-0.582,2.166-0.987c0.075-0.051,0.284-0.158,0.627-0.323c0.342-0.165,0.627-0.247,0.854-0.247
			C2151.177,183.545,2151.469,183.685,2151.697,183.963z M2140.677,173.437c-0.888,0.938-1.419,2.255-1.597,3.952h9.805
			c-0.076-1.723-0.514-3.046-1.312-3.971s-1.919-1.388-3.362-1.388C2142.742,172.031,2141.563,172.5,2140.677,173.437z"/>
	</g>
	<g>
		<path class="st1" d="M2170.639,170.435c1.254,0.812,2.229,1.951,2.927,3.42c0.696,1.47,1.045,3.167,1.045,5.092
			c0,1.9-0.343,3.572-1.026,5.017s-1.653,2.559-2.907,3.344s-2.691,1.178-4.312,1.178c-1.394,0-2.622-0.297-3.687-0.893
			c-1.063-0.595-1.875-1.45-2.432-2.565v8.475c0,0.532-0.171,0.956-0.513,1.272c-0.343,0.316-0.792,0.476-1.35,0.476
			c-0.583,0-1.058-0.165-1.425-0.494c-0.367-0.33-0.551-0.773-0.551-1.33v-22.268c0-0.558,0.177-1.008,0.532-1.35
			c0.354-0.342,0.822-0.513,1.405-0.513c0.558,0,1.014,0.171,1.368,0.513s0.532,0.792,0.532,1.35v1.558
			c0.557-1.114,1.368-1.977,2.432-2.584c1.064-0.608,2.293-0.912,3.687-0.912C2167.96,169.219,2169.385,169.624,2170.639,170.435z
			 M2169.329,183.754c0.912-1.127,1.368-2.729,1.368-4.808c0-2.102-0.463-3.736-1.388-4.901s-2.21-1.748-3.856-1.748
			c-1.672,0-2.958,0.57-3.857,1.71s-1.349,2.762-1.349,4.864s0.449,3.724,1.349,4.863c0.899,1.141,2.186,1.71,3.857,1.71
			S2168.417,184.881,2169.329,183.754z"/>
	</g>
	<g>
		<path class="st1" d="M2192.148,171.081c1.202,1.241,1.805,3.129,1.805,5.662v9.842c0,0.583-0.165,1.032-0.494,1.349
			s-0.785,0.476-1.368,0.476c-0.558,0-1.001-0.165-1.33-0.494s-0.494-0.772-0.494-1.33v-1.406c-0.481,1.064-1.196,1.881-2.146,2.451
			s-2.059,0.854-3.325,0.854c-1.216,0-2.331-0.247-3.344-0.74c-1.014-0.494-1.805-1.185-2.375-2.071s-0.855-1.875-0.855-2.964
			c0-1.343,0.349-2.4,1.045-3.173c0.697-0.772,1.85-1.324,3.458-1.653s3.819-0.494,6.632-0.494h0.874v-1.102
			c0-1.419-0.292-2.445-0.874-3.078c-0.584-0.633-1.521-0.95-2.812-0.95c-0.887,0-1.723,0.114-2.508,0.342
			c-0.786,0.229-1.647,0.558-2.584,0.988c-0.685,0.38-1.166,0.57-1.444,0.57c-0.38,0-0.69-0.14-0.931-0.418
			c-0.241-0.279-0.361-0.634-0.361-1.064c0-0.38,0.107-0.716,0.323-1.007c0.215-0.291,0.563-0.576,1.045-0.855
			c0.887-0.48,1.925-0.867,3.116-1.159c1.19-0.29,2.343-0.437,3.458-0.437C2189.114,169.219,2190.944,169.84,2192.148,171.081z
			 M2188.899,184.21c0.886-0.95,1.33-2.172,1.33-3.667v-0.988h-0.685c-1.976,0-3.496,0.089-4.56,0.266
			c-1.064,0.178-1.824,0.476-2.28,0.894s-0.684,1.02-0.684,1.805c0,0.912,0.328,1.66,0.987,2.242
			c0.659,0.583,1.482,0.874,2.471,0.874C2186.872,185.635,2188.011,185.16,2188.899,184.21z"/>
	</g>
	<g>
		<path class="st1" d="M2210.748,170.853c0,0.558-0.14,0.976-0.418,1.254c-0.279,0.279-0.76,0.443-1.444,0.494l-1.14,0.114
			c-1.596,0.152-2.78,0.709-3.553,1.672c-0.773,0.963-1.159,2.128-1.159,3.496v8.702c0,0.607-0.178,1.063-0.532,1.368
			c-0.354,0.304-0.811,0.456-1.368,0.456s-1.02-0.152-1.387-0.456c-0.367-0.305-0.551-0.761-0.551-1.368v-15.466
			c0-0.583,0.184-1.032,0.551-1.35c0.367-0.316,0.829-0.475,1.387-0.475c0.507,0,0.932,0.158,1.273,0.475
			c0.342,0.317,0.513,0.754,0.513,1.312v1.823c0.507-1.114,1.241-1.963,2.204-2.546c0.963-0.582,2.052-0.924,3.269-1.025
			l0.531-0.038C2210.139,169.219,2210.748,169.739,2210.748,170.853z"/>
	</g>
	<g>
		<path class="st1" d="M2224.979,185.92c0.24,0.241,0.36,0.576,0.36,1.007c0,0.507-0.196,0.893-0.589,1.159
			c-0.393,0.266-0.969,0.373-1.729,0.323l-1.026-0.076c-2.052-0.152-3.585-0.779-4.598-1.881c-1.014-1.103-1.521-2.729-1.521-4.884
			v-8.93h-2.28c-1.114,0-1.672-0.494-1.672-1.481c0-0.456,0.146-0.817,0.438-1.083c0.291-0.267,0.703-0.399,1.234-0.399h2.28v-3.914
			c0-0.582,0.171-1.038,0.513-1.368c0.343-0.329,0.805-0.494,1.388-0.494c0.582,0,1.051,0.165,1.405,0.494
			c0.354,0.33,0.532,0.786,0.532,1.368v3.914h3.763c0.531,0,0.943,0.133,1.234,0.399c0.291,0.266,0.438,0.627,0.438,1.083
			c0,0.481-0.146,0.849-0.438,1.102c-0.291,0.254-0.703,0.38-1.234,0.38h-3.763v9.196c0,1.19,0.247,2.064,0.741,2.622
			s1.247,0.874,2.261,0.95l1.064,0.075C2224.338,185.534,2224.738,185.68,2224.979,185.92z"/>
	</g>
</g>
<g>
	<path class="st1" d="M2310.44,737.469H46.159c-6.126,0-11.109-4.983-11.109-11.109V37.078c0-6.126,4.983-11.109,11.109-11.109
		H2310.44c6.126,0,11.109,4.983,11.109,11.109V726.36C2321.549,732.486,2316.566,737.469,2310.44,737.469z M46.159,26.469
		c-5.85,0-10.609,4.759-10.609,10.609V726.36c0,5.85,4.759,10.609,10.609,10.609H2310.44c5.85,0,10.609-4.76,10.609-10.609V37.078
		c0-5.85-4.76-10.609-10.609-10.609H46.159z"/>
</g>
</svg>
