<?xml version="1.0" encoding="utf-8"?>
<!-- Generator: Adobe Illustrator 21.1.0, SVG Export Plug-In . SVG Version: 6.00 Build 0)  -->
<svg version="1.1" id="Layer_1" xmlns="http://www.w3.org/2000/svg" xmlns:xlink="http://www.w3.org/1999/xlink" x="0px" y="0px"
	 viewBox="0 0 84 159" style="enable-background:new 0 0 84 159;" xml:space="preserve">
<style type="text/css">
	.st0{fill:#333333;}
</style>
<g>
	<g>
		<path class="st0" d="M11.714,135.521l-1.446-0.398c0.535-1.941,1.09-3.868,1.662-5.783l1.438,0.43
			C12.798,131.674,12.247,133.591,11.714,135.521z M15.14,124.053l-1.428-0.459c0.616-1.918,1.249-3.821,1.897-5.709l1.419,0.487
			C16.383,120.25,15.753,122.145,15.14,124.053z M19.028,112.729l-1.409-0.515c0.692-1.894,1.398-3.771,2.117-5.631l1.399,0.541
			C20.419,108.975,19.716,110.844,19.028,112.729z M23.345,101.557l-1.389-0.566c0.762-1.869,1.536-3.719,2.321-5.549l1.379,0.591
			C24.875,97.855,24.104,99.697,23.345,101.557z M28.064,90.547l-1.368-0.614c0.828-1.843,1.666-3.666,2.511-5.466l1.357,0.638
			C29.723,86.897,28.889,88.711,28.064,90.547z M33.156,79.704l-1.347-0.66c0.891-1.818,1.788-3.612,2.69-5.38l1.336,0.682
			C34.937,76.106,34.043,77.893,33.156,79.704z M38.6,69.029l-1.325-0.702c0.951-1.793,1.904-3.558,2.858-5.292l1.314,0.723
			C40.497,65.485,39.547,67.243,38.6,69.029z M44.375,58.529l-1.303-0.743c1.009-1.77,2.016-3.504,3.019-5.203l1.292,0.763
			C46.384,55.038,45.38,56.766,44.375,58.529z M50.468,48.207l-1.28-0.781c1.067-1.748,2.125-3.452,3.172-5.112l1.269,0.801
			C52.586,44.768,51.531,46.466,50.468,48.207z M56.866,38.069l-1.257-0.818c1.127-1.73,2.237-3.403,3.323-5.017l1.244,0.838
			C59.094,34.68,57.989,36.346,56.866,38.069z M63.562,28.125l-1.231-0.856c1.198-1.722,2.358-3.361,3.475-4.915l1.218,0.875
			C65.912,24.776,64.756,26.409,63.562,28.125z M70.563,18.389l-1.203-0.896c1.304-1.752,2.521-3.354,3.636-4.8l1.188,0.917
			C73.073,15.049,71.861,16.645,70.563,18.389z M77.894,8.901L76.726,7.96c2.424-3.008,3.857-4.644,3.872-4.66l1.127,0.989
			C81.71,4.305,80.295,5.92,77.894,8.901z"/>
	</g>
	<g>
		<path class="st0" d="M8.406,154.175c-3.946,0-7.156-3.21-7.156-7.156s3.21-7.156,7.156-7.156s7.156,3.21,7.156,7.156
			S12.352,154.175,8.406,154.175z M8.406,141.363c-3.119,0-5.656,2.537-5.656,5.656s2.537,5.656,5.656,5.656
			s5.656-2.537,5.656-5.656S11.524,141.363,8.406,141.363z"/>
	</g>
</g>
</svg>
