<?xml version="1.0" encoding="utf-8"?>
<!-- Generator: Adobe Illustrator 21.1.0, SVG Export Plug-In . SVG Version: 6.00 Build 0)  -->
<svg version="1.1" id="Layer_1" xmlns="http://www.w3.org/2000/svg" xmlns:xlink="http://www.w3.org/1999/xlink" x="0px" y="0px"
	 viewBox="0 0 330.5 131.5" style="enable-background:new 0 0 330.5 131.5;" xml:space="preserve">
<style type="text/css">
	.st0{fill:#333333;}
</style>
<g>
	<g>
		<path class="st0" d="M316.043,111.27c-1.026-1.706-2.085-3.416-3.15-5.082l1.264-0.808c1.072,1.678,2.139,3.399,3.171,5.117
			L316.043,111.27z M309.605,101.195c-1.11-1.637-2.262-3.286-3.423-4.901l1.218-0.876c1.169,1.626,2.33,3.287,3.447,4.936
			L309.605,101.195z M302.626,91.487c-1.206-1.583-2.446-3.167-3.686-4.708l1.169-0.94c1.248,1.551,2.496,3.146,3.71,4.74
			L302.626,91.487z M295.13,82.17c-1.282-1.508-2.605-3.024-3.933-4.505l1.117-1.001c1.337,1.491,2.669,3.016,3.959,4.535
			L295.13,82.17z M287.146,73.267c-1.358-1.436-2.759-2.88-4.165-4.292l1.062-1.059c1.416,1.421,2.826,2.875,4.192,4.32
			L287.146,73.267z M278.706,64.791c-1.435-1.368-2.91-2.738-4.382-4.072l1.007-1.111c1.482,1.342,2.965,2.721,4.41,4.098
			L278.706,64.791z M269.839,56.759c-1.503-1.294-3.045-2.588-4.583-3.846l0.95-1.161c1.547,1.266,3.099,2.568,4.611,3.871
			L269.839,56.759z M260.58,49.181c-1.563-1.216-3.167-2.433-4.768-3.616l0.892-1.206c1.61,1.19,3.224,2.415,4.797,3.639
			L260.58,49.181z M250.957,42.066c-1.616-1.136-3.277-2.273-4.938-3.381l0.832-1.248c1.671,1.115,3.343,2.259,4.968,3.401
			L250.957,42.066z M241,35.424c-1.674-1.06-3.388-2.117-5.096-3.141l0.771-1.286c1.718,1.03,3.442,2.093,5.127,3.159L241,35.424z
			 M5.392,29.481l-0.696-1.329c0.078-0.041,1.944-1.015,5.482-2.592l0.61,1.37C7.3,28.485,5.411,29.471,5.392,29.481z
			 M230.733,29.266c-1.738-0.986-3.502-1.958-5.243-2.892l0.708-1.322c1.752,0.938,3.527,1.917,5.275,2.909L230.733,29.266z
			 M16.293,24.583l-0.568-1.389c1.818-0.744,3.705-1.486,5.606-2.206l0.531,1.402C19.973,23.106,18.1,23.844,16.293,24.583z
			 M220.177,23.613c-1.776-0.896-3.586-1.78-5.381-2.627l0.641-1.356c1.806,0.853,3.628,1.743,5.416,2.645L220.177,23.613z
			 M27.486,20.337l-0.498-1.415c1.868-0.658,3.786-1.309,5.702-1.935l0.466,1.426C31.251,19.036,29.344,19.684,27.486,20.337z
			 M209.348,18.5c-1.856-0.815-3.712-1.598-5.517-2.327l0.562-1.391c1.819,0.734,3.689,1.523,5.559,2.345L209.348,18.5z
			 M38.867,16.614l-0.436-1.436c1.859-0.564,3.786-1.127,5.778-1.686l0.405,1.444C42.633,15.492,40.716,16.053,38.867,16.614z
			 M198.243,14.032c-2.181-0.787-3.405-1.161-3.417-1.165c-0.735-0.189-1.5-0.383-2.265-0.573l0.362-1.455
			c0.768,0.191,1.537,0.386,2.308,0.585c0.082,0.024,1.299,0.396,3.52,1.197L198.243,14.032z M50.396,13.378l-0.376-1.452
			c1.897-0.491,3.845-0.974,5.842-1.447l0.346,1.46C54.222,12.409,52.284,12.89,50.396,13.378z M186.743,10.912
			c-1.958-0.444-3.908-0.863-5.85-1.26l0.3-1.47c1.952,0.398,3.913,0.821,5.881,1.267L186.743,10.912z M62.047,10.618l-0.316-1.466
			c1.925-0.416,3.89-0.819,5.894-1.209l0.287,1.473C65.918,9.803,63.962,10.205,62.047,10.618z M175.017,8.518
			c-1.976-0.36-3.942-0.696-5.898-1.009l0.237-1.481c1.967,0.315,3.944,0.653,5.93,1.015L175.017,8.518z M73.799,8.329l-0.257-1.478
			c1.946-0.339,3.926-0.664,5.938-0.972l0.228,1.482C77.706,7.669,75.736,7.992,73.799,8.329z M163.201,6.625
			c-1.99-0.275-3.968-0.528-5.936-0.757l0.174-1.49c1.978,0.231,3.967,0.485,5.968,0.762L163.201,6.625z M85.633,6.515l-0.197-1.487
			c1.963-0.261,3.954-0.505,5.972-0.731l0.167,1.49C89.567,6.011,87.586,6.255,85.633,6.515z M151.315,5.236
			c-2-0.191-3.988-0.359-5.963-0.505l0.111-1.496c1.984,0.147,3.983,0.316,5.994,0.508L151.315,5.236z M97.53,5.179l-0.138-1.494
			c1.976-0.182,3.975-0.345,5.997-0.489l0.106,1.496C101.484,4.835,99.495,4.998,97.53,5.179z M139.38,4.351
			c-2.008-0.106-4.001-0.19-5.979-0.254l0.048-1.499c1.988,0.063,3.992,0.148,6.01,0.255L139.38,4.351z M109.47,4.326l-0.076-1.498
			c1.983-0.101,3.988-0.183,6.012-0.244l0.045,1.499C113.438,4.145,111.444,4.226,109.47,4.326z M127.418,3.968
			c-2.013-0.022-4.008-0.024-5.984-0.004l-0.015-1.5c1.988-0.019,3.993-0.018,6.016,0.004L127.418,3.968z"/>
	</g>
	<g>
		<path class="st0" d="M321.305,126.747c-3.946,0-7.156-3.21-7.156-7.156s3.21-7.156,7.156-7.156s7.156,3.21,7.156,7.156
			S325.251,126.747,321.305,126.747z M321.305,113.935c-3.119,0-5.656,2.537-5.656,5.656s2.538,5.656,5.656,5.656
			s5.656-2.538,5.656-5.656S324.424,113.935,321.305,113.935z"/>
	</g>
</g>
</svg>
