<?xml version="1.0" encoding="utf-8"?>
<!-- Generator: Adobe Illustrator 21.1.0, SVG Export Plug-In . SVG Version: 6.00 Build 0)  -->
<svg version="1.1" id="Layer_1" xmlns="http://www.w3.org/2000/svg" xmlns:xlink="http://www.w3.org/1999/xlink" x="0px" y="0px"
	 viewBox="0 0 34.167 37.312" style="enable-background:new 0 0 34.167 37.312;" xml:space="preserve">
<style type="text/css">
	.st0{fill:#424242;}
</style>
<g>
	<path class="st0" d="M16.999,37.265c-8.985,0-16.295-7.31-16.295-16.295S8.014,4.674,16.999,4.674
		c8.985,0,16.295,7.311,16.295,16.296S25.984,37.265,16.999,37.265z M16.999,6.174c-8.158,0-14.795,6.637-14.795,14.796
		c0,8.158,6.637,14.795,14.795,14.795s14.795-6.637,14.795-14.795C31.795,12.811,25.157,6.174,16.999,6.174z"/>
</g>
<g>
	<path class="st0" d="M16.999,24.428c-1.907,0-3.458-1.551-3.458-3.458c0-1.908,1.551-3.459,3.458-3.459s3.459,1.552,3.459,3.459
		C20.458,22.877,18.906,24.428,16.999,24.428z M16.999,19.01c-1.08,0-1.958,0.879-1.958,1.959c0,1.08,0.878,1.958,1.958,1.958
		s1.959-0.878,1.959-1.958C18.958,19.889,18.079,19.01,16.999,19.01z"/>
</g>
<g>
	<rect x="16.249" y="10.236" class="st0" width="1.5" height="8.024"/>
</g>
<g>
	<rect x="16.249" y="0.797" class="st0" width="1.5" height="4.626"/>
</g>
<g>
	
		<rect x="24.889" y="5.803" transform="matrix(0.6056 -0.7958 0.7958 0.6056 5.5277 24.2583)" class="st0" width="4.695" height="1.5"/>
</g>
<g>
	<rect x="13.15" y="0.047" class="st0" width="6.921" height="1.5"/>
</g>
</svg>
