<?xml version="1.0" encoding="utf-8"?>
<!-- Generator: Adobe Illustrator 21.1.0, SVG Export Plug-In . SVG Version: 6.00 Build 0)  -->
<svg version="1.1" id="Layer_1" xmlns="http://www.w3.org/2000/svg" xmlns:xlink="http://www.w3.org/1999/xlink" x="0px" y="0px"
	 viewBox="0 0 49.9 37.3" style="enable-background:new 0 0 49.9 37.3;" xml:space="preserve">
<style type="text/css">
	.st0{fill:#424242;}
</style>
<g>
	<path class="st0" d="M12.5,13.4c-2.5,0-4.5-2-4.5-4.5c0-2.5,2-4.5,4.5-4.5c2.5,0,4.5,2,4.5,4.5C17,11.3,15,13.4,12.5,13.4z
		 M12.5,5.8c-1.7,0-3,1.4-3,3s1.4,3,3,3s3-1.4,3-3S14.1,5.8,12.5,5.8z"/>
</g>
<g>
	<path class="st0" d="M36.5,13.4c-2.5,0-4.5-2-4.5-4.5s2-4.5,4.5-4.5s4.5,2,4.5,4.5S39,13.4,36.5,13.4z M36.5,5.8c-1.7,0-3,1.4-3,3
		s1.4,3,3,3s3-1.4,3-3S38.2,5.8,36.5,5.8z"/>
</g>
<g>
	<path class="st0" d="M24.9,20.5c-3.4,0-6.2-2.8-6.2-6.2c0-3.4,2.8-6.2,6.2-6.2s6.2,2.8,6.2,6.2C31.1,17.7,28.3,20.5,24.9,20.5z
		 M24.9,9.6c-2.6,0-4.7,2.1-4.7,4.7s2.1,4.7,4.7,4.7s4.7-2.1,4.7-4.7S27.5,9.6,24.9,9.6z"/>
</g>
<g>
	<path class="st0" d="M37.7,34.6H12.5v-0.8c0-7,5.7-12.6,12.6-12.6c7,0,12.6,5.7,12.6,12.6V34.6z M14,33.1h22.2
		c-0.4-5.8-5.2-10.4-11.1-10.4C19.2,22.7,14.4,27.3,14,33.1z"/>
</g>
<g>
	<path class="st0" d="M46.5,24.3h-11v-1.5H45c-0.4-4.1-3.8-7.3-8-7.3c-1.1,0-2.2,0.2-3.2,0.7l-0.6-1.4c1.2-0.5,2.5-0.8,3.8-0.8
		c5.2,0,9.5,4.3,9.5,9.5V24.3z"/>
</g>
<g>
	<path class="st0" d="M15.3,24.3H3.4v-0.8c0-5.2,4.3-9.5,9.5-9.5c1.4,0,2.8,0.3,4.1,0.9l-0.7,1.4c-1.1-0.5-2.3-0.8-3.5-0.8
		c-4.2,0-7.6,3.2-8,7.3h10.3V24.3z"/>
</g>
</svg>
