<?xml version="1.0" encoding="utf-8"?>
<!-- Generator: Adobe Illustrator 21.1.0, SVG Export Plug-In . SVG Version: 6.00 Build 0)  -->
<svg version="1.1" xmlns="http://www.w3.org/2000/svg" xmlns:xlink="http://www.w3.org/1999/xlink" x="0px" y="0px"
	 viewBox="0 0 109 116" style="enable-background:new 0 0 109 116;" xml:space="preserve">
<style type="text/css">
	.st0{fill:#E4CDB5;}
	.st1{fill:#1E1E1E;}
	.st2{fill:none;stroke:#1E1E1E;stroke-width:3;stroke-miterlimit:10;}
	.st3{fill:#FFFFFF;}
</style>
<g id="Layer_2">
	<g>
		<path class="st0" d="M53.612,105.273c-9.407,0-14.35-3.027-16.596-5.039c-0.995-0.891-2.415-1.097-3.644-0.574
			c-3.216,1.368-5.95,0.473-7.479-0.33c-0.811-0.425-1.418-1.157-1.718-2.022l-9.321-26.803c-1.089-3.132-1.645-6.424-1.645-9.739
			l0-15.31c0-1.347-0.63-2.615-1.694-3.44c-0.997-0.773-1.711-1.557-2.21-2.222c-0.516-0.687-1.58-0.571-1.949,0.205l-0.013,0.026
			c-0.434,0.912-1.469,1.371-2.437,1.081h0c-0.981-0.294-1.594-1.269-1.434-2.281l0.74-4.684c-1.627-1.627-1.898-3.549-1.661-5.237
			c0.309-2.2,1.531-4.169,3.29-5.526l10.867-8.379c1.301-1.003,2.801-1.727,4.406-2.076c5.269-1.148,9.589,0.349,12.02,1.58
			c1.478,0.748,3.158,1.009,4.783,0.692c5.724-1.114,10.332-0.622,13.025-0.081c1.725,0.347,3.505,0.348,5.23,0.003
			c2.708-0.542,7.344-1.037,13.079,0.078c1.626,0.316,3.305,0.056,4.782-0.692c2.432-1.23,6.751-2.728,12.02-1.58
			c1.605,0.35,3.105,1.074,4.406,2.076l10.867,8.379c1.759,1.357,2.981,3.326,3.29,5.526c0.237,1.688-0.034,3.61-1.661,5.237
			l0.74,4.684c0.16,1.012-0.453,1.986-1.434,2.281h0c-0.968,0.29-2.003-0.169-2.437-1.081l-0.013-0.026
			c-0.369-0.776-1.434-0.892-1.949-0.205c-0.499,0.665-1.213,1.448-2.21,2.222c-1.064,0.825-1.694,2.093-1.694,3.44l0,15.31
			c0,3.316-0.556,6.608-1.645,9.739l-9.321,26.803c-0.301,0.865-0.908,1.597-1.718,2.022c-1.529,0.803-4.263,1.698-7.479,0.33
			c-1.229-0.523-2.649-0.317-3.644,0.574c-2.246,2.012-7.189,5.039-16.596,5.039"/>
		<path class="st1" d="M53.612,105.783c-0.018,0-0.038,0-0.057,0l0,0c-4.183-0.006-11.881-0.692-16.879-5.169
			c-0.83-0.744-2.049-0.934-3.105-0.485c-3.485,1.482-6.455,0.419-7.915-0.347c-0.916-0.48-1.613-1.299-1.963-2.306l-9.321-26.803
			c-1.11-3.193-1.673-6.526-1.673-9.906v-15.31c0-1.193-0.546-2.3-1.497-3.038c-0.897-0.696-1.673-1.476-2.305-2.318
			c-0.134-0.179-0.34-0.267-0.564-0.246c-0.227,0.023-0.421,0.159-0.518,0.364c-0.559,1.173-1.839,1.741-3.056,1.376
			c-1.22-0.366-1.989-1.59-1.791-2.848l0.7-4.434c-1.38-1.482-1.925-3.324-1.622-5.479c0.322-2.294,1.559-4.375,3.483-5.859
			l10.867-8.379c1.38-1.064,2.973-1.814,4.609-2.171c5.286-1.152,9.638,0.247,12.358,1.623c1.393,0.705,2.976,0.934,4.456,0.647
			c5.721-1.113,10.349-0.658,13.223-0.081c1.671,0.336,3.364,0.337,5.03,0.003c2.894-0.58,7.547-1.037,13.276,0.078
			c1.48,0.288,3.063,0.058,4.455-0.647c2.72-1.376,7.071-2.775,12.358-1.623c1.635,0.356,3.229,1.107,4.609,2.171l10.867,8.379
			c1.924,1.484,3.161,3.564,3.483,5.859c0.303,2.155-0.243,3.996-1.623,5.479l0.7,4.434c0.199,1.258-0.571,2.482-1.791,2.848
			c-1.217,0.367-2.497-0.202-3.043-1.35c-0.11-0.232-0.304-0.368-0.531-0.39c-0.223-0.022-0.43,0.067-0.564,0.246
			c-0.632,0.843-1.408,1.623-2.305,2.318c-0.951,0.738-1.497,1.845-1.497,3.038v15.31c0,3.381-0.563,6.714-1.673,9.906
			l-9.321,26.803c-0.35,1.006-1.047,1.825-1.963,2.306c-1.46,0.766-4.43,1.83-7.915,0.347c-1.056-0.449-2.275-0.259-3.105,0.485
			C68.34,102.541,63.289,105.77,53.612,105.783L53.612,105.783z M34.747,98.871c0.952,0,1.887,0.339,2.608,0.985
			c2.045,1.831,6.87,4.903,16.228,4.909c9.358-0.006,14.183-3.077,16.228-4.909c1.123-1.006,2.765-1.267,4.183-0.663
			c2.943,1.252,5.454,0.521,7.043-0.312c0.686-0.36,1.209-0.977,1.474-1.738l9.321-26.803c1.073-3.085,1.617-6.305,1.617-9.572
			v-15.31c0-1.51,0.689-2.91,1.891-3.843c0.825-0.64,1.537-1.355,2.115-2.125c0.348-0.463,0.903-0.705,1.48-0.648
			c0.585,0.058,1.084,0.41,1.337,0.939c0.341,0.717,1.111,1.058,1.843,0.839c0.734-0.22,1.197-0.957,1.078-1.714l-0.78-4.94
			l0.183-0.183c1.275-1.275,1.785-2.892,1.517-4.806c-0.285-2.029-1.385-3.874-3.097-5.194l-10.867-8.379
			c-1.261-0.972-2.715-1.658-4.203-1.982c-4.994-1.088-9.109,0.235-11.682,1.537c-1.594,0.807-3.408,1.069-5.11,0.738
			c-5.566-1.083-10.077-0.641-12.882-0.079c-1.799,0.36-3.626,0.359-5.43-0.003c-2.785-0.559-7.27-1-12.828,0.082
			c-1.702,0.331-3.517,0.069-5.111-0.738c-2.572-1.302-6.687-2.625-11.682-1.537c-1.489,0.324-2.942,1.01-4.203,1.982L6.151,23.783
			c-1.712,1.32-2.811,3.164-3.097,5.194c-0.269,1.914,0.241,3.531,1.516,4.806l0.183,0.183l-0.78,4.94
			C3.855,39.663,4.318,40.4,5.052,40.62c0.732,0.219,1.502-0.122,1.831-0.812c0.265-0.556,0.764-0.907,1.349-0.966
			c0.578-0.057,1.132,0.184,1.48,0.648c0.578,0.77,1.289,1.485,2.114,2.125c1.202,0.932,1.891,2.333,1.891,3.843v15.31
			c0,3.266,0.544,6.486,1.617,9.572l9.321,26.803c0.265,0.761,0.788,1.378,1.474,1.738c1.589,0.833,4.1,1.564,7.043,0.312
			C33.68,98.976,34.216,98.871,34.747,98.871z"/>
	</g>
</g>
<g id="Layer_3">
	<g>
		<path class="st2" d="M78.255,21.071"/>
	</g>
	<g>
		<path class="st1" d="M78.049,53.14c-3.853,0-6.999-2.658-7.034-2.687l0.221-0.258c0.036,0.031,3.683,3.108,7.864,2.534
			l0.046,0.337C78.775,53.117,78.409,53.14,78.049,53.14z"/>
	</g>
	<g>
		<path class="st3" d="M79.529,49.665c0,1.453-1.178,2.631-2.631,2.631c-1.453,0-2.631-1.178-2.631-2.631s0.81-1.837,2.263-1.837
			C77.983,47.829,79.529,48.212,79.529,49.665z"/>
		<path class="st1" d="M76.897,52.466c-1.544,0-2.801-1.257-2.801-2.801c0-1.763,1.169-2.006,2.433-2.006
			c2.043,0,3.169,0.713,3.169,2.006C79.698,51.21,78.442,52.466,76.897,52.466z M76.529,47.998c-1.526,0-2.094,0.452-2.094,1.667
			c0,1.357,1.104,2.462,2.462,2.462s2.462-1.104,2.462-2.462C79.359,48.287,77.82,47.998,76.529,47.998z"/>
	</g>
	<g>
		<path class="st3" d="M53.612,58.893h-1.739c-0.54,0-0.977-0.437-0.977-0.977v-0.514c0-0.607-0.203-1.196-0.576-1.674v0
			c-0.209-0.268-0.576-0.355-0.883-0.21h0c-0.396,0.187-0.538,0.681-0.301,1.049c0,0,0.002,0.004,0.006,0.011
			c0.206,0.403,0.311,0.849,0.311,1.301v0.266c0,0.412-0.334,0.747-0.747,0.747h-3.562c-0.761,0-1.378-0.617-1.378-1.378v0
			c0-0.347,0.131-0.681,0.366-0.935l2.666-2.886c1.205-1.305,2.901-2.046,4.677-2.046h2.137h0.99h1.09
			c1.776,0,3.472,0.742,4.677,2.046l2.666,2.886c0.235,0.255,0.366,0.589,0.366,0.935v0c0,0.761-0.617,1.378-1.378,1.378h-3.562
			c-0.412,0-0.747-0.334-0.747-0.747v-0.266c0-0.452,0.105-0.899,0.311-1.301c0.004-0.007,0.006-0.011,0.006-0.011
			c0.237-0.369,0.096-0.862-0.301-1.049h0c-0.307-0.145-0.674-0.058-0.883,0.21v0c-0.373,0.478-0.576,1.068-0.576,1.674v0.514
			c0,0.54-0.437,0.977-0.977,0.977h-0.975H53.612z"/>
		<path class="st1" d="M62.023,59.403h-3.562c-0.693,0-1.256-0.563-1.256-1.256V57.88c0-0.533,0.127-1.063,0.367-1.533l0.031-0.055
			c0.046-0.072,0.036-0.142,0.026-0.177s-0.039-0.1-0.116-0.136c-0.093-0.044-0.201-0.018-0.264,0.063
			c-0.302,0.387-0.468,0.87-0.468,1.361v0.514c0,0.819-0.667,1.486-1.486,1.486h-3.422c-0.82,0-1.486-0.667-1.486-1.486v-0.514
			c0-0.491-0.166-0.974-0.468-1.361c-0.063-0.081-0.171-0.106-0.263-0.062c-0.077,0.037-0.106,0.101-0.116,0.136
			s-0.02,0.105,0.026,0.177l0.031,0.056c0.24,0.468,0.366,0.998,0.366,1.532v0.266c0,0.692-0.563,1.256-1.256,1.256h-3.562
			c-1.041,0-1.888-0.847-1.888-1.887c0-0.476,0.178-0.931,0.501-1.281l2.666-2.886c1.298-1.405,3.139-2.21,5.051-2.21h4.217
			c1.912,0,3.753,0.806,5.051,2.21l2.666,2.886c0.323,0.35,0.501,0.805,0.501,1.281C63.911,58.556,63.064,59.403,62.023,59.403z
			 M58.475,56.819c-0.166,0.33-0.251,0.694-0.251,1.062v0.266c0,0.131,0.107,0.237,0.238,0.237h3.562
			c0.479,0,0.869-0.39,0.869-0.869c0-0.219-0.082-0.429-0.231-0.59l-2.666-2.886c-1.106-1.197-2.674-1.883-4.303-1.883h-4.217
			c-1.629,0-3.197,0.686-4.303,1.883l-2.666,2.886c-0.149,0.161-0.231,0.371-0.231,0.59c0,0.479,0.39,0.869,0.869,0.869h3.562
			c0.131,0,0.237-0.106,0.237-0.237V57.88c0-0.37-0.087-0.738-0.251-1.062c-0.179-0.294-0.228-0.651-0.133-0.983
			c0.098-0.342,0.338-0.625,0.66-0.777c0.526-0.249,1.144-0.102,1.502,0.356c0.441,0.565,0.684,1.271,0.684,1.988v0.514
			c0,0.258,0.21,0.468,0.468,0.468h3.422c0.258,0,0.468-0.21,0.468-0.468v-0.514c0-0.717,0.243-1.423,0.684-1.988
			c0.358-0.459,0.976-0.605,1.502-0.357c0.321,0.152,0.562,0.435,0.66,0.777C58.703,56.168,58.654,56.525,58.475,56.819z"/>
	</g>
	<g>
		<path class="st1" d="M77.984,37.912c-5.656-7.541-16.609-5.328-16.719-5.304l-0.141-0.664c0.114-0.025,11.485-2.331,17.403,5.561
			L77.984,37.912z"/>
	</g>
	<g>
		<path class="st1" d="M74.136,26.308c-10.589-4.384-17.744-1.392-17.815-1.36l-0.271-0.623c0.3-0.13,7.473-3.146,18.345,1.356
			L74.136,26.308z"/>
	</g>
	<g>
		<path class="st1" d="M91.258,46.723C87.192,33.86,79.466,30.243,79.389,30.208l0.28-0.619c0.328,0.148,8.08,3.779,12.237,16.929
			L91.258,46.723z"/>
	</g>
	<g>
		<path class="st1" d="M63.39,47.554c-7.704-0.263-7.881-7.45-7.882-7.523l0.679-0.009c0.004,0.27,0.178,6.613,7.227,6.853
			L63.39,47.554z"/>
	</g>
	<g>
		<path class="st1" d="M82.049,67.186l-0.513-0.444l3.448-3.983c1.96-2.264,3.125-5.158,3.281-8.149l0.224-4.302l0.678,0.035
			l-0.224,4.302c-0.163,3.141-1.387,6.18-3.446,8.558L82.049,67.186z"/>
	</g>
	<g>
		
			<rect x="77.98" y="72.17" transform="matrix(0.2407 -0.9706 0.9706 0.2407 -4.5273 139.2313)" class="st1" width="17.49" height="0.679"/>
	</g>
	<g>
		<path class="st1" d="M79.807,73.313c-5.375-13.645-16.346-15.445-16.456-15.462l0.1-0.672c0.114,0.017,11.462,1.859,16.987,15.884
			L79.807,73.313z"/>
	</g>
	<g>
		<path class="st1" d="M71.918,99.55l-7.145-20.103c-1.647-4.635-5.644-7.939-10.43-8.621c-0.326-0.047-0.591-0.07-0.788-0.07
			h-0.509v-9.334h1.019v8.344c0.131,0.013,0.272,0.03,0.423,0.052c5.162,0.736,9.471,4.295,11.246,9.289l7.145,20.103L71.918,99.55z
			"/>
	</g>
	<g>
		<path class="st1" d="M72.527,78.947c-2.184-7.068-6.442-10.656-9.63-12.421c-3.463-1.917-6.452-2.164-6.481-2.167l0.051-0.677
			c0.123,0.009,12.39,1.084,16.709,15.064L72.527,78.947z"/>
	</g>
	<g>
		
			<rect x="86.404" y="19.334" transform="matrix(0.9862 -0.1658 0.1658 0.9862 -2.7126 14.7131)" class="st1" width="0.679" height="8.531"/>
	</g>
	<g>
		<path class="st1" d="M78.126,92.566c-3.408,0-5.508-2.49-5.537-2.525l0.525-0.431c0.152,0.184,3.791,4.467,9.371,0.837l0.37,0.569
			C81.098,92.158,79.505,92.566,78.126,92.566z"/>
	</g>
	<g>
		
			<rect x="93.7" y="26.15" transform="matrix(0.5191 -0.8547 0.8547 0.5191 18.7733 95.2578)" class="st1" width="0.679" height="9.592"/>
	</g>
	<g>
		<path class="st1" d="M102.662,35.162l-5.802-10.04c-1.864-3.226-4.496-5.848-7.611-7.584c-5.885-3.279-9.955-1.659-9.995-1.642
			l-0.26-0.627c0.177-0.074,4.416-1.761,10.586,1.676c3.222,1.795,5.943,4.505,7.869,7.837l5.802,10.04L102.662,35.162z"/>
	</g>
	<g>
		<path class="st2" d="M28.911,21.071"/>
	</g>
	<g>
		<path class="st1" d="M12.893,43.309l-0.858-0.549l1.332-2.08c0.939-1.465,1.846-3.101,2.773-5c2.069-4.24,5.1-8.051,8.764-11.022
			l1.143-0.926c1.026-0.832,1.817-1.924,2.287-3.159c0.086-0.227,0.067-0.479-0.052-0.69c-0.117-0.207-0.317-0.349-0.548-0.391
			c-2.179-0.392-6.512-0.569-11.044,2.656c-3.351,2.384-5.779,5.978-6.838,10.122l-2.015,7.884l-0.987-0.252l2.015-7.884
			c1.119-4.376,3.688-8.176,7.235-10.699c4.836-3.441,9.479-3.249,11.815-2.829c0.531,0.095,0.988,0.421,1.254,0.892
			c0.269,0.476,0.312,1.043,0.118,1.554c-0.534,1.402-1.432,2.643-2.597,3.588l-1.143,0.926c-3.55,2.878-6.486,6.57-8.491,10.678
			c-0.945,1.935-1.871,3.604-2.831,5.103L12.893,43.309z"/>
	</g>
	<g>
		<path class="st1" d="M29.118,53.14c-0.361,0-0.727-0.023-1.098-0.074l0.046-0.337c4.181,0.573,7.828-2.503,7.864-2.534
			l0.221,0.258C36.117,50.483,32.971,53.14,29.118,53.14z"/>
	</g>
	<g>
		<path class="st3" d="M27.638,49.665c0,1.453,1.178,2.631,2.631,2.631s2.631-1.178,2.631-2.631s-0.81-1.837-2.263-1.837
			S27.638,48.212,27.638,49.665z"/>
		<path class="st1" d="M30.269,52.466c-1.544,0-2.801-1.257-2.801-2.801c0-1.294,1.126-2.006,3.169-2.006
			c1.264,0,2.433,0.243,2.433,2.006C33.07,51.21,31.814,52.466,30.269,52.466z M30.637,47.998c-1.291,0-2.829,0.289-2.829,1.667
			c0,1.357,1.104,2.462,2.462,2.462s2.462-1.104,2.462-2.462C32.731,48.45,32.163,47.998,30.637,47.998z"/>
	</g>
	<g>
		<path class="st1" d="M29.183,37.912l-0.543-0.407c5.918-7.891,17.289-5.586,17.403-5.561l-0.141,0.664
			C45.792,32.585,34.839,30.371,29.183,37.912z"/>
	</g>
	<g>
		<path class="st1" d="M33.03,26.308l-0.26-0.627c10.873-4.503,18.045-1.486,18.345-1.356l-0.271,0.623
			C50.774,24.917,43.619,21.924,33.03,26.308z"/>
	</g>
	<g>
		<path class="st1" d="M15.909,46.723l-0.648-0.205c4.157-13.15,11.909-16.781,12.237-16.929l0.28,0.619
			C27.7,30.243,19.967,33.885,15.909,46.723z"/>
	</g>
	<g>
		<path class="st1" d="M43.777,47.554l-0.023-0.679c2.969-0.101,5.085-1.283,6.291-3.511c0.905-1.672,0.935-3.325,0.935-3.341
			l0.679,0.008C51.658,40.104,51.481,47.291,43.777,47.554z"/>
	</g>
	<g>
		<path class="st1" d="M25.118,67.186l-3.448-3.983c-2.059-2.378-3.282-5.417-3.446-8.558L18,50.342l0.678-0.035l0.224,4.302
			c0.156,2.991,1.321,5.885,3.281,8.149l3.448,3.983L25.118,67.186z"/>
	</g>
	<g>
		
			<rect x="20.102" y="63.764" transform="matrix(0.9707 -0.2405 0.2405 0.9707 -16.8379 7.0442)" class="st1" width="0.679" height="17.49"/>
	</g>
	<g>
		<path class="st1" d="M27.36,73.313l-0.632-0.249c2.884-7.321,7.338-11.248,10.567-13.252c3.51-2.18,6.304-2.614,6.421-2.632
			l0.1,0.672C43.705,57.868,32.735,59.668,27.36,73.313z"/>
	</g>
	<g>
		<path class="st1" d="M35.249,99.55l-0.96-0.341l7.145-20.103c1.775-4.993,6.084-8.553,11.246-9.289
			c0.151-0.022,0.292-0.039,0.423-0.052v-8.344h1.019v9.334h-0.509c-0.197,0-0.462,0.024-0.788,0.07
			c-4.786,0.682-8.782,3.986-10.43,8.621L35.249,99.55z"/>
	</g>
	<g>
		<path class="st1" d="M34.64,78.947l-0.649-0.201c2.255-7.299,6.671-11.006,9.978-12.83c3.589-1.979,6.604-2.224,6.731-2.234
			l0.051,0.677C50.632,64.369,38.818,65.422,34.64,78.947z"/>
	</g>
	<g>
		
			<rect x="16.158" y="23.259" transform="matrix(0.166 -0.9861 0.9861 0.166 -6.2384 39.8217)" class="st1" width="8.531" height="0.679"/>
	</g>
	<g>
		<path class="st1" d="M29.041,92.566c-1.379,0-2.972-0.407-4.729-1.551l0.37-0.569c2.353,1.531,4.645,1.855,6.812,0.961
			c1.618-0.667,2.549-1.786,2.558-1.797l0.525,0.431C34.549,90.076,32.448,92.566,29.041,92.566z"/>
	</g>
	<g>
		<path class="st1" d="M53.583,100.52c-4.523,0-10.432-0.974-12.197-3.721l0.571-0.367c1.311,2.039,5.983,3.409,11.626,3.409
			c5.643,0,10.315-1.37,11.626-3.409l0.571,0.367C64.015,99.546,58.106,100.52,53.583,100.52z"/>
	</g>
	<g>
		
			<rect x="8.331" y="30.606" transform="matrix(0.8547 -0.5192 0.5192 0.8547 -14.158 11.3119)" class="st1" width="9.592" height="0.679"/>
	</g>
	<g>
		<path class="st1" d="M4.505,35.162l-0.588-0.34l5.802-10.04c1.925-3.332,4.646-6.042,7.868-7.837
			c6.169-3.437,10.409-1.75,10.586-1.676l-0.259,0.628c-0.041-0.017-4.133-1.625-9.996,1.642c-3.115,1.736-5.747,4.358-7.611,7.584
			L4.505,35.162z"/>
	</g>
	<g>
		<path class="st1" d="M59.898,78.115c-1.012-1.25-3.479-2.057-6.286-2.057c-2.807,0-5.274,0.807-6.286,2.057l-0.528-0.427
			c1.379-1.702,4.424-2.309,6.814-2.309c2.39,0,5.435,0.606,6.814,2.309L59.898,78.115z"/>
	</g>
	<g>
		
			<rect x="61.746" y="82.265" transform="matrix(0.9795 -0.2012 0.2012 0.9795 -16.1759 14.2676)" class="st1" width="0.679" height="8.855"/>
	</g>
	<g>
		
			<rect x="41.149" y="86.353" transform="matrix(0.2012 -0.9796 0.9796 0.2012 -48.5129 113.8956)" class="st1" width="8.855" height="0.679"/>
	</g>
	<g>
		<path class="st1" d="M94.055,42.885l-1.332-2.08c-0.961-1.499-1.887-3.168-2.831-5.103c-2.005-4.107-4.941-7.799-8.491-10.677
			l-1.143-0.926c-1.165-0.945-2.064-2.186-2.597-3.588c-0.195-0.511-0.152-1.078,0.118-1.554c0.267-0.471,0.724-0.796,1.254-0.892
			c2.337-0.421,6.979-0.612,11.815,2.829c3.547,2.523,6.116,6.323,7.235,10.699l2.015,7.884l-0.987,0.252l-2.015-7.884
			c-1.059-4.143-3.488-7.738-6.838-10.122c-4.532-3.225-8.865-3.048-11.044-2.656c-0.231,0.042-0.431,0.184-0.548,0.391
			c-0.12,0.212-0.139,0.463-0.052,0.69c0.47,1.234,1.261,2.327,2.287,3.159l1.143,0.926c3.664,2.971,6.695,6.782,8.764,11.022
			c0.927,1.899,1.834,3.534,2.773,5l1.332,2.08L94.055,42.885z"/>
	</g>
	<g>
		<path class="st1" d="M30.242,54.869c-0.341,0-0.694-0.025-1.06-0.078c-0.939-0.137-1.648-0.951-1.648-1.893
			c0-0.169-0.127-0.309-0.296-0.326l-1.707-0.163c-0.88-0.084-1.543-0.814-1.543-1.698c0-0.579,0.289-1.113,0.772-1.428
			c1.284-0.837,4.839-2.676,10.117-1.669c0.97,0.185,1.674,1.033,1.674,2.017v0.693c0,0.765-0.285,1.486-0.802,2.03
			C34.809,53.343,32.923,54.869,30.242,54.869z M31.843,48.338c-3.34,0-5.591,1.188-6.527,1.798c-0.194,0.126-0.31,0.341-0.31,0.575
			c0,0.356,0.267,0.65,0.622,0.684l1.707,0.163c0.694,0.066,1.218,0.642,1.218,1.34c0,0.447,0.327,0.82,0.776,0.885
			c2.792,0.408,4.758-1.159,5.681-2.13c0.336-0.354,0.522-0.825,0.522-1.328v-0.693c0-0.496-0.356-0.923-0.846-1.017
			C33.667,48.42,32.717,48.338,31.843,48.338z"/>
	</g>
	<g>
		<path class="st1" d="M76.925,54.869c-2.681,0-4.567-1.526-5.507-2.514c-0.517-0.544-0.802-1.265-0.802-2.03v-0.693
			c0-0.984,0.704-1.832,1.674-2.017c5.277-1.007,8.833,0.832,10.117,1.669c0.483,0.315,0.772,0.849,0.772,1.428
			c0,0.884-0.663,1.614-1.543,1.698l-1.707,0.163c-0.169,0.016-0.296,0.156-0.296,0.326c0,0.942-0.708,1.756-1.648,1.893
			C77.619,54.844,77.265,54.869,76.925,54.869z M75.323,48.338c-0.875,0-1.823,0.081-2.843,0.276
			c-0.49,0.094-0.846,0.521-0.846,1.017v0.693c0,0.503,0.185,0.975,0.522,1.329c0.923,0.971,2.888,2.539,5.681,2.13
			c0.45-0.066,0.776-0.438,0.776-0.885c0-0.697,0.523-1.273,1.217-1.34l1.707-0.163c0.354-0.034,0.622-0.328,0.622-0.684
			c0-0.233-0.116-0.448-0.31-0.575C80.915,49.526,78.663,48.338,75.323,48.338z"/>
	</g>
</g>
</svg>
