<?xml version="1.0" encoding="utf-8"?>
<!-- Generator: Adobe Illustrator 21.1.0, SVG Export Plug-In . SVG Version: 6.00 Build 0)  -->
<svg version="1.1" id="Layer_2_1_" xmlns="http://www.w3.org/2000/svg" xmlns:xlink="http://www.w3.org/1999/xlink" x="0px" y="0px"
	 viewBox="0 0 666 447.5" style="enable-background:new 0 0 666 447.5;" xml:space="preserve">
<style type="text/css">
	.st0{fill:#F9F5F1;}
	.st1{fill:#333333;}
	.st2{fill:#E4CDB5;}
	.st3{fill:#1E1E1E;}
	.st4{fill:#FFFFFF;}
	.st5{fill:none;stroke:#1E1E1E;stroke-width:3;stroke-miterlimit:10;}
</style>
<g>
	<g>
		<circle class="st0" cx="96.5" cy="105.8" r="53.5"/>
		<path class="st1" d="M96.5,159.8c-29.8,0-54-24.2-54-54s24.2-54,54-54s54,24.2,54,54S126.3,159.8,96.5,159.8z M96.5,52.8
			c-29.2,0-53,23.8-53,53s23.8,53,53,53s53-23.8,53-53S125.8,52.8,96.5,52.8z"/>
	</g>
	<g id="Layer_3">
		<g>
			<g>
				<g>
					<g>
						<path class="st2" d="M98.9,138l14.2,4.5l15.2-7.8l6.3-28.8l-4.8-12.2l-3.4-7.8l-7.2-2.8l-6.8-14.8c-1-1.9-3-3.1-5.2-3.1l0,0
							c-1.8,0-3.5,0.8-4.7,2.3l-4.2,7c-0.3,0.6-0.9,0.9-1.6,0.9H96c-0.6,0-1.2-0.3-1.6-0.9l-4.2-7c-1.1-1.4-2.8-2.3-4.7-2.3l0,0
							c-2.2,0-4.1,1.2-5.2,3.1L73.5,83l-7.2,2.8l-3.4,7.8L58,105.9l6.3,28.8l15.6,7.6l12.9-4.3L98.9,138z"/>
					</g>
				</g>
			</g>
			<g>
				<g>
					<g>
						<path class="st3" d="M113.1,142.9l-14.3-4.5l-5.8,0l-13,4.3L64,135l-6.4-29.1l4.9-12.4l3.5-8l7.2-2.8L80,68
							c1.1-2,3.2-3.3,5.5-3.3c2,0,3.8,0.9,5,2.4l0,0l4.2,7c0.3,0.4,0.7,0.7,1.2,0.7h0.7c0.5,0,1-0.3,1.2-0.7l4.2-7.1
							c1.2-1.6,3-2.4,5-2.4c2.3,0,4.4,1.3,5.5,3.3l0,0l6.8,14.6l7.2,2.8l3.5,8l4.9,12.4l0,0.1l-6.4,29L113.1,142.9z M98.9,137.6
							L113,142l14.8-7.6l6.3-28.5l-4.8-12.1l-3.3-7.6l-7.2-2.8l-6.9-14.9c-1-1.7-2.8-2.8-4.8-2.8c-1.7,0-3.3,0.8-4.3,2.1l-4.2,7
							c-0.4,0.7-1.1,1.1-1.9,1.1h-0.7c-0.8,0-1.5-0.4-1.9-1.1l-4.2-7c-1-1.3-2.6-2.1-4.3-2.1c-2,0-3.8,1.1-4.8,2.8l-6.9,14.9
							l-7.2,2.8l-3.3,7.6l-4.8,12.1l6.3,28.5l15.2,7.4l12.8-4.3L98.9,137.6z"/>
					</g>
				</g>
			</g>
		</g>
		<g>
			<g>
				<g>
					<g>
						<path class="st4" d="M101.8,106.6c0,0,1,2.1,3.2,2.6c1.9,0.5,3.9-0.7,4.4-2.7c0.1-0.5,0.2-1.1,0.2-1.8c0,0-0.9-2.5-3.3-2.7
							c-1.4-0.1-2.9,0.6-3.6,1.8C102.2,104.5,101.9,105.4,101.8,106.6z"/>
					</g>
				</g>
			</g>
			<g>
				<g>
					<g>
						<path class="st3" d="M105.9,109.4c-0.3,0-0.6,0-0.9-0.1c-2.2-0.5-3.2-2.6-3.3-2.7l0,0l0,0c0-1.1,0.3-2,0.8-2.8
							c0.8-1.3,2.3-2,3.8-1.9c2.5,0.2,3.4,2.8,3.4,2.8l0,0c0,0.7-0.1,1.3-0.2,1.8C109.1,108.3,107.5,109.4,105.9,109.4z M102,106.6
							c0.1,0.3,1.1,2,3.1,2.5c1.9,0.5,3.7-0.7,4.2-2.5c0.1-0.5,0.2-1.1,0.2-1.7c-0.1-0.2-1-2.4-3.1-2.6c-1.4-0.1-2.7,0.6-3.5,1.8
							C102.3,104.7,102,105.6,102,106.6z"/>
					</g>
				</g>
			</g>
		</g>
		<g>
			<g>
				<g>
					<g>
						<path class="st3" d="M97.1,125.8h-1.1V125h1.1c2.2,0,4.4-0.7,6.1-2.1c1.4-1.1,2.1-2.4,2.1-3.7v-0.6h0.9v0.6
							c0,1.6-0.8,3.1-2.5,4.4C101.9,125,99.5,125.8,97.1,125.8z"/>
					</g>
				</g>
			</g>
		</g>
		<g>
			<g>
				<g>
					<g>
						<path class="st3" d="M105.8,108.8c-1.7,0-3.1-1.4-3.1-3.1s1.4-3.1,3.1-3.1c1.7,0,3.1,1.4,3.1,3.1
							C108.9,107.4,107.5,108.8,105.8,108.8z M105.8,103.4c-1.3,0-2.3,1-2.3,2.3c0,1.3,1,2.3,2.3,2.3c1.3,0,2.3-1,2.3-2.3
							C108.1,104.4,107.1,103.4,105.8,103.4z"/>
					</g>
				</g>
			</g>
		</g>
		<g>
			<g>
				<g>
					<g>
						
							<rect x="97.1" y="103.1" transform="matrix(0.1978 -0.9802 0.9802 0.1978 -21.2531 180.7493)" class="st3" width="5.4" height="0.6"/>
					</g>
				</g>
			</g>
		</g>
		<g>
			<g>
				<g>
					<g>
						<path class="st3" d="M102.1,101.9l-0.5-0.2c0-0.1,0.7-2.1,2.5-3.1c1.2-0.6,2.6-0.7,4.1-0.2l-0.2,0.5c-1.4-0.5-2.7-0.4-3.7,0.1
							C102.7,100,102.1,101.9,102.1,101.9z"/>
					</g>
				</g>
			</g>
		</g>
		<g>
			<g>
				<g>
					<g>
						
							<rect x="98.6" y="72.1" transform="matrix(0.3111 -0.9504 0.9504 0.3111 1.9658 147.4451)" class="st3" width="8.2" height="0.6"/>
					</g>
				</g>
			</g>
		</g>
		<g>
			<g>
				<g>
					<g>
						
							<rect x="99.8" y="71.8" transform="matrix(0.4337 -0.9011 0.9011 0.4337 -5.136 135.9934)" class="st3" width="11.6" height="0.6"/>
					</g>
				</g>
			</g>
		</g>
		<g>
			<g>
				<g>
					<g>
						
							<rect x="103.9" y="74.4" transform="matrix(0.4952 -0.8688 0.8688 0.4952 -10.5141 131.249)" class="st3" width="7.6" height="0.6"/>
					</g>
				</g>
			</g>
		</g>
		<g>
			<g>
				<g>
					<g>
						
							<rect x="104.2" y="76.1" transform="matrix(0.5646 -0.8254 0.8254 0.5646 -15.544 123.3503)" class="st3" width="9.8" height="0.6"/>
					</g>
				</g>
			</g>
		</g>
		<g>
			<g>
				<g>
					<g>
						
							<rect x="107" y="77.7" transform="matrix(0.7093 -0.7049 0.7049 0.7093 -22.7277 100.9341)" class="st3" width="8.1" height="0.6"/>
					</g>
				</g>
			</g>
		</g>
		<g>
			<g>
				<g>
					<g>
						<path class="st3" d="M112,105.1c-0.1,0-0.1,0-0.2,0l0.1-0.6c0,0,2.4,0.2,5.6-3.9l0.4,0.3C115,104.8,112.7,105.1,112,105.1z"/>
					</g>
				</g>
			</g>
		</g>
		<g>
			<g>
				<g>
					<g>
						<path class="st3" d="M110.4,102.2c-2-2.4-5.2-1.3-5.3-1.2l-0.2-0.5c0,0,3.7-1.3,5.9,1.4L110.4,102.2z"/>
					</g>
				</g>
			</g>
		</g>
		<g>
			<g>
				<g>
					<g>
						
							<rect x="114.7" y="88.3" transform="matrix(0.963 -0.2696 0.2696 0.963 -19.4595 35.5146)" class="st3" width="9.8" height="0.6"/>
					</g>
				</g>
			</g>
		</g>
		<g>
			<g>
				<g>
					<g>
						<rect x="119" y="92.6" class="st3" width="7.6" height="0.6"/>
					</g>
				</g>
			</g>
		</g>
		<g>
			<g>
				<g>
					<g>
						<path class="st4" d="M97.1,117.1c-0.6,0.3-1.2,0.3-1.8,0c-1-0.5-2.5-1.3-2.7-2.1l-0.2-1.4c-0.3-1.5,0.9-2.9,2.3-2.9h2.9
							c1.5,0,2.7,1.5,2.3,3.1l-0.3,1.4C99.5,115.8,98.1,116.6,97.1,117.1z"/>
					</g>
				</g>
			</g>
			<g>
				<g>
					<g>
						<path class="st3" d="M96.3,117.5c-0.3,0-0.7-0.1-1-0.2c-1.8-0.8-2.7-1.6-2.8-2.4l-0.2-1.4c-0.1-0.8,0.1-1.7,0.6-2.3
							c0.5-0.6,1.2-0.9,2-0.9h2.9c0.8,0,1.5,0.4,2,1c0.5,0.7,0.7,1.6,0.5,2.5l-0.3,1.4c-0.2,0.7-1.1,1.4-2.7,2.2
							C96.9,117.5,96.6,117.5,96.3,117.5z M94.8,110.8c-0.6,0-1.1,0.3-1.5,0.7c-0.4,0.5-0.6,1.2-0.5,1.9l0.2,1.4
							c0.1,0.5,1,1.2,2.5,1.9c0.5,0.2,1,0.2,1.5,0l0,0c1.4-0.7,2.3-1.3,2.4-1.8l0.3-1.4c0.2-0.7,0-1.4-0.4-2c-0.4-0.5-1-0.8-1.6-0.8
							H94.8L94.8,110.8z"/>
					</g>
				</g>
			</g>
		</g>
		<g>
			<g>
				<g>
					<g>
						<path class="st5" d="M96.2,117"/>
					</g>
				</g>
			</g>
		</g>
		<g>
			<g>
				<g>
					<g>
						<path class="st3" d="M97.9,115c-0.1,0-0.1,0-0.2,0c-0.4-0.2-0.6-0.7-0.4-1.3c0.1-0.3,0.3-0.6,0.6-0.7c0.2-0.1,0.3-0.1,0.5,0
							c0.4,0.2,0.6,0.7,0.4,1.3l0,0c-0.1,0.3-0.3,0.6-0.6,0.7C98.1,115,98,115,97.9,115z M98.2,113.2c0,0-0.1,0-0.2,0
							c-0.2,0.1-0.3,0.3-0.4,0.5c-0.1,0.4,0,0.8,0.2,0.9c0.1,0,0.2,0,0.3,0c0.2-0.1,0.3-0.3,0.4-0.5l0,0c0.1-0.4,0-0.8-0.2-0.9
							C98.2,113.2,98.2,113.2,98.2,113.2z"/>
					</g>
				</g>
			</g>
		</g>
		<g>
			<g>
				<g>
					<g>
						<path class="st3" d="M98.1,115.1c-0.2,0-0.4-0.1-0.4-0.1l0.2-0.2c0,0,0.6,0.4,2-1.2l0.2,0.2C99.1,114.8,98.4,115.1,98.1,115.1
							z"/>
					</g>
				</g>
			</g>
		</g>
		<g>
			<g>
				<g>
					<g>
						<path class="st3" d="M94.6,115.1c-0.1,0-0.2,0-0.3-0.1c-0.2-0.1-0.5-0.4-0.6-0.7l0,0c-0.2-0.6,0-1.1,0.4-1.3
							c0.2-0.1,0.3-0.1,0.5,0c0.2,0.1,0.5,0.4,0.6,0.7c0.2,0.6,0,1.1-0.4,1.3C94.7,115,94.6,115.1,94.6,115.1z M94,114.2
							c0.1,0.3,0.2,0.5,0.4,0.5c0.1,0,0.2,0,0.3,0c0.2-0.1,0.3-0.5,0.2-0.9c-0.1-0.3-0.2-0.5-0.4-0.5c-0.1,0-0.2,0-0.3,0
							C94,113.4,93.9,113.8,94,114.2L94,114.2z"/>
					</g>
				</g>
			</g>
		</g>
		<g>
			<g>
				<g>
					<g>
						<path class="st3" d="M94.4,115.1c-0.4,0-1-0.2-2-1.3l0.2-0.2c1.5,1.5,2,1.2,2,1.2l0.2,0.2C94.8,115,94.7,115.1,94.4,115.1z"/>
					</g>
				</g>
			</g>
		</g>
		<g>
			<g>
				<g>
					<g>
						<path class="st5" d="M96.1,117"/>
					</g>
				</g>
			</g>
		</g>
		<g>
			<g>
				<g>
					<g>
						<path class="st3" d="M94.4,115c-0.1,0-0.2,0-0.3-0.1c-0.2-0.1-0.5-0.4-0.6-0.7l0,0c-0.2-0.6,0-1.1,0.4-1.3
							c0.2-0.1,0.3-0.1,0.5,0c0.2,0.1,0.5,0.4,0.6,0.7c0.2,0.6,0,1.1-0.4,1.3C94.6,115,94.5,115,94.4,115z M93.9,114.2
							c0.1,0.3,0.2,0.5,0.4,0.5c0.1,0,0.2,0,0.3,0c0.2-0.1,0.3-0.5,0.2-0.9c-0.1-0.3-0.2-0.5-0.4-0.5c-0.1,0-0.2,0-0.3,0
							C93.8,113.4,93.7,113.8,93.9,114.2L93.9,114.2z"/>
					</g>
				</g>
			</g>
		</g>
		<g>
			<g>
				<g>
					<g>
						<path class="st3" d="M94.3,115.1c-0.4,0-1-0.2-2-1.3l0.2-0.2c1.5,1.5,2,1.2,2,1.2l0.2,0.2C94.6,115,94.5,115.1,94.3,115.1z"/>
					</g>
				</g>
			</g>
		</g>
		<g>
			<g>
				<g>
					<g>
						<path class="st3" d="M97.8,115.1c-0.1,0-0.1,0-0.2,0c-0.4-0.2-0.6-0.7-0.4-1.3c0.1-0.3,0.3-0.6,0.6-0.7c0.2-0.1,0.3-0.1,0.5,0
							c0.4,0.2,0.6,0.7,0.4,1.3l0,0c-0.1,0.3-0.3,0.6-0.6,0.7C98,115.1,97.9,115.1,97.8,115.1z M98,113.3c0,0-0.1,0-0.2,0
							c-0.2,0.1-0.3,0.3-0.4,0.5c-0.1,0.4,0,0.8,0.2,0.9c0.1,0,0.2,0,0.3,0c0.2-0.1,0.3-0.3,0.4-0.5c0.1-0.4,0-0.8-0.2-0.9
							C98.1,113.3,98.1,113.3,98,113.3z"/>
					</g>
				</g>
			</g>
		</g>
		<g>
			<g>
				<g>
					<g>
						<path class="st3" d="M97.9,115.1c-0.2,0-0.4-0.1-0.4-0.1l0.2-0.2c0,0,0.6,0.4,2-1.2l0.2,0.2C98.9,114.9,98.3,115.1,97.9,115.1
							z"/>
					</g>
				</g>
			</g>
		</g>
		<g>
			<g>
				<g>
					<g>
						<path class="st5" d="M96.2,117"/>
					</g>
				</g>
			</g>
		</g>
		<g>
			<g>
				<g>
					<g>
						<path class="st3" d="M94.6,115c-0.1,0-0.2,0-0.3-0.1c-0.2-0.1-0.5-0.4-0.6-0.7l0,0c-0.2-0.6,0-1.1,0.4-1.3
							c0.2-0.1,0.3-0.1,0.5,0c0.2,0.1,0.5,0.4,0.6,0.7c0.2,0.6,0,1.1-0.4,1.3C94.7,115,94.6,115,94.6,115z M94,114.2
							c0.1,0.3,0.2,0.5,0.4,0.5c0.1,0,0.2,0,0.3,0c0.2-0.1,0.3-0.5,0.2-0.9c-0.1-0.3-0.2-0.5-0.4-0.5c-0.1,0-0.2,0-0.3,0
							C94,113.3,93.9,113.8,94,114.2L94,114.2z"/>
					</g>
				</g>
			</g>
		</g>
		<g>
			<g>
				<g>
					<g>
						<path class="st3" d="M94.4,115.1c-0.4,0-1-0.2-2-1.3l0.2-0.2c1.5,1.5,2,1.2,2,1.2l0.2,0.2C94.8,115,94.7,115.1,94.4,115.1z"/>
					</g>
				</g>
			</g>
		</g>
		<g>
			<g>
				<g>
					<g>
						<path class="st3" d="M97.9,115.1c-0.1,0-0.1,0-0.2,0c-0.4-0.2-0.6-0.7-0.4-1.3c0.1-0.3,0.3-0.6,0.6-0.7c0.2-0.1,0.3-0.1,0.5,0
							c0.4,0.2,0.6,0.7,0.4,1.3c-0.1,0.3-0.3,0.6-0.6,0.7C98.1,115,98,115.1,97.9,115.1z M98.2,113.2c0,0-0.1,0-0.2,0
							c-0.2,0.1-0.3,0.3-0.4,0.5c-0.1,0.4,0,0.8,0.2,0.9c0.1,0,0.2,0,0.3,0c0.2-0.1,0.3-0.3,0.4-0.5l0,0c0.1-0.4,0-0.8-0.2-0.9
							C98.2,113.3,98.2,113.2,98.2,113.2z"/>
					</g>
				</g>
			</g>
		</g>
		<g>
			<g>
				<g>
					<g>
						<path class="st3" d="M98.1,115.1c-0.2,0-0.4-0.1-0.4-0.1l0.2-0.2c0,0,0.6,0.4,2-1.2l0.2,0.2C99.1,114.9,98.4,115.1,98.1,115.1
							z"/>
					</g>
				</g>
			</g>
		</g>
		<g>
			<g>
				<g>
					<g>
						<path class="st5" d="M96.4,117"/>
					</g>
				</g>
			</g>
		</g>
		<g>
			<g>
				<g>
					<g>
						<path class="st3" d="M98.1,115c-0.1,0-0.1,0-0.2,0c-0.4-0.2-0.6-0.7-0.4-1.3c0.1-0.3,0.3-0.6,0.6-0.7c0.2-0.1,0.3-0.1,0.5,0
							c0.4,0.2,0.6,0.7,0.4,1.3l0,0c-0.1,0.3-0.3,0.6-0.6,0.7C98.3,115,98.2,115,98.1,115z M98.3,113.2c0,0-0.1,0-0.2,0
							c-0.2,0.1-0.3,0.3-0.4,0.5c-0.1,0.4,0,0.8,0.2,0.9c0.1,0,0.2,0,0.3,0c0.2-0.1,0.3-0.3,0.4-0.5c0.1-0.4,0-0.8-0.2-0.9
							C98.4,113.2,98.3,113.2,98.3,113.2z"/>
					</g>
				</g>
			</g>
		</g>
		<g>
			<g>
				<g>
					<g>
						<path class="st3" d="M94.7,115.1c-0.1,0-0.2,0-0.3-0.1c-0.2-0.1-0.5-0.4-0.6-0.7l0,0c-0.2-0.6,0-1.1,0.4-1.3
							c0.2-0.1,0.3-0.1,0.5,0c0.2,0.1,0.5,0.4,0.6,0.7c0.2,0.6,0,1.1-0.4,1.3C94.9,115.1,94.8,115.1,94.7,115.1z M94.5,113.3
							c0,0-0.1,0-0.1,0c-0.2,0.1-0.3,0.5-0.2,0.9l0,0c0.1,0.3,0.2,0.5,0.4,0.5c0.1,0,0.2,0,0.3,0c0.2-0.1,0.3-0.5,0.2-0.9
							c-0.1-0.3-0.2-0.5-0.4-0.5C94.6,113.3,94.5,113.3,94.5,113.3z"/>
					</g>
				</g>
			</g>
		</g>
		<g>
			<g>
				<g>
					<g>
						<path class="st3" d="M108.2,113.9l-0.2-0.5c0.1,0,8.6-2.8,16.3-0.7l-0.2,0.5C116.6,111.2,108.3,113.9,108.2,113.9z"/>
					</g>
				</g>
			</g>
		</g>
		<g>
			<g>
				<g>
					<g>
						
							<rect x="115.4" y="108.3" transform="matrix(2.829999e-02 -0.9996 0.9996 2.829999e-02 -3.302 228.2067)" class="st3" width="0.6" height="15"/>
					</g>
				</g>
			</g>
		</g>
		<g>
			<g>
				<g>
					<g>
						<path class="st3" d="M123.9,124c-6.1-5.4-15.6-6.4-15.7-6.4l0.1-0.6c0.1,0,9.8,1,16.1,6.6L123.9,124z"/>
					</g>
				</g>
			</g>
		</g>
		<g>
			<g>
				<g>
					<g>
						
							<rect x="101.1" y="92.4" transform="matrix(0.4883 -0.8727 0.8727 0.4883 -27.5622 138.4139)" class="st3" width="6.4" height="0.6"/>
					</g>
				</g>
			</g>
		</g>
		<g>
			<g>
				<g>
					<g>
						
							<rect x="98.4" y="86.1" transform="matrix(1 -8.499693e-03 8.499693e-03 1 -0.7519 0.8423)" class="st3" width="0.6" height="5.6"/>
					</g>
				</g>
			</g>
		</g>
		<g>
			<g>
				<g>
					<g>
						
							<rect x="101.2" y="84.8" transform="matrix(0.271 -0.9626 0.9626 0.271 -6.1891 161.9133)" class="st3" width="5.2" height="0.6"/>
					</g>
				</g>
			</g>
		</g>
		<g>
			<g>
				<g>
					<g>
						
							<rect x="104.9" y="127.1" transform="matrix(0.9031 -0.4295 0.4295 0.9031 -46.5399 57.9594)" class="st3" width="0.6" height="9.9"/>
					</g>
				</g>
			</g>
		</g>
		<g>
			<g>
				<g>
					<g>
						<path class="st4" d="M90.8,106.6c0,0-1,2.1-3.2,2.6c-1.9,0.5-3.9-0.7-4.4-2.7c-0.1-0.5-0.2-1.1-0.2-1.8c0,0,0.9-2.5,3.3-2.7
							c1.4-0.1,2.9,0.6,3.6,1.8C90.4,104.5,90.7,105.4,90.8,106.6z"/>
					</g>
				</g>
			</g>
			<g>
				<g>
					<g>
						<path class="st3" d="M86.8,109.4c-1.7,0-3.2-1.2-3.6-2.9c-0.1-0.5-0.2-1.1-0.2-1.8l0,0c0,0,0.9-2.6,3.4-2.8
							c1.5-0.1,3,0.6,3.8,1.9c0.5,0.8,0.8,1.7,0.8,2.8l0,0l0,0c0,0.1-1.1,2.1-3.3,2.7C87.4,109.4,87.1,109.4,86.8,109.4z
							 M83.2,104.8c0,0.6,0.1,1.2,0.2,1.7c0.5,1.9,2.3,3,4.2,2.5c1.9-0.5,2.9-2.2,3.1-2.5c-0.1-1-0.3-1.9-0.8-2.6
							c-0.8-1.2-2.1-1.9-3.5-1.8C84.2,102.4,83.3,104.6,83.2,104.8z"/>
					</g>
				</g>
			</g>
		</g>
		<g>
			<g>
				<g>
					<g>
						<path class="st3" d="M122.2,132.8c-6.9-5.7-15.4-9.5-15.4-9.5l0.2-0.5c0.1,0,8.6,3.9,15.6,9.6L122.2,132.8z"/>
					</g>
				</g>
			</g>
		</g>
		<g>
			<g>
				<g>
					<g>
						
							<rect x="125.1" y="101" transform="matrix(0.2495 -0.9684 0.9684 0.2495 -10.116 202.2187)" class="st3" width="0.6" height="13.2"/>
					</g>
				</g>
			</g>
		</g>
		<g>
			<g>
				<g>
					<g>
						
							<rect x="126.1" y="97.3" transform="matrix(0.1198 -0.9928 0.9928 0.1198 9.3035 215.9099)" class="st3" width="0.6" height="10.9"/>
					</g>
				</g>
			</g>
		</g>
		<g>
			<g>
				<g>
					<g>
						<path class="st3" d="M96.7,125.8h-1.1c-2.4,0-4.8-0.8-6.6-2.2c-1.6-1.3-2.5-2.8-2.5-4.4v-1.1h0.9v1.1c0,1.3,0.7,2.6,2.1,3.7
							c1.7,1.3,3.8,2.1,6.1,2.1h1.1C96.7,125,96.7,125.8,96.7,125.8z"/>
					</g>
				</g>
			</g>
		</g>
		<g>
			<g>
				<g>
					<g>
						<path class="st3" d="M86.8,108.8c-1.7,0-3.1-1.4-3.1-3.1s1.4-3.1,3.1-3.1c1.7,0,3.1,1.4,3.1,3.1
							C90,107.4,88.6,108.8,86.8,108.8z M86.8,103.4c-1.3,0-2.3,1-2.3,2.3c0,1.3,1,2.3,2.3,2.3c1.3,0,2.3-1,2.3-2.3
							C89.1,104.4,88.1,103.4,86.8,103.4z"/>
					</g>
				</g>
			</g>
		</g>
		<g>
			<g>
				<g>
					<g>
						
							<rect x="92.5" y="100.7" transform="matrix(0.9802 -0.198 0.198 0.9802 -18.6265 20.4253)" class="st3" width="0.6" height="5.4"/>
					</g>
				</g>
			</g>
		</g>
		<g>
			<g>
				<g>
					<g>
						<path class="st3" d="M90.5,101.9c0,0-0.6-1.9-2.2-2.7c-1-0.5-2.3-0.6-3.7-0.1l-0.2-0.5c1.6-0.5,3-0.4,4.1,0.2
							c1.9,1,2.5,3,2.5,3.1L90.5,101.9z"/>
					</g>
				</g>
			</g>
		</g>
		<g>
			<g>
				<g>
					<g>
						
							<rect x="89.7" y="68.3" transform="matrix(0.9504 -0.311 0.311 0.9504 -18.0468 31.5639)" class="st3" width="0.6" height="8.2"/>
					</g>
				</g>
			</g>
		</g>
		<g>
			<g>
				<g>
					<g>
						
							<rect x="86.7" y="66.3" transform="matrix(0.901 -0.4338 0.4338 0.901 -22.656 44.8841)" class="st3" width="0.6" height="11.6"/>
					</g>
				</g>
			</g>
		</g>
		<g>
			<g>
				<g>
					<g>
						
							<rect x="84.7" y="70.9" transform="matrix(0.8688 -0.4951 0.4951 0.8688 -25.8287 51.8558)" class="st3" width="0.6" height="7.6"/>
					</g>
				</g>
			</g>
		</g>
		<g>
			<g>
				<g>
					<g>
						
							<rect x="83.2" y="71.5" transform="matrix(0.8253 -0.5647 0.5647 0.8253 -28.5599 60.5019)" class="st3" width="0.6" height="9.8"/>
					</g>
				</g>
			</g>
		</g>
		<g>
			<g>
				<g>
					<g>
						
							<rect x="81.3" y="74" transform="matrix(0.7049 -0.7093 0.7093 0.7049 -31.2549 80.9183)" class="st3" width="0.6" height="8.1"/>
					</g>
				</g>
			</g>
		</g>
		<g>
			<g>
				<g>
					<g>
						<path class="st3" d="M80.6,105.1c-0.6,0-3-0.3-6-4.2l0.4-0.3c3.2,4.2,5.6,3.9,5.6,3.9l0.1,0.6C80.8,105,80.7,105.1,80.6,105.1
							z"/>
					</g>
				</g>
			</g>
		</g>
		<g>
			<g>
				<g>
					<g>
						<path class="st3" d="M82.3,102.2l-0.4-0.4c2.2-2.8,5.9-1.4,5.9-1.4l-0.2,0.5c0,0-0.8-0.3-1.9-0.3c0,0,0,0,0,0
							C84.2,100.7,83.1,101.2,82.3,102.2z"/>
					</g>
				</g>
			</g>
		</g>
		<g>
			<g>
				<g>
					<g>
						
							<rect x="72.8" y="83.7" transform="matrix(0.2696 -0.963 0.963 0.2696 -31.9437 135.0903)" class="st3" width="0.6" height="9.8"/>
					</g>
				</g>
			</g>
		</g>
		<g>
			<g>
				<g>
					<g>
						<rect x="66.1" y="92.6" class="st3" width="7.6" height="0.6"/>
					</g>
				</g>
			</g>
		</g>
		<g>
			<g>
				<g>
					<g>
						<path class="st5" d="M96.4,117"/>
					</g>
				</g>
			</g>
		</g>
		<g>
			<g>
				<g>
					<g>
						<path class="st3" d="M94.7,115c-0.1,0-0.2,0-0.3-0.1c-0.2-0.1-0.5-0.4-0.6-0.7l0,0c-0.2-0.6,0-1.1,0.4-1.3
							c0.2-0.1,0.3-0.1,0.5,0c0.2,0.1,0.5,0.4,0.6,0.7c0.2,0.6,0,1.1-0.4,1.3C94.8,115,94.8,115,94.7,115z M94.1,114.2
							c0.1,0.3,0.2,0.5,0.4,0.5c0.1,0,0.2,0,0.3,0c0.2-0.1,0.3-0.5,0.2-0.9c-0.1-0.3-0.2-0.5-0.4-0.5c-0.1,0-0.2,0-0.3,0
							C94.1,113.3,94,113.8,94.1,114.2L94.1,114.2z"/>
					</g>
				</g>
			</g>
		</g>
		<g>
			<g>
				<g>
					<g>
						<path class="st3" d="M94.6,115.1c-0.4,0-1-0.2-2-1.3l0.2-0.2c1.5,1.5,2,1.2,2,1.2l0.2,0.2C94.9,115,94.8,115.1,94.6,115.1z"/>
					</g>
				</g>
			</g>
		</g>
		<g>
			<g>
				<g>
					<g>
						<path class="st3" d="M98.1,115.1c-0.1,0-0.1,0-0.2,0c-0.4-0.2-0.6-0.7-0.4-1.3c0.1-0.3,0.3-0.6,0.6-0.7c0.2-0.1,0.3-0.1,0.5,0
							c0.4,0.2,0.6,0.7,0.4,1.3c-0.1,0.3-0.3,0.6-0.6,0.7C98.3,115,98.2,115.1,98.1,115.1z M98.3,113.2c0,0-0.1,0-0.2,0
							c-0.2,0.1-0.3,0.3-0.4,0.5c-0.1,0.4,0,0.8,0.2,0.9c0.1,0,0.2,0,0.3,0c0.2-0.1,0.3-0.3,0.4-0.5l0,0c0.1-0.4,0-0.8-0.2-0.9
							C98.4,113.3,98.3,113.2,98.3,113.2z"/>
					</g>
				</g>
			</g>
		</g>
		<g>
			<g>
				<g>
					<g>
						<path class="st3" d="M98.2,115.1c-0.2,0-0.4-0.1-0.4-0.1l0.2-0.2c0,0,0.6,0.4,2-1.2l0.2,0.2C99.2,114.9,98.6,115.1,98.2,115.1
							z"/>
					</g>
				</g>
			</g>
		</g>
		<g>
			<g>
				<g>
					<g>
						<path class="st5" d="M96.5,117"/>
					</g>
				</g>
			</g>
		</g>
		<g>
			<g>
				<g>
					<g>
						<path class="st3" d="M98.2,115c-0.1,0-0.1,0-0.2,0c-0.4-0.2-0.6-0.7-0.4-1.3c0.1-0.3,0.3-0.6,0.6-0.7c0.2-0.1,0.3-0.1,0.5,0
							c0.4,0.2,0.6,0.7,0.4,1.3c-0.1,0.3-0.3,0.6-0.6,0.7C98.4,115,98.3,115,98.2,115z M98.4,113.2c0,0-0.1,0-0.2,0
							c-0.2,0.1-0.3,0.3-0.4,0.5c-0.1,0.4,0,0.8,0.2,0.9c0.1,0,0.2,0,0.3,0c0.2-0.1,0.3-0.3,0.4-0.5l0,0c0.1-0.4,0-0.8-0.2-0.9
							C98.5,113.2,98.5,113.2,98.4,113.2z"/>
					</g>
				</g>
			</g>
		</g>
		<g>
			<g>
				<g>
					<g>
						<path class="st3" d="M98.2,115.1C98.2,115.1,98.2,115.1,98.2,115.1c-0.2,0-0.3-0.1-0.3-0.1l0.1-0.1l0.1-0.1
							c0,0,0.4,0.2,1.7-1.2l0.2,0.2C99.3,114.6,98.6,115.1,98.2,115.1z"/>
					</g>
				</g>
			</g>
		</g>
		<g>
			<g>
				<g>
					<g>
						<path class="st3" d="M94.8,115.1c-0.1,0-0.2,0-0.3-0.1c-0.2-0.1-0.5-0.4-0.6-0.7l0,0c-0.2-0.6,0-1.1,0.4-1.3
							c0.2-0.1,0.3-0.1,0.5,0c0.2,0.1,0.5,0.4,0.6,0.7c0.2,0.6,0,1.1-0.4,1.3C95,115.1,94.9,115.1,94.8,115.1z M94.3,114.2
							c0.1,0.3,0.2,0.5,0.4,0.5c0.1,0,0.2,0,0.3,0c0.2-0.1,0.3-0.5,0.2-0.9c-0.1-0.3-0.2-0.5-0.4-0.5c-0.1,0-0.2,0-0.3,0
							C94.3,113.4,94.2,113.8,94.3,114.2L94.3,114.2z"/>
					</g>
				</g>
			</g>
		</g>
		<g>
			<g>
				<g>
					<g>
						<path class="st3" d="M94.8,115.1c-0.4,0-1.2-0.2-2.5-1.5l0.2-0.2c1.5,1.6,2.4,1.4,2.4,1.4L95,115C95,115,95,115.1,94.8,115.1z
							"/>
					</g>
				</g>
			</g>
		</g>
		<g>
			<g>
				<g>
					<g>
						<path class="st5" d="M96.4,117"/>
					</g>
				</g>
			</g>
		</g>
		<g>
			<g>
				<g>
					<g>
						<path class="st3" d="M98.1,115c-0.1,0-0.1,0-0.2,0c-0.4-0.2-0.6-0.7-0.4-1.3c0.1-0.3,0.3-0.6,0.6-0.7c0.2-0.1,0.3-0.1,0.5,0
							c0.4,0.2,0.6,0.7,0.4,1.3l0,0c-0.1,0.3-0.3,0.6-0.6,0.7C98.3,115,98.2,115,98.1,115z M98.3,113.2c0,0-0.1,0-0.2,0
							c-0.2,0.1-0.3,0.3-0.4,0.5c-0.1,0.4,0,0.8,0.2,0.9c0.1,0,0.2,0,0.3,0c0.2-0.1,0.3-0.3,0.4-0.5l0,0c0.1-0.4,0-0.8-0.2-0.9
							C98.4,113.2,98.3,113.2,98.3,113.2z"/>
					</g>
				</g>
			</g>
		</g>
		<g>
			<g>
				<g>
					<g>
						<path class="st3" d="M94.7,115.1c-0.1,0-0.2,0-0.3-0.1c-0.2-0.1-0.5-0.4-0.6-0.7l0,0c-0.2-0.6,0-1.1,0.4-1.3
							c0.2-0.1,0.3-0.1,0.5,0c0.2,0.1,0.5,0.4,0.6,0.7c0.2,0.6,0,1.1-0.4,1.3C94.8,115,94.8,115.1,94.7,115.1z M94.5,113.2
							c0,0-0.1,0-0.1,0c-0.2,0.1-0.3,0.5-0.2,0.9l0,0c0.1,0.3,0.2,0.5,0.4,0.5c0.1,0,0.2,0,0.3,0c0.2-0.1,0.3-0.5,0.2-0.9
							c-0.1-0.3-0.2-0.5-0.4-0.5C94.6,113.3,94.5,113.2,94.5,113.2z"/>
					</g>
				</g>
			</g>
		</g>
		<g>
			<g>
				<g>
					<g>
						<path class="st5" d="M96.2,117"/>
					</g>
				</g>
			</g>
		</g>
		<g>
			<g>
				<g>
					<g>
						<path class="st3" d="M84.2,113.9c-0.1,0-8.4-2.8-15.9-0.7l-0.2-0.5c7.7-2.1,16.2,0.7,16.3,0.7L84.2,113.9z"/>
					</g>
				</g>
			</g>
		</g>
		<g>
			<g>
				<g>
					<g>
						
							<rect x="69.1" y="115.5" transform="matrix(0.9996 -2.829999e-02 2.829999e-02 0.9996 -3.2464 2.2149)" class="st3" width="15" height="0.6"/>
					</g>
				</g>
			</g>
		</g>
		<g>
			<g>
				<g>
					<g>
						<path class="st3" d="M68.4,124l-0.4-0.4c6.2-5.6,16-6.6,16.1-6.6l0.1,0.6C84.1,117.6,74.5,118.5,68.4,124z"/>
					</g>
				</g>
			</g>
		</g>
		<g>
			<g>
				<g>
					<g>
						
							<rect x="88.1" y="89.5" transform="matrix(0.8727 -0.4882 0.4882 0.8727 -34.0111 54.9547)" class="st3" width="0.6" height="6.4"/>
					</g>
				</g>
			</g>
		</g>
		<g>
			<g>
				<g>
					<g>
						
							<rect x="91.1" y="88.6" transform="matrix(8.299714e-03 -1 1 8.299714e-03 4.2752 182.0506)" class="st3" width="5.6" height="0.6"/>
					</g>
				</g>
			</g>
		</g>
		<g>
			<g>
				<g>
					<g>
						
							<rect x="88.5" y="82.4" transform="matrix(0.9625 -0.2712 0.2712 0.9625 -19.7349 27.2792)" class="st3" width="0.6" height="5.2"/>
					</g>
				</g>
			</g>
		</g>
		<g>
			<g>
				<g>
					<g>
						
							<rect x="82.3" y="132.2" transform="matrix(0.4297 -0.903 0.903 0.4297 -69.8434 154.3912)" class="st3" width="9.9" height="0.6"/>
					</g>
				</g>
			</g>
		</g>
		<g>
			<g>
				<g>
					<g>
						<path class="st3" d="M70.4,132.8l-0.4-0.4c6.9-5.7,15.5-9.6,15.6-9.6l0.2,0.5C85.8,123.3,77.3,127.1,70.4,132.8z"/>
					</g>
				</g>
			</g>
		</g>
		<g>
			<g>
				<g>
					<g>
						<path class="st4" d="M92.8,121.4c0,0.7,0.5,1.2,0.9,1.6c0.6,0.4,1.2,0.6,1.8,0.6h0.4h0.3h0.8c0.6,0,1.3-0.2,1.8-0.6
							c0.5-0.3,0.9-0.8,0.9-1.6H92.8z"/>
					</g>
				</g>
			</g>
			<g>
				<g>
					<g>
						<path class="st3" d="M97.1,123.8h-1.5c-0.7,0-1.4-0.2-2-0.6c-0.7-0.5-1.1-1.1-1.1-1.8v-0.3h7.6v0.3c0,0.7-0.4,1.3-1.1,1.8
							C98.4,123.6,97.8,123.8,97.1,123.8z M93.1,121.7c0.1,0.4,0.4,0.7,0.8,1c0.5,0.3,1.1,0.5,1.7,0.5h1.5c0.6,0,1.2-0.2,1.7-0.5
							c0.4-0.3,0.7-0.7,0.8-1H93.1z"/>
					</g>
				</g>
			</g>
		</g>
		<g>
			<g>
				<g>
					<g>
						
							<rect x="60.6" y="107.4" transform="matrix(0.9684 -0.2495 0.2495 0.9684 -24.7298 20.1796)" class="st3" width="13.2" height="0.6"/>
					</g>
				</g>
			</g>
		</g>
		<g>
			<g>
				<g>
					<g>
						
							<rect x="60.8" y="102.4" transform="matrix(0.9928 -0.1196 0.1196 0.9928 -11.8084 8.6572)" class="st3" width="10.9" height="0.6"/>
					</g>
				</g>
			</g>
		</g>
		<g>
			<g>
				<g>
					<g>
						<path class="st3" d="M98.2,121.6c-0.5,0-1,0-1.3,0c-0.5,0-0.9,0-1.4,0c-1.4,0.1-4,0.1-6.1-0.6c-2.2-0.7-3.5-3-2.9-5.3l0.8-2.7
							l0.8,0.2l-0.8,2.7c-0.5,1.8,0.5,3.7,2.3,4.2c2,0.6,4.5,0.6,5.9,0.5c0.5,0,1,0,1.5,0c1.4,0.1,4.9,0.1,7.1-0.9
							c1.2-0.6,1.8-2,1.4-3.3l-1-3.4l0.8-0.2l1,3.4c0.5,1.7-0.3,3.6-1.9,4.3C102.6,121.4,100,121.6,98.2,121.6z"/>
					</g>
				</g>
			</g>
		</g>
		<g>
			<g>
				<g>
					<g>
						<rect x="96.1" y="78" class="st3" width="0.6" height="6.1"/>
					</g>
				</g>
			</g>
		</g>
		<g>
			<g>
				<g>
					<g>
						
							<rect x="104.9" y="88.6" transform="matrix(0.4579 -0.889 0.889 0.4579 -18.5327 147.379)" class="st3" width="13.4" height="0.6"/>
					</g>
				</g>
			</g>
		</g>
		<g>
			<g>
				<g>
					<g>
						
							<rect x="80.8" y="84.2" transform="matrix(0.8581 -0.5134 0.5134 0.8581 -34.8415 54.4512)" class="st3" width="0.6" height="12.2"/>
					</g>
				</g>
			</g>
		</g>
		<g>
			<g>
				<g>
					<g>
						<circle class="st3" cx="88.8" cy="115.8" r="0.4"/>
					</g>
				</g>
			</g>
		</g>
		<g>
			<g>
				<g>
					<g>
						<circle class="st3" cx="90" cy="118.4" r="0.4"/>
					</g>
				</g>
			</g>
		</g>
		<g>
			<g>
				<g>
					<g>
						<circle class="st3" cx="90.4" cy="114.2" r="0.4"/>
					</g>
				</g>
			</g>
		</g>
		<g>
			<g>
				<g>
					<g>
						<circle class="st3" cx="91.5" cy="116.7" r="0.4"/>
					</g>
				</g>
			</g>
		</g>
		<g>
			<g>
				<g>
					<g>
						<circle class="st3" cx="104.1" cy="115.7" r="0.4"/>
					</g>
				</g>
			</g>
		</g>
		<g>
			<g>
				<g>
					<g>
						<circle class="st3" cx="102.9" cy="118.4" r="0.4"/>
					</g>
				</g>
			</g>
		</g>
		<g>
			<g>
				<g>
					<g>
						<circle class="st3" cx="102.5" cy="114.1" r="0.4"/>
					</g>
				</g>
			</g>
		</g>
		<g>
			<g>
				<g>
					<g>
						<circle class="st3" cx="101.5" cy="116.6" r="0.4"/>
					</g>
				</g>
			</g>
		</g>
	</g>
	<g>
		<rect x="37.7" y="171.9" class="st0" width="128.5" height="22.5"/>
		<path class="st1" d="M166.7,194.9H37.2v-23.5h129.5V194.9z M38.2,193.9h127.5v-21.5H38.2V193.9z"/>
	</g>
	<g>
		<rect x="37.4" y="206" class="st0" width="128" height="100.1"/>
		<path class="st1" d="M166,306.6h-129V205.5h129V306.6z M37.9,305.6h127v-99.1h-127V305.6z"/>
	</g>
	<g>
		<rect x="37.4" y="342.5" class="st0" width="128" height="8.2"/>
		<path class="st1" d="M166,351.2h-129V342h129V351.2z M37.9,350.2h127V343h-127V350.2z"/>
	</g>
	<g>
		<rect x="37.4" y="362.2" class="st0" width="128" height="8.2"/>
		<path class="st1" d="M166,370.8h-129v-9.2h129V370.8z M37.9,369.8h127v-7.2h-127V369.8z"/>
	</g>
	<g>
		<rect x="37.4" y="381.8" class="st0" width="128" height="8.2"/>
		<path class="st1" d="M166,390.4h-129v-9.2h129V390.4z M37.9,389.4h127v-7.2h-127V389.4z"/>
	</g>
	<g>
		<rect x="37.4" y="401.4" class="st0" width="128" height="8.2"/>
		<path class="st1" d="M166,410.1h-129v-9.2h129V410.1z M37.9,409.1h127v-7.2h-127V409.1z"/>
	</g>
	<g>
		<rect x="200.6" y="105.4" class="st0" width="46.9" height="19.6"/>
		<path class="st1" d="M248,125.5h-47.9v-20.6H248V125.5z M201.1,124.5H247v-18.6h-45.9V124.5z"/>
	</g>
	<g>
		<rect x="253.3" y="105.4" class="st0" width="46.9" height="19.6"/>
		<path class="st1" d="M300.6,125.5h-47.9v-20.6h47.9V125.5z M253.8,124.5h45.9v-18.6h-45.9V124.5z"/>
	</g>
	<g>
		<rect x="305.6" y="105.4" class="st0" width="46.9" height="19.6"/>
		<path class="st1" d="M353,125.5h-47.9v-20.6H353V125.5z M306.1,124.5H352v-18.6h-45.9V124.5z"/>
	</g>
	<g>
		<rect x="358.2" y="105.4" class="st0" width="46.9" height="19.6"/>
		<path class="st1" d="M405.6,125.5h-47.9v-20.6h47.9V125.5z M358.8,124.5h45.9v-18.6h-45.9V124.5z"/>
	</g>
	<g>
		<rect x="459.3" y="104.6" class="st0" width="177.6" height="8.8"/>
		<path class="st1" d="M637.4,113.9H458.8v-9.8h178.6V113.9z M459.8,112.9h176.6v-7.8H459.8V112.9z"/>
	</g>
	<g>
		<rect x="459.3" y="127.8" class="st0" width="177.6" height="8.8"/>
		<path class="st1" d="M637.4,137.1H458.8v-9.8h178.6V137.1z M459.8,136.1h176.6v-7.8H459.8V136.1z"/>
	</g>
	<g>
		<rect x="459.3" y="148.2" class="st0" width="177.6" height="8.8"/>
		<path class="st1" d="M637.4,157.6H458.8v-9.8h178.6V157.6z M459.8,156.6h176.6v-7.8H459.8V156.6z"/>
	</g>
	<g>
		<rect x="459.3" y="168.6" class="st0" width="177.6" height="8.8"/>
		<path class="st1" d="M637.4,177.9H458.8v-9.8h178.6V177.9z M459.8,176.9h176.6v-7.8H459.8V176.9z"/>
	</g>
	<g>
		<rect x="459.3" y="191.8" class="st0" width="177.6" height="8.8"/>
		<path class="st1" d="M637.4,201.2H458.8v-9.8h178.6V201.2z M459.8,200.2h176.6v-7.8H459.8V200.2z"/>
	</g>
	<g>
		<rect x="459.3" y="212.3" class="st0" width="177.6" height="8.8"/>
		<path class="st1" d="M637.4,221.6H458.8v-9.8h178.6V221.6z M459.8,220.6h176.6v-7.8H459.8V220.6z"/>
	</g>
	<g>
		<rect x="200.6" y="174" class="st1" width="94.8" height="1"/>
	</g>
	<g>
		<rect x="200.6" y="189.4" class="st1" width="94.8" height="1"/>
	</g>
	<g>
		<rect x="200.1" y="205.5" class="st1" width="94.8" height="1"/>
	</g>
	<g>
		<rect x="308.2" y="173.9" class="st1" width="94.8" height="1"/>
	</g>
	<g>
		<rect x="308.2" y="189.3" class="st1" width="94.8" height="1"/>
	</g>
	<g>
		<rect x="307.6" y="205.4" class="st1" width="94.8" height="1"/>
	</g>
	<g>
		<rect x="212.2" y="253.1" class="st1" width="189.5" height="1"/>
	</g>
	<g>
		<rect x="212.2" y="268.5" class="st1" width="189.5" height="1"/>
	</g>
	<g>
		<rect x="212.2" y="284.2" class="st1" width="189.5" height="1"/>
	</g>
	<g>
		<rect x="212.2" y="301.2" class="st1" width="189.5" height="1"/>
	</g>
	<g>
		<rect x="212.2" y="343.7" class="st1" width="189.5" height="1"/>
	</g>
	<g>
		<rect x="212.2" y="359" class="st1" width="189.5" height="1"/>
	</g>
	<g>
		<rect x="212.2" y="374.9" class="st1" width="189.5" height="1"/>
	</g>
	<g>
		<rect x="212.2" y="391.7" class="st1" width="189.5" height="1"/>
	</g>
	<g>
		<circle class="st0" cx="204.1" cy="344.2" r="4"/>
		<path class="st1" d="M204.1,348.7c-2.5,0-4.5-2-4.5-4.5s2-4.5,4.5-4.5s4.5,2,4.5,4.5S206.5,348.7,204.1,348.7z M204.1,340.7
			c-1.9,0-3.5,1.6-3.5,3.5c0,1.9,1.6,3.5,3.5,3.5s3.5-1.6,3.5-3.5C207.6,342.2,206,340.7,204.1,340.7z"/>
	</g>
	<g>
		<circle class="st0" cx="204.1" cy="359.4" r="4"/>
		<path class="st1" d="M204.1,363.9c-2.5,0-4.5-2-4.5-4.5s2-4.5,4.5-4.5s4.5,2,4.5,4.5S206.5,363.9,204.1,363.9z M204.1,355.9
			c-1.9,0-3.5,1.6-3.5,3.5c0,1.9,1.6,3.5,3.5,3.5s3.5-1.6,3.5-3.5C207.6,357.4,206,355.9,204.1,355.9z"/>
	</g>
	<g>
		<circle class="st0" cx="204.1" cy="376.1" r="4"/>
		<path class="st1" d="M204.1,380.6c-2.5,0-4.5-2-4.5-4.5s2-4.5,4.5-4.5s4.5,2,4.5,4.5S206.5,380.6,204.1,380.6z M204.1,372.5
			c-1.9,0-3.5,1.6-3.5,3.5s1.6,3.5,3.5,3.5s3.5-1.6,3.5-3.5S206,372.5,204.1,372.5z"/>
	</g>
	<g>
		<circle class="st0" cx="204.1" cy="391.3" r="4"/>
		<path class="st1" d="M204.1,395.8c-2.5,0-4.5-2-4.5-4.5s2-4.5,4.5-4.5s4.5,2,4.5,4.5S206.5,395.8,204.1,395.8z M204.1,387.8
			c-1.9,0-3.5,1.6-3.5,3.5s1.6,3.5,3.5,3.5s3.5-1.6,3.5-3.5S206,387.8,204.1,387.8z"/>
	</g>
	<g>
		<circle class="st0" cx="204.1" cy="300.8" r="4"/>
		<path class="st1" d="M204.1,305.3c-2.5,0-4.5-2-4.5-4.5s2-4.5,4.5-4.5s4.5,2,4.5,4.5S206.5,305.3,204.1,305.3z M204.1,297.3
			c-1.9,0-3.5,1.6-3.5,3.5c0,1.9,1.6,3.5,3.5,3.5s3.5-1.6,3.5-3.5C207.6,298.9,206,297.3,204.1,297.3z"/>
	</g>
	<g>
		<circle class="st0" cx="204.1" cy="285.6" r="4"/>
		<path class="st1" d="M204.1,290.1c-2.5,0-4.5-2-4.5-4.5s2-4.5,4.5-4.5s4.5,2,4.5,4.5S206.5,290.1,204.1,290.1z M204.1,282.1
			c-1.9,0-3.5,1.6-3.5,3.5s1.6,3.5,3.5,3.5s3.5-1.6,3.5-3.5S206,282.1,204.1,282.1z"/>
	</g>
	<g>
		<circle class="st0" cx="204.1" cy="269" r="4"/>
		<path class="st1" d="M204.1,273.5c-2.5,0-4.5-2-4.5-4.5s2-4.5,4.5-4.5s4.5,2,4.5,4.5S206.5,273.5,204.1,273.5z M204.1,265.4
			c-1.9,0-3.5,1.6-3.5,3.5c0,1.9,1.6,3.5,3.5,3.5s3.5-1.6,3.5-3.5C207.6,267,206,265.4,204.1,265.4z"/>
	</g>
	<g>
		<circle class="st0" cx="204.1" cy="253.7" r="4"/>
		<path class="st1" d="M204.1,258.3c-2.5,0-4.5-2-4.5-4.5c0-2.5,2-4.5,4.5-4.5s4.5,2,4.5,4.5C208.6,256.2,206.5,258.3,204.1,258.3z
			 M204.1,250.2c-1.9,0-3.5,1.6-3.5,3.5c0,1.9,1.6,3.5,3.5,3.5s3.5-1.6,3.5-3.5C207.6,251.8,206,250.2,204.1,250.2z"/>
	</g>
	<g>
		<circle class="st0" cx="476.5" cy="283" r="19.5"/>
		<path class="st1" d="M476.5,303c-11,0-20-9-20-20s9-20,20-20s20,9,20,20S487.5,303,476.5,303z M476.5,264c-10.5,0-19,8.5-19,19
			s8.5,19,19,19s19-8.5,19-19S487,264,476.5,264z"/>
	</g>
	<g>
		<circle class="st0" cx="522.2" cy="283" r="19.5"/>
		<path class="st1" d="M522.2,303c-11,0-20-9-20-20s9-20,20-20s20,9,20,20S533.2,303,522.2,303z M522.2,264c-10.5,0-19,8.5-19,19
			s8.5,19,19,19s19-8.5,19-19S532.7,264,522.2,264z"/>
	</g>
	<g>
		<circle class="st0" cx="567.7" cy="283" r="19.5"/>
		<path class="st1" d="M567.7,303.1c-11,0-20-9-20-20c0-11,9-20,20-20s20,9,20,20C587.7,294.1,578.8,303.1,567.7,303.1z M567.7,264
			c-10.5,0-19,8.5-19,19c0,10.5,8.5,19,19,19s19-8.5,19-19C586.7,272.5,578.2,264,567.7,264z"/>
	</g>
	<g>
		<rect x="459" y="339" class="st0" width="179.1" height="10.3"/>
		<path class="st1" d="M638.6,349.8H458.5v-11.3h180.1V349.8z M459.5,348.8h178.1v-9.3H459.5V348.8z"/>
	</g>
	<g>
		<rect x="459" y="362.2" class="st0" width="179.1" height="10.3"/>
		<path class="st1" d="M638.6,373.1H458.5v-11.3h180.1V373.1z M459.5,372.1h178.1v-9.3H459.5V372.1z"/>
	</g>
	<g>
		<rect x="459" y="382.7" class="st0" width="179.1" height="10.3"/>
		<path class="st1" d="M638.6,393.5H458.5v-11.3h180.1V393.5z M459.5,392.5h178.1v-9.3H459.5V392.5z"/>
	</g>
	<g>
		<rect x="7" y="38" class="st1" width="651.4" height="1"/>
	</g>
	<g>
		<path class="st1" d="M645.5,441.2H20c-7.8,0-14.2-6.4-14.2-14.2V21.3c0-7.8,6.4-14.2,14.2-14.2h625.6c7.8,0,14.2,6.4,14.2,14.2
			V427C659.7,434.9,653.3,441.2,645.5,441.2z M20,8.1C12.7,8.1,6.8,14,6.8,21.3V427c0,7.3,5.9,13.2,13.2,13.2h625.6
			c7.3,0,13.2-5.9,13.2-13.2V21.3c0-7.3-5.9-13.2-13.2-13.2H20z"/>
	</g>
</g>
</svg>
