<?xml version="1.0" encoding="utf-8"?>
<!-- Generator: Adobe Illustrator 21.1.0, SVG Export Plug-In . SVG Version: 6.00 Build 0)  -->
<svg version="1.1" id="Layer_1" xmlns="http://www.w3.org/2000/svg" xmlns:xlink="http://www.w3.org/1999/xlink" x="0px" y="0px"
	 viewBox="0 0 362 398" style="enable-background:new 0 0 362 398;" xml:space="preserve">
<style type="text/css">
	.st0{fill:#B3D5BB;}
	.st1{fill:#333333;}
	.st2{fill:#FFFFFF;}
</style>
<g id="Layer_1_1_">
</g>
<g>
	<g>
		<polyline class="st0" points="196.945,45.276 261.29,45.276 261.29,361.353 19.584,361.353 19.584,45.276 87.323,45.276 		"/>
		<polygon class="st1" points="262.79,362.853 18.084,362.853 18.084,43.776 87.323,43.776 87.323,46.776 21.084,46.776 
			21.084,359.853 259.79,359.853 259.79,46.776 196.945,46.776 196.945,43.776 262.79,43.776 		"/>
	</g>
	<g>
		<polyline class="st2" points="199.236,58.38 237.732,58.38 237.732,336.34 40.959,336.34 40.959,58.38 84.496,58.38 		"/>
		<polygon class="st1" points="239.232,337.84 39.459,337.84 39.459,56.88 84.497,56.88 84.497,59.88 42.459,59.88 42.459,334.84 
			236.232,334.84 236.232,59.88 199.236,59.88 199.236,56.88 239.232,56.88 		"/>
	</g>
	<g>
		<rect x="140.344" y="160.482" class="st1" width="75.394" height="3"/>
	</g>
	<g>
		<rect x="68.53" y="195.344" class="st1" width="147.207" height="3"/>
	</g>
	<g>
		<rect x="68.53" y="224.646" class="st1" width="147.207" height="3"/>
	</g>
	<g>
		<rect x="68.53" y="254.878" class="st1" width="147.207" height="3"/>
	</g>
	<g>
		<rect x="68.53" y="284.18" class="st1" width="147.207" height="3"/>
	</g>
	<g>
		<path class="st0" d="M199.772,68.052H84.496v-5.777c0-21.967,17.808-39.775,39.775-39.775h35.724
			c21.967,0,39.775,17.808,39.775,39.775V68.052z"/>
		<path class="st1" d="M201.272,69.552H82.997v-7.277C82.997,39.516,101.513,21,124.272,21h35.724
			c22.76,0,41.275,18.516,41.275,41.275V69.552z M85.997,66.552h112.275v-4.277c0-21.105-17.17-38.275-38.275-38.275h-35.724
			c-21.105,0-38.275,17.17-38.275,38.275V66.552z"/>
	</g>
	<g>
		<g>
			<path class="st1" d="M306.728,333.269c-1.59,0-3.033-0.875-3.767-2.284l-13.943-26.761V97.936h35.419v206.288l-13.943,26.761
				C309.76,332.394,308.316,333.269,306.728,333.269z M292.018,303.489l13.604,26.108c0.315,0.606,0.879,0.671,1.106,0.671
				c0.227,0,0.79-0.064,1.105-0.671l13.604-26.108V100.936h-29.419V303.489z"/>
		</g>
		<g>
			<rect x="290.518" y="170.114" class="st1" width="32.981" height="3"/>
		</g>
		<g>
			<polygon class="st1" points="336.594,171.614 333.594,171.614 333.594,100.936 322.937,100.936 322.937,97.936 336.594,97.936 
							"/>
		</g>
		<g>
			<path class="st1" d="M318.133,100.936h-23.262V85.328h23.262V100.936z M297.871,97.936h17.262v-9.608h-17.262V97.936z"/>
		</g>
		<g>
			<rect x="304.962" y="330.291" class="st1" width="3" height="10.037"/>
		</g>
	</g>
	<g>
		<path class="st1" d="M123.844,163.482h-57v-57h57V163.482z M69.844,160.482h51v-51h-51V160.482z"/>
	</g>
	<g>
		<polygon class="st1" points="95.692,152.018 76.512,139.23 78.176,136.734 94.995,147.947 112.144,125.083 114.544,126.882 		"/>
	</g>
</g>
</svg>
