<?xml version="1.0" encoding="utf-8"?>
<!-- Generator: Adobe Illustrator 21.1.0, SVG Export Plug-In . SVG Version: 6.00 Build 0)  -->
<svg version="1.1" xmlns="http://www.w3.org/2000/svg" xmlns:xlink="http://www.w3.org/1999/xlink" x="0px" y="0px"
	 viewBox="0 0 62.5 58.5" style="enable-background:new 0 0 62.5 58.5;" xml:space="preserve">
<style type="text/css">
	.st0{fill:#333333;}
</style>
<g id="Layer_1">
</g>
<g id="Layer_3">
	<g>
		<g>
			<path class="st0" d="M32,57C16.9,57,4.6,44.7,4.6,29.6h1.5c0,14.3,11.6,26,26,26s26-11.6,26-26c0-14.3-11.6-26-26-26V2.1
				c15.1,0,27.5,12.3,27.5,27.5C59.5,44.7,47.2,57,32,57z"/>
		</g>
		<g>
			<path class="st0" d="M19.8,46.3c-9.2-6.8-11.1-19.9-4.3-29.1C22.3,8,35.4,6.1,44.6,12.9c4.5,3.3,7.4,8.2,8.2,13.7
				c0.8,5.5-0.6,11-3.9,15.4l-1.2-0.9c3.1-4.1,4.4-9.2,3.6-14.3c-0.7-5.1-3.4-9.6-7.6-12.7c-8.5-6.3-20.6-4.6-27,4
				c-6.3,8.5-4.6,20.6,4,27L19.8,46.3z"/>
		</g>
		<g>
			<path class="st0" d="M32,43.7c-7.8,0-14.1-6.3-14.1-14.1c0-7.8,6.3-14.1,14.1-14.1V17c-7,0-12.6,5.7-12.6,12.6
				c0,7,5.7,12.6,12.6,12.6s12.6-5.7,12.6-12.6h1.5C46.1,37.4,39.8,43.7,32,43.7z"/>
		</g>
		<g>
			<path class="st0" d="M32.2,37v-1.5c3.3,0,5.9-2.7,5.9-5.9c0-3.3-2.7-5.9-5.9-5.9s-5.9,2.7-5.9,5.9h-1.5c0-4.1,3.3-7.4,7.4-7.4
				s7.4,3.3,7.4,7.4C39.6,33.7,36.3,37,32.2,37z"/>
		</g>
	</g>
</g>
</svg>
