<?xml version="1.0" encoding="utf-8"?>
<!-- Generator: Adobe Illustrator 21.1.0, SVG Export Plug-In . SVG Version: 6.00 Build 0)  -->
<svg version="1.1" id="Layer_1" xmlns="http://www.w3.org/2000/svg" xmlns:xlink="http://www.w3.org/1999/xlink" x="0px" y="0px"
	 viewBox="0 0 100 100" style="enable-background:new 0 0 100 100;" xml:space="preserve">
<style type="text/css">
	.st0{fill:#FFFFFF;}
	.st1{fill:#414B6B;}
</style>
<g>
	<g>
		<circle class="st0" cx="50.928" cy="71.187" r="10.465"/>
		<path class="st1" d="M50.928,82.651c-6.322,0-11.465-5.143-11.465-11.464s5.143-11.465,11.465-11.465
			c6.321,0,11.465,5.144,11.465,11.465S57.249,82.651,50.928,82.651z M50.928,61.723c-5.219,0-9.465,4.246-9.465,9.465
			s4.246,9.464,9.465,9.464s9.465-4.245,9.465-9.464S56.146,61.723,50.928,61.723z"/>
	</g>
	<g>
		<circle class="st1" cx="21.828" cy="29.669" r="10.465"/>
	</g>
	<g>
		<g>
			<path class="st1" d="M86.526,25.151c-0.252-0.573-0.55-1.119-0.895-1.631c-0.713-1.081-1.613-2.032-2.652-2.801
				c0-0.005,0-0.005-0.005-0.005c-0.326-0.242-0.662-0.471-1.016-0.671c-1.655-0.979-3.58-1.538-5.635-1.538
				c-2.065,0-4.004,0.564-5.663,1.552c0,0,0,0-0.005,0c-0.401,0.238-0.788,0.499-1.151,0.783c-0.974,0.746-1.813,1.655-2.489,2.68
				c0,0,0,0-0.005,0c-0.34,0.517-0.643,1.063-0.89,1.636c-0.62,1.38-0.96,2.909-0.96,4.512s0.34,3.132,0.96,4.512
				c0.247,0.573,0.55,1.123,0.895,1.641c0.676,1.025,1.52,1.93,2.489,2.68c0.364,0.284,0.75,0.545,1.151,0.783
				c0.005,0,0.005,0,0.005,0c1.659,0.983,3.598,1.547,5.663,1.547c2.056,0,3.981-0.559,5.635-1.534
				c0.35-0.205,0.69-0.429,1.016-0.671c1.039-0.774,1.939-1.72,2.657-2.806c0.345-0.517,0.643-1.063,0.895-1.636
				c0.62-1.384,0.96-2.909,0.96-4.517S87.146,26.531,86.526,25.151z M86.051,30.456c-0.047,0.657-0.163,1.296-0.345,1.911
				c-0.578,2.018-1.795,3.771-3.412,5.02c-0.382,0.298-0.788,0.569-1.212,0.806c-0.634,0.354-1.31,0.639-2.018,0.848
				c0,0,0,0-0.005,0c-0.303,0.089-0.611,0.168-0.928,0.224c-0.005,0-0.009,0-0.009,0c-0.583,0.112-1.184,0.168-1.799,0.168
				c-0.611,0-1.217-0.056-1.795-0.172c0,0-0.005,0-0.009,0c-0.322-0.056-0.634-0.131-0.942-0.224c-0.005,0-0.005,0-0.005,0
				c-0.769-0.219-1.492-0.536-2.167-0.937c-0.378-0.219-0.741-0.461-1.081-0.736c-1.603-1.245-2.811-2.988-3.384-4.997
				c-0.182-0.615-0.298-1.254-0.345-1.916c-0.028-0.256-0.037-0.517-0.037-0.783s0.009-0.527,0.037-0.783
				c0.047-0.657,0.163-1.296,0.345-1.911c0.573-2.009,1.776-3.752,3.384-5.001c0.34-0.275,0.704-0.517,1.081-0.736
				c0.676-0.401,1.408-0.718,2.177-0.942c0,0,0,0,0.005,0c0.303-0.089,0.606-0.163,0.923-0.219c0.587-0.117,1.193-0.172,1.813-0.172
				c0.62,0,1.221,0.056,1.809,0.172c0,0,0,0,0.005,0c0.312,0.056,0.615,0.131,0.918,0.219c0.005,0,0.005,0,0.005,0
				c0.713,0.205,1.389,0.494,2.023,0.848c0.424,0.238,0.83,0.508,1.212,0.806c1.622,1.254,2.834,3.006,3.412,5.025
				c0.182,0.611,0.298,1.249,0.345,1.906c0.028,0.261,0.037,0.522,0.037,0.788S86.079,30.195,86.051,30.456z"/>
		</g>
	</g>
	<g>
		<g>
			<g>
				<g>
					<path class="st1" d="M69.928,34.883c0,0.458-0.325,0.846-0.76,0.938c-0.339-0.508-0.636-1.048-0.878-1.611
						c0.174-0.174,0.416-0.284,0.682-0.284C69.498,33.926,69.928,34.356,69.928,34.883z"/>
				</g>
			</g>
		</g>
		<g>
			<g>
				<g>
					<circle class="st1" cx="68.971" cy="31.482" r="0.955"/>
				</g>
			</g>
		</g>
		<g>
			<g>
				<g>
					<circle class="st1" cx="68.971" cy="28.082" r="0.955"/>
				</g>
			</g>
		</g>
		<g>
			<g>
				<g>
					<path class="st1" d="M69.928,24.684c0,0.526-0.43,0.952-0.956,0.952c-0.265,0-0.508-0.11-0.682-0.284
						c0.242-0.563,0.54-1.098,0.874-1.606c0.005,0,0.005,0,0.005,0C69.603,23.837,69.928,24.222,69.928,24.684z"/>
				</g>
			</g>
		</g>
	</g>
	<g>
		<g>
			<g>
				<g>
					<path class="st1" d="M73.573,38.328c0,0.466-0.331,0.862-0.774,0.956c0,0,0,0-0.005,0c-0.401-0.238-0.788-0.499-1.151-0.783
						c-0.009-0.056-0.014-0.112-0.014-0.172c0-0.489,0.364-0.9,0.834-0.965c0.042-0.005,0.089-0.009,0.135-0.009
						c0.461,0,0.844,0.317,0.946,0.746C73.563,38.17,73.573,38.249,73.573,38.328z"/>
				</g>
			</g>
		</g>
		<g>
			<g>
				<g>
					<circle class="st1" cx="72.6" cy="34.865" r="0.973"/>
				</g>
			</g>
		</g>
		<g>
			<g>
				<g>
					<circle class="st1" cx="72.6" cy="31.401" r="0.973"/>
				</g>
			</g>
		</g>
		<g>
			<g>
				<g>
					<circle class="st1" cx="72.6" cy="27.937" r="0.973"/>
				</g>
			</g>
		</g>
		<g>
			<g>
				<g>
					<circle class="st1" cx="72.6" cy="24.473" r="0.973"/>
				</g>
			</g>
		</g>
		<g>
			<g>
				<g>
					<path class="st1" d="M73.573,21.008c0,0.079-0.009,0.158-0.028,0.228c-0.103,0.429-0.485,0.746-0.946,0.746
						c-0.047,0-0.093-0.005-0.135-0.009c-0.471-0.065-0.834-0.471-0.834-0.965c0-0.056,0.005-0.117,0.014-0.168
						c0.364-0.284,0.75-0.545,1.151-0.783c0.005,0,0.005,0,0.005,0C73.242,20.15,73.573,20.542,73.573,21.008z"/>
				</g>
			</g>
		</g>
	</g>
	<g>
		<g>
			<g>
				<g>
					<circle class="st1" cx="76.381" cy="38.328" r="0.973"/>
				</g>
			</g>
		</g>
		<g>
			<g>
				<g>
					<circle class="st1" cx="76.381" cy="34.865" r="0.973"/>
				</g>
			</g>
		</g>
		<g>
			<g>
				<g>
					<circle class="st1" cx="76.381" cy="31.401" r="0.973"/>
				</g>
			</g>
		</g>
		<g>
			<g>
				<g>
					<circle class="st1" cx="76.381" cy="27.937" r="0.973"/>
				</g>
			</g>
		</g>
		<g>
			<g>
				<g>
					<circle class="st1" cx="76.381" cy="24.473" r="0.973"/>
				</g>
			</g>
		</g>
		<g>
			<g>
				<g>
					<circle class="st1" cx="76.381" cy="21.01" r="0.973"/>
				</g>
			</g>
		</g>
	</g>
	<g>
		<g>
			<g>
				<g>
					<circle class="st1" cx="80.54" cy="38.328" r="0.973"/>
				</g>
			</g>
		</g>
		<g>
			<g>
				<g>
					<circle class="st1" cx="80.54" cy="34.865" r="0.973"/>
				</g>
			</g>
		</g>
		<g>
			<g>
				<g>
					<circle class="st1" cx="80.54" cy="31.401" r="0.973"/>
				</g>
			</g>
		</g>
		<g>
			<g>
				<g>
					<circle class="st1" cx="80.54" cy="27.937" r="0.973"/>
				</g>
			</g>
		</g>
		<g>
			<g>
				<g>
					<circle class="st1" cx="80.54" cy="24.473" r="0.973"/>
				</g>
			</g>
		</g>
		<g>
			<g>
				<g>
					<circle class="st1" cx="80.54" cy="21.01" r="0.973"/>
				</g>
			</g>
		</g>
	</g>
	<g>
		<g>
			<g>
				<g>
					<circle class="st1" cx="84.187" cy="34.865" r="0.973"/>
				</g>
			</g>
		</g>
		<g>
			<g>
				<g>
					<circle class="st1" cx="84.187" cy="31.401" r="0.973"/>
				</g>
			</g>
		</g>
		<g>
			<g>
				<g>
					<circle class="st1" cx="84.187" cy="27.937" r="0.973"/>
				</g>
			</g>
		</g>
		<g>
			<g>
				<g>
					<circle class="st1" cx="84.187" cy="24.473" r="0.973"/>
				</g>
			</g>
		</g>
	</g>
	<g>
		<rect x="42.689" y="25.172" class="st1" width="14.894" height="2"/>
	</g>
	<g>
		<rect x="42.689" y="32.164" class="st1" width="14.894" height="2"/>
	</g>
	<g>
		
			<rect x="37.857" y="41.938" transform="matrix(0.8574 -0.5146 0.5146 0.8574 -19.874 27.0381)" class="st1" width="2" height="14.894"/>
	</g>
	<g>
		
			<rect x="31.862" y="45.536" transform="matrix(0.8574 -0.5146 0.5146 0.8574 -22.5809 24.4667)" class="st1" width="2" height="14.894"/>
	</g>
	<g>
		
			<rect x="55.326" y="48.459" transform="matrix(0.5146 -0.8574 0.8574 0.5146 -11.9394 77.8276)" class="st1" width="14.894" height="2"/>
	</g>
	<g>
		
			<rect x="61.321" y="52.057" transform="matrix(0.5146 -0.8574 0.8574 0.5146 -12.1147 84.7137)" class="st1" width="14.893" height="2"/>
	</g>
</g>
</svg>
