<?xml version="1.0" encoding="utf-8"?>
<!-- Generator: Adobe Illustrator 21.1.0, SVG Export Plug-In . SVG Version: 6.00 Build 0)  -->
<svg version="1.1" xmlns="http://www.w3.org/2000/svg" xmlns:xlink="http://www.w3.org/1999/xlink" x="0px" y="0px"
	 viewBox="0 0 100 100" style="enable-background:new 0 0 100 100;" xml:space="preserve">
<style type="text/css">
	.st0{fill:#D5B08C;}
</style>
<g id="Layer_1">
</g>
<g id="Layer_3">
	<g>
		<g>
			<path class="st0" d="M36.5,15.4C36.5,15.4,36.4,15.4,36.5,15.4L36.5,15.4L36.5,15.4z"/>
		</g>
		<g>
			<path class="st0" d="M49.7,20.2c-4.5,0-8.2-3.7-8.2-8.2s3.7-8.2,8.2-8.2c4.5,0,8.2,3.7,8.2,8.2S54.2,20.2,49.7,20.2z M49.7,6.2
				c-3.2,0-5.8,2.6-5.8,5.8c0,3.2,2.6,5.8,5.8,5.8c3.2,0,5.8-2.6,5.8-5.8C55.5,8.8,52.9,6.2,49.7,6.2z"/>
		</g>
		<g>
			<path class="st0" d="M13.6,83.9c-4.5,0-8.2-3.7-8.2-8.2c0-4.5,3.7-8.2,8.2-8.2s8.2,3.7,8.2,8.2C21.8,80.2,18.1,83.9,13.6,83.9z
				 M13.6,69.8c-3.2,0-5.8,2.6-5.8,5.8c0,3.2,2.6,5.8,5.8,5.8c3.2,0,5.8-2.6,5.8-5.8C19.4,72.5,16.8,69.8,13.6,69.8z"/>
		</g>
		<g>
			<path class="st0" d="M86.1,83.9c-4.5,0-8.2-3.7-8.2-8.2c0-4.5,3.7-8.2,8.2-8.2s8.2,3.7,8.2,8.2C94.3,80.2,90.6,83.9,86.1,83.9z
				 M86.1,69.8c-3.2,0-5.8,2.6-5.8,5.8c0,3.2,2.6,5.8,5.8,5.8s5.8-2.6,5.8-5.8C91.9,72.5,89.3,69.8,86.1,69.8z"/>
		</g>
		<g>
			<path class="st0" d="M38.4,12.5l-1.9,2.8l-0.1,0.1L32.6,21l-2-1.3l1.8-2.7C18.1,23.6,8.8,38,8.8,54.1c0,2.8,0.3,5.6,0.8,8.3
				l-2.3,0.5C6.7,60,6.4,57,6.4,54.1c0-16.9,9.8-32.2,24.9-39.2h-3.1v-2.4H38.4z"/>
		</g>
		<g>
			<path class="st0" d="M96.4,58l-6,8.2l-3.5-9.7l2.2-0.8l1.1,3.1c0.2-1.6,0.3-3.2,0.3-4.8c0-8.5-2.7-16.7-7.9-23.8
				c-4.9-6.8-11.9-12-19.7-14.8l0.8-2.2c8.2,3,15.6,8.5,20.8,15.7c5.4,7.5,8.3,16.2,8.3,25.2c0,1.7-0.1,3.4-0.3,5l1.8-2.5L96.4,58z"
				/>
		</g>
		<g>
			<path class="st0" d="M49.7,97.3c-8.9,0-17.5-2.7-24.8-7.8l1,3l-2.3,0.8l-3.3-9.6l9.9,2.7l-0.6,2.3l-3-0.8
				c6.7,4.6,14.8,7.1,23,7.1c10.1,0,19.7-3.7,27.2-10.4l1.6,1.8C70.6,93.4,60.3,97.3,49.7,97.3z"/>
		</g>
	</g>
</g>
</svg>
