<?xml version="1.0" encoding="utf-8"?>
<!-- Generator: Adobe Illustrator 21.1.0, SVG Export Plug-In . SVG Version: 6.00 Build 0)  -->
<svg version="1.1" xmlns="http://www.w3.org/2000/svg" xmlns:xlink="http://www.w3.org/1999/xlink" x="0px" y="0px"
	 viewBox="0 0 125.707 91" style="enable-background:new 0 0 125.707 91;" xml:space="preserve">
<style type="text/css">
	.st0{fill:#E3EFF3;}
	.st1{fill:#555555;}
</style>
<g id="Layer_2">
</g>
<g id="Layer_3">
	<g>
		<g>
			<path class="st0" d="M5.124,20.384c0,0,1.071-7.501,22.057-6.943c0,0,18.234-1.275,15.693,11.725v29.968l-8.833,12.208
				l5.026,2.536c0,0-4.733,2.948-16.233,2.784c0,0-16.252,0.439-17.71-7.029V20.384z"/>
		</g>
		<g>
			<polygon class="st0" points="79.541,46.051 79.541,71.884 100.374,79.384 121.207,70.718 121.207,46.176 100.624,38.134 			"/>
		</g>
		<g>
			<rect x="4.374" y="20.384" class="st1" width="1.5" height="45.25"/>
		</g>
		<g>
			<rect x="42.124" y="20.384" class="st1" width="1.5" height="34.75"/>
		</g>
		<g>
			<path class="st1" d="M23.999,28.181c-11.005,0-19.625-3.425-19.625-7.797s8.62-7.797,19.625-7.797s19.625,3.425,19.625,7.797
				S35.004,28.181,23.999,28.181z M23.999,14.087c-10.682,0-18.125,3.318-18.125,6.297s7.443,6.297,18.125,6.297
				s18.125-3.318,18.125-6.297S34.681,14.087,23.999,14.087z"/>
		</g>
		<g>
			<path class="st1" d="M23.999,73.431c-11.005,0-19.625-3.425-19.625-7.797h1.5c0,2.979,7.443,6.297,18.125,6.297
				c5.774,0,11.282-1.019,14.735-2.724l0.664,1.345C35.694,72.382,30.082,73.431,23.999,73.431z"/>
		</g>
		<g>
			<path class="st1" d="M60.866,81.721L32.927,67.62l27.929-39.509l19.436,25.856v18.388L60.866,81.721z M35.155,67.065
				l25.727,12.982l17.909-8.635V54.468L60.893,30.657L35.155,67.065z"/>
		</g>
		<g>
			<rect x="60.124" y="29.384" class="st1" width="1.5" height="51.5"/>
		</g>
		<g>
			<polygon class="st1" points="100.394,80.188 79.287,72.59 79.795,71.179 100.354,78.58 120.457,70.217 120.457,46.688 
				100.619,38.938 80.291,46.571 80.291,54.218 78.791,54.218 78.791,45.532 100.629,37.331 121.957,45.664 121.957,71.218 			"/>
		</g>
		<g>
			<polygon class="st1" points="100.372,55.36 79.258,46.746 79.824,45.357 100.376,53.742 120.928,45.48 121.486,46.872 			"/>
		</g>
		<g>
			<rect x="99.624" y="54.551" class="st1" width="1.5" height="24.833"/>
		</g>
	</g>
</g>
</svg>
