<?xml version="1.0" encoding="utf-8"?>
<!-- Generator: Adobe Illustrator 21.1.0, SVG Export Plug-In . SVG Version: 6.00 Build 0)  -->
<svg version="1.1" xmlns="http://www.w3.org/2000/svg" xmlns:xlink="http://www.w3.org/1999/xlink" x="0px" y="0px"
	 viewBox="0 0 207 91" style="enable-background:new 0 0 207 91;" xml:space="preserve">
<style type="text/css">
	.st0{fill:#E3EFF3;}
	.st1{fill:#555555;}
	.st2{fill:#FFFFFF;}
</style>
<g id="Layer_2">
</g>
<g id="Layer_3">
	<g>
		<g>
			<path class="st0" d="M69.405,33.378l4.599-3.241c0,0,11.079,5.027,14.329,13.362l-11.906,6.295l-4.868-2.493
				c0,0-0.801-3.683,2.445-5.867c0,0,3.533-2.391-0.319-6.038L69.405,33.378z"/>
		</g>
		<g>
			<polygon class="st0" points="57.538,60.304 11.786,60.52 11.14,61.912 15.67,66.606 20.236,69.039 24.583,69.993 84.894,69.761 
							"/>
		</g>
		<g>
			<polygon class="st0" points="71.25,60.823 129.986,60.52 155.536,69.907 103.5,69.993 90.689,65.955 87.87,67.129 			"/>
		</g>
		<g>
			<polygon class="st0" points="141.583,60.823 194.634,60.52 195.474,61.878 192.061,66.475 187.527,69.172 179.667,69.907 
				172.492,69.358 163.333,66.25 160.231,67.718 			"/>
		</g>
		<g>
			<polygon class="st0" points="144.499,60.304 149.613,51.187 155.536,54.4 160.778,58.778 160.993,60.712 			"/>
		</g>
		<g>
			<polygon class="st0" points="72.372,59.711 77.784,50.885 84.416,54.584 89.543,58.833 89.167,60.417 72.372,60.817 			"/>
		</g>
		<g>
			<path class="st1" d="M25.838,70.743c-5.229,0-10.162-2.291-13.536-6.29l-1.735-2.058c-0.405-0.48-0.492-1.133-0.228-1.703
				c0.265-0.569,0.819-0.923,1.447-0.923h47.062v1.5H11.786c-0.019,0-0.061,0-0.087,0.056s0.002,0.089,0.014,0.103l1.735,2.057
				c3.088,3.66,7.604,5.757,12.39,5.757c0.011,0,0.021,0,0.031,0l59.142-0.108l0.002,1.5l-59.142,0.108
				C25.86,70.743,25.85,70.743,25.838,70.743z"/>
		</g>
		<g>
			<path class="st1" d="M89.828,60.778l-1.408-0.516c3.084-8.423,1.505-15.968-4.696-22.425c-3.956-4.121-8.639-6.476-10.038-7.124
				l-4.831,4.092l-16.01,8.005l-10.217,3.783c-0.384,0.142-0.798,0.322-1.264,0.55c-2.363,1.15-4.771,1.677-5.997,1.889
				l-0.256-1.479c1.147-0.198,3.399-0.69,5.596-1.759c0.511-0.249,0.969-0.448,1.4-0.608l10.143-3.751l15.853-7.931l5.319-4.538
				l0.425,0.176C74.086,29.241,97.693,39.301,89.828,60.778z"/>
		</g>
		<g>
			<path class="st1" d="M39.191,50.294l-0.195-1.487c0.186-0.024,18.645-2.492,28.184-8.021c0.208-0.11,4.511-2.339,7.314,0.082
				l-0.98,1.135c-2.035-1.757-5.572,0.078-5.608,0.096C58.132,47.763,39.96,50.193,39.191,50.294z"/>
		</g>
		<g>
			<path class="st1" d="M75.111,49.945c-3.837-1.945-4.236-2.998-4.192-4.782l0.005-0.233c0.022-1.582,0.926-3.008,2.302-3.633
				c1.273-0.604,1.807-2.116,1.255-3.402c-1.765-4.113-5.593-3.086-5.755-3.04l-0.415-1.441c1.808-0.525,5.715-0.39,7.549,3.89
				c0.88,2.052,0.035,4.387-1.923,5.316c-0.94,0.428-1.499,1.327-1.513,2.331L72.419,45.2c-0.026,1.046-0.041,1.678,3.37,3.408
				L75.111,49.945z"/>
		</g>
		<g>
			
				<rect x="52.156" y="49.955" transform="matrix(0.1146 -0.9934 0.9934 0.1146 0.5745 102.0547)" class="st1" width="10.764" height="1.5"/>
		</g>
		<g>
			<path class="st1" d="M88.908,59.684C85.051,53.566,63.239,44.283,63.02,44.19l0.584-1.382
				c0.916,0.388,22.467,9.564,26.574,16.076L88.908,59.684z"/>
		</g>
		<g>
			<polygon class="st1" points="72.846,61.22 62.788,51.422 63.835,50.348 72.494,58.783 77.13,50.518 78.438,51.252 			"/>
		</g>
		<g>
			
				<ellipse transform="matrix(0.5851 -0.811 0.811 0.5851 6.7673 66.1723)" class="st0" cx="68.054" cy="26.472" rx="7.396" ry="6.115"/>
			<path class="st1" d="M66.863,34.209c-1.309,0-2.539-0.383-3.575-1.131c-1.51-1.089-2.415-2.81-2.549-4.845
				c-0.131-1.982,0.489-4.034,1.747-5.777c2.628-3.642,7.265-4.804,10.333-2.589l0,0c3.069,2.215,3.429,6.98,0.802,10.623
				c-1.258,1.743-3.009,2.979-4.932,3.48C68.071,34.13,67.459,34.209,66.863,34.209z M69.233,20.237c-1.97,0-4.097,1.109-5.53,3.096
				c-1.054,1.461-1.575,3.166-1.468,4.801c0.104,1.581,0.79,2.905,1.93,3.727c1.14,0.823,2.609,1.056,4.146,0.656
				c1.585-0.413,3.039-1.445,4.093-2.906c2.144-2.971,1.937-6.797-0.462-8.528C71.147,20.51,70.209,20.237,69.233,20.237z"/>
		</g>
		<g>
			<path class="st2" d="M61.69,26.015c0.023-0.135,0.144-0.239,0.282-0.239h5.202c0.486,0,0.881,0.394,0.881,0.881v0
				c0,0.486-0.394,0.881-0.881,0.881h-2.538c-0.348,0-0.648,0.213-0.804,0.525c-0.234,0.466-0.783,1.013-2.042,0.586
				c-0.165-0.056-0.276-0.217-0.281-0.392C61.495,27.858,61.506,27.073,61.69,26.015z"/>
			<path class="st1" d="M62.614,29.551c-0.31,0-0.663-0.056-1.066-0.193c-0.459-0.156-0.776-0.591-0.79-1.081
				c-0.013-0.4-0.005-1.248,0.192-2.39v0c0.087-0.499,0.517-0.861,1.021-0.861h5.201c0.899,0,1.631,0.731,1.631,1.63
				c0,0.899-0.731,1.631-1.631,1.631h-2.538c-0.058,0-0.107,0.06-0.134,0.111C64.345,28.71,63.81,29.551,62.614,29.551z
				 M62.258,28.23c0,0,0,0.001,0,0.002C62.258,28.232,62.258,28.231,62.258,28.23z M62.254,28.004
				c0.679,0.163,0.837-0.141,0.907-0.279c0.29-0.578,0.855-0.938,1.474-0.938h2.538c0.072,0,0.131-0.059,0.131-0.131
				c0-0.072-0.059-0.13-0.131-0.13h-4.805C62.276,27.167,62.255,27.672,62.254,28.004z M62.429,26.143c0,0.001,0,0.001-0.001,0.002
				C62.429,26.145,62.429,26.144,62.429,26.143L62.429,26.143z"/>
		</g>
		<g>
			
				<rect x="75.664" y="45.897" transform="matrix(0.8894 -0.4571 0.4571 0.8894 -12.1942 42.8868)" class="st1" width="13.756" height="1.5"/>
		</g>
		<g>
			
				<rect x="62.123" y="55.251" transform="matrix(0.4263 -0.9046 0.9046 0.4263 -13.4474 90.8006)" class="st1" width="5.47" height="1.501"/>
		</g>
		<g>
			<g>
				<path class="st1" d="M101.358,78.625c-0.428,0-0.862-0.069-1.29-0.214l-10.786-3.672c-1.685-0.573-2.541-1.649-2.695-3.388
					l-0.006-0.191L31.843,51.651c-1.313-0.47-1.999-1.92-1.529-3.233c0.228-0.636,0.689-1.145,1.3-1.434
					c0.613-0.289,1.3-0.321,1.934-0.095l54.683,19.571c1.115-1.179,2.753-1.587,4.24-1.082l10.786,3.672
					c2.093,0.713,3.217,2.996,2.504,5.09l-0.601,1.765C104.592,77.573,103.028,78.625,101.358,78.625z M32.693,48.241
					c-0.149,0-0.299,0.033-0.438,0.099c-0.249,0.118-0.437,0.325-0.529,0.583c-0.093,0.258-0.079,0.538,0.039,0.786
					c0.117,0.249,0.324,0.436,0.583,0.529L88.051,70.09l0.033,1.173c0.099,1.103,0.556,1.672,1.682,2.055l10.787,3.672
					c1.309,0.446,2.74-0.258,3.187-1.568l0.601-1.765c0.446-1.311-0.257-2.74-1.568-3.187l-10.786-3.672
					c-0.953-0.325-2.009-0.046-2.687,0.711l-0.557,0.728L33.041,48.302C32.928,48.261,32.811,48.241,32.693,48.241z"/>
			</g>
		</g>
		<g>
			<rect x="69.405" y="59.77" class="st1" width="60.58" height="1.5"/>
		</g>
		<g>
			<path class="st1" d="M161.657,61.081l-1.408-0.516c3.084-8.423,1.505-15.968-4.696-22.426c-3.956-4.121-8.639-6.476-10.038-7.124
				l-4.831,4.092l-16.01,8.005l-10.217,3.783c-0.381,0.141-0.794,0.32-1.264,0.55c-2.359,1.148-4.77,1.676-5.997,1.888l-0.256-1.478
				c1.148-0.199,3.403-0.692,5.596-1.759c0.515-0.251,0.973-0.45,1.401-0.608l10.142-3.75l15.853-7.931l5.319-4.538l0.425,0.176
				C145.915,29.543,169.522,39.604,161.657,61.081z"/>
		</g>
		<g>
			<path class="st1" d="M111.021,50.597l-0.195-1.487c0.186-0.024,18.644-2.493,28.184-8.021c0.207-0.11,4.515-2.335,7.314,0.081
				l-0.98,1.136c-2.036-1.757-5.572,0.076-5.608,0.095C129.96,48.066,111.789,50.496,111.021,50.597z"/>
		</g>
		<g>
			<path class="st1" d="M146.94,50.248c-3.837-1.944-4.236-2.997-4.192-4.781l0.005-0.233c0.022-1.582,0.926-3.008,2.301-3.633
				c1.274-0.605,1.808-2.117,1.256-3.402c-1.764-4.113-5.594-3.086-5.755-3.04l-0.415-1.441c1.808-0.526,5.714-0.391,7.549,3.89
				c0.88,2.051,0.034,4.387-1.924,5.316l-0.095,0.044c-0.845,0.384-1.403,1.282-1.417,2.286l-0.005,0.25
				c-0.026,1.046-0.042,1.677,3.37,3.406L146.94,50.248z"/>
		</g>
		<g>
			
				<rect x="123.985" y="50.258" transform="matrix(0.1146 -0.9934 0.9934 0.1146 63.8733 173.6786)" class="st1" width="10.764" height="1.5"/>
		</g>
		<g>
			<path class="st1" d="M160.737,59.987c-3.857-6.118-25.67-15.401-25.89-15.494l0.584-1.382
				c0.916,0.388,22.468,9.564,26.575,16.076L160.737,59.987z"/>
		</g>
		<g>
			
				<rect x="141.83" y="54.995" transform="matrix(0.4891 -0.8722 0.8722 0.4891 26.5028 156.74)" class="st1" width="10.453" height="1.5"/>
		</g>
		<g>
			
				<rect x="139.069" y="49.213" transform="matrix(0.6978 -0.7163 0.7163 0.6978 2.3269 117.0057)" class="st1" width="1.5" height="13.066"/>
		</g>
		<g>
			
				<ellipse transform="matrix(0.5851 -0.811 0.811 0.5851 36.3238 124.5484)" class="st0" cx="139.882" cy="26.775" rx="7.396" ry="6.115"/>
			<path class="st1" d="M138.69,34.504c-1.279,0-2.519-0.362-3.573-1.123c-1.51-1.089-2.415-2.81-2.549-4.845
				c-0.131-1.982,0.489-4.034,1.747-5.777c2.628-3.642,7.264-4.803,10.333-2.589l0,0c3.07,2.215,3.43,6.98,0.802,10.623
				C143.725,33.182,141.135,34.504,138.69,34.504z M141.062,20.54c-1.97,0-4.097,1.109-5.53,3.096
				c-1.054,1.461-1.575,3.166-1.468,4.801c0.104,1.581,0.79,2.905,1.93,3.727c2.396,1.73,6.095,0.722,8.239-2.25
				c2.144-2.972,1.937-6.797-0.462-8.528C142.977,20.812,142.038,20.54,141.062,20.54z"/>
		</g>
		<g>
			
				<rect x="147.493" y="46.2" transform="matrix(0.8894 -0.4571 0.4571 0.8894 -4.39 75.7521)" class="st1" width="13.756" height="1.5"/>
		</g>
		<g>
			
				<rect x="133.952" y="55.554" transform="matrix(0.4263 -0.9046 0.9046 0.4263 27.4892 155.9503)" class="st1" width="5.47" height="1.501"/>
		</g>
		<g>
			<rect x="128.524" y="43.573" transform="matrix(0.0028 -1 1 0.0028 59.0811 198.914)" class="st1" width="1.5" height="52.522"/>
		</g>
		<g>
			<path class="st1" d="M182.854,70.733c-0.015,0-0.028,0-0.042,0l-8.714-0.076l0.014-1.5l8.709,0.076c0.012,0,0.025,0,0.037,0
				c4.996,0,9.486-2.774,11.724-7.249l0.221-0.441c0.039-0.078,0.017-0.143-0.009-0.184c-0.024-0.041-0.073-0.089-0.16-0.089
				h-54.245v-1.5h54.245c0.59,0,1.126,0.299,1.437,0.8c0.31,0.501,0.338,1.116,0.074,1.643l-0.221,0.442
				C193.431,67.641,188.426,70.733,182.854,70.733z"/>
		</g>
		<g>
			<g>
				<path class="st1" d="M173.108,78.995c-0.428,0-0.862-0.069-1.29-0.214l-10.786-3.672c-1.685-0.573-2.541-1.65-2.695-3.388
					l-0.006-0.192l-54.737-19.507c-0.637-0.228-1.146-0.689-1.435-1.3c-0.289-0.61-0.322-1.297-0.095-1.933
					c0.228-0.636,0.689-1.145,1.3-1.434c0.609-0.288,1.297-0.323,1.933-0.095l54.684,19.571c1.113-1.179,2.748-1.59,4.239-1.082
					l10.786,3.672c2.093,0.713,3.217,2.996,2.504,5.09l-0.601,1.765C176.342,77.943,174.778,78.995,173.108,78.995z M104.444,48.612
					c-0.15,0-0.3,0.033-0.439,0.099c-0.248,0.117-0.436,0.325-0.528,0.583c-0.191,0.534,0.088,1.124,0.622,1.315l55.704,19.852
					l0.031,1.173c0.098,1.087,0.57,1.676,1.682,2.054l10.787,3.672c1.308,0.445,2.74-0.257,3.187-1.568l0.601-1.765
					c0.446-1.311-0.257-2.74-1.568-3.187l-10.786-3.672c-0.951-0.325-2.008-0.046-2.686,0.71l-0.559,0.728l-55.7-19.935
					C104.678,48.632,104.561,48.612,104.444,48.612z"/>
			</g>
		</g>
		<g>
			<path class="st2" d="M133.984,26.199c0.023-0.135,0.144-0.239,0.282-0.239h5.202c0.486,0,0.881,0.394,0.881,0.881v0
				c0,0.486-0.394,0.881-0.881,0.881h-2.538c-0.348,0-0.648,0.213-0.804,0.525c-0.234,0.466-0.783,1.013-2.042,0.586
				c-0.165-0.056-0.276-0.217-0.281-0.392C133.79,28.042,133.801,27.256,133.984,26.199z"/>
			<path class="st1" d="M134.909,29.735c-0.31,0-0.663-0.056-1.066-0.193c-0.458-0.155-0.776-0.59-0.79-1.081
				c-0.013-0.403-0.005-1.253,0.192-2.39l0,0c0.087-0.499,0.516-0.861,1.021-0.861h5.202c0.899,0,1.631,0.731,1.631,1.63
				c0,0.899-0.731,1.631-1.631,1.631h-2.538c-0.058,0-0.109,0.061-0.136,0.113C136.638,28.895,136.104,29.735,134.909,29.735z
				 M134.553,28.414c0,0,0,0.001,0,0.002C134.553,28.416,134.553,28.415,134.553,28.414z M134.549,28.188
				c0.685,0.169,0.831-0.13,0.906-0.279c0.292-0.579,0.857-0.938,1.475-0.938h2.538c0.072,0,0.131-0.059,0.131-0.131
				c0-0.072-0.059-0.13-0.131-0.13h-4.805C134.571,27.35,134.55,27.854,134.549,28.188z M134.724,26.327L134.724,26.327
				c0,0,0,0.001-0.001,0.001C134.724,26.328,134.724,26.327,134.724,26.327z"/>
		</g>
	</g>
</g>
</svg>
