<?xml version="1.0" encoding="utf-8"?>
<!-- Generator: Adobe Illustrator 21.1.0, SVG Export Plug-In . SVG Version: 6.00 Build 0)  -->
<svg version="1.1" xmlns="http://www.w3.org/2000/svg" xmlns:xlink="http://www.w3.org/1999/xlink" x="0px" y="0px"
	 viewBox="0 0 62.5 58.5" style="enable-background:new 0 0 62.5 58.5;" xml:space="preserve">
<style type="text/css">
	.st0{fill:#333333;}
</style>
<g id="Layer_1">
</g>
<g id="Layer_3">
	<g>
		<path class="st0" d="M32.3,39.8H14.5c-1.6,0-3-1.3-3-3V18.2c0-1.6,1.3-3,3-3h42.8c1.6,0,3,1.3,3,3v18h-1.5v-18
			c0-0.8-0.7-1.5-1.5-1.5H14.5c-0.8,0-1.5,0.7-1.5,1.5v18.6c0,0.8,0.7,1.5,1.5,1.5h17.8V39.8z"/>
	</g>
	<g>
		<rect x="0.2" y="16.9" class="st0" width="8.1" height="1.5"/>
	</g>
	<g>
		<rect x="13.1" y="4.3" class="st0" width="1.5" height="7.7"/>
	</g>
	<g>
		<rect x="7.6" y="8.2" transform="matrix(0.6833 -0.7301 0.7301 0.6833 -6.1286 9.9196)" class="st0" width="1.5" height="7.7"/>
	</g>
	<g>
		<path class="st0" d="M48.5,55.2l-1.3-3.7c-0.1-0.1-0.2-0.2-0.3-0.3c-0.7-0.6-2-1.3-3.4-2c-1.3-0.6-2.6-1.3-3.8-2.1
			c-2.2-1.4-3.8-3.5-4.5-6c-0.2-0.8-0.1-1.8,0-2.8c0-0.4,0.1-0.9,0.1-1.3c0-1.7,0.3-2.8,0.8-3.2c0.3-0.3,0.7-0.4,1.1-0.4
			c0.1,0,0.1,0,0.2,0l-2.7-7.4c0,0-0.5-1.3,0-2.4c0.3-0.6,0.8-1,1.4-1.3c0.7-0.3,2.4-0.6,3.4,2.2l1.7,4.8c0.3-0.4,0.7-0.8,1.3-1.1
			c0.8-0.3,1.5-0.2,2.2,0.1c0.4,0.2,0.7,0.5,0.9,0.7c0.3-0.5,0.7-0.9,1.3-1.2c1.6-0.6,2.7,0.5,3.2,1.3c0.2-0.3,0.6-0.6,1.1-0.8
			c1.4-0.5,2.6,0.2,3.2,1.7c0.2,0.5,2,5.5,3.7,10.3c0.3,0.8,0.5,1.3,0.5,1.4l0.1,0.3c0.2,0.9,0.2,1.7,0.3,2.2l0,0.2
			c0,0.4,0.2,0.8,0.2,0.9l1.9,5.3c0-0.1-0.1-0.2-0.2-0.3l-0.8,1.2c-0.2-0.1-0.3-0.3-0.4-0.5l-1.9-5.2c0,0-0.2-0.6-0.3-1.3l0-0.2
			c0-0.5,0-1.2-0.2-1.9l0-0.2c0,0-0.2-0.5-0.5-1.3c-1-2.9-3.4-9.7-3.6-10.2c-0.5-1.2-1.1-0.9-1.3-0.9c-0.6,0.2-0.5,0.8-0.5,1
			l0.4,1.2c0.2,0.5-0.1,1.1-0.6,1.2c-0.5,0.2-1.1-0.1-1.2-0.6l-1-2.8c-0.1-0.1-0.5-0.9-1.3-0.6c-0.7,0.2-0.6,0.9-0.6,1.2l1,2.7
			c0.2,0.5-0.1,1.1-0.6,1.2c-0.5,0.2-1.1-0.1-1.2-0.6l-1.3-3.5c-0.1-0.2-0.6-1.2-1.7-0.8c-0.8,0.3-0.7,1.2-0.7,1.5l1.4,4
			c0.1,0.2,0.1,0.5,0,0.7c-0.1,0.2-0.3,0.4-0.6,0.5c-0.5,0.2-1-0.1-1.2-0.6L40.6,32l-0.1-0.1l0-0.2l-2.4-6.6
			c-0.6-1.6-1.2-1.4-1.5-1.3c-0.3,0.1-0.5,0.3-0.6,0.5c-0.2,0.4-0.1,1.1,0,1.3l5.1,14.1c0,0.1,0.1,0.2,0.1,0.4
			c0.1,0.3,0.1,0.8-0.1,1.3c-0.1,0.4-0.3,0.7-0.6,1l-0.6,0.5l-0.2-0.3c-0.3,0-0.6-0.2-0.8-0.6c-0.2-0.4-0.1-0.8,0.2-1.1c0,0,0,0,0,0
			c0,0,0.1-0.1,0.1-0.3c0-0.1,0-0.3,0-0.4l-1.8-5C37.3,35.2,37.1,35,37,35c0,0.1-0.2,0.7-0.3,2.1c0,0.5-0.1,1-0.1,1.5
			c-0.1,0.8-0.2,1.7,0,2.2c0.6,2.1,2,3.9,3.9,5.1c1.1,0.7,2.5,1.4,3.7,2c1.5,0.8,2.9,1.5,3.7,2.2c0.3,0.2,0.5,0.5,0.5,0.6l0.1,0.1
			l0.1,0.2l1.4,3.7L48.5,55.2z M40.4,42C40.4,42,40.4,42,40.4,42C40.4,42,40.4,42,40.4,42z"/>
	</g>
</g>
</svg>
