<?xml version="1.0" encoding="utf-8"?>
<!-- Generator: Adobe Illustrator 21.1.0, SVG Export Plug-In . SVG Version: 6.00 Build 0)  -->
<svg version="1.1" id="Layer_1" xmlns="http://www.w3.org/2000/svg" xmlns:xlink="http://www.w3.org/1999/xlink" x="0px" y="0px"
	 viewBox="0 0 602.97 776.961" style="enable-background:new 0 0 602.97 776.961;" xml:space="preserve">
<style type="text/css">
	.st0{fill:#E4EFF3;}
</style>
<g>
	<g>
		<path class="st0" d="M113.644,515.663v-353.19h320.562l74.361,160.782l-0.186,0.334l-80.118,143.544l-58.369,27.507l-104.338-0.02
			l-62.438-14.613L113.644,515.663z M115.144,163.973V513.45l87.858-35.012l62.812,14.701h103.745l57.631-27.159l79.696-142.789
			l-73.639-159.218H115.144z"/>
	</g>
	<g>
		
			<rect x="101.376" y="195.807" transform="matrix(0.7352 -0.6779 0.6779 0.7352 -93.3687 154.1138)" class="st0" width="98.369" height="1.5"/>
	</g>
	<g>
		<path class="st0" d="M203.001,479.589c-0.365,0-0.7-0.202-0.87-0.532l-71.974-139.96l-0.011-0.153l-8.393-116.143l-7.852-6.846
			l0.985-1.131l8.317,7.252l0.022,0.308l8.404,116.299l71.244,138.54l40.198-134.703l-97.631-141.6l-7.284-37.554l1.473-0.285
			l7.225,37.246l97.86,141.933l-0.103,0.344l-40.669,136.285c-0.116,0.386-0.449,0.659-0.85,0.696
			C203.062,479.588,203.032,479.589,203.001,479.589z"/>
	</g>
	<g>
		
			<rect x="113.866" y="341.139" transform="matrix(0.9398 -0.3417 0.3417 0.9398 -109.4389 62.4838)" class="st0" width="17.557" height="1.5"/>
	</g>
	<g>
		<polygon class="st0" points="243.726,343.14 243.572,343.067 126.808,287.478 127.452,286.123 244.062,341.639 372.127,341.141 
			476.652,256.469 477.595,257.635 372.661,342.639 		"/>
	</g>
	<g>
		<polygon class="st0" points="146.187,201.372 146.109,199.874 265.036,193.657 291.827,162.732 292.961,163.714 265.752,195.122 
					"/>
	</g>
	<g>
		<polygon class="st0" points="342.529,264.176 249.344,163.733 250.444,162.713 341.259,260.603 347.646,163.174 349.142,163.272 
					"/>
	</g>
	<g>
		
			<rect x="368.644" y="379.364" transform="matrix(0.3816 -0.9243 0.9243 0.3816 -180.5599 615.0569)" class="st0" width="1.5" height="126.219"/>
	</g>
	<g>
		
			<rect x="310.394" y="339.599" transform="matrix(0.9645 -0.2642 0.2642 0.9645 -99.4141 97.0581)" class="st0" width="1.5" height="157.081"/>
	</g>
	<g>
		
			<rect x="157.978" y="416.869" transform="matrix(0.3284 -0.9445 0.9445 0.3284 -331.4815 461.3915)" class="st0" width="1.499" height="93.875"/>
	</g>
	<g>
		
			<rect x="120.012" y="486.151" transform="matrix(0.8613 -0.5081 0.5081 0.8613 -236.6111 130.5073)" class="st0" width="1.5" height="25.068"/>
	</g>
	<g>
		<polygon class="st0" points="442.473,439.492 371.729,342.251 371.694,342.158 341.565,263.626 242.874,344.19 264.652,194.282 
			266.136,194.498 244.914,340.589 342.223,261.153 373.059,341.528 443.686,438.609 		"/>
	</g>
	<g>
		<polygon class="st0" points="346.377,195.177 281.139,176.701 281.548,175.258 346.325,193.602 433.475,162.517 433.979,163.93 		
			"/>
	</g>
	<g>
		
			<rect x="400.755" y="147.68" transform="matrix(0.1647 -0.9863 0.9863 0.1647 134.5691 566.0943)" class="st0" width="1.5" height="111.835"/>
	</g>
</g>
</svg>
