<?xml version="1.0" encoding="utf-8"?>
<!-- Generator: Adobe Illustrator 21.1.0, SVG Export Plug-In . SVG Version: 6.00 Build 0)  -->
<svg version="1.1" xmlns="http://www.w3.org/2000/svg" xmlns:xlink="http://www.w3.org/1999/xlink" x="0px" y="0px"
	 viewBox="0 0 62.5 58.5" style="enable-background:new 0 0 62.5 58.5;" xml:space="preserve">
<style type="text/css">
	.st0{fill:none;stroke:#333333;stroke-width:1.5;stroke-miterlimit:10;}
</style>
<g id="Layer_1">
</g>
<g id="Layer_3">
	<path class="st0" d="M24.8,6.8"/>
	<path class="st0" d="M48.5,55.6H14c-1.8,0-1.5-1.7-1.3-2.2l4.1-7.3c0.8-5.2,3.1-9.9,6.6-13.6c2.2-2.3,3.9-5.2,5-7.6
		c-1.1,0.6-2.3,0.9-3.4,1.1c-1.9,0.3-3.6,1.2-4.7,2.5c-0.3,0.3-1.2,0.8-2.1,0.1l-4.1-3.9c-0.4-0.4-0.5-0.9-0.4-1.4
		c1.5-5.9,7-11.8,9.1-13.8l-1.8-4.4c-0.2-0.5-0.1-1,0.2-1.4c0.3-0.4,0.8-0.6,1.3-0.6c2.3,0.2,4.6,1.6,6.2,2.8c0,0,0.1-0.9,0.7-1.3
		c0.4-0.2,0.9-0.3,1.3-0.2c17.3,5.9,22.4,20,15.3,42.1l3.9,7C50,53.9,50.3,55.6,48.5,55.6z"/>
	<line class="st0" x1="16.8" y1="46.1" x2="45.9" y2="46.1"/>
	<path class="st0" d="M28.4,24.9c0,0,4.2-2.3,2.9-6.6"/>
	<line class="st0" x1="39.5" y1="27.8" x2="49" y2="27.8"/>
	<line class="st0" x1="42.3" y1="32.2" x2="48.9" y2="32.2"/>
	<circle class="st0" cx="23.2" cy="15.7" r="1.2"/>
</g>
</svg>
