<?xml version="1.0" encoding="utf-8"?>
<!-- Generator: Adobe Illustrator 21.1.0, SVG Export Plug-In . SVG Version: 6.00 Build 0)  -->
<svg version="1.1" id="Layer_1" xmlns="http://www.w3.org/2000/svg" xmlns:xlink="http://www.w3.org/1999/xlink" x="0px" y="0px"
	 viewBox="0 0 449.3 535.1" style="enable-background:new 0 0 449.3 535.1;" xml:space="preserve">
<style type="text/css">
	.st0{fill:#E3EFF3;}
</style>
<path class="st0" d="M300.808,85.97l-0.124-0.068l-0.429-0.395l-48.764-47.603l-0.152-0.164L148.552,10.25L72.718,76.462
	L41.782,96.058l-27.815,59.74l-0.136,0.248l2.818,361.824l123.058-26.703l0.192-0.056l1.18-0.242L260.342,535.1l91.834-26.926
	l92.299-124.499L363.161,106.35L300.808,85.97z M374.494,152.109L332.9,142.109l28.989-32.989L374.494,152.109z M360.615,107.617
	l-29.289,33.39l-29.031-52.451L360.615,107.617z M329.52,141.953l-59.524,11.305l-39.32-22.86l69.036-42.126L329.52,141.953z
	 M205.396,167.51l64.175-12.147l0.288-0.084l58.056-10.978l-83.678,79.975L205.396,167.51z M242.858,225.617l-4.394,4.206l0,0
	l-113.725-6.15l-0.056-0.192l78.726-55.284L242.858,225.617z M204.449,165.703l-21.507-60.91l84.09,49.021L204.449,165.703z
	 M202.586,166.458L124.64,221.2l-3.72-59.247l59.726-57.529L202.586,166.458z M122.63,222.519l-24.907,17.411L72.926,191.97
	l45.983-28.697L122.63,222.519z M98.409,241.918l24.388-17.051l69.658,139.121c-16.604-11.492-89.372-62.061-97.579-66.949
	L98.409,241.918z M125.454,225.755l112.021,6.025l-42.628,132.549L125.454,225.755z M239.671,231.449l4.23-4.054l53.687,78.256
	L196.76,364.81L239.671,231.449z M298.439,307.486l18.172,73.35L198.158,366.38L298.439,307.486z M245.443,225.901l8.856-8.537
	l55.937,26.221l-11.743,59.821L245.443,225.901z M255.869,215.966l73.58-70.345l-18.856,95.983L255.869,215.966z M298.505,86.645
	l-69.748,42.543l-45.982-26.743l68.071-62.477L298.505,86.645z M248.822,39.104l-67.348,61.744l-31.145-88.096L248.822,39.104z
	 M148.324,13.027l31.145,88.096l-104.099-24.5L148.324,13.027z M73.473,78.325l105.667,24.874l-59.235,57.072L44.219,96.907
	L73.473,78.325z M15.812,156.403l27.029-58.154l75.314,63.161l-46.667,29.21l-55.402-4.493L15.812,156.403z M16.045,188.119
	l51.994,4.242l-51.776,25.29L16.045,188.119z M16.278,219.834l54.966-26.85l24.824,48.057l-79.269,50.233L16.278,219.834z
	 M16.871,293.65l79.433-50.385l-6.65,103.138l-57.875,9.466L17.2,331.381L16.871,293.65z M17.242,335.433l13.091,21.901
	l4.731,78.333L18.08,446.692L17.242,335.433z M18.638,515.411l-0.486-66.343l17.504-11.385l26.365,68.239L18.638,515.411z
	 M63.996,505.551l-25.988-67.307l100.149,51.19L63.996,505.551z M37.028,435.613l-4.754-77.701l57.559-9.478l48.433,138.883
	L37.028,435.613z M91.623,347.075l3.076-47.796c10.113,6.414,73.163,50.14,99.057,68.079L139.96,485.987L91.623,347.075z
	 M259.17,532.526l-118.23-43.908l54.689-120.558l46.152,5.642L259.17,532.526z M261.219,532.759l-9.106-83.303l96.91,57.558
	L261.219,532.759z M351.241,506.051l-99.448-59.107l-7.936-72.913l73.401,9.012l50.791,100.364L351.241,506.051z M369.382,481.557
	l-50.205-99.077l52.921-30.627l69.646,32.101L369.382,481.557z M441.796,381.646l-67.468-31.072l49.883-28.903L441.796,381.646z
	 M423.62,319.656l-105.13,60.837l-18.442-74.626l12.061-61.581l98.287,30.268L423.62,319.656z M409.721,272.252l-93.937-28.939
	l81.473-13.572L409.721,272.252z M396.694,227.822l-84.052,14.015l19.213-97.963l43.287,10.443L396.694,227.822z"/>
</svg>
