<?xml version="1.0" encoding="utf-8"?>
<!-- Generator: Adobe Illustrator 21.1.0, SVG Export Plug-In . SVG Version: 6.00 Build 0)  -->
<svg version="1.1" id="Layer_1" xmlns="http://www.w3.org/2000/svg" xmlns:xlink="http://www.w3.org/1999/xlink" x="0px" y="0px"
	 viewBox="0 0 100 100" style="enable-background:new 0 0 100 100;" xml:space="preserve">
<style type="text/css">
	.st0{fill:#E0C1A5;}
</style>
<g>
	<path class="st0" d="M29.3,54.2c-0.1,0.3-0.1,0.7-0.2,1c0,0,0,0-0.1,0C29.1,54.8,29.2,54.5,29.3,54.2z"/>
</g>
<g>
	<path class="st0" d="M33.8,59.8L33.8,59.8c-0.1,0-0.1,0-0.2,0H33.8z"/>
</g>
<g>
	<g>
		<path class="st0" d="M63.548,79.749H33.336V17.89h30.212V79.749z M35.336,77.749h26.212V19.89H35.336V77.749z"/>
	</g>
	<g>
		<path class="st0" d="M35.336,79.689H16.458V37.421h18.878V79.689z M18.458,77.689h14.878V39.421H18.458V77.689z"/>
	</g>
	<g>
		<path class="st0" d="M79.643,79.749H61.548V34.407h18.095V79.749z M63.548,77.749h14.095V36.407H63.548V77.749z"/>
	</g>
	<g>
		<rect x="17.458" y="42.545" class="st0" width="16.878" height="2"/>
	</g>
	<g>
		<rect x="17.458" y="48.905" class="st0" width="16.878" height="2"/>
	</g>
	<g>
		<rect x="17.879" y="54.661" class="st0" width="16.878" height="2"/>
	</g>
	<g>
		<rect x="17.668" y="60.569" class="st0" width="16.878" height="2"/>
	</g>
	<g>
		<rect x="17.668" y="66.928" class="st0" width="16.878" height="2"/>
	</g>
	<g>
		<rect x="18.09" y="72.685" class="st0" width="16.879" height="2"/>
	</g>
	<g>
		<rect x="38.972" y="18.89" class="st0" width="2" height="59.859"/>
	</g>
	<g>
		<rect x="44.277" y="19.101" class="st0" width="2" height="59.859"/>
	</g>
	<g>
		<rect x="50.185" y="19.101" class="st0" width="2" height="59.859"/>
	</g>
	<g>
		<rect x="55.489" y="19.101" class="st0" width="2" height="59.859"/>
	</g>
	<g>
		<rect x="66.4" y="40.049" class="st0" width="2" height="4.642"/>
	</g>
	<g>
		<rect x="66.4" y="49.694" class="st0" width="2" height="4.642"/>
	</g>
	<g>
		<rect x="66.4" y="59.218" class="st0" width="2" height="4.642"/>
	</g>
	<g>
		<rect x="66.521" y="68.863" class="st0" width="2" height="4.642"/>
	</g>
	<g>
		<rect x="71.705" y="40.109" class="st0" width="2" height="4.642"/>
	</g>
	<g>
		<rect x="71.705" y="49.754" class="st0" width="2" height="4.642"/>
	</g>
	<g>
		<rect x="71.705" y="59.279" class="st0" width="2" height="4.642"/>
	</g>
	<g>
		<rect x="71.825" y="68.923" class="st0" width="2" height="4.642"/>
	</g>
</g>
</svg>
