<?xml version="1.0" encoding="utf-8"?>
<!-- Generator: Adobe Illustrator 20.0.0, SVG Export Plug-In . SVG Version: 6.00 Build 0)  -->
<svg version="1.1" id="Layer_1" xmlns="http://www.w3.org/2000/svg" xmlns:xlink="http://www.w3.org/1999/xlink" x="0px" y="0px"
	 viewBox="0 0 100 100" style="enable-background:new 0 0 100 100;" xml:space="preserve">
<style type="text/css">
	.st0{fill:#E0C1A5;}
</style>
<g>
	<path class="st0" d="M29.3,54.2c-0.1,0.3-0.1,0.7-0.2,1c0,0,0,0-0.1,0C29.1,54.8,29.2,54.5,29.3,54.2z"/>
</g>
<g>
	<path class="st0" d="M33.8,59.8L33.8,59.8c-0.1,0-0.1,0-0.2,0L33.8,59.8z"/>
</g>
<g>
	<path d="M58.6,53.8v-7.6H42.9v-7.7l15.6-0.1v-6.8L75,42.4L58.6,53.8z M44.9,44.2h15.6v5.8l10.8-7.5l-10.8-7.1v5l-15.6,0.1V44.2z"/>
</g>
<g>
	<path d="M39.6,68.3L23.2,56.9l16.4-10.7V53l15.6,0.1v7.7H39.6V68.3z M26.8,57l10.8,7.5v-5.8h15.6v-3.7L37.6,55v-5L26.8,57z"/>
</g>
</svg>
