<?xml version="1.0" encoding="utf-8"?>
<!-- Generator: Adobe Illustrator 20.0.0, SVG Export Plug-In . SVG Version: 6.00 Build 0)  -->
<svg version="1.1" id="Layer_1" xmlns="http://www.w3.org/2000/svg" xmlns:xlink="http://www.w3.org/1999/xlink" x="0px" y="0px"
	 viewBox="0 0 100 100" style="enable-background:new 0 0 100 100;" xml:space="preserve">
<style type="text/css">
	.st0{fill:#FFFFFF;}
</style>
<g>
	<g>
		
			<rect x="46.9" y="46.6" transform="matrix(0.7137 -0.7005 0.7005 0.7137 -17.1803 53.0764)" class="st0" width="18.9" height="2"/>
	</g>
	<g>
		
			<rect x="26.6" y="33.7" transform="matrix(0.7439 -0.6683 0.6683 0.7439 -14.6896 31.0992)" class="st0" width="13.2" height="2"/>
	</g>
	<g>
		<path class="st0" d="M51.9,30.3v-2H58v-2H43.7v2H50v2c-11.5,0.5-20.8,10-20.8,21.7c0,12,9.8,21.8,21.8,21.8S72.7,64,72.7,52
			C72.7,40.3,63.5,30.8,51.9,30.3z M50.9,71.8C40,71.8,31.2,62.9,31.2,52S40,32.2,50.9,32.2S70.7,41.1,70.7,52S61.8,71.8,50.9,71.8z
			"/>
	</g>
</g>
</svg>
