<?xml version="1.0" encoding="utf-8"?>
<!-- Generator: Adobe Illustrator 20.0.0, SVG Export Plug-In . SVG Version: 6.00 Build 0)  -->
<svg version="1.1" id="Layer_1" xmlns="http://www.w3.org/2000/svg" xmlns:xlink="http://www.w3.org/1999/xlink" x="0px" y="0px"
	 viewBox="0 0 100 100" style="enable-background:new 0 0 100 100;" xml:space="preserve">
<style type="text/css">
	.st0{fill:#E0C1A5;}
</style>
<g>
	<path class="st0" d="M29.3,54.2c-0.1,0.3-0.1,0.7-0.2,1c0,0,0,0-0.1,0C29.1,54.8,29.2,54.5,29.3,54.2z"/>
</g>
<g>
	<path class="st0" d="M33.8,59.8L33.8,59.8c-0.1,0-0.1,0-0.2,0L33.8,59.8z"/>
</g>
<g>
	<g>
		<polygon points="76.5,70.3 22.5,70.3 22.5,27.2 24.5,27.2 24.5,68.3 76.5,68.3 		"/>
	</g>
	<g>
		<path d="M38.5,64.7h-9.3V37.2h9.3V64.7z M31.3,62.7h5.3V39.2h-5.3V62.7z"/>
	</g>
	<g>
		<path d="M51,64.7h-9.9V27.3H51V64.7z M43.1,62.7H49V29.3h-5.9V62.7z"/>
	</g>
	<g>
		<path d="M62.3,64.7h-8.9v-16h8.9V64.7z M55.4,62.7h4.9v-12h-4.9V62.7z"/>
	</g>
	<g>
		<path d="M73.7,64.7h-8.9V35.1h8.9V64.7z M66.8,62.7h4.9V37.1h-4.9V62.7z"/>
	</g>
</g>
</svg>
