<?xml version="1.0" encoding="utf-8"?>
<!-- Generator: Adobe Illustrator 20.0.0, SVG Export Plug-In . SVG Version: 6.00 Build 0)  -->
<svg version="1.1" id="Layer_1" xmlns="http://www.w3.org/2000/svg" xmlns:xlink="http://www.w3.org/1999/xlink" x="0px" y="0px"
	 viewBox="0 0 100 100" style="enable-background:new 0 0 100 100;" xml:space="preserve">
<style type="text/css">
	.st0{fill:#E0C1A5;}
</style>
<g>
	<path class="st0" d="M29.3,54.2c-0.1,0.3-0.1,0.7-0.2,1c0,0,0,0-0.1,0C29.1,54.8,29.2,54.5,29.3,54.2z"/>
</g>
<g>
	<path class="st0" d="M33.8,59.8L33.8,59.8c-0.1,0-0.1,0-0.2,0L33.8,59.8z"/>
</g>
<g>
	<g>
		<path d="M36.5,22.2v18.3H23.2V73l10.7-6.7h29V48h2.6l10.7,6.7V22.2H36.5z M60.9,64.3H33.4l-8.2,5.1V42.6h11.3V48h24.4V64.3z
			 M74.2,51.1L66,46H38.5V24.2h35.7V51.1z"/>
	</g>
	<g>
		<path d="M51,35.3c0,0.9-0.7,1.6-1.6,1.6c-0.9,0-1.6-0.7-1.6-1.6s0.7-1.6,1.6-1.6C50.3,33.7,51,34.4,51,35.3z"/>
	</g>
	<g>
		<path d="M56.9,35.3c0,0.9-0.7,1.6-1.6,1.6c-0.9,0-1.6-0.7-1.6-1.6s0.7-1.6,1.6-1.6C56.2,33.7,56.9,34.4,56.9,35.3z"/>
	</g>
	<g>
		<path d="M62.5,35.3c0,0.9-0.7,1.6-1.6,1.6c-0.9,0-1.6-0.7-1.6-1.6s0.7-1.6,1.6-1.6C61.8,33.7,62.5,34.4,62.5,35.3z"/>
	</g>
	<g>
		<circle cx="37.3" cy="53.4" r="1.6"/>
	</g>
	<g>
		<circle cx="43.3" cy="53.4" r="1.6"/>
	</g>
	<g>
		<circle cx="48.8" cy="53.4" r="1.6"/>
	</g>
</g>
</svg>
