<?xml version="1.0" encoding="utf-8"?>
<!-- Generator: Adobe Illustrator 20.0.0, SVG Export Plug-In . SVG Version: 6.00 Build 0)  -->
<svg version="1.1" id="Layer_1" xmlns="http://www.w3.org/2000/svg" xmlns:xlink="http://www.w3.org/1999/xlink" x="0px" y="0px"
	 viewBox="0 0 100 100" style="enable-background:new 0 0 100 100;" xml:space="preserve">
<style type="text/css">
	.st0{fill:#E0C1A5;}
</style>
<g>
	<path class="st0" d="M29.3,54.2c-0.1,0.3-0.1,0.7-0.2,1c0,0,0,0-0.1,0C29.1,54.8,29.2,54.5,29.3,54.2z"/>
</g>
<g>
	<path class="st0" d="M33.8,59.8L33.8,59.8c-0.1,0-0.1,0-0.2,0L33.8,59.8z"/>
</g>
<g>
	<path d="M49.3,59.8c-13,0-23.2-11.7-23.7-12.2l-0.6-0.7l0.6-0.7c0.4-0.5,10.7-12.2,23.7-12.2s23.2,11.7,23.7,12.2l0.6,0.7l-0.6,0.7
		C72.5,48.1,62.2,59.8,49.3,59.8z M27.7,46.9c2.3,2.4,11.2,10.9,21.5,10.9c10.3,0,19.2-8.5,21.5-10.9c-2.3-2.4-11.2-10.9-21.5-10.9
		C38.9,36.1,30.1,44.5,27.7,46.9z"/>
</g>
<g>
	<path d="M49.3,56.5c-5.3,0-9.6-4.3-9.6-9.6s4.3-9.6,9.6-9.6c5.3,0,9.6,4.3,9.6,9.6S54.6,56.5,49.3,56.5z M49.3,39.4
		c-4.2,0-7.6,3.4-7.6,7.6s3.4,7.6,7.6,7.6c4.2,0,7.6-3.4,7.6-7.6S53.5,39.4,49.3,39.4z"/>
</g>
<g>
	<path d="M49.3,51.6c-2.6,0-4.6-2.1-4.6-4.6s2.1-4.6,4.6-4.6c2.6,0,4.6,2.1,4.6,4.6S51.8,51.6,49.3,51.6z M49.3,44.3
		c-1.5,0-2.6,1.2-2.6,2.6s1.2,2.6,2.6,2.6s2.6-1.2,2.6-2.6S50.7,44.3,49.3,44.3z"/>
</g>
</svg>
