<?xml version="1.0" encoding="utf-8"?>
<!-- Generator: Adobe Illustrator 20.0.0, SVG Export Plug-In . SVG Version: 6.00 Build 0)  -->
<svg version="1.1" id="Layer_1" xmlns="http://www.w3.org/2000/svg" xmlns:xlink="http://www.w3.org/1999/xlink" x="0px" y="0px"
	 viewBox="0 0 100 100" style="enable-background:new 0 0 100 100;" xml:space="preserve">
<g>
	<path d="M50.2,84.4v-2C68.3,82.4,83,67.7,83,49.6S68.3,16.9,50.2,16.9S17.5,31.6,17.5,49.6h-2c0-19.2,15.6-34.8,34.8-34.8
		S85,30.5,85,49.6S69.4,84.4,50.2,84.4z"/>
</g>
<g>
	<path d="M50.2,74.2c-13.6,0-24.6-11-24.6-24.6h2c0,12.5,10.1,22.6,22.6,22.6c12.5,0,22.6-10.1,22.6-22.6C72.8,37.2,62.7,27,50.2,27
		v-2c13.6,0,24.6,11,24.6,24.6C74.8,63.2,63.8,74.2,50.2,74.2z"/>
</g>
<g>
	<path d="M50.2,64.3c-8.1,0-14.6-6.6-14.6-14.6c0-8.1,6.6-14.6,14.6-14.6c8.1,0,14.6,6.6,14.6,14.6h-2c0-7-5.7-12.6-12.6-12.6
		s-12.6,5.7-12.6,12.6s5.7,12.6,12.6,12.6V64.3z"/>
</g>
<g>
	<path d="M50.7,57c-3.8,0-7-2.9-7.3-6.7l2-0.2c0.2,2.9,2.8,5.1,5.8,4.9c2.9-0.2,5.1-2.8,4.9-5.8c-0.1-1.4-0.8-2.7-1.9-3.6
		c-1.1-0.9-2.5-1.4-3.9-1.2l-0.2-2c2-0.2,3.8,0.4,5.3,1.7s2.4,3,2.6,5c0.3,4-2.7,7.6-6.7,7.9C51.1,56.9,50.9,57,50.7,57z"/>
</g>
</svg>
