<?xml version="1.0" encoding="utf-8"?>
<!-- Generator: Adobe Illustrator 20.0.0, SVG Export Plug-In . SVG Version: 6.00 Build 0)  -->
<svg version="1.1" id="Layer_1" xmlns="http://www.w3.org/2000/svg" xmlns:xlink="http://www.w3.org/1999/xlink" x="0px" y="0px"
	 viewBox="0 0 100 100" style="enable-background:new 0 0 100 100;" xml:space="preserve">
<g>
	<path d="M76.8,14.6L41.6,52.1L39.3,63l10.7-3.4l35-37.2L76.8,14.6z M42,60.1L42,60.1L42,60.1L42,60.1z M49,57.8l-4.8,1.5l-1.8-1.6
		l1-4.6l33.5-35.7l5.3,5L49,57.8z"/>
</g>
<g>
	<rect x="81.6" y="11.8" transform="matrix(0.6847 -0.7288 0.7288 0.6847 14.0832 65.4036)" width="2" height="9.3"/>
</g>
<g>
	<rect x="83.6" y="9.7" transform="matrix(0.6847 -0.7288 0.7288 0.6847 16.1934 66.1535)" width="2" height="9.3"/>
</g>
<g>
	<path d="M35.6,89.7C23,89.7,12.8,79.5,12.8,67c0-12.5,10.2-22.7,22.7-22.7c2.6,0,5.1,0.4,7.5,1.3l-0.7,1.9
		c-2.2-0.8-4.5-1.1-6.8-1.1c-11.4,0-20.7,9.3-20.7,20.7s9.3,20.7,20.7,20.7S56.3,78.4,56.3,67c0-3.4-0.8-6.6-2.3-9.5l1.8-0.9
		c1.7,3.2,2.6,6.8,2.6,10.5C58.3,79.5,48.1,89.7,35.6,89.7z"/>
</g>
<g>
	<path d="M56.1,78.6c-7.7,0-14.2-5.5-15.5-13.1l2-0.3c1.1,6.6,6.8,11.4,13.5,11.4c7.5,0,13.7-6.1,13.7-13.7c0-5.4-3.2-10.3-8.2-12.5
		l0.8-1.8c5.7,2.5,9.4,8.1,9.4,14.3C71.8,71.6,64.7,78.6,56.1,78.6z"/>
</g>
</svg>
