<?xml version="1.0" encoding="utf-8"?>
<!-- Generator: Adobe Illustrator 20.0.0, SVG Export Plug-In . SVG Version: 6.00 Build 0)  -->
<svg version="1.1" id="Layer_1" xmlns="http://www.w3.org/2000/svg" xmlns:xlink="http://www.w3.org/1999/xlink" x="0px" y="0px"
	 viewBox="0 0 100 100" style="enable-background:new 0 0 100 100;" xml:space="preserve">
<style type="text/css">
	.st0{fill:#E0C1A5;}
	.st1{fill:#D31E45;}
</style>
<g>
	<path class="st0" d="M29.3,54.2c-0.1,0.3-0.1,0.7-0.2,1c0,0,0,0-0.1,0C29.1,54.8,29.2,54.5,29.3,54.2z"/>
</g>
<g>
	<path class="st0" d="M33.8,59.8L33.8,59.8c-0.1,0-0.1,0-0.2,0L33.8,59.8z"/>
</g>
<g>
	<path d="M70.6,39.5c-0.9-0.8-2-1.2-3.1-1.1c-2.4,0.1-4.2,2.2-4.1,4.6c0,0.1,0,0.1,0,0.2l-8.6,2c-1.4-2.1-3.7-3.4-6.4-3.4
		c-1,0-2,0.2-3,0.6l-2.1-4.5c1.6-1.3,2.6-3.2,2.6-5.4c0-3.8-3.1-6.9-6.9-6.9s-6.9,3.1-6.9,6.9s3.1,6.9,6.9,6.9
		c0.9,0,1.8-0.2,2.5-0.5l2.1,4.5c-1.8,1.4-3,3.6-3,6.1c0,1.9,0.7,3.7,1.9,5.1l-4.2,5.1c-0.9-0.5-1.9-0.8-2.9-0.8
		c-3.2,0-5.7,2.6-5.7,5.7c0,3.1,2.5,5.7,5.7,5.7c3.1,0,5.7-2.6,5.7-5.7c0-1.3-0.5-2.6-1.3-3.6l4.2-5.1c1.2,0.8,2.7,1.3,4.2,1.3
		c1.4,0,2.8-0.4,3.9-1.1l3.8,5.5c0,0-0.1,0.1-0.1,0.1c-0.8,0.9-1.2,2-1.1,3.1c0.1,2.3,2.1,4.1,4.4,4.1h0.2c1.2-0.1,2.2-0.6,3-1.4
		c0.8-0.9,1.2-2,1.1-3.1c-0.1-1.2-0.6-2.2-1.4-3c-0.9-0.8-2-1.2-3.1-1.1c-0.4,0-0.8,0.1-1.2,0.2l-3.8-5.6c1.3-1.4,2.2-3.3,2.2-5.3
		c0-0.8-0.1-1.7-0.4-2.4L64,45c0.2,0.3,0.5,0.6,0.8,0.9c0.8,0.7,1.8,1.1,2.9,1.1c0.1,0,0.2,0,0.2,0c1.2-0.1,2.2-0.6,3-1.4
		c0.8-0.9,1.2-2,1.1-3.1C72,41.3,71.5,40.2,70.6,39.5z M39.1,37.3c-2.7,0-4.9-2.2-4.9-4.9c0-2.7,2.2-4.9,4.9-4.9
		c2.7,0,4.9,2.2,4.9,4.9C44,35.1,41.8,37.3,39.1,37.3z M35.6,68.1c-2,0-3.7-1.7-3.7-3.7s1.7-3.7,3.7-3.7s3.7,1.7,3.7,3.7
		S37.6,68.1,35.6,68.1z M57.5,62.8c0.4-0.5,1-0.7,1.6-0.8h0.1c0.6,0,1.1,0.2,1.6,0.6c0.5,0.4,0.7,1,0.8,1.6c0,0.6-0.2,1.2-0.6,1.7
		c-0.4,0.5-1,0.7-1.6,0.8c-1.3,0.1-2.4-0.9-2.5-2.2C56.8,63.9,57,63.3,57.5,62.8z M48.4,55c-3.1,0-5.7-2.5-5.7-5.6s2.5-5.7,5.7-5.7
		c3.1,0,5.6,2.5,5.6,5.7S51.5,55,48.4,55z M69.4,44.3c-0.4,0.5-1,0.7-1.6,0.8c-0.6,0-1.2-0.2-1.7-0.6c-0.2-0.2-0.4-0.5-0.6-0.8v0
		c-0.1-0.3-0.2-0.5-0.2-0.8v-0.1c0-1.3,0.9-2.3,2.2-2.4h0.1c0.6,0,1.1,0.2,1.6,0.6c0.5,0.4,0.7,1,0.8,1.6
		C70.1,43.2,69.9,43.8,69.4,44.3z"/>
</g>
<g>
	<path class="st1" d="M65.5,36.4c-0.1-0.3-0.2-0.5-0.2-0.8v-0.1L65.5,36.4z"/>
</g>
</svg>
