<?xml version="1.0" encoding="utf-8"?>
<!-- Generator: Adobe Illustrator 20.0.0, SVG Export Plug-In . SVG Version: 6.00 Build 0)  -->
<svg version="1.1" id="Layer_1" xmlns="http://www.w3.org/2000/svg" xmlns:xlink="http://www.w3.org/1999/xlink" x="0px" y="0px"
	 viewBox="0 0 393.5 160.5" style="enable-background:new 0 0 393.5 160.5;" xml:space="preserve">
<style type="text/css">
	.st0{fill:#404A6B;}
</style>
<g>
	<g>
		<path class="st0" d="M59.2,37.9c-0.1-0.1-0.2-0.1-0.4-0.2c-0.1-0.1-0.3-0.1-0.4-0.2c-0.1,0-0.3-0.1-0.4-0.1
			c-0.1,0-0.3-0.1-0.5-0.1s-0.3-0.1-0.4-0.1c-0.3-0.1-0.5-0.2-0.7-0.3c-0.2-0.1-0.2-0.2-0.2-0.4c0-0.2,0.1-0.3,0.2-0.5
			c0.2-0.1,0.4-0.2,0.7-0.2c0.5,0,1.1,0.2,1.8,0.5c0.1,0.1,0.2,0,0.3-0.1l0.5-1c0-0.1,0-0.2-0.1-0.2c-0.7-0.4-1.5-0.6-2.3-0.6
			c-0.9,0-1.6,0.2-2.1,0.6c-0.5,0.4-0.7,0.9-0.7,1.5c0,0.7,0.2,1.2,0.7,1.6c0.1,0,0.1,0.1,0.2,0.2c0.1,0,0.2,0.1,0.2,0.1
			c0.1,0,0.2,0.1,0.3,0.1c0.1,0,0.2,0.1,0.2,0.1c0.1,0,0.2,0.1,0.3,0.1c0.1,0,0.2,0.1,0.2,0.1c0,0,0.1,0,0.3,0.1
			c0.1,0,0.2,0.1,0.2,0.1c0.3,0.1,0.6,0.2,0.8,0.4c0.2,0.1,0.3,0.3,0.3,0.5c0,0.3-0.1,0.4-0.3,0.6s-0.5,0.2-0.8,0.2
			c-0.7,0-1.3-0.2-1.9-0.6c-0.1-0.1-0.2,0-0.3,0.1l-0.5,1c-0.1,0.1,0,0.2,0.1,0.2c0.8,0.4,1.6,0.7,2.6,0.7c0.8,0,1.5-0.2,2.1-0.6
			c0.5-0.4,0.8-1,0.8-1.7C60,38.8,59.7,38.3,59.2,37.9z"/>
		<path class="st0" d="M68.1,34.5h-5.9c-0.1,0-0.1,0-0.1,0.1c0,0-0.1,0.1-0.1,0.1v1.2c0,0.1,0,0.1,0.1,0.2c0,0,0.1,0.1,0.1,0.1h2.1
			v5.5c0,0.1,0,0.1,0.1,0.1c0,0,0.1,0.1,0.1,0.1h1.4c0.1,0,0.1,0,0.1-0.1c0,0,0.1-0.1,0.1-0.1v-5.5h2.1c0.1,0,0.2-0.1,0.2-0.2v-1.2
			C68.3,34.5,68.2,34.5,68.1,34.5z"/>
		<path class="st0" d="M76.8,41.4L75.2,39c0.5-0.2,0.8-0.4,1-0.7c0.3-0.4,0.5-0.8,0.5-1.4c0-1-0.4-1.7-1.1-2.1
			c-0.5-0.2-1-0.4-1.6-0.4h-3.1c-0.1,0-0.2,0.1-0.2,0.2v6.9c0,0.1,0.1,0.2,0.2,0.2h1.4c0.1,0,0.1,0,0.1-0.1c0,0,0.1-0.1,0.1-0.1
			v-2.2h1l1.4,2.2c0.1,0.1,0.2,0.2,0.4,0.2h1.5c0.1,0,0.2,0,0.2-0.1C76.9,41.6,76.9,41.5,76.8,41.4z M74.6,37.6
			c-0.2,0.2-0.4,0.2-0.8,0.2h-1.4V36h1.5c0.3,0,0.6,0.1,0.8,0.2c0.2,0.2,0.2,0.4,0.2,0.7C74.9,37.2,74.8,37.4,74.6,37.6z"/>
		<path class="st0" d="M84.8,35.2c-0.6-0.6-1.4-0.9-2.3-0.9c-0.9,0-1.7,0.3-2.3,0.9c-0.6,0.6-0.9,1.3-0.9,2.2v4.1
			c0,0.1,0.1,0.2,0.2,0.2h1.4c0.1,0,0.1,0,0.1-0.1c0,0,0.1-0.1,0.1-0.1v-2h2.8v2c0,0.1,0,0.1,0.1,0.1c0,0,0.1,0.1,0.1,0.1h1.4
			c0.1,0,0.2-0.1,0.2-0.2v-4.1C85.7,36.5,85.4,35.8,84.8,35.2z M83.9,38.1h-2.8v-0.6c0-0.4,0.1-0.8,0.4-1.1c0.2-0.3,0.6-0.4,1-0.4
			c0.4,0,0.8,0.1,1,0.4c0.2,0.3,0.3,0.6,0.3,1.1V38.1z"/>
		<path class="st0" d="M93.7,34.5h-5.9c0,0-0.1,0-0.1,0.1c0,0-0.1,0.1-0.1,0.1v1.2c0,0.1,0,0.1,0.1,0.2c0,0,0.1,0.1,0.1,0.1h2.1v5.5
			c0,0.1,0,0.1,0.1,0.1c0,0,0.1,0.1,0.1,0.1h1.4c0,0,0.1,0,0.1-0.1c0,0,0.1-0.1,0.1-0.1v-5.5h2.1c0.1,0,0.2-0.1,0.2-0.2v-1.2
			C93.9,34.5,93.9,34.5,93.7,34.5z"/>
		<path class="st0" d="M101.7,36.1c0,0,0.1,0,0.1-0.1c0,0,0.1-0.1,0.1-0.1v-1.2c0,0,0-0.1-0.1-0.1c0,0-0.1-0.1-0.1-0.1h-5.2
			c-0.1,0-0.2,0.1-0.2,0.2v6.9c0,0.1,0.1,0.2,0.2,0.2h5.2c0,0,0.1,0,0.1-0.1c0,0,0.1-0.1,0.1-0.1v-1.2c0-0.1-0.1-0.2-0.2-0.2H98
			v-1.3h3.1c0.1,0,0.2-0.1,0.2-0.2v-1.2c0,0,0-0.1-0.1-0.1c0,0-0.1-0.1-0.1-0.1H98v-1.3H101.7z"/>
		<path class="st0" d="M111,37.8c0,0-0.1-0.1-0.2-0.1H108c-0.1,0-0.1,0-0.1,0.1c0,0-0.1,0.1-0.1,0.1V39c0,0.1,0,0.1,0.1,0.2
			c0,0,0.1,0.1,0.1,0.1h1.3v0.7c-0.4,0.2-0.8,0.3-1.3,0.3c-0.6,0-1.1-0.2-1.5-0.6c-0.4-0.4-0.6-0.9-0.6-1.6c0-0.5,0.2-1,0.5-1.4
			c0.4-0.5,0.9-0.7,1.6-0.7c0.6,0,1.1,0.1,1.6,0.4c0.1,0,0.2,0,0.2-0.1l0.5-1.1c0.1-0.1,0-0.2-0.1-0.3c-0.7-0.4-1.5-0.6-2.3-0.6
			c-0.6,0-1.1,0.1-1.6,0.3c-0.5,0.2-1,0.5-1.3,0.9c-0.7,0.7-1,1.5-1,2.5c0,1.2,0.4,2.1,1.1,2.8c0.7,0.7,1.6,1,2.7,1
			c0.5,0,1-0.1,1.4-0.3c0,0.1,0.1,0.2,0.2,0.2h1.3c0.1,0,0.1,0,0.2-0.1c0,0,0.1-0.1,0.1-0.1v-3.7C111.1,37.8,111,37.8,111,37.8z"/>
		<path class="st0" d="M119.9,34.6c0-0.1-0.1-0.1-0.2-0.1h-1.6c-0.1,0-0.2,0.1-0.3,0.2l-1.5,2.3l-1.5-2.3c-0.1-0.2-0.2-0.2-0.3-0.2
			h-1.6c-0.1,0-0.2,0-0.2,0.1c0,0.1,0,0.1,0,0.2l2.7,4v2.8c0,0.1,0.1,0.2,0.2,0.2h1.4c0,0,0.1,0,0.1-0.1c0,0,0.1-0.1,0.1-0.1v-2.8
			l2.7-4C119.9,34.7,119.9,34.6,119.9,34.6z"/>
	</g>
	<g>
		<path class="st0" d="M257.6,35c0,0-0.1-0.1-0.1-0.1h-1.4c-0.1,0-0.2,0.1-0.2,0.2v6.9c0,0.1,0.1,0.2,0.2,0.2h1.4c0,0,0.1,0,0.1-0.1
			c0,0,0.1-0.1,0.1-0.1v-6.9C257.7,35.1,257.7,35.1,257.6,35z"/>
		<path class="st0" d="M268.1,35h-1.3c-0.2,0-0.3,0.1-0.4,0.2l-1.9,3.2l-1.9-3.2c-0.1-0.1-0.2-0.2-0.4-0.2H261
			c-0.1,0-0.2,0.1-0.2,0.2v6.9c0,0.1,0.1,0.2,0.2,0.2h1.3c0,0,0.1,0,0.1-0.1c0,0,0.1-0.1,0.1-0.1v-4l1.3,2.2
			c0.1,0.1,0.2,0.2,0.3,0.2h0.8c0.1,0,0.2-0.1,0.3-0.2l1.3-2.2v4c0,0.1,0,0.1,0.1,0.1c0,0,0.1,0.1,0.1,0.1h1.3
			c0.1,0,0.2-0.1,0.2-0.2v-6.9C268.3,35,268.3,35,268.1,35z"/>
		<path class="st0" d="M276.7,35.7c-0.5-0.5-1.2-0.8-2.1-0.8h-3c-0.1,0-0.2,0.1-0.2,0.2v6.9c0,0.1,0.1,0.2,0.2,0.2h1.4
			c0,0,0.1,0,0.1-0.1c0,0,0.1-0.1,0.1-0.1v-1.9h1.3c0.9,0,1.6-0.2,2.1-0.7c0.5-0.5,0.8-1.1,0.8-2C277.4,36.8,277.2,36.2,276.7,35.7z
			 M275.2,38.4c-0.2,0.1-0.5,0.2-0.8,0.2h-1.2v-2.1h1.2c0.4,0,0.7,0.1,0.9,0.3c0.2,0.2,0.3,0.4,0.3,0.8
			C275.6,38,275.4,38.3,275.2,38.4z"/>
		<path class="st0" d="M286.1,41.9l-1.7-2.4c0.4-0.2,0.8-0.4,1-0.7c0.3-0.4,0.5-0.8,0.5-1.4c0-1-0.4-1.7-1.1-2.1
			c-0.4-0.2-1-0.4-1.6-0.4h-3.1c-0.1,0-0.2,0.1-0.2,0.2v6.9c0,0.1,0.1,0.2,0.2,0.2h1.4c0.1,0,0.1,0,0.2-0.1c0,0,0.1-0.1,0.1-0.1
			v-2.2h1l1.4,2.2c0.1,0.1,0.2,0.2,0.4,0.2h1.5c0.1,0,0.2,0,0.2-0.1C286.2,42.1,286.2,42,286.1,41.9z M283.9,38.1
			c-0.2,0.2-0.4,0.2-0.8,0.2h-1.4v-1.8h1.5c0.3,0,0.6,0.1,0.8,0.2c0.2,0.2,0.2,0.4,0.2,0.7C284.2,37.7,284.1,37.9,283.9,38.1z"/>
		<path class="st0" d="M295.5,36.4c-0.3-0.5-0.8-0.9-1.4-1.1c-0.6-0.3-1.2-0.4-1.9-0.4c-0.7,0-1.3,0.1-1.9,0.4
			c-0.6,0.3-1,0.6-1.4,1.1c-0.5,0.6-0.7,1.4-0.7,2.2c0,0.9,0.2,1.6,0.7,2.2c0.3,0.5,0.8,0.9,1.4,1.1c0.6,0.3,1.2,0.4,1.9,0.4
			c0.7,0,1.3-0.1,1.9-0.4c0.6-0.3,1-0.7,1.4-1.1c0.4-0.6,0.7-1.4,0.7-2.2C296.1,37.8,295.9,37,295.5,36.4z M293.8,40
			c-0.4,0.5-0.9,0.8-1.6,0.8c-0.7,0-1.2-0.2-1.6-0.8c-0.3-0.4-0.4-0.8-0.4-1.4c0-0.5,0.1-1,0.4-1.4c0.4-0.5,1-0.8,1.6-0.8
			c0.7,0,1.2,0.2,1.6,0.8c0.3,0.4,0.4,0.8,0.4,1.4C294.3,39.1,294.1,39.6,293.8,40z"/>
		<path class="st0" d="M305.4,35H304c-0.2,0-0.3,0.1-0.3,0.2l-1.8,4.8h0l-1.8-4.8c0-0.2-0.2-0.2-0.3-0.2h-1.5c-0.1,0-0.1,0-0.2,0.1
			c0,0.1,0,0.1,0,0.2l2.7,6.9c0,0.1,0.1,0.2,0.3,0.2h1.4c0.2,0,0.3-0.1,0.3-0.2l2.7-6.9C305.6,35.1,305.6,35,305.4,35z"/>
		<path class="st0" d="M313.3,36.5c0,0,0.1,0,0.1-0.1c0,0,0.1-0.1,0.1-0.1v-1.2c0-0.1,0-0.1-0.1-0.1c0,0-0.1-0.1-0.1-0.1h-5.2
			c-0.1,0-0.2,0.1-0.2,0.2v6.9c0,0.1,0.1,0.2,0.2,0.2h5.2c0,0,0.1,0,0.1-0.1c0,0,0.1-0.1,0.1-0.1v-1.2c0-0.1-0.1-0.2-0.2-0.2h-3.7
			v-1.3h3.1c0.1,0,0.2-0.1,0.2-0.2V38c0-0.1,0-0.1-0.1-0.1c0-0.1-0.1-0.1-0.1-0.1h-3.1v-1.3H313.3z"/>
		<path class="st0" d="M323.4,35h-1.3c-0.2,0-0.3,0.1-0.4,0.2l-1.9,3.2l-1.9-3.2c-0.1-0.1-0.2-0.2-0.4-0.2h-1.3
			c-0.1,0-0.2,0.1-0.2,0.2v6.9c0,0.1,0.1,0.2,0.2,0.2h1.3c0,0,0.1,0,0.1-0.1c0,0,0.1-0.1,0.1-0.1v-4l1.3,2.2
			c0.1,0.1,0.2,0.2,0.3,0.2h0.8c0.1,0,0.2-0.1,0.3-0.2l1.3-2.2v4c0,0.1,0,0.1,0.1,0.1c0,0,0.1,0.1,0.1,0.1h1.3
			c0.1,0,0.2-0.1,0.2-0.2v-6.9C323.6,35,323.6,35,323.4,35z"/>
		<path class="st0" d="M332.2,36.5c0.1,0,0.1,0,0.2-0.1c0,0,0.1-0.1,0.1-0.1v-1.2c0-0.1,0-0.1-0.1-0.1c0,0-0.1-0.1-0.2-0.1h-5.2
			c-0.1,0-0.2,0.1-0.2,0.2v6.9c0,0.1,0.1,0.2,0.2,0.2h5.2c0.1,0,0.1,0,0.2-0.1c0,0,0.1-0.1,0.1-0.1v-1.2c0-0.1-0.1-0.2-0.2-0.2h-3.7
			v-1.3h3.1c0.1,0,0.2-0.1,0.2-0.2V38c0-0.1,0-0.1-0.1-0.1c0-0.1-0.1-0.1-0.1-0.1h-3.1v-1.3H332.2z"/>
		<path class="st0" d="M341.5,35c0,0-0.1-0.1-0.1-0.1H340c-0.1,0-0.1,0-0.1,0.1c0,0-0.1,0.1-0.1,0.1v4.1l-3.4-4.1
			c-0.1-0.1-0.2-0.2-0.4-0.2h-1c-0.1,0-0.2,0.1-0.2,0.2v6.9c0,0.1,0.1,0.2,0.2,0.2h1.3c0.1,0,0.1,0,0.2-0.1c0,0,0.1-0.1,0.1-0.1V38
			l3.4,4.1c0.1,0.1,0.2,0.2,0.4,0.2h1c0.1,0,0.1,0,0.1-0.1c0,0,0.1-0.1,0.1-0.1v-6.9C341.5,35.1,341.5,35.1,341.5,35z"/>
		<path class="st0" d="M350,35H344c-0.1,0-0.1,0-0.1,0.1c0,0-0.1,0.1-0.1,0.1v1.2c0,0.1,0,0.1,0.1,0.2c0,0,0.1,0.1,0.1,0.1h2.1v5.5
			c0,0.1,0,0.1,0.1,0.1c0,0,0.1,0.1,0.1,0.1h1.4c0.1,0,0.1,0,0.1-0.1c0,0,0.1-0.1,0.1-0.1v-5.5h2.1c0.1,0,0.2-0.1,0.2-0.2v-1.2
			C350.2,35,350.1,35,350,35z"/>
	</g>
	<g>
		<path class="st0" d="M177.9,123c-0.7-0.8-1.7-1.1-3-1.1h-2.8c-0.1,0-0.2,0.1-0.2,0.2v6.9c0,0.1,0.1,0.2,0.2,0.2h2.6
			c1,0,1.8-0.2,2.4-0.5c1.1-0.6,1.6-1.7,1.6-3.1C178.8,124.5,178.5,123.6,177.9,123z M175.9,127.4c-0.4,0.2-0.8,0.2-1.3,0.2h-0.9
			v-4.2h1c0.8,0,1.4,0.2,1.8,0.6c0.3,0.3,0.5,0.9,0.5,1.5C176.9,126.5,176.6,127.1,175.9,127.4z"/>
		<path class="st0" d="M186.9,123.5c0.1,0,0.1,0,0.2-0.1c0,0,0.1-0.1,0.1-0.1v-1.2c0,0,0-0.1-0.1-0.1c-0.1,0-0.1-0.1-0.2-0.1h-5.2
			c-0.1,0-0.2,0.1-0.2,0.2v6.9c0,0.1,0.1,0.2,0.2,0.2h5.2c0.1,0,0.1,0,0.2-0.1c0,0,0.1-0.1,0.1-0.1v-1.2c0-0.1-0.1-0.2-0.2-0.2h-3.7
			v-1.3h3.1c0.1,0,0.2-0.1,0.2-0.2V125c0-0.1,0-0.1-0.1-0.1c0,0-0.1-0.1-0.1-0.1h-3.1v-1.3H186.9z"/>
		<path class="st0" d="M193.9,125.3c-0.1-0.1-0.2-0.1-0.4-0.2s-0.3-0.1-0.4-0.2c-0.2-0.1-0.3-0.1-0.4-0.1c-0.1,0-0.2-0.1-0.4-0.1
			c-0.2,0-0.3-0.1-0.4-0.1c-0.3-0.1-0.5-0.2-0.7-0.3c-0.2-0.1-0.2-0.2-0.2-0.4c0-0.2,0.1-0.3,0.2-0.5c0.2-0.1,0.4-0.2,0.7-0.2
			c0.6,0,1.2,0.2,1.8,0.5c0.1,0.1,0.2,0,0.2-0.1l0.5-1c0.1-0.1,0-0.2-0.1-0.2c-0.7-0.4-1.5-0.6-2.3-0.6c-0.9,0-1.6,0.2-2.1,0.6
			c-0.5,0.4-0.7,0.8-0.7,1.5c0,0.7,0.2,1.2,0.7,1.6c0.1,0,0.2,0.1,0.2,0.2c0.1,0,0.2,0.1,0.2,0.1c0.1,0,0.2,0.1,0.3,0.1
			c0.1,0,0.2,0.1,0.2,0.1c0.1,0,0.1,0.1,0.3,0.1c0.1,0,0.2,0.1,0.2,0.1c0,0,0.1,0,0.3,0.1c0.1,0,0.2,0.1,0.2,0.1
			c0.3,0.1,0.6,0.2,0.8,0.4c0.2,0.1,0.3,0.3,0.3,0.5c0,0.3-0.1,0.4-0.3,0.6c-0.2,0.1-0.4,0.2-0.8,0.2c-0.7,0-1.3-0.2-1.9-0.6
			c-0.1-0.1-0.2,0-0.3,0.1l-0.5,1c-0.1,0.1-0.1,0.2,0.1,0.2c0.8,0.4,1.6,0.7,2.6,0.7c0.9,0,1.5-0.2,2-0.6c0.5-0.4,0.8-1,0.8-1.7
			C194.8,126.3,194.5,125.7,193.9,125.3z"/>
		<path class="st0" d="M199.2,122c0,0-0.1-0.1-0.1-0.1h-1.4c-0.1,0-0.2,0.1-0.2,0.2v6.9c0,0.1,0.1,0.2,0.2,0.2h1.4
			c0.1,0,0.1,0,0.1-0.1c0,0,0.1-0.1,0.1-0.1v-6.9C199.2,122,199.2,122,199.2,122z"/>
		<path class="st0" d="M208.8,125.2c0,0-0.1-0.1-0.1-0.1h-2.9c0,0-0.1,0-0.1,0.1c0,0-0.1,0.1-0.1,0.1v1.1c0,0.1,0,0.1,0.1,0.2
			c0,0,0.1,0.1,0.1,0.1h1.3v0.7c-0.4,0.2-0.8,0.3-1.3,0.3c-0.6,0-1.1-0.2-1.5-0.6c-0.4-0.4-0.6-0.9-0.6-1.6c0-0.5,0.2-1,0.5-1.4
			c0.4-0.5,0.9-0.7,1.6-0.7c0.6,0,1.1,0.1,1.6,0.4c0.1,0.1,0.2,0,0.3-0.1l0.5-1.1c0-0.1,0-0.2-0.1-0.3c-0.7-0.4-1.5-0.6-2.3-0.6
			c-0.6,0-1.1,0.1-1.6,0.4c-0.5,0.2-1,0.5-1.3,0.9c-0.7,0.7-1,1.5-1,2.5c0,1.2,0.4,2.1,1.1,2.8c0.7,0.7,1.6,1,2.6,1
			c0.5,0,1-0.1,1.5-0.3c0,0.1,0.1,0.2,0.2,0.2h1.3c0.1,0,0.1,0,0.1-0.1c0,0,0.1-0.1,0.1-0.1v-3.7
			C208.9,125.3,208.9,125.2,208.8,125.2z"/>
		<path class="st0" d="M218.4,122c0,0-0.1-0.1-0.1-0.1H217c-0.1,0-0.1,0-0.1,0.1c0,0-0.1,0.1-0.1,0.1v4.1l-3.4-4.1
			c-0.1-0.2-0.2-0.2-0.4-0.2h-1c-0.1,0-0.2,0.1-0.2,0.2v6.9c0,0.1,0.1,0.2,0.2,0.2h1.3c0.1,0,0.1,0,0.2-0.1c0,0,0.1-0.1,0.1-0.1
			v-4.1l3.4,4.1c0.1,0.1,0.2,0.2,0.4,0.2h1c0.1,0,0.1,0,0.1-0.1c0,0,0.1-0.1,0.1-0.1v-6.9C218.5,122,218.4,122,218.4,122z"/>
	</g>
	<g>
		<path class="st0" d="M96.6,87.2c-0.1-0.1-0.2-0.2-0.4-0.2h-5V66.8c0-0.4-0.2-0.5-0.6-0.5h-2.5c-0.3,0-0.7,0.1-1.2,0.2l-6.3,2.2
			C80.2,68.8,80,69,80,69.4v3.4c0,0.5,0.3,0.7,0.8,0.6l5-1.8V87h-5.3c-0.1,0-0.3,0.1-0.4,0.2c-0.1,0.1-0.2,0.2-0.2,0.4v3.5
			c0,0.2,0.1,0.3,0.2,0.4c0.1,0.1,0.2,0.2,0.4,0.2h15.7c0.2,0,0.3-0.1,0.4-0.2s0.2-0.2,0.2-0.4v-3.5C96.7,87.5,96.7,87.3,96.6,87.2z
			"/>
	</g>
	<g>
		<path class="st0" d="M204.2,87h-10.6c0-1.3,0.4-2.3,1.3-3c0.6-0.5,1.8-1.2,3.5-2.2c1.7-0.9,3-1.8,4-2.6c1.7-1.6,2.6-3.6,2.6-5.9
			c0-1.9-0.6-3.5-1.8-4.8c-1.6-1.7-3.6-2.5-6.3-2.5c-2.8,0-5.6,0.9-8.4,2.6c-0.3,0.2-0.4,0.5-0.2,0.7l1.5,3c0.2,0.3,0.4,0.4,0.9,0.1
			c2.1-1.4,4-2.1,5.8-2.1c1.2,0,2,0.3,2.7,0.9c0.6,0.6,0.8,1.3,0.8,2.2c0,1.1-0.5,2.1-1.4,2.9c-0.6,0.5-1.9,1.3-3.7,2.3
			c-1.9,1-3.2,1.9-4.2,2.8c-1,1-1.7,2.1-2.2,3.2c-0.4,1.2-0.6,2.7-0.6,4.5v1.8c0,0.4,0.2,0.6,0.5,0.6h15.8c0.2,0,0.3-0.1,0.4-0.2
			c0.1-0.1,0.2-0.2,0.2-0.4v-3.5c0-0.2-0.1-0.3-0.2-0.4C204.6,87.1,204.4,87,204.2,87z"/>
	</g>
	<g>
		<path class="st0" d="M306.6,78.5c2.5-1.1,3.7-3,3.7-5.8c0-2.1-0.8-3.7-2.3-5c-1.3-1.1-3-1.6-5.1-1.6c-2.5,0-4.9,0.8-7.3,2.3
			c-0.3,0.2-0.4,0.5-0.2,0.8l1.5,2.9c0.2,0.3,0.5,0.4,0.9,0.1c1.7-1.1,3.3-1.7,4.8-1.7c0.8,0,1.5,0.2,2.1,0.7c0.7,0.5,1,1.2,1,2.1
			c0,1.2-0.5,2.1-1.5,2.8c-0.8,0.4-1.9,0.6-3.2,0.6h-1.2c-0.1,0-0.3,0.1-0.4,0.2c-0.1,0.1-0.2,0.2-0.2,0.4v3c0,0.4,0.2,0.6,0.5,0.6
			h1.6c1.5,0,2.5,0.2,3.3,0.6c1.1,0.6,1.7,1.6,1.7,2.9c0,1.3-0.5,2.2-1.4,2.8c-0.6,0.4-1.5,0.6-2.6,0.6c-1.7,0-3.3-0.5-4.9-1.6
			c-0.4-0.2-0.6-0.2-0.8,0.1l-1.5,3c-0.2,0.3-0.1,0.5,0.2,0.7c2,1.3,4.5,1.9,7.4,1.9c2.4,0,4.5-0.6,6-1.7c1.7-1.3,2.6-3.1,2.6-5.4
			C311.2,81.7,309.7,79.6,306.6,78.5z"/>
	</g>
	<g>
		<path class="st0" d="M87.5,52.3c-14.9,0-27,12.1-27,27s12.1,27,27,27c14.9,0,27-12.1,27-27S102.4,52.3,87.5,52.3z M87.5,104.3
			c-13.8,0-25-11.2-25-25s11.2-25,25-25c13.8,0,25,11.2,25,25S101.3,104.3,87.5,104.3z"/>
	</g>
	<g>
		<path class="st0" d="M303.6,10.1c-41.9,0-76.6,26.5-81.6,60.7c-3.6-10.7-13.7-18.5-25.6-18.5c-11.9,0-22,7.8-25.6,18.5
			c-2.3-15.2-10.8-29.4-24.4-40.5c-16-13-36.9-20.2-58.9-20.2c-45.3,0-82.2,31-82.2,69.2c0,38.2,36.9,69.2,82.2,69.2
			c18,0,35-4.8,49.3-13.8l-1.1-1.7c-14,8.8-30.7,13.5-48.3,13.5c-44.2,0-80.2-30.2-80.2-67.2s36-67.2,80.2-67.2
			c21.6,0,42.1,7,57.7,19.7c15.6,12.8,24.3,29.6,24.3,47.5c0,14.9,12.1,27,27,27c14.9,0,27-12.1,27-27c0-37.1,36-67.2,80.2-67.2
			s80.2,30.1,80.2,67.2s-36,67.2-80.2,67.2c-17.3,0-33.8-4.5-47.7-13.1l-1,1.7c14.2,8.8,31,13.4,48.7,13.4c45.3,0,82.2-31,82.2-69.2
			C385.8,41.1,348.9,10.1,303.6,10.1z M196.4,104.3c-13.8,0-25-11.2-25-25s11.2-25,25-25s25,11.2,25,25S210.1,104.3,196.4,104.3z"/>
	</g>
	<g>
		<path class="st0" d="M195.5,151.9c-39.6,0-73.9-23.9-81.5-56.8l1.9-0.5c7.4,32,40.9,55.2,79.6,55.2c39.1,0,72.6-23.5,79.7-55.9
			l2,0.4C269.9,127.7,235.5,151.9,195.5,151.9z"/>
	</g>
	<g>
		<path class="st0" d="M147.6,25.9l-1.1-1.7c14.4-9.3,31.7-14.2,49.9-14.2c18,0,35.1,4.8,49.4,13.9l-1.1,1.7
			c-14-8.9-30.7-13.6-48.4-13.6C178.6,12.1,161.7,16.9,147.6,25.9z"/>
	</g>
	<g>
		<path class="st0" d="M303.6,52.3c-14.9,0-27,12.1-27,27s12.1,27,27,27c14.9,0,27-12.1,27-27S318.5,52.3,303.6,52.3z M303.6,104.3
			c-13.8,0-25-11.2-25-25s11.2-25,25-25c13.8,0,25,11.2,25,25S317.4,104.3,303.6,104.3z"/>
	</g>
</g>
</svg>
