<?xml version="1.0" encoding="utf-8"?>
<!-- Generator: Adobe Illustrator 20.0.0, SVG Export Plug-In . SVG Version: 6.00 Build 0)  -->
<svg version="1.1" id="Layer_1" xmlns="http://www.w3.org/2000/svg" xmlns:xlink="http://www.w3.org/1999/xlink" x="0px" y="0px"
	 viewBox="0 0 100 100" style="enable-background:new 0 0 100 100;" xml:space="preserve">
<g>
	<g>
		<polygon points="84,49 84,61.7 82,61.7 82,51 51.5,51 51.5,62 49.5,62 49.5,51 19,51 19,62.3 17,62.3 17,49 49.5,49 49.5,38.1 
			51.5,38.1 51.5,49 		"/>
	</g>
	<g>
		<path d="M17.9,84.7c-5.5,0-10-4.5-10-10c0-5.5,4.5-10,10-10c5.5,0,10,4.5,10,10C28,80.2,23.5,84.7,17.9,84.7z M17.9,66.6
			c-4.4,0-8,3.6-8,8c0,4.4,3.6,8,8,8s8-3.6,8-8C26,70.2,22.4,66.6,17.9,66.6z"/>
	</g>
	<g>
		<path d="M50.5,84.7c-5.5,0-10-4.5-10-10c0-5.5,4.5-10,10-10s10,4.5,10,10C60.5,80.2,56,84.7,50.5,84.7z M50.5,66.6
			c-4.4,0-8,3.6-8,8c0,4.4,3.6,8,8,8s8-3.6,8-8C58.5,70.2,54.9,66.6,50.5,66.6z"/>
	</g>
	<g>
		<path d="M83,84.7c-5.5,0-10-4.5-10-10c0-5.5,4.5-10,10-10s10,4.5,10,10C93,80.2,88.5,84.7,83,84.7z M83,66.6c-4.4,0-8,3.6-8,8
			c0,4.4,3.6,8,8,8s8-3.6,8-8C91,70.2,87.4,66.6,83,66.6z"/>
	</g>
	<g>
		<path d="M50.5,34.6c-5.5,0-10-4.5-10-10s4.5-10,10-10s10,4.5,10,10S56,34.6,50.5,34.6z M50.5,16.6c-4.4,0-8,3.6-8,8s3.6,8,8,8
			s8-3.6,8-8S54.9,16.6,50.5,16.6z"/>
	</g>
</g>
</svg>
