<?xml version="1.0" encoding="utf-8"?>
<!-- Generator: Adobe Illustrator 20.0.0, SVG Export Plug-In . SVG Version: 6.00 Build 0)  -->
<svg version="1.1" id="Layer_2" xmlns="http://www.w3.org/2000/svg" xmlns:xlink="http://www.w3.org/1999/xlink" x="0px" y="0px"
	 viewBox="0 0 100 100" style="enable-background:new 0 0 100 100;" xml:space="preserve">
<style type="text/css">
	.st0{fill:#E0C1A5;}
</style>
<g>
	<g>
		<path class="st0" d="M93,11H8c-1.6,0-2.8,1.3-2.8,2.8v56c0,1.6,1.3,2.8,2.8,2.8h40.5l-14.7,22c-0.1,0.2-0.2,0.4-0.2,0.6
			c0,0.3,0.2,0.6,0.4,0.8c0.5,0.3,1.1,0.2,1.4-0.3l15-22.3l15.4,22.3c0.2,0.3,0.5,0.4,0.8,0.4c0.2,0,0.4-0.1,0.6-0.2
			c0.4-0.3,0.6-0.9,0.2-1.4l-15.2-22H93c1.6,0,2.8-1.3,2.8-2.8v-56C95.9,12.3,94.6,11,93,11z M93.9,69.9c0,0.5-0.4,0.8-0.8,0.8H8
			c-0.5,0-0.8-0.4-0.8-0.8v-56C7.1,13.4,7.5,13,8,13H93c0.5,0,0.8,0.4,0.8,0.8V69.9z"/>
	</g>
	<g>
		<path class="st0" d="M39.4,63.9H14.8c-1.6,0-2.8-1.3-2.8-2.8V43.7c0-1.6,1.3-2.8,2.8-2.8h24.5c1.6,0,2.8,1.3,2.8,2.8v17.4
			C42.2,62.7,40.9,63.9,39.4,63.9z M14.8,42.9c-0.5,0-0.8,0.4-0.8,0.8v17.4c0,0.5,0.4,0.8,0.8,0.8h24.5c0.5,0,0.8-0.4,0.8-0.8V43.7
			c0-0.5-0.4-0.8-0.8-0.8H14.8z"/>
	</g>
	<g>
		<path class="st0" d="M70.1,30.8c-9.5,0-17.3,7.8-17.3,17.3c0,9.5,7.8,17.3,17.3,17.3c9.5,0,17.3-7.8,17.3-17.3
			C87.4,38.6,79.6,30.8,70.1,30.8z M69.1,32.9v14.5l-13.2-5C58,37.1,63.1,33.3,69.1,32.9z M70.1,63.4c-8.4,0-15.3-6.8-15.3-15.3
			c0-1.3,0.2-2.6,0.5-3.8l13.2,5c0.2,0.1,0.5,0.1,0.7,0.1c0.4,0,0.8-0.1,1.1-0.3c0.5-0.4,0.8-1,0.8-1.6V32.9
			c8,0.5,14.3,7.2,14.3,15.2C85.4,56.5,78.5,63.4,70.1,63.4z"/>
	</g>
	<g>
		<rect x="11" y="21.6" class="st0" width="40.2" height="2"/>
	</g>
	<g>
		<rect x="11" y="28.3" class="st0" width="40.2" height="2"/>
	</g>
</g>
</svg>
