<?xml version="1.0" encoding="utf-8"?>
<!-- Generator: Adobe Illustrator 20.0.0, SVG Export Plug-In . SVG Version: 6.00 Build 0)  -->
<svg version="1.1" id="Layer_2" xmlns="http://www.w3.org/2000/svg" xmlns:xlink="http://www.w3.org/1999/xlink" x="0px" y="0px"
	 viewBox="0 0 100 100" style="enable-background:new 0 0 100 100;" xml:space="preserve">
<style type="text/css">
	.st0{fill:#E0C1A5;}
</style>
<g>
	<path class="st0" d="M75.4,23.8h-53c-1.6,0-2.8,1.3-2.8,2.8v33.5c0,1.5,1.3,2.8,2.8,2.8h24.9l-8.8,13c-0.3,0.5-0.2,1.1,0.3,1.4h0
		c0.5,0.3,1.1,0.2,1.4-0.3l9.1-13.3L58.3,77c0.3,0.5,0.9,0.6,1.4,0.3l0,0c0.5-0.3,0.6-0.9,0.3-1.4L51,63h24.4c1.6,0,2.8-1.3,2.8-2.8
		V26.7C78.2,25.1,77,23.8,75.4,23.8z M76.2,60.1c0,0.5-0.4,0.8-0.8,0.8h-53c-0.5,0-0.8-0.4-0.8-0.8V26.7c0-0.5,0.4-0.8,0.8-0.8h53
		c0.5,0,0.8,0.4,0.8,0.8V60.1z"/>
</g>
<g>
	<path class="st0" d="M42.3,57.5h-16c-1.1,0-2.1-0.9-2.1-2.1V44.1c0-1.1,0.9-2.1,2.1-2.1h16c1.1,0,2.1,0.9,2.1,2.1v11.3
		C44.4,56.6,43.4,57.5,42.3,57.5z M26.3,44.1l-0.1,11.4l16.1,0.1c0,0,0.1,0,0.1-0.1V44.1L26.3,44.1z"/>
</g>
<g>
	<path class="st0" d="M61.6,36c-6.1,0-11.1,5-11.1,11.1c0,6.1,5,11.1,11.1,11.1c6.1,0,11.1-5,11.1-11.1C72.7,40.9,67.7,36,61.6,36z
		 M60.6,38l-0.1,8l-7.1-2.8C54.8,40.4,57.5,38.4,60.6,38z M61.6,56.1c-5,0-9.1-4.1-9.1-9.1c0-0.7,0.1-1.3,0.2-2l7.7,3
		c0.2,0.1,0.4,0.1,0.5,0.1c0.3,0,0.6-0.1,0.8-0.2c0.4-0.3,0.6-0.7,0.7-1.2l0.1-8.7c4.5,0.5,8.1,4.3,8.1,9
		C70.7,52,66.6,56.1,61.6,56.1z"/>
</g>
<g>
	<rect x="24.1" y="29.9" class="st0" width="25.4" height="2"/>
</g>
<g>
	<rect x="24.1" y="34.1" class="st0" width="25.4" height="2"/>
</g>
</svg>
