<?xml version="1.0" encoding="utf-8"?>
<!-- Generator: Adobe Illustrator 21.1.0, SVG Export Plug-In . SVG Version: 6.00 Build 0)  -->
<svg version="1.1" id="Layer_1" xmlns="http://www.w3.org/2000/svg" xmlns:xlink="http://www.w3.org/1999/xlink" x="0px" y="0px"
	 viewBox="0 0 449.3 535.1" style="enable-background:new 0 0 449.3 535.1;" xml:space="preserve">
<style type="text/css">
	.st0{fill:#E2F3E6;}
</style>
<path class="st0" d="M152.705,454.103l0.124,0.068l0.428,0.396l48.688,47.68l0.152,0.164l102.744,27.652l75.939-66.092
	l30.967-19.547l27.91-59.696l0.136-0.248l-2.246-361.828l-123.1,26.508l-0.192,0.056l-1.18,0.24L193.88,5.037l-91.876,26.781
	L9.508,156.172l80.876,277.453L152.705,454.103z M79.123,387.847l41.578,10.067L91.66,430.857L79.123,387.847z M92.932,432.361
	l29.341-33.343l28.948,52.497L92.932,432.361z M124.082,398.074l59.542-11.211l39.284,22.922l-69.103,42.017L124.082,398.074z
	 M248.246,372.714l-64.194,12.046l-0.288,0.084L125.69,395.73l83.805-79.843L248.246,372.714z M210.875,314.548l4.401-4.199l0,0
	l113.715,6.33l0.056,0.192l-78.813,55.159L210.875,314.548z M249.189,374.522l21.41,60.943l-84.012-49.153L249.189,374.522z
	 M251.054,373.77l78.033-54.62l3.627,59.253l-59.817,57.434L251.054,373.77z M331.098,317.835l24.935-17.372l24.72,48
	l-46.029,28.625L331.098,317.835z M355.35,298.475l-24.415,17.012l-69.438-139.231c16.586,11.519,89.274,62.202,97.473,67.104
	L355.35,298.475z M328.279,314.595l-112.011-6.202l42.837-132.481L328.279,314.595z M214.072,308.72l-4.237,4.047l-53.564-78.341
	l100.921-59L214.072,308.72z M155.424,232.591l-18.056-73.379l118.43,14.643L155.424,232.591z M208.291,314.259l-8.869,8.523
	l-55.896-26.309l11.838-59.802L208.291,314.259z M197.849,324.178l-73.691,70.228l19.007-95.953L197.849,324.178z M155.009,453.431
	l69.815-42.433l45.94,26.815l-68.17,62.369L155.009,453.431z M204.617,501.051l67.446-61.637l31.006,88.145L204.617,501.051z
	 M305.073,527.287l-31.006-88.145l104.06,24.665L305.073,527.287z M380.027,462.107l-105.628-25.041l59.325-56.979l75.586,63.484
	L380.027,462.107z M437.812,384.12l-27.121,58.112l-75.214-63.28l46.713-29.137l55.395,4.581L437.812,384.12z M437.629,352.404
	l-51.987-4.324l51.816-25.208L437.629,352.404z M437.446,320.688l-55.008,26.763l-24.748-48.096l79.348-50.107L437.446,320.688z
	 M436.97,246.872l-79.512,50.259l6.812-103.127l57.889-9.375l14.54,24.51L436.97,246.872z M436.664,205.088l-13.057-21.922
	L419,104.825l17.002-10.997L436.664,205.088z M435.553,25.108l0.381,66.344l-17.522,11.357l-26.257-68.28L435.553,25.108z
	 M390.18,34.896l25.881,67.348L315.993,50.897L390.18,34.896z M417.036,104.877l4.632,77.709l-57.574,9.387L315.88,53.013
	L417.036,104.877z M362.302,193.328l-3.152,47.792c-10.103-6.43-73.084-50.256-98.949-68.236L314.184,54.34L362.302,193.328z
	 M195.048,7.613l118.161,44.095L258.33,172.179l-46.143-5.715L195.048,7.613z M193,7.377l8.975,83.317l-96.819-57.711L193,7.377z
	 M102.936,33.943l99.355,59.264l7.82,72.925l-73.387-9.128L86.092,56.56L102.936,33.943z M84.756,58.408l50.048,99.156
	l-52.969,30.544L12.24,155.896L84.756,58.408z M12.184,158.204l67.419,31.179l-49.929,28.824L12.184,158.204z M30.262,220.223
	l105.226-60.671l18.324,74.655l-12.158,61.562l-98.239-30.424L30.262,220.223z M44.086,267.649l93.891,29.087l-81.494,13.443
	L44.086,267.649z M57.043,312.099l84.074-13.883L121.75,396.15l-43.27-10.511L57.043,312.099z"/>
</svg>
