<?xml version="1.0" encoding="utf-8"?>
<!-- Generator: Adobe Illustrator 21.1.0, SVG Export Plug-In . SVG Version: 6.00 Build 0)  -->
<svg version="1.1" id="Layer_1" xmlns="http://www.w3.org/2000/svg" xmlns:xlink="http://www.w3.org/1999/xlink" x="0px" y="0px"
	 viewBox="0 0 94.5 96.14" style="enable-background:new 0 0 94.5 96.14;" xml:space="preserve">
<style type="text/css">
	.st0{opacity:0.31;}
	.st1{fill:#C4DFE5;}
	.st2{fill:#D7EFF2;}
	.st3{fill:#FDEAE4;}
	.st4{fill:#E4CDB6;}
	.st5{fill:#FFFFFF;}
	.st6{fill:#6B768E;}
</style>
<g id="Layer_1_1_">
</g>
<g id="Layer_4">
	<g>
		<g>
			<g class="st0">
				<g>
					<g>
						<g>
							<circle class="st1" cx="90.15" cy="91.2" r="1.2"/>
						</g>
					</g>
					<g>
						<g>
							<circle class="st1" cx="80.65" cy="91.2" r="1.2"/>
						</g>
					</g>
					<g>
						<g>
							<circle class="st1" cx="71.15" cy="91.2" r="1.2"/>
						</g>
					</g>
					<g>
						<g>
							<circle class="st1" cx="61.65" cy="91.2" r="1.2"/>
						</g>
					</g>
					<g>
						<g>
							<circle class="st1" cx="52.05" cy="91.2" r="1.2"/>
						</g>
					</g>
					<g>
						<g>
							<circle class="st1" cx="42.55" cy="91.2" r="1.2"/>
						</g>
					</g>
					<g>
						<g>
							<circle class="st1" cx="33.05" cy="91.2" r="1.2"/>
						</g>
					</g>
					<g>
						<g>
							<circle class="st1" cx="23.55" cy="91.2" r="1.2"/>
						</g>
					</g>
					<g>
						<g>
							<circle class="st1" cx="14.05" cy="91.2" r="1.2"/>
						</g>
					</g>
					<g>
						<g>
							<circle class="st1" cx="4.55" cy="91.2" r="1.2"/>
						</g>
					</g>
				</g>
				<g>
					<g>
						<g>
							<circle class="st1" cx="90.15" cy="81.7" r="1.2"/>
						</g>
					</g>
					<g>
						<g>
							<circle class="st1" cx="80.65" cy="81.7" r="1.2"/>
						</g>
					</g>
					<g>
						<g>
							<circle class="st1" cx="71.15" cy="81.7" r="1.2"/>
						</g>
					</g>
					<g>
						<g>
							<circle class="st1" cx="61.65" cy="81.7" r="1.2"/>
						</g>
					</g>
					<g>
						<g>
							<circle class="st1" cx="52.05" cy="81.7" r="1.2"/>
						</g>
					</g>
					<g>
						<g>
							<circle class="st1" cx="42.55" cy="81.7" r="1.2"/>
						</g>
					</g>
					<g>
						<g>
							<circle class="st1" cx="33.05" cy="81.7" r="1.2"/>
						</g>
					</g>
					<g>
						<g>
							<circle class="st1" cx="23.55" cy="81.7" r="1.2"/>
						</g>
					</g>
					<g>
						<g>
							<circle class="st1" cx="14.05" cy="81.7" r="1.2"/>
						</g>
					</g>
					<g>
						<g>
							<circle class="st1" cx="4.55" cy="81.7" r="1.2"/>
						</g>
					</g>
				</g>
				<g>
					<g>
						<g>
							<circle class="st1" cx="90.15" cy="72.2" r="1.2"/>
						</g>
					</g>
					<g>
						<g>
							<circle class="st1" cx="80.65" cy="72.2" r="1.2"/>
						</g>
					</g>
					<g>
						<g>
							<circle class="st1" cx="71.15" cy="72.2" r="1.2"/>
						</g>
					</g>
					<g>
						<g>
							<circle class="st1" cx="61.65" cy="72.2" r="1.2"/>
						</g>
					</g>
					<g>
						<g>
							<circle class="st1" cx="52.05" cy="72.2" r="1.2"/>
						</g>
					</g>
					<g>
						<g>
							<circle class="st1" cx="42.55" cy="72.2" r="1.2"/>
						</g>
					</g>
					<g>
						<g>
							<circle class="st1" cx="33.05" cy="72.2" r="1.2"/>
						</g>
					</g>
					<g>
						<g>
							<circle class="st1" cx="23.55" cy="72.2" r="1.2"/>
						</g>
					</g>
					<g>
						<g>
							<circle class="st1" cx="14.05" cy="72.2" r="1.2"/>
						</g>
					</g>
					<g>
						<g>
							<circle class="st1" cx="4.55" cy="72.2" r="1.2"/>
						</g>
					</g>
				</g>
				<g>
					<g>
						<g>
							<circle class="st1" cx="90.15" cy="62.7" r="1.2"/>
						</g>
					</g>
					<g>
						<g>
							<circle class="st1" cx="80.65" cy="62.7" r="1.2"/>
						</g>
					</g>
					<g>
						<g>
							<circle class="st1" cx="71.15" cy="62.7" r="1.2"/>
						</g>
					</g>
					<g>
						<g>
							<circle class="st1" cx="61.65" cy="62.7" r="1.2"/>
						</g>
					</g>
					<g>
						<g>
							<circle class="st1" cx="52.05" cy="62.7" r="1.2"/>
						</g>
					</g>
					<g>
						<g>
							<circle class="st1" cx="42.55" cy="62.7" r="1.2"/>
						</g>
					</g>
					<g>
						<g>
							<circle class="st1" cx="33.05" cy="62.7" r="1.2"/>
						</g>
					</g>
					<g>
						<g>
							<circle class="st1" cx="23.55" cy="62.7" r="1.2"/>
						</g>
					</g>
					<g>
						<g>
							<circle class="st1" cx="14.05" cy="62.7" r="1.2"/>
						</g>
					</g>
					<g>
						<g>
							<circle class="st1" cx="4.55" cy="62.7" r="1.2"/>
						</g>
					</g>
				</g>
				<g>
					<g>
						<g>
							<circle class="st1" cx="90.15" cy="53.2" r="1.2"/>
						</g>
					</g>
					<g>
						<g>
							<circle class="st1" cx="80.65" cy="53.2" r="1.2"/>
						</g>
					</g>
					<g>
						<g>
							<circle class="st1" cx="71.15" cy="53.2" r="1.2"/>
						</g>
					</g>
					<g>
						<g>
							<circle class="st1" cx="61.65" cy="53.2" r="1.2"/>
						</g>
					</g>
					<g>
						<g>
							<circle class="st1" cx="52.05" cy="53.2" r="1.2"/>
						</g>
					</g>
					<g>
						<g>
							<circle class="st1" cx="42.55" cy="53.2" r="1.2"/>
						</g>
					</g>
					<g>
						<g>
							<circle class="st1" cx="33.05" cy="53.2" r="1.2"/>
						</g>
					</g>
					<g>
						<g>
							<circle class="st1" cx="23.55" cy="53.2" r="1.2"/>
						</g>
					</g>
					<g>
						<g>
							<circle class="st1" cx="14.05" cy="53.2" r="1.2"/>
						</g>
					</g>
					<g>
						<g>
							<circle class="st1" cx="4.55" cy="53.2" r="1.2"/>
						</g>
					</g>
				</g>
				<g>
					<g>
						<g>
							<circle class="st1" cx="90.15" cy="43.7" r="1.2"/>
						</g>
					</g>
					<g>
						<g>
							<circle class="st1" cx="80.65" cy="43.7" r="1.2"/>
						</g>
					</g>
					<g>
						<g>
							<circle class="st1" cx="71.15" cy="43.7" r="1.2"/>
						</g>
					</g>
					<g>
						<g>
							<circle class="st1" cx="61.65" cy="43.7" r="1.2"/>
						</g>
					</g>
					<g>
						<g>
							<circle class="st1" cx="52.05" cy="43.7" r="1.2"/>
						</g>
					</g>
					<g>
						<g>
							<circle class="st1" cx="42.55" cy="43.7" r="1.2"/>
						</g>
					</g>
					<g>
						<g>
							<circle class="st1" cx="33.05" cy="43.7" r="1.2"/>
						</g>
					</g>
					<g>
						<g>
							<circle class="st1" cx="23.55" cy="43.7" r="1.2"/>
						</g>
					</g>
					<g>
						<g>
							<circle class="st1" cx="14.05" cy="43.7" r="1.2"/>
						</g>
					</g>
					<g>
						<g>
							<circle class="st1" cx="4.55" cy="43.7" r="1.2"/>
						</g>
					</g>
				</g>
				<g>
					<g>
						<g>
							<circle class="st1" cx="90.15" cy="34.2" r="1.2"/>
						</g>
					</g>
					<g>
						<g>
							<circle class="st1" cx="80.65" cy="34.2" r="1.2"/>
						</g>
					</g>
					<g>
						<g>
							<circle class="st1" cx="71.15" cy="34.2" r="1.2"/>
						</g>
					</g>
					<g>
						<g>
							<circle class="st1" cx="61.65" cy="34.2" r="1.2"/>
						</g>
					</g>
					<g>
						<g>
							<circle class="st1" cx="52.05" cy="34.2" r="1.2"/>
						</g>
					</g>
					<g>
						<g>
							<circle class="st1" cx="42.55" cy="34.2" r="1.2"/>
						</g>
					</g>
					<g>
						<g>
							<circle class="st1" cx="33.05" cy="34.2" r="1.2"/>
						</g>
					</g>
					<g>
						<g>
							<circle class="st1" cx="23.55" cy="34.2" r="1.2"/>
						</g>
					</g>
					<g>
						<g>
							<circle class="st1" cx="14.05" cy="34.2" r="1.2"/>
						</g>
					</g>
					<g>
						<g>
							<circle class="st1" cx="4.55" cy="34.2" r="1.2"/>
						</g>
					</g>
				</g>
				<g>
					<g>
						<g>
							<circle class="st1" cx="90.15" cy="24.7" r="1.2"/>
						</g>
					</g>
					<g>
						<g>
							<circle class="st1" cx="80.65" cy="24.7" r="1.2"/>
						</g>
					</g>
					<g>
						<g>
							<circle class="st1" cx="71.15" cy="24.7" r="1.2"/>
						</g>
					</g>
					<g>
						<g>
							<circle class="st1" cx="61.65" cy="24.7" r="1.2"/>
						</g>
					</g>
					<g>
						<g>
							<circle class="st1" cx="52.05" cy="24.7" r="1.2"/>
						</g>
					</g>
					<g>
						<g>
							<circle class="st1" cx="42.55" cy="24.7" r="1.2"/>
						</g>
					</g>
					<g>
						<g>
							<circle class="st1" cx="33.05" cy="24.7" r="1.2"/>
						</g>
					</g>
					<g>
						<g>
							<circle class="st1" cx="23.55" cy="24.7" r="1.2"/>
						</g>
					</g>
					<g>
						<g>
							<circle class="st1" cx="14.05" cy="24.7" r="1.2"/>
						</g>
					</g>
					<g>
						<g>
							<circle class="st1" cx="4.55" cy="24.7" r="1.2"/>
						</g>
					</g>
				</g>
				<g>
					<g>
						<g>
							<circle class="st1" cx="90.15" cy="15.2" r="1.2"/>
						</g>
					</g>
					<g>
						<g>
							<circle class="st1" cx="80.65" cy="15.2" r="1.2"/>
						</g>
					</g>
					<g>
						<g>
							<circle class="st1" cx="71.15" cy="15.2" r="1.2"/>
						</g>
					</g>
					<g>
						<g>
							<circle class="st1" cx="61.65" cy="15.2" r="1.2"/>
						</g>
					</g>
					<g>
						<g>
							<circle class="st1" cx="52.05" cy="15.2" r="1.2"/>
						</g>
					</g>
					<g>
						<g>
							<circle class="st1" cx="42.55" cy="15.2" r="1.2"/>
						</g>
					</g>
					<g>
						<g>
							<circle class="st1" cx="33.05" cy="15.2" r="1.2"/>
						</g>
					</g>
					<g>
						<g>
							<circle class="st1" cx="23.55" cy="15.2" r="1.2"/>
						</g>
					</g>
					<g>
						<g>
							<circle class="st1" cx="14.05" cy="15.2" r="1.2"/>
						</g>
					</g>
					<g>
						<g>
							<circle class="st1" cx="4.55" cy="15.2" r="1.2"/>
						</g>
					</g>
				</g>
				<g>
					<g>
						<g>
							<circle class="st1" cx="90.15" cy="5.7" r="1.2"/>
						</g>
					</g>
					<g>
						<g>
							<circle class="st1" cx="80.65" cy="5.7" r="1.2"/>
						</g>
					</g>
					<g>
						<g>
							<circle class="st1" cx="71.15" cy="5.7" r="1.2"/>
						</g>
					</g>
					<g>
						<g>
							<circle class="st1" cx="61.65" cy="5.7" r="1.2"/>
						</g>
					</g>
					<g>
						<g>
							<circle class="st1" cx="52.05" cy="5.7" r="1.2"/>
						</g>
					</g>
					<g>
						<g>
							<circle class="st1" cx="42.55" cy="5.7" r="1.2"/>
						</g>
					</g>
					<g>
						<g>
							<circle class="st1" cx="33.05" cy="5.7" r="1.2"/>
						</g>
					</g>
					<g>
						<g>
							<circle class="st1" cx="23.55" cy="5.7" r="1.2"/>
						</g>
					</g>
					<g>
						<g>
							<circle class="st1" cx="14.05" cy="5.7" r="1.2"/>
						</g>
					</g>
					<g>
						<g>
							<circle class="st1" cx="4.55" cy="5.7" r="1.2"/>
						</g>
					</g>
				</g>
			</g>
		</g>
		<g>
			<path class="st2" d="M27.05,24.9h50.4c2.4,0,4.4,2,4.4,4.4V30c0,2.4-2,4.4-4.4,4.4h-0.4c-2.6,0-4.8,2.1-4.8,4.8l0,0
				c0,2.6,2.1,4.8,4.8,4.8l0,0c2.6,0,4.8,2.1,4.8,4.8l0,0c0,2.6-2.1,4.8-4.8,4.8h-42.7V44c0-5.3-4.3-9.6-9.6-9.6h2.4
				c-2.6,0-4.8-2.1-4.8-4.8l0,0C22.35,27,24.45,24.9,27.05,24.9z"/>
		</g>
		<g>
			<path class="st2" d="M30.15,53.2h-16.4c-2.6,0-4.8,2.1-4.8,4.8l0,0c0,2.6,2.1,4.8,4.8,4.8h9.5c2.6,0,4.8,2.1,4.8,4.8l0,0
				c0,2.6-2.1,4.8-4.8,4.8h-9.5c-2.6,0-4.8,2.1-4.8,4.8l0,0c0,2.6,2.1,4.8,4.8,4.8h57.6c2.6,0,4.8-2.1,4.8-4.8l0,0
				c0-2.6-2.1-4.8-4.8-4.8h-9.6c-2.8,0-5.2-2.3-5.2-5.2l0,0c0-2.8-8-8.1-5.1-8.1l-1.3-3.2c2.4,0,4.7,0.7,4.7-1.7l-1.5-3.7
				c0-2.4,10.8,2.8,8.4,2.8h-31.6V53.2z"/>
		</g>
		<g>
			<path class="st3" d="M54.55,65.3c0,0-0.2,7.7-7.1,6.6c0,0-6.8,1.7-6.7-6.6"/>
		</g>
		<g>
			<path class="st4" d="M54.55,65.7c0,0-0.2,7.6-7.1,6.6v-6.6H54.55z"/>
		</g>
		<g>
			<circle class="st5" cx="47.55" cy="46.9" r="15.6"/>
		</g>
		<g>
			<polygon class="st5" points="39.35,59.3 40.35,61.9 40.85,65.3 54.55,65.3 54.55,62.3 54.55,59.7 			"/>
		</g>
		<g>
			<g>
				<path class="st6" d="M49.55,72.4h-4c-2.9,0-5.3-2.3-5.3-5.2V64c0-1.6-0.8-3-2-3.9c-5.5-3.8-8-10.5-6.5-17.1
					c1.3-5.8,6.2-10.6,12-11.9c5-1.1,10.1,0,14,3.1s6.1,7.7,6.1,12.6c0,5.3-2.6,10.2-7,13.2c-1.3,0.9-2,2.3-2,3.9v3.3
					C54.85,70.1,52.55,72.4,49.55,72.4z M47.55,31.7c-1.2,0-2.4,0.1-3.6,0.4c-5.5,1.3-10,5.7-11.3,11.2c-1.4,6.2,1,12.4,6.1,16
					c1.5,1.1,2.5,2.8,2.5,4.7v3.3c0,2.3,1.9,4.2,4.3,4.2h4c2.4,0,4.3-1.9,4.3-4.2V64c0-1.9,0.9-3.7,2.5-4.7
					c4.1-2.8,6.5-7.4,6.5-12.4c0-4.6-2.1-8.9-5.7-11.8C54.45,32.8,51.05,31.7,47.55,31.7z"/>
			</g>
			<g>
				<rect x="40.85" y="64.8" class="st6" width="13.8" height="1"/>
			</g>
			<g>
				<path class="st6" d="M50.75,54l-3.3-0.1v-0.5h-0.4l0.1-2.5c0-2,1.6-3.6,3.6-3.6c1.8,0,3.4,1.5,3.4,3.4S52.65,54,50.75,54z
					 M48.15,52.9l2.6,0.1c1.3,0,2.3-1.1,2.3-2.4s-1.1-2.4-2.4-2.4c-1.4,0-2.6,1.2-2.6,2.6L48.15,52.9z"/>
			</g>
			<g>
				<path class="st6" d="M47.05,65.3V53.9l-2.6,0.1c-1.9,0-3.4-1.5-3.4-3.4s1.5-3.4,3.4-3.4c2,0,3.6,1.6,3.6,3.6l0.1,14.4
					L47.05,65.3z M44.45,48.3c-1.3,0-2.4,1.1-2.4,2.4s1.1,2.4,2.4,2.4l2.6-0.1v-2C47.05,49.5,45.85,48.3,44.45,48.3z"/>
			</g>
		</g>
		<g>
			<circle class="st5" cx="28.15" cy="24.7" r="3.1"/>
			<path class="st6" d="M28.15,28.3c-2,0-3.6-1.6-3.6-3.6s1.6-3.6,3.6-3.6s3.6,1.6,3.6,3.6S30.15,28.3,28.15,28.3z M28.15,22.1
				c-1.4,0-2.6,1.2-2.6,2.6s1.2,2.6,2.6,2.6c1.4,0,2.6-1.2,2.6-2.6C30.75,23.3,29.55,22.1,28.15,22.1z"/>
		</g>
		<g>
			<polygon class="st5" points="17.15,46.7 15.45,43.7 17.15,40.7 20.65,40.7 22.35,43.7 20.65,46.7 			"/>
			<path class="st6" d="M20.95,47.2h-4.1l-2-3.5l2-3.5h4.1l2,3.5L20.95,47.2z M17.45,46.2h2.9l1.5-2.5l-1.5-2.5h-2.9l-1.5,2.5
				L17.45,46.2z"/>
		</g>
		<g>
			<ellipse transform="matrix(0.7071 -0.7071 0.7071 0.7071 21.6376 72.8149)" class="st5" cx="98.714" cy="10.289" rx="1" ry="1"/>
		</g>
		<g>
			<path class="st6" d="M76.05,47.8L76.05,47.8c-0.3,0-0.5-0.2-0.5-0.5l0.1-7.1c0-0.3,0.2-0.5,0.5-0.5s0.5,0.2,0.5,0.5l-0.1,7.1
				C76.55,47.6,76.35,47.8,76.05,47.8z"/>
		</g>
		<g>
			<path class="st6" d="M79.55,44.3h-6.8c-0.3,0-0.5-0.2-0.5-0.5s0.2-0.5,0.5-0.5h6.8c0.3,0,0.5,0.2,0.5,0.5S79.75,44.3,79.55,44.3z
				"/>
		</g>
		<g>
			<circle class="st5" cx="66.55" cy="25.2" r="3.1"/>
			<path class="st6" d="M66.55,28.8c-2,0-3.6-1.6-3.6-3.6s1.6-3.6,3.6-3.6s3.6,1.6,3.6,3.6S68.55,28.8,66.55,28.8z M66.55,22.6
				c-1.4,0-2.6,1.2-2.6,2.6s1.2,2.6,2.6,2.6s2.6-1.2,2.6-2.6S68.05,22.6,66.55,22.6z"/>
		</g>
		<g>
			<path class="st6" d="M66.35,71.5l-3.5-2v-4.1l3.5-2l3.5,2v4.1L66.35,71.5z M63.85,68.9l2.5,1.5l2.5-1.5V66l-2.5-1.5l-2.5,1.5
				V68.9z"/>
		</g>
		<g>
			<path class="st6" d="M24.75,70c-0.1,0-0.3-0.1-0.4-0.2c-0.2-0.2-0.2-0.5,0-0.7l5.1-5c0.2-0.2,0.5-0.2,0.7,0
				c0.2,0.2,0.2,0.5,0,0.7l-5.1,5C25.05,70,24.85,70,24.75,70z"/>
		</g>
		<g>
			<path class="st6" d="M29.75,69.9c-0.1,0-0.3,0-0.4-0.1l-4.8-4.8c-0.2-0.2-0.2-0.5,0-0.7s0.5-0.2,0.7,0l4.8,4.8
				c0.2,0.2,0.2,0.5,0,0.7C29.95,69.9,29.85,69.9,29.75,69.9z"/>
		</g>
		<g>
			<path class="st6" d="M45.25,23c-0.1,0-0.3-0.1-0.4-0.2c-0.2-0.2-0.2-0.5,0-0.7l5.1-5c0.2-0.2,0.5-0.2,0.7,0s0.2,0.5,0,0.7l-5.1,5
				C45.55,22.9,45.35,23,45.25,23z"/>
		</g>
		<g>
			<path class="st6" d="M50.25,22.9c-0.1,0-0.3,0-0.4-0.1l-4.8-4.8c-0.2-0.2-0.2-0.5,0-0.7s0.5-0.2,0.7,0l4.8,4.8
				c0.2,0.2,0.2,0.5,0,0.7C50.45,22.9,50.35,22.9,50.25,22.9z"/>
		</g>
	</g>
</g>
</svg>
