<?xml version="1.0" encoding="utf-8"?>
<!-- Generator: Adobe Illustrator 21.1.0, SVG Export Plug-In . SVG Version: 6.00 Build 0)  -->
<svg version="1.1" id="Layer_1" xmlns="http://www.w3.org/2000/svg" xmlns:xlink="http://www.w3.org/1999/xlink" x="0px" y="0px"
	 viewBox="0 0 96 97.223" style="enable-background:new 0 0 96 97.223;" xml:space="preserve">
<style type="text/css">
	.st0{opacity:0.31;}
	.st1{fill:#C4DFE5;}
	.st2{fill:#D7EFF2;}
	.st3{fill:#FFFFFF;}
	.st4{fill:#6B768E;}
	.st5{fill:#E4CDB6;}
	.st6{fill:#FDEAE4;}
</style>
<g id="Layer_1_1_">
</g>
<g id="Layer_4">
	<g>
		<g class="st0">
			<g>
				<g>
					<g>
						<circle class="st1" cx="90.6" cy="91.9" r="1.2"/>
					</g>
				</g>
				<g>
					<g>
						<circle class="st1" cx="81.1" cy="91.9" r="1.2"/>
					</g>
				</g>
				<g>
					<g>
						<circle class="st1" cx="71.5" cy="91.9" r="1.2"/>
					</g>
				</g>
				<g>
					<g>
						<circle class="st1" cx="62" cy="91.9" r="1.2"/>
					</g>
				</g>
				<g>
					<g>
						<circle class="st1" cx="52.5" cy="91.9" r="1.2"/>
					</g>
				</g>
				<g>
					<g>
						<circle class="st1" cx="43" cy="91.9" r="1.2"/>
					</g>
				</g>
				<g>
					<g>
						<circle class="st1" cx="33.5" cy="91.9" r="1.2"/>
					</g>
				</g>
				<g>
					<g>
						<circle class="st1" cx="24" cy="91.9" r="1.2"/>
					</g>
				</g>
				<g>
					<g>
						<circle class="st1" cx="14.5" cy="91.9" r="1.2"/>
					</g>
				</g>
				<g>
					<g>
						<circle class="st1" cx="5" cy="91.9" r="1.2"/>
					</g>
				</g>
			</g>
			<g>
				<g>
					<g>
						<circle class="st1" cx="90.6" cy="82.4" r="1.2"/>
					</g>
				</g>
				<g>
					<g>
						<circle class="st1" cx="81.1" cy="82.4" r="1.2"/>
					</g>
				</g>
				<g>
					<g>
						<circle class="st1" cx="71.5" cy="82.4" r="1.2"/>
					</g>
				</g>
				<g>
					<g>
						<circle class="st1" cx="62" cy="82.4" r="1.2"/>
					</g>
				</g>
				<g>
					<g>
						<circle class="st1" cx="52.5" cy="82.4" r="1.2"/>
					</g>
				</g>
				<g>
					<g>
						<circle class="st1" cx="43" cy="82.4" r="1.2"/>
					</g>
				</g>
				<g>
					<g>
						<circle class="st1" cx="33.5" cy="82.4" r="1.2"/>
					</g>
				</g>
				<g>
					<g>
						<circle class="st1" cx="24" cy="82.4" r="1.2"/>
					</g>
				</g>
				<g>
					<g>
						<circle class="st1" cx="14.5" cy="82.4" r="1.2"/>
					</g>
				</g>
				<g>
					<g>
						<circle class="st1" cx="5" cy="82.4" r="1.2"/>
					</g>
				</g>
			</g>
			<g>
				<g>
					<g>
						<circle class="st1" cx="90.6" cy="72.9" r="1.2"/>
					</g>
				</g>
				<g>
					<g>
						<circle class="st1" cx="81.1" cy="72.9" r="1.2"/>
					</g>
				</g>
				<g>
					<g>
						<circle class="st1" cx="71.5" cy="72.9" r="1.2"/>
					</g>
				</g>
				<g>
					<g>
						<circle class="st1" cx="62" cy="72.9" r="1.2"/>
					</g>
				</g>
				<g>
					<g>
						<circle class="st1" cx="52.5" cy="72.9" r="1.2"/>
					</g>
				</g>
				<g>
					<g>
						<circle class="st1" cx="43" cy="72.9" r="1.2"/>
					</g>
				</g>
				<g>
					<g>
						<circle class="st1" cx="33.5" cy="72.9" r="1.2"/>
					</g>
				</g>
				<g>
					<g>
						<circle class="st1" cx="24" cy="72.9" r="1.2"/>
					</g>
				</g>
				<g>
					<g>
						<circle class="st1" cx="14.5" cy="72.9" r="1.2"/>
					</g>
				</g>
				<g>
					<g>
						<circle class="st1" cx="5" cy="72.9" r="1.2"/>
					</g>
				</g>
			</g>
			<g>
				<g>
					<g>
						<circle class="st1" cx="90.6" cy="63.4" r="1.2"/>
					</g>
				</g>
				<g>
					<g>
						<circle class="st1" cx="81.1" cy="63.4" r="1.2"/>
					</g>
				</g>
				<g>
					<g>
						<circle class="st1" cx="71.5" cy="63.4" r="1.2"/>
					</g>
				</g>
				<g>
					<g>
						<circle class="st1" cx="62" cy="63.4" r="1.2"/>
					</g>
				</g>
				<g>
					<g>
						<circle class="st1" cx="52.5" cy="63.4" r="1.2"/>
					</g>
				</g>
				<g>
					<g>
						<circle class="st1" cx="43" cy="63.4" r="1.2"/>
					</g>
				</g>
				<g>
					<g>
						<circle class="st1" cx="33.5" cy="63.4" r="1.2"/>
					</g>
				</g>
				<g>
					<g>
						<circle class="st1" cx="24" cy="63.4" r="1.2"/>
					</g>
				</g>
				<g>
					<g>
						<circle class="st1" cx="14.5" cy="63.4" r="1.2"/>
					</g>
				</g>
				<g>
					<g>
						<circle class="st1" cx="5" cy="63.4" r="1.2"/>
					</g>
				</g>
			</g>
			<g>
				<g>
					<g>
						<circle class="st1" cx="90.6" cy="53.9" r="1.2"/>
					</g>
				</g>
				<g>
					<g>
						<circle class="st1" cx="81.1" cy="53.9" r="1.2"/>
					</g>
				</g>
				<g>
					<g>
						<circle class="st1" cx="71.5" cy="53.9" r="1.2"/>
					</g>
				</g>
				<g>
					<g>
						<circle class="st1" cx="62" cy="53.9" r="1.2"/>
					</g>
				</g>
				<g>
					<g>
						<circle class="st1" cx="52.5" cy="53.9" r="1.2"/>
					</g>
				</g>
				<g>
					<g>
						<circle class="st1" cx="43" cy="53.9" r="1.2"/>
					</g>
				</g>
				<g>
					<g>
						<circle class="st1" cx="33.5" cy="53.9" r="1.2"/>
					</g>
				</g>
				<g>
					<g>
						<circle class="st1" cx="24" cy="53.9" r="1.2"/>
					</g>
				</g>
				<g>
					<g>
						<circle class="st1" cx="14.5" cy="53.9" r="1.2"/>
					</g>
				</g>
				<g>
					<g>
						<circle class="st1" cx="5" cy="53.9" r="1.2"/>
					</g>
				</g>
			</g>
			<g>
				<g>
					<g>
						<circle class="st1" cx="90.6" cy="44.4" r="1.2"/>
					</g>
				</g>
				<g>
					<g>
						<circle class="st1" cx="81.1" cy="44.4" r="1.2"/>
					</g>
				</g>
				<g>
					<g>
						<circle class="st1" cx="71.5" cy="44.4" r="1.2"/>
					</g>
				</g>
				<g>
					<g>
						<circle class="st1" cx="62" cy="44.4" r="1.2"/>
					</g>
				</g>
				<g>
					<g>
						<circle class="st1" cx="52.5" cy="44.4" r="1.2"/>
					</g>
				</g>
				<g>
					<g>
						<circle class="st1" cx="43" cy="44.4" r="1.2"/>
					</g>
				</g>
				<g>
					<g>
						<circle class="st1" cx="33.5" cy="44.4" r="1.2"/>
					</g>
				</g>
				<g>
					<g>
						<circle class="st1" cx="24" cy="44.4" r="1.2"/>
					</g>
				</g>
				<g>
					<g>
						<circle class="st1" cx="14.5" cy="44.4" r="1.2"/>
					</g>
				</g>
				<g>
					<g>
						<circle class="st1" cx="5" cy="44.4" r="1.2"/>
					</g>
				</g>
			</g>
			<g>
				<g>
					<g>
						<circle class="st1" cx="90.6" cy="34.9" r="1.2"/>
					</g>
				</g>
				<g>
					<g>
						<circle class="st1" cx="81.1" cy="34.9" r="1.2"/>
					</g>
				</g>
				<g>
					<g>
						<circle class="st1" cx="71.5" cy="34.9" r="1.2"/>
					</g>
				</g>
				<g>
					<g>
						<circle class="st1" cx="62" cy="34.9" r="1.2"/>
					</g>
				</g>
				<g>
					<g>
						<circle class="st1" cx="52.5" cy="34.9" r="1.2"/>
					</g>
				</g>
				<g>
					<g>
						<circle class="st1" cx="43" cy="34.9" r="1.2"/>
					</g>
				</g>
				<g>
					<g>
						<circle class="st1" cx="33.5" cy="34.9" r="1.2"/>
					</g>
				</g>
				<g>
					<g>
						<circle class="st1" cx="24" cy="34.9" r="1.2"/>
					</g>
				</g>
				<g>
					<g>
						<circle class="st1" cx="14.5" cy="34.9" r="1.2"/>
					</g>
				</g>
				<g>
					<g>
						<circle class="st1" cx="5" cy="34.9" r="1.2"/>
					</g>
				</g>
			</g>
			<g>
				<g>
					<g>
						<circle class="st1" cx="90.6" cy="25.3" r="1.2"/>
					</g>
				</g>
				<g>
					<g>
						<circle class="st1" cx="81.1" cy="25.3" r="1.2"/>
					</g>
				</g>
				<g>
					<g>
						<circle class="st1" cx="71.5" cy="25.3" r="1.2"/>
					</g>
				</g>
				<g>
					<g>
						<circle class="st1" cx="62" cy="25.3" r="1.2"/>
					</g>
				</g>
				<g>
					<g>
						<circle class="st1" cx="52.5" cy="25.3" r="1.2"/>
					</g>
				</g>
				<g>
					<g>
						<circle class="st1" cx="43" cy="25.3" r="1.2"/>
					</g>
				</g>
				<g>
					<g>
						<circle class="st1" cx="33.5" cy="25.3" r="1.2"/>
					</g>
				</g>
				<g>
					<g>
						<circle class="st1" cx="24" cy="25.3" r="1.2"/>
					</g>
				</g>
				<g>
					<g>
						<circle class="st1" cx="14.5" cy="25.3" r="1.2"/>
					</g>
				</g>
				<g>
					<g>
						<circle class="st1" cx="5" cy="25.3" r="1.2"/>
					</g>
				</g>
			</g>
			<g>
				<g>
					<g>
						<circle class="st1" cx="90.6" cy="15.8" r="1.2"/>
					</g>
				</g>
				<g>
					<g>
						<circle class="st1" cx="81.1" cy="15.8" r="1.2"/>
					</g>
				</g>
				<g>
					<g>
						<circle class="st1" cx="71.5" cy="15.8" r="1.2"/>
					</g>
				</g>
				<g>
					<g>
						<circle class="st1" cx="62" cy="15.8" r="1.2"/>
					</g>
				</g>
				<g>
					<g>
						<circle class="st1" cx="52.5" cy="15.8" r="1.2"/>
					</g>
				</g>
				<g>
					<g>
						<circle class="st1" cx="43" cy="15.8" r="1.2"/>
					</g>
				</g>
				<g>
					<g>
						<circle class="st1" cx="33.5" cy="15.8" r="1.2"/>
					</g>
				</g>
				<g>
					<g>
						<circle class="st1" cx="24" cy="15.8" r="1.2"/>
					</g>
				</g>
				<g>
					<g>
						<circle class="st1" cx="14.5" cy="15.8" r="1.2"/>
					</g>
				</g>
				<g>
					<g>
						<circle class="st1" cx="5" cy="15.8" r="1.2"/>
					</g>
				</g>
			</g>
			<g>
				<g>
					<g>
						<circle class="st1" cx="90.6" cy="6.3" r="1.2"/>
					</g>
				</g>
				<g>
					<g>
						<circle class="st1" cx="81.1" cy="6.3" r="1.2"/>
					</g>
				</g>
				<g>
					<g>
						<circle class="st1" cx="71.5" cy="6.3" r="1.2"/>
					</g>
				</g>
				<g>
					<g>
						<circle class="st1" cx="62" cy="6.3" r="1.2"/>
					</g>
				</g>
				<g>
					<g>
						<circle class="st1" cx="52.5" cy="6.3" r="1.2"/>
					</g>
				</g>
				<g>
					<g>
						<circle class="st1" cx="43" cy="6.3" r="1.2"/>
					</g>
				</g>
				<g>
					<g>
						<circle class="st1" cx="33.5" cy="6.3" r="1.2"/>
					</g>
				</g>
				<g>
					<g>
						<circle class="st1" cx="24" cy="6.3" r="1.2"/>
					</g>
				</g>
				<g>
					<g>
						<circle class="st1" cx="14.5" cy="6.3" r="1.2"/>
					</g>
				</g>
				<g>
					<g>
						<circle class="st1" cx="5" cy="6.3" r="1.2"/>
					</g>
				</g>
			</g>
		</g>
	</g>
	<g>
		<path class="st2" d="M81.1,58.6c0,1.3-0.5,2.5-1.4,3.4s-2,1.4-3.4,1.4h-6.5c-2.4,0-4.4,2-4.4,4.4l0,0c0,2.4,2,4.4,4.4,4.4h2
			c1.2,0.3,2.2,1,2.9,1.9c0.8,1,1.2,2.2,1.1,3.6c-0.2,2.8-2.7,4.9-5.5,4.9H37.8c-1.3,0-2.5-0.5-3.4-1.4S33,79.1,33,77.8
			c0-2.6-2.1-4.8-4.8-4.8H18.1c-1.3,0-2.5-0.5-3.4-1.4s-1.4-2-1.4-3.4c0-2.6,2.1-4.8,4.8-4.8l0,0c3.3-0.1,5.8-2.7,5.8-6v-8.5
			c0-2.6-2.1-4.7-4.7-4.7c-1.3,0-2.5-0.5-3.3-1.4c-0.9-0.9-1.4-2.1-1.4-3.4c0-1.3,0.5-2.5,1.4-3.4s2-1.4,3.4-1.4h10.2
			c2.2,0,4.1-1.8,4.1-4.1c0-1.5,0.6-2.8,1.6-3.8s2.3-1.6,3.8-1.6h8.8c2.7,0,4.7,2.2,4.8,4.8c0,1.3,0.5,2.4,1.4,3.3
			c0.9,0.9,2,1.4,3.4,1.4h18.8c2.7,0,5.1,2.2,5,4.9c0,1.2-0.6,2.4-1.4,3.2c-0.9,0.9-2,1.4-3.4,1.4h-9.5c-2.6,0-4.8,2.1-4.8,4.8
			c0,1.3,0.5,2.5,1.4,3.4s2,1.4,3.4,1.4h9.5C78.9,53.9,81.1,56,81.1,58.6z"/>
	</g>
	<g>
		<rect x="30.1" y="30.2" class="st3" width="11.8" height="36.9"/>
		<path class="st4" d="M42.4,67.7H29.6v-38h12.8V67.7z M30.6,66.7h10.8v-36H30.6V66.7z"/>
	</g>
	<g>
		<rect x="41.9" y="42.5" class="st5" width="11.8" height="24.6"/>
		<path class="st4" d="M54.2,67.7H41.4V42h12.8C54.2,42,54.2,67.7,54.2,67.7z M42.4,66.7h10.8V43H42.4V66.7z"/>
	</g>
	<g>
		<rect x="53.7" y="54.9" class="st6" width="11.8" height="12.3"/>
		<path class="st4" d="M65.9,67.7H53.2V54.4H66v13.3H65.9z M54.2,66.7H65V55.4H54.2V66.7z"/>
	</g>
	<g>
		<path class="st4" d="M65.3,44.7c-0.1,0-0.2,0-0.2-0.1l-2-3c-0.1-0.1,0-0.3,0.1-0.3c0.1-0.1,0.3,0,0.3,0.1l2,3
			c0.1,0.1,0,0.3-0.1,0.3C65.4,44.7,65.4,44.7,65.3,44.7z M61.1,38.5c-0.1,0-0.2,0-0.2-0.1l-2.2-3.3c-0.1-0.1,0-0.3,0.1-0.3
			c0.1-0.1,0.3,0,0.3,0.1l2.2,3.3c0.1,0.1,0,0.3-0.1,0.3C61.2,38.5,61.2,38.5,61.1,38.5z M56.6,31.9c-0.1,0-0.2,0-0.2-0.1l-2.2-3.3
			c-0.1-0.1,0-0.3,0.1-0.3c0.1-0.1,0.3,0,0.3,0.1l2.2,3.3c0.1,0.1,0,0.3-0.1,0.3C56.7,31.8,56.7,31.9,56.6,31.9z M52,25.4h-0.1
			l-3.5-1.9c-0.1-0.1-0.2-0.2-0.1-0.3c0.1-0.1,0.2-0.2,0.3-0.1l3.5,1.9c0.1,0.1,0.2,0.2,0.1,0.3C52.1,25.4,52.1,25.4,52,25.4z
			 M44.9,21.7h-0.1l-3.5-1.9c-0.1-0.1-0.2-0.2-0.1-0.3c0.1-0.1,0.2-0.2,0.3-0.1l3.5,1.9c0.1,0.1,0.2,0.2,0.1,0.3
			C45.1,21.7,45,21.7,44.9,21.7z M37.8,18h-0.1l-3.5-1.9c-0.1-0.1-0.2-0.2-0.1-0.3s0.2-0.2,0.3-0.1l3.5,1.9c0.1,0.1,0.2,0.2,0.1,0.3
			C38,17.9,37.9,18,37.8,18z"/>
	</g>
	<g>
		<circle class="st3" cx="33.5" cy="15.8" r="3.9"/>
		<path class="st4" d="M33.5,20.2c-2.4,0-4.4-2-4.4-4.4s2-4.4,4.4-4.4s4.4,2,4.4,4.4S35.9,20.2,33.5,20.2z M33.5,12.5
			c-1.8,0-3.4,1.5-3.4,3.4s1.5,3.4,3.4,3.4s3.4-1.5,3.4-3.4S35.4,12.5,33.5,12.5z"/>
	</g>
	<g>
		<circle class="st3" cx="52.3" cy="25.3" r="3.9"/>
		<path class="st4" d="M52.3,29.7c-2.4,0-4.4-2-4.4-4.4s2-4.4,4.4-4.4s4.4,2,4.4,4.4S54.7,29.7,52.3,29.7z M52.3,22
			c-1.8,0-3.4,1.5-3.4,3.4s1.5,3.4,3.4,3.4s3.4-1.5,3.4-3.4S54.2,22,52.3,22z"/>
	</g>
	<g>
		<circle class="st3" cx="65.8" cy="44.9" r="3.9"/>
		<path class="st4" d="M65.8,49.2c-2.4,0-4.4-2-4.4-4.4s2-4.4,4.4-4.4s4.4,2,4.4,4.4S68.2,49.2,65.8,49.2z M65.8,41.5
			c-1.8,0-3.4,1.5-3.4,3.4s1.5,3.4,3.4,3.4s3.4-1.5,3.4-3.4S67.6,41.5,65.8,41.5z"/>
	</g>
	<g>
		
			<rect x="28.611" y="38.562" transform="matrix(0.7722 -0.6354 0.6354 0.7722 -16.4342 31.7866)" class="st4" width="15" height="0.5"/>
	</g>
	<g>
		
			<rect x="28.606" y="45.067" transform="matrix(0.773 -0.6344 0.6344 0.773 -20.5535 33.1924)" class="st4" width="15" height="0.5"/>
	</g>
	<g>
		
			<rect x="28.61" y="51.866" transform="matrix(0.773 -0.6344 0.6344 0.773 -24.8656 34.7383)" class="st4" width="15" height="0.5"/>
	</g>
	<g>
		<polygon class="st4" points="30.4,64.1 30.1,63.7 41.6,54.2 41.9,54.6 		"/>
	</g>
	<g>
		<polygon class="st4" points="34.4,67.5 34.1,67.1 41.6,61 41.9,61.4 		"/>
	</g>
	<g>
		
			<rect x="29.226" y="33.221" transform="matrix(0.7722 -0.6354 0.6354 0.7722 -13.4818 29.3402)" class="st4" width="9.9" height="0.5"/>
	</g>
</g>
</svg>
