<?xml version="1.0" encoding="utf-8"?>
<!-- Generator: Adobe Illustrator 21.1.0, SVG Export Plug-In . SVG Version: 6.00 Build 0)  -->
<svg version="1.1" id="Layer_1" xmlns="http://www.w3.org/2000/svg" xmlns:xlink="http://www.w3.org/1999/xlink" x="0px" y="0px"
	 viewBox="0 0 95 100" style="enable-background:new 0 0 95 100;" xml:space="preserve">
<style type="text/css">
	.st0{opacity:0.31;}
	.st1{fill:#C4DFE5;}
	.st2{fill:#D7EFF2;}
	.st3{fill:#FFFFFF;}
	.st4{fill:#6B768E;}
	.st5{fill:#E4CDB6;}
	.st6{fill:#FDEAE4;}
	.st7{fill:none;stroke:#6B768E;stroke-miterlimit:10;}
</style>
<g id="Layer_1_1_">
</g>
<g id="Layer_4">
	<g id="Layer_7">
	</g>
	<g>
		<g class="st0">
			<g>
				<g>
					<g>
						<g>
							<circle class="st1" cx="89.3" cy="91.7" r="1.2"/>
						</g>
					</g>
				</g>
				<g>
					<g>
						<g>
							<circle class="st1" cx="79.8" cy="91.7" r="1.2"/>
						</g>
					</g>
				</g>
				<g>
					<g>
						<g>
							<circle class="st1" cx="70.3" cy="91.7" r="1.2"/>
						</g>
					</g>
				</g>
				<g>
					<g>
						<g>
							<circle class="st1" cx="60.8" cy="91.7" r="1.2"/>
						</g>
					</g>
				</g>
				<g>
					<g>
						<g>
							<circle class="st1" cx="51.3" cy="91.7" r="1.2"/>
						</g>
					</g>
				</g>
				<g>
					<g>
						<g>
							<circle class="st1" cx="41.8" cy="91.7" r="1.2"/>
						</g>
					</g>
				</g>
				<g>
					<g>
						<g>
							<circle class="st1" cx="32.3" cy="91.7" r="1.2"/>
						</g>
					</g>
				</g>
				<g>
					<g>
						<g>
							<circle class="st1" cx="22.8" cy="91.7" r="1.2"/>
						</g>
					</g>
				</g>
				<g>
					<g>
						<g>
							<circle class="st1" cx="13.3" cy="91.7" r="1.2"/>
						</g>
					</g>
				</g>
				<g>
					<g>
						<g>
							<circle class="st1" cx="3.8" cy="91.7" r="1.2"/>
						</g>
					</g>
				</g>
			</g>
			<g>
				<g>
					<g>
						<g>
							<circle class="st1" cx="89.3" cy="82.2" r="1.2"/>
						</g>
					</g>
				</g>
				<g>
					<g>
						<g>
							<circle class="st1" cx="79.8" cy="82.2" r="1.2"/>
						</g>
					</g>
				</g>
				<g>
					<g>
						<g>
							<circle class="st1" cx="70.3" cy="82.2" r="1.2"/>
						</g>
					</g>
				</g>
				<g>
					<g>
						<g>
							<circle class="st1" cx="60.8" cy="82.2" r="1.2"/>
						</g>
					</g>
				</g>
				<g>
					<g>
						<g>
							<circle class="st1" cx="51.3" cy="82.2" r="1.2"/>
						</g>
					</g>
				</g>
				<g>
					<g>
						<g>
							<circle class="st1" cx="41.8" cy="82.2" r="1.2"/>
						</g>
					</g>
				</g>
				<g>
					<g>
						<g>
							<circle class="st1" cx="32.3" cy="82.2" r="1.2"/>
						</g>
					</g>
				</g>
				<g>
					<g>
						<g>
							<circle class="st1" cx="22.8" cy="82.2" r="1.2"/>
						</g>
					</g>
				</g>
				<g>
					<g>
						<g>
							<circle class="st1" cx="13.3" cy="82.2" r="1.2"/>
						</g>
					</g>
				</g>
				<g>
					<g>
						<g>
							<circle class="st1" cx="3.8" cy="82.2" r="1.2"/>
						</g>
					</g>
				</g>
			</g>
			<g>
				<g>
					<g>
						<g>
							<circle class="st1" cx="89.3" cy="72.7" r="1.2"/>
						</g>
					</g>
				</g>
				<g>
					<g>
						<g>
							<circle class="st1" cx="79.8" cy="72.7" r="1.2"/>
						</g>
					</g>
				</g>
				<g>
					<g>
						<g>
							<circle class="st1" cx="70.3" cy="72.7" r="1.2"/>
						</g>
					</g>
				</g>
				<g>
					<g>
						<g>
							<circle class="st1" cx="60.8" cy="72.7" r="1.2"/>
						</g>
					</g>
				</g>
				<g>
					<g>
						<g>
							<circle class="st1" cx="51.3" cy="72.7" r="1.2"/>
						</g>
					</g>
				</g>
				<g>
					<g>
						<g>
							<circle class="st1" cx="41.8" cy="72.7" r="1.2"/>
						</g>
					</g>
				</g>
				<g>
					<g>
						<g>
							<circle class="st1" cx="32.3" cy="72.7" r="1.2"/>
						</g>
					</g>
				</g>
				<g>
					<g>
						<g>
							<circle class="st1" cx="22.8" cy="72.7" r="1.2"/>
						</g>
					</g>
				</g>
				<g>
					<g>
						<g>
							<circle class="st1" cx="13.3" cy="72.7" r="1.2"/>
						</g>
					</g>
				</g>
				<g>
					<g>
						<g>
							<circle class="st1" cx="3.8" cy="72.7" r="1.2"/>
						</g>
					</g>
				</g>
			</g>
			<g>
				<g>
					<g>
						<g>
							<circle class="st1" cx="89.3" cy="63.2" r="1.2"/>
						</g>
					</g>
				</g>
				<g>
					<g>
						<g>
							<circle class="st1" cx="79.8" cy="63.2" r="1.2"/>
						</g>
					</g>
				</g>
				<g>
					<g>
						<g>
							<circle class="st1" cx="70.3" cy="63.2" r="1.2"/>
						</g>
					</g>
				</g>
				<g>
					<g>
						<g>
							<circle class="st1" cx="60.8" cy="63.2" r="1.2"/>
						</g>
					</g>
				</g>
				<g>
					<g>
						<g>
							<circle class="st1" cx="51.3" cy="63.2" r="1.2"/>
						</g>
					</g>
				</g>
				<g>
					<g>
						<g>
							<circle class="st1" cx="41.8" cy="63.2" r="1.2"/>
						</g>
					</g>
				</g>
				<g>
					<g>
						<g>
							<circle class="st1" cx="32.3" cy="63.2" r="1.2"/>
						</g>
					</g>
				</g>
				<g>
					<g>
						<g>
							<circle class="st1" cx="22.8" cy="63.2" r="1.2"/>
						</g>
					</g>
				</g>
				<g>
					<g>
						<g>
							<circle class="st1" cx="13.3" cy="63.2" r="1.2"/>
						</g>
					</g>
				</g>
				<g>
					<g>
						<g>
							<circle class="st1" cx="3.8" cy="63.2" r="1.2"/>
						</g>
					</g>
				</g>
			</g>
			<g>
				<g>
					<g>
						<g>
							<circle class="st1" cx="89.3" cy="53.7" r="1.2"/>
						</g>
					</g>
				</g>
				<g>
					<g>
						<g>
							<circle class="st1" cx="79.8" cy="53.7" r="1.2"/>
						</g>
					</g>
				</g>
				<g>
					<g>
						<g>
							<circle class="st1" cx="70.3" cy="53.7" r="1.2"/>
						</g>
					</g>
				</g>
				<g>
					<g>
						<g>
							<circle class="st1" cx="60.8" cy="53.7" r="1.2"/>
						</g>
					</g>
				</g>
				<g>
					<g>
						<g>
							<circle class="st1" cx="51.3" cy="53.7" r="1.2"/>
						</g>
					</g>
				</g>
				<g>
					<g>
						<g>
							<circle class="st1" cx="41.8" cy="53.7" r="1.2"/>
						</g>
					</g>
				</g>
				<g>
					<g>
						<g>
							<circle class="st1" cx="32.3" cy="53.7" r="1.2"/>
						</g>
					</g>
				</g>
				<g>
					<g>
						<g>
							<circle class="st1" cx="22.8" cy="53.7" r="1.2"/>
						</g>
					</g>
				</g>
				<g>
					<g>
						<g>
							<circle class="st1" cx="13.3" cy="53.7" r="1.2"/>
						</g>
					</g>
				</g>
				<g>
					<g>
						<g>
							<circle class="st1" cx="3.8" cy="53.7" r="1.2"/>
						</g>
					</g>
				</g>
			</g>
			<g>
				<g>
					<g>
						<g>
							<circle class="st1" cx="89.3" cy="44.2" r="1.2"/>
						</g>
					</g>
				</g>
				<g>
					<g>
						<g>
							<circle class="st1" cx="79.8" cy="44.2" r="1.2"/>
						</g>
					</g>
				</g>
				<g>
					<g>
						<g>
							<circle class="st1" cx="70.3" cy="44.2" r="1.2"/>
						</g>
					</g>
				</g>
				<g>
					<g>
						<g>
							<circle class="st1" cx="60.8" cy="44.2" r="1.2"/>
						</g>
					</g>
				</g>
				<g>
					<g>
						<g>
							<circle class="st1" cx="51.3" cy="44.2" r="1.2"/>
						</g>
					</g>
				</g>
				<g>
					<g>
						<g>
							<circle class="st1" cx="41.8" cy="44.2" r="1.2"/>
						</g>
					</g>
				</g>
				<g>
					<g>
						<g>
							<circle class="st1" cx="32.3" cy="44.2" r="1.2"/>
						</g>
					</g>
				</g>
				<g>
					<g>
						<g>
							<circle class="st1" cx="22.8" cy="44.2" r="1.2"/>
						</g>
					</g>
				</g>
				<g>
					<g>
						<g>
							<circle class="st1" cx="13.3" cy="44.2" r="1.2"/>
						</g>
					</g>
				</g>
				<g>
					<g>
						<g>
							<circle class="st1" cx="3.8" cy="44.2" r="1.2"/>
						</g>
					</g>
				</g>
			</g>
			<g>
				<g>
					<g>
						<g>
							<circle class="st1" cx="89.3" cy="34.7" r="1.2"/>
						</g>
					</g>
				</g>
				<g>
					<g>
						<g>
							<circle class="st1" cx="79.8" cy="34.7" r="1.2"/>
						</g>
					</g>
				</g>
				<g>
					<g>
						<g>
							<circle class="st1" cx="70.3" cy="34.7" r="1.2"/>
						</g>
					</g>
				</g>
				<g>
					<g>
						<g>
							<circle class="st1" cx="60.8" cy="34.7" r="1.2"/>
						</g>
					</g>
				</g>
				<g>
					<g>
						<g>
							<circle class="st1" cx="51.3" cy="34.7" r="1.2"/>
						</g>
					</g>
				</g>
				<g>
					<g>
						<g>
							<circle class="st1" cx="41.8" cy="34.7" r="1.2"/>
						</g>
					</g>
				</g>
				<g>
					<g>
						<g>
							<circle class="st1" cx="32.3" cy="34.7" r="1.2"/>
						</g>
					</g>
				</g>
				<g>
					<g>
						<g>
							<circle class="st1" cx="22.8" cy="34.7" r="1.2"/>
						</g>
					</g>
				</g>
				<g>
					<g>
						<g>
							<circle class="st1" cx="13.3" cy="34.7" r="1.2"/>
						</g>
					</g>
				</g>
				<g>
					<g>
						<g>
							<circle class="st1" cx="3.8" cy="34.7" r="1.2"/>
						</g>
					</g>
				</g>
			</g>
			<g>
				<g>
					<g>
						<g>
							<circle class="st1" cx="89.3" cy="25.2" r="1.2"/>
						</g>
					</g>
				</g>
				<g>
					<g>
						<g>
							<circle class="st1" cx="79.8" cy="25.2" r="1.2"/>
						</g>
					</g>
				</g>
				<g>
					<g>
						<g>
							<circle class="st1" cx="70.3" cy="25.2" r="1.2"/>
						</g>
					</g>
				</g>
				<g>
					<g>
						<g>
							<circle class="st1" cx="60.8" cy="25.2" r="1.2"/>
						</g>
					</g>
				</g>
				<g>
					<g>
						<g>
							<circle class="st1" cx="51.3" cy="25.2" r="1.2"/>
						</g>
					</g>
				</g>
				<g>
					<g>
						<g>
							<circle class="st1" cx="41.8" cy="25.2" r="1.2"/>
						</g>
					</g>
				</g>
				<g>
					<g>
						<g>
							<circle class="st1" cx="32.3" cy="25.2" r="1.2"/>
						</g>
					</g>
				</g>
				<g>
					<g>
						<g>
							<circle class="st1" cx="22.8" cy="25.2" r="1.2"/>
						</g>
					</g>
				</g>
				<g>
					<g>
						<g>
							<circle class="st1" cx="13.3" cy="25.2" r="1.2"/>
						</g>
					</g>
				</g>
				<g>
					<g>
						<g>
							<circle class="st1" cx="3.8" cy="25.2" r="1.2"/>
						</g>
					</g>
				</g>
			</g>
			<g>
				<g>
					<g>
						<g>
							<circle class="st1" cx="89.3" cy="15.7" r="1.2"/>
						</g>
					</g>
				</g>
				<g>
					<g>
						<g>
							<circle class="st1" cx="79.8" cy="15.7" r="1.2"/>
						</g>
					</g>
				</g>
				<g>
					<g>
						<g>
							<circle class="st1" cx="70.3" cy="15.7" r="1.2"/>
						</g>
					</g>
				</g>
				<g>
					<g>
						<g>
							<circle class="st1" cx="60.8" cy="15.7" r="1.2"/>
						</g>
					</g>
				</g>
				<g>
					<g>
						<g>
							<circle class="st1" cx="51.3" cy="15.7" r="1.2"/>
						</g>
					</g>
				</g>
				<g>
					<g>
						<g>
							<circle class="st1" cx="41.8" cy="15.7" r="1.2"/>
						</g>
					</g>
				</g>
				<g>
					<g>
						<g>
							<circle class="st1" cx="32.3" cy="15.7" r="1.2"/>
						</g>
					</g>
				</g>
				<g>
					<g>
						<g>
							<circle class="st1" cx="22.8" cy="15.7" r="1.2"/>
						</g>
					</g>
				</g>
				<g>
					<g>
						<g>
							<circle class="st1" cx="13.3" cy="15.7" r="1.2"/>
						</g>
					</g>
				</g>
				<g>
					<g>
						<g>
							<circle class="st1" cx="3.8" cy="15.7" r="1.2"/>
						</g>
					</g>
				</g>
			</g>
			<g>
				<g>
					<g>
						<g>
							<circle class="st1" cx="89.3" cy="6.2" r="1.2"/>
						</g>
					</g>
				</g>
				<g>
					<g>
						<g>
							<circle class="st1" cx="79.8" cy="6.2" r="1.2"/>
						</g>
					</g>
				</g>
				<g>
					<g>
						<g>
							<circle class="st1" cx="70.3" cy="6.2" r="1.2"/>
						</g>
					</g>
				</g>
				<g>
					<g>
						<g>
							<circle class="st1" cx="60.8" cy="6.2" r="1.2"/>
						</g>
					</g>
				</g>
				<g>
					<g>
						<g>
							<circle class="st1" cx="51.3" cy="6.2" r="1.2"/>
						</g>
					</g>
				</g>
				<g>
					<g>
						<g>
							<circle class="st1" cx="41.8" cy="6.2" r="1.2"/>
						</g>
					</g>
				</g>
				<g>
					<g>
						<g>
							<circle class="st1" cx="32.3" cy="6.2" r="1.2"/>
						</g>
					</g>
				</g>
				<g>
					<g>
						<g>
							<circle class="st1" cx="22.8" cy="6.2" r="1.2"/>
						</g>
					</g>
				</g>
				<g>
					<g>
						<g>
							<circle class="st1" cx="13.3" cy="6.2" r="1.2"/>
						</g>
					</g>
				</g>
				<g>
					<g>
						<g>
							<circle class="st1" cx="3.8" cy="6.2" r="1.2"/>
						</g>
					</g>
				</g>
			</g>
		</g>
	</g>
	<g>
		<g>
			<path class="st2" d="M80.4,67.6c0,2.7-2.1,4.9-4.8,4.9h-1.2c-2.6,0-4.8,2.2-4.8,4.9c0,1.3-0.5,2.6-1.4,3.4
				c-0.9,0.9-2.1,1.4-3.4,1.4H46c-2.6,0-4.8-2.2-4.8-4.9c0-1.3-0.5-2.6-1.4-3.4c-0.9-0.9-2.1-1.4-3.4-1.4h-19
				c-2.6,0-4.8-2.2-4.8-4.9c0-1.3,0.5-2.6,1.4-3.4c0.9-0.9,2.1-1.4,3.4-1.4h1.2c1.7,0,2.9-1.6,2.4-3.3c-0.1-0.4-0.2-0.9-0.2-1.4
				c0-1.3,0.5-2.5,1.4-3.4c0.9-0.9,2.1-1.4,3.4-1.4h28.3c2.7,0,5.1,2.2,5,4.9c0,1.2-0.6,2.4-1.4,3.2c-0.6,0.6-1.4,1.1-2.3,1.3h20.5
				C78.3,62.7,80.4,64.9,80.4,67.6z"/>
		</g>
	</g>
	<g>
		<g>
			<path class="st2" d="M81,29.9c0,2.6-2.2,4.8-4.9,4.8h-9.8c-1.4,0-2.6,0.5-3.5,1.4s-1.4,2-1.4,3.4c0,2.6-2.2,4.8-4.9,4.8H17
				c-2.7,0-4.9-2.1-4.9-4.8c0-1.3,0.5-2.5,1.4-3.4s2.1-1.4,3.5-1.4s2.6-0.5,3.5-1.4s1.4-2.1,1.4-3.4c0-2.6,2.2-4.8,4.9-4.8h11.3
				c2,0,3.7-1.6,3.7-3.7l0,0c0-3.2,2.6-5.9,5.9-5.9h16.8c3.2,0,5.9,2.6,5.9,5.9l0,0c0,2,1.6,3.7,3.7,3.7h2.1c1.4,0,2.6,0.5,3.5,1.4
				C80.5,27.4,81,28.6,81,29.9z"/>
		</g>
	</g>
	<g>
		<g>
			<path class="st3" d="M73.7,43.9c0,0-11.6,12.3-25.9,12.3s-26-12.3-26-12.3s11.6-12.3,25.9-12.3S73.7,43.9,73.7,43.9z"/>
		</g>
		<g>
			<path class="st4" d="M47.7,56.7c-14.4,0-26.2-12.3-26.3-12.5l-0.3-0.3l0.3-0.3c0.1-0.1,11.9-12.5,26.3-12.5S73.9,43.4,74,43.6
				l0.3,0.3L74,44.2C73.9,44.3,62.1,56.7,47.7,56.7z M22.5,43.9c2,2,12.6,11.8,25.2,11.8s23.2-9.8,25.2-11.8
				c-2-2-12.6-11.8-25.2-11.8C35.1,32.1,24.5,41.9,22.5,43.9z"/>
		</g>
	</g>
	<g>
		<g>
			<circle class="st5" cx="48.1" cy="43.8" r="12.2"/>
		</g>
		<g>
			<path class="st4" d="M48.1,56.2c-6.9,0-12.4-5.6-12.4-12.4c0-6.9,5.6-12.4,12.4-12.4S60.5,37,60.5,43.8
				C60.6,50.6,55,56.2,48.1,56.2z M48.1,31.8c-6.6,0-11.9,5.4-11.9,11.9s5.4,11.9,11.9,11.9c6.6,0,11.9-5.4,11.9-11.9
				S54.7,31.8,48.1,31.8z"/>
		</g>
	</g>
	<g>
		<g>
			<path class="st6" d="M52.7,50.6l6.2,15.6c0.4,1-0.1,2-1,2.4l0,0c-1,0.4-2-0.1-2.4-1L49.3,52"/>
		</g>
		<g>
			<path class="st4" d="M57.2,69.2c-0.9,0-1.8-0.6-2.2-1.5l-6.2-15.6l0.9-0.4l6.2,15.6c0.3,0.7,1.1,1,1.8,0.8c0.7-0.3,1-1.1,0.8-1.8
				l-6.2-15.6l0.9-0.4l6.2,15.6c0.5,1.2-0.1,2.6-1.3,3.1C57.8,69.2,57.5,69.2,57.2,69.2z"/>
		</g>
	</g>
	<g>
		<g>
			<circle class="st3" cx="48.1" cy="43.8" r="8.3"/>
		</g>
		<g>
			<path class="st4" d="M48.1,52.6c-4.9,0-8.8-4-8.8-8.8c0-4.9,4-8.8,8.8-8.8c4.9,0,8.8,4,8.8,8.8C57,48.6,53,52.6,48.1,52.6z
				 M48.1,35.9c-4.3,0-7.8,3.5-7.8,7.8s3.5,7.8,7.8,7.8s7.8-3.5,7.8-7.8S52.5,35.9,48.1,35.9z"/>
		</g>
	</g>
	<g>
		<g>
			<path class="st4" d="M53.2,44.3c-0.3,0-0.5-0.2-0.5-0.5c0-2.5-2-4.5-4.5-4.5c-0.3,0-0.5-0.2-0.5-0.5s0.2-0.5,0.5-0.5
				c3.1,0,5.5,2.5,5.5,5.5C53.7,44,53.5,44.3,53.2,44.3z"/>
		</g>
	</g>
	<g>
		<g>
			<path class="st7" d="M43.9,43.9"/>
		</g>
	</g>
	<g>
		<g>
			<path class="st7" d="M47.7,47.7"/>
		</g>
	</g>
</g>
</svg>
