<?xml version="1.0" encoding="utf-8"?>
<!-- Generator: Adobe Illustrator 21.1.0, SVG Export Plug-In . SVG Version: 6.00 Build 0)  -->
<svg version="1.1" id="Layer_1" xmlns="http://www.w3.org/2000/svg" xmlns:xlink="http://www.w3.org/1999/xlink" x="0px" y="0px"
	 viewBox="0 0 101.5 118" style="enable-background:new 0 0 101.5 118;" xml:space="preserve">
<style type="text/css">
	.st0{fill:#333333;}
</style>
<g>
	<path class="st0" d="M93.734,112.218c-0.165-1.991-0.368-3.989-0.606-5.938l1.489-0.182c0.24,1.968,0.446,3.986,0.612,5.997
		L93.734,112.218z M92.289,100.374c-0.322-1.97-0.688-3.942-1.086-5.862l1.469-0.305c0.403,1.94,0.772,3.933,1.098,5.924
		L92.289,100.374z M89.859,88.707c-0.491-1.926-1.033-3.856-1.609-5.736l1.435-0.439c0.583,1.903,1.13,3.856,1.627,5.805
		L89.859,88.707z M86.367,77.32c-0.675-1.87-1.403-3.736-2.164-5.548l1.383-0.581c0.771,1.835,1.508,3.726,2.192,5.619L86.367,77.32
		z M81.754,66.345c-0.862-1.783-1.782-3.562-2.735-5.287l1.313-0.726c0.966,1.749,1.898,3.552,2.772,5.36L81.754,66.345z
		 M75.999,55.927c-1.053-1.679-2.164-3.346-3.302-4.955l1.225-0.866c1.154,1.631,2.281,3.321,3.348,5.024L75.999,55.927z
		 M69.123,46.21c-1.229-1.545-2.521-3.077-3.837-4.553l1.119-0.999c1.335,1.497,2.645,3.051,3.892,4.618L69.123,46.21z
		 M61.197,37.326c-1.397-1.399-2.853-2.777-4.326-4.097l1.001-1.117c1.494,1.338,2.969,2.736,4.386,4.155L61.197,37.326z
		 M52.324,29.376c-1.536-1.231-3.135-2.442-4.752-3.6l0.873-1.22c1.639,1.173,3.26,2.401,4.817,3.649L52.324,29.376z M42.63,22.437
		c-1.671-1.065-3.392-2.098-5.115-3.07l0.737-1.307c1.747,0.986,3.491,2.033,5.185,3.112L42.63,22.437z M32.241,16.575
		c-1.795-0.889-3.619-1.73-5.42-2.5l0.59-1.379c1.827,0.781,3.676,1.633,5.496,2.534L32.241,16.575z M21.267,11.896
		c-3.517-1.251-5.665-1.759-5.686-1.764l0.341-1.461c0.09,0.021,2.242,0.529,5.848,1.812L21.267,11.896z"/>
</g>
<g>
	<path class="st0" d="M8.877,12.501c-2.274,0-4.125-1.851-4.125-4.125s1.851-4.125,4.125-4.125s4.125,1.851,4.125,4.125
		S11.151,12.501,8.877,12.501z M8.877,5.751c-1.447,0-2.625,1.178-2.625,2.625s1.178,2.625,2.625,2.625s2.625-1.178,2.625-2.625
		S10.324,5.751,8.877,5.751z"/>
</g>
</svg>
