<?xml version="1.0" encoding="utf-8"?>
<!-- Generator: Adobe Illustrator 21.1.0, SVG Export Plug-In . SVG Version: 6.00 Build 0)  -->
<svg version="1.1" xmlns="http://www.w3.org/2000/svg" xmlns:xlink="http://www.w3.org/1999/xlink" x="0px" y="0px"
	 viewBox="0 0 868.457 428.979" style="enable-background:new 0 0 868.457 428.979;" xml:space="preserve">
<style type="text/css">
	.st0{fill:#C6D7DB;}
	.st1{fill:#EDF0F7;}
	.st2{fill:#FFFFFF;}
	.st3{fill:#333333;}
	.st4{fill:#1E1E1E;}
	.st5{fill:#E4CDB5;}
	.st6{fill:none;stroke:#333333;stroke-width:3;stroke-miterlimit:10;}
	.st7{fill:#E3EFF3;}
</style>
<g id="Layer_3">
	<g>
		<path class="st0" d="M296.053,277.018l-17.94,17.94c-4.867,4.867-12.758,4.867-17.625,0v0c-4.867-4.867-4.867-12.758,0-17.625
			l8.078-8.078l9.862-9.862c4.867-4.867,12.758-4.867,17.625,0v0C300.921,264.26,300.921,272.151,296.053,277.018z"/>
	</g>
	<g>
		<line class="st1" x1="47.04" y1="214.768" x2="112.023" y2="214.768"/>
	</g>
	<g>
		<circle class="st2" cx="550.249" cy="283.192" r="24.117"/>
		<path class="st3" d="M550.25,308.165c-13.77,0-24.973-11.203-24.973-24.973c0-13.77,11.203-24.973,24.973-24.973
			c13.77,0,24.973,11.203,24.973,24.973C575.222,296.962,564.019,308.165,550.25,308.165z M550.25,259.931
			c-12.827,0-23.262,10.435-23.262,23.261s10.435,23.262,23.262,23.262c12.827,0,23.261-10.435,23.261-23.262
			S563.076,259.931,550.25,259.931z"/>
	</g>
	<g>
		<g>
			<path class="st3" d="M557.265,293.03c-0.472,0-0.856-0.383-0.856-0.856c0-3.397-2.763-6.16-6.16-6.16
				c-3.397,0-6.16,2.763-6.16,6.16c0,0.472-0.383,0.856-0.856,0.856c-0.472,0-0.856-0.383-0.856-0.856
				c0-4.34,3.531-7.871,7.871-7.871c4.34,0,7.871,3.531,7.871,7.871C558.121,292.646,557.738,293.03,557.265,293.03z"/>
		</g>
		<g>
			<circle class="st3" cx="540.955" cy="276.459" r="2.12"/>
		</g>
		<g>
			<circle class="st3" cx="557.394" cy="276.459" r="2.12"/>
		</g>
	</g>
	<g>
		<circle class="st2" cx="551.253" cy="115.922" r="24.344"/>
		<path class="st3" d="M551.253,141.122c-13.896,0-25.2-11.305-25.2-25.2s11.305-25.2,25.2-25.2c13.895,0,25.2,11.305,25.2,25.2
			S565.148,141.122,551.253,141.122z M551.253,92.433c-12.952,0-23.489,10.537-23.489,23.489c0,12.952,10.537,23.489,23.489,23.489
			s23.489-10.537,23.489-23.489C574.741,102.97,564.205,92.433,551.253,92.433z"/>
	</g>
	<g>
		<g>
			<path class="st3" d="M551.253,127.664c-4.728,0-8.574-3.847-8.574-8.574c0-0.473,0.383-0.856,0.856-0.856
				c0.472,0,0.856,0.383,0.856,0.856c0,3.784,3.079,6.863,6.863,6.863c3.784,0,6.863-3.079,6.863-6.863
				c0-0.473,0.383-0.856,0.856-0.856s0.856,0.383,0.856,0.856C559.826,123.818,555.98,127.664,551.253,127.664z"/>
		</g>
		<g>
			<path class="st3" d="M546.093,115.007c-0.472,0-0.856-0.383-0.856-0.856c0-2.155-1.754-3.909-3.909-3.909
				c-2.155,0-3.909,1.754-3.909,3.909c0,0.473-0.383,0.856-0.856,0.856s-0.856-0.383-0.856-0.856c0-3.099,2.521-5.62,5.62-5.62
				c3.099,0,5.62,2.521,5.62,5.62C546.949,114.624,546.565,115.007,546.093,115.007z"/>
		</g>
		<g>
			<path class="st3" d="M565.941,115.007c-0.472,0-0.856-0.383-0.856-0.856c0-2.155-1.753-3.909-3.909-3.909
				c-2.155,0-3.909,1.754-3.909,3.909c0,0.473-0.383,0.856-0.856,0.856s-0.856-0.383-0.856-0.856c0-3.099,2.521-5.62,5.62-5.62
				c3.099,0,5.62,2.521,5.62,5.62C566.797,114.624,566.413,115.007,565.941,115.007z"/>
		</g>
	</g>
	<g>
		<path class="st2" d="M769.605,154.704h15.124c0.445,0,0.808,0.364,0.808,0.808v64.169c0,0.445-0.364,0.808-0.808,0.808h-53.141
			c-0.445,0-0.808-0.364-0.808-0.808v-64.169c0-0.445,0.364-0.808,0.808-0.808h15.124"/>
		<path class="st3" d="M784.729,221.346h-53.141c-0.917,0-1.664-0.746-1.664-1.664v-64.169c0-0.917,0.746-1.664,1.664-1.664h15.124
			v1.711h-15.076v64.074h53.047V155.56h-15.076v-1.711h15.124c0.917,0,1.664,0.746,1.664,1.664v64.169
			C786.393,220.599,785.646,221.346,784.729,221.346z"/>
	</g>
	<g>
		<path class="st2" d="M767.329,159.94h-18.342c-1.257,0-2.276-1.019-2.276-2.276v-0.903c0-5.469,4.434-9.903,9.903-9.903h3.088
			c5.469,0,9.903,4.434,9.903,9.903v0.903C769.605,158.921,768.586,159.94,767.329,159.94z"/>
		<path class="st4" d="M767.863,160.795h-19.41c-1.432,0-2.597-1.165-2.597-2.597v-3.76c0-4.651,3.784-8.436,8.436-8.436h7.734
			c4.651,0,8.436,3.784,8.436,8.436v3.76C770.461,159.63,769.295,160.795,767.863,160.795z M754.291,147.713
			c-3.708,0-6.724,3.017-6.724,6.724v3.76c0,0.489,0.398,0.886,0.886,0.886h19.41c0.489,0,0.886-0.397,0.886-0.886v-3.76
			c0-3.708-3.016-6.724-6.724-6.724H754.291z"/>
	</g>
	<g>
		<path class="st0" d="M751.059,182.891h-11.755c-0.77,0-1.395-0.625-1.395-1.395v-11.755c0-0.77,0.625-1.395,1.395-1.395h11.755
			c0.77,0,1.395,0.625,1.395,1.395v11.755C752.454,182.267,751.83,182.891,751.059,182.891z"/>
	</g>
	<g>
		<path class="st0" d="M751.059,204.281h-11.755c-0.77,0-1.395-0.625-1.395-1.395v-11.755c0-0.77,0.625-1.395,1.395-1.395h11.755
			c0.77,0,1.395,0.625,1.395,1.395v11.755C752.454,203.657,751.83,204.281,751.059,204.281z"/>
	</g>
	<g>
		<polygon class="st3" points="745.387,179.405 741.64,176.157 742.761,174.864 744.976,176.784 748.158,171.539 749.621,172.426 		
			"/>
	</g>
	<g>
		<polygon class="st3" points="745.387,201.375 741.64,198.128 742.761,196.834 744.976,198.754 748.158,193.509 749.621,194.397 		
			"/>
	</g>
	<g>
		<rect x="756.732" y="174.763" class="st3" width="21.532" height="1.711"/>
	</g>
	<g>
		<rect x="756.732" y="196.153" class="st3" width="21.532" height="1.711"/>
	</g>
</g>
<g id="Layer_1">
	<g>
		<rect x="47.04" y="210.656" class="st2" width="64.983" height="9.111"/>
	</g>
	<g>
		<path class="st3" d="M389.541,394.149H22.777V27.386h366.764V394.149z M24.488,392.438H387.83V29.097H24.488V392.438z"/>
	</g>
	<g>
		<path class="st3" d="M645.933,412.972c-52.639,0-102.128-20.499-139.351-57.721c-37.222-37.222-57.721-86.711-57.721-139.351
			s20.499-102.128,57.721-139.35c37.222-37.222,86.711-57.721,139.351-57.721c52.64,0,102.128,20.499,139.351,57.721
			c37.222,37.222,57.721,86.711,57.721,139.35s-20.499,102.128-57.721,139.351C748.062,392.473,698.573,412.972,645.933,412.972z
			 M645.933,20.541c-52.183,0-101.242,20.321-138.141,57.22c-36.899,36.899-57.219,85.958-57.219,138.14
			c0,52.183,20.321,101.242,57.219,138.141s85.958,57.219,138.141,57.219c52.183,0,101.242-20.321,138.141-57.219
			s57.219-85.958,57.219-138.141c0-52.182-20.321-101.242-57.219-138.14C747.175,40.862,698.116,20.541,645.933,20.541z"/>
	</g>
	<g>
		<path class="st2" d="M269.337,268.07l17.625,17.625l-8.97,8.97c-4.866,4.866-12.759,4.866-17.625,0
			c-2.433-2.433-3.648-5.624-3.651-8.813c0.003-3.188,1.218-6.38,3.651-8.813L269.337,268.07z"/>
	</g>
	<g>
		<line class="st5" x1="585.163" y1="217.422" x2="424.322" y2="217.437"/>
		<rect x="424.322" y="216.574" class="st4" width="160.842" height="1.711"/>
	</g>
	<g>
		<line class="st5" x1="677.831" y1="259.573" x2="760.453" y2="375.244"/>
		
			<rect x="718.286" y="246.335" transform="matrix(0.8137 -0.5812 0.5812 0.8137 -50.5385 477.1126)" class="st4" width="1.711" height="142.148"/>
	</g>
	<g>
		<line class="st5" x1="676.267" y1="173.312" x2="760.453" y2="56.558"/>
		
			<rect x="646.39" y="114.079" transform="matrix(0.5849 -0.8111 0.8111 0.5849 204.9693 630.3775)" class="st4" width="143.94" height="1.711"/>
	</g>
	<g>
		<polygon class="st4" points="432.513,227.366 421.998,217.426 432.53,207.998 433.672,209.272 424.525,217.461 433.689,226.123 		
			"/>
	</g>
	<g>
		<line class="st5" x1="245.378" y1="217.507" x2="416.488" y2="217.507"/>
		<rect x="245.378" y="216.651" class="st4" width="171.11" height="1.711"/>
	</g>
	<g>
		<polygon class="st4" points="408.279,226.946 407.137,225.672 416.284,217.483 407.121,208.821 408.296,207.578 418.811,217.518 
					"/>
	</g>
	<g>
		<g>
			<polygon class="st2" points="306.549,83.587 306.549,111.613 298.53,111.613 298.53,97.855 284.998,112.535 275.891,106.466 
				263.111,121.586 256.987,116.414 274.383,95.821 283.75,102.065 293.393,91.606 278.523,91.606 278.523,83.587 			"/>
			<path class="st4" d="M263.213,122.792l-7.432-6.276l18.441-21.831l9.394,6.263l7.824-8.487h-13.773v-9.73h29.737v29.737h-9.73
				v-12.423l-12.543,13.606l-9.079-6.052L263.213,122.792z M258.193,116.312l4.817,4.069l12.721-15.051l9.133,6.087l14.521-15.753
				v15.092h6.308V84.443h-26.315v6.308h15.967l-11.461,12.433l-9.34-6.227L258.193,116.312z"/>
		</g>
	</g>
	<g>
		<rect x="176.689" y="199.36" class="st2" width="50.195" height="35.174"/>
		<path class="st4" d="M227.739,235.39h-51.906v-36.886h51.906V235.39z M177.544,233.679h48.484v-33.463h-48.484V233.679z"/>
	</g>
	<g>
		<rect x="200.74" y="199.36" class="st3" width="1.711" height="35.175"/>
	</g>
	<g>
		<rect x="172.934" y="186.526" class="st0" width="57.467" height="12.834"/>
		<path class="st3" d="M231.256,200.215h-59.178V185.67h59.178V200.215z M173.789,198.504h55.756v-11.123h-55.756V198.504z"/>
	</g>
	<g>
		<path class="st6" d="M204.314,186.322"/>
	</g>
	<g>
		<path class="st3" d="M189.594,186.99c-1.678-1.583-2.641-3.814-2.641-6.12c0-4.639,3.774-8.413,8.413-8.413
			c2.766,0,5.356,1.361,6.929,3.639l-1.408,0.972c-1.254-1.816-3.317-2.9-5.52-2.9c-3.696,0-6.702,3.007-6.702,6.702
			c0,1.864,0.747,3.596,2.104,4.875L189.594,186.99z"/>
	</g>
	<g>
		<path class="st3" d="M213.616,186.962l-1.146-1.271c1.409-1.27,2.217-3.085,2.217-4.98c0-3.696-3.007-6.702-6.702-6.702
			c-2.233,0-4.285,1.089-5.538,2.926v9.591h-1.711v-10.094l0.132-0.209c1.553-2.457,4.213-3.924,7.117-3.924
			c4.639,0,8.413,3.774,8.413,8.413C216.398,183.09,215.384,185.368,213.616,186.962z"/>
	</g>
	<g>
		<path class="st6" d="M207.49,186.326"/>
	</g>
	<g>
		<path class="st3" d="M269.18,299.171c-3.558,0-6.902-1.385-9.418-3.901c-2.516-2.516-3.901-5.86-3.901-9.418
			c0-3.557,1.385-6.902,3.901-9.418l17.94-17.94c2.516-2.516,5.86-3.901,9.417-3.901c3.558,0,6.902,1.385,9.418,3.901
			c2.516,2.516,3.901,5.86,3.901,9.417c0,3.558-1.385,6.902-3.901,9.418l-17.94,17.94
			C276.082,297.786,272.737,299.171,269.18,299.171z M287.12,256.306c-3.1,0-6.015,1.207-8.207,3.4l-17.94,17.94
			c-2.192,2.192-3.4,5.107-3.4,8.208c0,3.101,1.207,6.015,3.4,8.208c2.192,2.192,5.107,3.4,8.208,3.4c3.1,0,6.015-1.207,8.208-3.4
			l17.94-17.94c2.192-2.192,3.4-5.107,3.4-8.208c0-3.1-1.207-6.015-3.4-8.207S290.22,256.306,287.12,256.306z"/>
	</g>
	<g>
		
			<rect x="277.294" y="264.42" transform="matrix(0.7071 -0.7071 0.7071 0.7071 -114.3174 277.7756)" class="st3" width="1.711" height="24.926"/>
	</g>
	<g>
		<path class="st3" d="M269.337,292.323c-2.301,0-4.601-0.876-6.353-2.628c-0.334-0.334-0.334-0.876,0-1.21
			c0.334-0.334,0.876-0.334,1.21,0c2.836,2.835,7.45,2.835,10.286,0c0.334-0.334,0.876-0.334,1.21,0c0.334,0.334,0.334,0.876,0,1.21
			C273.939,291.447,271.638,292.323,269.337,292.323z"/>
	</g>
	<g>
		<path class="st3" d="M160.526,165.991c-0.219,0-0.438-0.084-0.605-0.251L23.028,28.846c-0.334-0.334-0.334-0.876,0-1.21
			c0.334-0.334,0.876-0.334,1.21,0L161.131,164.53c0.334,0.334,0.334,0.876,0,1.21C160.964,165.907,160.745,165.991,160.526,165.991
			z"/>
	</g>
	<g>
		<path class="st0" d="M47.04,219.767h64.983v-4.999c0-17.944-14.547-32.491-32.491-32.491h0c-17.944,0-32.491,14.547-32.491,32.491
			V219.767z"/>
		<path class="st3" d="M112.878,220.623H46.185v-5.854c0-18.387,14.959-33.347,33.347-33.347s33.347,14.959,33.347,33.347V220.623z
			 M47.896,218.911h63.271v-4.143c0-17.444-14.192-31.635-31.636-31.635s-31.636,14.192-31.636,31.635V218.911z"/>
	</g>
	<g>
		<circle class="st2" cx="79.532" cy="170.093" r="4.999"/>
		<path class="st4" d="M79.532,175.947c-3.228,0-5.854-2.626-5.854-5.854s2.626-5.854,5.854-5.854s5.854,2.626,5.854,5.854
			S82.76,175.947,79.532,175.947z M79.532,165.95c-2.285,0-4.143,1.859-4.143,4.143s1.859,4.143,4.143,4.143
			c2.285,0,4.143-1.859,4.143-4.143S81.816,165.95,79.532,165.95z"/>
	</g>
	<g>
		<path class="st3" d="M79.532,183.133c-0.473,0-0.856-0.383-0.856-0.856v-7.186c0-0.473,0.383-0.856,0.856-0.856
			c0.473,0,0.856,0.383,0.856,0.856v7.186C80.387,182.75,80.004,183.133,79.532,183.133z"/>
	</g>
	<g>
		<path d="M47.871,248.127c-0.192-0.192-0.287-0.452-0.287-0.78v-12.485c0-0.315,0.092-0.565,0.277-0.749
			c0.184-0.185,0.441-0.277,0.77-0.277h4.949c1.533,0,2.724,0.377,3.573,1.129c0.849,0.753,1.273,1.821,1.273,3.203
			c0,1.369-0.424,2.437-1.273,3.203c-0.849,0.767-2.04,1.15-3.573,1.15h-3.881v4.826c0,0.329-0.092,0.589-0.277,0.78
			s-0.448,0.287-0.79,0.287C48.315,248.414,48.062,248.318,47.871,248.127z M53.354,240.817c2.025,0,3.039-0.883,3.039-2.649
			c0-1.752-1.014-2.628-3.039-2.628h-3.655v5.277H53.354z"/>
		<path d="M66.762,238.927c0,0.301-0.075,0.527-0.226,0.678c-0.151,0.15-0.411,0.24-0.78,0.267l-0.616,0.061
			c-0.862,0.082-1.503,0.384-1.92,0.904c-0.418,0.52-0.626,1.15-0.626,1.889v4.702c0,0.329-0.096,0.575-0.287,0.739
			c-0.192,0.164-0.438,0.246-0.739,0.246c-0.301,0-0.551-0.082-0.75-0.246c-0.199-0.164-0.298-0.411-0.298-0.739v-8.358
			c0-0.315,0.099-0.558,0.298-0.729c0.198-0.171,0.448-0.257,0.75-0.257c0.274,0,0.503,0.086,0.687,0.257
			c0.185,0.171,0.277,0.407,0.277,0.708v0.986c0.273-0.602,0.671-1.061,1.191-1.376c0.52-0.315,1.109-0.5,1.766-0.554l0.287-0.021
			C66.434,238.045,66.762,238.325,66.762,238.927z"/>
		<path d="M69.585,247.819c-0.746-0.424-1.321-1.03-1.725-1.817c-0.404-0.787-0.606-1.701-0.606-2.742
			c0-1.054,0.202-1.974,0.606-2.762c0.403-0.787,0.979-1.393,1.725-1.817c0.746-0.424,1.612-0.637,2.598-0.637
			c0.985,0,1.851,0.212,2.597,0.637c0.746,0.424,1.321,1.03,1.725,1.817c0.403,0.788,0.605,1.708,0.605,2.762
			c0,1.041-0.202,1.955-0.605,2.742c-0.404,0.787-0.979,1.393-1.725,1.817c-0.746,0.424-1.612,0.637-2.597,0.637
			C71.197,248.455,70.332,248.243,69.585,247.819z M74.288,245.909c0.486-0.602,0.729-1.485,0.729-2.649
			c0-1.15-0.246-2.029-0.739-2.639c-0.493-0.609-1.191-0.914-2.094-0.914c-0.903,0-1.602,0.305-2.094,0.914
			c-0.493,0.609-0.74,1.489-0.74,2.639c0,1.164,0.243,2.047,0.729,2.649c0.486,0.603,1.188,0.903,2.105,0.903
			C73.1,246.813,73.802,246.512,74.288,245.909z"/>
		<path d="M88.364,233.999c0.192,0.178,0.287,0.418,0.287,0.719v12.69c0,0.315-0.092,0.561-0.277,0.739
			c-0.185,0.178-0.435,0.267-0.75,0.267c-0.315,0-0.565-0.089-0.749-0.267c-0.185-0.178-0.277-0.424-0.277-0.739v-0.822
			c-0.301,0.603-0.739,1.065-1.314,1.386c-0.575,0.321-1.239,0.482-1.992,0.482c-0.863,0-1.633-0.219-2.31-0.657
			c-0.678-0.438-1.205-1.054-1.581-1.848s-0.565-1.704-0.565-2.731c0-1.041,0.188-1.951,0.565-2.731
			c0.377-0.78,0.9-1.383,1.571-1.807c0.671-0.424,1.444-0.637,2.321-0.637c0.753,0,1.413,0.161,1.981,0.482
			c0.568,0.322,1.003,0.777,1.304,1.366v-5.216c0-0.287,0.092-0.516,0.277-0.688c0.184-0.171,0.434-0.256,0.749-0.256
			S88.172,233.822,88.364,233.999z M85.859,245.889c0.493-0.616,0.739-1.492,0.739-2.629c0-1.136-0.243-2.012-0.729-2.628
			s-1.18-0.924-2.084-0.924c-0.904,0-1.605,0.305-2.105,0.914c-0.5,0.609-0.75,1.476-0.75,2.598s0.253,2.002,0.76,2.639
			c0.506,0.637,1.205,0.955,2.095,0.955C84.675,246.813,85.366,246.505,85.859,245.889z"/>
		<path d="M100.058,238.353c0.184,0.178,0.277,0.424,0.277,0.739v8.358c0,0.287-0.096,0.52-0.287,0.698
			c-0.192,0.178-0.445,0.267-0.76,0.267c-0.287,0-0.52-0.085-0.698-0.256c-0.178-0.171-0.267-0.4-0.267-0.688v-0.78
			c-0.315,0.575-0.75,1.013-1.304,1.314c-0.555,0.301-1.174,0.452-1.858,0.452c-2.437,0-3.655-1.341-3.655-4.025v-5.339
			c0-0.315,0.092-0.561,0.277-0.739c0.185-0.178,0.442-0.267,0.77-0.267c0.315,0,0.565,0.089,0.749,0.267
			c0.185,0.178,0.277,0.424,0.277,0.739v5.318c0,0.808,0.164,1.403,0.493,1.786c0.329,0.383,0.835,0.575,1.52,0.575
			c0.807,0,1.454-0.26,1.94-0.78c0.486-0.52,0.729-1.212,0.729-2.074v-4.826c0-0.301,0.096-0.544,0.287-0.729
			c0.192-0.184,0.445-0.277,0.76-0.277C99.623,238.086,99.874,238.175,100.058,238.353z"/>
		<path d="M104.965,247.819c-0.732-0.424-1.301-1.027-1.704-1.807c-0.404-0.78-0.606-1.684-0.606-2.71
			c0-1.04,0.209-1.957,0.627-2.752c0.417-0.794,1.003-1.41,1.756-1.848c0.753-0.438,1.615-0.657,2.587-0.657
			c0.52,0,1.044,0.075,1.571,0.226c0.527,0.15,0.996,0.356,1.407,0.616c0.438,0.301,0.657,0.651,0.657,1.047
			c0,0.233-0.061,0.428-0.184,0.585c-0.124,0.158-0.281,0.236-0.472,0.236c-0.124,0-0.247-0.031-0.37-0.092
			c-0.123-0.061-0.281-0.154-0.472-0.277c-0.342-0.218-0.661-0.387-0.955-0.503c-0.295-0.116-0.647-0.174-1.057-0.174
			c-0.931,0-1.653,0.315-2.167,0.945c-0.513,0.629-0.77,1.506-0.77,2.628c0,1.123,0.253,1.989,0.76,2.598
			c0.506,0.609,1.225,0.914,2.156,0.914c0.411,0,0.773-0.062,1.088-0.185c0.315-0.123,0.637-0.287,0.965-0.492
			c0.15-0.096,0.301-0.178,0.452-0.247c0.15-0.069,0.287-0.102,0.411-0.102c0.192,0,0.349,0.079,0.472,0.236
			c0.123,0.158,0.185,0.353,0.185,0.585c0,0.192-0.051,0.367-0.154,0.524c-0.103,0.158-0.277,0.319-0.524,0.483
			c-0.411,0.274-0.89,0.486-1.438,0.637c-0.548,0.15-1.102,0.226-1.663,0.226C106.55,248.455,105.698,248.243,104.965,247.819z"/>
		<path d="M118.743,247.07c0.13,0.13,0.195,0.311,0.195,0.544c0,0.274-0.106,0.482-0.318,0.626
			c-0.212,0.144-0.524,0.202-0.934,0.174l-0.555-0.041c-1.108-0.082-1.937-0.421-2.484-1.017c-0.548-0.595-0.822-1.475-0.822-2.639
			v-4.826h-1.232c-0.602,0-0.903-0.267-0.903-0.801c0-0.246,0.079-0.442,0.236-0.585c0.158-0.144,0.38-0.216,0.667-0.216h1.232
			v-2.115c0-0.315,0.092-0.561,0.277-0.739c0.185-0.178,0.434-0.267,0.749-0.267c0.315,0,0.568,0.089,0.76,0.267
			c0.192,0.178,0.288,0.424,0.288,0.739v2.115h2.033c0.287,0,0.51,0.072,0.667,0.216c0.157,0.144,0.236,0.339,0.236,0.585
			c0,0.26-0.079,0.459-0.236,0.595c-0.158,0.137-0.38,0.206-0.667,0.206H115.9v4.969c0,0.643,0.133,1.116,0.4,1.417
			c0.267,0.301,0.675,0.472,1.222,0.514l0.575,0.041C118.397,246.861,118.613,246.939,118.743,247.07z"/>
		<path d="M138.077,247.614c0,0.233-0.09,0.434-0.267,0.605s-0.383,0.257-0.616,0.257s-0.438-0.089-0.616-0.267l-1.807-1.828
			c-0.629,0.671-1.341,1.184-2.135,1.54c-0.794,0.356-1.629,0.534-2.506,0.534c-0.917,0-1.738-0.157-2.464-0.472
			c-0.726-0.315-1.291-0.763-1.694-1.345c-0.404-0.582-0.605-1.256-0.605-2.023c0-0.89,0.267-1.683,0.8-2.382
			c0.534-0.698,1.355-1.362,2.464-1.992c-0.561-0.602-0.979-1.16-1.253-1.673c-0.273-0.514-0.411-1.051-0.411-1.612
			c0-0.999,0.349-1.793,1.047-2.382c0.699-0.588,1.595-0.883,2.69-0.883c1.041,0,1.869,0.27,2.485,0.811
			c0.616,0.541,0.924,1.277,0.924,2.207c0,0.753-0.223,1.42-0.667,2.002c-0.445,0.582-1.154,1.168-2.126,1.756l3.224,3.265
			c0.438-0.903,0.705-1.991,0.801-3.265c0.013-0.287,0.113-0.51,0.297-0.667c0.185-0.157,0.393-0.236,0.627-0.236
			c0.246,0,0.455,0.086,0.626,0.257c0.171,0.171,0.243,0.407,0.216,0.709c-0.123,1.697-0.561,3.182-1.314,4.456l2.012,2.033
			C137.987,247.196,138.077,247.395,138.077,247.614z M132.05,246.423c0.582-0.274,1.098-0.678,1.55-1.212l-3.84-3.84
			c-0.849,0.506-1.455,1.003-1.818,1.489c-0.363,0.486-0.544,1.037-0.544,1.653c0,0.726,0.257,1.294,0.77,1.704
			c0.513,0.411,1.201,0.616,2.064,0.616C130.862,246.833,131.468,246.696,132.05,246.423z M129.401,235.673
			c-0.336,0.322-0.504,0.75-0.504,1.283c0,0.384,0.103,0.75,0.308,1.098c0.206,0.349,0.541,0.778,1.007,1.283
			c0.794-0.492,1.351-0.927,1.673-1.303c0.321-0.377,0.482-0.791,0.482-1.243c0-0.479-0.15-0.866-0.452-1.16
			c-0.301-0.294-0.698-0.441-1.191-0.441C130.177,235.19,129.736,235.351,129.401,235.673z"/>
		<path d="M49.4,270.861c-0.937-0.287-1.687-0.685-2.248-1.191c-0.26-0.219-0.39-0.5-0.39-0.842c0-0.246,0.069-0.455,0.206-0.626
			c0.136-0.171,0.301-0.257,0.493-0.257c0.192,0,0.424,0.089,0.698,0.267c1.218,0.903,2.608,1.355,4.168,1.355
			c1.095,0,1.937-0.205,2.526-0.616c0.588-0.411,0.883-0.999,0.883-1.766c0-0.602-0.274-1.054-0.822-1.355
			c-0.548-0.301-1.424-0.588-2.628-0.862c-1.15-0.247-2.094-0.527-2.834-0.842c-0.739-0.315-1.317-0.742-1.735-1.283
			c-0.417-0.54-0.626-1.228-0.626-2.063c0-0.835,0.229-1.578,0.688-2.228c0.458-0.65,1.098-1.157,1.92-1.52
			c0.821-0.363,1.759-0.544,2.813-0.544c0.972,0,1.869,0.137,2.69,0.411c0.822,0.274,1.52,0.678,2.095,1.212
			c0.273,0.233,0.411,0.514,0.411,0.842c0,0.233-0.072,0.438-0.216,0.616c-0.144,0.178-0.312,0.267-0.503,0.267
			c-0.178,0-0.404-0.089-0.678-0.267c-0.63-0.479-1.222-0.825-1.776-1.037c-0.554-0.212-1.222-0.318-2.002-0.318
			c-1.054,0-1.876,0.216-2.464,0.647c-0.589,0.431-0.883,1.03-0.883,1.796c0,0.657,0.26,1.154,0.78,1.489
			c0.52,0.335,1.355,0.64,2.505,0.914c1.205,0.274,2.18,0.558,2.927,0.852c0.746,0.295,1.341,0.699,1.786,1.212
			c0.445,0.514,0.667,1.174,0.667,1.982c0,0.821-0.229,1.55-0.688,2.187c-0.459,0.636-1.102,1.129-1.93,1.478
			c-0.829,0.349-1.784,0.524-2.865,0.524C51.327,271.292,50.338,271.148,49.4,270.861z"/>
		<path d="M68.528,268.828c0.124,0.151,0.185,0.343,0.185,0.575c0,0.398-0.246,0.732-0.739,1.007
			c-0.479,0.274-1.003,0.486-1.571,0.637c-0.568,0.15-1.112,0.226-1.633,0.226c-1.588,0-2.841-0.462-3.758-1.386
			c-0.917-0.924-1.376-2.187-1.376-3.789c0-1.027,0.202-1.937,0.606-2.731c0.403-0.794,0.971-1.41,1.704-1.848
			c0.732-0.438,1.564-0.657,2.495-0.657c1.342,0,2.403,0.431,3.183,1.293c0.78,0.863,1.171,2.026,1.171,3.491
			c0,0.548-0.247,0.822-0.739,0.822h-6.345c0.136,2.122,1.156,3.183,3.059,3.183c0.506,0,0.945-0.069,1.315-0.206
			c0.369-0.136,0.76-0.315,1.17-0.534c0.041-0.027,0.154-0.086,0.339-0.175c0.185-0.089,0.339-0.133,0.462-0.133
			C68.247,268.602,68.405,268.677,68.528,268.828z M62.573,263.14c-0.48,0.506-0.767,1.219-0.862,2.136h5.297
			c-0.041-0.931-0.277-1.646-0.708-2.146c-0.431-0.499-1.037-0.749-1.818-0.749C63.689,262.38,63.052,262.633,62.573,263.14z"/>
		<path d="M77.316,261.743c0,0.301-0.075,0.528-0.226,0.678c-0.151,0.15-0.411,0.24-0.78,0.267l-0.616,0.061
			c-0.862,0.082-1.503,0.384-1.92,0.904c-0.418,0.52-0.626,1.15-0.626,1.889v4.702c0,0.329-0.096,0.575-0.287,0.739
			c-0.192,0.164-0.438,0.246-0.739,0.246c-0.301,0-0.551-0.082-0.75-0.246c-0.199-0.164-0.298-0.411-0.298-0.739v-8.358
			c0-0.315,0.099-0.558,0.298-0.729c0.198-0.171,0.448-0.257,0.75-0.257c0.273,0,0.503,0.086,0.687,0.257
			c0.185,0.171,0.277,0.407,0.277,0.708v0.986c0.274-0.602,0.671-1.061,1.191-1.376c0.52-0.315,1.109-0.5,1.766-0.554l0.287-0.021
			C76.988,260.86,77.316,261.141,77.316,261.743z"/>
		<path d="M86.69,261.066c0.158-0.096,0.325-0.144,0.504-0.144c0.26,0,0.489,0.089,0.688,0.267c0.198,0.178,0.297,0.39,0.297,0.637
			c0,0.137-0.027,0.267-0.082,0.39l-3.922,8.316c-0.096,0.219-0.243,0.387-0.442,0.503c-0.199,0.116-0.408,0.174-0.626,0.174
			c-0.219,0-0.428-0.058-0.627-0.174c-0.198-0.116-0.346-0.284-0.441-0.503l-3.922-8.316c-0.055-0.109-0.082-0.24-0.082-0.39
			c0-0.247,0.11-0.458,0.329-0.637c0.219-0.178,0.465-0.267,0.739-0.267c0.397,0,0.691,0.192,0.883,0.575l3.183,7.064l3.162-7.043
			C86.413,261.312,86.533,261.162,86.69,261.066z"/>
		<path d="M89.986,258.56c-0.233-0.219-0.349-0.506-0.349-0.862c0-0.356,0.116-0.64,0.349-0.852
			c0.232-0.212,0.547-0.318,0.945-0.318c0.383,0,0.695,0.106,0.934,0.318c0.24,0.212,0.359,0.496,0.359,0.852
			c0,0.356-0.116,0.643-0.349,0.862c-0.233,0.219-0.548,0.329-0.944,0.329C90.533,258.889,90.218,258.78,89.986,258.56z
			 M90.181,270.984c-0.199-0.164-0.298-0.411-0.298-0.739v-8.337c0-0.329,0.099-0.578,0.298-0.749
			c0.198-0.171,0.448-0.257,0.75-0.257c0.301,0,0.547,0.086,0.739,0.257c0.192,0.171,0.287,0.421,0.287,0.749v8.337
			c0,0.329-0.096,0.575-0.287,0.739c-0.192,0.164-0.438,0.246-0.739,0.246C90.629,271.23,90.379,271.148,90.181,270.984z"/>
		<path d="M96.587,270.635c-0.732-0.424-1.301-1.027-1.704-1.807c-0.404-0.78-0.606-1.684-0.606-2.71
			c0-1.04,0.209-1.957,0.627-2.752c0.417-0.794,1.003-1.41,1.756-1.848c0.753-0.438,1.615-0.657,2.587-0.657
			c0.52,0,1.044,0.075,1.571,0.226c0.527,0.15,0.996,0.356,1.407,0.616c0.438,0.301,0.657,0.651,0.657,1.047
			c0,0.233-0.061,0.428-0.184,0.585c-0.124,0.158-0.281,0.236-0.472,0.236c-0.124,0-0.247-0.031-0.37-0.092
			c-0.123-0.061-0.281-0.154-0.472-0.277c-0.342-0.218-0.661-0.387-0.955-0.503c-0.295-0.116-0.647-0.174-1.057-0.174
			c-0.931,0-1.653,0.315-2.167,0.945c-0.513,0.629-0.77,1.506-0.77,2.628c0,1.123,0.253,1.989,0.76,2.598
			c0.506,0.609,1.225,0.914,2.156,0.914c0.411,0,0.773-0.062,1.088-0.185c0.315-0.123,0.637-0.287,0.965-0.492
			c0.15-0.096,0.301-0.178,0.452-0.247c0.15-0.069,0.287-0.103,0.411-0.103c0.192,0,0.349,0.079,0.472,0.236
			c0.123,0.158,0.185,0.353,0.185,0.585c0,0.192-0.051,0.367-0.154,0.524c-0.103,0.158-0.277,0.319-0.524,0.483
			c-0.411,0.274-0.89,0.486-1.438,0.637c-0.548,0.15-1.102,0.226-1.663,0.226C98.172,271.271,97.32,271.059,96.587,270.635z"/>
		<path d="M113.086,268.828c0.124,0.151,0.185,0.343,0.185,0.575c0,0.398-0.246,0.732-0.739,1.007
			c-0.479,0.274-1.003,0.486-1.571,0.637c-0.568,0.15-1.112,0.226-1.633,0.226c-1.588,0-2.841-0.462-3.758-1.386
			c-0.917-0.924-1.376-2.187-1.376-3.789c0-1.027,0.202-1.937,0.606-2.731c0.403-0.794,0.971-1.41,1.704-1.848
			c0.732-0.438,1.564-0.657,2.495-0.657c1.342,0,2.403,0.431,3.183,1.293c0.78,0.863,1.171,2.026,1.171,3.491
			c0,0.548-0.247,0.822-0.739,0.822h-6.345c0.136,2.122,1.156,3.183,3.059,3.183c0.506,0,0.945-0.069,1.315-0.206
			c0.369-0.136,0.76-0.315,1.17-0.534c0.041-0.027,0.154-0.086,0.339-0.175c0.185-0.089,0.339-0.133,0.462-0.133
			C112.805,268.602,112.963,268.677,113.086,268.828z M107.132,263.14c-0.48,0.506-0.767,1.219-0.862,2.136h5.297
			c-0.041-0.931-0.277-1.646-0.708-2.146c-0.431-0.499-1.037-0.749-1.818-0.749C108.247,262.38,107.611,262.633,107.132,263.14z"/>
		<path d="M115.694,270.409c-0.246-0.15-0.421-0.308-0.524-0.472c-0.102-0.164-0.154-0.349-0.154-0.554
			c0-0.219,0.061-0.404,0.184-0.555c0.124-0.15,0.281-0.226,0.472-0.226c0.178,0,0.458,0.11,0.842,0.329
			c0.411,0.219,0.811,0.397,1.201,0.534c0.39,0.137,0.88,0.206,1.468,0.206c0.657,0,1.17-0.116,1.54-0.349
			c0.369-0.233,0.554-0.561,0.554-0.986c0-0.273-0.072-0.492-0.216-0.657c-0.144-0.164-0.394-0.311-0.75-0.442
			c-0.356-0.13-0.883-0.27-1.581-0.421c-1.205-0.26-2.071-0.613-2.597-1.058c-0.528-0.445-0.791-1.051-0.791-1.817
			c0-0.589,0.171-1.119,0.514-1.591c0.342-0.472,0.814-0.838,1.417-1.099c0.602-0.26,1.286-0.39,2.053-0.39
			c0.548,0,1.081,0.072,1.601,0.216c0.52,0.144,0.979,0.353,1.376,0.626c0.452,0.301,0.678,0.651,0.678,1.047
			c0,0.219-0.065,0.404-0.195,0.555c-0.13,0.151-0.285,0.226-0.462,0.226c-0.123,0-0.246-0.027-0.369-0.082
			c-0.124-0.055-0.288-0.144-0.493-0.267c-0.37-0.219-0.716-0.39-1.037-0.514c-0.322-0.123-0.722-0.185-1.201-0.185
			c-0.575,0-1.037,0.123-1.386,0.37c-0.349,0.246-0.524,0.582-0.524,1.006c0,0.383,0.161,0.681,0.483,0.893
			c0.321,0.212,0.927,0.414,1.817,0.605c0.917,0.192,1.636,0.411,2.156,0.657c0.52,0.246,0.893,0.551,1.119,0.914
			c0.226,0.363,0.339,0.825,0.339,1.386c0,0.89-0.373,1.605-1.119,2.146c-0.746,0.541-1.742,0.811-2.988,0.811
			C117.727,271.271,116.584,270.984,115.694,270.409z"/>
	</g>
	<g>
		<path d="M268.198,145.202c0.157,0.151,0.236,0.357,0.236,0.616v4.805c0,0.466-0.065,0.801-0.195,1.007
			c-0.13,0.205-0.387,0.369-0.77,0.493c-0.548,0.219-1.198,0.39-1.951,0.513c-0.753,0.123-1.499,0.185-2.238,0.185
			c-1.465,0-2.731-0.294-3.799-0.883s-1.882-1.438-2.443-2.546c-0.561-1.109-0.842-2.437-0.842-3.984
			c0-1.52,0.281-2.834,0.842-3.943c0.561-1.109,1.365-1.961,2.412-2.556c1.047-0.596,2.276-0.893,3.686-0.893
			c0.958,0,1.845,0.14,2.659,0.421c0.814,0.281,1.51,0.688,2.084,1.222c0.273,0.219,0.411,0.493,0.411,0.822
			c0,0.246-0.069,0.455-0.206,0.626c-0.137,0.172-0.301,0.257-0.492,0.257c-0.124,0-0.233-0.021-0.329-0.062
			c-0.096-0.041-0.219-0.109-0.37-0.205c-0.671-0.493-1.28-0.839-1.828-1.037s-1.178-0.298-1.889-0.298
			c-1.561,0-2.752,0.483-3.573,1.448c-0.822,0.965-1.232,2.365-1.232,4.199c0,1.876,0.421,3.296,1.263,4.261
			c0.842,0.965,2.077,1.448,3.706,1.448c1.095,0,2.149-0.164,3.162-0.493v-4.045h-2.69c-0.274,0-0.49-0.072-0.647-0.216
			c-0.157-0.144-0.236-0.339-0.236-0.585c0-0.247,0.079-0.442,0.236-0.585c0.158-0.144,0.373-0.216,0.647-0.216h3.758
			C267.831,144.976,268.04,145.051,268.198,145.202z"/>
		<path d="M278.567,143.395c0.65,0.671,0.975,1.691,0.975,3.06v5.318c0,0.315-0.089,0.558-0.267,0.729
			c-0.178,0.171-0.424,0.256-0.739,0.256c-0.301,0-0.541-0.089-0.719-0.267c-0.178-0.178-0.267-0.417-0.267-0.719v-0.76
			c-0.26,0.575-0.647,1.017-1.16,1.325c-0.514,0.308-1.112,0.462-1.797,0.462c-0.657,0-1.259-0.134-1.807-0.401
			c-0.548-0.267-0.975-0.639-1.283-1.119c-0.308-0.479-0.462-1.013-0.462-1.601c0-0.726,0.188-1.297,0.565-1.715
			c0.376-0.418,0.999-0.715,1.868-0.893c0.87-0.178,2.064-0.267,3.583-0.267h0.472v-0.595c0-0.766-0.158-1.321-0.472-1.663
			c-0.315-0.342-0.822-0.514-1.52-0.514c-0.48,0-0.931,0.062-1.355,0.185c-0.424,0.123-0.89,0.301-1.396,0.534
			c-0.369,0.206-0.629,0.308-0.78,0.308c-0.205,0-0.373-0.075-0.503-0.226c-0.13-0.15-0.195-0.342-0.195-0.575
			c0-0.206,0.058-0.387,0.174-0.544s0.305-0.311,0.565-0.462c0.479-0.26,1.041-0.468,1.684-0.626
			c0.643-0.157,1.266-0.236,1.869-0.236C276.928,142.389,277.917,142.724,278.567,143.395z M276.812,150.49
			c0.479-0.514,0.719-1.174,0.719-1.982v-0.534h-0.37c-1.068,0-1.889,0.048-2.464,0.144c-0.575,0.096-0.986,0.257-1.232,0.482
			c-0.247,0.226-0.37,0.551-0.37,0.975c0,0.493,0.178,0.897,0.534,1.212c0.355,0.315,0.8,0.472,1.335,0.472
			C275.717,151.259,276.333,151.003,276.812,150.49z"/>
		<path d="M282.479,140.089c-0.233-0.219-0.349-0.506-0.349-0.862c0-0.356,0.116-0.64,0.349-0.852
			c0.232-0.212,0.547-0.318,0.945-0.318c0.383,0,0.695,0.106,0.934,0.318c0.24,0.212,0.359,0.496,0.359,0.852
			c0,0.356-0.116,0.643-0.349,0.862c-0.233,0.219-0.548,0.329-0.944,0.329C283.026,140.417,282.712,140.308,282.479,140.089z
			 M282.674,152.512c-0.199-0.164-0.298-0.411-0.298-0.739v-8.337c0-0.329,0.099-0.578,0.298-0.749
			c0.198-0.171,0.448-0.257,0.75-0.257c0.301,0,0.547,0.086,0.739,0.257c0.192,0.171,0.287,0.421,0.287,0.749v8.337
			c0,0.329-0.096,0.575-0.287,0.739c-0.192,0.164-0.438,0.246-0.739,0.246C283.123,152.758,282.873,152.676,282.674,152.512z"/>
		<path d="M296.339,146.434v5.339c0,0.315-0.092,0.558-0.277,0.729s-0.441,0.256-0.77,0.256c-0.315,0-0.565-0.089-0.75-0.267
			c-0.184-0.178-0.277-0.417-0.277-0.719v-5.236c0-0.849-0.168-1.472-0.504-1.869s-0.859-0.595-1.571-0.595
			c-0.835,0-1.506,0.26-2.012,0.78c-0.507,0.52-0.76,1.218-0.76,2.094v4.826c0,0.301-0.092,0.541-0.277,0.719
			s-0.434,0.267-0.749,0.267c-0.315,0-0.569-0.089-0.76-0.267c-0.192-0.178-0.288-0.417-0.288-0.719v-8.358
			c0-0.287,0.099-0.524,0.298-0.709c0.198-0.184,0.448-0.277,0.75-0.277c0.301,0,0.54,0.089,0.719,0.267
			c0.178,0.178,0.267,0.411,0.267,0.698v0.842c0.329-0.602,0.787-1.061,1.376-1.376c0.588-0.315,1.253-0.472,1.992-0.472
			C295.141,142.389,296.339,143.737,296.339,146.434z"/>
		<path d="M258.177,174.979c-0.732-0.424-1.301-1.027-1.704-1.807c-0.404-0.78-0.606-1.684-0.606-2.71
			c0-1.04,0.209-1.957,0.627-2.752c0.417-0.794,1.003-1.41,1.756-1.848c0.753-0.438,1.615-0.657,2.587-0.657
			c0.52,0,1.044,0.075,1.571,0.226c0.527,0.15,0.996,0.356,1.407,0.616c0.438,0.301,0.657,0.651,0.657,1.047
			c0,0.233-0.061,0.428-0.184,0.585c-0.124,0.158-0.281,0.236-0.472,0.236c-0.124,0-0.247-0.031-0.37-0.092
			c-0.123-0.061-0.281-0.154-0.472-0.277c-0.342-0.218-0.661-0.387-0.955-0.503c-0.295-0.116-0.647-0.174-1.057-0.174
			c-0.931,0-1.653,0.315-2.167,0.945c-0.513,0.629-0.77,1.506-0.77,2.628c0,1.123,0.253,1.989,0.76,2.598
			c0.506,0.609,1.225,0.914,2.156,0.914c0.411,0,0.773-0.062,1.088-0.185c0.315-0.123,0.637-0.287,0.965-0.492
			c0.15-0.096,0.301-0.178,0.452-0.247c0.15-0.069,0.287-0.102,0.411-0.102c0.192,0,0.349,0.079,0.472,0.236
			c0.123,0.158,0.185,0.353,0.185,0.585c0,0.192-0.051,0.367-0.154,0.524c-0.103,0.158-0.277,0.319-0.524,0.483
			c-0.411,0.274-0.89,0.486-1.438,0.637c-0.548,0.15-1.102,0.226-1.663,0.226C259.762,175.615,258.909,175.403,258.177,174.979z"/>
		<path d="M272.602,166.087c0,0.301-0.075,0.528-0.226,0.678c-0.151,0.15-0.411,0.24-0.78,0.267l-0.616,0.061
			c-0.862,0.082-1.503,0.384-1.92,0.904c-0.418,0.52-0.626,1.15-0.626,1.889v4.702c0,0.329-0.096,0.575-0.287,0.739
			c-0.192,0.164-0.438,0.246-0.739,0.246c-0.301,0-0.551-0.082-0.75-0.246c-0.199-0.164-0.298-0.411-0.298-0.739v-8.358
			c0-0.315,0.099-0.558,0.298-0.729c0.198-0.171,0.448-0.257,0.75-0.257c0.273,0,0.503,0.086,0.687,0.257
			c0.185,0.171,0.277,0.407,0.277,0.708v0.986c0.273-0.602,0.671-1.061,1.191-1.376c0.52-0.315,1.109-0.5,1.766-0.554l0.287-0.021
			C272.274,165.205,272.602,165.485,272.602,166.087z"/>
		<path d="M281.986,173.172c0.124,0.151,0.185,0.343,0.185,0.575c0,0.398-0.246,0.732-0.739,1.007
			c-0.479,0.274-1.003,0.486-1.571,0.637c-0.568,0.15-1.112,0.226-1.633,0.226c-1.588,0-2.841-0.462-3.758-1.386
			c-0.917-0.924-1.376-2.187-1.376-3.789c0-1.027,0.202-1.937,0.606-2.731c0.403-0.794,0.971-1.41,1.704-1.848
			c0.732-0.438,1.564-0.657,2.495-0.657c1.342,0,2.403,0.431,3.183,1.293c0.78,0.863,1.171,2.026,1.171,3.491
			c0,0.548-0.247,0.822-0.739,0.822h-6.345c0.136,2.122,1.156,3.183,3.059,3.183c0.506,0,0.945-0.069,1.315-0.206
			c0.369-0.136,0.76-0.315,1.17-0.534c0.041-0.027,0.154-0.086,0.339-0.175c0.185-0.089,0.339-0.133,0.462-0.133
			C281.706,172.946,281.863,173.021,281.986,173.172z M276.032,167.484c-0.48,0.506-0.767,1.219-0.862,2.136h5.297
			c-0.041-0.931-0.277-1.646-0.708-2.146c-0.431-0.499-1.037-0.749-1.818-0.749C277.148,166.724,276.511,166.978,276.032,167.484z"
			/>
		<path d="M291.709,166.211c0.65,0.671,0.975,1.691,0.975,3.06v5.318c0,0.315-0.089,0.558-0.267,0.729s-0.424,0.256-0.739,0.256
			c-0.301,0-0.541-0.089-0.719-0.267c-0.178-0.178-0.267-0.417-0.267-0.719v-0.76c-0.26,0.575-0.647,1.017-1.16,1.325
			c-0.514,0.308-1.112,0.462-1.797,0.462c-0.657,0-1.259-0.134-1.807-0.4c-0.548-0.267-0.975-0.639-1.283-1.119
			c-0.308-0.479-0.462-1.013-0.462-1.601c0-0.726,0.188-1.297,0.565-1.715c0.376-0.418,0.999-0.715,1.868-0.893
			c0.87-0.178,2.064-0.267,3.583-0.267h0.472v-0.595c0-0.766-0.158-1.321-0.472-1.663c-0.315-0.342-0.822-0.514-1.52-0.514
			c-0.48,0-0.931,0.062-1.355,0.185c-0.424,0.123-0.89,0.301-1.396,0.534c-0.369,0.206-0.629,0.308-0.78,0.308
			c-0.205,0-0.373-0.075-0.503-0.226c-0.13-0.15-0.195-0.342-0.195-0.575c0-0.206,0.058-0.387,0.174-0.544s0.305-0.311,0.565-0.462
			c0.479-0.26,1.041-0.468,1.684-0.626c0.643-0.157,1.266-0.236,1.869-0.236C290.069,165.205,291.059,165.54,291.709,166.211z
			 M289.954,173.305c0.479-0.514,0.719-1.174,0.719-1.982v-0.534h-0.37c-1.068,0-1.889,0.048-2.464,0.144
			c-0.575,0.096-0.986,0.257-1.232,0.482c-0.247,0.226-0.37,0.551-0.37,0.975c0,0.493,0.178,0.897,0.534,1.212
			c0.355,0.315,0.8,0.472,1.335,0.472C288.858,174.075,289.474,173.818,289.954,173.305z"/>
		<path d="M301.072,174.229c0.13,0.13,0.195,0.311,0.195,0.544c0,0.274-0.106,0.482-0.318,0.626
			c-0.212,0.144-0.524,0.202-0.934,0.174l-0.555-0.041c-1.108-0.082-1.937-0.421-2.484-1.017c-0.548-0.595-0.822-1.475-0.822-2.639
			v-4.826h-1.232c-0.602,0-0.904-0.267-0.904-0.801c0-0.246,0.079-0.442,0.236-0.585c0.158-0.144,0.38-0.216,0.667-0.216h1.232
			v-2.115c0-0.315,0.092-0.561,0.277-0.739c0.185-0.178,0.434-0.267,0.749-0.267c0.315,0,0.568,0.089,0.76,0.267
			c0.192,0.178,0.288,0.424,0.288,0.739v2.115h2.033c0.287,0,0.51,0.072,0.667,0.216c0.157,0.144,0.236,0.339,0.236,0.585
			c0,0.26-0.079,0.459-0.236,0.595c-0.158,0.137-0.38,0.206-0.667,0.206h-2.033v4.969c0,0.643,0.133,1.116,0.4,1.417
			c0.267,0.301,0.675,0.472,1.222,0.514l0.575,0.041C300.726,174.021,300.942,174.099,301.072,174.229z"/>
		<path d="M304.522,174.979c-0.746-0.424-1.321-1.03-1.725-1.817c-0.404-0.787-0.606-1.701-0.606-2.742
			c0-1.054,0.202-1.974,0.606-2.762c0.403-0.787,0.979-1.393,1.725-1.817c0.746-0.424,1.612-0.637,2.598-0.637
			c0.985,0,1.851,0.212,2.597,0.637c0.746,0.424,1.321,1.03,1.725,1.817c0.403,0.788,0.605,1.708,0.605,2.762
			c0,1.041-0.202,1.955-0.605,2.742c-0.404,0.787-0.979,1.393-1.725,1.817c-0.746,0.424-1.612,0.637-2.597,0.637
			C306.134,175.615,305.268,175.403,304.522,174.979z M309.224,173.069c0.486-0.602,0.729-1.485,0.729-2.649
			c0-1.15-0.246-2.029-0.739-2.639c-0.493-0.609-1.191-0.914-2.094-0.914s-1.602,0.305-2.094,0.914
			c-0.493,0.609-0.74,1.489-0.74,2.639c0,1.164,0.243,2.047,0.729,2.649c0.486,0.603,1.188,0.903,2.105,0.903
			C308.037,173.973,308.739,173.672,309.224,173.069z"/>
		<path d="M320.59,166.087c0,0.301-0.075,0.528-0.226,0.678c-0.151,0.15-0.411,0.24-0.78,0.267l-0.616,0.061
			c-0.862,0.082-1.503,0.384-1.92,0.904c-0.418,0.52-0.626,1.15-0.626,1.889v4.702c0,0.329-0.096,0.575-0.287,0.739
			c-0.192,0.164-0.438,0.246-0.739,0.246c-0.301,0-0.551-0.082-0.75-0.246c-0.199-0.164-0.298-0.411-0.298-0.739v-8.358
			c0-0.315,0.099-0.558,0.298-0.729c0.198-0.171,0.448-0.257,0.75-0.257c0.273,0,0.503,0.086,0.687,0.257
			c0.185,0.171,0.277,0.407,0.277,0.708v0.986c0.274-0.602,0.671-1.061,1.191-1.376c0.52-0.315,1.109-0.5,1.766-0.554l0.287-0.021
			C320.261,165.205,320.59,165.485,320.59,166.087z"/>
		<path d="M321.822,174.753c-0.246-0.15-0.421-0.308-0.524-0.472c-0.102-0.164-0.154-0.349-0.154-0.554
			c0-0.219,0.061-0.404,0.184-0.555c0.124-0.15,0.281-0.226,0.472-0.226c0.178,0,0.458,0.11,0.842,0.329
			c0.411,0.219,0.811,0.397,1.201,0.534c0.39,0.137,0.88,0.206,1.468,0.206c0.657,0,1.17-0.116,1.54-0.349
			c0.369-0.233,0.554-0.561,0.554-0.986c0-0.273-0.072-0.492-0.216-0.657s-0.394-0.311-0.75-0.442
			c-0.356-0.13-0.883-0.27-1.581-0.421c-1.205-0.26-2.071-0.613-2.597-1.058c-0.527-0.445-0.791-1.051-0.791-1.817
			c0-0.589,0.171-1.119,0.514-1.591c0.342-0.472,0.814-0.838,1.417-1.099c0.602-0.26,1.286-0.39,2.053-0.39
			c0.548,0,1.081,0.072,1.601,0.216s0.979,0.353,1.376,0.626c0.452,0.301,0.678,0.651,0.678,1.047c0,0.219-0.065,0.404-0.195,0.555
			c-0.13,0.151-0.285,0.226-0.462,0.226c-0.123,0-0.246-0.027-0.369-0.082c-0.124-0.055-0.288-0.144-0.493-0.267
			c-0.37-0.219-0.716-0.39-1.037-0.514c-0.322-0.123-0.722-0.185-1.201-0.185c-0.575,0-1.037,0.123-1.386,0.37
			c-0.349,0.246-0.524,0.582-0.524,1.006c0,0.383,0.161,0.681,0.483,0.893c0.321,0.212,0.927,0.414,1.817,0.605
			c0.917,0.192,1.636,0.411,2.156,0.657c0.52,0.246,0.893,0.551,1.119,0.914c0.226,0.363,0.339,0.825,0.339,1.386
			c0,0.89-0.373,1.605-1.119,2.146c-0.746,0.541-1.742,0.811-2.988,0.811C323.855,175.615,322.712,175.328,321.822,174.753z"/>
	</g>
	<g>
		<path d="M256.976,334.435c-0.192-0.192-0.287-0.452-0.287-0.78V321.17c0-0.315,0.092-0.565,0.277-0.749
			c0.184-0.185,0.441-0.277,0.77-0.277h4.949c1.533,0,2.724,0.377,3.573,1.129c0.849,0.753,1.273,1.821,1.273,3.203
			c0,1.369-0.424,2.437-1.273,3.203c-0.849,0.767-2.04,1.15-3.573,1.15h-3.881v4.826c0,0.329-0.092,0.589-0.277,0.78
			s-0.448,0.287-0.79,0.287C257.421,334.723,257.168,334.627,256.976,334.435z M262.459,327.125c2.025,0,3.039-0.883,3.039-2.649
			c0-1.752-1.014-2.628-3.039-2.628h-3.655v5.277H262.459z"/>
		<path d="M276.76,325.359c0.65,0.671,0.975,1.691,0.975,3.06v5.318c0,0.315-0.089,0.558-0.267,0.729
			c-0.178,0.171-0.424,0.256-0.739,0.256c-0.301,0-0.541-0.089-0.719-0.267c-0.178-0.178-0.267-0.417-0.267-0.719v-0.76
			c-0.26,0.575-0.647,1.017-1.16,1.325c-0.514,0.308-1.112,0.462-1.797,0.462c-0.657,0-1.259-0.134-1.807-0.4
			s-0.975-0.639-1.283-1.119c-0.308-0.479-0.462-1.013-0.462-1.601c0-0.726,0.188-1.297,0.565-1.715
			c0.376-0.418,0.999-0.715,1.868-0.893c0.87-0.178,2.064-0.267,3.583-0.267h0.472v-0.595c0-0.766-0.158-1.321-0.472-1.663
			c-0.315-0.342-0.822-0.514-1.52-0.514c-0.48,0-0.931,0.062-1.355,0.185c-0.424,0.123-0.89,0.301-1.396,0.534
			c-0.369,0.206-0.629,0.308-0.78,0.308c-0.205,0-0.373-0.075-0.503-0.226c-0.13-0.15-0.195-0.342-0.195-0.575
			c0-0.206,0.058-0.387,0.174-0.544c0.116-0.158,0.305-0.311,0.565-0.462c0.479-0.26,1.041-0.468,1.684-0.626
			c0.643-0.157,1.266-0.236,1.869-0.236C275.121,324.353,276.11,324.688,276.76,325.359z M275.005,332.454
			c0.479-0.514,0.719-1.174,0.719-1.982v-0.534h-0.37c-1.068,0-1.889,0.048-2.464,0.144c-0.575,0.096-0.986,0.257-1.232,0.482
			c-0.247,0.226-0.37,0.551-0.37,0.975c0,0.493,0.178,0.897,0.534,1.212c0.355,0.315,0.8,0.472,1.335,0.472
			C273.91,333.224,274.526,332.967,275.005,332.454z"/>
		<path d="M280.672,322.053c-0.233-0.219-0.349-0.506-0.349-0.862c0-0.356,0.116-0.64,0.349-0.852
			c0.232-0.212,0.547-0.318,0.945-0.318c0.383,0,0.695,0.106,0.934,0.318c0.24,0.212,0.359,0.496,0.359,0.852
			c0,0.356-0.116,0.643-0.349,0.862c-0.233,0.219-0.548,0.329-0.944,0.329C281.219,322.382,280.905,322.272,280.672,322.053z
			 M280.867,334.476c-0.199-0.164-0.298-0.411-0.298-0.739V325.4c0-0.329,0.099-0.578,0.298-0.749
			c0.198-0.171,0.448-0.257,0.75-0.257c0.301,0,0.547,0.086,0.739,0.257c0.192,0.171,0.287,0.421,0.287,0.749v8.337
			c0,0.329-0.096,0.575-0.287,0.739c-0.192,0.164-0.438,0.246-0.739,0.246C281.316,334.723,281.066,334.641,280.867,334.476z"/>
		<path d="M294.532,328.398v5.339c0,0.315-0.092,0.558-0.277,0.729c-0.185,0.171-0.441,0.256-0.77,0.256
			c-0.315,0-0.565-0.089-0.75-0.267c-0.184-0.178-0.277-0.417-0.277-0.719v-5.236c0-0.849-0.168-1.472-0.504-1.869
			s-0.859-0.595-1.571-0.595c-0.835,0-1.506,0.26-2.012,0.78c-0.507,0.52-0.76,1.218-0.76,2.094v4.826
			c0,0.301-0.092,0.541-0.277,0.719c-0.185,0.178-0.434,0.267-0.749,0.267c-0.315,0-0.569-0.089-0.76-0.267
			c-0.192-0.178-0.288-0.417-0.288-0.719v-8.358c0-0.287,0.099-0.524,0.298-0.709c0.198-0.184,0.448-0.277,0.75-0.277
			c0.301,0,0.54,0.089,0.719,0.267c0.178,0.178,0.267,0.411,0.267,0.698v0.842c0.329-0.602,0.787-1.061,1.376-1.376
			c0.588-0.315,1.253-0.472,1.992-0.472C293.334,324.353,294.532,325.702,294.532,328.398z"/>
		<path d="M262.684,348.052c0,0.301-0.075,0.527-0.226,0.678c-0.151,0.15-0.411,0.24-0.78,0.267l-0.616,0.061
			c-0.862,0.082-1.503,0.384-1.92,0.904c-0.418,0.52-0.626,1.15-0.626,1.889v4.702c0,0.329-0.096,0.575-0.287,0.739
			c-0.192,0.164-0.438,0.246-0.739,0.246c-0.301,0-0.551-0.082-0.75-0.246c-0.199-0.164-0.298-0.411-0.298-0.739v-8.358
			c0-0.315,0.099-0.558,0.298-0.729c0.198-0.171,0.448-0.257,0.75-0.257c0.273,0,0.503,0.086,0.687,0.257
			c0.185,0.171,0.277,0.407,0.277,0.708v0.986c0.273-0.602,0.671-1.061,1.191-1.376c0.52-0.315,1.109-0.5,1.766-0.554l0.287-0.021
			C262.356,347.169,262.684,347.449,262.684,348.052z"/>
		<path d="M272.069,355.136c0.124,0.151,0.185,0.343,0.185,0.575c0,0.398-0.246,0.732-0.739,1.007
			c-0.479,0.274-1.003,0.486-1.571,0.637c-0.568,0.15-1.112,0.226-1.633,0.226c-1.588,0-2.841-0.462-3.758-1.386
			c-0.917-0.924-1.376-2.187-1.376-3.789c0-1.027,0.202-1.937,0.606-2.731c0.403-0.794,0.971-1.41,1.704-1.848
			c0.732-0.438,1.564-0.657,2.495-0.657c1.342,0,2.403,0.431,3.183,1.293c0.78,0.863,1.171,2.026,1.171,3.491
			c0,0.548-0.247,0.822-0.739,0.822h-6.345c0.136,2.122,1.156,3.183,3.059,3.183c0.506,0,0.945-0.069,1.315-0.206
			c0.369-0.136,0.76-0.315,1.17-0.534c0.041-0.027,0.154-0.086,0.339-0.175c0.185-0.089,0.339-0.133,0.462-0.133
			C271.788,354.91,271.946,354.985,272.069,355.136z M266.114,349.448c-0.48,0.506-0.767,1.219-0.862,2.136h5.297
			c-0.041-0.931-0.277-1.646-0.708-2.146c-0.431-0.499-1.037-0.749-1.818-0.749C267.23,348.688,266.593,348.942,266.114,349.448z"/>
		<path d="M274.912,357.292c-0.199-0.164-0.298-0.411-0.298-0.739v-12.69c0-0.329,0.099-0.578,0.298-0.75
			c0.198-0.171,0.448-0.256,0.75-0.256c0.301,0,0.547,0.085,0.739,0.256c0.192,0.172,0.287,0.421,0.287,0.75v12.69
			c0,0.329-0.096,0.575-0.287,0.739c-0.192,0.164-0.438,0.246-0.739,0.246C275.361,357.538,275.111,357.456,274.912,357.292z"/>
		<path d="M279.686,344.869c-0.233-0.219-0.349-0.506-0.349-0.862c0-0.356,0.116-0.64,0.349-0.852
			c0.232-0.212,0.547-0.318,0.945-0.318c0.383,0,0.695,0.106,0.934,0.318c0.24,0.212,0.359,0.496,0.359,0.852
			c0,0.356-0.116,0.643-0.349,0.862c-0.233,0.219-0.548,0.329-0.944,0.329C280.233,345.197,279.919,345.088,279.686,344.869z
			 M279.881,357.292c-0.199-0.164-0.298-0.411-0.298-0.739v-8.337c0-0.329,0.099-0.578,0.298-0.749
			c0.198-0.171,0.448-0.257,0.75-0.257c0.301,0,0.547,0.086,0.739,0.257c0.192,0.171,0.287,0.421,0.287,0.749v8.337
			c0,0.329-0.096,0.575-0.287,0.739c-0.192,0.164-0.438,0.246-0.739,0.246C280.33,357.538,280.08,357.456,279.881,357.292z"/>
		<path d="M292.869,355.136c0.124,0.151,0.185,0.343,0.185,0.575c0,0.398-0.246,0.732-0.739,1.007
			c-0.479,0.274-1.003,0.486-1.571,0.637c-0.568,0.15-1.112,0.226-1.633,0.226c-1.588,0-2.841-0.462-3.758-1.386
			c-0.917-0.924-1.376-2.187-1.376-3.789c0-1.027,0.202-1.937,0.606-2.731c0.403-0.794,0.971-1.41,1.704-1.848
			c0.732-0.438,1.564-0.657,2.495-0.657c1.342,0,2.403,0.431,3.183,1.293c0.78,0.863,1.171,2.026,1.171,3.491
			c0,0.548-0.247,0.822-0.739,0.822h-6.345c0.136,2.122,1.156,3.183,3.059,3.183c0.506,0,0.945-0.069,1.315-0.206
			c0.369-0.136,0.76-0.315,1.17-0.534c0.041-0.027,0.154-0.086,0.339-0.175c0.185-0.089,0.339-0.133,0.462-0.133
			C292.588,354.91,292.746,354.985,292.869,355.136z M286.914,349.448c-0.48,0.506-0.767,1.219-0.862,2.136h5.297
			c-0.041-0.931-0.277-1.646-0.708-2.146c-0.431-0.499-1.037-0.749-1.818-0.749C288.03,348.688,287.394,348.942,286.914,349.448z"/>
		<path d="M302.756,347.374c0.158-0.096,0.325-0.144,0.504-0.144c0.26,0,0.489,0.089,0.688,0.267
			c0.198,0.178,0.297,0.39,0.297,0.637c0,0.137-0.027,0.267-0.082,0.39l-3.922,8.316c-0.096,0.219-0.243,0.387-0.442,0.503
			c-0.199,0.116-0.408,0.174-0.626,0.174c-0.219,0-0.428-0.058-0.627-0.174c-0.198-0.116-0.346-0.284-0.441-0.503l-3.922-8.316
			c-0.055-0.109-0.082-0.24-0.082-0.39c0-0.247,0.11-0.458,0.329-0.637c0.219-0.178,0.465-0.267,0.739-0.267
			c0.397,0,0.691,0.192,0.883,0.575l3.183,7.064l3.162-7.043C302.479,347.62,302.599,347.47,302.756,347.374z"/>
		<path d="M314.122,355.136c0.124,0.151,0.185,0.343,0.185,0.575c0,0.398-0.246,0.732-0.739,1.007
			c-0.479,0.274-1.003,0.486-1.571,0.637c-0.568,0.15-1.112,0.226-1.633,0.226c-1.588,0-2.841-0.462-3.758-1.386
			c-0.917-0.924-1.376-2.187-1.376-3.789c0-1.027,0.202-1.937,0.606-2.731c0.403-0.794,0.971-1.41,1.704-1.848
			c0.732-0.438,1.564-0.657,2.495-0.657c1.342,0,2.403,0.431,3.183,1.293c0.78,0.863,1.171,2.026,1.171,3.491
			c0,0.548-0.247,0.822-0.739,0.822h-6.345c0.136,2.122,1.156,3.183,3.059,3.183c0.506,0,0.945-0.069,1.315-0.206
			c0.369-0.136,0.76-0.315,1.17-0.534c0.041-0.027,0.154-0.086,0.339-0.175c0.185-0.089,0.339-0.133,0.462-0.133
			C313.841,354.91,313.999,354.985,314.122,355.136z M308.167,349.448c-0.48,0.506-0.767,1.219-0.862,2.136h5.297
			c-0.041-0.931-0.277-1.646-0.708-2.146c-0.431-0.499-1.037-0.749-1.818-0.749C309.283,348.688,308.646,348.942,308.167,349.448z"
			/>
		<path d="M322.911,348.052c0,0.301-0.075,0.527-0.226,0.678c-0.151,0.15-0.411,0.24-0.78,0.267l-0.616,0.061
			c-0.862,0.082-1.503,0.384-1.92,0.904c-0.418,0.52-0.626,1.15-0.626,1.889v4.702c0,0.329-0.096,0.575-0.287,0.739
			c-0.192,0.164-0.438,0.246-0.739,0.246c-0.301,0-0.551-0.082-0.75-0.246c-0.199-0.164-0.298-0.411-0.298-0.739v-8.358
			c0-0.315,0.099-0.558,0.298-0.729c0.198-0.171,0.448-0.257,0.75-0.257c0.273,0,0.503,0.086,0.687,0.257
			c0.185,0.171,0.277,0.407,0.277,0.708v0.986c0.273-0.602,0.671-1.061,1.191-1.376c0.52-0.315,1.109-0.5,1.766-0.554l0.287-0.021
			C322.582,347.169,322.911,347.449,322.911,348.052z"/>
		<path d="M324.143,356.717c-0.246-0.15-0.421-0.308-0.524-0.472c-0.103-0.164-0.154-0.349-0.154-0.554
			c0-0.219,0.061-0.404,0.184-0.555c0.124-0.15,0.281-0.226,0.472-0.226c0.178,0,0.458,0.11,0.842,0.329
			c0.411,0.219,0.811,0.397,1.201,0.534c0.39,0.137,0.88,0.206,1.468,0.206c0.657,0,1.17-0.116,1.54-0.349
			c0.369-0.233,0.554-0.561,0.554-0.986c0-0.273-0.072-0.492-0.216-0.657c-0.144-0.164-0.394-0.311-0.75-0.442
			c-0.356-0.13-0.883-0.27-1.581-0.421c-1.205-0.26-2.071-0.613-2.597-1.058c-0.527-0.444-0.791-1.051-0.791-1.817
			c0-0.589,0.171-1.119,0.514-1.591c0.342-0.472,0.814-0.838,1.417-1.099c0.602-0.26,1.286-0.39,2.053-0.39
			c0.548,0,1.081,0.072,1.601,0.216s0.979,0.353,1.376,0.626c0.452,0.301,0.678,0.651,0.678,1.047c0,0.219-0.065,0.404-0.195,0.555
			c-0.13,0.151-0.285,0.226-0.462,0.226c-0.123,0-0.246-0.027-0.369-0.082c-0.124-0.055-0.288-0.144-0.493-0.267
			c-0.37-0.219-0.716-0.39-1.037-0.514c-0.322-0.123-0.722-0.185-1.201-0.185c-0.575,0-1.037,0.123-1.386,0.37
			c-0.349,0.246-0.524,0.582-0.524,1.006c0,0.383,0.161,0.681,0.483,0.893c0.321,0.212,0.927,0.414,1.817,0.605
			c0.917,0.192,1.636,0.411,2.156,0.657c0.52,0.246,0.893,0.551,1.119,0.914c0.226,0.363,0.339,0.825,0.339,1.386
			c0,0.89-0.373,1.605-1.119,2.146c-0.746,0.541-1.742,0.811-2.988,0.811C326.176,357.58,325.032,357.292,324.143,356.717z"/>
	</g>
	<g>
		<path d="M538.095,163.005c0.157,0.151,0.236,0.356,0.236,0.616v4.805c0,0.466-0.065,0.801-0.195,1.007
			c-0.13,0.205-0.387,0.369-0.77,0.493c-0.548,0.219-1.198,0.39-1.951,0.513c-0.753,0.123-1.499,0.185-2.238,0.185
			c-1.465,0-2.731-0.294-3.799-0.883c-1.068-0.589-1.882-1.438-2.443-2.546c-0.562-1.109-0.842-2.437-0.842-3.984
			c0-1.52,0.281-2.834,0.842-3.943c0.561-1.109,1.365-1.961,2.412-2.556c1.047-0.596,2.276-0.893,3.686-0.893
			c0.958,0,1.845,0.14,2.659,0.421c0.814,0.281,1.51,0.688,2.084,1.222c0.273,0.219,0.411,0.493,0.411,0.822
			c0,0.246-0.068,0.455-0.206,0.626c-0.137,0.172-0.301,0.257-0.492,0.257c-0.124,0-0.233-0.021-0.329-0.062
			c-0.096-0.041-0.219-0.109-0.37-0.205c-0.671-0.493-1.28-0.839-1.828-1.037c-0.548-0.198-1.178-0.298-1.889-0.298
			c-1.561,0-2.752,0.483-3.573,1.448c-0.822,0.965-1.232,2.365-1.232,4.199c0,1.876,0.421,3.296,1.263,4.261
			c0.842,0.965,2.077,1.448,3.706,1.448c1.095,0,2.149-0.164,3.162-0.493v-4.045h-2.69c-0.274,0-0.49-0.072-0.647-0.216
			c-0.157-0.144-0.236-0.339-0.236-0.585c0-0.247,0.079-0.442,0.236-0.585c0.158-0.144,0.373-0.216,0.647-0.216h3.758
			C537.729,162.779,537.938,162.854,538.095,163.005z"/>
		<path d="M548.465,161.198c0.65,0.671,0.975,1.691,0.975,3.06v5.318c0,0.315-0.089,0.558-0.267,0.729
			c-0.178,0.171-0.424,0.256-0.739,0.256c-0.301,0-0.541-0.089-0.719-0.267c-0.178-0.178-0.267-0.417-0.267-0.719v-0.76
			c-0.26,0.575-0.647,1.017-1.16,1.325c-0.514,0.308-1.112,0.462-1.797,0.462c-0.657,0-1.259-0.134-1.807-0.4
			s-0.975-0.639-1.283-1.119c-0.308-0.479-0.462-1.013-0.462-1.601c0-0.726,0.188-1.297,0.565-1.715
			c0.376-0.418,0.999-0.715,1.868-0.893c0.87-0.178,2.064-0.267,3.583-0.267h0.472v-0.595c0-0.766-0.158-1.321-0.472-1.663
			c-0.315-0.342-0.822-0.514-1.52-0.514c-0.48,0-0.931,0.062-1.355,0.185c-0.424,0.123-0.89,0.301-1.396,0.534
			c-0.369,0.206-0.629,0.308-0.78,0.308c-0.205,0-0.373-0.075-0.503-0.226c-0.13-0.15-0.195-0.342-0.195-0.575
			c0-0.206,0.058-0.387,0.174-0.544c0.116-0.158,0.305-0.311,0.565-0.462c0.479-0.26,1.041-0.468,1.684-0.626
			c0.643-0.157,1.266-0.236,1.869-0.236C546.826,160.192,547.815,160.527,548.465,161.198z M546.71,168.292
			c0.479-0.514,0.719-1.174,0.719-1.982v-0.534h-0.37c-1.068,0-1.889,0.048-2.464,0.144c-0.575,0.096-0.986,0.257-1.232,0.482
			c-0.247,0.226-0.37,0.551-0.37,0.975c0,0.493,0.178,0.897,0.534,1.212c0.355,0.315,0.8,0.472,1.335,0.472
			C545.614,169.062,546.23,168.805,546.71,168.292z"/>
		<path d="M552.377,157.892c-0.233-0.219-0.349-0.506-0.349-0.862s0.116-0.64,0.349-0.852c0.232-0.212,0.547-0.318,0.945-0.318
			c0.383,0,0.695,0.106,0.934,0.318c0.24,0.212,0.359,0.496,0.359,0.852s-0.116,0.643-0.349,0.862
			c-0.233,0.219-0.548,0.329-0.944,0.329C552.924,158.22,552.609,158.111,552.377,157.892z M552.572,170.315
			c-0.199-0.164-0.298-0.411-0.298-0.739v-8.337c0-0.329,0.099-0.578,0.298-0.749c0.198-0.171,0.448-0.257,0.75-0.257
			c0.301,0,0.547,0.086,0.739,0.257c0.192,0.171,0.287,0.421,0.287,0.749v8.337c0,0.329-0.096,0.575-0.287,0.739
			c-0.192,0.164-0.438,0.246-0.739,0.246C553.02,170.561,552.77,170.479,552.572,170.315z"/>
		<path d="M566.237,164.237v5.339c0,0.315-0.092,0.558-0.277,0.729s-0.441,0.256-0.77,0.256c-0.315,0-0.565-0.089-0.75-0.267
			c-0.184-0.178-0.277-0.417-0.277-0.719v-5.236c0-0.849-0.168-1.472-0.504-1.869s-0.859-0.595-1.571-0.595
			c-0.835,0-1.506,0.26-2.012,0.78c-0.507,0.52-0.76,1.218-0.76,2.094v4.826c0,0.301-0.092,0.541-0.277,0.719
			c-0.185,0.178-0.435,0.267-0.749,0.267c-0.315,0-0.569-0.089-0.76-0.267c-0.192-0.178-0.288-0.417-0.288-0.719v-8.358
			c0-0.287,0.099-0.524,0.298-0.709c0.198-0.184,0.448-0.277,0.75-0.277c0.301,0,0.54,0.089,0.719,0.267
			c0.178,0.178,0.267,0.411,0.267,0.698v0.842c0.329-0.602,0.787-1.061,1.376-1.376c0.588-0.315,1.253-0.472,1.992-0.472
			C565.039,160.192,566.237,161.54,566.237,164.237z"/>
		<path d="M569.132,169.74c-0.246-0.15-0.421-0.308-0.524-0.472c-0.102-0.164-0.154-0.349-0.154-0.554
			c0-0.219,0.061-0.404,0.184-0.555c0.124-0.15,0.281-0.226,0.472-0.226c0.178,0,0.458,0.11,0.842,0.329
			c0.411,0.219,0.811,0.397,1.201,0.534c0.39,0.137,0.88,0.206,1.468,0.206c0.657,0,1.17-0.116,1.54-0.349
			c0.369-0.233,0.554-0.561,0.554-0.986c0-0.273-0.072-0.492-0.216-0.657c-0.144-0.164-0.394-0.311-0.75-0.442
			c-0.356-0.13-0.883-0.27-1.581-0.421c-1.205-0.26-2.071-0.613-2.597-1.058c-0.527-0.445-0.791-1.051-0.791-1.817
			c0-0.589,0.171-1.119,0.514-1.591c0.342-0.472,0.814-0.838,1.417-1.099c0.602-0.26,1.286-0.39,2.053-0.39
			c0.548,0,1.081,0.072,1.601,0.216s0.979,0.353,1.376,0.626c0.452,0.301,0.678,0.651,0.678,1.047c0,0.219-0.065,0.404-0.195,0.555
			c-0.13,0.151-0.285,0.226-0.462,0.226c-0.123,0-0.246-0.027-0.369-0.082c-0.124-0.055-0.288-0.144-0.493-0.267
			c-0.37-0.219-0.716-0.39-1.037-0.514c-0.322-0.123-0.722-0.185-1.201-0.185c-0.575,0-1.037,0.123-1.386,0.37
			c-0.349,0.246-0.524,0.582-0.524,1.006c0,0.383,0.161,0.681,0.483,0.893c0.321,0.212,0.927,0.414,1.817,0.605
			c0.917,0.192,1.636,0.411,2.156,0.657c0.52,0.246,0.893,0.551,1.119,0.914c0.226,0.363,0.339,0.825,0.339,1.386
			c0,0.89-0.373,1.605-1.119,2.146c-0.746,0.541-1.742,0.811-2.988,0.811C571.165,170.602,570.022,170.315,569.132,169.74z"/>
	</g>
	<g>
		<path d="M527.058,334.188c-0.192-0.192-0.287-0.452-0.287-0.78v-12.485c0-0.315,0.092-0.565,0.277-0.749
			c0.185-0.185,0.441-0.277,0.77-0.277h4.949c1.533,0,2.724,0.377,3.573,1.129c0.849,0.753,1.273,1.821,1.273,3.203
			c0,1.369-0.424,2.437-1.273,3.203c-0.849,0.767-2.04,1.15-3.573,1.15h-3.88v4.826c0,0.329-0.092,0.589-0.277,0.78
			s-0.449,0.287-0.791,0.287C527.503,334.475,527.25,334.379,527.058,334.188z M532.542,326.878c2.025,0,3.039-0.883,3.039-2.649
			c0-1.752-1.014-2.628-3.039-2.628h-3.655v5.277H532.542z"/>
		<path d="M546.843,325.112c0.651,0.671,0.976,1.691,0.976,3.06v5.318c0,0.315-0.089,0.558-0.267,0.729
			c-0.177,0.171-0.424,0.256-0.739,0.256c-0.302,0-0.541-0.089-0.719-0.267c-0.178-0.178-0.267-0.417-0.267-0.719v-0.76
			c-0.26,0.575-0.647,1.017-1.16,1.325c-0.514,0.308-1.113,0.462-1.797,0.462c-0.657,0-1.26-0.134-1.807-0.4
			c-0.548-0.267-0.976-0.639-1.283-1.119c-0.309-0.479-0.462-1.013-0.462-1.601c0-0.726,0.188-1.297,0.565-1.715
			c0.377-0.418,0.999-0.715,1.868-0.893c0.87-0.178,2.064-0.267,3.584-0.267h0.472v-0.595c0-0.766-0.158-1.321-0.472-1.663
			c-0.315-0.342-0.822-0.514-1.52-0.514c-0.48,0-0.931,0.062-1.356,0.185c-0.424,0.123-0.89,0.301-1.396,0.534
			c-0.37,0.206-0.629,0.308-0.781,0.308c-0.205,0-0.372-0.075-0.502-0.226c-0.13-0.15-0.195-0.342-0.195-0.575
			c0-0.206,0.058-0.387,0.174-0.544c0.117-0.158,0.305-0.311,0.565-0.462c0.479-0.26,1.041-0.468,1.684-0.626
			c0.643-0.157,1.266-0.236,1.868-0.236C545.204,324.106,546.193,324.441,546.843,325.112z M545.088,332.206
			c0.479-0.514,0.719-1.174,0.719-1.982v-0.534h-0.37c-1.068,0-1.889,0.048-2.464,0.144c-0.575,0.096-0.986,0.257-1.232,0.482
			c-0.246,0.226-0.37,0.551-0.37,0.975c0,0.493,0.178,0.897,0.535,1.212c0.355,0.315,0.8,0.472,1.335,0.472
			C543.992,332.976,544.608,332.719,545.088,332.206z"/>
		<path d="M550.755,321.806c-0.233-0.219-0.35-0.506-0.35-0.862c0-0.356,0.117-0.64,0.35-0.852c0.232-0.212,0.547-0.318,0.945-0.318
			c0.382,0,0.694,0.106,0.934,0.318s0.36,0.496,0.36,0.852c0,0.356-0.117,0.643-0.35,0.862c-0.233,0.219-0.547,0.329-0.944,0.329
			C551.302,322.134,550.987,322.025,550.755,321.806z M550.95,334.229c-0.199-0.164-0.299-0.411-0.299-0.739v-8.337
			c0-0.329,0.099-0.578,0.299-0.749c0.198-0.171,0.448-0.257,0.75-0.257c0.301,0,0.547,0.086,0.739,0.257
			c0.192,0.171,0.287,0.421,0.287,0.749v8.337c0,0.329-0.096,0.575-0.287,0.739c-0.192,0.164-0.438,0.246-0.739,0.246
			C551.398,334.475,551.149,334.393,550.95,334.229z"/>
		<path d="M564.615,328.151v5.339c0,0.315-0.092,0.558-0.277,0.729c-0.185,0.171-0.441,0.256-0.77,0.256
			c-0.315,0-0.565-0.089-0.75-0.267c-0.185-0.178-0.277-0.417-0.277-0.719v-5.236c0-0.849-0.168-1.472-0.504-1.869
			c-0.335-0.397-0.859-0.595-1.571-0.595c-0.834,0-1.505,0.26-2.012,0.78s-0.76,1.218-0.76,2.094v4.826
			c0,0.301-0.092,0.541-0.277,0.719c-0.185,0.178-0.435,0.267-0.749,0.267c-0.315,0-0.569-0.089-0.76-0.267
			c-0.193-0.178-0.289-0.417-0.289-0.719v-8.358c0-0.287,0.099-0.524,0.299-0.709c0.198-0.184,0.448-0.277,0.75-0.277
			c0.301,0,0.54,0.089,0.719,0.267c0.177,0.178,0.266,0.411,0.266,0.698v0.842c0.329-0.602,0.788-1.061,1.376-1.376
			c0.588-0.315,1.253-0.472,1.992-0.472C563.417,324.106,564.615,325.454,564.615,328.151z"/>
		<path d="M567.511,333.654c-0.246-0.15-0.421-0.308-0.524-0.472c-0.103-0.164-0.154-0.349-0.154-0.554
			c0-0.219,0.061-0.404,0.184-0.555c0.124-0.15,0.281-0.226,0.472-0.226c0.178,0,0.459,0.11,0.842,0.329
			c0.411,0.219,0.811,0.397,1.201,0.534c0.391,0.137,0.88,0.206,1.468,0.206c0.657,0,1.171-0.116,1.541-0.349
			c0.369-0.233,0.554-0.561,0.554-0.986c0-0.273-0.071-0.492-0.215-0.657c-0.144-0.164-0.394-0.311-0.75-0.442
			c-0.357-0.13-0.883-0.27-1.581-0.421c-1.205-0.26-2.071-0.613-2.598-1.058c-0.527-0.445-0.791-1.051-0.791-1.817
			c0-0.589,0.172-1.119,0.514-1.591c0.342-0.472,0.814-0.838,1.417-1.099c0.603-0.26,1.287-0.39,2.053-0.39
			c0.548,0,1.082,0.072,1.602,0.216c0.52,0.144,0.978,0.353,1.376,0.626c0.451,0.301,0.677,0.651,0.677,1.047
			c0,0.219-0.065,0.404-0.195,0.555c-0.13,0.151-0.284,0.226-0.462,0.226c-0.122,0-0.246-0.027-0.369-0.082
			c-0.124-0.055-0.289-0.144-0.494-0.267c-0.37-0.219-0.715-0.39-1.037-0.514s-0.722-0.185-1.201-0.185
			c-0.575,0-1.037,0.123-1.386,0.37c-0.349,0.246-0.524,0.582-0.524,1.006c0,0.383,0.16,0.681,0.482,0.893
			c0.322,0.212,0.927,0.414,1.817,0.605c0.917,0.192,1.637,0.411,2.157,0.657c0.52,0.246,0.892,0.551,1.118,0.914
			c0.226,0.363,0.339,0.825,0.339,1.386c0,0.89-0.373,1.605-1.118,2.146c-0.746,0.541-1.742,0.811-2.988,0.811
			C569.544,334.516,568.4,334.229,567.511,333.654z"/>
	</g>
	<g>
		<path d="M734.298,247.747c-1.027-0.595-1.814-1.45-2.361-2.567c-0.548-1.115-0.822-2.433-0.822-3.953
			c0-1.506,0.273-2.816,0.822-3.932c0.547-1.116,1.335-1.971,2.361-2.567c1.027-0.596,2.231-0.893,3.614-0.893
			c0.904,0,1.759,0.14,2.567,0.421c0.808,0.281,1.512,0.688,2.115,1.222c0.26,0.206,0.391,0.48,0.391,0.822
			c0,0.246-0.069,0.455-0.206,0.626c-0.137,0.172-0.301,0.257-0.493,0.257c-0.233,0-0.459-0.089-0.677-0.267
			c-0.657-0.493-1.256-0.839-1.797-1.037s-1.154-0.298-1.838-0.298c-1.506,0-2.663,0.486-3.47,1.458
			c-0.808,0.972-1.212,2.368-1.212,4.189c0,1.835,0.403,3.237,1.212,4.209c0.807,0.972,1.964,1.458,3.47,1.458
			c0.657,0,1.256-0.102,1.796-0.307c0.541-0.206,1.153-0.548,1.838-1.027c0.273-0.178,0.499-0.267,0.677-0.267
			c0.192,0,0.356,0.086,0.493,0.257c0.136,0.171,0.206,0.38,0.206,0.626c0,0.343-0.13,0.616-0.391,0.822
			c-0.603,0.534-1.307,0.941-2.115,1.222c-0.808,0.281-1.663,0.421-2.567,0.421C736.529,248.64,735.324,248.342,734.298,247.747z"/>
		<path d="M753.569,238.517c0.184,0.178,0.277,0.424,0.277,0.739v8.358c0,0.287-0.096,0.52-0.287,0.698
			c-0.192,0.178-0.445,0.267-0.76,0.267c-0.287,0-0.52-0.085-0.698-0.256c-0.178-0.171-0.267-0.4-0.267-0.688v-0.78
			c-0.315,0.575-0.75,1.013-1.304,1.314c-0.555,0.301-1.174,0.452-1.858,0.452c-2.437,0-3.655-1.341-3.655-4.025v-5.339
			c0-0.315,0.092-0.561,0.277-0.739c0.185-0.178,0.442-0.267,0.77-0.267c0.315,0,0.565,0.089,0.749,0.267
			c0.185,0.178,0.277,0.424,0.277,0.739v5.318c0,0.808,0.164,1.403,0.493,1.786c0.329,0.383,0.835,0.575,1.52,0.575
			c0.807,0,1.454-0.26,1.94-0.78c0.486-0.52,0.729-1.212,0.729-2.074v-4.826c0-0.301,0.096-0.544,0.287-0.729
			c0.192-0.184,0.444-0.277,0.76-0.277C753.134,238.25,753.384,238.339,753.569,238.517z"/>
		<path d="M756.802,247.757c-0.246-0.15-0.421-0.308-0.524-0.472c-0.102-0.164-0.154-0.349-0.154-0.554
			c0-0.219,0.061-0.404,0.184-0.555c0.124-0.15,0.281-0.226,0.472-0.226c0.178,0,0.458,0.11,0.842,0.329
			c0.411,0.219,0.811,0.397,1.201,0.534c0.39,0.137,0.88,0.206,1.468,0.206c0.657,0,1.17-0.116,1.54-0.349
			c0.369-0.233,0.554-0.561,0.554-0.986c0-0.273-0.072-0.492-0.216-0.657c-0.144-0.164-0.394-0.311-0.75-0.442
			c-0.356-0.13-0.883-0.27-1.581-0.421c-1.205-0.26-2.071-0.613-2.597-1.058c-0.527-0.445-0.791-1.051-0.791-1.817
			c0-0.589,0.171-1.119,0.514-1.591c0.342-0.472,0.814-0.838,1.417-1.099c0.602-0.26,1.286-0.39,2.053-0.39
			c0.548,0,1.081,0.072,1.601,0.216c0.52,0.144,0.979,0.353,1.376,0.626c0.452,0.301,0.678,0.651,0.678,1.047
			c0,0.219-0.065,0.404-0.195,0.555c-0.13,0.151-0.285,0.226-0.462,0.226c-0.123,0-0.246-0.027-0.369-0.082
			c-0.124-0.055-0.288-0.144-0.493-0.267c-0.37-0.219-0.716-0.39-1.037-0.514c-0.322-0.123-0.722-0.185-1.201-0.185
			c-0.575,0-1.037,0.123-1.386,0.37c-0.349,0.246-0.524,0.582-0.524,1.006c0,0.383,0.161,0.681,0.483,0.893
			c0.321,0.212,0.927,0.414,1.817,0.605c0.917,0.192,1.636,0.411,2.156,0.657c0.52,0.246,0.893,0.551,1.119,0.914
			c0.226,0.363,0.339,0.825,0.339,1.386c0,0.89-0.373,1.605-1.119,2.146c-0.746,0.541-1.742,0.811-2.988,0.811
			C758.836,248.62,757.692,248.332,756.802,247.757z"/>
		<path d="M772.09,247.234c0.13,0.13,0.195,0.311,0.195,0.544c0,0.274-0.106,0.482-0.318,0.626
			c-0.212,0.144-0.524,0.202-0.934,0.174l-0.555-0.041c-1.108-0.082-1.937-0.421-2.484-1.017c-0.548-0.595-0.822-1.475-0.822-2.639
			v-4.826h-1.232c-0.602,0-0.904-0.267-0.904-0.801c0-0.246,0.079-0.442,0.236-0.585c0.158-0.144,0.38-0.216,0.667-0.216h1.232
			v-2.115c0-0.315,0.092-0.561,0.277-0.739c0.185-0.178,0.435-0.267,0.749-0.267c0.315,0,0.568,0.089,0.76,0.267
			c0.192,0.178,0.288,0.424,0.288,0.739v2.115h2.033c0.287,0,0.51,0.072,0.667,0.216c0.157,0.144,0.236,0.339,0.236,0.585
			c0,0.26-0.079,0.459-0.236,0.595c-0.158,0.137-0.38,0.206-0.667,0.206h-2.033v4.969c0,0.643,0.133,1.116,0.4,1.417
			c0.267,0.301,0.675,0.472,1.222,0.514l0.575,0.041C771.744,247.025,771.96,247.104,772.09,247.234z"/>
		<path d="M775.54,247.983c-0.746-0.424-1.321-1.03-1.725-1.817c-0.404-0.787-0.606-1.701-0.606-2.742
			c0-1.054,0.202-1.974,0.606-2.762c0.403-0.787,0.979-1.393,1.725-1.817c0.746-0.424,1.612-0.637,2.598-0.637
			c0.985,0,1.851,0.212,2.597,0.637c0.746,0.424,1.321,1.03,1.725,1.817c0.403,0.788,0.606,1.708,0.606,2.762
			c0,1.041-0.202,1.955-0.606,2.742c-0.404,0.787-0.979,1.393-1.725,1.817c-0.746,0.424-1.612,0.637-2.597,0.637
			C777.152,248.62,776.286,248.408,775.54,247.983z M780.242,246.074c0.486-0.602,0.729-1.485,0.729-2.649
			c0-1.15-0.246-2.029-0.739-2.639c-0.493-0.609-1.191-0.914-2.094-0.914s-1.602,0.305-2.094,0.914
			c-0.493,0.609-0.74,1.489-0.74,2.639c0,1.164,0.243,2.047,0.729,2.649c0.486,0.603,1.188,0.903,2.105,0.903
			C779.055,246.977,779.756,246.676,780.242,246.074z"/>
		<path d="M800.232,242.254v5.339c0,0.315-0.096,0.558-0.287,0.729c-0.192,0.171-0.445,0.256-0.76,0.256
			c-0.301,0-0.548-0.085-0.739-0.256c-0.192-0.171-0.287-0.414-0.287-0.729v-5.318c0-0.835-0.151-1.44-0.452-1.817
			c-0.301-0.377-0.774-0.565-1.417-0.565c-0.753,0-1.349,0.257-1.786,0.77c-0.438,0.514-0.657,1.215-0.657,2.105v4.826
			c0,0.315-0.096,0.558-0.287,0.729c-0.192,0.171-0.445,0.256-0.76,0.256c-0.301,0-0.548-0.085-0.739-0.256
			c-0.192-0.171-0.287-0.414-0.287-0.729v-5.318c0-0.835-0.151-1.44-0.452-1.817c-0.301-0.377-0.774-0.565-1.417-0.565
			c-0.753,0-1.352,0.257-1.796,0.77c-0.445,0.514-0.667,1.215-0.667,2.105v4.826c0,0.315-0.096,0.558-0.287,0.729
			c-0.192,0.171-0.438,0.256-0.739,0.256c-0.301,0-0.552-0.085-0.75-0.256c-0.199-0.171-0.298-0.414-0.298-0.729v-8.358
			c0-0.301,0.103-0.54,0.308-0.719c0.206-0.178,0.452-0.267,0.74-0.267c0.287,0,0.524,0.086,0.708,0.257
			c0.185,0.171,0.277,0.407,0.277,0.708v0.76c0.301-0.575,0.719-1.013,1.253-1.314c0.534-0.301,1.15-0.452,1.848-0.452
			c0.767,0,1.4,0.158,1.899,0.472c0.5,0.315,0.873,0.801,1.119,1.458c0.301-0.588,0.746-1.057,1.335-1.406
			c0.588-0.349,1.259-0.524,2.012-0.524C799.11,238.209,800.232,239.557,800.232,242.254z"/>
		<path d="M811.382,246.176c0.124,0.151,0.185,0.343,0.185,0.575c0,0.398-0.246,0.732-0.739,1.007
			c-0.479,0.274-1.003,0.486-1.571,0.637c-0.568,0.15-1.112,0.226-1.633,0.226c-1.588,0-2.841-0.462-3.758-1.386
			c-0.917-0.924-1.376-2.187-1.376-3.789c0-1.027,0.202-1.937,0.606-2.731c0.403-0.794,0.971-1.41,1.704-1.848
			c0.732-0.438,1.564-0.657,2.495-0.657c1.342,0,2.403,0.431,3.183,1.293c0.78,0.863,1.171,2.026,1.171,3.491
			c0,0.548-0.247,0.822-0.739,0.822h-6.345c0.136,2.122,1.156,3.183,3.059,3.183c0.506,0,0.945-0.069,1.315-0.206
			c0.369-0.136,0.76-0.315,1.17-0.534c0.041-0.027,0.154-0.086,0.339-0.175c0.185-0.089,0.339-0.133,0.462-0.133
			C811.101,245.95,811.259,246.026,811.382,246.176z M805.427,240.488c-0.48,0.506-0.767,1.219-0.862,2.136h5.297
			c-0.041-0.931-0.277-1.646-0.708-2.146c-0.431-0.499-1.037-0.749-1.818-0.749C806.543,239.728,805.907,239.982,805.427,240.488z"
			/>
		<path d="M820.171,239.092c0,0.301-0.075,0.527-0.226,0.678c-0.151,0.15-0.411,0.24-0.78,0.267l-0.616,0.061
			c-0.862,0.082-1.503,0.384-1.92,0.904c-0.418,0.52-0.626,1.15-0.626,1.889v4.702c0,0.329-0.096,0.575-0.287,0.739
			c-0.192,0.164-0.438,0.246-0.739,0.246c-0.301,0-0.551-0.082-0.75-0.246c-0.199-0.164-0.298-0.411-0.298-0.739v-8.358
			c0-0.315,0.099-0.558,0.298-0.729c0.198-0.171,0.448-0.257,0.75-0.257c0.274,0,0.503,0.086,0.687,0.257
			c0.185,0.171,0.277,0.407,0.277,0.708v0.986c0.273-0.602,0.671-1.061,1.191-1.376c0.52-0.315,1.109-0.5,1.766-0.554l0.287-0.021
			C819.842,238.209,820.171,238.49,820.171,239.092z"/>
		<path d="M728.65,274.865c-0.218-0.137-0.328-0.349-0.328-0.636c0-0.219,0.068-0.394,0.205-0.524
			c0.137-0.13,0.357-0.209,0.657-0.236l0.575-0.041c0.534-0.028,0.934-0.192,1.201-0.493c0.267-0.301,0.4-0.78,0.4-1.437v-9.425
			c0-0.329,0.099-0.578,0.298-0.749c0.198-0.171,0.448-0.257,0.75-0.257c0.301,0,0.547,0.086,0.739,0.257
			c0.192,0.171,0.287,0.421,0.287,0.749v9.302c0,1.15-0.267,2.019-0.801,2.608c-0.534,0.589-1.362,0.924-2.484,1.007l-0.555,0.041
			C729.185,275.056,728.87,275.002,728.65,274.865z M731.464,258.725c-0.233-0.219-0.349-0.506-0.349-0.862
			c0-0.356,0.116-0.64,0.349-0.852c0.232-0.212,0.547-0.318,0.945-0.318c0.383,0,0.695,0.106,0.934,0.318
			c0.24,0.212,0.359,0.496,0.359,0.852c0,0.356-0.116,0.643-0.349,0.862c-0.233,0.219-0.548,0.329-0.944,0.329
			C732.011,259.053,731.696,258.944,731.464,258.725z"/>
		<path d="M738.086,270.799c-0.746-0.424-1.321-1.03-1.725-1.817c-0.404-0.787-0.606-1.701-0.606-2.742
			c0-1.054,0.202-1.974,0.606-2.762c0.403-0.787,0.979-1.393,1.725-1.817c0.746-0.424,1.612-0.637,2.598-0.637
			c0.985,0,1.851,0.212,2.597,0.637c0.746,0.424,1.321,1.03,1.725,1.817c0.403,0.788,0.606,1.708,0.606,2.762
			c0,1.041-0.202,1.955-0.606,2.742c-0.404,0.787-0.979,1.393-1.725,1.817c-0.746,0.424-1.612,0.637-2.597,0.637
			C739.698,271.436,738.832,271.223,738.086,270.799z M742.788,268.889c0.486-0.602,0.729-1.485,0.729-2.649
			c0-1.15-0.246-2.029-0.739-2.639c-0.493-0.609-1.191-0.914-2.094-0.914s-1.602,0.305-2.094,0.914
			c-0.493,0.609-0.74,1.489-0.74,2.639c0,1.164,0.243,2.047,0.729,2.649c0.486,0.603,1.188,0.904,2.105,0.904
			C741.601,269.793,742.303,269.492,742.788,268.889z"/>
		<path d="M755.612,261.661c0.671,0.424,1.194,1.027,1.571,1.807c0.376,0.78,0.564,1.691,0.564,2.731
			c0,1.027-0.188,1.937-0.564,2.731c-0.377,0.794-0.904,1.41-1.581,1.848c-0.677,0.438-1.448,0.657-2.31,0.657
			c-0.753,0-1.417-0.161-1.992-0.482c-0.575-0.321-1.013-0.784-1.314-1.386v0.822c0,0.301-0.092,0.544-0.277,0.729
			c-0.185,0.184-0.434,0.277-0.749,0.277c-0.315,0-0.569-0.092-0.76-0.277c-0.192-0.185-0.288-0.428-0.288-0.729v-12.69
			c0-0.301,0.099-0.541,0.298-0.719c0.198-0.178,0.455-0.267,0.77-0.267c0.301,0,0.544,0.085,0.729,0.256
			c0.185,0.172,0.277,0.401,0.277,0.688v5.257c0.301-0.602,0.739-1.067,1.314-1.396c0.575-0.329,1.239-0.493,1.992-0.493
			C754.167,261.025,754.941,261.237,755.612,261.661z M754.883,268.848c0.5-0.629,0.749-1.512,0.749-2.649
			c0-1.122-0.246-1.989-0.739-2.598c-0.492-0.609-1.191-0.914-2.094-0.914s-1.599,0.308-2.084,0.924
			c-0.486,0.616-0.729,1.492-0.729,2.628c0,1.137,0.243,2.013,0.729,2.629c0.486,0.616,1.181,0.924,2.084,0.924
			C753.688,269.793,754.383,269.478,754.883,268.848z"/>
		<path d="M760.108,270.573c-0.246-0.15-0.421-0.308-0.524-0.472c-0.102-0.164-0.154-0.349-0.154-0.554
			c0-0.219,0.061-0.404,0.184-0.555c0.124-0.15,0.281-0.226,0.472-0.226c0.178,0,0.458,0.11,0.842,0.329
			c0.411,0.219,0.811,0.397,1.201,0.534c0.391,0.137,0.88,0.206,1.468,0.206c0.657,0,1.17-0.116,1.54-0.349
			c0.369-0.233,0.554-0.561,0.554-0.986c0-0.273-0.072-0.492-0.216-0.657c-0.144-0.164-0.394-0.311-0.75-0.442
			c-0.356-0.13-0.883-0.27-1.581-0.421c-1.205-0.26-2.071-0.613-2.597-1.058c-0.528-0.444-0.791-1.051-0.791-1.817
			c0-0.589,0.171-1.119,0.514-1.591c0.342-0.472,0.814-0.838,1.417-1.099c0.602-0.26,1.286-0.39,2.053-0.39
			c0.548,0,1.081,0.072,1.601,0.216s0.979,0.353,1.376,0.626c0.452,0.301,0.678,0.651,0.678,1.047c0,0.219-0.065,0.404-0.195,0.555
			c-0.13,0.151-0.285,0.226-0.462,0.226c-0.123,0-0.246-0.027-0.369-0.082c-0.124-0.055-0.288-0.144-0.493-0.267
			c-0.37-0.219-0.716-0.39-1.037-0.514c-0.322-0.123-0.722-0.185-1.201-0.185c-0.575,0-1.037,0.123-1.386,0.37
			c-0.349,0.246-0.524,0.582-0.524,1.006c0,0.383,0.161,0.681,0.483,0.893c0.321,0.212,0.927,0.414,1.817,0.605
			c0.917,0.192,1.636,0.411,2.156,0.657c0.52,0.246,0.893,0.551,1.119,0.914c0.226,0.363,0.339,0.825,0.339,1.386
			c0,0.89-0.373,1.605-1.119,2.146c-0.746,0.541-1.742,0.811-2.988,0.811C762.142,271.436,760.998,271.148,760.108,270.573z"/>
	</g>
	<g>
		<line class="st7" x1="48.16" y1="211.338" x2="109.762" y2="211.338"/>
		<path class="st3" d="M109.762,212.194H48.16c-0.473,0-0.856-0.383-0.856-0.856c0-0.472,0.383-0.856,0.856-0.856h61.603
			c0.473,0,0.856,0.383,0.856,0.856C110.618,211.81,110.235,212.194,109.762,212.194z"/>
	</g>
</g>
<g id="Layer_9">
	<g>
		<path class="st2" d="M645.059,251.234l-4.29-16.181l-4.227,0.876c-3.478,0.721-7.083,0.533-10.468-0.544l-20.441-6.506
			c-2.02-0.643-3.481-2.402-3.741-4.505l-0.634-5.114c-0.348-2.807,1.517-5.411,4.287-5.984l22.616-4.685l6.436-7.713
			c2.449-2.935,5.82-4.955,9.563-5.73l9.327-1.932l1.559-20.098c0.11-1.417,1.292-2.51,2.712-2.51l0,0
			c0.921,0,1.78,0.466,2.282,1.239l10.602,16.332c1.27,1.957,2.165,4.133,2.638,6.418l0.7,3.378l26.14,40.166"/>
		<path class="st3" d="M644.232,251.453l-4.082-15.398l-3.434,0.711c-3.615,0.748-7.384,0.551-10.902-0.566l-20.441-6.506
			c-2.33-0.742-4.03-2.789-4.331-5.215l-0.634-5.114c-0.4-3.225,1.779-6.268,4.961-6.927l22.324-4.624l6.245-7.484
			c2.562-3.071,6.13-5.209,10.046-6.02l8.698-1.802l1.51-19.457c0.143-1.85,1.709-3.3,3.565-3.3c1.216,0,2.337,0.609,3,1.628
			l10.602,16.332c1.334,2.056,2.262,4.313,2.758,6.711l0.667,3.22l26.053,40.031l-1.434,0.934l-26.229-40.301l-0.732-3.535
			c-0.453-2.189-1.3-4.25-2.518-6.126l-10.602-16.332c-0.345-0.532-0.931-0.849-1.565-0.849c-0.968,0-1.784,0.756-1.859,1.721
			l-1.609,20.739l-9.957,2.063c-3.539,0.733-6.764,2.665-9.08,5.441l-6.628,7.942l-22.908,4.746
			c-2.316,0.48-3.902,2.694-3.611,5.041l0.634,5.114c0.219,1.766,1.456,3.255,3.152,3.795l20.441,6.505
			c3.237,1.031,6.709,1.21,10.035,0.522l5.02-1.04l4.497,16.964L644.232,251.453z"/>
	</g>
	<g>
		<path class="st3" d="M604.519,220.721l-2.445-0.51c-0.462-0.097-0.759-0.55-0.663-1.013c0.097-0.462,0.548-0.759,1.013-0.663
			l2.263,0.472c0.675-0.014,1.341-0.131,1.981-0.349l0.895-0.305c0.376-0.129,0.675-0.431,0.798-0.809l0.48-1.474
			c0.116-0.356-0.05-0.75-0.387-0.915l-0.148-0.092l-1.115-0.867c-0.373-0.29-0.44-0.828-0.15-1.2c0.29-0.373,0.828-0.44,1.2-0.15
			l1.053,0.819c1.038,0.563,1.541,1.807,1.173,2.937l-0.48,1.474c-0.289,0.887-0.989,1.597-1.873,1.899l-0.895,0.305
			c-0.842,0.287-1.72,0.436-2.609,0.442L604.519,220.721z"/>
	</g>
	<g>
		<path class="st3" d="M650.235,205.087c0,0-1.108,3.34-3.628,4.243s-5.497-0.972-5.497-0.972s1.108-3.34,3.628-4.243
			C647.258,203.212,650.235,205.087,650.235,205.087z"/>
	</g>
</g>
</svg>
