<?xml version="1.0" encoding="utf-8"?>
<!-- Generator: Adobe Illustrator 21.1.0, SVG Export Plug-In . SVG Version: 6.00 Build 0)  -->
<svg version="1.1" id="Layer_1" xmlns="http://www.w3.org/2000/svg" xmlns:xlink="http://www.w3.org/1999/xlink" x="0px" y="0px"
	 viewBox="0 0 109.2 92.5" style="enable-background:new 0 0 109.2 92.5;" xml:space="preserve">
<style type="text/css">
	.st0{fill:#FFFFFF;}
	.st1{fill:#414B6B;}
</style>
<g id="Layer_1_1_">
</g>
<g>
	<rect x="42.8" y="65.7" class="st0" width="21.9" height="5.6"/>
	<rect x="36.2" y="71.3" class="st0" width="35.3" height="5.9"/>
	<g id="Layer_3">
		<g>
			<g>
				<path class="st1" d="M41.6,45.7H8.5l15.6-31.7l59.1,5.6l1.1,2.1l-57.9-5.5L41.6,45.7z M11.7,43.7h26.6L24.7,17.3L11.7,43.7z"/>
			</g>
			<g>
				<rect x="52.7" y="18" class="st1" width="2" height="47.7"/>
			</g>
			<g>
				<path class="st1" d="M73.4,78H34.9v-7.6h38.5L73.4,78L73.4,78z M36.9,76h34.5v-3.6H36.9V76z"/>
			</g>
			<g>
				<polygon class="st1" points="65.4,71.3 63.4,71.3 63.4,66.7 43.9,66.7 43.9,71.3 41.9,71.3 41.9,64.7 65.4,64.7 				"/>
			</g>
			<g>
				<path class="st1" d="M99.3,50.8H66.2l14.9-30.2c0.5-1.1,2.1-1.1,2.7,0L99.3,50.8z M69.4,48.8H96L82.4,22.4L69.4,48.8z"/>
			</g>
			<g>
				<path class="st0" d="M28.6,44.3c0,0.1,0,0.2,0,0.4h-8c0-0.1,0-0.2,0-0.4c0-2,1.8-3.7,4-3.7C26.8,40.6,28.6,42.3,28.6,44.3z"/>
				<path class="st1" d="M29.5,45.7h-9.8l-0.1-0.9c0-0.2,0-0.3,0-0.5c0-2.6,2.2-4.7,5-4.7c2.8,0,5,2.1,5,4.7c0,0.2,0,0.3,0,0.5
					L29.5,45.7z M21.6,43.7h5.9c-0.3-1.2-1.5-2.1-2.9-2.1C23.1,41.6,21.9,42.5,21.6,43.7z"/>
			</g>
			<g>
				<path class="st0" d="M89.6,49.3c0,0.2,0,0.3,0,0.5H78.7c0-0.2,0-0.3,0-0.5c0-2.8,2.4-5,5.4-5C87.1,44.2,89.6,46.5,89.6,49.3z"/>
				<path class="st1" d="M90.4,50.8H77.8l-0.1-0.9c0-0.2,0-0.4,0-0.6c0-3.3,2.9-6,6.4-6c3.6,0,6.5,2.7,6.5,6c0,0.2,0,0.4,0,0.6
					L90.4,50.8z M79.7,48.8h8.8c-0.3-2-2.1-3.5-4.4-3.5C81.8,45.2,80,46.8,79.7,48.8z"/>
			</g>
		</g>
	</g>
</g>
</svg>
