<?xml version="1.0" encoding="utf-8"?>
<!-- Generator: Adobe Illustrator 21.1.0, SVG Export Plug-In . SVG Version: 6.00 Build 0)  -->
<svg version="1.1" id="Layer_1" xmlns="http://www.w3.org/2000/svg" xmlns:xlink="http://www.w3.org/1999/xlink" x="0px" y="0px"
	 viewBox="0 0 100 100" style="enable-background:new 0 0 100 100;" xml:space="preserve">
<style type="text/css">
	.st0{fill:#FFFFFF;}
	.st1{fill:#414B6B;}
</style>
<g>
	<g>
		<circle class="st0" cx="20.991" cy="78.763" r="11.307"/>
	</g>
	<g>
		<path class="st1" d="M18.893,90.893c-1.417-0.243-2.77-0.73-4.021-1.448l0.994-1.734c1.048,0.601,2.18,1.008,3.366,1.212
			L18.893,90.893z M23.163,90.878l-0.351-1.969c1.185-0.211,2.314-0.626,3.355-1.232l1.007,1.729
			C25.93,90.13,24.58,90.626,23.163,90.878z M11.592,86.707c-0.931-1.101-1.655-2.342-2.151-3.688l1.876-0.691
			c0.416,1.127,1.022,2.166,1.803,3.089L11.592,86.707z M30.438,86.651l-1.534-1.283c0.774-0.926,1.375-1.969,1.784-3.101
			l1.881,0.68C32.079,84.3,31.362,85.546,30.438,86.651z M9.113,78.801l-0.429-0.008c0-1.476,0.248-2.891,0.738-4.237l1.879,0.684
			c-0.41,1.127-0.618,2.312-0.618,3.524L9.113,78.801z M31.298,78.742c-0.002-1.211-0.213-2.396-0.625-3.522l1.878-0.688
			c0.493,1.346,0.745,2.761,0.748,4.206L31.298,78.742z M13.092,72.142l-1.531-1.287c0.926-1.103,2.025-2.027,3.268-2.748
			l1.004,1.73C14.791,70.441,13.869,71.216,13.092,72.142z M28.877,72.127c-0.779-0.924-1.702-1.697-2.744-2.299l0.999-1.732
			c1.244,0.718,2.346,1.641,3.274,2.742L28.877,72.127z M19.191,68.612l-0.348-1.969c1.395-0.248,2.867-0.249,4.271-0.005
			l-0.343,1.971C21.593,68.404,20.358,68.406,19.191,68.612z"/>
	</g>
</g>
<g>
	<circle class="st0" cx="78.28" cy="21.924" r="11.307"/>
</g>
<g>
	<path class="st1" d="M78.28,34.231c-6.786,0-12.307-5.521-12.307-12.307S71.494,9.618,78.28,9.618s12.307,5.521,12.307,12.307
		S85.066,34.231,78.28,34.231z M78.28,11.618c-5.683,0-10.307,4.624-10.307,10.307s4.624,10.307,10.307,10.307
		s10.307-4.624,10.307-10.307S83.963,11.618,78.28,11.618z"/>
</g>
<g>
	<path class="st1" d="M49.258,61.082c-10.784,0-19.323-9.682-19.681-10.094l-0.57-0.656l0.57-0.656
		c0.358-0.413,8.896-10.095,19.681-10.095c10.785,0,19.323,9.682,19.682,10.095l0.57,0.656l-0.57,0.656
		C68.581,51.4,60.043,61.082,49.258,61.082z M31.703,50.332c2.092,2.136,9.243,8.75,17.555,8.75c8.312,0,15.462-6.613,17.555-8.75
		c-2.093-2.137-9.243-8.75-17.555-8.75C40.93,41.582,33.792,48.195,31.703,50.332z"/>
</g>
<g>
	<circle class="st0" cx="49.258" cy="50.332" r="9.037"/>
	<path class="st1" d="M49.258,60.369c-5.535,0-10.037-4.502-10.037-10.037s4.502-10.038,10.037-10.038
		c5.534,0,10.037,4.503,10.037,10.038S54.792,60.369,49.258,60.369z M49.258,42.295c-4.432,0-8.037,3.605-8.037,8.038
		c0,4.431,3.605,8.037,8.037,8.037s8.037-3.605,8.037-8.037C57.295,45.9,53.689,42.295,49.258,42.295z"/>
</g>
<g>
	<circle class="st1" cx="49.258" cy="50.332" r="5.827"/>
</g>
<g>
	<path class="st1" d="M32.635,69.178l-1.454-1.373l2.746-2.908l1.454,1.373L32.635,69.178z M38.126,63.36l-1.454-1.373l2.13-2.256
		l1.454,1.373L38.126,63.36z"/>
</g>
<g>
	
		<rect x="59.592" y="35.791" transform="matrix(0.6623 -0.7492 0.7492 0.6623 -5.7326 60.8633)" class="st1" width="10.117" height="1.999"/>
</g>
</svg>
