<?xml version="1.0" encoding="utf-8"?>
<!-- Generator: Adobe Illustrator 21.1.0, SVG Export Plug-In . SVG Version: 6.00 Build 0)  -->
<svg version="1.1" id="Layer_1" xmlns="http://www.w3.org/2000/svg" xmlns:xlink="http://www.w3.org/1999/xlink" x="0px" y="0px"
	 viewBox="0 0 33.875 37.312" style="enable-background:new 0 0 33.875 37.312;" xml:space="preserve">
<style type="text/css">
	.st0{fill:#FFFFFF;}
</style>
<g id="Layer_1_1_">
</g>
<g>
	<path class="st0" d="M8.344,17.382c-3.844,0-6.971-3.127-6.971-6.972c0-3.844,3.127-6.971,6.971-6.971
		c3.844,0,6.971,3.127,6.971,6.971C15.315,14.254,12.188,17.382,8.344,17.382z M8.344,4.939c-3.017,0-5.471,2.455-5.471,5.471
		c0,3.017,2.455,5.472,5.471,5.472c3.017,0,5.471-2.455,5.471-5.472C13.815,7.394,11.361,4.939,8.344,4.939z"/>
</g>
<g>
	<path class="st0" d="M24.63,18.501l-8.091-8.091l8.091-8.091l8.091,8.091L24.63,18.501z M18.66,10.41l5.97,5.97l5.97-5.97
		l-5.97-5.97L18.66,10.41z"/>
</g>
<g>
	<path class="st0" d="M15.227,33.328H0.42l7.503-14.207L15.227,33.328z M2.909,31.828h9.861l-4.864-9.46L2.909,31.828z"/>
</g>
<g>
	<path class="st0" d="M28.513,33.459h-8.136l-4.068-7.046l4.068-7.046h8.136l4.068,7.046L28.513,33.459z M21.242,31.959h6.405
		l3.201-5.546l-3.201-5.546h-6.405l-3.201,5.546L21.242,31.959z"/>
</g>
</svg>
