<?xml version="1.0" encoding="utf-8"?>
<!-- Generator: Adobe Illustrator 21.1.0, SVG Export Plug-In . SVG Version: 6.00 Build 0)  -->
<svg version="1.1" id="Layer_3" xmlns="http://www.w3.org/2000/svg" xmlns:xlink="http://www.w3.org/1999/xlink" x="0px" y="0px"
	 viewBox="0 0 85 91" style="enable-background:new 0 0 85 91;" xml:space="preserve">
<style type="text/css">
	.st0{fill:#E3EFF3;}
	.st1{fill:#555555;}
</style>
<g>
	<g>
		<circle class="st0" cx="40.256" cy="50.649" r="26.625"/>
		<path class="st1" d="M40.256,78.024c-15.095,0-27.375-12.28-27.375-27.375s12.28-27.375,27.375-27.375s27.375,12.28,27.375,27.375
			S55.351,78.024,40.256,78.024z M40.256,24.774c-14.268,0-25.875,11.607-25.875,25.875s11.607,25.875,25.875,25.875
			s25.875-11.607,25.875-25.875S54.523,24.774,40.256,24.774z"/>
	</g>
	<g>
		<path class="st1" d="M40.256,82.399c-17.507,0-31.75-14.243-31.75-31.75s14.243-31.75,31.75-31.75s31.75,14.243,31.75,31.75
			S57.763,82.399,40.256,82.399z M40.256,20.399c-16.68,0-30.25,13.57-30.25,30.25s13.57,30.25,30.25,30.25s30.25-13.57,30.25-30.25
			S56.936,20.399,40.256,20.399z"/>
	</g>
	<g>
		<path class="st1" d="M40.256,55.399c-2.619,0-4.75-2.131-4.75-4.75s2.131-4.75,4.75-4.75s4.75,2.131,4.75,4.75
			S42.875,55.399,40.256,55.399z M40.256,47.399c-1.792,0-3.25,1.458-3.25,3.25s1.458,3.25,3.25,3.25s3.25-1.458,3.25-3.25
			S42.048,47.399,40.256,47.399z"/>
	</g>
	<g>
		<rect x="39.506" y="30.649" class="st1" width="1.5" height="16"/>
	</g>
	<g>
		<rect x="39.506" y="11.913" class="st1" width="1.5" height="7.125"/>
	</g>
	<g>
		<path class="st1" d="M47.525,12.663H32.987c-1.575,0-2.856-1.281-2.856-2.856V7.894c0-1.575,1.281-2.856,2.856-2.856h14.538
			c1.574,0,2.855,1.281,2.855,2.856v1.913C50.381,11.381,49.1,12.663,47.525,12.663z M32.987,6.538
			c-0.748,0-1.356,0.608-1.356,1.356v1.913c0,0.748,0.608,1.356,1.356,1.356h14.538c0.747,0,1.355-0.608,1.355-1.356V7.894
			c0-0.748-0.608-1.356-1.355-1.356H32.987z"/>
	</g>
	<g>
		
			<rect x="61.387" y="25.722" transform="matrix(0.7238 -0.69 0.69 0.7238 -0.3318 52.1154)" class="st1" width="7.099" height="1.5"/>
	</g>
	<g>
		<path class="st1" d="M73.231,29.869c-0.688,0-1.377-0.246-1.923-0.744h-0.001l-9.185-8.379c-1.163-1.061-1.246-2.871-0.186-4.035
			l0.827-0.905c0.513-0.563,1.216-0.893,1.979-0.928c0.745-0.033,1.491,0.229,2.055,0.743L75.983,24
			c0.563,0.515,0.893,1.217,0.928,1.979c0.035,0.763-0.229,1.493-0.743,2.056l-0.824,0.905
			C74.78,29.556,74.007,29.869,73.231,29.869z M72.319,28.017c0.551,0.504,1.412,0.464,1.916-0.088l0.824-0.905
			c0.245-0.268,0.37-0.614,0.354-0.976c-0.017-0.362-0.174-0.696-0.441-0.94l-9.185-8.378c-0.267-0.244-0.602-0.376-0.976-0.353
			c-0.361,0.017-0.695,0.173-0.938,0.44l-0.827,0.905c-0.503,0.552-0.464,1.412,0.088,1.915L72.319,28.017z"/>
	</g>
</g>
</svg>
