<?xml version="1.0" encoding="utf-8"?>
<!-- Generator: Adobe Illustrator 21.1.0, SVG Export Plug-In . SVG Version: 6.00 Build 0)  -->
<svg version="1.1" id="Layer_3" xmlns="http://www.w3.org/2000/svg" xmlns:xlink="http://www.w3.org/1999/xlink" x="0px" y="0px"
	 viewBox="0 0 125.707 91" style="enable-background:new 0 0 125.707 91;" xml:space="preserve">
<style type="text/css">
	.st0{fill:#E3EFF3;}
	.st1{fill:#555555;}
</style>
<g>
	<path class="st0" d="M13.653,32.755c0,12.223,9.891,22.134,22.114,22.134c1.688,0,3.337-0.181,4.905-0.543l17.611,6.232
		L51.97,47.813c3.679-3.96,5.911-9.248,5.911-15.057c0-12.203-9.891-22.114-22.114-22.114
		C23.544,10.642,13.653,20.553,13.653,32.755z"/>
	<path class="st1" d="M59.773,61.902l-19.147-6.776c-1.552,0.341-3.185,0.514-4.859,0.514c-12.606,0-22.863-10.266-22.863-22.884
		c0-12.607,10.257-22.864,22.863-22.864c12.607,0,22.864,10.257,22.864,22.864c0,5.623-2.043,10.994-5.763,15.184L59.773,61.902z
		 M40.716,53.566l16.075,5.689l-5.723-11.574l0.352-0.379c3.683-3.965,5.711-9.131,5.711-14.547c0-11.78-9.584-21.364-21.364-21.364
		c-11.779,0-21.363,9.584-21.363,21.364c0,11.791,9.584,21.384,21.363,21.384c1.639,0,3.232-0.176,4.736-0.524L40.716,53.566z"/>
</g>
<g>
	<path class="st1" d="M48.683,81.922l4.403-11.284h-4.489c-1.578,0-2.862-1.284-2.862-2.862V56.242h1.5v11.534
		c0,0.751,0.611,1.362,1.362,1.362h6.685l-3.544,9.084l14.401-9.084h38.344c0.751,0,1.362-0.611,1.362-1.362V37.722
		c0-0.751-0.611-1.362-1.362-1.362H57.7v-1.5h46.782c1.578,0,2.862,1.284,2.862,2.862v30.054c0,1.578-1.284,2.862-2.862,2.862
		h-37.91L48.683,81.922z"/>
</g>
<g>
	<rect x="22.706" y="28.276" class="st1" width="27.81" height="1.5"/>
</g>
<g>
	<rect x="27.062" y="37.373" class="st1" width="18.763" height="1.5"/>
</g>
<g>
	<rect x="58.282" y="47.528" class="st1" width="36.142" height="1.5"/>
</g>
<g>
	<rect x="64.741" y="56.47" class="st1" width="24.218" height="1.5"/>
</g>
</svg>
