<?xml version="1.0" encoding="utf-8"?>
<!-- Generator: Adobe Illustrator 21.1.0, SVG Export Plug-In . SVG Version: 6.00 Build 0)  -->
<svg version="1.1" xmlns="http://www.w3.org/2000/svg" xmlns:xlink="http://www.w3.org/1999/xlink" x="0px" y="0px"
	 viewBox="0 0 109.25 92.5" style="enable-background:new 0 0 109.25 92.5;" xml:space="preserve">
<style type="text/css">
	.st0{fill:#FFFFFF;}
	.st1{fill:#414B6B;}
</style>
<g id="Layer_1">
	<g>
		<circle class="st0" cx="56.479" cy="51.5" r="9.96"/>
		<path class="st1" d="M56.479,62.46c-6.044,0-10.96-4.917-10.96-10.96s4.917-10.96,10.96-10.96c6.043,0,10.96,4.917,10.96,10.96
			S62.522,62.46,56.479,62.46z M56.479,42.54c-4.94,0-8.96,4.02-8.96,8.96s4.02,8.96,8.96,8.96s8.96-4.02,8.96-8.96
			S61.42,42.54,56.479,42.54z"/>
	</g>
	<g>
		<path class="st1" d="M34.433,34.399c-6.043,0-10.96-4.917-10.96-10.96s4.917-10.96,10.96-10.96s10.96,4.917,10.96,10.96
			S40.477,34.399,34.433,34.399z M34.433,14.479c-4.941,0-8.96,4.02-8.96,8.96c0,4.941,4.02,8.96,8.96,8.96
			c4.94,0,8.96-4.02,8.96-8.96C43.393,18.498,39.374,14.479,34.433,14.479z"/>
	</g>
	<g>
		<path class="st1" d="M31.516,79.788c-4.435,0-8.043-3.608-8.043-8.043s3.608-8.043,8.043-8.043s8.043,3.608,8.043,8.043
			S35.951,79.788,31.516,79.788z M31.516,65.702c-3.332,0-6.043,2.711-6.043,6.043s2.711,6.043,6.043,6.043s6.043-2.711,6.043-6.043
			S34.848,65.702,31.516,65.702z"/>
	</g>
	<g>
		
			<rect x="43.837" y="30.003" transform="matrix(0.7626 -0.6469 0.6469 0.7626 -13.8894 38.0122)" class="st1" width="2" height="15.849"/>
	</g>
	<g>
		
			<rect x="34.949" y="61.171" transform="matrix(0.7961 -0.6051 0.6051 0.7961 -28.9485 38.4205)" class="st1" width="15.188" height="1.999"/>
	</g>
	<g>
		
			<rect x="63.73" y="41.049" transform="matrix(0.9221 -0.3868 0.3868 0.9221 -10.6115 31.369)" class="st1" width="17.799" height="1.999"/>
	</g>
	<g>
		
			<rect x="67.134" y="56.685" transform="matrix(0.6747 -0.7381 0.7381 0.6747 -24.6256 70.9112)" class="st1" width="2" height="13.416"/>
	</g>
</g>
<g id="Layer_3">
	<g>
		<path class="st1" d="M76.272,77.724c-3.298,0-5.98-2.683-5.98-5.979c0-3.298,2.683-5.98,5.98-5.98s5.98,2.683,5.98,5.98
			C82.253,75.042,79.57,77.724,76.272,77.724z M76.272,67.764c-2.195,0-3.98,1.785-3.98,3.98c0,2.194,1.785,3.979,3.98,3.979
			s3.98-1.785,3.98-3.979C80.253,69.549,78.468,67.764,76.272,67.764z"/>
	</g>
	<g>
		<path class="st1" d="M85.548,42.606c-3.298,0-5.98-2.683-5.98-5.98s2.683-5.98,5.98-5.98c3.297,0,5.979,2.683,5.979,5.98
			S88.845,42.606,85.548,42.606z M85.548,32.646c-2.195,0-3.98,1.786-3.98,3.98s1.785,3.98,3.98,3.98
			c2.194,0,3.979-1.786,3.979-3.98S87.742,32.646,85.548,32.646z"/>
	</g>
</g>
</svg>
