<?xml version="1.0" encoding="utf-8"?>
<!-- Generator: Adobe Illustrator 21.1.0, SVG Export Plug-In . SVG Version: 6.00 Build 0)  -->
<svg version="1.1" id="Layer_1" xmlns="http://www.w3.org/2000/svg" xmlns:xlink="http://www.w3.org/1999/xlink" x="0px" y="0px"
	 viewBox="0 0 59.104 76.5" style="enable-background:new 0 0 59.104 76.5;" xml:space="preserve">
<style type="text/css">
	.st0{fill:#333333;}
</style>
<g>
	<path class="st0" d="M8.698,72.489l-0.729-1.311c0.019-0.01,1.87-1.051,4.8-3.396l0.938,1.171
		C10.666,71.387,8.777,72.445,8.698,72.489z M18.271,64.963l-1.031-1.089c1.399-1.326,2.802-2.753,4.17-4.241l1.104,1.015
		C21.124,62.162,19.696,63.613,18.271,64.963z M26.462,56.069l-1.165-0.944c1.229-1.517,2.446-3.109,3.617-4.733l1.217,0.877
		C28.943,52.916,27.709,54.531,26.462,56.069z M33.529,46.277l-1.262-0.812c1.062-1.65,2.105-3.363,3.101-5.092l1.3,0.749
		C35.66,42.872,34.604,44.606,33.529,46.277z M39.556,35.825l-1.333-0.688c0.899-1.743,1.78-3.546,2.617-5.361l1.362,0.629
		C41.355,32.24,40.465,34.063,39.556,35.825z M44.615,24.881l-1.387-0.572c0.748-1.812,1.478-3.683,2.169-5.561l1.407,0.519
		C46.107,21.162,45.37,23.051,44.615,24.881z"/>
</g>
<g>
	<path class="st0" d="M47.5,16c-2.343,0-4.25-1.907-4.25-4.25S45.157,7.5,47.5,7.5s4.25,1.907,4.25,4.25S49.843,16,47.5,16z M47.5,9
		c-1.517,0-2.75,1.233-2.75,2.75s1.233,2.75,2.75,2.75s2.75-1.233,2.75-2.75S49.017,9,47.5,9z"/>
</g>
</svg>
